<svg xmlns="http://www.w3.org/2000/svg" viewBox="0 0 100 100"><defs><style>.cls-1{fill:#515a63;}.cls-2{fill:#fff;}</style></defs><title>gramblr-logo</title><g id="Layer_2" data-name="Layer 2"><g id="Layer_1-2" data-name="Layer 1"><circle class="cls-1" cx="50" cy="50" r="50"/><path class="cls-2" d="M70.13,56a7.4,7.4,0,0,1-.29,2.28,22.7,22.7,0,0,0-3.39-.44c-1.25,8.62-11,20-19.36,22.16C34,79.7,28.17,73.37,28.17,59.6c0-20.17,16.12-39.53,33.35-39.53,6.7,0,10.75,3,10.75,8.17,0,3.39-1.47,6.19-5.23,9.57A6.31,6.31,0,0,1,62.55,33c3.39-2.5,4.56-4.2,4.56-7.07,0-2.21-1.47-3.39-4-3.39-4.34,0-9.64,3.46-14.72,9.57C41.05,40.83,37.89,49.74,37.89,61.3c0,8.54,3.68,14.58,8.32,15,6.26-1.4,13.18-10.75,14-17.81a38.9,38.9,0,0,1-7.51,1.25,6.06,6.06,0,0,1-6.11-4.12C50,53.71,61.37,51,66,51,68.59,51,70.13,52.83,70.13,56Z"/></g></g></svg>