<svg xmlns="http://www.w3.org/2000/svg" viewBox="0 0 100 100"><defs><style>.cls-1{fill:#fff;}.cls-2{fill:#c1084b;}.cls-3{fill:#ef2664;}.cls-4{fill:#fff600;}.cls-5{fill:#11113f;}</style></defs><title>medal-one</title><g id="Layer_2" data-name="Layer 2"><g id="Layer_1-2" data-name="Layer 1"><circle class="cls-1" cx="50" cy="50" r="50"/><polygon class="cls-2" points="24.86 19.32 39.43 19.32 54.13 40.2 39.49 44.33 22.8 20.48 24.86 19.32"/><polygon class="cls-3" points="60.96 19.32 78.23 19.32 60.05 44.33 42.4 44.33 60.96 19.32"/><circle class="cls-4" cx="50.02" cy="62.19" r="17.03"/><path class="cls-5" d="M80.43,18.18A2.2,2.2,0,0,0,78.48,17H60.87a2.2,2.2,0,0,0-1.8.94L50,31,40.93,17.94a2.2,2.2,0,0,0-1.8-.94H21.52a2.2,2.2,0,0,0-1.8,3.45L35,42.53a2.2,2.2,0,0,0,.83,4.23H37.4a20.32,20.32,0,1,0,25.2,0h1.52A2.2,2.2,0,0,0,65,42.53L80.28,20.45A2.2,2.2,0,0,0,80.43,18.18ZM38,21.39l9.35,13.47-5.21,7.51H40.28l-14.56-21ZM65.92,62.68A15.92,15.92,0,1,1,50,46.76,15.94,15.94,0,0,1,65.92,62.68Zm-6.2-20.32H47.46L62,21.39H74.28Z"/><path class="cls-5" d="M54.14,68.34H52.71V53.84a2.2,2.2,0,0,0-3.55-1.73l-4.61,3.62a2.2,2.2,0,1,0,2.71,3.45l1.06-.83v10H46.89a2.2,2.2,0,1,0,0,4.39h7.25a2.2,2.2,0,1,0,0-4.39Z"/></g></g></svg>