<svg xmlns="http://www.w3.org/2000/svg" viewBox="0 0 100 100"><defs><style>.cls-1,.cls-6{fill:#fff;}.cls-2{fill:#efebde;}.cls-2,.cls-3,.cls-4,.cls-5,.cls-6{stroke:#11113f;stroke-width:3px;}.cls-2,.cls-4{stroke-linecap:round;stroke-linejoin:round;}.cls-3,.cls-4{fill:#d5d0bb;}.cls-3,.cls-5,.cls-6{stroke-miterlimit:10;}.cls-5{fill:#71c386;}</style></defs><title>repost</title><g id="Layer_2" data-name="Layer 2"><g id="Layer_1-2" data-name="Layer 1"><circle class="cls-1" cx="50" cy="50" r="50"/><circle class="cls-1" cx="50" cy="50" r="50"/><polygon class="cls-2" points="67.5 35 53.5 21 22.5 21 22.5 79 67.5 79 67.5 35"/><path class="cls-3" d="M32.5,44h25a1,1,0,0,0,0-2h-25a1,1,0,0,0,0,2Z"/><path class="cls-3" d="M32.5,36h10a1,1,0,0,0,0-2h-10a1,1,0,0,0,0,2Z"/><path class="cls-3" d="M57.5,50h-25a1,1,0,0,0,0,2h25a1,1,0,0,0,0-2Z"/><path class="cls-3" d="M57.5,58h-25a1,1,0,0,0,0,2h25a1,1,0,0,0,0-2Z"/><path class="cls-3" d="M57.5,66h-25a1,1,0,0,0,0,2h25a1,1,0,0,0,0-2Z"/><polygon class="cls-4" points="53.5 21 53.5 35 67.5 35 53.5 21"/><circle class="cls-5" cx="65.5" cy="67" r="12"/><path class="cls-6" d="M71.5,66h-5V61a1,1,0,0,0-2,0v5h-5a1,1,0,0,0,0,2h5v5a1,1,0,0,0,2,0V68h5a1,1,0,0,0,0-2Z"/></g></g></svg>