<svg xmlns="http://www.w3.org/2000/svg" viewBox="0 0 100 100"><defs><style>.cls-1{fill:#fff;}.cls-2{fill:#8d9992;}.cls-3{fill:#b0c1b8;}.cls-4{fill:#11113f;}</style></defs><title>robot</title><g id="Layer_2" data-name="Layer 2"><g id="Layer_1-2" data-name="Layer 1"><circle class="cls-1" cx="50" cy="50" r="50"/><circle class="cls-2" cx="78" cy="43.33" r="1.57"/><circle class="cls-2" cx="51.33" cy="24.67" r="4.37"/><polygon class="cls-2" points="27.33 61.5 27.88 56.67 31.33 51.33 38.2 52 40.83 61.5 27.33 61.5"/><rect class="cls-2" x="19.25" y="74.75" width="29.13" height="6.5"/><polygon class="cls-3" points="74 50 74.5 44.38 78 47.33 74 50"/><polygon class="cls-3" points="53.25 29.88 57.25 24.67 76.86 41.13 75.33 43.36 53.25 29.88"/><polygon class="cls-3" points="22.63 62 45.75 62 45.75 74.75 21.63 74.75 22.63 62"/><polygon class="cls-3" points="29.63 52.67 46 26.75 52.04 30.5 40.83 56.13 35.5 51.33 29.63 52.67"/><path class="cls-4" d="M48.67,74H19.33A1.33,1.33,0,0,0,18,75.33v5.33A1.33,1.33,0,0,0,19.33,82H48.67A1.33,1.33,0,0,0,50,80.67V75.33A1.33,1.33,0,0,0,48.67,74Zm-1.33,5.33H20.67V76.67H47.33v2.67Z"/><path class="cls-4" d="M46,60.67H22A1.33,1.33,0,0,0,20.67,62V75.33A1.33,1.33,0,0,0,22,76.67H46a1.33,1.33,0,0,0,1.33-1.33V62A1.33,1.33,0,0,0,46,60.67ZM44.67,74H23.33V63.33H44.67V74Z"/><path class="cls-4" d="M34,50a8,8,0,0,0-8,8v4a1.33,1.33,0,0,0,1.33,1.33H40.67A1.33,1.33,0,0,0,42,62V58A8,8,0,0,0,34,50Zm5.33,10.67H28.67V58a5.33,5.33,0,0,1,10.67,0v2.67Z"/><path class="cls-4" d="M47.12,25.59a1.33,1.33,0,0,0-1.84.41L28.87,52a1.33,1.33,0,1,0,2.25,1.43L47.53,27.43A1.33,1.33,0,0,0,47.12,25.59Z"/><path class="cls-4" d="M53.33,28.58a1.34,1.34,0,0,0-1.76.67L39.36,56.38a1.33,1.33,0,0,0,2.43,1.09L54,30.35A1.33,1.33,0,0,0,53.33,28.58Z"/><path class="cls-4" d="M51.33,18A6.67,6.67,0,1,0,58,24.67,6.67,6.67,0,0,0,51.33,18Zm0,10.67a4,4,0,1,1,4-4A4,4,0,0,1,51.33,28.67Z"/><path class="cls-4" d="M78,39.33a4,4,0,1,0,4,4A4,4,0,0,0,78,39.33Zm0,5.33a1.33,1.33,0,1,1,1.33-1.33A1.34,1.34,0,0,1,78,44.67Z"/><path class="cls-4" d="M77.78,39.84,57.5,23.63a1.33,1.33,0,1,0-1.66,2.08L76.11,41.93a1.33,1.33,0,1,0,1.66-2.08Z"/><path class="cls-4" d="M76,42.2l-22-13.74a1.33,1.33,0,1,0-1.41,2.26L73.77,43.93,71.38,52.3a1.33,1.33,0,0,0,.92,1.65,1.25,1.25,0,0,0,.37.05,1.33,1.33,0,0,0,1.28-1l2.67-9.33A1.34,1.34,0,0,0,76,42.2Z"/><path class="cls-4" d="M27.33,66A1.33,1.33,0,0,0,26,67.33V70a1.33,1.33,0,1,0,2.67,0V67.33A1.33,1.33,0,0,0,27.33,66Z"/><path class="cls-4" d="M32.67,66a1.33,1.33,0,0,0-1.33,1.33V70A1.33,1.33,0,0,0,34,70V67.33A1.33,1.33,0,0,0,32.67,66Z"/><path class="cls-4" d="M80.88,44A1.34,1.34,0,0,0,79,44.2L72.62,52.3a1.33,1.33,0,0,0,2.1,1.65l6.39-8.09A1.34,1.34,0,0,0,80.88,44Z"/><path class="cls-4" d="M72.67,51.33A2.67,2.67,0,1,0,75.33,54,2.67,2.67,0,0,0,72.67,51.33Z"/><path class="cls-4" d="M77.61,57.06l-4-4a1.34,1.34,0,0,0-.94-.39H67.33A1.33,1.33,0,0,0,66,54v5.33a1.33,1.33,0,1,0,2.67,0v-4h3.45L74.78,58l-3.06,3.06a1.33,1.33,0,1,0,1.89,1.88l4-4A1.33,1.33,0,0,0,77.61,57.06Z"/></g></g></svg>