<?xml version="1.0" encoding="iso-8859-1"?>
<!-- Generator: Adobe Illustrator 19.0.0, SVG Export Plug-In . SVG Version: 6.00 Build 0)  -->
<svg xmlns="http://www.w3.org/2000/svg" xmlns:xlink="http://www.w3.org/1999/xlink" version="1.1" id="Capa_1" x="0px" y="0px" viewBox="0 0 512 512" style="enable-background:new 0 0 512 512;" xml:space="preserve" width="512px" height="512px">
<g>
	<g>
		<path d="M467,422H89.164c-11.583,0-23.181,2.738-33.541,7.918L8.292,453.583c-11.048,5.524-11.023,21.322,0,26.834l47.331,23.665    c10.36,5.18,21.958,7.918,33.541,7.918H467c24.813,0,45-20.187,45-45S491.813,422,467,422z M90,482h-0.836    c-6.95,0-13.909-1.643-20.125-4.751L48.541,467l20.498-10.249C75.255,453.643,82.214,452,89.164,452H90V482z M362,482H120v-30h242    V482z M422,482h-30v-30h30V482z M467,482h-15v-30h15c8.271,0,15,6.729,15,15S475.271,482,467,482z" fill="#FFFFFF"/>
	</g>
</g>
<g>
	<g>
		<path d="M467,0H286c-11.517,0-22.032,4.354-30,11.495C248.032,4.354,237.517,0,226,0H45C20.187,0,0,20.187,0,45v332    c0,8.284,6.716,15,15,15c10.432,0,471.568,0,482,0c8.284,0,15-6.716,15-15V45C512,20.187,491.813,0,467,0z M32.57,362    c6.191-17.461,22.874-30,42.43-30h121c19.556,0,36.239,12.539,42.43,30H32.57z M241,317.041C228.456,307.603,212.871,302,196,302    H75c-16.871,0-32.456,5.603-45,15.041V45c0-8.271,6.729-15,15-15h181c8.271,0,15,6.729,15,15V317.041z M331,30h31v64.864    l-5.569-5.389c-5.882-5.694-15.247-5.618-21.038,0.172L331,94.041V30z M273.57,362c6.191-17.461,22.874-30,42.43-30h121    c19.556,0,36.239,12.539,42.43,30H273.57z M481.999,317.041C469.456,307.603,453.871,302,437,302H316    c-16.871,0-32.456,5.603-45,15.041V45c0-8.271,6.729-15,15-15h15v100.254c0,13.384,16.222,19.992,25.606,10.607l19.566-19.566    l20.396,19.738c9.504,9.197,25.431,2.423,25.431-10.779V30h75c8.271,0,15,6.729,15,15V317.041z" fill="#FFFFFF"/>
	</g>
</g>
<g>
	<g>
		<path d="M437,182H316c-8.284,0-15,6.716-15,15s6.716,15,15,15h121c8.284,0,15-6.716,15-15S445.284,182,437,182z" fill="#FFFFFF"/>
	</g>
</g>
<g>
	<g>
		<path d="M196,61H75c-8.284,0-15,6.716-15,15s6.716,15,15,15h121c8.284,0,15-6.716,15-15S204.284,61,196,61z" fill="#FFFFFF"/>
	</g>
</g>
<g>
	<g>
		<path d="M196,122H75c-8.284,0-15,6.716-15,15s6.716,15,15,15h121c8.284,0,15-6.716,15-15S204.284,122,196,122z" fill="#FFFFFF"/>
	</g>
</g>
<g>
	<g>
		<path d="M437,242H316c-8.284,0-15,6.716-15,15s6.716,15,15,15h121c8.284,0,15-6.716,15-15S445.284,242,437,242z" fill="#FFFFFF"/>
	</g>
</g>
<g>
	<g>
		<path d="M166,182H75c-8.284,0-15,6.716-15,15s6.716,15,15,15h91c8.284,0,15-6.716,15-15S174.284,182,166,182z" fill="#FFFFFF"/>
	</g>
</g>
<g>
</g>
<g>
</g>
<g>
</g>
<g>
</g>
<g>
</g>
<g>
</g>
<g>
</g>
<g>
</g>
<g>
</g>
<g>
</g>
<g>
</g>
<g>
</g>
<g>
</g>
<g>
</g>
<g>
</g>
</svg>
