<svg id="Layer_1" data-name="Layer 1" xmlns="http://www.w3.org/2000/svg" viewBox="0 0 1000 1000"><defs><style>.cls-1{fill:#f6f6f8;}.cls-2{fill:none;stroke:#324a5e;stroke-linecap:round;stroke-linejoin:round;stroke-width:5px;}.cls-3{fill:#a1c3c4;}.cls-4{fill:#83a7aa;}.cls-5{fill:#1f1e20;}.cls-5,.cls-6,.cls-7{fill-rule:evenodd;}.cls-6{fill:#111012;}.cls-7{fill:#f0f2f0;}.cls-8{fill:#fff;}.cls-9{fill:#ff7058;}.cls-10{fill:#f1543f;}.cls-11{fill:#d3cb66;}.cls-12{fill:#b2af50;}.cls-13{fill:#bf7436;}.cls-14{fill:#ad6018;}.cls-15{fill:#324a5e;}</style></defs><title>scheme-3</title><rect class="cls-1" width="1000" height="1000"/><polyline class="cls-2" points="464.13 394.08 464.13 407.33 202.18 407.33 202.18 421.69"/><circle class="cls-3" cx="464.4" cy="209.1" r="52.1"/><path class="cls-4" d="M525.42,381.8c-30.65,1.62-90.82.54-121.47,0,0-60,18.39-108.63,60.73-108.63S525.42,321.81,525.42,381.8Z"/><polygon class="cls-5" points="458.04 285.08 453.5 327.66 464.51 334.74 464.51 285.08 458.04 285.08"/><polygon class="cls-5" points="464.51 334.74 474.44 327.66 470.97 285.08 464.51 285.08 464.51 334.74"/><polygon class="cls-5" points="452.27 273.11 458.11 285.08 470.9 285.08 476.74 273.11 452.27 273.11"/><polygon class="cls-5" points="452.27 273.11 458.11 285.08 464.51 285.08 464.51 273.11 452.27 273.11"/><polygon class="cls-6" points="458.11 285.08 470.9 285.08 470.9 285.65 458.11 285.08"/><polygon class="cls-7" points="441.1 265.55 464.36 273.21 440.64 294.17 441.1 265.55"/><polygon class="cls-7" points="487.79 265.55 464.52 273.21 488.25 294.17 487.79 265.55"/><path class="cls-8" d="M460.53,360.85a10,10,0,0,1-1.59,5.56,10.57,10.57,0,0,1-4.66,3.86,17.47,17.47,0,0,1-7.28,1.39,16.37,16.37,0,0,1-8.32-1.91,11.08,11.08,0,0,1-3.78-3.66,8.31,8.31,0,0,1-1.45-4.45,3,3,0,0,1,3.09-3,2.62,2.62,0,0,1,1.85.7,5.5,5.5,0,0,1,1.29,2.07,13.81,13.81,0,0,0,1.41,2.72,5.69,5.69,0,0,0,2.13,1.8,7.86,7.86,0,0,0,3.6.71,8.13,8.13,0,0,0,5-1.43,4.3,4.3,0,0,0,1.92-3.57,3.78,3.78,0,0,0-1-2.75,6.67,6.67,0,0,0-2.67-1.62q-1.64-.56-4.38-1.19a32.09,32.09,0,0,1-6.15-2,9.93,9.93,0,0,1-3.93-3.14A8.15,8.15,0,0,1,434.1,346a8.48,8.48,0,0,1,1.53-5,9.68,9.68,0,0,1,4.44-3.36,18.2,18.2,0,0,1,6.83-1.17,16.91,16.91,0,0,1,5.43.78,11.49,11.49,0,0,1,3.8,2.07,8.64,8.64,0,0,1,2.21,2.71,6.25,6.25,0,0,1,.7,2.77,3.27,3.27,0,0,1-.87,2.22,2.78,2.78,0,0,1-2.17,1,2.5,2.5,0,0,1-1.8-.59,8,8,0,0,1-1.34-1.94,8.79,8.79,0,0,0-2.23-3,6.53,6.53,0,0,0-4.18-1.08,7.25,7.25,0,0,0-4.31,1.17,3.41,3.41,0,0,0-1.64,2.82,2.86,2.86,0,0,0,.56,1.77,4.69,4.69,0,0,0,1.53,1.28,10.29,10.29,0,0,0,2,.84q1,.3,3.3.88a52.06,52.06,0,0,1,5.22,1.49,15.89,15.89,0,0,1,4,2,8.14,8.14,0,0,1,2.56,2.94A9.41,9.41,0,0,1,460.53,360.85Z"/><path class="cls-8" d="M495.43,360.32a9.08,9.08,0,0,1-.8,3.52,12.68,12.68,0,0,1-2.52,3.72,12.86,12.86,0,0,1-4.39,3,15.8,15.8,0,0,1-6.23,1.14,21.8,21.8,0,0,1-4.9-.51,13.75,13.75,0,0,1-4-1.59,13.54,13.54,0,0,1-3.31-2.85,17,17,0,0,1-2.3-3.59,18.67,18.67,0,0,1-1.43-4.24,23.16,23.16,0,0,1-.48-4.79,21.23,21.23,0,0,1,1.2-7.37,15.73,15.73,0,0,1,3.43-5.57,15,15,0,0,1,5.23-3.52,16.94,16.94,0,0,1,6.39-1.21,16,16,0,0,1,7.37,1.65,13.36,13.36,0,0,1,5,4.08,8.05,8.05,0,0,1,1.72,4.59,3,3,0,0,1-.84,2.09,2.65,2.65,0,0,1-2,.91,2.79,2.79,0,0,1-2-.63A8.71,8.71,0,0,1,489,347a10.39,10.39,0,0,0-3.17-3.79,7.75,7.75,0,0,0-4.5-1.26,8.15,8.15,0,0,0-6.78,3.23q-2.52,3.23-2.52,9.18a17,17,0,0,0,1.12,6.61,8.35,8.35,0,0,0,3.16,3.94,8.72,8.72,0,0,0,4.79,1.3,8.4,8.4,0,0,0,5-1.48,8.92,8.92,0,0,0,3.1-4.34,7.37,7.37,0,0,1,1.09-2.2,2.47,2.47,0,0,1,2.09-.85,2.93,2.93,0,0,1,2.12.86A2.86,2.86,0,0,1,495.43,360.32Z"/><circle class="cls-9" cx="77.48" cy="723.27" r="35.94"/><path class="cls-10" d="M119.57,842.41c-21.14,1.12-62.65.37-83.8,0,0-41.39,12.68-74.94,41.9-74.94S119.57,801,119.57,842.41Z"/><path class="cls-8" d="M69.29,834.61H62.11a3,3,0,0,1-2.22-.7,3.14,3.14,0,0,1-.66-2.22V814a3.08,3.08,0,0,1,.68-2.24,3,3,0,0,1,2.21-.68h7.62a17.78,17.78,0,0,1,2.92.21,6.21,6.21,0,0,1,2.21.8,5.81,5.81,0,0,1,1.48,1.26,5.55,5.55,0,0,1,1,1.68,5.64,5.64,0,0,1,.34,1.95,5.41,5.41,0,0,1-3.53,5.16q4.63,1.48,4.64,5.74a6.45,6.45,0,0,1-1,3.55A6.07,6.07,0,0,1,75,833.79a9.68,9.68,0,0,1-2.47.63A25.16,25.16,0,0,1,69.29,834.61ZM64,814.67v6.08h4.36a8.75,8.75,0,0,0,2.75-.34,2.62,2.62,0,0,0,1.48-1.28,2.89,2.89,0,0,0,.4-1.51,2.34,2.34,0,0,0-1.27-2.37,9.68,9.68,0,0,0-3.87-.59Zm5,9.49H64V831H69.1q4.83,0,4.83-3.48A2.84,2.84,0,0,0,72.67,825,7,7,0,0,0,68.94,824.17Z"/><path class="cls-8" d="M87.54,813.58v17.11h9.65a2.55,2.55,0,0,1,1.77.56,1.83,1.83,0,0,1,.62,1.41,1.78,1.78,0,0,1-.61,1.4,2.61,2.61,0,0,1-1.78.54H85.7a2.49,2.49,0,0,1-2.92-2.92V813.58a3.15,3.15,0,0,1,.65-2.16,2.19,2.19,0,0,1,1.71-.72,2.27,2.27,0,0,1,1.74.71A3.09,3.09,0,0,1,87.54,813.58Z"/><polygon class="cls-5" points="73.09 775.68 69.95 805.06 77.55 809.94 77.55 775.68 73.09 775.68"/><polygon class="cls-5" points="77.55 809.94 84.4 805.06 82.01 775.68 77.55 775.68 77.55 809.94"/><polygon class="cls-5" points="69.11 767.42 73.14 775.68 81.96 775.68 85.99 767.42 69.11 767.42"/><polygon class="cls-5" points="69.11 767.42 73.14 775.68 77.55 775.68 77.55 767.42 69.11 767.42"/><polygon class="cls-6" points="73.14 775.68 81.96 775.68 81.96 776.07 73.14 775.68"/><polygon class="cls-7" points="61.41 762.21 77.45 767.49 61.09 781.95 61.41 762.21"/><polygon class="cls-7" points="93.61 762.21 77.56 767.49 93.93 781.95 93.61 762.21"/><circle class="cls-9" cx="323.65" cy="723.27" r="35.94"/><path class="cls-10" d="M365.74,842.41c-21.14,1.12-62.65.37-83.8,0,0-41.39,12.68-74.94,41.9-74.94S365.74,801,365.74,842.41Z"/><path class="cls-8" d="M315.46,834.61h-7.18a3,3,0,0,1-2.22-.7,3.14,3.14,0,0,1-.66-2.22V814a3.08,3.08,0,0,1,.68-2.24,3,3,0,0,1,2.21-.68h7.62a17.78,17.78,0,0,1,2.92.21,6.21,6.21,0,0,1,2.21.8,5.81,5.81,0,0,1,1.48,1.26,5.55,5.55,0,0,1,1,1.68,5.64,5.64,0,0,1,.34,1.95,5.41,5.41,0,0,1-3.53,5.16q4.63,1.48,4.64,5.74a6.45,6.45,0,0,1-1,3.55,6.07,6.07,0,0,1-2.73,2.33,9.68,9.68,0,0,1-2.47.63A25.16,25.16,0,0,1,315.46,834.61Zm-5.31-19.93v6.08h4.36a8.75,8.75,0,0,0,2.75-.34,2.62,2.62,0,0,0,1.48-1.28,2.89,2.89,0,0,0,.4-1.51,2.34,2.34,0,0,0-1.27-2.37,9.68,9.68,0,0,0-3.87-.59Zm5,9.49h-5V831h5.12q4.83,0,4.83-3.48a2.84,2.84,0,0,0-1.25-2.58A7,7,0,0,0,315.11,824.17Z"/><path class="cls-8" d="M333.71,813.58v17.11h9.65a2.55,2.55,0,0,1,1.77.56,1.83,1.83,0,0,1,.62,1.41,1.78,1.78,0,0,1-.61,1.4,2.61,2.61,0,0,1-1.78.54h-11.5a2.49,2.49,0,0,1-2.92-2.92V813.58a3.15,3.15,0,0,1,.65-2.16,2.19,2.19,0,0,1,1.71-.72,2.27,2.27,0,0,1,1.74.71A3.09,3.09,0,0,1,333.71,813.58Z"/><polygon class="cls-5" points="319.26 775.68 316.12 805.06 323.72 809.94 323.72 775.68 319.26 775.68"/><polygon class="cls-5" points="323.72 809.94 330.57 805.06 328.18 775.68 323.72 775.68 323.72 809.94"/><polygon class="cls-5" points="315.28 767.42 319.31 775.68 328.13 775.68 332.15 767.42 315.28 767.42"/><polygon class="cls-5" points="315.28 767.42 319.31 775.68 323.72 775.68 323.72 767.42 315.28 767.42"/><polygon class="cls-6" points="319.31 775.68 328.13 775.68 328.13 776.07 319.31 775.68"/><polygon class="cls-7" points="307.57 762.21 323.62 767.49 307.25 781.95 307.57 762.21"/><polygon class="cls-7" points="339.78 762.21 323.73 767.49 340.1 781.95 339.78 762.21"/><polyline class="cls-2" points="464.55 407.33 727.28 407.33 727.28 421.69"/><circle class="cls-11" cx="201.37" cy="481.71" r="44.99"/><path class="cls-12" d="M254.06,630.87c-26.47,1.4-78.44.47-104.9,0,0-51.81,15.88-93.82,52.45-93.82S254.06,579.05,254.06,630.87Z"/><polygon class="cls-5" points="195.88 547.02 191.95 583.8 201.46 589.91 201.46 547.02 195.88 547.02"/><polygon class="cls-5" points="201.46 589.91 210.04 583.8 207.04 547.02 201.46 547.02 201.46 589.91"/><polygon class="cls-5" points="190.9 536.68 195.93 547.02 206.98 547.02 212.02 536.68 190.9 536.68"/><polygon class="cls-5" points="190.9 536.68 195.93 547.02 201.46 547.02 201.46 536.68 190.9 536.68"/><polygon class="cls-6" points="195.93 547.02 206.98 547.02 206.98 547.51 195.93 547.02"/><polygon class="cls-7" points="181.25 530.15 201.34 536.77 180.85 554.87 181.25 530.15"/><polygon class="cls-7" points="221.56 530.15 201.47 536.77 221.96 554.87 221.56 530.15"/><path class="cls-8" d="M201.87,610.62v6.28a6.58,6.58,0,0,1-.25,2,3.18,3.18,0,0,1-.91,1.35,8.5,8.5,0,0,1-1.69,1.16,26.53,26.53,0,0,1-5.72,2.35,23.07,23.07,0,0,1-6,.74,19.52,19.52,0,0,1-6.88-1.16,14.48,14.48,0,0,1-5.3-3.37,14.89,14.89,0,0,1-3.36-5.36,20.05,20.05,0,0,1-1.17-7,20.56,20.56,0,0,1,1.14-7,14.36,14.36,0,0,1,3.35-5.39,14.72,14.72,0,0,1,5.39-3.39,20.65,20.65,0,0,1,7.2-1.17,17.84,17.84,0,0,1,5.86.88,12.9,12.9,0,0,1,4.13,2.22,9.91,9.91,0,0,1,2.39,2.84,5.76,5.76,0,0,1,.8,2.66,2.84,2.84,0,0,1-.93,2.13,3.11,3.11,0,0,1-2.22.88,3,3,0,0,1-1.37-.34,3.13,3.13,0,0,1-1.11-.94,26.28,26.28,0,0,0-2.08-2.91,6.7,6.7,0,0,0-2.29-1.65,8.74,8.74,0,0,0-3.68-.67,10.16,10.16,0,0,0-4.11.79,8.49,8.49,0,0,0-3.1,2.3,10.38,10.38,0,0,0-2,3.7,16.25,16.25,0,0,0-.68,4.85q0,5.77,2.65,8.87a9.18,9.18,0,0,0,7.39,3.11,15.06,15.06,0,0,0,4.32-.6,21.85,21.85,0,0,0,4.1-1.72v-5.32h-5.14a5.64,5.64,0,0,1-2.8-.56,2,2,0,0,1-.95-1.9,2.33,2.33,0,0,1,.79-1.81,3.1,3.1,0,0,1,2.16-.72h7.53a9.58,9.58,0,0,1,2.35.25,2.65,2.65,0,0,1,1.55,1.1A4.48,4.48,0,0,1,201.87,610.62Z"/><path class="cls-8" d="M220.92,611.18h-6.08v9.28a4.33,4.33,0,0,1-.94,3,3.31,3.31,0,0,1-4.78,0,4.32,4.32,0,0,1-.92-3V595.25a4.13,4.13,0,0,1,1-3.13,4.58,4.58,0,0,1,3.2-.94h8.52a22.29,22.29,0,0,1,5.81.58,8.65,8.65,0,0,1,3.48,1.86,8.36,8.36,0,0,1,2.22,3.17,11.18,11.18,0,0,1,.76,4.22q0,5-3.08,7.59T220.92,611.18Zm-1.61-15h-4.47v10h4.47a13.37,13.37,0,0,0,3.92-.49,4.56,4.56,0,0,0,2.4-1.61,4.81,4.81,0,0,0,.83-2.93,5,5,0,0,0-1.27-3.53Q223.76,596.16,219.31,596.16Z"/><circle class="cls-13" cx="726" cy="476.42" r="40.17"/><path class="cls-14" d="M773,609.58c-23.63,1.25-70,.42-93.65,0,0-46.26,14.18-83.76,46.83-83.76S773,563.32,773,609.58Z"/><polygon class="cls-5" points="721.1 534.72 717.59 567.56 726.08 573.01 726.08 534.72 721.1 534.72"/><polygon class="cls-5" points="726.08 573.01 733.74 567.56 731.06 534.72 726.08 534.72 726.08 573.01"/><polygon class="cls-5" points="716.65 525.49 721.15 534.72 731.01 534.72 735.51 525.49 716.65 525.49"/><polygon class="cls-5" points="716.65 525.49 721.15 534.72 726.08 534.72 726.08 525.49 716.65 525.49"/><polygon class="cls-6" points="721.15 534.72 731.01 534.72 731.01 535.16 721.15 534.72"/><polygon class="cls-7" points="708.03 519.66 725.97 525.57 707.68 541.73 708.03 519.66"/><polygon class="cls-7" points="744.03 519.66 726.09 525.57 744.38 541.73 744.03 519.66"/><path class="cls-1" d="M718.8,592.8h-5.52v8.42a3.93,3.93,0,0,1-.85,2.74,3,3,0,0,1-4.34,0,3.92,3.92,0,0,1-.83-2.71V578.34a3.75,3.75,0,0,1,.91-2.84,4.15,4.15,0,0,1,2.9-.85h7.73a20.24,20.24,0,0,1,5.27.53,7.86,7.86,0,0,1,3.15,1.68,7.6,7.6,0,0,1,2,2.88,10.15,10.15,0,0,1,.69,3.83q0,4.55-2.8,6.89T718.8,592.8Zm-1.46-13.63h-4.06v9.09h4.06a12.14,12.14,0,0,0,3.56-.45,4.15,4.15,0,0,0,2.18-1.46,4.36,4.36,0,0,0,.75-2.66,4.51,4.51,0,0,0-1.16-3.21Q721.38,579.17,717.34,579.17Z"/><path class="cls-1" d="M740.09,596.9v4.63a3.57,3.57,0,0,1-.79,2.53,2.64,2.64,0,0,1-2,.84,2.53,2.53,0,0,1-2-.85,3.63,3.63,0,0,1-.77-2.52V586.11q0-3.73,2.7-3.73a2.25,2.25,0,0,1,2,.87,4.81,4.81,0,0,1,.67,2.58,9.67,9.67,0,0,1,2-2.58,4.21,4.21,0,0,1,2.79-.87,7.15,7.15,0,0,1,3.39.87,2.6,2.6,0,0,1,1.64,2.31,2.2,2.2,0,0,1-.7,1.67,2.17,2.17,0,0,1-1.51.66,6.93,6.93,0,0,1-1.47-.38,6.83,6.83,0,0,0-2.06-.38,3,3,0,0,0-2,.64,4.09,4.09,0,0,0-1.2,1.9,13.23,13.23,0,0,0-.59,3Q740.09,594.41,740.09,596.9Z"/><line class="cls-2" x1="726.19" y1="631.31" x2="726.19" y2="645.66"/><circle class="cls-9" cx="726.11" cy="699.92" r="35.94"/><path class="cls-10" d="M768.2,819.06c-21.14,1.12-62.65.37-83.8,0,0-41.39,12.68-74.94,41.9-74.94S768.2,777.67,768.2,819.06Z"/><path class="cls-8" d="M717.92,811.26h-7.18a3,3,0,0,1-2.22-.7,3.14,3.14,0,0,1-.66-2.22V790.67a3.08,3.08,0,0,1,.68-2.24,3,3,0,0,1,2.21-.68h7.62a17.78,17.78,0,0,1,2.92.21,6.21,6.21,0,0,1,2.21.8A5.81,5.81,0,0,1,725,790a5.55,5.55,0,0,1,1,1.68,5.64,5.64,0,0,1,.34,1.95,5.41,5.41,0,0,1-3.53,5.16q4.63,1.48,4.64,5.74a6.45,6.45,0,0,1-1,3.55,6.07,6.07,0,0,1-2.73,2.33,9.68,9.68,0,0,1-2.47.63A25.16,25.16,0,0,1,717.92,811.26Zm-5.31-19.93v6.08H717a8.75,8.75,0,0,0,2.75-.34,2.62,2.62,0,0,0,1.48-1.28,2.89,2.89,0,0,0,.4-1.51,2.34,2.34,0,0,0-1.27-2.37,9.68,9.68,0,0,0-3.87-.59Zm5,9.49h-5v6.86h5.12q4.83,0,4.83-3.48a2.84,2.84,0,0,0-1.25-2.58A7,7,0,0,0,717.57,800.82Z"/><path class="cls-8" d="M736.17,790.24v17.11h9.65a2.55,2.55,0,0,1,1.77.56,1.83,1.83,0,0,1,.62,1.41,1.78,1.78,0,0,1-.61,1.4,2.61,2.61,0,0,1-1.78.54h-11.5a2.49,2.49,0,0,1-2.92-2.92V790.24a3.15,3.15,0,0,1,.65-2.16,2.19,2.19,0,0,1,1.71-.72,2.27,2.27,0,0,1,1.74.71A3.09,3.09,0,0,1,736.17,790.24Z"/><polygon class="cls-5" points="721.72 752.34 718.58 781.71 726.18 786.59 726.18 752.34 721.72 752.34"/><polygon class="cls-5" points="726.18 786.59 733.03 781.71 730.64 752.34 726.18 752.34 726.18 786.59"/><polygon class="cls-5" points="717.74 744.08 721.77 752.34 730.59 752.34 734.62 744.08 717.74 744.08"/><polygon class="cls-5" points="717.74 744.08 721.77 752.34 726.18 752.34 726.18 744.08 717.74 744.08"/><polygon class="cls-6" points="721.77 752.34 730.59 752.34 730.59 752.73 721.77 752.34"/><polygon class="cls-7" points="710.04 738.86 726.08 744.15 709.72 758.6 710.04 738.86"/><polygon class="cls-7" points="742.24 738.86 726.19 744.15 742.56 758.6 742.24 738.86"/><polyline class="cls-2" points="201.29 647.3 201.29 660.55 77.67 660.55 77.67 674.91"/><polyline class="cls-2" points="200.7 647.3 200.7 660.55 324.32 660.55 324.32 674.91"/><path class="cls-15" d="M570.3,339.53a6.29,6.29,0,0,1-1,3.49,6.64,6.64,0,0,1-2.93,2.42,11,11,0,0,1-4.57.88,10.29,10.29,0,0,1-5.23-1.2,7,7,0,0,1-2.37-2.3,5.22,5.22,0,0,1-.91-2.8,1.9,1.9,0,0,1,1.94-1.91,1.65,1.65,0,0,1,1.16.44,3.46,3.46,0,0,1,.81,1.3,8.68,8.68,0,0,0,.88,1.71,3.57,3.57,0,0,0,1.34,1.13,4.94,4.94,0,0,0,2.26.45,5.11,5.11,0,0,0,3.13-.9A2.7,2.7,0,0,0,566,340a2.37,2.37,0,0,0-.65-1.73,4.19,4.19,0,0,0-1.68-1q-1-.35-2.75-.74a20.17,20.17,0,0,1-3.86-1.26,6.24,6.24,0,0,1-2.47-2,5.12,5.12,0,0,1-.91-3.1,5.33,5.33,0,0,1,1-3.14,6.08,6.08,0,0,1,2.79-2.11,11.43,11.43,0,0,1,4.29-.74,10.63,10.63,0,0,1,3.41.49,7.22,7.22,0,0,1,2.39,1.3,5.43,5.43,0,0,1,1.39,1.7,3.93,3.93,0,0,1,.44,1.74,2.05,2.05,0,0,1-.55,1.4,1.75,1.75,0,0,1-1.37.62,1.57,1.57,0,0,1-1.13-.37,5,5,0,0,1-.84-1.22,5.52,5.52,0,0,0-1.4-1.89,4.1,4.1,0,0,0-2.63-.68,4.56,4.56,0,0,0-2.71.74,2.15,2.15,0,0,0-1,1.77,1.8,1.8,0,0,0,.35,1.11,2.94,2.94,0,0,0,1,.8,6.47,6.47,0,0,0,1.24.53q.63.19,2.07.56a32.71,32.71,0,0,1,3.28.93,10,10,0,0,1,2.5,1.24,5.11,5.11,0,0,1,1.61,1.85A5.91,5.91,0,0,1,570.3,339.53Z"/><path class="cls-15" d="M575.72,328.25a2.1,2.1,0,0,1-1.42-.51,2,2,0,0,1,0-2.84,2,2,0,0,1,1.41-.55,2.09,2.09,0,0,1,1.37.5,1.77,1.77,0,0,1,.6,1.45,1.82,1.82,0,0,1-.58,1.44A2,2,0,0,1,575.72,328.25Zm2,4.12V343.9a2.57,2.57,0,0,1-.57,1.81,1.89,1.89,0,0,1-1.45.61,1.8,1.8,0,0,1-1.42-.63,2.65,2.65,0,0,1-.55-1.8V332.49a2.56,2.56,0,0,1,.55-1.78,1.84,1.84,0,0,1,1.42-.6,1.91,1.91,0,0,1,1.45.6A2.32,2.32,0,0,1,577.7,332.37Z"/><path class="cls-15" d="M581.81,343.9V326.6a2.69,2.69,0,0,1,.53-1.81,1.81,1.81,0,0,1,1.44-.61,1.89,1.89,0,0,1,1.46.61,2.61,2.61,0,0,1,.56,1.82v17.3a2.59,2.59,0,0,1-.56,1.82,1.89,1.89,0,0,1-1.45.61,1.8,1.8,0,0,1-1.42-.63A2.65,2.65,0,0,1,581.81,343.9Z"/><path class="cls-15" d="M592.74,332.59l3.23,9.06,3.48-9.45a5.61,5.61,0,0,1,.8-1.61,1.47,1.47,0,0,1,1.2-.47,1.8,1.8,0,0,1,1.29.51,1.59,1.59,0,0,1,.53,1.18,2.38,2.38,0,0,1-.09.61,5.92,5.92,0,0,1-.22.66l-.28.7-3.83,9.49-.42,1a5.34,5.34,0,0,1-.57,1.07,2.24,2.24,0,0,1-.77.69,2.33,2.33,0,0,1-1.12.25,2.17,2.17,0,0,1-1.35-.39,2.61,2.61,0,0,1-.74-.85q-.24-.46-.81-1.82l-3.8-9.39-.27-.7a6.13,6.13,0,0,1-.23-.72,2.54,2.54,0,0,1-.09-.63,1.53,1.53,0,0,1,.25-.81,1.94,1.94,0,0,1,.69-.66,1.85,1.85,0,0,1,.95-.26,1.51,1.51,0,0,1,1.37.57A9,9,0,0,1,592.74,332.59Z"/><path class="cls-15" d="M616.87,339.19h-7.8a5.29,5.29,0,0,0,.55,2.4,3.67,3.67,0,0,0,3.37,2.09,4.77,4.77,0,0,0,1.31-.17,4.24,4.24,0,0,0,1.15-.53,8.71,8.71,0,0,0,1-.77q.47-.41,1.21-1.11a1.31,1.31,0,0,1,.88-.26,1.45,1.45,0,0,1,1,.34,1.2,1.2,0,0,1,.38.95,2.59,2.59,0,0,1-.42,1.26,5,5,0,0,1-1.28,1.39,7.27,7.27,0,0,1-2.15,1.1,9.25,9.25,0,0,1-3,.44,8,8,0,0,1-6-2.19,8.16,8.16,0,0,1-2.13-5.95,9.92,9.92,0,0,1,.53-3.28,7.23,7.23,0,0,1,1.53-2.59,6.65,6.65,0,0,1,2.48-1.66,8.92,8.92,0,0,1,3.27-.58,7.76,7.76,0,0,1,4,1,6.48,6.48,0,0,1,2.51,2.55,6.7,6.7,0,0,1,.83,3.18q0,1.5-.86,2A5.37,5.37,0,0,1,616.87,339.19Zm-7.8-2.26h7.23a4.85,4.85,0,0,0-1.1-3.06,3.3,3.3,0,0,0-2.52-1,3.19,3.19,0,0,0-2.45,1A5.13,5.13,0,0,0,609.07,336.93Z"/><path class="cls-15" d="M627.48,340.57v3.33a2.57,2.57,0,0,1-.57,1.82,1.9,1.9,0,0,1-1.45.61,1.83,1.83,0,0,1-1.42-.61,2.62,2.62,0,0,1-.56-1.81V332.8q0-2.69,1.94-2.69a1.62,1.62,0,0,1,1.43.63,3.47,3.47,0,0,1,.48,1.86,7,7,0,0,1,1.47-1.86,3,3,0,0,1,2-.63,5.14,5.14,0,0,1,2.44.63,1.88,1.88,0,0,1,1.18,1.67,1.58,1.58,0,0,1-.5,1.21,1.56,1.56,0,0,1-1.09.47,5,5,0,0,1-1.06-.27,4.93,4.93,0,0,0-1.48-.27,2.17,2.17,0,0,0-1.43.46,3,3,0,0,0-.86,1.37,9.56,9.56,0,0,0-.42,2.15Q627.48,338.77,627.48,340.57Z"/><path class="cls-15" d="M652.69,337.62h-4v6.06a2.83,2.83,0,0,1-.61,2,2.16,2.16,0,0,1-3.13,0,2.82,2.82,0,0,1-.6-2V327.2a2.7,2.7,0,0,1,.66-2,3,3,0,0,1,2.09-.61h5.57a14.59,14.59,0,0,1,3.8.38,5.66,5.66,0,0,1,2.27,1.21,5.47,5.47,0,0,1,1.45,2.07,7.31,7.31,0,0,1,.5,2.76,6.1,6.1,0,0,1-2,5Q656.68,337.62,652.69,337.62Zm-1.05-9.82h-2.92v6.54h2.92a8.72,8.72,0,0,0,2.56-.32,3,3,0,0,0,1.57-1.05,3.14,3.14,0,0,0,.54-1.91,3.25,3.25,0,0,0-.83-2.31Q654.55,327.8,651.64,327.8Z"/><path class="cls-15" d="M668,340.57v3.33a2.57,2.57,0,0,1-.57,1.82,1.9,1.9,0,0,1-1.45.61,1.83,1.83,0,0,1-1.42-.61,2.62,2.62,0,0,1-.56-1.81V332.8q0-2.69,1.94-2.69a1.62,1.62,0,0,1,1.43.63,3.47,3.47,0,0,1,.48,1.86,7,7,0,0,1,1.47-1.86,3,3,0,0,1,2-.63,5.14,5.14,0,0,1,2.44.63A1.88,1.88,0,0,1,675,332.4a1.58,1.58,0,0,1-.5,1.21,1.56,1.56,0,0,1-1.09.47,5,5,0,0,1-1.06-.27,4.93,4.93,0,0,0-1.48-.27,2.17,2.17,0,0,0-1.43.46,3,3,0,0,0-.86,1.37,9.56,9.56,0,0,0-.42,2.15Q668,338.77,668,340.57Z"/><path class="cls-15" d="M687.54,339.19h-7.8a5.29,5.29,0,0,0,.55,2.4,3.67,3.67,0,0,0,3.37,2.09,4.77,4.77,0,0,0,1.31-.17,4.24,4.24,0,0,0,1.15-.53,8.71,8.71,0,0,0,1-.77q.47-.41,1.21-1.11a1.31,1.31,0,0,1,.88-.26,1.45,1.45,0,0,1,1,.34,1.2,1.2,0,0,1,.38.95,2.59,2.59,0,0,1-.42,1.26,5,5,0,0,1-1.28,1.39,7.27,7.27,0,0,1-2.15,1.1,9.25,9.25,0,0,1-3,.44,8,8,0,0,1-6-2.19,8.16,8.16,0,0,1-2.13-5.95,9.92,9.92,0,0,1,.53-3.28,7.23,7.23,0,0,1,1.53-2.59,6.65,6.65,0,0,1,2.48-1.66,8.92,8.92,0,0,1,3.27-.58,7.76,7.76,0,0,1,4,1,6.48,6.48,0,0,1,2.51,2.55,6.7,6.7,0,0,1,.83,3.18q0,1.5-.86,2A5.37,5.37,0,0,1,687.54,339.19Zm-7.8-2.26H687a4.85,4.85,0,0,0-1.1-3.06,3.3,3.3,0,0,0-2.52-1,3.19,3.19,0,0,0-2.45,1A5.13,5.13,0,0,0,679.74,336.93Z"/><path class="cls-15" d="M707,341.11a4.63,4.63,0,0,1-3.18,4.61,10.64,10.64,0,0,1-3.82.61,9.32,9.32,0,0,1-3.68-.66,5.36,5.36,0,0,1-2.26-1.64,3.31,3.31,0,0,1-.73-2,1.53,1.53,0,0,1,.47-1.12,1.61,1.61,0,0,1,1.18-.47,1.38,1.38,0,0,1,1,.31,3.36,3.36,0,0,1,.64.86,4.37,4.37,0,0,0,1.47,1.59,4.43,4.43,0,0,0,2.33.53,3.36,3.36,0,0,0,2-.53,1.5,1.5,0,0,0,.77-1.22,1.66,1.66,0,0,0-.8-1.53,9.85,9.85,0,0,0-2.62-.92,21.7,21.7,0,0,1-3.35-1.07,5.52,5.52,0,0,1-2.07-1.48,3.4,3.4,0,0,1-.77-2.26,4,4,0,0,1,.72-2.26,4.91,4.91,0,0,1,2.11-1.7,8.08,8.08,0,0,1,3.37-.64,11.08,11.08,0,0,1,2.78.32,6.94,6.94,0,0,1,2.06.86,4.26,4.26,0,0,1,1.26,1.2,2.35,2.35,0,0,1,.43,1.29,1.48,1.48,0,0,1-.46,1.12,1.82,1.82,0,0,1-1.31.44,1.6,1.6,0,0,1-1-.35,6.92,6.92,0,0,1-1-1.05,3.61,3.61,0,0,0-1.07-.93,3.36,3.36,0,0,0-1.67-.35,3.26,3.26,0,0,0-1.8.46,1.34,1.34,0,0,0-.72,1.15,1.24,1.24,0,0,0,.53,1,4.36,4.36,0,0,0,1.42.66q.89.26,2.45.64a13.13,13.13,0,0,1,3,1.08,5,5,0,0,1,1.78,1.48A3.29,3.29,0,0,1,707,341.11Z"/><path class="cls-15" d="M712.42,328.25a2.1,2.1,0,0,1-1.42-.51,2,2,0,0,1,0-2.84,2,2,0,0,1,1.41-.55,2.09,2.09,0,0,1,1.37.5,1.77,1.77,0,0,1,.6,1.45,1.82,1.82,0,0,1-.58,1.44A2,2,0,0,1,712.42,328.25Zm2,4.12V343.9a2.57,2.57,0,0,1-.57,1.81,1.89,1.89,0,0,1-1.45.61,1.8,1.8,0,0,1-1.42-.63,2.65,2.65,0,0,1-.55-1.8V332.49a2.56,2.56,0,0,1,.55-1.78,1.84,1.84,0,0,1,1.42-.6,1.91,1.91,0,0,1,1.45.6A2.32,2.32,0,0,1,714.39,332.37Z"/><path class="cls-15" d="M729.44,344v-.39a10.12,10.12,0,0,1-1.58,1.5,6,6,0,0,1-1.69.88,6.37,6.37,0,0,1-2,.3,5.88,5.88,0,0,1-2.65-.61A6.18,6.18,0,0,1,719.4,344a7.89,7.89,0,0,1-1.35-2.64,11.29,11.29,0,0,1-.46-3.29,8.57,8.57,0,0,1,1.83-5.83,6.07,6.07,0,0,1,4.81-2.09,6.46,6.46,0,0,1,2.91.59,8.11,8.11,0,0,1,2.31,1.82v-5.89a3,3,0,0,1,.49-1.86,1.67,1.67,0,0,1,1.4-.63,1.73,1.73,0,0,1,1.4.58,2.57,2.57,0,0,1,.49,1.7V344a2.44,2.44,0,0,1-.53,1.71,1.76,1.76,0,0,1-1.36.57,1.74,1.74,0,0,1-1.35-.59A2.43,2.43,0,0,1,729.44,344Zm-7.84-5.86a6.8,6.8,0,0,0,.5,2.76,3.85,3.85,0,0,0,1.38,1.72,3.41,3.41,0,0,0,1.91.58,3.53,3.53,0,0,0,1.92-.55A3.76,3.76,0,0,0,728.7,341a6.79,6.79,0,0,0,.52-2.83,6.62,6.62,0,0,0-.52-2.74,4.11,4.11,0,0,0-1.4-1.75,3.35,3.35,0,0,0-1.94-.61,3.27,3.27,0,0,0-2,.62,4,4,0,0,0-1.34,1.78A7.09,7.09,0,0,0,721.59,338.19Z"/><path class="cls-15" d="M748.34,339.19h-7.8a5.29,5.29,0,0,0,.55,2.4,3.67,3.67,0,0,0,3.37,2.09,4.77,4.77,0,0,0,1.31-.17,4.24,4.24,0,0,0,1.15-.53,8.71,8.71,0,0,0,1-.77q.47-.41,1.21-1.11a1.31,1.31,0,0,1,.88-.26,1.45,1.45,0,0,1,1,.34,1.2,1.2,0,0,1,.38.95,2.59,2.59,0,0,1-.42,1.26,5,5,0,0,1-1.28,1.39,7.27,7.27,0,0,1-2.15,1.1,9.25,9.25,0,0,1-3,.44,8,8,0,0,1-6-2.19,8.16,8.16,0,0,1-2.13-5.95,9.92,9.92,0,0,1,.53-3.28,7.23,7.23,0,0,1,1.53-2.59,6.65,6.65,0,0,1,2.48-1.66,8.92,8.92,0,0,1,3.27-.58,7.76,7.76,0,0,1,4,1,6.48,6.48,0,0,1,2.51,2.55,6.7,6.7,0,0,1,.83,3.18q0,1.5-.86,2A5.37,5.37,0,0,1,748.34,339.19Zm-7.8-2.26h7.23a4.85,4.85,0,0,0-1.1-3.06,3.3,3.3,0,0,0-2.52-1,3.19,3.19,0,0,0-2.45,1A5.13,5.13,0,0,0,740.54,336.93Z"/><path class="cls-15" d="M758.61,332.31v.48a7,7,0,0,1,2.3-2,6.13,6.13,0,0,1,2.87-.65,5.73,5.73,0,0,1,2.82.69,4.37,4.37,0,0,1,1.86,1.94,4.63,4.63,0,0,1,.51,1.58,16.29,16.29,0,0,1,.12,2.16v7.42a2.64,2.64,0,0,1-.55,1.81,1.82,1.82,0,0,1-1.42.61,1.84,1.84,0,0,1-1.45-.63,2.63,2.63,0,0,1-.56-1.8v-6.65a6.64,6.64,0,0,0-.55-3,2.23,2.23,0,0,0-2.18-1,3.23,3.23,0,0,0-1.94.64,3.65,3.65,0,0,0-1.29,1.75,12.48,12.48,0,0,0-.29,3.33v5a2.59,2.59,0,0,1-.56,1.82,1.89,1.89,0,0,1-1.45.61,1.81,1.81,0,0,1-1.42-.63,2.63,2.63,0,0,1-.56-1.8V332.37a2.51,2.51,0,0,1,.5-1.7,1.72,1.72,0,0,1,1.36-.56,1.84,1.84,0,0,1,.95.25,1.78,1.78,0,0,1,.68.74A2.63,2.63,0,0,1,758.61,332.31Z"/><path class="cls-15" d="M773.28,330.46h.44v-2.4q0-1,.05-1.51a2.24,2.24,0,0,1,.28-.94,1.8,1.8,0,0,1,.67-.66,1.91,1.91,0,0,1,1-.26,2,2,0,0,1,1.37.57,1.69,1.69,0,0,1,.52.93,8.43,8.43,0,0,1,.11,1.56v2.72h1.46a1.87,1.87,0,0,1,1.29.4,1.32,1.32,0,0,1,.45,1,1.15,1.15,0,0,1-.64,1.12,4.12,4.12,0,0,1-1.82.32h-.74v7.33a11.9,11.9,0,0,0,.07,1.44,1.46,1.46,0,0,0,.35.82,1.2,1.2,0,0,0,.93.31,5,5,0,0,0,.95-.12,5,5,0,0,1,.93-.12,1.2,1.2,0,0,1,.87.39,1.3,1.3,0,0,1,.39,1,1.6,1.6,0,0,1-1.05,1.48,7.11,7.11,0,0,1-3,.51,5.23,5.23,0,0,1-2.83-.63A2.91,2.91,0,0,1,774,344a11.81,11.81,0,0,1-.3-3v-7.65h-.53a1.9,1.9,0,0,1-1.31-.41,1.34,1.34,0,0,1-.45-1,1.29,1.29,0,0,1,.47-1A2.08,2.08,0,0,1,773.28,330.46Z"/><path class="cls-15" d="M805.11,343.53l-1-2.69h-8.71l-1,2.75a9.6,9.6,0,0,1-1,2.17,1.63,1.63,0,0,1-1.39.56,2,2,0,0,1-1.45-.6,1.83,1.83,0,0,1-.63-1.36,3,3,0,0,1,.15-.91q.15-.47.48-1.3L796,328.25l.56-1.44a7.29,7.29,0,0,1,.7-1.4,2.86,2.86,0,0,1,1-.9,3,3,0,0,1,1.5-.34,3,3,0,0,1,1.51.34,2.92,2.92,0,0,1,1,.88,6.19,6.19,0,0,1,.63,1.16q.26.62.65,1.66L809.08,342a7,7,0,0,1,.66,2.29,1.9,1.9,0,0,1-.62,1.37,2,2,0,0,1-1.5.62,1.94,1.94,0,0,1-.88-.18,1.8,1.8,0,0,1-.61-.5,4.54,4.54,0,0,1-.53-1Q805.31,344,805.11,343.53Zm-8.59-5.95h6.4l-3.23-8.84Z"/><path class="cls-15" d="M562.17,380v-2.72h-7.33a3,3,0,0,1-2.08-.63,2.19,2.19,0,0,1-.69-1.71,1.67,1.67,0,0,1,.1-.56,2.89,2.89,0,0,1,.31-.6q.21-.31.42-.61l.54-.72,7.74-10.36a11.77,11.77,0,0,1,1.25-1.48,1.66,1.66,0,0,1,1.18-.46q2.22,0,2.22,2.54V374h.63a4.44,4.44,0,0,1,1.8.31,1.32,1.32,0,0,1,.68,1.34,1.4,1.4,0,0,1-.56,1.23,2.92,2.92,0,0,1-1.67.39h-.89V380a2.43,2.43,0,0,1-.5,1.67,1.86,1.86,0,0,1-2.65,0A2.41,2.41,0,0,1,562.17,380Zm-6.28-6h6.28v-8.49Z"/><path class="cls-15" d="M579.35,365.94a6,6,0,0,1-1.23,4.15,4.3,4.3,0,0,1-3.36,1.36,4.79,4.79,0,0,1-2.36-.58,3.89,3.89,0,0,1-1.63-1.8,6.93,6.93,0,0,1-.58-3,9.55,9.55,0,0,1,.45-3.17,3.68,3.68,0,0,1,1.47-1.93,4.69,4.69,0,0,1,2.59-.66,5.29,5.29,0,0,1,2,.35,3.66,3.66,0,0,1,1.46,1.07,4.73,4.73,0,0,1,.89,1.76A9,9,0,0,1,579.35,365.94Zm-2.73-.15a7,7,0,0,0-.41-2.78,1.46,1.46,0,0,0-1.45-.87,1.51,1.51,0,0,0-1.12.42,2.29,2.29,0,0,0-.57,1.23,11.45,11.45,0,0,0-.15,2.07,11.88,11.88,0,0,0,.15,2.12,2.34,2.34,0,0,0,.56,1.23,1.5,1.5,0,0,0,1.12.42,1.45,1.45,0,0,0,1.47-.92A8,8,0,0,0,576.61,365.79Zm12.47-3.55-12.17,19.62q-.47.8-1.05.8a1.11,1.11,0,0,1-.67-.26.8.8,0,0,1-.34-.66,1.43,1.43,0,0,1,.29-.74l12.24-19.78a5.45,5.45,0,0,1,.56-.81.88.88,0,0,1,.69-.27,1,1,0,0,1,.71.26.89.89,0,0,1,.27.68A3,3,0,0,1,589.09,362.24Zm5.21,14.26a6,6,0,0,1-1.23,4.15,4.3,4.3,0,0,1-3.36,1.36,4.78,4.78,0,0,1-2.37-.58,4,4,0,0,1-1.64-1.8,6.79,6.79,0,0,1-.59-3,7.06,7.06,0,0,1,1.09-4.29,4.05,4.05,0,0,1,3.45-1.44,5.23,5.23,0,0,1,2,.35,3.82,3.82,0,0,1,1.46,1.05,4.48,4.48,0,0,1,.9,1.75A9.12,9.12,0,0,1,594.3,376.5Zm-2.73-.15a6.88,6.88,0,0,0-.41-2.75,1.46,1.46,0,0,0-1.45-.87,1.54,1.54,0,0,0-1.14.41,2.35,2.35,0,0,0-.58,1.21,10.37,10.37,0,0,0-.17,2.07,7.29,7.29,0,0,0,.42,2.86,1.48,1.48,0,0,0,1.47.91,1.45,1.45,0,0,0,1.46-.93A7.9,7.9,0,0,0,591.57,376.35Z"/><path class="cls-15" d="M807.18,601.53h-4v6.06a2.83,2.83,0,0,1-.61,2,2.16,2.16,0,0,1-3.13,0,2.82,2.82,0,0,1-.6-2V591.12a2.7,2.7,0,0,1,.66-2,3,3,0,0,1,2.09-.61h5.57a14.59,14.59,0,0,1,3.8.38,5.66,5.66,0,0,1,2.27,1.21,5.47,5.47,0,0,1,1.45,2.07,7.31,7.31,0,0,1,.5,2.76,6.1,6.1,0,0,1-2,5Q811.17,601.53,807.18,601.53Zm-1.05-9.82h-2.92v6.54h2.92a8.72,8.72,0,0,0,2.56-.32,3,3,0,0,0,1.57-1.05,3.14,3.14,0,0,0,.54-1.91,3.25,3.25,0,0,0-.83-2.31Q809,591.72,806.13,591.72Z"/><path class="cls-15" d="M822.5,604.48v3.33a2.57,2.57,0,0,1-.57,1.82,1.9,1.9,0,0,1-1.45.61,1.83,1.83,0,0,1-1.42-.61,2.62,2.62,0,0,1-.56-1.81v-11.1q0-2.69,1.94-2.69a1.62,1.62,0,0,1,1.43.63,3.47,3.47,0,0,1,.48,1.86,7,7,0,0,1,1.47-1.86,3,3,0,0,1,2-.63,5.14,5.14,0,0,1,2.44.63,1.88,1.88,0,0,1,1.18,1.67,1.58,1.58,0,0,1-.5,1.21,1.56,1.56,0,0,1-1.09.47,5,5,0,0,1-1.06-.27,4.93,4.93,0,0,0-1.48-.27,2.17,2.17,0,0,0-1.43.46,3,3,0,0,0-.86,1.37,9.56,9.56,0,0,0-.42,2.15Q822.5,602.69,822.5,604.48Z"/><path class="cls-15" d="M842,603.11h-7.8a5.29,5.29,0,0,0,.55,2.4,3.67,3.67,0,0,0,3.37,2.09,4.77,4.77,0,0,0,1.31-.17,4.24,4.24,0,0,0,1.15-.53,8.71,8.71,0,0,0,1-.77q.47-.41,1.21-1.11a1.31,1.31,0,0,1,.88-.26,1.45,1.45,0,0,1,1,.34,1.2,1.2,0,0,1,.38.95,2.59,2.59,0,0,1-.42,1.26,5,5,0,0,1-1.28,1.39,7.27,7.27,0,0,1-2.15,1.1,9.25,9.25,0,0,1-3,.44,8,8,0,0,1-6-2.19,8.16,8.16,0,0,1-2.13-5.95,9.92,9.92,0,0,1,.53-3.28,7.23,7.23,0,0,1,1.53-2.59,6.65,6.65,0,0,1,2.48-1.66A8.92,8.92,0,0,1,838,594a7.76,7.76,0,0,1,4,1,6.48,6.48,0,0,1,2.51,2.55,6.7,6.7,0,0,1,.83,3.18q0,1.5-.86,2A5.37,5.37,0,0,1,842,603.11Zm-7.8-2.26h7.23a4.85,4.85,0,0,0-1.1-3.06,3.3,3.3,0,0,0-2.52-1,3.19,3.19,0,0,0-2.45,1A5.13,5.13,0,0,0,834.23,600.85Z"/><path class="cls-15" d="M861.52,605a4.63,4.63,0,0,1-3.18,4.61,10.64,10.64,0,0,1-3.82.61,9.32,9.32,0,0,1-3.68-.66,5.36,5.36,0,0,1-2.26-1.64,3.31,3.31,0,0,1-.73-2,1.53,1.53,0,0,1,.47-1.12,1.61,1.61,0,0,1,1.18-.47,1.38,1.38,0,0,1,1,.31,3.36,3.36,0,0,1,.64.86,4.37,4.37,0,0,0,1.47,1.59,4.43,4.43,0,0,0,2.33.53,3.36,3.36,0,0,0,2-.53,1.5,1.5,0,0,0,.77-1.22,1.66,1.66,0,0,0-.8-1.53,9.85,9.85,0,0,0-2.62-.92,21.7,21.7,0,0,1-3.35-1.07,5.52,5.52,0,0,1-2.07-1.48,3.4,3.4,0,0,1-.77-2.26,4,4,0,0,1,.72-2.26,4.91,4.91,0,0,1,2.11-1.7,8.08,8.08,0,0,1,3.37-.64,11.08,11.08,0,0,1,2.78.32,6.94,6.94,0,0,1,2.06.86,4.26,4.26,0,0,1,1.26,1.2,2.35,2.35,0,0,1,.43,1.29,1.48,1.48,0,0,1-.46,1.12,1.82,1.82,0,0,1-1.31.44,1.6,1.6,0,0,1-1-.35,6.92,6.92,0,0,1-1-1.05,3.61,3.61,0,0,0-1.07-.93,3.36,3.36,0,0,0-1.67-.35,3.26,3.26,0,0,0-1.8.46,1.34,1.34,0,0,0-.72,1.15,1.24,1.24,0,0,0,.53,1,4.36,4.36,0,0,0,1.42.66q.89.26,2.45.64a13.13,13.13,0,0,1,3,1.08,5,5,0,0,1,1.78,1.48A3.29,3.29,0,0,1,861.52,605Z"/><path class="cls-15" d="M866.91,592.17a2.1,2.1,0,0,1-1.42-.51,2,2,0,0,1,0-2.84,2,2,0,0,1,1.41-.55,2.09,2.09,0,0,1,1.37.5,1.77,1.77,0,0,1,.6,1.45,1.82,1.82,0,0,1-.58,1.44A2,2,0,0,1,866.91,592.17Zm2,4.12v11.53a2.57,2.57,0,0,1-.57,1.81,1.89,1.89,0,0,1-1.45.61,1.8,1.8,0,0,1-1.42-.63,2.65,2.65,0,0,1-.55-1.8V596.41a2.56,2.56,0,0,1,.55-1.78,1.84,1.84,0,0,1,1.42-.6,1.91,1.91,0,0,1,1.45.6A2.32,2.32,0,0,1,868.88,596.29Z"/><path class="cls-15" d="M883.93,608v-.39a10.12,10.12,0,0,1-1.58,1.5,6,6,0,0,1-1.69.88,6.37,6.37,0,0,1-2,.3,5.88,5.88,0,0,1-2.65-.61,6.18,6.18,0,0,1-2.11-1.73,7.89,7.89,0,0,1-1.35-2.64,11.29,11.29,0,0,1-.46-3.29,8.57,8.57,0,0,1,1.83-5.83,6.07,6.07,0,0,1,4.81-2.09,6.46,6.46,0,0,1,2.91.59,8.11,8.11,0,0,1,2.31,1.82v-5.89a3,3,0,0,1,.49-1.86,1.67,1.67,0,0,1,1.4-.63,1.73,1.73,0,0,1,1.4.58,2.57,2.57,0,0,1,.49,1.7V608a2.44,2.44,0,0,1-.53,1.71,1.76,1.76,0,0,1-1.36.57,1.74,1.74,0,0,1-1.35-.59A2.43,2.43,0,0,1,883.93,608Zm-7.84-5.86a6.8,6.8,0,0,0,.5,2.76,3.85,3.85,0,0,0,1.38,1.72,3.41,3.41,0,0,0,1.91.58,3.53,3.53,0,0,0,1.92-.55,3.76,3.76,0,0,0,1.39-1.68,6.79,6.79,0,0,0,.52-2.83,6.62,6.62,0,0,0-.52-2.74,4.11,4.11,0,0,0-1.4-1.75,3.35,3.35,0,0,0-1.94-.61,3.27,3.27,0,0,0-2,.62,4,4,0,0,0-1.34,1.78A7.09,7.09,0,0,0,876.08,602.1Z"/><path class="cls-15" d="M902.83,603.11H895a5.29,5.29,0,0,0,.55,2.4,3.67,3.67,0,0,0,3.37,2.09,4.77,4.77,0,0,0,1.31-.17,4.24,4.24,0,0,0,1.15-.53,8.71,8.71,0,0,0,1-.77q.47-.41,1.21-1.11a1.31,1.31,0,0,1,.88-.26,1.45,1.45,0,0,1,1,.34,1.2,1.2,0,0,1,.38.95,2.59,2.59,0,0,1-.42,1.26,5,5,0,0,1-1.28,1.39,7.27,7.27,0,0,1-2.15,1.1,9.25,9.25,0,0,1-3,.44,8,8,0,0,1-6-2.19A8.16,8.16,0,0,1,891,602.1a9.92,9.92,0,0,1,.53-3.28,7.23,7.23,0,0,1,1.53-2.59,6.65,6.65,0,0,1,2.48-1.66,8.92,8.92,0,0,1,3.27-.58,7.76,7.76,0,0,1,4,1,6.48,6.48,0,0,1,2.51,2.55,6.7,6.7,0,0,1,.83,3.18q0,1.5-.86,2A5.37,5.37,0,0,1,902.83,603.11Zm-7.8-2.26h7.23a4.85,4.85,0,0,0-1.1-3.06,3.3,3.3,0,0,0-2.52-1,3.19,3.19,0,0,0-2.45,1A5.13,5.13,0,0,0,895,600.85Z"/><path class="cls-15" d="M913.1,596.23v.48a7,7,0,0,1,2.3-2,6.13,6.13,0,0,1,2.87-.65,5.73,5.73,0,0,1,2.82.69,4.37,4.37,0,0,1,1.86,1.94,4.63,4.63,0,0,1,.51,1.58,16.29,16.29,0,0,1,.12,2.16v7.42a2.64,2.64,0,0,1-.55,1.81,1.82,1.82,0,0,1-1.42.61,1.84,1.84,0,0,1-1.45-.63,2.63,2.63,0,0,1-.56-1.8v-6.65a6.64,6.64,0,0,0-.55-3,2.23,2.23,0,0,0-2.18-1,3.23,3.23,0,0,0-1.94.64,3.65,3.65,0,0,0-1.29,1.75,12.48,12.48,0,0,0-.29,3.33v5a2.59,2.59,0,0,1-.56,1.82,1.89,1.89,0,0,1-1.45.61,1.81,1.81,0,0,1-1.42-.63,2.63,2.63,0,0,1-.56-1.8V596.29a2.51,2.51,0,0,1,.5-1.7,1.72,1.72,0,0,1,1.36-.56,1.84,1.84,0,0,1,.95.25,1.78,1.78,0,0,1,.68.74A2.63,2.63,0,0,1,913.1,596.23Z"/><path class="cls-15" d="M927.77,594.38h.44V592q0-1,.05-1.51a2.24,2.24,0,0,1,.28-.94,1.8,1.8,0,0,1,.67-.66,1.91,1.91,0,0,1,1-.26,2,2,0,0,1,1.37.57,1.69,1.69,0,0,1,.52.93,8.43,8.43,0,0,1,.11,1.56v2.72h1.46a1.87,1.87,0,0,1,1.29.4,1.32,1.32,0,0,1,.45,1,1.15,1.15,0,0,1-.64,1.12,4.12,4.12,0,0,1-1.82.32h-.74v7.33a11.9,11.9,0,0,0,.07,1.44,1.46,1.46,0,0,0,.35.82,1.2,1.2,0,0,0,.93.31,5,5,0,0,0,.95-.12,5,5,0,0,1,.93-.12,1.2,1.2,0,0,1,.87.39,1.3,1.3,0,0,1,.39,1,1.6,1.6,0,0,1-1.05,1.48,7.11,7.11,0,0,1-3,.51,5.23,5.23,0,0,1-2.83-.63,2.91,2.91,0,0,1-1.26-1.74,11.81,11.81,0,0,1-.3-3v-7.65h-.53a1.9,1.9,0,0,1-1.31-.41,1.34,1.34,0,0,1-.45-1,1.29,1.29,0,0,1,.47-1A2.08,2.08,0,0,1,927.77,594.38Z"/><path class="cls-15" d="M948.58,588.46h5.65a15.26,15.26,0,0,1,3.78.41,7,7,0,0,1,2.86,1.53q3.34,2.86,3.35,8.71a17.06,17.06,0,0,1-.34,3.52,10.4,10.4,0,0,1-1,2.87,8.91,8.91,0,0,1-1.8,2.29,7.43,7.43,0,0,1-1.88,1.24,8.51,8.51,0,0,1-2.2.66,16.71,16.71,0,0,1-2.65.19h-5.65a3.54,3.54,0,0,1-1.78-.36,1.66,1.66,0,0,1-.78-1,6.39,6.39,0,0,1-.18-1.69v-15.7a2.28,2.28,0,0,1,2.66-2.66Zm1.68,3.43v14.53h3.29q1.08,0,1.69-.06a5.27,5.27,0,0,0,1.27-.29,3.45,3.45,0,0,0,1.14-.66q2.18-1.84,2.18-6.34a9.34,9.34,0,0,0-1-4.75,4.26,4.26,0,0,0-2.36-2,11.65,11.65,0,0,0-3.39-.43Z"/><path class="cls-15" d="M301.11,586.2v4.1a4.32,4.32,0,0,1-.16,1.31,2.08,2.08,0,0,1-.59.88,5.57,5.57,0,0,1-1.1.76,17.35,17.35,0,0,1-3.74,1.53,15.08,15.08,0,0,1-3.91.48,12.76,12.76,0,0,1-4.5-.76,9.46,9.46,0,0,1-3.46-2.21,9.73,9.73,0,0,1-2.2-3.51,13.11,13.11,0,0,1-.77-4.6,13.44,13.44,0,0,1,.74-4.57,9.39,9.39,0,0,1,2.19-3.52,9.62,9.62,0,0,1,3.52-2.21,13.5,13.5,0,0,1,4.7-.77,11.68,11.68,0,0,1,3.83.58,8.43,8.43,0,0,1,2.7,1.45,6.49,6.49,0,0,1,1.56,1.86,3.77,3.77,0,0,1,.53,1.74,1.86,1.86,0,0,1-.61,1.4,2,2,0,0,1-1.45.58,2,2,0,0,1-.9-.22,2,2,0,0,1-.72-.61,17.37,17.37,0,0,0-1.36-1.9,4.39,4.39,0,0,0-1.5-1.08,5.71,5.71,0,0,0-2.4-.44,6.64,6.64,0,0,0-2.69.52,5.55,5.55,0,0,0-2,1.5,6.78,6.78,0,0,0-1.29,2.42,10.62,10.62,0,0,0-.45,3.17,8.69,8.69,0,0,0,1.73,5.8,6,6,0,0,0,4.83,2,9.84,9.84,0,0,0,2.83-.39,14.3,14.3,0,0,0,2.68-1.12v-3.48h-3.36a3.68,3.68,0,0,1-1.83-.37,1.32,1.32,0,0,1-.62-1.24,1.52,1.52,0,0,1,.52-1.18,2,2,0,0,1,1.41-.47h4.92a6.29,6.29,0,0,1,1.53.16,1.73,1.73,0,0,1,1,.72A2.93,2.93,0,0,1,301.11,586.2Z"/><path class="cls-15" d="M319.9,587.16a9.43,9.43,0,0,1-.56,3.29,7.26,7.26,0,0,1-1.61,2.59,7.09,7.09,0,0,1-2.51,1.66,8.89,8.89,0,0,1-3.29.58,8.64,8.64,0,0,1-3.26-.58,7.19,7.19,0,0,1-4.11-4.24,9.4,9.4,0,0,1-.55-3.28,9.51,9.51,0,0,1,.56-3.32,7.21,7.21,0,0,1,1.59-2.57,7,7,0,0,1,2.51-1.64,9.51,9.51,0,0,1,6.54,0,7.07,7.07,0,0,1,4.13,4.24A9.46,9.46,0,0,1,319.9,587.16Zm-4,0a6,6,0,0,0-1.07-3.8,3.49,3.49,0,0,0-2.88-1.36,3.57,3.57,0,0,0-2.06.61,3.84,3.84,0,0,0-1.37,1.79,8.12,8.12,0,0,0,0,5.49,3.91,3.91,0,0,0,1.36,1.79,3.53,3.53,0,0,0,2.08.62,3.48,3.48,0,0,0,2.88-1.37A6,6,0,0,0,315.89,587.16Z"/><path class="cls-15" d="M323,592.85v-17.3a2.69,2.69,0,0,1,.53-1.81,1.81,1.81,0,0,1,1.44-.61,1.89,1.89,0,0,1,1.46.61,2.62,2.62,0,0,1,.56,1.82v17.3a2.59,2.59,0,0,1-.56,1.82,1.89,1.89,0,0,1-1.45.61,1.8,1.8,0,0,1-1.42-.63A2.65,2.65,0,0,1,323,592.85Z"/><path class="cls-15" d="M342.07,593v-.39a10.15,10.15,0,0,1-1.58,1.5,6,6,0,0,1-1.69.88,6.38,6.38,0,0,1-2,.3,5.88,5.88,0,0,1-2.65-.61,6.18,6.18,0,0,1-2.11-1.73,7.88,7.88,0,0,1-1.35-2.64,11.29,11.29,0,0,1-.46-3.29,8.57,8.57,0,0,1,1.83-5.83,6.07,6.07,0,0,1,4.81-2.09,6.46,6.46,0,0,1,2.91.59,8.11,8.11,0,0,1,2.31,1.82v-5.89a3,3,0,0,1,.49-1.86,1.66,1.66,0,0,1,1.4-.63,1.73,1.73,0,0,1,1.4.58,2.57,2.57,0,0,1,.49,1.7V593a2.44,2.44,0,0,1-.53,1.71,1.76,1.76,0,0,1-1.36.57,1.74,1.74,0,0,1-1.35-.59A2.43,2.43,0,0,1,342.07,593Zm-7.84-5.86a6.8,6.8,0,0,0,.5,2.76,3.85,3.85,0,0,0,1.38,1.72,3.41,3.41,0,0,0,1.91.58,3.53,3.53,0,0,0,1.92-.55,3.77,3.77,0,0,0,1.39-1.68,6.79,6.79,0,0,0,.52-2.83,6.62,6.62,0,0,0-.52-2.74,4.12,4.12,0,0,0-1.4-1.75A3.35,3.35,0,0,0,338,582a3.27,3.27,0,0,0-2,.62,4,4,0,0,0-1.34,1.78A7.08,7.08,0,0,0,334.23,587.13Z"/><path class="cls-15" d="M365.91,586.56h-4v6.06a2.83,2.83,0,0,1-.61,2,2.16,2.16,0,0,1-3.13,0,2.82,2.82,0,0,1-.6-2V576.15a2.7,2.7,0,0,1,.66-2,3,3,0,0,1,2.09-.61h5.57a14.6,14.6,0,0,1,3.8.38,5.66,5.66,0,0,1,2.27,1.21,5.47,5.47,0,0,1,1.45,2.07,7.31,7.31,0,0,1,.5,2.76,6.1,6.1,0,0,1-2,5Q369.9,586.56,365.91,586.56Zm-1.05-9.82h-2.92v6.54h2.92a8.72,8.72,0,0,0,2.56-.32,3,3,0,0,0,1.57-1.05,3.14,3.14,0,0,0,.54-1.91,3.25,3.25,0,0,0-.83-2.31Q367.77,576.75,364.86,576.75Z"/><path class="cls-15" d="M381.23,589.51v3.33a2.57,2.57,0,0,1-.57,1.82,1.9,1.9,0,0,1-1.45.61,1.83,1.83,0,0,1-1.42-.61,2.62,2.62,0,0,1-.56-1.81v-11.1q0-2.69,1.94-2.69a1.62,1.62,0,0,1,1.43.63,3.47,3.47,0,0,1,.48,1.86,7,7,0,0,1,1.47-1.86,3,3,0,0,1,2-.63,5.15,5.15,0,0,1,2.44.63,1.88,1.88,0,0,1,1.18,1.67,1.58,1.58,0,0,1-.5,1.21,1.56,1.56,0,0,1-1.09.47,5,5,0,0,1-1.06-.27,4.93,4.93,0,0,0-1.48-.27,2.17,2.17,0,0,0-1.43.46,3,3,0,0,0-.86,1.37,9.53,9.53,0,0,0-.42,2.15Q381.23,587.72,381.23,589.51Z"/><path class="cls-15" d="M400.76,588.14H393a5.29,5.29,0,0,0,.55,2.4,3.67,3.67,0,0,0,3.37,2.09,4.77,4.77,0,0,0,1.31-.17,4.24,4.24,0,0,0,1.15-.53,8.75,8.75,0,0,0,1-.77q.47-.41,1.21-1.11a1.31,1.31,0,0,1,.88-.26,1.45,1.45,0,0,1,1,.34,1.2,1.2,0,0,1,.38.95,2.6,2.6,0,0,1-.42,1.26,5,5,0,0,1-1.28,1.39,7.27,7.27,0,0,1-2.15,1.1,9.25,9.25,0,0,1-3,.44,8,8,0,0,1-6-2.19,8.16,8.16,0,0,1-2.13-5.95,9.92,9.92,0,0,1,.53-3.28,7.23,7.23,0,0,1,1.53-2.59,6.65,6.65,0,0,1,2.48-1.66,8.92,8.92,0,0,1,3.27-.58,7.76,7.76,0,0,1,4,1,6.49,6.49,0,0,1,2.51,2.55,6.7,6.7,0,0,1,.83,3.18q0,1.5-.86,2A5.37,5.37,0,0,1,400.76,588.14Zm-7.8-2.26h7.23a4.85,4.85,0,0,0-1.1-3.06,3.3,3.3,0,0,0-2.52-1,3.19,3.19,0,0,0-2.45,1A5.12,5.12,0,0,0,393,585.88Z"/><path class="cls-15" d="M420.25,590.06a4.63,4.63,0,0,1-3.18,4.61,10.64,10.64,0,0,1-3.82.61,9.32,9.32,0,0,1-3.68-.66,5.36,5.36,0,0,1-2.26-1.64,3.31,3.31,0,0,1-.73-2,1.53,1.53,0,0,1,.47-1.12,1.6,1.6,0,0,1,1.18-.47,1.38,1.38,0,0,1,1,.31,3.37,3.37,0,0,1,.64.86,4.37,4.37,0,0,0,1.47,1.59,4.43,4.43,0,0,0,2.33.53,3.36,3.36,0,0,0,2-.53,1.5,1.5,0,0,0,.77-1.22,1.66,1.66,0,0,0-.8-1.53,9.85,9.85,0,0,0-2.62-.92,21.7,21.7,0,0,1-3.35-1.07,5.51,5.51,0,0,1-2.07-1.48,3.4,3.4,0,0,1-.77-2.26,4,4,0,0,1,.72-2.26,4.91,4.91,0,0,1,2.11-1.7,8.08,8.08,0,0,1,3.37-.64,11.08,11.08,0,0,1,2.78.32,6.94,6.94,0,0,1,2.06.86,4.26,4.26,0,0,1,1.26,1.2,2.35,2.35,0,0,1,.43,1.29,1.48,1.48,0,0,1-.46,1.12,1.82,1.82,0,0,1-1.31.44,1.6,1.6,0,0,1-1-.35,6.92,6.92,0,0,1-1-1.05,3.61,3.61,0,0,0-1.07-.93,3.36,3.36,0,0,0-1.67-.35,3.26,3.26,0,0,0-1.8.46,1.34,1.34,0,0,0-.72,1.15,1.24,1.24,0,0,0,.53,1,4.36,4.36,0,0,0,1.42.66q.89.26,2.45.64a13.13,13.13,0,0,1,3,1.08,5,5,0,0,1,1.78,1.48A3.29,3.29,0,0,1,420.25,590.06Z"/><path class="cls-15" d="M425.64,577.2a2.1,2.1,0,0,1-1.42-.51,2,2,0,0,1,0-2.84,2,2,0,0,1,1.41-.55,2.09,2.09,0,0,1,1.37.5,1.77,1.77,0,0,1,.6,1.45,1.82,1.82,0,0,1-.58,1.44A2,2,0,0,1,425.64,577.2Zm2,4.12v11.53a2.57,2.57,0,0,1-.57,1.81,1.89,1.89,0,0,1-1.45.61,1.8,1.8,0,0,1-1.42-.63,2.65,2.65,0,0,1-.55-1.8V581.44a2.56,2.56,0,0,1,.55-1.78,1.84,1.84,0,0,1,1.42-.6,1.91,1.91,0,0,1,1.45.6A2.32,2.32,0,0,1,427.61,581.32Z"/><path class="cls-15" d="M442.66,593v-.39a10.12,10.12,0,0,1-1.58,1.5,6,6,0,0,1-1.69.88,6.37,6.37,0,0,1-2,.3,5.88,5.88,0,0,1-2.65-.61,6.18,6.18,0,0,1-2.11-1.73,7.89,7.89,0,0,1-1.35-2.64,11.29,11.29,0,0,1-.46-3.29,8.57,8.57,0,0,1,1.83-5.83,6.07,6.07,0,0,1,4.81-2.09,6.46,6.46,0,0,1,2.91.59,8.11,8.11,0,0,1,2.31,1.82v-5.89a3,3,0,0,1,.49-1.86,1.67,1.67,0,0,1,1.4-.63,1.73,1.73,0,0,1,1.4.58,2.57,2.57,0,0,1,.49,1.7V593a2.44,2.44,0,0,1-.53,1.71,1.76,1.76,0,0,1-1.36.57,1.74,1.74,0,0,1-1.35-.59A2.43,2.43,0,0,1,442.66,593Zm-7.84-5.86a6.8,6.8,0,0,0,.5,2.76,3.85,3.85,0,0,0,1.38,1.72,3.41,3.41,0,0,0,1.91.58,3.53,3.53,0,0,0,1.92-.55,3.76,3.76,0,0,0,1.39-1.68,6.79,6.79,0,0,0,.52-2.83,6.62,6.62,0,0,0-.52-2.74,4.11,4.11,0,0,0-1.4-1.75,3.35,3.35,0,0,0-1.94-.61,3.27,3.27,0,0,0-2,.62,4,4,0,0,0-1.34,1.78A7.09,7.09,0,0,0,434.81,587.13Z"/><path class="cls-15" d="M461.56,588.14h-7.8a5.29,5.29,0,0,0,.55,2.4,3.67,3.67,0,0,0,3.37,2.09,4.77,4.77,0,0,0,1.31-.17,4.24,4.24,0,0,0,1.15-.53,8.71,8.71,0,0,0,1-.77q.47-.41,1.21-1.11a1.31,1.31,0,0,1,.88-.26,1.45,1.45,0,0,1,1,.34,1.2,1.2,0,0,1,.38.95,2.59,2.59,0,0,1-.42,1.26,5,5,0,0,1-1.28,1.39,7.27,7.27,0,0,1-2.15,1.1,9.25,9.25,0,0,1-3,.44,8,8,0,0,1-6-2.19,8.16,8.16,0,0,1-2.13-5.95,9.92,9.92,0,0,1,.53-3.28,7.23,7.23,0,0,1,1.53-2.59,6.65,6.65,0,0,1,2.48-1.66,8.92,8.92,0,0,1,3.27-.58,7.76,7.76,0,0,1,4,1,6.48,6.48,0,0,1,2.51,2.55,6.7,6.7,0,0,1,.83,3.18q0,1.5-.86,2A5.37,5.37,0,0,1,461.56,588.14Zm-7.8-2.26H461a4.85,4.85,0,0,0-1.1-3.06,3.3,3.3,0,0,0-2.52-1,3.19,3.19,0,0,0-2.45,1A5.13,5.13,0,0,0,453.76,585.88Z"/><path class="cls-15" d="M471.83,581.26v.48a7,7,0,0,1,2.3-2,6.13,6.13,0,0,1,2.87-.65,5.73,5.73,0,0,1,2.82.69,4.37,4.37,0,0,1,1.86,1.94,4.63,4.63,0,0,1,.51,1.58,16.29,16.29,0,0,1,.12,2.16v7.42a2.64,2.64,0,0,1-.55,1.81,1.82,1.82,0,0,1-1.42.61,1.84,1.84,0,0,1-1.45-.63,2.63,2.63,0,0,1-.56-1.8V586.2a6.64,6.64,0,0,0-.55-3,2.23,2.23,0,0,0-2.18-1,3.23,3.23,0,0,0-1.94.64,3.65,3.65,0,0,0-1.29,1.75,12.48,12.48,0,0,0-.29,3.33v5a2.59,2.59,0,0,1-.56,1.82,1.89,1.89,0,0,1-1.45.61,1.81,1.81,0,0,1-1.42-.63,2.63,2.63,0,0,1-.56-1.8V581.32a2.51,2.51,0,0,1,.5-1.7,1.72,1.72,0,0,1,1.36-.56,1.84,1.84,0,0,1,.95.25,1.78,1.78,0,0,1,.68.74A2.63,2.63,0,0,1,471.83,581.26Z"/><path class="cls-15" d="M486.5,579.41h.44V577q0-1,.05-1.51a2.24,2.24,0,0,1,.28-.94,1.8,1.8,0,0,1,.67-.66,1.91,1.91,0,0,1,1-.26,2,2,0,0,1,1.37.57,1.69,1.69,0,0,1,.52.93,8.43,8.43,0,0,1,.11,1.56v2.72h1.46a1.87,1.87,0,0,1,1.29.4,1.32,1.32,0,0,1,.45,1,1.15,1.15,0,0,1-.64,1.12,4.12,4.12,0,0,1-1.82.32h-.74v7.33a11.9,11.9,0,0,0,.07,1.44,1.46,1.46,0,0,0,.35.82,1.2,1.2,0,0,0,.93.31,5,5,0,0,0,.95-.12,5,5,0,0,1,.93-.12,1.2,1.2,0,0,1,.87.39,1.3,1.3,0,0,1,.39,1,1.6,1.6,0,0,1-1.05,1.48,7.11,7.11,0,0,1-3,.51,5.23,5.23,0,0,1-2.83-.63,2.91,2.91,0,0,1-1.26-1.74,11.81,11.81,0,0,1-.3-3v-7.65h-.53a1.9,1.9,0,0,1-1.31-.41,1.34,1.34,0,0,1-.45-1,1.29,1.29,0,0,1,.47-1A2.08,2.08,0,0,1,486.5,579.41Z"/><path class="cls-15" d="M293.06,613h-6.94l-.83,4.73a8.21,8.21,0,0,1,3.83-1.11,6.55,6.55,0,0,1,2.62.53,6.69,6.69,0,0,1,3.59,3.65,7.07,7.07,0,0,1,.53,2.73,7.91,7.91,0,0,1-.95,3.86,7,7,0,0,1-2.74,2.76,8.18,8.18,0,0,1-4.13,1,8.26,8.26,0,0,1-4.24-1,6,6,0,0,1-2.31-2.21,4.72,4.72,0,0,1-.68-2.18,1.57,1.57,0,0,1,.47-1.08,1.56,1.56,0,0,1,1.19-.51,2,2,0,0,1,1.83,1.42,4.93,4.93,0,0,0,1.58,2,3.68,3.68,0,0,0,2.22.72,3.39,3.39,0,0,0,2-.58,3.79,3.79,0,0,0,1.31-1.61,5.6,5.6,0,0,0,.46-2.32,5.31,5.31,0,0,0-.5-2.4A3.45,3.45,0,0,0,290,620a3.6,3.6,0,0,0-1.86-.49,3.86,3.86,0,0,0-1.8.31,15.87,15.87,0,0,0-1.56,1.07,3.07,3.07,0,0,1-1.67.77,1.81,1.81,0,0,1-1.27-.52,1.57,1.57,0,0,1-.56-1.18s.05-.38.16-1l1.23-7a3.35,3.35,0,0,1,.76-1.83,2.45,2.45,0,0,1,1.81-.57H293q2.28,0,2.28,1.74a1.53,1.53,0,0,1-.56,1.23A2.48,2.48,0,0,1,293.06,613Z"/><path class="cls-15" d="M306.87,614.88a6,6,0,0,1-1.23,4.15,4.3,4.3,0,0,1-3.36,1.36,4.79,4.79,0,0,1-2.36-.58,3.89,3.89,0,0,1-1.63-1.8,6.93,6.93,0,0,1-.58-3,9.54,9.54,0,0,1,.45-3.17,3.68,3.68,0,0,1,1.47-1.93,4.69,4.69,0,0,1,2.59-.66,5.29,5.29,0,0,1,2,.35,3.67,3.67,0,0,1,1.46,1.07,4.74,4.74,0,0,1,.89,1.76A9.06,9.06,0,0,1,306.87,614.88Zm-2.73-.15a7,7,0,0,0-.41-2.78,1.47,1.47,0,0,0-1.45-.87,1.51,1.51,0,0,0-1.12.42,2.29,2.29,0,0,0-.57,1.23,11.45,11.45,0,0,0-.15,2.07,11.88,11.88,0,0,0,.15,2.12,2.33,2.33,0,0,0,.56,1.23,1.5,1.5,0,0,0,1.12.42,1.45,1.45,0,0,0,1.47-.92A8,8,0,0,0,304.13,614.74Zm12.47-3.55L304.44,630.8q-.47.8-1.05.8a1.11,1.11,0,0,1-.67-.26.8.8,0,0,1-.34-.66,1.43,1.43,0,0,1,.29-.74l12.24-19.78a5.45,5.45,0,0,1,.56-.81.88.88,0,0,1,.69-.27,1,1,0,0,1,.71.26.89.89,0,0,1,.27.68A3,3,0,0,1,316.61,611.19Zm5.21,14.26a6,6,0,0,1-1.23,4.15,4.3,4.3,0,0,1-3.36,1.36,4.77,4.77,0,0,1-2.37-.58,4,4,0,0,1-1.64-1.8,6.79,6.79,0,0,1-.59-3,7.05,7.05,0,0,1,1.09-4.29,4.05,4.05,0,0,1,3.45-1.44,5.23,5.23,0,0,1,2,.35,3.83,3.83,0,0,1,1.46,1.05,4.48,4.48,0,0,1,.9,1.75A9.14,9.14,0,0,1,321.82,625.44Zm-2.73-.15a6.88,6.88,0,0,0-.41-2.75,1.47,1.47,0,0,0-1.45-.87,1.54,1.54,0,0,0-1.14.41,2.35,2.35,0,0,0-.58,1.21,10.33,10.33,0,0,0-.17,2.07,7.29,7.29,0,0,0,.42,2.86,1.48,1.48,0,0,0,1.47.91,1.45,1.45,0,0,0,1.46-.93A7.9,7.9,0,0,0,319.09,625.3Z"/></svg>