<svg xmlns="http://www.w3.org/2000/svg" viewBox="0 0 100 100"><defs><style>.cls-1{fill:#fff;}.cls-2{fill:#827763;}.cls-3{fill:#d8edef;}.cls-4{fill:#e2d79a;}.cls-5{fill:#11113f;}</style></defs><title>hourglass</title><g id="Layer_2" data-name="Layer 2"><g id="Layer_1-2" data-name="Layer 1"><circle class="cls-1" cx="50" cy="50" r="50"/><polygon class="cls-2" points="26.45 80.91 26.45 78.42 31.81 75.8 68.32 75.8 72.12 77.11 73.16 81.82 26.45 80.91"/><polygon class="cls-2" points="26.45 17.31 73.16 17.31 73.16 21.36 68.32 23.46 30.63 23.46 26.45 20.38 26.45 17.31"/><polygon class="cls-3" points="31.81 23.46 68.32 23.46 67.01 36.15 54.19 49.5 64 58.92 68.32 65.2 68.32 75.8 31.81 75.8 31.81 66.77 35.21 58.53 45.68 48.85 36.39 41.37 31.81 33.4 31.81 23.46"/><path class="cls-4" d="M37.83,75.15C38.09,74.76,50,59.58,50,59.58L62.3,75.15Z"/><polygon class="cls-4" points="41.1 36.94 59.16 36.94 50 45.44 41.1 36.94"/><path class="cls-5" d="M69.54,29.48v-5.1a5.59,5.59,0,0,0,5.58-5.58V17.4a1.4,1.4,0,0,0-1.4-1.4H26.27a1.4,1.4,0,0,0-1.4,1.4v1.4a5.59,5.59,0,0,0,5.58,5.58v5.1a18.17,18.17,0,0,0,6,13.49l7.26,6.53L36.47,56a18.17,18.17,0,0,0-6,13.49v5.1a5.59,5.59,0,0,0-5.58,5.58v1.4a1.4,1.4,0,0,0,1.4,1.4H73.73a1.4,1.4,0,0,0,1.4-1.4v-1.4a5.59,5.59,0,0,0-5.58-5.58v-5.1a18.17,18.17,0,0,0-6-13.49L56.27,49.5,63.53,43A18.17,18.17,0,0,0,69.54,29.48ZM27.67,18.79H72.33a2.8,2.8,0,0,1-2.79,2.79H30.46A2.8,2.8,0,0,1,27.67,18.79ZM72.33,80.21H27.67a2.8,2.8,0,0,1,2.79-2.79H69.54A2.8,2.8,0,0,1,72.33,80.21Zm-32.1-5.58L50,61.6l9.77,13ZM61.67,40.89l-8.41,7.57a1.4,1.4,0,0,0,0,2.07l8.41,7.57a15.38,15.38,0,0,1,5.08,11.41v5.1H63.26L51.12,58.43a1.45,1.45,0,0,0-2.23,0L36.74,74.63H33.25v-5.1a15.38,15.38,0,0,1,5.08-11.41l8.41-7.57a1.4,1.4,0,0,0,0-2.07l-8.41-7.57a15.38,15.38,0,0,1-5.08-11.41v-5.1h33.5v5.1A15.38,15.38,0,0,1,61.67,40.89Z"/><path class="cls-5" d="M59.62,35.54H40.38a1.4,1.4,0,0,0-1,2.33l.22.25a6.55,6.55,0,0,0,.64.68l8.87,8a1.39,1.39,0,0,0,1.87,0l8.86-8a6.41,6.41,0,0,0,.64-.68l.22-.25a1.4,1.4,0,0,0-1-2.33ZM50,43.92l-6.17-5.59H56.17Z"/></g></g></svg>