<svg xmlns="http://www.w3.org/2000/svg" viewBox="0 0 100 100"><defs><style>.cls-1{fill:#fff;}.cls-2{fill:#7f5b53;}.cls-3{fill:#cbb292;}.cls-4{fill:#556080;}.cls-5{fill:#df4d60;}.cls-6{fill:#f0c419;}.cls-7{fill:#11113f;}</style></defs><title>limit</title><g id="Layer_2" data-name="Layer 2"><g id="Layer_1-2" data-name="Layer 1"><circle class="cls-1" cx="50" cy="50" r="50"/><polygon class="cls-2" points="38.27 41.36 23.96 81.71 31.11 81.71 37.63 64.44 61.86 64.57 69.08 81.71 76.56 81.71 63.15 42.27 55.28 42.27 59.28 57.48 40.59 57.86 45.75 35.3 38.27 41.36"/><polygon class="cls-3" points="63.15 24.48 68.82 24.99 69.98 36.72 63.15 35.56 63.15 24.48"/><polygon class="cls-3" points="31.7 24.48 35.56 24.48 37.63 33.76 31.7 34.27 31.7 24.48"/><rect class="cls-4" x="20.74" y="31.57" width="58.65" height="13.02"/><circle class="cls-5" cx="66.24" cy="22.8" r="4.38"/><circle class="cls-5" cx="33.89" cy="23.45" r="4.38"/><polygon class="cls-6" points="70.63 31.57 79.39 31.57 72.04 44.59 64.18 44.59 70.63 31.57"/><polygon class="cls-6" points="49.1 31.57 57.73 31.57 51.03 44.59 43.04 44.59 49.1 31.57"/><polygon class="cls-6" points="27.18 31.57 35.56 31.57 29.12 44.59 21.38 44.59 27.18 31.57"/><path class="cls-7" d="M79.7,30.2H69.8V27.71a6.05,6.05,0,1,0-7.7,0V30.2H37.9V27.71a6.05,6.05,0,1,0-7.7,0V30.2H20.3a1.1,1.1,0,0,0-1.1,1.1V44.5a1.1,1.1,0,0,0,1.1,1.1H35.24L22.56,81.53a1.1,1.1,0,0,0,1,1.47h7.7a1.1,1.1,0,0,0,1-.71L38.66,65.4H61.34l6.33,16.89a1.1,1.1,0,0,0,1,.71h7.7a1.1,1.1,0,0,0,1-1.47L64.76,45.6H79.7a1.1,1.1,0,0,0,1.1-1.1V31.3A1.1,1.1,0,0,0,79.7,30.2ZM63.2,43.4H52.88l5.5-11H69.12l-5.5,11Zm-32.32,0,5.5-11H48.22l-5.5,11H30.88ZM45.3,45.6h9.4l3.54,11H41.77ZM66,19.2a3.84,3.84,0,0,1,1.57,7.35l-.27.1-.32.1-.38.08-.21,0a4,4,0,0,1-.8,0l-.21,0L65,26.76l-.32-.1-.28-.1A3.84,3.84,0,0,1,66,19.2ZM64.3,28.87l.12,0q.29.08.59.12l.18,0a6.25,6.25,0,0,0,.76.05,6,6,0,0,0,.76-.05l.18,0q.3,0,.59-.12l.12,0V30.2H64.3V28.87ZM55.92,32.4l-5.5,11H45.18l5.5-11ZM34.05,19.2a3.84,3.84,0,0,1,1.57,7.35l-.27.1-.32.1-.38.08-.21,0a4,4,0,0,1-.8,0l-.21,0-.38-.08-.32-.1-.28-.1a3.84,3.84,0,0,1,1.57-7.35ZM32.4,28.87l.12,0q.29.08.59.12l.18,0a6.25,6.25,0,0,0,.76.05,6,6,0,0,0,.76-.05L35,29q.3,0,.59-.12l.12,0V30.2H32.4ZM26.22,32.4,21.4,42V32.4Zm-3,11,5.5-11h5.24l-5.5,11ZM69.46,80.8,63.13,63.91a1.1,1.1,0,0,0-1-.71H37.9a1.1,1.1,0,0,0-1,.71L30.54,80.8H25.15L37.58,45.6H43L39.21,57.36a1.1,1.1,0,0,0,1,1.44H59.74a1.1,1.1,0,0,0,1-1.44L57,45.6h5.41L74.85,80.8ZM66.08,43.4l5.5-11h5.24l-5.5,11Zm7.7,0,4.82-9.64V43.4Z"/></g></g></svg>