<svg xmlns="http://www.w3.org/2000/svg" viewBox="0 0 100 100"><defs><style>.cls-1{fill:#fff;}.cls-2{fill:#fbb03b;}.cls-3{fill:#fcc062;}.cls-4{fill:#fdd089;}.cls-5{fill:#11113f;}</style></defs><title>post</title><g id="Layer_2" data-name="Layer 2"><g id="Layer_1-2" data-name="Layer 1"><circle class="cls-1" cx="50" cy="50" r="50"/><path class="cls-2" d="M71.06,26.35v54a1.12,1.12,0,0,1-1.12,1.12H32.84V83.7H73.31V26.36H71.06Z"/><path class="cls-3" d="M68.81,79.2V23H66.56V75.83A1.12,1.12,0,0,1,65.44,77h-36V79.2Z"/><path class="cls-4" d="M64.31,74.71V19.62H32.41v8.14a1.4,1.4,0,1,0,2.81,0V22.71a1.12,1.12,0,0,1,2.25,0v5.05a3.65,3.65,0,1,1-7.3,0V19.62H26.09V74.71ZM48.58,50H41.83a1.12,1.12,0,0,1,0-2.25h6.75a1.12,1.12,0,0,1,0,2.25ZM37.33,38.73H53.07a1.12,1.12,0,1,1,0,2.25H37.33a1.12,1.12,0,1,1,0-2.25Zm0,4.5H53.07a1.12,1.12,0,1,1,0,2.25H37.33a1.12,1.12,0,1,1,0-2.25Z"/><path class="cls-5" d="M74.44,24.12l-3.35,0h0V21.87a1.12,1.12,0,0,0-1.12-1.12H66.56V18.5a1.12,1.12,0,0,0-1.12-1.12h-28a3.65,3.65,0,0,0-7.28,0H25a1.12,1.12,0,0,0-1.12,1.12V75.83A1.12,1.12,0,0,0,25,77h2.25v3.37a1.12,1.12,0,0,0,1.12,1.12h2.25v3.37a1.12,1.12,0,0,0,1.12,1.12H74.43a1.12,1.12,0,0,0,1.12-1.12V25.24A1.12,1.12,0,0,0,74.44,24.12ZM73.31,83.7H32.84V81.45h37.1a1.12,1.12,0,0,0,1.12-1.12v-54h2.25ZM26.09,19.62h4.07v8.14a3.65,3.65,0,1,0,7.3,0V22.71a1.12,1.12,0,0,0-2.25,0v5.05a1.4,1.4,0,1,1-2.81,0V19.62h31.9V74.71H26.09ZM29.46,77h36a1.12,1.12,0,0,0,1.12-1.12V23h2.25V79.2H29.46V77Zm4.35-60.71a1.41,1.41,0,0,1,1.37,1.12H32.44A1.41,1.41,0,0,1,33.81,16.25Z"/><path class="cls-1" d="M37.33,41H53.07a1.12,1.12,0,1,0,0-2.25H37.33a1.12,1.12,0,1,0,0,2.25Z"/><path class="cls-1" d="M37.33,45.48H53.07a1.12,1.12,0,1,0,0-2.25H37.33a1.12,1.12,0,1,0,0,2.25Z"/><path class="cls-1" d="M48.58,47.73H41.83a1.12,1.12,0,0,0,0,2.25h6.75a1.12,1.12,0,0,0,0-2.25Z"/></g></g></svg>