<svg xmlns="http://www.w3.org/2000/svg" viewBox="0 0 100 100"><defs><style>.cls-1{fill:#fff;}.cls-2{fill:#66cedb;stroke:#11113f;stroke-miterlimit:10;stroke-width:4px;}</style></defs><title>sharp</title><g id="Layer_2" data-name="Layer 2"><g id="Layer_1-2" data-name="Layer 1"><circle class="cls-1" cx="50" cy="50" r="50"/><path class="cls-2" d="M75.95,37.88H68.62l2.56-11a3.77,3.77,0,0,0-7.35-1.71l-3,12.73h-17l2.56-11a3.77,3.77,0,0,0-7.35-1.71l-3,12.73H27.72a3.63,3.63,0,1,0,0,7.26H34.5L31.61,57.59H23.05a3.63,3.63,0,0,0,0,7.26h6.87l-2.56,11a3.77,3.77,0,1,0,7.35,1.71l3-12.73h17l-2.56,11a3.77,3.77,0,1,0,7.35,1.71l3-12.73h8.4a3.63,3.63,0,0,0,0-7.26H64l2.89-12.45h9a3.63,3.63,0,0,0,0-7.26ZM56.31,57.59h-17l2.89-12.45h17Z"/></g></g></svg>