<svg id="Layer_1" data-name="Layer 1" xmlns="http://www.w3.org/2000/svg" viewBox="0 0 21.55 20"><defs><style>.cls-1{fill:#fff;}</style></defs><title>age-icon</title><path class="cls-1" d="M271.77,260.59l-2.59-5.19-2.59,5.19h1.75a8.52,8.52,0,1,1-.16-5.65l.85-1.7a10,10,0,1,0,.86,7.35h1.9Z" transform="translate(-250.23 -248)"/><path class="cls-1" d="M254.92,260h.94l.28-1h1.14l.31,1h1l-1.24-4h-1.18Zm1.59-2.55c.07-.23.12-.53.18-.77h0c.06.24.13.53.2.77l.25.85h-.88Z" transform="translate(-250.23 -248)"/><path class="cls-1" d="M261,256.71a2.22,2.22,0,0,1,.93.17l.19-.72A2.75,2.75,0,0,0,261,256a2.06,2.06,0,0,0-2.28,2.08,1.93,1.93,0,0,0,.56,1.45,2.22,2.22,0,0,0,1.62.54,4.47,4.47,0,0,0,1.33-.22v-2.1H260.8v.7h.62v.83a1.3,1.3,0,1,1-.38-2.54Z" transform="translate(-250.23 -248)"/><polygon class="cls-1" points="15.23 8.74 15.23 8.01 12.76 8.01 12.76 11.99 15.31 11.99 15.31 11.26 13.67 11.26 13.67 10.31 15.14 10.31 15.14 9.57 13.67 9.57 13.67 8.74 15.23 8.74"/></svg>