<svg xmlns="http://www.w3.org/2000/svg" viewBox="0 0 100 100"><defs><style>.cls-1{fill:#fff;}.cls-2{fill:#e1f4f3;}.cls-3{fill:#a4ffff;}.cls-4{fill:#ff0;}.cls-5{fill:#c0ef30;}.cls-6{fill:#64f22f;}.cls-7{fill:#11113f;}</style></defs><title>Asset 4</title><g id="Layer_2" data-name="Layer 2"><g id="Layer_1-2" data-name="Layer 1"><circle class="cls-1" cx="50" cy="50" r="50"/><polygon class="cls-2" points="19.5 22.25 22.13 20 74.88 20 79 22.25 79 77.63 75.75 80.5 23.38 80.5 19.5 78.13 19.5 22.25"/><rect class="cls-3" x="28" y="28.5" width="43.38" height="39.63"/><circle class="cls-4" cx="40.94" cy="42.13" r="4.91"/><polyline class="cls-5" points="44.38 59 60 45.5 71.38 55 71.38 67.5 48.88 68.13 44.38 59"/><polygon class="cls-6" points="28 65.88 39.38 55 53.88 67.5 28 67.5 28 65.88"/><g id="Picture"><path class="cls-7" d="M76,18H23a5.63,5.63,0,0,0-5.5,5.75v52.5A5.64,5.64,0,0,0,23,82H76a5.63,5.63,0,0,0,5.5-5.75V23.75A5.63,5.63,0,0,0,76,18Zm1.5,58.25A1.64,1.64,0,0,1,76,78H23a1.64,1.64,0,0,1-1.5-1.75V23.75A1.64,1.64,0,0,1,23,22H76a1.64,1.64,0,0,1,1.5,1.75ZM41.5,34a8,8,0,1,0,8,8A8,8,0,0,0,41.5,34Zm0,12a4,4,0,1,1,4-4A4,4,0,0,1,41.5,46Zm30-20h-44a2,2,0,0,0-2,2V68a2,2,0,0,0,2,2h44a2,2,0,0,0,2-2V28A2,2,0,0,0,71.5,26Zm-40,40a2,2,0,0,1-.92-.25L38.37,58a2,2,0,0,1,2.83,0l8,8Zm38-2a2,2,0,0,1-2,2H54.9l-6.84-6.84L58.63,48.59a2,2,0,0,1,2.83,0l8,8Zm0-13-5.21-5.21a6,6,0,0,0-8.48,0L45.23,56.33,44,55.13a6,6,0,0,0-8.48,0l-6,6V32a2,2,0,0,1,2-2h36a2,2,0,0,1,2,2Z"/></g></g></g></svg>