<svg id="Layer_1" data-name="Layer 1" xmlns="http://www.w3.org/2000/svg" viewBox="0 0 100 100"><defs><style>.cls-1{fill:#fff;}.cls-2{fill:#c1004a;}.cls-3{fill:#2b323f;}.cls-4{fill:#fffa5a;}.cls-5{fill:#7ae5bc;}.cls-6{fill:#534577;}.cls-7{fill:#80b0bf;}.cls-8{fill:#423f42;}.cls-9{fill:#ceb389;}.cls-10{fill:#425de2;}.cls-11{fill:#44403b;}.cls-12{fill:#722e72;}.cls-13{fill:#e8e3c4;}.cls-14{fill:#ff76a7;}.cls-15{fill:#f9eaa0;}.cls-16{fill:#bcf0f7;}.cls-17{fill:#11113f;}</style></defs><title>behavour</title><circle class="cls-1" cx="50" cy="50" r="50"/><polyline class="cls-2" points="38.51 65.14 52.13 65.14 52.13 60.03 55.05 58.7 56.84 54.18 56.84 47.81 52.66 48.14 52.13 54.38 41.5 54.65 39.38 57.3 38.51 65.14"/><polygon class="cls-3" points="60.69 61.89 65.21 61.89 65.21 65.7 74.04 65.81 74.04 59.9 77.82 58.3 78.75 52.39 74.11 52.06 74.5 54.12 64.34 54.65 61.29 56.67 60.69 61.89"/><polygon class="cls-4" points="65.67 65.7 74.5 65.7 74.11 77.76 65.21 78.49 65.67 65.7"/><polygon class="cls-5" points="17.06 65.14 29.95 65.14 29.95 60.23 33.27 58.7 34.93 53.59 30.34 53.59 28.07 54.65 19.05 54.65 17.39 58.23 17.06 65.14"/><polyline class="cls-6" points="21.25 65.7 30.34 65.7 29.95 78.49 21.64 78.49 21.25 65.7"/><polygon class="cls-7" points="43.43 65.14 52.13 65.7 52.13 78.49 43.43 78.49 43.43 65.14"/><polyline class="cls-8" points="43.43 78.82 51.86 78.82 51.86 83.07 43.16 82.81 43.43 79.15"/><path class="cls-9" d="M255.62,262.65c.07.2,3.19,4.05,3.19,4.05l3-4.05Z" transform="translate(-211 -208)"/><polygon class="cls-9" points="42.7 65.14 38.51 65.14 40.9 70.12 43.43 68.26 42.7 65.14"/><polygon class="cls-9" points="44.55 44.49 48.07 43.43 51.86 44.49 55.51 43.43 56.51 46.41 56.51 47.81 52.26 47.81 50 51.66 46.15 51.66 43.43 48.77 44.55 44.49"/><polygon class="cls-10" points="65.67 78.49 74.5 78.82 74.5 82.81 65.21 82.54 65.67 78.49"/><polygon class="cls-11" points="61.29 62.22 65.21 62.22 65.21 69.19 61.62 69.19 61.29 62.22"/><polygon class="cls-11" points="78.42 51.66 72.78 51.66 68 52.06 65.67 48.41 67.2 43.96 70.45 43.43 73.44 45.15 76.36 43.43 78.42 44.82 78.42 51.66"/><rect class="cls-12" x="21.91" y="78.82" width="8.04" height="3.98"/><polygon class="cls-13" points="17.39 61.09 21.25 61.55 21.25 69.19 17.39 68.73 17.39 61.09"/><path class="cls-13" d="M241.34,260.72V252h3.72l.53,9.63Z" transform="translate(-211 -208)"/><circle class="cls-13" cx="25.76" cy="47.81" r="3.85"/><rect class="cls-14" x="69.79" y="17.06" width="13.15" height="14.94"/><rect class="cls-15" x="48.07" y="17.06" width="12.62" height="15.27"/><rect class="cls-16" x="25.76" y="17.06" width="13.15" height="15.27"/><path class="cls-17" d="M244.55,250.52v-9h6.58V224H235.77v17.55h6.58v9a3.29,3.29,0,0,0-1.68,1.34,5.49,5.49,0,1,0-.51,8.3v1.13h-7.68a5.49,5.49,0,0,0-5.48,5.48v8.77a3.29,3.29,0,0,0,4.39,3.1V292h11V268.86a5.49,5.49,0,0,0,4.39-5.37v-9.87A3.29,3.29,0,0,0,244.55,250.52ZM238,239.35V226.19h11v13.16Zm-1.1,19.74a3.29,3.29,0,1,1,3.29-3.29A3.29,3.29,0,0,1,236.87,259.1Zm-5.48,16.45a1.1,1.1,0,1,1-2.19,0v-5.48h2.19Zm0-7.68h-2.19v-1.1a3.29,3.29,0,0,1,3.29-3.29h3.29v8.77h-2.19v-5.48h-2.19Zm4.39,21.94h-2.19v-2.19h2.19Zm4.39,0H238v-2.19h2.19Zm0-4.39H238v-8.77h-2.19v8.77h-2.19v-11h6.58Zm4.39-21.94a3.29,3.29,0,0,1-3.29,3.29h-1.1v5.48H238v-8.77h4.39v-1.1h2.19Zm0-3.29h-2.19v-6.58a1.1,1.1,0,0,1,2.19,0Z" transform="translate(-211 -208)"/><polygon class="cls-17" points="33.55 20.39 29.16 20.39 29.16 22.58 31.36 22.58 31.36 26.97 29.16 26.97 29.16 29.16 35.74 29.16 35.74 26.97 33.55 26.97 33.55 20.39"/><path class="cls-17" d="M266.48,250.52v-9h6.58V224H257.71v17.55h6.58v9a3.29,3.29,0,0,0-1.68,1.34,5.49,5.49,0,1,0-.51,8.3v1.13h-7.68a5.49,5.49,0,0,0-5.48,5.48v8.77a3.29,3.29,0,0,0,4.39,3.1V292h11V268.86a5.49,5.49,0,0,0,4.39-5.37v-9.87A3.29,3.29,0,0,0,266.48,250.52Zm-6.58-11.17V226.19h11v13.16Zm-1.1,19.74a3.29,3.29,0,1,1,3.29-3.29A3.29,3.29,0,0,1,258.81,259.1Zm1.1,4.39-1.1,1.46-1.1-1.46Zm-6.58,12.06a1.1,1.1,0,1,1-2.19,0v-1.1h2.19Zm4.39,14.26h-2.19v-2.19h2.19Zm4.39,0H259.9v-2.19h2.19Zm0-4.39H259.9v-8.77h-2.19v8.77h-2.19v-11h6.58Zm4.39-21.94a3.29,3.29,0,0,1-3.29,3.29h-1.1v5.48h-6.58v-5.48h-2.19v5.48h-2.19v-5.48a3.29,3.29,0,0,1,3.29-3.29H255l3.84,5.12,3.84-5.12h1.65V256.9h2.19Zm0-8.77h-2.19v-1.1a1.1,1.1,0,0,1,2.19,0Z" transform="translate(-211 -208)"/><path class="cls-17" d="M295,241.55V224H279.65v17.55h6.58v9a3.29,3.29,0,0,0-1.68,1.34,5.49,5.49,0,1,0-.51,8.3v1.13h-7.68a5.49,5.49,0,0,0-5.48,5.48v8.77a3.29,3.29,0,0,0,4.39,3.1V292h11V268.86a5.49,5.49,0,0,0,4.39-5.37v-9.87a3.29,3.29,0,0,0-2.19-3.09v-9ZM280.74,259.1a3.29,3.29,0,1,1,3.29-3.29A3.29,3.29,0,0,1,280.74,259.1Zm-5.48,16.45a1.1,1.1,0,1,1-2.19,0v-4.39h2.19Zm4.39,14.26h-2.19v-2.19h2.19Zm4.39,0h-2.19v-2.19H284Zm0-4.39h-2.19v-8.77h-2.19v8.77h-2.19v-11H284Zm4.39-21.94a3.29,3.29,0,0,1-3.29,3.29H284v5.48h-6.58v-5.48h-2.19V269h-2.19v-2.19a3.29,3.29,0,0,1,3.29-3.29h9.87v-2.19h2.19Zm0-4.39h-2.19v-5.48a1.1,1.1,0,1,1,2.19,0Zm-6.58-19.74V226.19h11v13.16Z" transform="translate(-211 -208)"/><path class="cls-17" d="M287.87,228.39H284v2.19h3.84a.55.55,0,1,1,0,1.1H284v2.19h3.84a.55.55,0,1,1,0,1.1H284v2.19h3.84a2.74,2.74,0,0,0,2.19-4.39,2.74,2.74,0,0,0-2.19-4.39Z" transform="translate(-211 -208)"/><path class="cls-17" d="M268.68,231.52a3.13,3.13,0,0,0-3.13-3.13h-.32a3.13,3.13,0,0,0-3.13,3.13v.16h2.19v-.16a.94.94,0,0,1,.94-.94h.32a.94.94,0,0,1,.42,1.77l-3.87,1.93v2.87h6.58V235h-3l1.3-.65A3.11,3.11,0,0,0,268.68,231.52Z" transform="translate(-211 -208)"/></svg>