<svg id="Layer_1" data-name="Layer 1" xmlns="http://www.w3.org/2000/svg" viewBox="0 0 100 100"><defs><style>.cls-1{fill:#fff;}.cls-2{fill:#f1f4fb;}.cls-3{fill:#d5dced;}.cls-4{fill:#959cb5;}.cls-5{fill:#00c3ff;}.cls-6{fill:#65687a;}.cls-7{fill:#7dfaa0;}.cls-8{fill:#ffdc64;}.cls-9{fill:#11113f;}</style></defs><title>calculated</title><circle class="cls-1" cx="50" cy="50" r="50"/><path class="cls-2" d="M276.85,286.54H235.4A2.44,2.44,0,0,1,233,284.1V225.58a2.44,2.44,0,0,1,2.44-2.44h31.7l12.19,12.19V284.1A2.44,2.44,0,0,1,276.85,286.54Z" transform="translate(-211 -208)"/><path class="cls-3" d="M267.1,223.14v8.53a3.66,3.66,0,0,0,3.66,3.66h8.53Z" transform="translate(-211 -208)"/><path class="cls-4" d="M258.56,293.86h26.82A3.66,3.66,0,0,0,289,290.2V258.5a3.66,3.66,0,0,0-3.66-3.66H258.56a3.66,3.66,0,0,0-3.66,3.66v31.7A3.66,3.66,0,0,0,258.56,293.86Z" transform="translate(-211 -208)"/><path class="cls-5" d="M282.95,267H261a1.22,1.22,0,0,1-1.22-1.22v-4.88a1.22,1.22,0,0,1,1.22-1.22h21.95a1.22,1.22,0,0,1,1.22,1.22v4.88A1.22,1.22,0,0,1,282.95,267Z" transform="translate(-211 -208)"/><path class="cls-6" d="M263.44,278H261a1.22,1.22,0,0,1-1.22-1.22v-2.44a1.22,1.22,0,0,1,1.22-1.22h2.44a1.22,1.22,0,0,1,1.22,1.22v2.44A1.22,1.22,0,0,1,263.44,278Z" transform="translate(-211 -208)"/><path class="cls-7" d="M282.95,278h-2.44a1.22,1.22,0,0,1-1.22-1.22v-2.44a1.22,1.22,0,0,1,1.22-1.22h2.44a1.22,1.22,0,0,1,1.22,1.22v2.44A1.22,1.22,0,0,1,282.95,278Z" transform="translate(-211 -208)"/><path class="cls-6" d="M273.19,278h-2.44a1.22,1.22,0,0,1-1.22-1.22v-2.44a1.22,1.22,0,0,1,1.22-1.22h2.44a1.22,1.22,0,0,1,1.22,1.22v2.44A1.22,1.22,0,0,1,273.19,278Z" transform="translate(-211 -208)"/><path class="cls-6" d="M263.44,287.76H261a1.22,1.22,0,0,1-1.22-1.22V284.1a1.22,1.22,0,0,1,1.22-1.22h2.44a1.22,1.22,0,0,1,1.22,1.22v2.44A1.22,1.22,0,0,1,263.44,287.76Z" transform="translate(-211 -208)"/><path class="cls-8" d="M282.95,287.76h-2.44a1.22,1.22,0,0,1-1.22-1.22V284.1a1.22,1.22,0,0,1,1.22-1.22h2.44a1.22,1.22,0,0,1,1.22,1.22v2.44A1.22,1.22,0,0,1,282.95,287.76Z" transform="translate(-211 -208)"/><path class="cls-6" d="M273.19,287.76h-2.44a1.22,1.22,0,0,1-1.22-1.22V284.1a1.22,1.22,0,0,1,1.22-1.22h2.44a1.22,1.22,0,0,1,1.22,1.22v2.44A1.22,1.22,0,0,1,273.19,287.76Z" transform="translate(-211 -208)"/><path class="cls-9" d="M240.2,240a1.14,1.14,0,0,0-2.29,0c0,1.82,1.54,3.31,3.66,3.7v.18a1.14,1.14,0,0,0,2.29,0v-.18c2.12-.4,3.66-1.88,3.66-3.7,0-2.55-2-3.62-3.66-4.23v-4c.84.28,1.37.83,1.37,1.35a1.14,1.14,0,1,0,2.29,0c0-1.82-1.54-3.31-3.66-3.7v-.18a1.14,1.14,0,1,0-2.29,0v.18c-2.12.4-3.66,1.88-3.66,3.7,0,2.55,2,3.62,3.66,4.23v4C240.73,241.05,240.2,240.5,240.2,240Zm5,0c0,.52-.53,1.07-1.37,1.35v-3.09C245,238.8,245.23,239.29,245.23,240Zm-5-6.86c0-.52.53-1.07,1.37-1.35v3.09C240.43,234.31,240.2,233.82,240.2,233.13Z" transform="translate(-211 -208)"/><path class="cls-9" d="M251.25,232.82H261a1.14,1.14,0,0,0,0-2.29h-9.75a1.14,1.14,0,0,0,0,2.29Z" transform="translate(-211 -208)"/><path class="cls-9" d="M251.25,242.57h1.22a1.14,1.14,0,1,0,0-2.29h-1.22a1.14,1.14,0,1,0,0,2.29Z" transform="translate(-211 -208)"/><path class="cls-9" d="M239.05,251.11h34.14a1.14,1.14,0,0,0,0-2.29H239.05a1.14,1.14,0,0,0,0,2.29Z" transform="translate(-211 -208)"/><path class="cls-9" d="M250,256.14h-3.66a1.14,1.14,0,0,0,0,2.29H250a1.14,1.14,0,0,0,0-2.29Z" transform="translate(-211 -208)"/><path class="cls-9" d="M241.49,256.14h-2.44a1.14,1.14,0,0,0,0,2.29h2.44a1.14,1.14,0,1,0,0-2.29Z" transform="translate(-211 -208)"/><path class="cls-9" d="M250,261h-3.66a1.14,1.14,0,1,0,0,2.29H250a1.14,1.14,0,0,0,0-2.29Z" transform="translate(-211 -208)"/><path class="cls-9" d="M241.49,261h-2.44a1.14,1.14,0,1,0,0,2.29h2.44a1.14,1.14,0,1,0,0-2.29Z" transform="translate(-211 -208)"/><path class="cls-9" d="M250,265.89h-3.66a1.14,1.14,0,1,0,0,2.29H250a1.14,1.14,0,0,0,0-2.29Z" transform="translate(-211 -208)"/><path class="cls-9" d="M241.49,265.89h-2.44a1.14,1.14,0,1,0,0,2.29h2.44a1.14,1.14,0,1,0,0-2.29Z" transform="translate(-211 -208)"/><path class="cls-9" d="M250,270.77h-3.66a1.14,1.14,0,1,0,0,2.29H250a1.14,1.14,0,0,0,0-2.29Z" transform="translate(-211 -208)"/><path class="cls-9" d="M241.49,270.77h-2.44a1.14,1.14,0,1,0,0,2.29h2.44a1.14,1.14,0,1,0,0-2.29Z" transform="translate(-211 -208)"/><path class="cls-9" d="M250,275.64h-3.66a1.14,1.14,0,1,0,0,2.29H250a1.14,1.14,0,0,0,0-2.29Z" transform="translate(-211 -208)"/><path class="cls-9" d="M241.49,275.64h-2.44a1.14,1.14,0,1,0,0,2.29h2.44a1.14,1.14,0,1,0,0-2.29Z" transform="translate(-211 -208)"/><path class="cls-9" d="M262.3,241.43a1.14,1.14,0,0,0,1.14,1.14h1.22a1.14,1.14,0,1,0,0-2.29h-1.22A1.14,1.14,0,0,0,262.3,241.43Z" transform="translate(-211 -208)"/><path class="cls-9" d="M269.53,242.57h1.22a1.14,1.14,0,1,0,0-2.29h-1.22a1.14,1.14,0,1,0,0,2.29Z" transform="translate(-211 -208)"/><path class="cls-9" d="M257.34,240.29a1.14,1.14,0,1,0,0,2.29h1.22a1.14,1.14,0,1,0,0-2.29Z" transform="translate(-211 -208)"/><path class="cls-9" d="M251.25,237.7h12.19a1.14,1.14,0,1,0,0-2.29H251.25a1.14,1.14,0,1,0,0,2.29Z" transform="translate(-211 -208)"/><path class="cls-9" d="M285.38,253.7h-5V235.34a1.14,1.14,0,0,0-.33-.81L267.9,222.33a1.14,1.14,0,0,0-.81-.33H235.4a3.59,3.59,0,0,0-3.58,3.58V284.1a3.59,3.59,0,0,0,3.58,3.58h18.36v2.51a4.81,4.81,0,0,0,4.8,4.8h26.82a4.81,4.81,0,0,0,4.8-4.8V258.5A4.81,4.81,0,0,0,285.38,253.7Zm-17.15-27.8,8.29,8.29h-5.78a2.52,2.52,0,0,1-2.51-2.51ZM235.4,285.4a1.3,1.3,0,0,1-1.3-1.3V225.58a1.3,1.3,0,0,1,1.3-1.3H266v7.39a4.81,4.81,0,0,0,4.8,4.8h7.39V253.7H258.56a4.81,4.81,0,0,0-4.8,4.8v26.9Zm52.5,4.8a2.52,2.52,0,0,1-2.51,2.51H258.56A2.52,2.52,0,0,1,256,290.2V258.5a2.52,2.52,0,0,1,2.51-2.51h26.82a2.52,2.52,0,0,1,2.51,2.51v31.7Z" transform="translate(-211 -208)"/><path class="cls-9" d="M282.95,258.58H261a2.36,2.36,0,0,0-2.36,2.36v4.88a2.36,2.36,0,0,0,2.36,2.36h21.95a2.36,2.36,0,0,0,2.36-2.36v-4.88A2.36,2.36,0,0,0,282.95,258.58Zm.08,7.24a.08.08,0,0,1-.08.08H261a.08.08,0,0,1-.08-.08v-4.88a.08.08,0,0,1,.08-.08h21.95a.08.08,0,0,1,.08.08v4.88Z" transform="translate(-211 -208)"/><path class="cls-9" d="M263.44,272H261a2.36,2.36,0,0,0-2.36,2.36v2.44a2.36,2.36,0,0,0,2.36,2.36h2.44a2.36,2.36,0,0,0,2.36-2.36v-2.44A2.36,2.36,0,0,0,263.44,272Zm.08,4.8a.08.08,0,0,1-.08.08H261a.08.08,0,0,1-.08-.08v-2.44a.08.08,0,0,1,.08-.08h2.44a.08.08,0,0,1,.08.08v2.44Z" transform="translate(-211 -208)"/><path class="cls-9" d="M282.95,272h-2.44a2.36,2.36,0,0,0-2.36,2.36v2.44a2.36,2.36,0,0,0,2.36,2.36h2.44a2.36,2.36,0,0,0,2.36-2.36v-2.44A2.36,2.36,0,0,0,282.95,272Zm.08,4.8a.08.08,0,0,1-.08.08h-2.44a.08.08,0,0,1-.08-.08v-2.44a.08.08,0,0,1,.08-.08h2.44a.08.08,0,0,1,.08.08Z" transform="translate(-211 -208)"/><path class="cls-9" d="M273.19,272h-2.44a2.36,2.36,0,0,0-2.36,2.36v2.44a2.36,2.36,0,0,0,2.36,2.36h2.44a2.36,2.36,0,0,0,2.36-2.36v-2.44A2.36,2.36,0,0,0,273.19,272Zm.08,4.8a.08.08,0,0,1-.08.08h-2.44a.08.08,0,0,1-.08-.08v-2.44a.08.08,0,0,1,.08-.08h2.44a.08.08,0,0,1,.08.08Z" transform="translate(-211 -208)"/><path class="cls-9" d="M263.44,281.74H261a2.36,2.36,0,0,0-2.36,2.36v2.44A2.36,2.36,0,0,0,261,288.9h2.44a2.36,2.36,0,0,0,2.36-2.36V284.1A2.36,2.36,0,0,0,263.44,281.74Zm.08,4.8a.08.08,0,0,1-.08.08H261a.08.08,0,0,1-.08-.08V284.1A.08.08,0,0,1,261,284h2.44a.08.08,0,0,1,.08.08v2.44Z" transform="translate(-211 -208)"/><path class="cls-9" d="M282.95,281.74h-2.44a2.36,2.36,0,0,0-2.36,2.36v2.44a2.36,2.36,0,0,0,2.36,2.36h2.44a2.36,2.36,0,0,0,2.36-2.36V284.1A2.36,2.36,0,0,0,282.95,281.74Zm.08,4.8a.08.08,0,0,1-.08.08h-2.44a.08.08,0,0,1-.08-.08V284.1a.08.08,0,0,1,.08-.08h2.44a.08.08,0,0,1,.08.08Z" transform="translate(-211 -208)"/><path class="cls-9" d="M273.19,281.74h-2.44a2.36,2.36,0,0,0-2.36,2.36v2.44a2.36,2.36,0,0,0,2.36,2.36h2.44a2.36,2.36,0,0,0,2.36-2.36V284.1A2.36,2.36,0,0,0,273.19,281.74Zm.08,4.8a.08.08,0,0,1-.08.08h-2.44a.08.08,0,0,1-.08-.08V284.1a.08.08,0,0,1,.08-.08h2.44a.08.08,0,0,1,.08.08Z" transform="translate(-211 -208)"/></svg>