<svg id="Layer_1" data-name="Layer 1" xmlns="http://www.w3.org/2000/svg" viewBox="0 0 100 100"><defs><style>.cls-1{fill:#fff;}.cls-2{fill:#1cd759;}.cls-3{fill:#ffdd09;}.cls-4{fill:#54c9fd;}.cls-5{fill:#11113f;}</style></defs><title>chat-trio</title><circle class="cls-1" cx="50" cy="50" r="50"/><path class="cls-2" d="M256,227.53v3.29a18.74,18.74,0,0,1,0,31v5.64h3.53v7.05l7.05-7.05h17.63a2.36,2.36,0,0,0,2.35-2.35V227.53a2.36,2.36,0,0,0-2.35-2.35H258.35a2.36,2.36,0,0,0-2.35,2.35" transform="translate(-206 -206)"/><path class="cls-2" d="M256,227.53v3.29a18.74,18.74,0,0,1,0,31v5.64h3.53v7.05l7.05-7.05h14.11a2.36,2.36,0,0,0,2.35-2.35V227.53a2.36,2.36,0,0,0-2.35-2.35H258.35a2.36,2.36,0,0,0-2.35,2.35" transform="translate(-206 -206)"/><path class="cls-3" d="M245.42,227.53A18.81,18.81,0,0,0,233.67,261v8.82l5.76-5.76a20,20,0,0,0,6,1.06,18.81,18.81,0,1,0,0-37.61" transform="translate(-206 -206)"/><path class="cls-3" d="M247.18,228.7c-9.4,0-17,8.23-17,18.34a18.61,18.61,0,0,0,6.35,14.22v8.58l5.17-5.52a17,17,0,0,0,5.52.94c9.4,0,17-8.23,17-18.34s-7.64-18.22-17-18.22" transform="translate(-206 -206)"/><path class="cls-4" d="M259.53,267.49H256v-5.64a18.49,18.49,0,0,1-10.58,3.29,16.93,16.93,0,0,1-6-1.06l-5.76,5.76V261a20.88,20.88,0,0,1-3.76-4.11h-2.12a2.36,2.36,0,0,0-2.35,2.35v21.16a2.36,2.36,0,0,0,2.35,2.35v7.05l7.05-7.05H260.7a2.36,2.36,0,0,0,2.35-2.35V271l-3.53,3.53v-7.05Z" transform="translate(-206 -206)"/><path class="cls-4" d="M231.32,258.09c-1.29,0-2.35-.12-2.35,1.18v21.16a2.36,2.36,0,0,0,2.35,2.35v3.53l3.53-3.53H260.7a2.36,2.36,0,0,0,2.35-2.35V271l-3.53,3.53v-7.05H256v-5.64a18.49,18.49,0,0,1-10.58,3.29,23.28,23.28,0,0,1-7.05-1.06l-4.7,5.76V261Z" transform="translate(-206 -206)"/><path class="cls-5" d="M233.67,271a.71.71,0,0,1-.47-.12,1,1,0,0,1-.71-1.06V261.5a19.92,19.92,0,1,1,12.93,4.82,19.5,19.5,0,0,1-5.76-.82l-5.17,5.17A1.07,1.07,0,0,1,233.67,271Zm11.75-42.32a17.61,17.61,0,0,0-17.63,17.63,17.8,17.8,0,0,0,6.58,13.75,1.07,1.07,0,0,1,.47.94v6l3.76-3.76a.94.94,0,0,1,1.18-.24,18.92,18.92,0,0,0,5.64.94,17.63,17.63,0,0,0,0-35.26Z" transform="translate(-206 -206)"/><path class="cls-5" d="M259.53,275.72a.71.71,0,0,1-.47-.12,1,1,0,0,1-.71-1.06v-5.88H256a1.11,1.11,0,0,1-1.18-1.18v-5.64a1.45,1.45,0,0,1,.47-.94,17.57,17.57,0,0,0,0-29.15,1.45,1.45,0,0,1-.47-.94v-3.29a3.46,3.46,0,0,1,3.53-3.53h25.86a3.46,3.46,0,0,1,3.53,3.53v37.61a3.46,3.46,0,0,1-3.53,3.53H267l-6.7,6.7A1.07,1.07,0,0,1,259.53,275.72Zm-2.35-9.4h2.35a1.11,1.11,0,0,1,1.18,1.18v4.23l5.05-5.05a1.07,1.07,0,0,1,.82-.35h17.63a1.11,1.11,0,0,0,1.18-1.18V227.53a1.11,1.11,0,0,0-1.18-1.18H258.35a1.11,1.11,0,0,0-1.18,1.18v2.7a19.87,19.87,0,0,1,0,32.21v3.88Z" transform="translate(-206 -206)"/><path class="cls-5" d="M227.79,291a.71.71,0,0,1-.47-.12,1,1,0,0,1-.71-1.06v-6.11a3.42,3.42,0,0,1-2.35-3.29V259.26a3.46,3.46,0,0,1,3.53-3.53h2.12a1.45,1.45,0,0,1,.94.47,18.77,18.77,0,0,0,3.53,3.88,1.07,1.07,0,0,1,.47.94v6l3.76-3.76a.94.94,0,0,1,1.18-.24,18,18,0,0,0,15.63-2.12,1.39,1.39,0,0,1,1.18-.12,1.23,1.23,0,0,1,.59,1.06v4.47h2.35a1.11,1.11,0,0,1,1.18,1.18v4.23l1.53-1.53a1.07,1.07,0,0,1,1.29-.24,1.13,1.13,0,0,1,.71,1.06v9.4a3.46,3.46,0,0,1-3.53,3.53H235.31l-6.7,6.7A1.07,1.07,0,0,1,227.79,291Zm0-32.91a1.11,1.11,0,0,0-1.18,1.18v21.16a1.11,1.11,0,0,0,1.18,1.18,1.11,1.11,0,0,1,1.18,1.18V287l5.05-5.05a1.07,1.07,0,0,1,.82-.35H260.7a1.11,1.11,0,0,0,1.18-1.18v-6.58l-1.53,1.53a1.07,1.07,0,0,1-1.29.24,1,1,0,0,1-.71-1.06v-5.88H256a1.11,1.11,0,0,1-1.18-1.18V264a19.94,19.94,0,0,1-15.16,1.53l-5.17,5.17a1.07,1.07,0,0,1-1.29.24,1,1,0,0,1-.71-1.06V261.5a21.83,21.83,0,0,1-3.17-3.41Z" transform="translate(-206 -206)"/><path class="cls-5" d="M279.51,235.75h-8.23a1.18,1.18,0,0,1,0-2.35h8.23a1.18,1.18,0,0,1,0,2.35Z" transform="translate(-206 -206)"/><path class="cls-5" d="M266.58,235.75H260.7a1.18,1.18,0,0,1,0-2.35h5.88a1.18,1.18,0,0,1,0,2.35Z" transform="translate(-206 -206)"/><path class="cls-5" d="M279.51,241.63H276a1.18,1.18,0,0,1,0-2.35h3.53a1.18,1.18,0,0,1,0,2.35Z" transform="translate(-206 -206)"/><path class="cls-5" d="M271.28,241.63h-7.05a1.18,1.18,0,0,1,0-2.35h7.05a1.18,1.18,0,0,1,0,2.35Z" transform="translate(-206 -206)"/><path class="cls-5" d="M279.51,247.51h-7.05a1.18,1.18,0,1,1,0-2.35h7.05a1.18,1.18,0,1,1,0,2.35Z" transform="translate(-206 -206)"/><path class="cls-5" d="M267.75,247.51h-3.53a1.18,1.18,0,1,1,0-2.35h3.53a1.18,1.18,0,1,1,0,2.35Z" transform="translate(-206 -206)"/><path class="cls-5" d="M279.51,253.39H276a1.18,1.18,0,1,1,0-2.35h3.53a1.18,1.18,0,1,1,0,2.35Z" transform="translate(-206 -206)"/><path class="cls-5" d="M271.28,253.39h-7.05a1.18,1.18,0,1,1,0-2.35h7.05a1.18,1.18,0,1,1,0,2.35Z" transform="translate(-206 -206)"/><path class="cls-5" d="M279.51,259.26h-5.88a1.18,1.18,0,0,1,0-2.35h5.88a1.18,1.18,0,0,1,0,2.35Z" transform="translate(-206 -206)"/><path class="cls-5" d="M268.93,259.26H260.7a1.18,1.18,0,1,1,0-2.35h8.23a1.18,1.18,0,0,1,0,2.35Z" transform="translate(-206 -206)"/><path class="cls-5" d="M254.82,241.63h-5.88a1.18,1.18,0,0,1,0-2.35h5.88a1.18,1.18,0,0,1,0,2.35Z" transform="translate(-206 -206)"/><path class="cls-5" d="M244.25,241.63H236a1.18,1.18,0,0,1,0-2.35h8.23a1.18,1.18,0,0,1,0,2.35Z" transform="translate(-206 -206)"/><path class="cls-5" d="M254.82,247.51h-1.18a1.18,1.18,0,0,1,0-2.35h1.18a1.18,1.18,0,1,1,0,2.35Z" transform="translate(-206 -206)"/><path class="cls-5" d="M248.95,247.51h-4.7a1.18,1.18,0,0,1,0-2.35h4.7a1.18,1.18,0,0,1,0,2.35Z" transform="translate(-206 -206)"/><path class="cls-5" d="M239.54,247.51H236a1.18,1.18,0,1,1,0-2.35h3.53a1.18,1.18,0,1,1,0,2.35Z" transform="translate(-206 -206)"/><path class="cls-5" d="M254.82,253.39H251.3a1.18,1.18,0,0,1,0-2.35h3.53a1.18,1.18,0,0,1,0,2.35Z" transform="translate(-206 -206)"/><path class="cls-5" d="M246.6,253.39H236a1.18,1.18,0,1,1,0-2.35H246.6a1.18,1.18,0,0,1,0,2.35Z" transform="translate(-206 -206)"/><path class="cls-5" d="M252.47,272.19h-8.23a1.18,1.18,0,0,1,0-2.35h8.23a1.18,1.18,0,0,1,0,2.35Z" transform="translate(-206 -206)"/><path class="cls-5" d="M239.54,272.19h-1.18a1.18,1.18,0,1,1,0-2.35h1.18a1.18,1.18,0,0,1,0,2.35Z" transform="translate(-206 -206)"/><path class="cls-5" d="M252.47,278.07h-3.53a1.18,1.18,0,1,1,0-2.35h3.53a1.18,1.18,0,1,1,0,2.35Z" transform="translate(-206 -206)"/><path class="cls-5" d="M244.25,278.07h-5.88a1.18,1.18,0,1,1,0-2.35h5.88a1.18,1.18,0,1,1,0,2.35Z" transform="translate(-206 -206)"/></svg>