<svg id="Layer_1" data-name="Layer 1" xmlns="http://www.w3.org/2000/svg" viewBox="0 0 100 100"><defs><style>.cls-1{fill:#fff;}.cls-2{fill:#ff7900;}.cls-2,.cls-3{stroke:#000;}.cls-2,.cls-3,.cls-4{stroke-miterlimit:10;}.cls-3{fill:#ffe600;}.cls-4{fill:#11113f;stroke:#11113f;stroke-width:2px;}</style></defs><title>comments</title><circle class="cls-1" cx="50" cy="50" r="50"/><polygon class="cls-2" points="32.89 80.95 32.89 71.11 22.7 69.94 20.94 66.31 20.94 43.92 25.27 39.94 64.77 40.17 68.87 43.22 68.28 68.06 66.41 70.99 43.09 71.23 32.89 80.95"/><polygon class="cls-3" points="31 39.94 31.84 27.98 36.52 25.64 75.19 26.23 78.13 28.34 78.94 38.41 78.94 53.41 76.25 56.02 69.1 57.02 68.63 42.63 65.7 40.17 31 39.94"/><path class="cls-4" d="M280.38,231H242.24a5.94,5.94,0,0,0-5.93,5.93V245h-4.07a5.94,5.94,0,0,0-5.93,5.93v21.14a5.94,5.94,0,0,0,5.93,5.93h6.07v10a1,1,0,0,0,1.74.67l9.7-10.67h20.63a5.94,5.94,0,0,0,5.93-5.93V264h4.07a5.94,5.94,0,0,0,5.93-5.93V236.93A5.94,5.94,0,0,0,280.38,231Zm-6.07,41.07a3.93,3.93,0,0,1-3.93,3.93H249.31a1,1,0,0,0-.74.33l-8.26,9.09V277a1,1,0,0,0-1-1h-7.07a3.93,3.93,0,0,1-3.93-3.93V250.93a3.93,3.93,0,0,1,3.93-3.93h38.14a3.93,3.93,0,0,1,3.93,3.93v21.14Zm10-14a3.93,3.93,0,0,1-3.93,3.93h-4.07V250.93h0a5.94,5.94,0,0,0-4.17-5.66,5.69,5.69,0,0,0-.57-.15,5.88,5.88,0,0,0-1.19-.12H238.31v-8.07a3.93,3.93,0,0,1,3.93-3.93h38.14a3.93,3.93,0,0,1,3.93,3.93Z" transform="translate(-206.31 -206)"/><path class="cls-4" d="M238.31,257h14a1,1,0,0,0,0-2h-14a1,1,0,0,0,0,2Z" transform="translate(-206.31 -206)"/><path class="cls-4" d="M265.31,261h-27a1,1,0,0,0,0,2h27a1,1,0,0,0,0-2Z" transform="translate(-206.31 -206)"/><path class="cls-4" d="M265.31,267h-27a1,1,0,0,0,0,2h27a1,1,0,0,0,0-2Z" transform="translate(-206.31 -206)"/></svg>