<svg id="Layer_1" data-name="Layer 1" xmlns="http://www.w3.org/2000/svg" viewBox="0 0 100 100"><defs><style>.cls-1{fill:#fff;}.cls-2{fill:#edd8bc;}.cls-3{fill:#5e626d;}.cls-4{fill:#ff862c;}.cls-5{fill:#ffff29;}.cls-6{fill:#11113f;}</style></defs><title>create-template</title><circle class="cls-1" cx="50" cy="50" r="50"/><polyline class="cls-2" points="30.59 28.45 69.65 28.45 69.65 75.48 30.12 75.48"/><rect class="cls-3" x="60.35" y="25.71" width="4.53" height="4.38"/><rect class="cls-3" x="35.27" y="26.41" width="4.14" height="4.06"/><polygon class="cls-4" points="39.41 55.32 43.75 47.74 51.6 55.87 39.41 55.32"/><polygon class="cls-5" points="46.05 55.24 52.85 42.59 60.82 55.87 46.05 55.24"/><path class="cls-6" d="M263.62,248.39l-4.73,8.27a.59.59,0,0,1-1,0l-2-3.34a.59.59,0,0,0-1,0l-6.47,10.78a.59.59,0,0,0,.5.89h24.21a.59.59,0,0,0,.51-.88l-9-15.73A.59.59,0,0,0,263.62,248.39Zm-8.4,14.11h-1.89a.59.59,0,0,1-.5-.89l2-3.42a.59.59,0,0,1,1,0l.92,1.53a.59.59,0,0,1,0,.59l-1.08,1.89A.59.59,0,0,1,255.21,262.5Zm3.72-.88,4.68-8.19a.59.59,0,0,1,1,0l4.68,8.19a.59.59,0,0,1-.51.88h-9.36A.59.59,0,0,1,258.93,261.62Z" transform="translate(-211 -208)"/><path class="cls-6" d="M279.75,235h-1.91a.59.59,0,0,1-.59-.59v-1.33a.59.59,0,0,0-.59-.59h-1.33a.59.59,0,0,1-.59-.59v-6.33a.59.59,0,0,0-.59-.59h-1.33a.59.59,0,0,0-.59.59v6.33a.59.59,0,0,1-.59.59h-1.33a.59.59,0,0,0-.59.59v1.33a.59.59,0,0,1-.59.59H252.84a.59.59,0,0,1-.59-.59v-1.33a.59.59,0,0,0-.59-.59h-1.33a.59.59,0,0,1-.59-.59v-6.33a.59.59,0,0,0-.59-.59h-1.33a.59.59,0,0,0-.59.59v6.33a.59.59,0,0,1-.59.59h-1.33a.59.59,0,0,0-.59.59v1.33a.59.59,0,0,1-.59.59h-3.83a.59.59,0,0,0-.59.59v48.83a.59.59,0,0,0,.59.59h41.33a.59.59,0,0,0,.59-.59V235.59a.59.59,0,0,0-.59-.59Zm-6.91,0h1.33a.59.59,0,0,1,.59.59v1.33a.59.59,0,0,1-.59.59h-1.33a.59.59,0,0,1-.59-.59v-1.33A.59.59,0,0,1,272.84,235Zm-25,0h1.33a.59.59,0,0,1,.59.59v1.33a.59.59,0,0,1-.59.59h-1.33a.59.59,0,0,1-.59-.59v-1.33A.59.59,0,0,1,247.84,235Zm31.33,47.5H242.84a.59.59,0,0,1-.59-.59V238.09a.59.59,0,0,1,.59-.59h1.33a.59.59,0,0,1,.59.59v1.33a.59.59,0,0,0,.59.59h6.33a.59.59,0,0,0,.59-.59v-1.33a.59.59,0,0,1,.59-.59h16.33a.59.59,0,0,1,.59.59v1.33a.59.59,0,0,0,.59.59h6.33a.59.59,0,0,0,.59-.59v-1.33a.59.59,0,0,1,.59-.59h1.33a.59.59,0,0,1,.59.59v43.83A.59.59,0,0,1,279.16,282.5Z" transform="translate(-211 -208)"/><path class="cls-6" d="M266,275H256a1.25,1.25,0,0,0,0,2.5h10a1.25,1.25,0,0,0,0-2.5Z" transform="translate(-211 -208)"/><path class="cls-6" d="M271,270H251a1.25,1.25,0,1,0,0,2.5h20a1.25,1.25,0,0,0,0-2.5Z" transform="translate(-211 -208)"/></svg>