<svg id="Layer_1" data-name="Layer 1" xmlns="http://www.w3.org/2000/svg" viewBox="0 0 100 100"><defs><style>.cls-1{fill:#fff;}.cls-2{fill:#efefef;}.cls-3{fill:#97e545;}.cls-4{fill:#e8e043;}.cls-5{fill:#ea42b7;}.cls-6{fill:#dbb9ea;}.cls-7{fill:#11113f;}</style></defs><title>create-ad</title><circle class="cls-1" cx="50" cy="50" r="50"/><polygon class="cls-2" points="19.38 19.25 80.75 19.25 80.75 80.38 19.38 81 19.38 19.25"/><polygon class="cls-3" points="62.63 42.53 75.75 42.53 75.38 54.27 62.63 53.75 62.63 42.53"/><polygon class="cls-4" points="63.25 59.6 75.38 59.6 75.38 75.6 62.63 75.6 63.25 59.6"/><rect class="cls-5" x="24.4" y="42.53" width="17.73" height="17.07"/><polygon class="cls-6" points="24.4 24.75 75.38 24.75 75.38 36.75 24.4 37.5 24.4 24.75"/><path class="cls-7" d="M286.93,224H225.07a1,1,0,0,0-1.07,1.07v61.87a1,1,0,0,0,1.07,1.07h61.87a1,1,0,0,0,1.07-1.07V225.07A1,1,0,0,0,286.93,224Zm-1.07,61.87H226.13V226.13h59.73Z" transform="translate(-206 -206)"/><path class="cls-7" d="M230.4,244.27h51.2a1,1,0,0,0,1.07-1.07V230.4a1,1,0,0,0-1.07-1.07H230.4a1,1,0,0,0-1.07,1.07v12.8A1,1,0,0,0,230.4,244.27Zm1.07-12.8h49.07v10.67H231.47Z" transform="translate(-206 -206)"/><path class="cls-7" d="M281.6,247.47H268.8a1,1,0,0,0-1.07,1.07v11.73a1,1,0,0,0,1.07,1.07h12.8a1,1,0,0,0,1.07-1.07V248.53A1,1,0,0,0,281.6,247.47Zm-1.07,10.45-9.07-8.32h9.07ZM269.87,251l9,8.21h-9Z" transform="translate(-206 -206)"/><path class="cls-7" d="M281.6,264.53H268.8a1,1,0,0,0-1.07,1.07v16a1,1,0,0,0,1.07,1.07h12.8a1,1,0,0,0,1.07-1.07v-16A1,1,0,0,0,281.6,264.53Zm-2.24,2.13-9.49,11.95V266.67ZM271,280.53l9.49-11.84v11.84Z" transform="translate(-206 -206)"/><path class="cls-7" d="M230.4,266.67h18.13a1,1,0,0,0,1.07-1.07V248.53a1,1,0,0,0-1.07-1.07H230.4a1,1,0,0,0-1.07,1.07V265.6A1,1,0,0,0,230.4,266.67Zm2.77-2.13,14.29-13.44v13.44Zm12.69-14.93-14.4,13.55V249.6Z" transform="translate(-206 -206)"/><rect class="cls-7" x="46.8" y="41.47" width="10.67" height="2.13"/><rect class="cls-7" x="46.8" y="46.8" width="10.67" height="2.13"/><rect class="cls-7" x="46.8" y="52.13" width="10.67" height="2.13"/><rect class="cls-7" x="46.8" y="57.47" width="10.67" height="2.13"/><rect class="cls-7" x="24.4" y="63.87" width="33.07" height="2.13"/><rect class="cls-7" x="24.4" y="69.2" width="33.07" height="2.13"/><rect class="cls-7" x="24.4" y="74.53" width="33.07" height="2.13"/><rect class="cls-7" x="50" y="31.87" width="3.2" height="2.13"/><rect class="cls-7" x="55.33" y="31.87" width="3.2" height="2.13"/><rect class="cls-7" x="44.67" y="31.87" width="3.2" height="2.13"/></svg>