<svg id="Layer_1" data-name="Layer 1" xmlns="http://www.w3.org/2000/svg" viewBox="0 0 100 100"><defs><style>.cls-1{fill:#fff;}.cls-2{fill:#f2f2f2;}.cls-3{fill:#2298e0;}.cls-4{fill:#15ff74;}.cls-5{fill:#ffff12;}.cls-6{fill:#ff104f;}.cls-7{fill:#c1c1c6;}.cls-8{fill:#11113f;}</style></defs><title>create-page</title><circle class="cls-1" cx="50" cy="50" r="50"/><rect class="cls-2" x="18.98" y="30.38" width="61.49" height="47.58"/><rect class="cls-3" x="30.56" y="63.85" width="4.84" height="5.28"/><rect class="cls-3" x="30.56" y="54.17" width="4.84" height="5.53"/><polygon class="cls-4" points="59.13 21.93 68.14 22.3 68.14 30 58.63 30 59.13 21.93"/><rect class="cls-5" x="66.77" y="21.93" width="5.9" height="8.7"/><polygon class="cls-6" points="72.67 21.93 80.5 21.93 80.5 29.69 72.67 30 72.67 21.93"/><rect class="cls-7" x="19.26" y="21.93" width="39.38" height="8.07"/><path class="cls-8" d="M286.79,227H225.21a1,1,0,0,0-1,1V283.5a1,1,0,0,0,1,1h61.57a1,1,0,0,0,1-1V272.67a1,1,0,0,0-2,0v9.81H226.23V237.15h59.54V274.7c0,.56.51-1.74,1.07-1.74s1,1.77,1,1.21V228A1,1,0,0,0,286.79,227Zm-60.56,2h37.55v6.09H226.23Zm39.58,6.09V229h20v6.09Z" transform="translate(-206 -206)"/><path class="cls-8" d="M275.82,231a1.08,1.08,0,1,0,1.08,1.08A1.08,1.08,0,0,0,275.82,231Z" transform="translate(-206 -206)"/><path class="cls-8" d="M270.28,231a1.08,1.08,0,1,0,1.08,1.08A1.08,1.08,0,0,0,270.28,231Z" transform="translate(-206 -206)"/><path class="cls-8" d="M281.37,231a1.08,1.08,0,1,0,1.08,1.08A1.08,1.08,0,0,0,281.37,231Z" transform="translate(-206 -206)"/><path class="cls-8" d="M244.32,254.54a1,1,0,0,0,.85-.72L247.5,246a1,1,0,1,0-1.94-.58L243.89,251l-1.61-2.69a1,1,0,0,0-1.74,0L238.92,251l-1.67-5.59a1,1,0,1,0-1.94.58l2.33,7.79a1,1,0,0,0,.85.72h.13a1,1,0,0,0,.87-.49l1.93-3.21,1.93,3.21a1,1,0,0,0,1,.49Z" transform="translate(-206 -206)"/><path class="cls-8" d="M252.12,254.54h.13a1,1,0,0,0,.87-.49l1.93-3.21L257,254a1,1,0,0,0,1.84-.23l2.33-7.79a1,1,0,0,0-1.94-.58L257.53,251l-1.61-2.69a1,1,0,0,0-1.74,0L252.56,251l-1.67-5.59a1,1,0,1,0-1.94.58l2.33,7.79A1,1,0,0,0,252.12,254.54Z" transform="translate(-206 -206)"/><path class="cls-8" d="M274.11,244.76a1,1,0,0,0-1.26.68L271.18,251l-1.61-2.69a1,1,0,0,0-1.74,0L266.21,251l-1.67-5.59a1,1,0,0,0-1.94.58l2.33,7.79a1,1,0,0,0,1.84.23l1.93-3.21,1.93,3.21a1,1,0,0,0,.87.49h.13a1,1,0,0,0,.85-.72L274.8,246A1,1,0,0,0,274.11,244.76Z" transform="translate(-206 -206)"/><path class="cls-8" d="M242.7,260.29a1,1,0,0,0-1-1h-5.41a1,1,0,0,0-1,1v5.41a1,1,0,0,0,1,1h5.41a1,1,0,0,0,1-1Zm-2,4.4h-3.38v-3.38h3.38Z" transform="translate(-206 -206)"/><path class="cls-8" d="M241.68,268.75h-5.41a1,1,0,0,0-1,1v5.41a1,1,0,0,0,1,1h5.41a1,1,0,0,0,1-1v-5.41A1,1,0,0,0,241.68,268.75Zm-1,5.41h-3.38v-3.38h3.38Z" transform="translate(-206 -206)"/><path class="cls-8" d="M273.82,262h-4.06a1,1,0,0,0,0,2h4.06a1,1,0,0,0,0-2Z" transform="translate(-206 -206)"/><path class="cls-8" d="M265.7,262h-20a1,1,0,0,0,0,2h20a1,1,0,1,0,0-2Z" transform="translate(-206 -206)"/><path class="cls-8" d="M273.82,271.46h-4.06a1,1,0,0,0,0,2h4.06a1,1,0,0,0,0-2Z" transform="translate(-206 -206)"/><path class="cls-8" d="M265.7,271.46h-20a1,1,0,0,0,0,2h20a1,1,0,1,0,0-2Z" transform="translate(-206 -206)"/></svg>