<svg id="Layer_1" data-name="Layer 1" xmlns="http://www.w3.org/2000/svg" viewBox="0 0 100 100"><defs><style>.cls-1{fill:#fff;}.cls-2{fill:#64b573;}.cls-3{fill:#9fc95d;}.cls-4{fill:#b0dcf7;}.cls-5{fill:#9bd4ea;}.cls-6{fill:#11113f;}</style></defs><title>demography</title><circle class="cls-1" cx="50" cy="50" r="50"/><circle class="cls-2" cx="49.7" cy="58.17" r="3.33"/><path class="cls-2" d="M269.44,268.64a1.67,1.67,0,0,0-2.36.07l-4,4.25H258.4l-4-4.25A1.67,1.67,0,1,0,252,271l4.56,4.86v13.52a1.6,1.6,0,0,0,1.6,1.6h5.22a1.6,1.6,0,0,0,1.6-1.6V275.85l4.56-4.85A1.67,1.67,0,0,0,269.44,268.64Z" transform="translate(-211 -208)"/><circle class="cls-3" cx="28.94" cy="29.47" r="6.17"/><path class="cls-3" d="M243.2,246.56h-6.53a6.07,6.07,0,0,0-6.06,6.06v14.82a1.44,1.44,0,0,0,1.43,1.43h1.14c-.78,7.14-.83,6.83-.56,7.13s.36.22,2.42.22v13.32a1.44,1.44,0,0,0,1.43,1.43h2a1.44,1.44,0,0,0,1.27-.77h.32a1.44,1.44,0,0,0,1.27.77h2a1.44,1.44,0,0,0,1.43-1.43V276.22h1.93a.66.66,0,0,0,.65-.79l-.72-6.56h1.14a1.44,1.44,0,0,0,1.43-1.43V252.62A6.07,6.07,0,0,0,243.2,246.56Z" transform="translate(-211 -208)"/><path class="cls-4" d="M283.6,240.39h-7.43a6.9,6.9,0,0,0-6.9,6.9v16.88a1.63,1.63,0,0,0,1.63,1.63h3.41v23.54a1.63,1.63,0,0,0,1.63,1.63h2.31a1.63,1.63,0,0,0,1.63-1.63,1.63,1.63,0,0,0,1.63,1.63h2.31a1.63,1.63,0,0,0,1.63-1.63V265.8h3.41a1.63,1.63,0,0,0,1.63-1.63V247.29A6.9,6.9,0,0,0,283.6,240.39Z" transform="translate(-211 -208)"/><path class="cls-5" d="M276.06,241a6.87,6.87,0,0,1,2.75-.57h-2.75C276.05,241.07,276.05,240.72,276.06,241Z" transform="translate(-211 -208)"/><path class="cls-4" d="M279.88,237.58a6.17,6.17,0,1,0-6.17-6.17A6.17,6.17,0,0,0,279.88,237.58Z" transform="translate(-211 -208)"/><path class="cls-5" d="M279.33,226.1a6.14,6.14,0,0,1,1.85-.73,6.09,6.09,0,0,0-1.43-.14C279.61,225.52,279.47,225.81,279.33,226.1Z" transform="translate(-211 -208)"/><path class="cls-5" d="M281.18,237.44a6.19,6.19,0,0,1-4.41-3.68c-.24,1.16-.45,2.57-.45,2.7A6.24,6.24,0,0,0,281.18,237.44Z" transform="translate(-211 -208)"/><path class="cls-6" d="M260.73,270.45a4.34,4.34,0,1,0-4.34-4.34A4.35,4.35,0,0,0,260.73,270.45Zm0-6.69a2.35,2.35,0,1,1-2.35,2.35A2.35,2.35,0,0,1,260.73,263.75Z" transform="translate(-211 -208)"/><path class="cls-6" d="M280,238.39a7.19,7.19,0,1,0-7.19-7.19A7.2,7.2,0,0,0,280,238.39Zm0-12.4a5.2,5.2,0,1,1-5.2,5.2A5.21,5.21,0,0,1,280,226Z" transform="translate(-211 -208)"/><path class="cls-6" d="M290.65,249.46a1,1,0,0,0-1,1v13.63a.64.64,0,0,1-.64.64h-2.43V247.15a1,1,0,0,0-2,0v42.21a.64.64,0,0,1-.64.64h-2.32a.64.64,0,0,1-.64-.64V273.52a1,1,0,0,0-2,0v15.85a.64.64,0,0,1-.64.64H276a.64.64,0,0,1-.64-.64V247.15a1,1,0,0,0-2,0v17.58H271a.64.64,0,0,1-.64-.64V247.15a5.94,5.94,0,0,1,5.93-5.93h7.46a5.94,5.94,0,0,1,5.93,5.93c0,.36,0,4.1,0,4.1s.83,1,1,1,1-.85,1-.85v-4.23a7.93,7.93,0,0,0-7.93-7.93h-7.46a7.93,7.93,0,0,0-7.93,7.93v16.94a2.64,2.64,0,0,0,2.64,2.63h2.43v22.64A2.64,2.64,0,0,0,276,292h2.32a2.62,2.62,0,0,0,1.64-.58,2.62,2.62,0,0,0,1.64.58h2.32a2.64,2.64,0,0,0,2.64-2.64V266.73H289a2.64,2.64,0,0,0,2.64-2.64V250.46A1,1,0,0,0,290.65,249.46Z" transform="translate(-211 -208)"/><path class="cls-6" d="M239.89,244.48a7.19,7.19,0,1,0-7.19-7.19A7.2,7.2,0,0,0,239.89,244.48Zm0-12.4a5.2,5.2,0,1,1-5.2,5.2A5.21,5.21,0,0,1,239.89,232.08Z" transform="translate(-211 -208)"/><path class="cls-6" d="M243.17,245.41h-6.55a7.09,7.09,0,0,0-7.08,7.08v14.88a2.44,2.44,0,0,0,2.44,2.43h0l-.69,6.28a1,1,0,0,0,1,1.1H234v12.38a2.44,2.44,0,0,0,2.44,2.44h2a2.42,2.42,0,0,0,1.44-.48,2.42,2.42,0,0,0,1.44.48h2a2.44,2.44,0,0,0,2.44-2.44v-5.5a1,1,0,0,0-2,0v5.5a.44.44,0,0,1-.44.44h-2a.44.44,0,0,1-.44-.44V278.92a1,1,0,0,0-2,0v10.64a.44.44,0,0,1-.44.44h-2a.44.44,0,0,1-.44-.44V277.19h7.83V285c0,.55.38-.86.93-.86s1.06,1.63,1.06,1.08v-8h1.68a1,1,0,0,0,1-1.1l-.69-6.28h0a2.44,2.44,0,0,0,2.44-2.44V252.5A7.09,7.09,0,0,0,243.17,245.41Zm5.09,22a.44.44,0,0,1-.44.44h-.25l-1.82-16.6a1,1,0,0,0-2,.22l2.61,23.76h-13L236,251.44a1,1,0,0,0-2-.22l-1.82,16.6H232a.44.44,0,0,1-.44-.44V252.5a5.09,5.09,0,0,1,5.09-5.09h6.55a5.09,5.09,0,0,1,5.09,5.09v14.88Z" transform="translate(-211 -208)"/><path class="cls-6" d="M268.28,267.13a2.65,2.65,0,0,0-1.86.84l-3.71,4h-3.85l-3.72-4a2.67,2.67,0,0,0-3.89,3.66l4.31,4.59V289.4a2.61,2.61,0,0,0,2.6,2.6h5.24a2.61,2.61,0,0,0,2.6-2.6v-5.47a1,1,0,0,0-2,0v5.47a.61.61,0,0,1-.61.61h-1.67V281.7a1,1,0,0,0-2,0V290h-1.58a.61.61,0,0,1-.61-.61V275.82a1,1,0,0,0-.27-.68l-4.58-4.87a.68.68,0,1,1,1-.93l4,4.27a1,1,0,0,0,.73.31h4.71a1,1,0,0,0,.73-.31l4-4.27a.68.68,0,1,1,1,.93l-4.58,4.87a1,1,0,0,0-.27.68l0,8.92c0,.55.33-.62.88-.62s1.1,1.06,1.1.51v-8.41l4.31-4.59a2.67,2.67,0,0,0-2-4.5Z" transform="translate(-211 -208)"/></svg>