<svg xmlns="http://www.w3.org/2000/svg" viewBox="0 0 100 100"><defs><style>.cls-1{fill:#fff;}.cls-2{fill:#f4f4e6;}.cls-3{fill:#469dd3;}.cls-4{fill:#c43db8;}.cls-5{fill:#e2d7ac;}.cls-6{fill:#f95074;}.cls-7{fill:#fcd63a;}.cls-8{fill:#11113f;}</style></defs><title>Asset 5</title><g id="Layer_2" data-name="Layer 2"><g id="Layer_1-2" data-name="Layer 1"><circle class="cls-1" cx="50" cy="50" r="50"/><rect class="cls-2" x="23.5" y="20.37" width="48.5" height="60.75"/><rect class="cls-3" x="50.88" y="49.97" width="5.19" height="5.19"/><rect class="cls-3" x="50.88" y="60.37" width="5.19" height="5.19"/><rect class="cls-3" x="32.5" y="60.37" width="5.25" height="5.25"/><rect class="cls-3" x="32.5" y="49.97" width="5.25" height="5.16"/><circle class="cls-4" cx="35.42" cy="32.42" r="4.67"/><polygon class="cls-5" points="53.48 74 56.07 67.12 59.75 71.64 53.48 74"/><polygon class="cls-6" points="56.07 67.12 76.13 47.75 79.75 52.03 60.38 71.64 56.07 67.12"/><polygon class="cls-7" points="76.13 47.75 81.38 42.74 83.88 43.25 85 46.38 79.81 50.57 76.13 47.75"/><path class="cls-8" d="M82,41.71a3.93,3.93,0,0,0-2.79,1.16l-5.64,5.64V35.42a9.73,9.73,0,0,1,1,4.23h2.06c0-3.67,3.7-9.29,8.26-9.29V28.29c-5,0-8.26-3.24-8.26-8.26H74.65a8.34,8.34,0,0,1-1,4v-2a3.1,3.1,0,0,0-3.1-3.1H25.1A3.1,3.1,0,0,0,22,22.1V79.9A3.1,3.1,0,0,0,25.1,83H70.52a3.1,3.1,0,0,0,3.1-3.1V59.68L84.84,48.46A4,4,0,0,0,82,41.71Zm-6.45-17a9.15,9.15,0,0,0,5,4.79,13,13,0,0,0-4.82,5.55,11.59,11.59,0,0,0-5-5.67A10.12,10.12,0,0,0,75.6,24.76ZM71.55,79.9h0a1,1,0,0,1-1,1H25.1a1,1,0,0,1-1-1V22.1a1,1,0,0,1,1-1H70.52a1,1,0,0,1,1,1v4.42a8.26,8.26,0,0,1-5.16,1.77v2.06a7.45,7.45,0,0,1,5.16,2.22v18L57.1,65V59.26H49.87v7.23h5.77l-.3.3-.14.14L51,76.71l9.78-4.19L71.55,61.75V79.9ZM58.39,71.3l-3.45,1.48,1.48-3.45ZM55,61.32v3.1h-3.1v-3.1Zm5.16,8.86-2.67-2.67L75.68,49.36,78.35,52ZM83.38,47l-3.58,3.58L77.14,47.9l3.58-3.58a1.89,1.89,0,0,1,3.22,1.33A1.9,1.9,0,0,1,83.38,47Z"/><path class="cls-8" d="M35.42,38.61a6.19,6.19,0,1,0-6.19-6.19A6.2,6.2,0,0,0,35.42,38.61Zm0-10.32a4.13,4.13,0,1,1-4.13,4.13A4.13,4.13,0,0,1,35.42,28.29Z"/><rect class="cls-8" x="30.26" y="40.68" width="8.26" height="2.06"/><path class="cls-8" d="M38.52,48.93H31.29v7.23h7.23V48.93ZM36.45,54.1h-3.1V51h3.1Z"/><path class="cls-8" d="M31.29,66.48h7.23V59.26H31.29Zm2.06-5.16h3.1v3.1h-3.1Z"/><path class="cls-8" d="M57.1,48.94H49.87v7.23H57.1V48.94ZM55,54.1h-3.1V51H55Z"/><rect class="cls-8" x="48.84" y="29.32" width="14.45" height="2.06"/><rect class="cls-8" x="48.84" y="35.52" width="18.58" height="2.06"/><rect class="cls-8" x="48.84" y="41.71" width="18.58" height="2.06"/><rect class="cls-8" x="40.58" y="49.97" width="5.16" height="2.06"/><rect class="cls-8" x="40.58" y="54.1" width="5.16" height="2.06"/><rect class="cls-8" x="59.16" y="49.97" width="5.16" height="2.06"/><rect class="cls-8" x="59.16" y="54.1" width="5.16" height="2.06"/><rect class="cls-8" x="40.58" y="62.35" width="5.16" height="2.06"/><rect class="cls-8" x="31.29" y="70.61" width="18.58" height="2.06"/><rect class="cls-8" x="31.29" y="74.74" width="18.58" height="2.06"/><rect class="cls-8" x="40.58" y="40.68" width="2.06" height="2.06"/><rect class="cls-8" x="67.42" y="76.81" width="2.06" height="2.06"/><rect class="cls-8" x="63.29" y="76.81" width="2.06" height="2.06"/><rect class="cls-8" x="26.13" y="76.81" width="2.06" height="2.06"/></g></g></svg>