<svg id="Layer_1" data-name="Layer 1" xmlns="http://www.w3.org/2000/svg" viewBox="0 0 100 100"><defs><style>.cls-1{fill:#fff;}.cls-2{fill:#abafb2;}.cls-3{fill:#2d2d44;}.cls-4{fill:#cbcfd3;}.cls-5{fill:#11113f;}</style></defs><title>desktop</title><circle class="cls-1" cx="50" cy="50" r="50"/><rect class="cls-2" x="42.79" y="70.42" width="14.92" height="8.33"/><rect class="cls-3" x="21.04" y="30.64" width="57.93" height="29.96"/><rect class="cls-4" x="21.04" y="22.31" width="58.3" height="9.32"/><rect class="cls-4" x="19.92" y="60.22" width="59.42" height="8.83"/><path class="cls-5" d="M287.29,229H234.71a5.54,5.54,0,0,0-5.53,5.53v39.37a5.54,5.54,0,0,0,5.53,5.54h17.17v6h-6.61a2.07,2.07,0,0,0,0,4.14h31.46a2.07,2.07,0,0,0,0-4.14h-6.61v-6h17.17a5.54,5.54,0,0,0,5.54-5.54V234.53A5.54,5.54,0,0,0,287.29,229Zm-54,12.58h55.35v25.29H233.32Zm1.39-8.43h52.58a1.39,1.39,0,0,1,1.39,1.39v2.9H233.32v-2.9A1.39,1.39,0,0,1,234.71,233.14ZM266,285.4H256v-6H266Zm21.31-10.1H234.71a1.39,1.39,0,0,1-1.39-1.39V271h55.35v2.9A1.39,1.39,0,0,1,287.29,275.3Z" transform="translate(-211 -208)"/></svg>