<svg id="Layer_1" data-name="Layer 1" xmlns="http://www.w3.org/2000/svg" viewBox="0 0 100 100"><defs><style>.cls-1{fill:#fff;}.cls-2{fill:#abafb2;}.cls-3{fill:#2d2d44;}.cls-4{fill:#cbcfd3;}.cls-5{fill:#11113f;}</style></defs><title>desktop-smartphone</title><circle class="cls-1" cx="50" cy="50" r="50"/><rect class="cls-2" x="41.95" y="66.37" width="14.3" height="7.98"/><rect class="cls-3" x="21.09" y="28.24" width="55.53" height="28.72"/><rect class="cls-4" x="21.09" y="20.26" width="55.89" height="8.94"/><rect class="cls-4" x="20.02" y="56.6" width="56.96" height="8.46"/><path class="cls-5" d="M285.06,227h-50.4a5.31,5.31,0,0,0-5.3,5.3v37.75a5.31,5.31,0,0,0,5.3,5.31h16.46v5.71h-6.34a2,2,0,0,0,0,4h30.16a2,2,0,0,0,0-4H268.6v-5.71h16.46a5.31,5.31,0,0,0,5.31-5.31V232.3A5.31,5.31,0,0,0,285.06,227Zm-51.73,12.06h53.07V263.3H233.33Zm1.33-8.08h50.4a1.33,1.33,0,0,1,1.33,1.33v2.78H233.33V232.3A1.33,1.33,0,0,1,234.66,231Zm30,50.1h-9.54v-5.71h9.54Zm20.43-9.69h-50.4a1.33,1.33,0,0,1-1.33-1.33v-2.78h53.07v2.78A1.34,1.34,0,0,1,285.06,271.39Z" transform="translate(-211 -208)"/><rect class="cls-3" x="66.19" y="56.32" width="16.23" height="18.43"/><rect class="cls-4" x="66.19" y="74.81" width="16.23" height="6.18"/><rect class="cls-4" x="66.19" y="52.33" width="16.23" height="3.69"/><path class="cls-5" d="M294.5,287.63V261.92a2.37,2.37,0,0,0-2.36-2.36H278.54a2.37,2.37,0,0,0-2.36,2.36v25.71a2.37,2.37,0,0,0,2.36,2.36h13.61A2.38,2.38,0,0,0,294.5,287.63ZM277.7,265H293v17.3H277.7Zm.84-4h13.61a.84.84,0,0,1,.84.84v1.59H277.7v-1.59A.84.84,0,0,1,278.54,261.09Zm-.84,26.55v-3.77H293v3.77a.84.84,0,0,1-.84.84h-13.6A.84.84,0,0,1,277.7,287.63Z" transform="translate(-211 -208)"/><path class="cls-5" d="M286.88,285.47h-3.09a.76.76,0,1,0,0,1.53h3.09a.76.76,0,1,0,0-1.53Z" transform="translate(-211 -208)"/></svg>