<svg id="Layer_1" data-name="Layer 1" xmlns="http://www.w3.org/2000/svg" viewBox="0 0 100 100"><defs><style>.cls-1{fill:#fff;}.cls-2{fill:#ef5085;}.cls-3{fill:#302b1f;}.cls-4{fill:#b2a88a;}.cls-5{fill:#171c3a;}.cls-6{fill:#e28014;}.cls-7{fill:#fff5dc;}.cls-8{fill:#72c1dd;}</style></defs><title>dialog</title><circle class="cls-1" cx="50" cy="50" r="50"/><polygon class="cls-2" points="66.5 65.53 68.38 66.37 70.63 65.53 71.59 75.78 68.38 78.88 64.82 76.23 66.5 65.53"/><polygon class="cls-3" points="58.9 40.91 60.83 38.85 71.4 37.75 76.3 40.07 78.23 45.04 78.23 53.16 58.9 53.16 58.9 40.91"/><polygon class="cls-4" points="62.31 47.23 61.67 50.65 60.18 54.13 61.25 57.86 65.73 60.83 64.69 63.99 68.38 66.37 72.04 63.99 71.59 60.76 74.17 59.14 76.3 55.22 74.69 46.71 62.31 47.23"/><polygon class="cls-5" points="75.78 63.99 80.94 63.99 81.71 81.97 72.36 81.97 75.78 63.99"/><polygon class="cls-5" points="61.41 63.99 56.96 64.5 55.48 67.08 55.48 81.39 63.92 81.97 61.41 63.99"/><polygon class="cls-6" points="23.06 63.47 19.32 59.14 18.42 50.45 22.09 40.46 29.95 36.85 37.24 37.56 43.43 42.52 46.84 51.87 46.2 58.51 42.78 62.63 38.14 63.47 32.53 65.86 27.76 63.99 23.06 63.47"/><polygon class="cls-7" points="25.12 46.71 30.28 48.9 39.62 49.42 40.07 56.19 35.76 60.18 36.14 63.53 32.6 65.53 28.86 63.99 29.83 60.63 26.15 58.06 25.12 54 25.12 46.71"/><polygon class="cls-8" points="20.22 65.98 22.48 64.5 24.99 63.99 25.51 67.4 28.99 69.72 37.3 69.72 39.3 67.4 39.3 63.99 43.04 64.44 44.84 67.92 44.84 81.71 20.22 81.97 20.22 65.98"/><path d="M249.67,246.77a13.77,13.77,0,0,0-11.34-5.5h0A13.77,13.77,0,0,0,227,246.77c-2.61,3.41-4,8.14-4,13.67v.09a11.67,11.67,0,0,0,3.82,8.71,5.23,5.23,0,0,0-2.18,4.25v14.23a1.29,1.29,0,0,0,1.29,1.29h24.81a1.29,1.29,0,0,0,1.29-1.29V273.48a5.23,5.23,0,0,0-2.18-4.25,11.67,11.67,0,0,0,3.82-8.71v-.09h0C253.67,254.91,252.29,250.18,249.67,246.77Zm-22.45,39.65V273.48a2.66,2.66,0,0,1,2.39-2.65h.61a4.24,4.24,0,0,0-.07.78,5.94,5.94,0,0,0,2.68,4.83,5.12,5.12,0,0,0,4.22.42v2.81a1.29,1.29,0,0,0,2.58,0v-2.81a6.58,6.58,0,0,0,1.78.26,4.48,4.48,0,0,0,2.44-.69h0a5.94,5.94,0,0,0,2.68-4.83,4.24,4.24,0,0,0-.07-.78h.61a2.66,2.66,0,0,1,2.39,2.65v12.94Zm13.48-21.33a1.29,1.29,0,0,0-.79,1.45l.46,2.37-2,1.33-2-1.33.46-2.37a1.29,1.29,0,0,0-.79-1.45,6.44,6.44,0,0,1-4.11-6v-4.57a17.72,17.72,0,0,0,4,1.61,16.91,16.91,0,0,0,4.3.56h4.62v2.4a6.58,6.58,0,0,1-.12,1.23q0,.24-.11.47l-.07.23q-.07.23-.16.45a6.43,6.43,0,0,1-3.66,3.64Zm1.54,5.73h1.3l.1,0,.12.06c.08,0,.19.27.19.67a3.37,3.37,0,0,1-1.49,2.65,3.12,3.12,0,0,1-2.84-.13v-1.64l2.29-1.49h0l.13-.08.06,0Zm-7.69,0,.06,0,.16.09,2.29,1.49v1.64a3.12,3.12,0,0,1-2.84.13,3.37,3.37,0,0,1-1.49-2.65c0-.4.11-.62.18-.66l.12-.07.11,0h1.3Zm12.34-2.62h-4l-.24-1.21a9,9,0,0,0,4.76-8v-3.69a1.29,1.29,0,0,0-1.29-1.29h-5.91a14.75,14.75,0,0,1-8.78-3,1.29,1.29,0,0,0-2.13,1v7a9,9,0,0,0,4.76,8l-.24,1.21h-4a9,9,0,0,1-4.2-7.72v-.09c0-5,1.2-9.14,3.47-12.11a11.27,11.27,0,0,1,9.29-4.48h0c7.75,0,12.76,6.51,12.76,16.59v.09h0A9,9,0,0,1,246.89,268.25Z" transform="translate(-206 -206)"/><path d="M239.6,283.74a1.3,1.3,0,0,0-.07-.24,1.27,1.27,0,0,0-.12-.22,1.23,1.23,0,0,0-.16-.2,1.29,1.29,0,0,0-.2-.16l-.22-.12-.24-.07a1.28,1.28,0,0,0-.5,0l-.24.07-.22.12a1.36,1.36,0,0,0-.2.16,1.31,1.31,0,0,0-.16.2,1.27,1.27,0,0,0-.12.22,1.3,1.3,0,0,0-.07.24,1.27,1.27,0,0,0,0,.25,1.29,1.29,0,0,0,0,.25,1.36,1.36,0,0,0,.07.24,1.31,1.31,0,0,0,.28.42l.2.16.22.12.24.07.25,0,.25,0,.24-.07.22-.12a1.39,1.39,0,0,0,.2-.16,1.23,1.23,0,0,0,.16-.2,1.31,1.31,0,0,0,.12-.22,1.36,1.36,0,0,0,.07-.24,1.29,1.29,0,0,0,0-.25A1.27,1.27,0,0,0,239.6,283.74Z" transform="translate(-206 -206)"/><path d="M287.73,269.8a3.93,3.93,0,0,0-2.9-1.09h-5.62l-.32-1.23a9.43,9.43,0,0,0,4.88-7,1.29,1.29,0,0,0,1.14-1.2l.5-8.06s0-.05,0-.08v-.47q0-.14,0-.28a8,8,0,0,0-2.77-5.83,8.36,8.36,0,0,0-6.3-2h0c-.05,0-5.5.68-8.88.87-.85,0-2.42.47-3.37,2.78a11.28,11.28,0,0,0-.74,4.13v1.75s0,.06,0,.09l.5,7.14a1.29,1.29,0,0,0,1.14,1.19,9.43,9.43,0,0,0,4.88,7l-.32,1.23h-5.62a3.93,3.93,0,0,0-2.9,1.09,4.1,4.1,0,0,0-1.27,3v14.95A1.29,1.29,0,0,0,261,289h26.67a1.29,1.29,0,0,0,1.29-1.29V272.76A4.1,4.1,0,0,0,287.73,269.8Zm-20.59-16.59a9,9,0,0,1-.75,3.8h0l-.12.2-.36-5.17v-1.7h0c0-2,.64-4.28,1.67-4.34,3.4-.19,8.63-.83,9-.88a5.77,5.77,0,0,1,4.34,1.4,5.48,5.48,0,0,1,1.89,4q0,.1,0,.2v.43l-.35,5.65v0l0-.18v0a17.59,17.59,0,0,1-.34-2.39v0a12.41,12.41,0,0,0-.34-2.25,1.3,1.3,0,0,0-1.3-.92l-.25,0L280,251l-1.21.3a17.63,17.63,0,0,1-7.63.18q-.54-.11-1.07-.25l-1.28-.34a1.29,1.29,0,0,0-1,.14l-.12.08a1.29,1.29,0,0,0-.5,1v1Zm.33,6.5.16-.14h0l.13-.12.05-.05.09-.09.11-.12,0,0a4.82,4.82,0,0,0,.29-.38l0-.05.09-.14.05-.09.05-.09a9.84,9.84,0,0,0,1.12-4.53l.56.13h0l.58.11h0q.57.1,1.14.17h.07l.49.05h.12l.37,0,.23,0h.18a20.18,20.18,0,0,0,5.86-.56l.1,0,.05.53c0,.33.06.68.1,1v.06l0,.32v.07l0,.24,0,.12,0,.27,0,.16,0,.13a5.76,5.76,0,0,0,1.08,2.52l.05.06.12.13.2.2h0a6.88,6.88,0,0,1-4.38,5.91,1.29,1.29,0,0,0-.78,1.53l.61,2.33-.87.57h0l-1.5,1L272,269.43l.61-2.33a1.29,1.29,0,0,0-.78-1.53A6.88,6.88,0,0,1,267.48,259.7Zm-5.14,26.72V272.76a1.49,1.49,0,0,1,.46-1.1,1.37,1.37,0,0,1,1-.38h2.67l2.26,15.13Zm7.79-8.28-1-6.85h1.06l.65.43Zm1.23,8.28-.33-2.21,2.16,2.21Zm1-4.58.92-8.54.44.29.17.09a1.29,1.29,0,0,0,1.25-.09l.44-.29.92,8.54L274.38,284Zm5.09,4.58h-1.83l2.16-2.21Zm1.23-8.28-.69-6.42.65-.43h1.06Zm7.79,8.28H280l2.26-15.13h2.67a1.37,1.37,0,0,1,1,.38,1.49,1.49,0,0,1,.46,1.1Z" transform="translate(-206 -206)"/><path d="M270.44,223H241.56a1.29,1.29,0,0,0-1.29,1.29v15a1.29,1.29,0,0,0,1.29,1.29h10.11l3.29,4.54a1.29,1.29,0,0,0,2.09,0l3.29-4.54h10.11a1.29,1.29,0,0,0,1.29-1.29v-15A1.29,1.29,0,0,0,270.44,223Zm-1.29,15h-9.48a1.29,1.29,0,0,0-1,.53L256,242.11l-2.63-3.63a1.29,1.29,0,0,0-1-.53h-9.48V225.58h26.3Z" transform="translate(-206 -206)"/><path d="M267.7,228.85a1.3,1.3,0,0,0-.07-.24,1.32,1.32,0,0,0-.12-.22,1.25,1.25,0,0,0-.36-.36l-.22-.12-.24-.07a1.28,1.28,0,0,0-.5,0l-.24.07-.22.12a1.28,1.28,0,0,0-.19.16,1.3,1.3,0,0,0-.16.2,1.32,1.32,0,0,0-.12.22,1.3,1.3,0,0,0-.07.24,1.27,1.27,0,0,0,0,.25,1.29,1.29,0,0,0,0,.25,1.36,1.36,0,0,0,.07.24,1.31,1.31,0,0,0,.12.22,1.24,1.24,0,0,0,.16.2,1.29,1.29,0,0,0,.19.16l.22.12.24.07.25,0,.25,0,.24-.07.22-.12a1.3,1.3,0,0,0,.2-.16,1.23,1.23,0,0,0,.16-.2,1.31,1.31,0,0,0,.12-.22,1.36,1.36,0,0,0,.07-.24,1.29,1.29,0,0,0,0-.25A1.27,1.27,0,0,0,267.7,228.85Z" transform="translate(-206 -206)"/><path d="M261.63,227.81H245.56a1.29,1.29,0,0,0,0,2.58h16.06a1.29,1.29,0,0,0,0-2.58Z" transform="translate(-206 -206)"/><path d="M246.87,233.71a1.33,1.33,0,0,0-.07-.24,1.31,1.31,0,0,0-.12-.22,1.24,1.24,0,0,0-.16-.2,1.29,1.29,0,0,0-.19-.16l-.22-.12-.24-.07a1.28,1.28,0,0,0-.5,0l-.24.07-.22.12a1.3,1.3,0,0,0-.2.16,1.23,1.23,0,0,0-.16.2,1.31,1.31,0,0,0-.12.22,1.33,1.33,0,0,0-.07.24,1.24,1.24,0,0,0,0,.5,1.3,1.3,0,0,0,.07.24,1.32,1.32,0,0,0,.12.22,1.25,1.25,0,0,0,.36.36l.22.12.24.07.25,0,.25,0,.24-.07.22-.12a1.28,1.28,0,0,0,.19-.16,1.3,1.3,0,0,0,.16-.2,1.32,1.32,0,0,0,.12-.22,1.3,1.3,0,0,0,.07-.24,1.27,1.27,0,0,0,0-.25A1.28,1.28,0,0,0,246.87,233.71Z" transform="translate(-206 -206)"/><path d="M266.39,232.67h-16a1.29,1.29,0,1,0,0,2.58h16a1.29,1.29,0,0,0,0-2.58Z" transform="translate(-206 -206)"/></svg>