<svg id="Layer_1" data-name="Layer 1" xmlns="http://www.w3.org/2000/svg" viewBox="0 0 20 20"><defs><style>.cls-1{fill:#fff;}</style></defs><title>earth-white</title><path class="cls-1" d="M271,257.33a10,10,0,0,0-9.31-9.31v0h-1.33v0a10,10,0,0,0-9.31,9.31h0v1.33h0a10,10,0,0,0,9.31,9.31v0h1.33v0a10,10,0,0,0,9.31-9.31h0v-1.33Zm-13.72-7.15a10.6,10.6,0,0,0-1.57,3.15h-2A8.71,8.71,0,0,1,257.26,250.18ZM253,254.67h2.34a15.83,15.83,0,0,0-.33,2.67h-2.65A8.59,8.59,0,0,1,253,254.67Zm-.64,4H255a15.83,15.83,0,0,0,.33,2.67H253A8.59,8.59,0,0,1,252.36,258.67Zm1.34,4h2a10.57,10.57,0,0,0,1.57,3.15A8.7,8.7,0,0,1,253.69,262.67Zm6.64,3.91c-1.37-.37-2.55-1.84-3.27-3.91h3.27Zm0-5.25h-3.64a14.9,14.9,0,0,1-.35-2.67h4Zm0-4h-4a14.9,14.9,0,0,1,.35-2.67h3.64Zm0-4h-3.27c.72-2.08,1.9-3.55,3.27-3.91Zm8,0h-2a10.57,10.57,0,0,0-1.57-3.15A8.72,8.72,0,0,1,268.31,253.33Zm-6.64-3.91c1.37.37,2.55,1.84,3.27,3.91h-3.27Zm0,5.25h3.64a15,15,0,0,1,.35,2.67h-4Zm0,4h4a14.78,14.78,0,0,1-.35,2.67h-3.64Zm0,7.91v-3.91h3.27C264.22,264.74,263,266.21,261.67,266.58Zm3.07-.76a10.65,10.65,0,0,0,1.57-3.15h2A8.71,8.71,0,0,1,264.74,265.82Zm4.26-4.49h-2.34a15.83,15.83,0,0,0,.33-2.67h2.65A8.55,8.55,0,0,1,269,261.33Zm-2-4a15.83,15.83,0,0,0-.33-2.67H269a8.59,8.59,0,0,1,.64,2.67Z" transform="translate(-251 -248)"/></svg>