<svg id="Layer_1" data-name="Layer 1" xmlns="http://www.w3.org/2000/svg" xmlns:xlink="http://www.w3.org/1999/xlink" viewBox="0 0 22 22"><defs><style>.cls-1,.cls-3,.cls-4{stroke-linecap:round;stroke-linejoin:round;}.cls-1{fill:url(#linear-gradient);stroke:url(#linear-gradient-2);}.cls-2{fill:#f56c3f;}.cls-3,.cls-4{fill:none;}.cls-3{stroke:#7b3b00;}.cls-4{stroke:#000;}</style><linearGradient id="linear-gradient" x1="11" y1="21.5" x2="11" y2="0.5" gradientUnits="userSpaceOnUse"><stop offset="0" stop-color="#f59651"/><stop offset="0.44" stop-color="#f9bb7b"/><stop offset="1" stop-color="#ffeeb5"/></linearGradient><linearGradient id="linear-gradient-2" x1="11" y1="22" x2="11" gradientUnits="userSpaceOnUse"><stop offset="0" stop-color="#c87943"/><stop offset="0.79" stop-color="#e8a25f"/><stop offset="1" stop-color="#f1ae67"/></linearGradient></defs><title>emoji-shy</title><rect class="cls-1" x="0.5" y="0.5" width="21" height="21" rx="9" ry="9"/><circle class="cls-2" cx="4.5" cy="13.5" r="2"/><circle class="cls-2" cx="17.5" cy="13.5" r="2"/><path class="cls-3" d="M22.5,27.5c1,3,4,3,5,0" transform="translate(-14 -13.5)"/><polyline class="cls-3" points="5.5 9.5 7.5 10.5 5.5 12.5"/><polyline class="cls-4" points="16.5 9.5 14.5 10.5 16.5 12.5"/><path class="cls-3" d="M19.5,21c0-1,1-1,2-1" transform="translate(-14 -13.5)"/><polyline class="cls-3" points="16.5 9.5 14.5 10.5 16.5 12.5"/><path class="cls-3" d="M30.5,21c0-1-1-1-2-1" transform="translate(-14 -13.5)"/></svg>