<svg id="Layer_1" data-name="Layer 1" xmlns="http://www.w3.org/2000/svg" xmlns:xlink="http://www.w3.org/1999/xlink" viewBox="0 0 22 22"><defs><style>.cls-1,.cls-2,.cls-3{stroke-linecap:round;stroke-linejoin:round;}.cls-1{fill:url(#linear-gradient);stroke:url(#linear-gradient-2);}.cls-2{fill:url(#radial-gradient);stroke:url(#linear-gradient-3);}.cls-3{fill:none;stroke:#7b3b00;}.cls-4{fill:#f98a57;}</style><linearGradient id="linear-gradient" x1="11" y1="21.5" x2="11" y2="0.5" gradientUnits="userSpaceOnUse"><stop offset="0" stop-color="#f59651"/><stop offset="0.44" stop-color="#f9bb7b"/><stop offset="1" stop-color="#ffeeb5"/></linearGradient><linearGradient id="linear-gradient-2" x1="11" y1="22" x2="11" gradientUnits="userSpaceOnUse"><stop offset="0" stop-color="#c87943"/><stop offset="0.79" stop-color="#e8a25f"/><stop offset="1" stop-color="#f1ae67"/></linearGradient><radialGradient id="radial-gradient" cx="25.24" cy="28.68" r="5.09" gradientTransform="translate(0 -28.68) scale(1 2)" gradientUnits="userSpaceOnUse"><stop offset="0" stop-color="#fff"/><stop offset="1" stop-color="#ccc"/></radialGradient><linearGradient id="linear-gradient-3" x1="18.07" y1="28.68" x2="32.42" y2="28.68" gradientUnits="userSpaceOnUse"><stop offset="0" stop-color="#7b3b00"/><stop offset="0.16" stop-color="#bf9672"/><stop offset="0.2" stop-color="#c49b77" stop-opacity="0.77"/><stop offset="0.29" stop-color="#d0a783" stop-opacity="0.3"/><stop offset="0.53" stop-color="#ffdcb8" stop-opacity="0.2"/><stop offset="0.75" stop-color="#d0a783" stop-opacity="0.3"/><stop offset="0.79" stop-color="#cba27e" stop-opacity="0.53"/><stop offset="0.86" stop-color="#bf9672"/><stop offset="0.91" stop-color="#a67548"/><stop offset="1" stop-color="#7b3b00"/></linearGradient></defs><title>emoji</title><rect class="cls-1" x="0.5" y="0.5" width="21" height="21" rx="9" ry="9"/><path class="cls-2" d="M18.91,26.36c1.52-1.31,1.64,2,5.95,2,4.8.05,5.6-3.54,6.87-2,1,1.2-1.92,5-6.84,5C20.34,31.37,17.55,27.54,18.91,26.36Z" transform="translate(-14 -13.5)"/><path class="cls-3" d="M17.8,24.5c1-2,3-2,4,0" transform="translate(-14 -13.5)"/><path class="cls-3" d="M18.8,19.5c.74-.82,1-1,2-1" transform="translate(-14 -13.5)"/><path class="cls-3" d="M31.8,24.5c-1-2-3-2-4,0" transform="translate(-14 -13.5)"/><path class="cls-3" d="M30.8,19.5c-.74-.82-1-1-2-1" transform="translate(-14 -13.5)"/><path class="cls-4" d="M19.8,24.5c-.16-.09-2-1-3,0s-.46,2.9,0,3,.67-1.57,2-2c1-.31,1.88.25,2,0S20.36,24.79,19.8,24.5Z" transform="translate(-14 -13.5)"/><path class="cls-4" d="M30.25,24.5c.16-.09,2-1,3,0s.46,2.9,0,3-.67-1.57-2-2c-1-.31-1.88.25-2,0S29.69,24.79,30.25,24.5Z" transform="translate(-14 -13.5)"/></svg>