<svg id="Layer_1" data-name="Layer 1" xmlns="http://www.w3.org/2000/svg" xmlns:xlink="http://www.w3.org/1999/xlink" viewBox="0 0 22 22"><defs><style>.cls-1,.cls-4{stroke-linecap:round;stroke-linejoin:round;}.cls-1{fill:url(#linear-gradient);stroke:url(#linear-gradient-2);}.cls-2{fill:#f56c3f;}.cls-3{stroke:#7b3b00;stroke-miterlimit:10;fill:url(#linear-gradient-3);}.cls-4{fill:#f21009;stroke:#b01900;}</style><linearGradient id="linear-gradient" x1="11" y1="21.5" x2="11" y2="0.5" gradientUnits="userSpaceOnUse"><stop offset="0" stop-color="#f59651"/><stop offset="0.44" stop-color="#f9bb7b"/><stop offset="1" stop-color="#ffeeb5"/></linearGradient><linearGradient id="linear-gradient-2" x1="11" y1="22" x2="11" gradientUnits="userSpaceOnUse"><stop offset="0" stop-color="#c87943"/><stop offset="0.79" stop-color="#e8a25f"/><stop offset="1" stop-color="#f1ae67"/></linearGradient><linearGradient id="linear-gradient-3" x1="25" y1="31" x2="25" y2="27.13" gradientUnits="userSpaceOnUse"><stop offset="0" stop-color="#a6291d"/><stop offset="1" stop-color="#7e1400"/></linearGradient></defs><title>emoji-love</title><rect class="cls-1" x="0.5" y="0.5" width="21" height="21" rx="9" ry="9"/><circle class="cls-2" cx="4.5" cy="13.5" r="2"/><circle class="cls-2" cx="17.5" cy="13.5" r="2"/><path class="cls-3" d="M29,27.5A3.78,3.78,0,0,1,25,31a3.78,3.78,0,0,1-4-3.5A21.52,21.52,0,0,1,29,27.5Z" transform="translate(-14 -13.5)"/><path class="cls-4" d="M20.48,19.23a2,2,0,0,0-1.07,1.49,2,2,0,0,0-2.7,2.74C17.49,25,22,25.72,22,25.72s2-4.12,1.21-5.63A2,2,0,0,0,20.48,19.23Z" transform="translate(-14 -13.5)"/><path class="cls-4" d="M29.39,19.23a2,2,0,0,1,1.07,1.49,2,2,0,0,1,2.7,2.74c-.78,1.51-5.29,2.27-5.29,2.27s-2-4.12-1.21-5.63A2,2,0,0,1,29.39,19.23Z" transform="translate(-14 -13.5)"/></svg>