<svg id="Layer_1" data-name="Layer 1" xmlns="http://www.w3.org/2000/svg" viewBox="0 0 100 100"><defs><style>.cls-1{fill:#fff;}.cls-2{fill:#44684f;}.cls-3{fill:#6d7075;}.cls-4{fill:#496191;}.cls-5{fill:#67557c;}.cls-6{fill:#bab8bc;}.cls-7{fill:#dda6c5;}.cls-8{fill:#a8e0a6;}.cls-9{fill:#c3a6e2;}.cls-10{fill:#aafff6;}.cls-11{fill:#f3f7c4;}.cls-12{fill:#82735f;}.cls-13{fill:#e2c8a6;}.cls-14{fill:#f4e3c3;}</style></defs><title>four-hands</title><circle class="cls-1" cx="50" cy="50" r="50"/><polygon class="cls-2" points="16.85 32.16 32.5 16.64 36.74 21.43 21.19 36.19 16.85 32.16"/><polyline class="cls-3" points="63.35 21.2 67.5 16.64 83.91 32.16 79.31 36.19 63.35 21.2"/><polyline class="cls-4" points="63.19 78.71 79.26 63.47 83.91 67.84 68.05 83.56 63.19 78.71"/><path class="cls-5" d="M222.44,273.47c.14-.31,4.17-4,4.17-4l16.27,15.65-4.72,3.83Z" transform="translate(-206 -206)"/><circle class="cls-6" cx="21.19" cy="67.53" r="2.56"/><ellipse class="cls-6" cx="79.26" cy="67.47" rx="2.26" ry="2.5"/><circle class="cls-6" cx="79.31" cy="32.41" r="2.65"/><ellipse class="cls-6" cx="21.05" cy="32.16" rx="2.7" ry="2.39"/><polygon class="cls-7" points="59.98 75.22 75.16 60.12 78.78 62.92 63.19 78.71 59.98 75.22"/><polygon class="cls-8" points="59.98 23.95 62.51 21.43 78.3 36.47 76.93 38.99 75.36 39.75 59.98 23.95"/><polygon class="cls-9" points="21.56 36.81 36.74 21.43 39.81 24.36 24.43 39.34 21.56 36.81"/><polygon class="cls-10" points="21.9 62.51 24.23 60.6 40.38 76.45 36.53 78.71 21.9 62.92 21.9 62.51"/><polygon class="cls-11" points="40.38 55.42 56.7 72.92 59.71 73.74 74.2 61.26 72.1 56.7 69.37 48.86 41.48 51.23 40.38 55.42"/><polygon class="cls-12" points="26.47 59.16 28.35 55.15 30.45 45.4 33.18 43.76 37.65 42.57 41.02 48.68 41.39 52.96 40.84 55.7 49.68 66.18 41.2 73.74 38.08 73.01 26.47 61.26 26.47 59.16"/><polygon class="cls-13" points="40.38 43.57 56.15 27.26 61.8 26.89 73.83 39.11 70.1 54.06 67.45 56.34 62.81 53.15 53.24 61.26 44.67 56.34 41.39 52.96 40.38 43.57"/><path class="cls-14" d="M232.89,244c.89-2.34,2.49-2.54,5.38-5.29,2.72-2.58,2.76-3.77,5.1-4.92a7,7,0,0,1,3.55-.91c1.7.08,3.07,1.12,5.74,3.19,2.88,2.23,3,2.95,3,3.37,0,.85-.68,1.32-2,2.55s-2.49,2.52-4.74,5c-1.35,1.5-1.83,2.19-3.92,4.47-1.68,1.83-2.77,2.91-3.28,2.64s.17-1.56-.64-2.83a2.77,2.77,0,0,0-2.37-1.37c-1.59.19-2,2.76-3,2.64-.48-.05-.53-.66-1.64-2.73s-1.4-2.16-1.55-3.1A5.17,5.17,0,0,1,232.89,244Z" transform="translate(-206 -206)"/><path d="M282.76,264.85a1.37,1.37,0,0,0-1.65-.22,5.31,5.31,0,0,0-1.3-2.34,1.77,1.77,0,0,1-.45-.86L278.22,256l1.14-5.44a1.76,1.76,0,0,1,.45-.86,5.32,5.32,0,0,0,1.3-2.34,1.36,1.36,0,0,0,1.65-.22l7.84-7.84a1.37,1.37,0,0,0,0-1.93l-16-16a1.37,1.37,0,0,0-1.93,0l-7.84,7.84a1.37,1.37,0,0,0-.05,1.87,6.62,6.62,0,0,0-3.69,1.88L256,238.1,250.9,233a6.63,6.63,0,0,0-3.7-1.87,1.37,1.37,0,0,0-.05-1.88l-7.84-7.84a1.37,1.37,0,0,0-1.93,0l-16,16a1.37,1.37,0,0,0,0,1.93l7.84,7.84a1.36,1.36,0,0,0,1.65.22,5.31,5.31,0,0,0,1.3,2.34,1.76,1.76,0,0,1,.45.86l1.14,5.44-1.14,5.44a1.76,1.76,0,0,1-.45.86,5.32,5.32,0,0,0-1.3,2.34,1.37,1.37,0,0,0-1.65.22l-7.84,7.84a1.37,1.37,0,0,0,0,1.93l16,16a1.37,1.37,0,0,0,1.93,0l7.84-7.84a1.37,1.37,0,0,0,.05-1.88,6.63,6.63,0,0,0,3.7-1.87L256,273.9l5.11,5.11a6.63,6.63,0,0,0,3.7,1.87,1.37,1.37,0,0,0,.05,1.88l7.84,7.84a1.37,1.37,0,0,0,1.93,0l16-16a1.37,1.37,0,0,0,0-1.93ZM286.38,237a1.87,1.87,0,1,1-2.64,0h0A1.87,1.87,0,0,1,286.38,237ZM273.66,224.3,283.4,234a4.58,4.58,0,0,0-1.6,1h0a4.57,4.57,0,0,0-1.1,1.78l-9.82-9.77c-.53-.53-1-.42-1.53.11s-1.54.74-1,1.28L283,243l-1.21,1.21-2.07-2.07L270.54,233l-2.78-2.78ZM263,234.92a3.93,3.93,0,0,1,5.56,0l9.18,9.18a2.66,2.66,0,0,1,0,3.7,4.5,4.5,0,0,0-1.15,2.19l-2.09,10a1.53,1.53,0,0,1-2.94-.82l0-.07.46-2.19a1.37,1.37,0,0,0-2.31-1.25l-9.88,9.9,0,0-.19.19h0a1.41,1.41,0,0,1-2-.07,1.44,1.44,0,0,1,0-1.94l.06-.06,5.6-5.6h0l1.79-1.79a1.37,1.37,0,0,0-1.93-1.93l-1.85,1.85,0,0-6.62,6.58a1.41,1.41,0,0,1-1.78,0l-.1-.09a1.41,1.41,0,0,1-.07-1.91l0,0,8.41-8.41a1.37,1.37,0,0,0-1.93-1.93l-8.39,8.39-.05,0a1.41,1.41,0,0,1-1.54.19,1.39,1.39,0,0,1-.37-.26h0l-.1-.11,0,0-.07-.1v0a1.42,1.42,0,0,1-.13-.29h0a1.51,1.51,0,0,1-.05-.21h0V258s0-.08,0-.12a1.42,1.42,0,0,1,0-.24v0a1.42,1.42,0,0,1,.06-.21h0l0-.11h0l0-.1,0,0,0-.06h0l.06-.08h0l2.84-2.86v0h0l5.56-5.56a1.37,1.37,0,0,0-1.93-1.93l-5.55,5.54a1.4,1.4,0,0,1-1.7.06h0a1.45,1.45,0,0,1-.21-.18l-.1-.12,0,0-.06-.1,0,0-.05-.12,0-.06,0-.11v-.06l0-.1v-.05a1.45,1.45,0,0,1,0-.16h0a1.49,1.49,0,0,1,0-.17h0a1.55,1.55,0,0,1,0-.18h0a1.51,1.51,0,0,1,.13-.31v0l.08-.12,0,0,.1-.13L248,250Zm-34.77,4.73a1.87,1.87,0,0,1-2.64,0h0a1.87,1.87,0,1,1,2.64,0Zm4,2.52-2.07,2.07L229,243l14.2-14.28c.53-.53-.42-.88-1-1.41s-.42-1.13-1-.59l-10,10.12a4.57,4.57,0,0,0-1.1-1.78h0a4.57,4.57,0,0,0-1.6-1l9.74-9.74,5.91,5.91L241.46,233Zm1.93,1.93,9.18-9.18a3.94,3.94,0,0,1,5.56,0l5.11,5.11-8,8-.15.16-.08.09,0,.06a4.2,4.2,0,0,0-.51.8l0,0,0,.08-.12.28-2,2A4.27,4.27,0,0,0,240,248.3l-.25-.06h-.07l-.18,0h-.08l-.21,0h-.61l-.19,0h-.05l-.48.09h0l-.19.05-.06,0-.19.07h0l-.23.1h0l-.21.1-.05,0-.16.09-.05,0-.17.11,0,0-.19.15,0,0-.15.12-.05,0-.13.12-.05.05-.15.16v0l-.15.19,0,.06-.1.14,0,0v0a4.5,4.5,0,0,0-1.15-2.19A2.66,2.66,0,0,1,234.21,244.11ZM225.62,275a1.87,1.87,0,1,1,2.64,0A1.86,1.86,0,0,1,225.62,275Zm12.72,12.72L228.6,278a4.57,4.57,0,0,0,1.6-1h0a4.57,4.57,0,0,0,1.1-1.78l10.57,10.48c.27.27,2.08-1.74,1.55-2.28L229,269l1.21-1.21,2.07,2.07,9.18,9.18,2.78,2.78ZM249,277.07a3.93,3.93,0,0,1-5.56,0l-9.18-9.18a2.66,2.66,0,0,1,0-3.7,4.5,4.5,0,0,0,1.15-2.19l2.09-10a1.53,1.53,0,0,1,1.86-1l.15,0h0l.12.05h0a1.53,1.53,0,0,1,.84,1.44h0s0,.08,0,.13v0a1.53,1.53,0,0,1,0,.15l0,.07-.46,2.19a1.37,1.37,0,0,0,2.31,1.25l3.17-3.18a4.07,4.07,0,0,0,.28.41l0,0,.08.1.05.06,0,0c0,.12,0,.24,0,.37a4.15,4.15,0,0,0,.44,1.85v0l-.07.15,0,0-.08.2,0,0-.05.16,0,.07,0,.15v.06l0,.21v0l0,.18v.07q0,.08,0,.16v.07c0,.07,0,.15,0,.22h0q0,.09,0,.18c0,.05,0,.1,0,.15v0l0,0-.06.07-.07.08-.06.07-.06.08-.05.08-.06.08,0,.08-.05.09,0,.08,0,.09,0,.08,0,.09,0,.09,0,.09,0,.09,0,.09,0,.09,0,.09,0,.09,0,.09,0,.1,0,.09,0,.1v.56s0,.05,0,.08,0,.07,0,.11,0,.05,0,.08,0,.08,0,.11v.44l0,.12v.06l0,.13V262l0,.13,0,.05,0,.13,0,0,0,.13,0,0,.06.14,0,0,.06.14,0,0,.07.14,0,0,.08.14,0,0,.09.13,0,0,.09.13,0,0,.08.11.13.15.15.16,8,8Zm14.08,0L257,271h0l-9-9-.05-.05-.11-.14,0,0-.08-.14v0l-.07-.16v0l0-.14v0h0l.22.14,0,0,.21.11,0,0,.24.11,0,0,.22.08h0l.25.07h0l.24.05h0l.26,0h.05l.26,0a4.13,4.13,0,0,0,1.2,2.72h0l0,0a4.13,4.13,0,0,0,2.81,1.19,4.18,4.18,0,0,0,1-.09,4.05,4.05,0,0,0,1,1.81l.15.15.05,0,.11.1.06.05.1.08.07.05.1.07.08.05.1.06.08,0,.1.06.08,0,.1.05.08,0,.1,0,.09,0,.1,0,.09,0,.11,0,.09,0,.11,0,.09,0,.11,0,.09,0,.11,0h1.36l.09,0,.09,0,.09,0,.09,0,.09,0,.09,0,.09,0,.09,0,.09,0,.09,0,.09,0,.08,0,.09,0,.08,0,.09-.05.08,0,.09-.06.07,0,.1-.07.07,0,.11-.08.05,0,.15-.13.08-.08.4-.4,0,0,6.89-6.91a4.23,4.23,0,0,0,.15.54v0l.09.23,0,.06.1.21,0,.07.08.14a4.23,4.23,0,0,0,1.73,1.65h0a4.3,4.3,0,0,0,.52.23l.06,0,.27.08.3.07h.07l.3,0h0l.27,0h.41l.28,0h0l.29-.05h.06l.28-.07h0l.25-.08.05,0,.26-.11.06,0,.24-.13h0l.24-.15.05,0,.23-.17,0,0,.2-.17,0,0,.2-.2,0,0,.17-.21,0,0,.17-.24,0,0v0a4.5,4.5,0,0,0,1.15,2.19,2.66,2.66,0,0,1,0,3.7l-9.18,9.18A3.94,3.94,0,0,1,263,277.07Zm10.62,10.62-5.91-5.91,2.78-2.78,9.18-9.18,2.07-2.07L283,269l-14.65,14.65c-.53.53,1.24,2.45,1.5,2.19l10.85-10.66a4.57,4.57,0,0,0,1.1,1.78h0a4.57,4.57,0,0,0,1.6,1ZM286.38,275a1.87,1.87,0,0,1-2.64,0h0a1.87,1.87,0,0,1,2.64-2.64h0a1.87,1.87,0,0,1,0,2.64Z" transform="translate(-206 -206)"/></svg>