<svg id="Layer_1" data-name="Layer 1" xmlns="http://www.w3.org/2000/svg" viewBox="0 0 17.08 20"><defs><style>.cls-1{fill:#fff;}</style></defs><title>gender-icon</title><path class="cls-1" d="M268.72,248h-5.31a.82.82,0,1,0,0,1.63h3.34l-2.94,2.94a4.51,4.51,0,0,0-2.27-.62,4.21,4.21,0,0,0-2.25.62h0a4.53,4.53,0,1,0-3.1,8.37v3.13h-1.83a.82.82,0,0,0,0,1.63h1.83v1.47a.82.82,0,0,0,1.63,0v-1.47h1.83a.82.82,0,0,0,0-1.63h-1.83V261a4.5,4.5,0,0,0,1.38-.49l.06-.05a4.53,4.53,0,0,0,5.8-6.77l2.85-2.85v3.34a.82.82,0,1,0,1.63,0v-5.31A.82.82,0,0,0,268.72,248Zm-10.78,11.27h0a3,3,0,0,1-3-.71,2.91,2.91,0,0,1,3-4.8,4.44,4.44,0,0,0-1,2.74A4.51,4.51,0,0,0,257.94,259.27Zm1.32-1-.06-.07a3.06,3.06,0,0,1,0-3.6A2.92,2.92,0,0,1,259.26,258.32Zm4.32.24a2.91,2.91,0,0,1-2.92.72l-.07,0a4.43,4.43,0,0,0,.93-2.75,4.51,4.51,0,0,0-.94-2.76,3.07,3.07,0,0,1,3,.7A2.91,2.91,0,0,1,263.59,258.56Z" transform="translate(-252.46 -248)"/></svg>