<svg id="Layer_1" data-name="Layer 1" xmlns="http://www.w3.org/2000/svg" viewBox="0 0 100 100"><defs><style>.cls-1{fill:#fff;}.cls-2{fill:#e4ea73;}.cls-10,.cls-2,.cls-3,.cls-4,.cls-5,.cls-6,.cls-7,.cls-8,.cls-9{stroke:#000;stroke-miterlimit:10;}.cls-3{fill:#a54467;}.cls-4{fill:#a1e2a6;}.cls-5{fill:#3a5866;}.cls-6{fill:#1e2647;}.cls-7{fill:#3d395b;}.cls-8{fill:#e8e3bc;}.cls-9{fill:#847863;}.cls-10{fill:#edd7a9;}</style></defs><title>group-trio</title><circle class="cls-1" cx="50" cy="50" r="50"/><polygon class="cls-2" points="20.24 37.01 24.25 32.36 42.39 32 40.13 61.35 21.24 57.61 19.24 53.87 20.24 37.01"/><polygon class="cls-3" points="60.34 32 74.75 32 78.85 34.91 80.85 42.57 80.85 55.42 70.6 60.25 63.81 60.25 60.34 32"/><polygon class="cls-4" points="37.92 35.01 44.03 31.73 50.41 41.3 55.6 32 61.16 34.37 63.81 38.2 63.81 56.24 51.46 61.35 36.83 56.7 36.01 38.2 37.92 35.01"/><polygon class="cls-5" points="42.11 54.42 49.41 57.79 57.88 53.87 57.88 82.22 42.84 82.95 41.48 79.85 42.11 54.42"/><polygon class="cls-6" points="62.99 56.61 66.27 57.98 75.2 53.87 75.2 82.95 58.52 82.31 58.52 58.7 62.99 56.61"/><polygon class="cls-7" points="25.71 54.42 32.73 58.52 36.65 55.79 41.48 58.98 40.66 82.95 25.16 82.49 25.71 54.42"/><polygon class="cls-8" points="44.03 24.11 44.03 20.06 50 16.23 55.6 19.69 55.6 27.8 51.46 31.45 46.58 31 44.03 24.11"/><polygon class="cls-9" points="61.16 19.69 67.09 16.23 72.65 19.69 72.65 28.63 67.27 32 61.53 28.9 61.16 19.69"/><polygon class="cls-10" points="27.53 19.88 32.18 16.23 37.92 19.05 37.92 29.17 33.55 32 27.53 29.17 27.53 19.88"/><circle cx="50" cy="46.74" r="1.46"/><circle cx="50" cy="51.66" r="1.46"/><path d="M278.91,236.35a6.87,6.87,0,0,0,1.28-4V227.9a6.91,6.91,0,0,0-6.91-6.91h-.95a6.91,6.91,0,0,0-6.91,6.91v4.46a6.86,6.86,0,0,0,1.27,4h-4.58a6.86,6.86,0,0,0,1.27-4V227.9a6.91,6.91,0,0,0-6.91-6.91h-.95a6.91,6.91,0,0,0-6.91,6.91v4.46a6.86,6.86,0,0,0,1.27,4H245.3a6.87,6.87,0,0,0,1.27-4V227.9a6.91,6.91,0,0,0-6.91-6.91h-.95a6.91,6.91,0,0,0-6.91,6.91v4.46a6.86,6.86,0,0,0,1.28,4,9.64,9.64,0,0,0-9.24,9.6V260.2a5.39,5.39,0,0,0,5.39,5.37h.09v20.56A4.88,4.88,0,0,0,234.2,291h1.58a4.86,4.86,0,0,0,3.41-1.4,4.86,4.86,0,0,0,3.41,1.4h1.58a4.85,4.85,0,0,0,3.41-1.4A4.85,4.85,0,0,0,251,291h1.58a4.86,4.86,0,0,0,3.41-1.4,4.86,4.86,0,0,0,3.41,1.4H261a4.85,4.85,0,0,0,3.41-1.4,4.85,4.85,0,0,0,3.41,1.4h1.58a4.86,4.86,0,0,0,3.41-1.4,4.86,4.86,0,0,0,3.41,1.4h1.58a4.88,4.88,0,0,0,4.87-4.87V265.57h.09a5.39,5.39,0,0,0,5.39-5.37V246A9.64,9.64,0,0,0,278.91,236.35Zm-10.56-8.45a4,4,0,0,1,4-4h.95a4,4,0,0,1,4,4v4.46a4,4,0,0,1-4,4h-.95a4,4,0,0,1-4-4Zm-16.81,0a4,4,0,0,1,4-4h.95a4,4,0,0,1,4,4v4.46a4,4,0,0,1-4,4h-.95a4,4,0,0,1-4-4V227.9Zm7.84,11.36L256,244.81l-3.38-5.55ZM234.73,227.9a4,4,0,0,1,4-4h.95a4,4,0,0,1,4,4v4.46a4,4,0,0,1-4,4h-.95a4,4,0,0,1-4-4Zm-3.95,21.52a1.46,1.46,0,0,0-1.46,1.46h0v11.77h-.09a2.46,2.46,0,0,1-2.47-2.45V246a6.72,6.72,0,0,1,6.73-6.69h9.88a9.55,9.55,0,0,0-2.73,6.69V260.2a5.34,5.34,0,0,0,.18,1.37l-1.64.83-6.94-3.53v-8h0A1.46,1.46,0,0,0,230.79,249.42Zm15.34,36.71a2,2,0,0,1-1.95,1.95H242.6a2,2,0,0,1-1.95-1.95V270.07a1.46,1.46,0,0,0-2.92,0v16.06a2,2,0,0,1-1.95,1.95H234.2a2,2,0,0,1-1.95-1.95v-24l6.28,3.19a1.46,1.46,0,0,0,1.32,0l2.48-1.25a5.38,5.38,0,0,0,3.71,1.48h.09v20.56Zm16.81,0a2,2,0,0,1-1.95,1.95h-1.58a2,2,0,0,1-1.95-1.95V270.07a1.46,1.46,0,0,0-2.92,0v16.06a2,2,0,0,1-1.95,1.95H251a2,2,0,0,1-1.95-1.95v-24l6.28,3.18a1.46,1.46,0,0,0,1.32,0l6.28-3.19v24Zm1.46-36.71a1.46,1.46,0,0,0-1.46,1.46h0v8L256,262.4l-6.94-3.51v-8h0a1.46,1.46,0,1,0-2.92,0h0v11.77H246a2.46,2.46,0,0,1-2.47-2.45V246a6.71,6.71,0,0,1,5.67-6.6l5.5,9a1.46,1.46,0,0,0,2.5,0l5.5-9a6.71,6.71,0,0,1,5.67,6.6V260.2a2.46,2.46,0,0,1-2.47,2.45h-.09V250.89h0A1.46,1.46,0,0,0,264.4,249.42Zm15.34,36.71a2,2,0,0,1-1.95,1.95h-1.58a2,2,0,0,1-1.95-1.95V270.07a1.46,1.46,0,0,0-2.92,0v16.06a2,2,0,0,1-1.95,1.95h-1.58a2,2,0,0,1-1.95-1.95V265.57H266a5.38,5.38,0,0,0,3.71-1.48l2.48,1.25a1.46,1.46,0,0,0,1.32,0l6.28-3.19v24Zm3-23.48h-.09V250.89h0a1.46,1.46,0,0,0-2.92,0h0v8l-6.94,3.53-1.64-.83a5.33,5.33,0,0,0,.18-1.37V246a9.55,9.55,0,0,0-2.73-6.69h9.88a6.72,6.72,0,0,1,6.73,6.69V260.2h0A2.46,2.46,0,0,1,282.76,262.65Z" transform="translate(-206 -206)"/></svg>