<svg id="Layer_1" data-name="Layer 1" xmlns="http://www.w3.org/2000/svg" viewBox="0 0 100 100"><defs><style>.cls-1{fill:#fff;}.cls-2{fill:#92e03f;}.cls-3{fill:#0084ff;}.cls-4{fill:#f2427f;}.cls-5{fill:#ffd41d;}</style></defs><title>growup-man</title><circle class="cls-1" cx="50" cy="50" r="50"/><rect class="cls-2" x="41.43" y="67.41" width="17.15" height="14.07"/><rect class="cls-3" x="24.28" y="72.15" width="17.15" height="9.32"/><rect class="cls-4" x="58.57" y="75.45" width="17.15" height="6.03"/><path class="cls-5" d="M256,234.2h0a10.23,10.23,0,0,0-10.38,10.07v9.63a4.47,4.47,0,0,0,4.53,4.4h.66v15.11h10.55V258.29h.49a4.47,4.47,0,0,0,4.53-4.4v-9.63A10.23,10.23,0,0,0,256,234.2Z" transform="translate(-206 -206)"/><circle class="cls-5" cx="49.69" cy="23.36" r="4.84"/><path d="M281.72,280.17H265.85v-6.76a1.28,1.28,0,0,0-1.28-1.28h-1.93V259.52a5.73,5.73,0,0,0,5-5.62v-9.63a11.39,11.39,0,0,0-7.6-10.64,6.12,6.12,0,1,0-8.57.17,11.37,11.37,0,0,0-7.15,10.46v9.63a5.74,5.74,0,0,0,5.19,5.64v12.59h-2.1a1.28,1.28,0,0,0-1.28,1.28v3.47H230.28a1.28,1.28,0,0,0-1.28,1.28v9.32a1.28,1.28,0,0,0,1.28,1.28h51.44a1.28,1.28,0,0,0,1.28-1.28v-6A1.28,1.28,0,0,0,281.72,280.17Zm-26-54.37a3.56,3.56,0,1,1-3.56,3.56A3.56,3.56,0,0,1,255.69,225.8Zm-4.88,17.52a1.28,1.28,0,0,0-1.28,1.28V257a3.16,3.16,0,0,1-2.63-3.06v-9.63a9.11,9.11,0,0,1,18.21,0v9.63a3.15,3.15,0,0,1-2.47,3V244.6a1.28,1.28,0,0,0-2.56,0v27.53h-2.72V257.58a1.28,1.28,0,0,0-2.56,0v14.55h-2.72V244.6A1.28,1.28,0,0,0,250.81,243.32Zm-19.25,36.11h14.59v6.76H231.56Zm17.15-1.28v-3.47h14.59V286.2H248.71Zm31.73,8H265.85v-3.47h14.59Z" transform="translate(-206 -206)"/></svg>