<svg id="Layer_1" data-name="Layer 1" xmlns="http://www.w3.org/2000/svg" viewBox="0 0 100 100"><defs><style>.cls-1{fill:#fff;}.cls-2{fill:#1ddd4b;}.cls-3,.cls-4{fill:none;stroke:#000;stroke-linecap:round;stroke-linejoin:round;}.cls-3{stroke-width:20px;}.cls-4{stroke-width:6px;}</style></defs><title>harmony</title><circle class="cls-1" cx="50" cy="50" r="50"/><polyline class="cls-2" points="51.84 81.51 52.55 75.45 61.73 63.65 73.94 60.9 80.66 62.77 81.34 70.79 76.65 79.65 66.59 86.08 56.5 85.52 51.84 81.51"/><ellipse cx="60.51" cy="37.82" rx="4.01" ry="4.52"/><polyline points="48.39 19.49 43.63 24.9 42.8 34.41 52.03 54.28 58.04 66.03 55.48 71.53 52.55 79.09 52.03 82.36 47.46 82.91 32.72 78.44 21.9 64.91 18.45 48.87 22.74 34.69 33.47 24.62 48.39 19.49"/><ellipse class="cls-1" cx="39.58" cy="63.65" rx="4.06" ry="4.34"/><path class="cls-3" d="M258.55,288.36" transform="translate(-206 -206)"/><path class="cls-4" d="M258.55,288.36q-1.33.11-2.69.11A31.49,31.49,0,1,1,287.34,257a27.21,27.21,0,0,1-1.87,11.08" transform="translate(-206 -206)"/><path id="_Compound_Path_" data-name="&lt;Compound Path&gt;" d="M254.5,257.74c-4.86-8.64-9.89-17.58-7.61-24.92a12.19,12.19,0,0,1,2.87-4.81,29.62,29.62,0,0,0,1.28,58.17,1.68,1.68,0,0,1-.27,3.33l-.28,0A33,33,0,0,1,255.89,224h.1a33,33,0,0,1,32.49,38.47,1.68,1.68,0,1,1-3.31-.56,29.64,29.64,0,0,0-28.84-34.55c-3.38,1.72-5.42,3.84-6.23,6.46-1.85,6,2.81,14.25,7.33,22.28,1.44,2.57,6.45,12,7.74,14.63.41.83-.29.89-1.12,1.31s-1,1.76-1.4.93C261.4,270.46,255.92,260.27,254.5,257.74Zm11.81-20.1a6.65,6.65,0,1,1-6.65,6.65A6.66,6.66,0,0,1,266.31,237.64Zm0,3.36a3.29,3.29,0,1,0,3.29,3.29A3.3,3.3,0,0,0,266.31,241Zm21.84,28c2.12,7.35-1.11,15.69-8,20.73a21.27,21.27,0,0,1-12.46,4.18,17.58,17.58,0,0,1-8.72-2.24l-.7.51a1.68,1.68,0,0,1-2-2.71l.7-.51c-1.48-7.06,1.76-14.79,8.31-19.58,6.92-5,15.84-5.58,22.19-1.32A1.68,1.68,0,0,1,288.15,269Zm-3.07,1.53c-5.15-3.11-12.23-2.51-17.82,1.58-5,3.65-7.72,9.29-7.24,14.64l4.09-3,.71-4.51a1.68,1.68,0,1,1,3.32.52l-.19,1.19,3-2.22.7-4.51a1.68,1.68,0,1,1,3.32.52l-.19,1.19,2.82-2.06a1.68,1.68,0,0,1,2,2.71l-2.72,2,1,.15a1.68,1.68,0,1,1-.5,3.32l-4.36-.66-3.12,2.28,1.19.19a1.68,1.68,0,0,1-.52,3.32l-4.51-.7-4.09,3c4.94,2.09,11.14,1.22,16.15-2.43C283.73,283,286.46,276.4,285.08,270.54Zm-39.45-4.18a3.29,3.29,0,1,0,3.29,3.29A3.3,3.3,0,0,0,245.63,266.36Z" transform="translate(-206 -206)"/><circle class="cls-1" cx="39.58" cy="63.65" r="6.65"/><path class="cls-2" d="M257.84,287.51" transform="translate(-206 -206)"/></svg>