<svg id="Capa_1" data-name="Capa 1" xmlns="http://www.w3.org/2000/svg" viewBox="0 0 100 100"><defs><style>.cls-1{fill:#fff;}.cls-2{fill:#f7cb4f;}.cls-3{fill:#68b9d8;}.cls-4{fill:#546f7a;}.cls-5{fill:#f2464f;}.cls-6{fill:#11113f;}</style></defs><title>hobby</title><circle class="cls-1" cx="50" cy="50" r="50"/><path class="cls-2" d="M709,246.43a4.57,4.57,0,1,1,5.25,0H724.5v-25.8H698.69V231a4.57,4.57,0,1,0,0,5.15v10.33Z" transform="translate(-643 -190.68)"/><path class="cls-3" d="M688.41,246.43a4.57,4.57,0,1,1-5.25,0H672.88v25.8h25.81V261.91a4.57,4.57,0,1,0,0-5.15V246.43Z" transform="translate(-643 -190.68)"/><path class="cls-4" d="M687.58,224.82a4.62,4.62,0,1,1,0-5.31V209.14H661.5V235.2h10.43a4.62,4.62,0,1,0,5.2,0h10.45V224.82Z" transform="translate(-643 -190.68)"/><path class="cls-5" d="M698.69,256.71a4.57,4.57,0,1,1,0,5.25v10.27H724.5v-25.8H714.18a4.57,4.57,0,1,0-5.15,0H698.69v10.27Z" transform="translate(-643 -190.68)"/><path class="cls-6" d="M680.1,239a5.56,5.56,0,0,0-.79-2.86h8.27a1,1,0,0,0,1-1V224.82a1,1,0,0,0-1.73-.55,3.66,3.66,0,1,1,0-4.21,1,1,0,0,0,1.73-.55V209.14a1,1,0,0,0-1-1H661.5a1,1,0,0,0-1,1v6.56a1,1,0,1,0,1.9,0v-5.6h24.18v7.29a5.57,5.57,0,1,0,0,9.59v7.29h-9.49a1,1,0,0,0-.54,1.74,3.66,3.66,0,1,1-4.13,0,1,1,0,0,0-.54-1.74h-9.48V215.37c0-.53-.36.78-.88.78s-1-1.65-1-1.13V235.2a1,1,0,0,0,1,1h8.26A5.57,5.57,0,1,0,680.1,239Z" transform="translate(-643 -190.68)"/><path class="cls-6" d="M724.5,231.75a1,1,0,0,0,1-1V220.64a1,1,0,0,0-1-1H698.69a1,1,0,0,0-1,1v8.15a5.52,5.52,0,1,0,0,9.49v7.2h-9.33a1,1,0,0,0-.55,1.73,3.62,3.62,0,1,1-4.16,0,1,1,0,0,0-.55-1.73H672.88a1,1,0,0,0-1,1v19.26c0,.53.58-.35,1.11-.35s.8,1,.8.51V247.38H681a5.52,5.52,0,1,0,9.53,0h7.2v9.37a1,1,0,0,0,1.74.54,3.62,3.62,0,1,1,0,4.07,1,1,0,0,0-1.74.54v9.37H673.83v-6.64a1,1,0,1,0-1.9,0v7.6a1,1,0,0,0,1,1H724.5a1,1,0,0,0,1-1V230.29c0-.53-.53.19-1.06.19s-.85-1.08-.85-.55v15.55h-7.18a5.52,5.52,0,0,0,.76-2.78v0a5.52,5.52,0,1,0-11,0v0a5.52,5.52,0,0,0,.76,2.78h-7.2v-9.37a1,1,0,0,0-1.74-.54,3.62,3.62,0,1,1,0-4.07,1,1,0,0,0,1.74-.54v-9.37h23.91v9.21A1,1,0,0,0,724.5,231.75ZM709,247.38H709a1,1,0,0,0,.54-1.74,3.62,3.62,0,1,1,4.07,0,1,1,0,0,0,.54,1.74h9.37v23.89H699.64v-7.19a5.55,5.55,0,0,0,2.8.76h0a5.52,5.52,0,0,0,0-11h0a5.55,5.55,0,0,0-2.8.76v-7.19Z" transform="translate(-643 -190.68)"/></svg>