<svg id="Layer_1" data-name="Layer 1" xmlns="http://www.w3.org/2000/svg" viewBox="0 0 70 70"><defs><style>.cls-1{fill:#fff;}.cls-2{fill:#fecc0c;}</style></defs><title>icon-three</title><circle class="cls-1" cx="35" cy="35" r="35"/><path class="cls-2" d="M263,237.78a9.64,9.64,0,0,1,5.72,9,8.81,8.81,0,0,1-1.88,5.88,8.15,8.15,0,0,1-4.69,2.81v.27q7.25,2.33,7.25,9.05a11.1,11.1,0,0,1-1.48,5.75,10,10,0,0,1-4.32,3.92,15.18,15.18,0,0,1-6.8,1.4q-6.46,0-10.25-3.18t-4.1-9.69h8.84a6.1,6.1,0,0,0,1.38,3.92,4.7,4.7,0,0,0,3.71,1.43,4,4,0,0,0,4.24-4.18q0-4.61-6.67-4.61h-1.69v-7.36h1.64q6,.11,6-4.29a4,4,0,0,0-1-2.94,4.21,4.21,0,0,0-5.8.26,5.83,5.83,0,0,0-1.27,3.47H243q.27-5.93,3.71-9.11t9.64-3.18A15.4,15.4,0,0,1,263,237.78Z" transform="translate(-221 -221)"/></svg>