<svg id="Layer_1" data-name="Layer 1" xmlns="http://www.w3.org/2000/svg" viewBox="0 0 70 70"><defs><style>.cls-1{fill:#fff;}.cls-2{fill:#fecc0c;}</style></defs><title>icon-two</title><circle class="cls-1" cx="35" cy="35" r="35"/><path class="cls-2" d="M259.77,248.94q0-4.52-3.92-4.52a3.59,3.59,0,0,0-3.23,1.54,9.46,9.46,0,0,0-1.13,4.8h-9.21q.33-7.12,4.3-10.7a14.42,14.42,0,0,1,10-3.59q6.34,0,9.57,3.2a11.22,11.22,0,0,1,3.23,8.33q0,5.68-4.36,11.12a40.64,40.64,0,0,1-10.43,9.19H270v7.61H242.22v-7.06Q259.77,256.34,259.77,248.94Z" transform="translate(-221 -221)"/></svg>