<svg id="Layer_1" data-name="Layer 1" xmlns="http://www.w3.org/2000/svg" viewBox="0 0 100 100"><defs><style>.cls-1{fill:#fff;}.cls-2{fill:#ffc10d;}.cls-3{fill:#11113f;}.cls-4{fill:#56ace0;}</style></defs><title>internet</title><circle class="cls-1" cx="50" cy="50" r="50"/><path class="cls-2" d="M287.75,247.15h-62.5a2.08,2.08,0,0,0-2.09,2.09v14.51a2.08,2.08,0,0,0,2.09,2.09h62.5a2.08,2.08,0,0,0,2.09-2.09V249.24A2.09,2.09,0,0,0,287.75,247.15Z" transform="translate(-206 -206)"/><path class="cls-1" d="M238.95,243a60,60,0,0,1,1.8-7.23c-3-.38-6.08-.88-9.13-1.46A33.53,33.53,0,0,0,226,243Z" transform="translate(-206 -206)"/><path class="cls-1" d="M254.41,236.73c-3.15,0-6.27-.22-9.4-.51A53,53,0,0,0,243.2,243h11.24v-6.26h0Z" transform="translate(-206 -206)"/><path class="cls-1" d="M235.33,230.77q3.45.59,6.93,1a31.66,31.66,0,0,1,4.06-7A33.25,33.25,0,0,0,235.33,230.77Z" transform="translate(-206 -206)"/><path class="cls-1" d="M254.41,223.55c-2.89,1-5.61,4.1-7.77,8.65,2.58.21,5.16.32,7.77.37Z" transform="translate(-206 -206)"/><path class="cls-1" d="M272.25,235.77a58.22,58.22,0,0,1,1.8,7.23H287a33.52,33.52,0,0,0-5.6-8.68C278.34,234.91,275.3,235.4,272.25,235.77Z" transform="translate(-206 -206)"/><path class="cls-1" d="M277.67,230.77a33.26,33.26,0,0,0-11-6,31.1,31.1,0,0,1,4.06,7C273.06,231.49,275.37,231.17,277.67,230.77Z" transform="translate(-206 -206)"/><path class="cls-1" d="M268,236.23c-3.13.28-6.27.46-9.4.51V243h11.24A50.69,50.69,0,0,0,268,236.23Z" transform="translate(-206 -206)"/><path class="cls-1" d="M258.59,232.56c2.58,0,5.19-.16,7.77-.37-2.16-4.53-4.87-7.63-7.77-8.65Z" transform="translate(-206 -206)"/><path class="cls-1" d="M274.05,270a60,60,0,0,1-1.8,7.23c3,.38,6.08.88,9.13,1.46A33.53,33.53,0,0,0,287,270Z" transform="translate(-206 -206)"/><path class="cls-1" d="M258.59,289.45c2.89-1,5.61-4.1,7.77-8.65-2.58-.21-5.16-.32-7.77-.37Z" transform="translate(-206 -206)"/><path class="cls-1" d="M258.59,276.28c3.15,0,6.27.22,9.4.51A53,53,0,0,0,269.8,270H258.56v6.26h0Z" transform="translate(-206 -206)"/><path class="cls-1" d="M277.67,282.23q-3.45-.59-6.93-1a31.66,31.66,0,0,1-4.06,7A33.26,33.26,0,0,0,277.67,282.23Z" transform="translate(-206 -206)"/><path class="cls-1" d="M254.41,280.44c-2.58,0-5.19.16-7.77.37,2.16,4.53,4.87,7.63,7.77,8.65Z" transform="translate(-206 -206)"/><path class="cls-1" d="M226,270a33.52,33.52,0,0,0,5.6,8.68c3-.59,6.06-1.09,9.13-1.46A58.92,58.92,0,0,1,239,270H226v0Z" transform="translate(-206 -206)"/><path class="cls-1" d="M245,276.77c3.13-.28,6.27-.46,9.4-.51V270H243.17A50.69,50.69,0,0,0,245,276.77Z" transform="translate(-206 -206)"/><path class="cls-1" d="M242.26,281.24c-2.3.27-4.62.59-6.93,1a33.26,33.26,0,0,0,11,6A29.75,29.75,0,0,1,242.26,281.24Z" transform="translate(-206 -206)"/><path class="cls-3" d="M292.18,244.85a37.53,37.53,0,0,0-71.31-.07,6.27,6.27,0,0,0-1.88,4.46v14.51a6.32,6.32,0,0,0,1.77,4.36C226.42,283.93,240.45,294,256.5,294a37.56,37.56,0,0,0,35.62-25.78,6.27,6.27,0,0,0,1.88-4.46V249.25A6.18,6.18,0,0,0,292.18,244.85ZM287,243H274a60,60,0,0,0-1.8-7.23c3-.38,6.08-.88,9.13-1.46A33.42,33.42,0,0,1,287,243Zm-9.29-12.22q-3.45.59-6.93,1a30.72,30.72,0,0,0-4.06-7A33.26,33.26,0,0,1,277.67,230.77Zm-19.08-7.23c2.89,1,5.61,4.1,7.77,8.65-2.58.21-5.19.32-7.77.37Zm0,13.18h0c3.15,0,6.27-.22,9.4-.51a53,53,0,0,1,1.82,6.76H258.55v-6.25Zm-4.15-13.18v9c-2.58,0-5.19-.16-7.77-.37C248.8,227.65,251.52,224.57,254.41,223.55Zm0,13.18V243H243.18a53,53,0,0,1,1.82-6.76C248.13,236.52,251.27,236.69,254.4,236.73Zm-8.09-12a31.1,31.1,0,0,0-4.06,7c-2.3-.27-4.62-.59-6.93-1A33.51,33.51,0,0,1,246.31,224.76Zm-14.67,9.55c3,.59,6.06,1.09,9.13,1.46A58.22,58.22,0,0,0,239,243H226A33.41,33.41,0,0,1,231.64,234.3ZM226,270H239a58.39,58.39,0,0,0,1.8,7.2c-3,.38-6.08.88-9.13,1.46A32.87,32.87,0,0,1,226,270Zm9.29,12.22q3.45-.59,6.93-1a31.66,31.66,0,0,0,4.06,7A33.25,33.25,0,0,1,235.33,282.23Zm19.08,7.23c-2.89-1-5.61-4.1-7.77-8.65,2.58-.21,5.19-.32,7.77-.37Zm0-13.18h0c-3.15,0-6.27.22-9.4.51a53,53,0,0,1-1.82-6.76h11.24v6.25h0Zm4.15,13.18v-9c2.58,0,5.19.16,7.77.37C264.19,285.35,261.48,288.43,258.59,289.45Zm0-13.18V270h11.22a53,53,0,0,1-1.82,6.76C264.87,276.49,261.72,276.31,258.6,276.28Zm8.09,12a31.1,31.1,0,0,0,4.06-7c2.3.27,4.62.59,6.93,1A33.5,33.5,0,0,1,266.69,288.24Zm14.67-9.55c-3-.59-6.06-1.09-9.13-1.46A58.22,58.22,0,0,0,274,270H287A33.4,33.4,0,0,1,281.36,278.7Zm6.39-12.85h-62.5a2.08,2.08,0,0,1-2.09-2.09V249.25a2.08,2.08,0,0,1,2.09-2.09h62.5a2.08,2.08,0,0,1,2.09,2.09v14.51h0A2.1,2.1,0,0,1,287.75,265.85Z" transform="translate(-206 -206)"/><polygon class="cls-3" points="36.07 51.61 34 45.14 31.12 45.14 29.03 51.61 26.95 45.14 23.87 45.14 27.5 55.85 30.59 55.85 32.56 50.02 34.53 55.85 37.63 55.85 41.26 45.14 38.16 45.14 36.07 51.61"/><polygon class="cls-3" points="53.99 51.62 51.92 45.15 49.04 45.15 46.95 51.62 44.88 45.15 41.79 45.15 45.42 55.85 48.51 55.85 50.5 50.03 52.45 55.86 55.55 55.86 59.18 45.15 56.08 45.15 53.99 51.62"/><polygon class="cls-3" points="71.94 51.61 69.86 45.14 66.98 45.14 64.89 51.61 62.81 45.14 59.73 45.14 63.36 55.85 66.45 55.85 68.42 50.02 70.39 55.85 73.49 55.85 77.12 45.14 74.02 45.14 71.94 51.61"/><path class="cls-4" d="M270.72,281.31l.09-.06h-.06Z" transform="translate(-206 -206)"/><path class="cls-4" d="M242.2,281.24l.09.06s0,0,0-.07Z" transform="translate(-206 -206)"/><path class="cls-4" d="M270.8,231.76l-.09-.06s0,0,0,.07Z" transform="translate(-206 -206)"/><path class="cls-4" d="M242.28,231.69l-.09.06h.06Z" transform="translate(-206 -206)"/><path class="cls-4" d="M232.51,270a28.75,28.75,0,0,0,5.36,7.62c1-.15,1.91-.3,2.89-.41A58.92,58.92,0,0,1,239,270h-6.45Z" transform="translate(-206 -206)"/><path class="cls-4" d="M232.51,270Z" transform="translate(-206 -206)"/><path class="cls-4" d="M254.4,270H243.18a53,53,0,0,0,1.82,6.76c3.13-.28,6.27-.46,9.4-.51Z" transform="translate(-206 -206)"/><path class="cls-4" d="M274.05,270h0a60,60,0,0,1-1.8,7.23c1,.12,1.91.27,2.89.41A28.76,28.76,0,0,0,280.5,270h-6.45Z" transform="translate(-206 -206)"/><path class="cls-4" d="M246.66,232.2c2.58.21,5.19.32,7.77.37v-5.14a25,25,0,0,0-5.69,1.14A24.57,24.57,0,0,0,246.66,232.2Z" transform="translate(-206 -206)"/><path class="cls-4" d="M258.59,285.58a25,25,0,0,0,5.69-1.14,25.71,25.71,0,0,0,2.06-3.63c-2.58-.21-5.19-.32-7.77-.37v5.14h0Z" transform="translate(-206 -206)"/><path class="cls-4" d="M258.59,276.28c3.15,0,6.27.22,9.4.51a51,51,0,0,0,1.83-6.76H258.57v6.25h0Z" transform="translate(-206 -206)"/><path class="cls-4" d="M258.6,236.73V243h11.22a53,53,0,0,0-1.82-6.76C264.87,236.52,261.72,236.69,258.6,236.73Z" transform="translate(-206 -206)"/><path class="cls-4" d="M264.28,228.56a25,25,0,0,0-5.69-1.14v5.14c2.58,0,5.19-.16,7.77-.37A29.53,29.53,0,0,0,264.28,228.56Z" transform="translate(-206 -206)"/><path class="cls-4" d="M248.72,284.44a25,25,0,0,0,5.69,1.14v-5.14c-2.59,0-5.19.16-7.77.37A31.21,31.21,0,0,0,248.72,284.44Z" transform="translate(-206 -206)"/><path class="cls-4" d="M280.49,243h0a28.75,28.75,0,0,0-5.36-7.62c-1,.15-1.91.3-2.89.41A58.22,58.22,0,0,1,274,243h6.45Z" transform="translate(-206 -206)"/><path class="cls-4" d="M238.95,243a60,60,0,0,1,1.8-7.23c-1-.12-1.91-.27-2.89-.41A28.76,28.76,0,0,0,232.5,243h6.45Z" transform="translate(-206 -206)"/><path class="cls-4" d="M243.18,243h11.24v-6.26c-3.15,0-6.27-.22-9.4-.51A48.11,48.11,0,0,0,243.18,243Z" transform="translate(-206 -206)"/></svg>