<svg id="Layer_1" data-name="Layer 1" xmlns="http://www.w3.org/2000/svg" viewBox="0 0 100 100"><defs><style>.cls-1{fill:#fff;}.cls-2{fill:#ff507d;}.cls-3{fill:#ffdc64;}.cls-4{fill:#b4e66e;}.cls-5{fill:#00c3ff;}.cls-6{fill:#11113f;}</style></defs><title>interests</title><circle class="cls-1" cx="50" cy="50" r="50"/><path class="cls-2" d="M261,227.94v10a2,2,0,0,0,2,2h2a2.92,2.92,0,0,0,2.27-1,5.51,5.51,0,1,1,0,7.05,3,3,0,0,0-2.27-1h-2a2,2,0,0,0-2,2v11H250a2,2,0,0,1-2-2v-2a3,3,0,0,1,1-2.27,5.51,5.51,0,1,0-7.05,0,2.92,2.92,0,0,1,1,2.27v2a2,2,0,0,1-2,2h-10a1,1,0,0,1-1-1V230.95a4,4,0,0,1,4-4H260A1,1,0,0,1,261,227.94Z" transform="translate(-211 -208)"/><path class="cls-3" d="M291.06,258H281a2,2,0,0,0-2,2v2a2.92,2.92,0,0,0,1,2.27,5.51,5.51,0,1,1-7.05,0,3,3,0,0,0,1-2.27v-2a2,2,0,0,0-2-2H261V247a2,2,0,0,1,2-2h2a3,3,0,0,1,2.27,1,5.51,5.51,0,1,0,0-7.05,2.92,2.92,0,0,1-2.27,1h-2a2,2,0,0,1-2-2v-10a1,1,0,0,1,1-1h26.05a4,4,0,0,1,4,4V257A1,1,0,0,1,291.06,258Z" transform="translate(-211 -208)"/><path class="cls-4" d="M261,288.06V278a2,2,0,0,0-2-2h-2a2.92,2.92,0,0,0-2.27,1,5.51,5.51,0,1,1,0-7.05,3,3,0,0,0,2.27,1h2a2,2,0,0,0,2-2V258h11a2,2,0,0,1,2,2v2a3,3,0,0,1-1,2.27,5.51,5.51,0,1,0,7.05,0,2.92,2.92,0,0,1-1-2.27v-2a2,2,0,0,1,2-2h10a1,1,0,0,1,1,1v26.05a4,4,0,0,1-4,4H262A1,1,0,0,1,261,288.06Z" transform="translate(-211 -208)"/><path class="cls-5" d="M230.94,258h10a2,2,0,0,0,2-2v-2a2.92,2.92,0,0,0-1-2.27,5.51,5.51,0,1,1,7.05,0,3,3,0,0,0-1,2.27v2a2,2,0,0,0,2,2h11v11a2,2,0,0,1-2,2h-2a3,3,0,0,1-2.27-1,5.51,5.51,0,1,0,0,7.05,2.92,2.92,0,0,1,2.27-1h2a2,2,0,0,1,2,2v10a1,1,0,0,1-1,1H233.95a4,4,0,0,1-4-4V259A1,1,0,0,1,230.94,258Z" transform="translate(-211 -208)"/><path class="cls-6" d="M288.05,226H233.95a5,5,0,0,0-4.95,4.95v54.11a5,5,0,0,0,4.95,4.95h54.11a5,5,0,0,0,4.95-4.95V230.95A5,5,0,0,0,288.05,226Zm-57.18,59.05V258.94H241A2.94,2.94,0,0,0,243.9,256v-2a3.83,3.83,0,0,0-1.34-3,4.57,4.57,0,0,1,0-7.08,4.62,4.62,0,0,1,3.88-.92,4.57,4.57,0,0,1,1.95,8,3.89,3.89,0,0,0-1.38,3v2a2.94,2.94,0,0,0,2.94,2.94h10.09V269a1.07,1.07,0,0,1-1.06,1.07h-2a2,2,0,0,1-1.55-.71,6.45,6.45,0,0,0-11.23,2.77,6.45,6.45,0,0,0,11.28,5.48A2,2,0,0,1,257,277h2a1.07,1.07,0,0,1,1.06,1.07v10.08H233.95A3.07,3.07,0,0,1,230.88,285.05Zm57.18,3.07H261.94V278A2.94,2.94,0,0,0,259,275.1h-2a3.83,3.83,0,0,0-3,1.34,4.57,4.57,0,0,1-7.08,0,4.62,4.62,0,0,1-.92-3.88,4.57,4.57,0,0,1,8-1.95,3.88,3.88,0,0,0,3,1.38h2a2.94,2.94,0,0,0,2.94-2.94V258.94H272a1.07,1.07,0,0,1,1.07,1.07v2a2,2,0,0,1-.71,1.55,6.45,6.45,0,0,0,2.77,11.23,6.7,6.7,0,0,0,1.37.14,6.44,6.44,0,0,0,4.11-11.42A2,2,0,0,1,280,262v-2a1.07,1.07,0,0,1,1.07-1.07h9.37c.52,0-.09-.33-.09-.84s.26-1-.25-1h-9A2.94,2.94,0,0,0,278.1,260v2a3.83,3.83,0,0,0,1.34,3,4.57,4.57,0,0,1,0,7.08,4.62,4.62,0,0,1-3.88.92,4.57,4.57,0,0,1-1.95-8,3.89,3.89,0,0,0,1.38-3v-2a2.94,2.94,0,0,0-2.94-2.94H261.94V247a1.07,1.07,0,0,1,1.07-1.07h2a2,2,0,0,1,1.55.71,6.45,6.45,0,0,0,11.23-2.77,6.45,6.45,0,0,0-11.28-5.48A2,2,0,0,1,265,239h-2a1.07,1.07,0,0,1-1.06-1.07v-9.13c0-.52-.44,0-1,0s-.92-.46-.92.06V238A2.94,2.94,0,0,0,263,240.9h2a3.83,3.83,0,0,0,3-1.34,4.57,4.57,0,0,1,7.08,0,4.62,4.62,0,0,1,.92,3.88,4.57,4.57,0,0,1-8,1.95,3.89,3.89,0,0,0-3-1.38h-2a2.94,2.94,0,0,0-2.94,2.94v10.09H250a1.07,1.07,0,0,1-1.07-1.07v-2a2,2,0,0,1,.71-1.55,6.45,6.45,0,0,0-2.77-11.23,6.46,6.46,0,0,0-7.83,6.3,6.42,6.42,0,0,0,2.35,5A2,2,0,0,1,242,254v2a1.07,1.07,0,0,1-1.07,1.06H230.88V230.95a3.07,3.07,0,0,1,3.07-3.07h26.12v1.07a.94.94,0,0,0,1.88,0v-1.07h26.12a3.07,3.07,0,0,1,3.07,3.07v26.12h-1.07a.94.94,0,1,0,0,1.88h1.07v26.12A3.07,3.07,0,0,1,288.05,288.13Z" transform="translate(-211 -208)"/></svg>