<svg id="Layer_1" data-name="Layer 1" xmlns="http://www.w3.org/2000/svg" viewBox="0 0 22 20"><defs><style>.cls-1{fill:#fff;}</style></defs><title>language-icon</title><path class="cls-1" d="M261.87,261.08h0l-2.54-2.51,0,0a17.52,17.52,0,0,0,3.71-6.53H266v-2h-7v-2h-2v2h-7v2h11.17a15.79,15.79,0,0,1-3.17,5.36,15.77,15.77,0,0,1-2.31-3.35h-2a17.56,17.56,0,0,0,3,4.56l-5.08,5L253,265l5-5,3.11,3.11Z" transform="translate(-250 -248)"/><path class="cls-1" d="M267.5,256h-2L261,268h2l1.12-3h4.75l1.12,3h2Zm-2.62,7,1.63-4.33,1.63,4.33Z" transform="translate(-250 -248)"/></svg>