<svg id="Layer_1" data-name="Layer 1" xmlns="http://www.w3.org/2000/svg" viewBox="0 0 100 100"><defs><style>.cls-1{fill:#fff;}.cls-2{fill:#ff1547;}.cls-3{fill:#11113f;}</style></defs><title>like-heart</title><circle class="cls-1" cx="50" cy="50" r="50"/><polygon class="cls-2" points="50 36.42 40.53 29.62 30.65 29.62 20.65 36.42 17.45 47.01 20.91 56.04 49.2 83.79 56.94 79.52 80.55 54.7 82.42 43.9 76.68 32.82 67.08 28.42 57.07 30.82 50 36.42"/><path class="cls-3" d="M284.83,238.7a18.94,18.94,0,0,0-26.95-.15L256,240.4l-1.85-1.85a18.95,18.95,0,0,0-26.79,26.79L251.07,289a7,7,0,0,0,9.92,0l23.53-23.53A19.12,19.12,0,0,0,284.83,238.7ZM282,263l-23.53,23.53a3.51,3.51,0,0,1-5,0l-23.68-23.68A15.44,15.44,0,1,1,251.71,241l1.85,1.85-2.83,2.84a1.75,1.75,0,1,0,2.48,2.48l7.16-7.16a15.44,15.44,0,0,1,22,.13A15.6,15.6,0,0,1,282,263Z" transform="translate(-206 -206)"/><path class="cls-3" d="M284.06,251.15a12.81,12.81,0,0,0-9.33-11.54,1.75,1.75,0,0,0-.94,3.38,9.31,9.31,0,0,1,6.77,8.38,1.75,1.75,0,0,0,1.75,1.65h.11A1.75,1.75,0,0,0,284.06,251.15Z" transform="translate(-206 -206)"/></svg>