<svg id="Layer_1" data-name="Layer 1" xmlns="http://www.w3.org/2000/svg" viewBox="0 0 100 100"><defs><style>.cls-1{fill:#fff;}.cls-2{fill:#beff80;}.cls-3{fill:#ff003d;}.cls-4{fill:#11113f;}</style></defs><title>map-marker</title><circle class="cls-1" cx="50" cy="50" r="50"/><polygon class="cls-2" points="38.03 56.94 61.13 56.94 76.21 76.93 23.67 77.89 38.03 56.94"/><circle class="cls-3" cx="50" cy="30.61" r="7.3"/><path class="cls-4" d="M290.38,284.38l-15.53-20.74a2.58,2.58,0,0,0-2.07-1H262.72V249.82a11.3,11.3,0,1,0-3.44,0V262.6H249.21a2.58,2.58,0,0,0-2.07,1l-15.63,20.88a2.58,2.58,0,0,0,2.07,4.13h54.84a2.58,2.58,0,0,0,2-4.26Zm-35.52-45.72a6.13,6.13,0,1,1,6.13,6.13A6.14,6.14,0,0,1,254.86,238.66Zm-16.13,44.82,11.76-15.71h8.77v3.37c-2.75.35-4.78,1.51-4.78,2.88,0,1.65,2.91,3,6.5,3s6.5-1.34,6.5-3c0-1.38-2-2.54-4.78-2.88v-3.37h8.77l11.76,15.71Z" transform="translate(-211 -208)"/></svg>