<svg id="Layer_1" data-name="Layer 1" xmlns="http://www.w3.org/2000/svg" viewBox="0 0 14.49 20"><defs><style>.cls-1{fill:#fff;}</style></defs><title>map-mark</title><path class="cls-1" d="M261,248a7.25,7.25,0,0,0-7.24,7.24c0,5,6.48,12.23,6.76,12.54a.65.65,0,0,0,1,0c.28-.31,6.76-7.58,6.76-12.54A7.25,7.25,0,0,0,261,248Zm0,18.35c-2.18-2.59-5.94-7.7-5.94-11.11a5.94,5.94,0,1,1,11.88,0C266.94,258.64,263.18,263.76,261,266.35Z" transform="translate(-253.76 -248)"/><path class="cls-1" d="M261,251.6a3.64,3.64,0,1,0,3.64,3.64A3.65,3.65,0,0,0,261,251.6Zm0,6a2.34,2.34,0,1,1,2.34-2.34A2.34,2.34,0,0,1,261,257.58Z" transform="translate(-253.76 -248)"/></svg>