<svg id="Layer_1" data-name="Layer 1" xmlns="http://www.w3.org/2000/svg" viewBox="0 0 100 100"><defs><style>.cls-1{fill:#fff;}.cls-2{fill:#3f3f3f;}.cls-3{fill:#e1e2d9;}.cls-4{fill:#b73b0f;}.cls-5{fill:#ff500b;}.cls-6{fill:#11113f;}</style></defs><title>megaphone</title><circle class="cls-1" cx="50" cy="50" r="50"/><polygon class="cls-2" points="23.25 40.44 14.48 46.14 14.48 50.09 24.28 54.32 23.25 40.44"/><polygon class="cls-1" points="59.06 25.53 64.32 22.61 67.39 26.41 66.52 69.67 61.84 69.67 59.06 68.94 59.06 25.53"/><polygon class="cls-3" points="41.96 36.64 59.06 28.45 59.06 67.77 51.61 60.46 41.23 57.69 41.96 36.64"/><polyline class="cls-4" points="27.35 57.83 36.7 57.83 36.7 72.01 32.61 76.25 27.35 73.03 27.35 57.83"/><polygon class="cls-5" points="25.01 36.64 41.23 37.22 41.23 57.69 23.98 57.69 25.01 36.64"/><path class="cls-6" d="M371.22,293.31h-6.58a2.19,2.19,0,0,0,0,4.38h6.58a2.19,2.19,0,0,0,0-4.38Z" transform="translate(-286 -246)"/><path class="cls-6" d="M368.39,307.1,364,302.72a2.19,2.19,0,0,0-3.1,3.1l4.38,4.38a2.19,2.19,0,0,0,3.1-3.1Z" transform="translate(-286 -246)"/><path class="cls-6" d="M368.39,280.8a2.19,2.19,0,0,0-3.1,0l-4.38,4.38a2.19,2.19,0,1,0,3.1,3.1l4.38-4.38A2.19,2.19,0,0,0,368.39,280.8Z" transform="translate(-286 -246)"/><path class="cls-6" d="M349.3,267a6.59,6.59,0,0,0-6.5,5.6l-2,2a19.74,19.74,0,0,1-13.71,5.56H313.93a6.59,6.59,0,0,0-6.2,4.38h-.38a8.77,8.77,0,0,0,0,17.54h.38a6.61,6.61,0,0,0,4,4v11.34a6.58,6.58,0,1,0,13.15,0v-11h2.19A19.74,19.74,0,0,1,340.8,312l2,2a6.58,6.58,0,0,0,13.08-1V273.58A6.58,6.58,0,0,0,349.3,267Zm-41.95,30.69a4.38,4.38,0,0,1,0-8.77Zm13.15,19.73a2.19,2.19,0,1,1-4.38,0v-11h4.38Zm4.38-15.35h-11a2.19,2.19,0,0,1-2.19-2.19V286.73a2.19,2.19,0,0,1,2.19-2.19h11Zm17.83,5.75a24,24,0,0,0-13.46-5.65V284.44a24,24,0,0,0,13.46-5.65Zm8.77,5.21a2.19,2.19,0,0,1-2.19,2.19h0a2.19,2.19,0,0,1-2.19-2.19V273.58a2.19,2.19,0,1,1,4.38,0Z" transform="translate(-286 -246)"/></svg>