<svg id="Layer_1" data-name="Layer 1" xmlns="http://www.w3.org/2000/svg" viewBox="0 0 100 100"><defs><style>.cls-1{fill:#fff;}.cls-2{fill:#11113f;}.cls-3{fill:#6f7ccd;}.cls-4{fill:#9b8ccc;}</style></defs><title>messenger</title><circle class="cls-1" cx="50" cy="50" r="50"/><path class="cls-2" d="M297.79,259a3.4,3.4,0,0,1-2,4.37L253.49,279a3.4,3.4,0,0,1-4.37-2l-8.67-23.44a3.4,3.4,0,0,1,2-4.37l42.29-15.65a3.4,3.4,0,0,1,4.37,2Zm-3.8-.48-7.53-20.34-10.31,14.74Zm-38.61,16.17,36.15-13.37-17.42-5.46-2.69,3.85a1.7,1.7,0,0,1-1.39.73,1.74,1.74,0,0,1-.42-.05L265,259.16Zm13.92-17.9L282.42,238,247.14,251Zm-17.61,17.38,9.9-15.85-17.42-4.48Z" transform="translate(-211 -208)"/><polygon class="cls-3" points="75.46 30.14 82.99 50.48 65.15 44.88 75.46 30.14"/><path class="cls-3" d="M291.53,261.27l-36.15,13.37L265,259.16l4.55,1.17a1.73,1.73,0,0,0,.42.05,1.7,1.7,0,0,0,1.39-.73l2.69-3.85Z" transform="translate(-211 -208)"/><polygon class="cls-4" points="71.42 29.99 58.3 48.74 36.14 43.04 71.42 29.99"/><polygon class="cls-3" points="50.59 50.27 40.69 66.12 33.17 45.79 50.59 50.27"/><path class="cls-2" d="M241.81,277.42a1.7,1.7,0,0,1-1,2.18L234.4,282a1.72,1.72,0,0,1-.59.11,1.7,1.7,0,0,1-.59-3.3l6.41-2.37A1.7,1.7,0,0,1,241.81,277.42Z" transform="translate(-211 -208)"/><path class="cls-2" d="M233.14,261.64a1.7,1.7,0,0,1-1,2.18l-4,1.46A1.7,1.7,0,0,1,227,262.1l4-1.46A1.7,1.7,0,0,1,233.14,261.64Z" transform="translate(-211 -208)"/><path class="cls-2" d="M228.24,274.52a1.7,1.7,0,0,1-1,2.18l-2.94,1.09a1.7,1.7,0,0,1-1.18-3.19l2.94-1.09A1.7,1.7,0,0,1,228.24,274.52Z" transform="translate(-211 -208)"/></svg>