<svg id="Layer_1" data-name="Layer 1" xmlns="http://www.w3.org/2000/svg" viewBox="0 0 100 100"><defs><style>.cls-1{fill:#fff;}.cls-2{fill:#ffa80d;}.cls-3{fill:#ffed0b;}.cls-4{fill:#ff0861;}.cls-5{fill:#11113f;}</style></defs><title>quality</title><circle class="cls-1" cx="50" cy="50" r="50"/><circle class="cls-2" cx="50" cy="40.27" r="25.14"/><circle class="cls-3" cx="50" cy="40.27" r="12.49"/><polygon class="cls-4" points="35.68 59.75 35.68 86.26 50 80.01 64.32 86.26 64.32 62.03 59.06 66.76 50 63.1 40.94 66.91 35.68 59.75"/><path class="cls-5" d="M366.46,284.59l-5.93-6.13,1.19-8.44a2.42,2.42,0,0,0-2-2.72l-8.4-1.47-4-7.54a2.42,2.42,0,0,0-3.2-1L336.49,261l-7.66-3.75a2.42,2.42,0,0,0-3.2,1l-4,7.54-8.4,1.47a2.42,2.42,0,0,0-2,2.72l1.19,8.44-5.93,6.13a2.42,2.42,0,0,0,0,3.36l5.93,6.13-1.19,8.45a2.42,2.42,0,0,0,2,2.72l6.72,1.18v26.15a2.42,2.42,0,0,0,3.5,2.16l13-6.52,13,6.52a2.42,2.42,0,0,0,3.5-2.16V306.43l6.72-1.18a2.42,2.42,0,0,0,2-2.72l-1.19-8.45,5.93-6.13A2.42,2.42,0,0,0,366.46,284.59Zm-28.89,38.77a2.42,2.42,0,0,0-2.16,0l-10.62,5.31v-16l.84,1.58a2.42,2.42,0,0,0,3.2,1l7.66-3.75,7.66,3.75a2.42,2.42,0,0,0,3.2-1l.84-1.58v16Zm18.66-31.79a2.42,2.42,0,0,0-.66,2l1,7.3-7.26,1.27a2.42,2.42,0,0,0-1.72,1.25l-3.46,6.51-6.62-3.24a2.42,2.42,0,0,0-2.12,0l-6.62,3.24-3.46-6.51a2.42,2.42,0,0,0-1.72-1.25l-7.26-1.27,1-7.3a2.42,2.42,0,0,0-.66-2l-5.13-5.3,5.13-5.3a2.42,2.42,0,0,0,.66-2l-1-7.3,7.26-1.27a2.42,2.42,0,0,0,1.72-1.25l3.46-6.51,6.62,3.24a2.42,2.42,0,0,0,2.12,0l6.62-3.24,3.46,6.51a2.42,2.42,0,0,0,1.72,1.25l7.26,1.27-1,7.3a2.42,2.42,0,0,0,.66,2l5.13,5.3Z" transform="translate(-286.49 -246)"/><path class="cls-5" d="M336.49,269.74A16.54,16.54,0,1,0,353,286.27,16.55,16.55,0,0,0,336.49,269.74Zm0,28.24a11.7,11.7,0,1,1,11.7-11.7A11.71,11.71,0,0,1,336.49,298Z" transform="translate(-286.49 -246)"/><path class="cls-5" d="M341.42,280.14l-7.14,7.14-2.72-2.71a2.42,2.42,0,1,0-3.42,3.42l4.43,4.42a2.42,2.42,0,0,0,3.42,0l8.85-8.85a2.42,2.42,0,0,0-3.42-3.42Z" transform="translate(-286.49 -246)"/></svg>