<svg id="Layer_1" data-name="Layer 1" xmlns="http://www.w3.org/2000/svg" viewBox="0 0 100 100"><defs><style>.cls-1{fill:#fff;}.cls-2{fill:#e2dec0;}.cls-2,.cls-3{stroke:#000;stroke-miterlimit:10;}.cls-3{fill:#f9f7dc;}.cls-4{fill:#e2ff78;}.cls-5{fill:#88eab2;}.cls-6{fill:#11113f;}</style></defs><title>resume</title><circle class="cls-1" cx="50" cy="50" r="50"/><polygon class="cls-2" points="58.87 16.32 73.15 31.79 58.28 31.79 58.87 16.32"/><polygon class="cls-3" points="25.65 16.32 58 16.32 58 30.89 73.3 32.44 74.32 78.68 25.07 78.68 25.65 16.32"/><circle class="cls-4" cx="41.61" cy="27.04" r="3.44"/><polygon class="cls-5" points="35.99 39.34 36.69 36.13 39.34 33.94 44.73 33.94 46.67 35.4 47.28 40.89 36.11 40.89 35.99 39.34"/><path class="cls-6" d="M281.23,238.07V238l0-.1h0l0-.1h0l0-.09v0l0-.08v0l0-.07,0,0-.07-.07h0l-16-16h0l-.09-.08,0,0-.07-.05h0l-.08,0h0l-.09,0h0l-.1,0h0l-.11,0h0l-.1,0H231.35a1.2,1.2,0,0,0-1.2,1.2v62.6a1.2,1.2,0,0,0,1.2,1.2H280a1.2,1.2,0,0,0,1.2-1.2V238.19h0S281.23,238.11,281.23,238.07ZM277.14,237h-11.9V225.1Zm1.7,46.61H232.55V223.4h30.3v14.8a1.2,1.2,0,0,0,1.2,1.2h14.79Z" transform="translate(-206 -206)"/><path class="cls-6" d="M247.68,237.79a5,5,0,1,0-5-5A5,5,0,0,0,247.68,237.79Zm0-7.58a2.59,2.59,0,1,1-2.59,2.59A2.59,2.59,0,0,1,247.68,230.21Z" transform="translate(-206 -206)"/><path class="cls-6" d="M242.11,246.89a1.2,1.2,0,0,0,1.2-1.2v-2.1a2.47,2.47,0,0,1,2.47-2.47h3.84a2.47,2.47,0,0,1,2.47,2.47v2.1a1.2,1.2,0,0,0,2.4,0v-2.1a4.87,4.87,0,0,0-4.87-4.87h-3.84a4.87,4.87,0,0,0-4.87,4.87v2.1A1.2,1.2,0,0,0,242.11,246.89Z" transform="translate(-206 -206)"/><path class="cls-6" d="M240.91,255.36a1.2,1.2,0,0,0,1.2,1.2h27.17a1.2,1.2,0,1,0,0-2.4H242.11A1.2,1.2,0,0,0,240.91,255.36Z" transform="translate(-206 -206)"/><path class="cls-6" d="M269.28,271.91H242.11a1.2,1.2,0,0,0,0,2.4h27.17a1.2,1.2,0,1,0,0-2.4Z" transform="translate(-206 -206)"/><path class="cls-6" d="M269.28,263H242.11a1.2,1.2,0,0,0,0,2.4h27.17a1.2,1.2,0,1,0,0-2.4Z" transform="translate(-206 -206)"/></svg>