<svg id="Layer_1" data-name="Layer 1" xmlns="http://www.w3.org/2000/svg" viewBox="0 0 100 100"><defs><style>.cls-1{fill:#fff;}.cls-2{fill:#aaced6;}.cls-3{fill:none;stroke:#11113f;stroke-linecap:round;stroke-linejoin:round;stroke-width:5px;}</style></defs><title>ringing-phone</title><circle class="cls-1" cx="50" cy="50" r="50"/><polyline class="cls-2" points="22 70.73 34.87 57.52 40.42 61.49 62.01 41.19 62.55 40.02 58.55 34.83 71.35 21 78.96 29.5 77.59 38.33 66.33 55.73 50.1 70.56 34.31 77.96 27.46 76.82 22 70.73"/><path class="cls-3" d="M322.9,304l3,3a1.84,1.84,0,0,0,2.6,0l19.82-19.82a1.84,1.84,0,0,0,0-2.6l-3-3a1.84,1.84,0,0,1,0-2.6l11.45-11.45a1.84,1.84,0,0,1,2.64,0c2,2.08,5.51,6.24,5.83,9.74.6,6.56-6.34,18.48-17.23,29.38s-22.82,17.84-29.38,17.23c-3.5-.32-7.66-3.85-9.74-5.83a1.84,1.84,0,0,1,0-2.64L320.3,304A1.84,1.84,0,0,1,322.9,304Z" transform="translate(-286.31 -246)"/><path class="cls-3" d="M311.05,291.88H311a1.84,1.84,0,0,1-1.84-2,24.14,24.14,0,0,1,22-22,1.84,1.84,0,0,1,2,1.84v.05A22.14,22.14,0,0,0,311.05,291.88Z" transform="translate(-286.31 -246)"/><path class="cls-3" d="M319.93,291.88h0a1.84,1.84,0,0,1-1.82-2.11,15.26,15.26,0,0,1,13-13,1.84,1.84,0,0,1,2.11,1.82h0A13.26,13.26,0,0,0,319.93,291.88Z" transform="translate(-286.31 -246)"/></svg>