<svg id="Layer_1" data-name="Layer 1" xmlns="http://www.w3.org/2000/svg" viewBox="0 0 100 100"><defs><style>.cls-1{fill:#fff;}.cls-2{fill:#95a3ba;}.cls-3{fill:#e0daaa;}.cls-4{fill:#11113f;}</style></defs><title>self-avatar</title><circle class="cls-1" cx="50" cy="50" r="50"/><polygon class="cls-2" points="26.88 65.39 36.51 61.74 61.91 61.74 74.2 65.39 75.69 79.5 24.72 79.5 26.88 65.39"/><polygon class="cls-3" points="34.18 38.82 36.01 35.5 38.17 24.21 49.95 19.4 59.42 21.89 64.24 31.35 65.4 38.82 65.4 42.31 58.09 55.59 58.09 58.58 61.08 60.91 60.25 63.9 49.96 67.71 41.99 66.05 36.18 62.57 42.98 59.08 43.98 54.76 40.33 50.45 34.18 38.82"/><path class="cls-4" d="M243,254.08a14.42,14.42,0,0,0,5.18,7.68l0,2.65c-3.21,1.07-12.33,4.18-16.19,6.3a1.66,1.66,0,0,0-.75.87c-.13.34-3.19,8.51-1.85,14.63a1.66,1.66,0,0,0,1.62,1.31h51a1.66,1.66,0,0,0,1.62-1.31c1.33-6.1-1.49-14.24-1.61-14.59a1.66,1.66,0,0,0-.77-.9c-3.83-2.1-12.41-5.23-15.49-6.33v-2.67a23.94,23.94,0,0,0,4.49-7.51c1.15-.94,4.17-3.76,4.17-7.59,0-2.68-1.17-4-2.54-4.48.28-3,.29-9-3.2-13.25-2.49-3-6.22-4.57-11.09-4.57h-2.05c-4.87,0-8.6,1.54-11.08,4.56-3.46,4.22-3.45,10.18-3.16,13.21-1.33.45-2.47,1.76-2.47,4.41C238.77,250.26,241.74,253.07,243,254.08Zm26.49,15.22c3.29,1.25,7.18,2.8,9.56,4,.53,1.71,1.94,6.73,1.51,10.87H232.35c-.4-4.14,1.14-9.18,1.71-10.86a87.3,87.3,0,0,1,8.34-3.42c1.39,1.45,6.1,5.82,12.66,6.08h.63c4.72,0,9.28-2.17,13.57-6.45A1.68,1.68,0,0,0,269.46,269.3Zm-27.14-24.07h.06l.19,0a1.59,1.59,0,0,0,1.65-.25,1.67,1.67,0,0,0,.55-1.64c0-.08-1.52-7.82,2.22-12.38,1.82-2.22,4.68-3.35,8.51-3.35h2c3.83,0,6.69,1.12,8.52,3.34,3.74,4.54,2.28,12.32,2.26,12.39a1.66,1.66,0,0,0,.52,1.61,1.59,1.59,0,0,0,1.61.3l.17,0s.13,0,.16,0a2.21,2.21,0,0,1,.26,1.32c0,2.9-3.16,5.19-3.19,5.21a1.66,1.66,0,0,0-.61.8c-.49,1.39-2.22,5.37-4.27,7.1a1.66,1.66,0,0,0-.59,1.27v4.56a1.66,1.66,0,0,0,1.11,1.57L266,268c-3.51,3.22-7.15,4.79-10.82,4.64a15.69,15.69,0,0,1-9.3-4c2.47-.86,4.29-1.45,4.33-1.47a1.66,1.66,0,0,0,1.15-1.55l.09-4.76a1.66,1.66,0,0,0-.85-1.48c-3.55-2-4.57-6.59-4.58-6.63a1.67,1.67,0,0,0-.67-1s-3.3-2.36-3.3-5.26A2.27,2.27,0,0,1,242.32,245.23Z" transform="translate(-206.5 -206.31)"/></svg>