<svg id="Layer_1" data-name="Layer 1" xmlns="http://www.w3.org/2000/svg" viewBox="0 0 100 100"><defs><style>.cls-1{fill:#fff;}.cls-2{fill:#a7a9ac;}.cls-3{fill:#11113f;}</style></defs><title>setting-ad</title><circle class="cls-1" cx="50" cy="50" r="50"/><path id="_Compound_Path_" data-name="&lt;Compound Path&gt;" class="cls-2" d="M253,245.18h2.38a14.46,14.46,0,0,0,2.15,5.21l-1.69,1.69a1.54,1.54,0,0,0,0,2.18l1.83,1.83a1.54,1.54,0,0,0,2.18,0l1.69-1.69a14.32,14.32,0,0,0,5.21,2.15v2.38a1.54,1.54,0,0,0,1.54,1.54h2.6a1.54,1.54,0,0,0,1.54-1.54v-2.38a14.46,14.46,0,0,0,5.21-2.15l1.69,1.69a1.54,1.54,0,0,0,2.18,0l1.83-1.83a1.54,1.54,0,0,0,0-2.18l-1.69-1.69a14.32,14.32,0,0,0,2.15-5.21h2.38a1.54,1.54,0,0,0,1.54-1.54v-2.58a1.54,1.54,0,0,0-1.54-1.54h-2.38a14.46,14.46,0,0,0-2.15-5.21l1.69-1.69a1.54,1.54,0,0,0,0-2.18l-1.85-1.83a1.54,1.54,0,0,0-2.18,0l-1.69,1.69a14.32,14.32,0,0,0-5.21-2.15v-2.38a1.54,1.54,0,0,0-1.54-1.54h-2.6a1.54,1.54,0,0,0-1.54,1.54v2.38a14.46,14.46,0,0,0-5.21,2.15l-1.67-1.69a1.54,1.54,0,0,0-2.18,0l-1.83,1.83a1.54,1.54,0,0,0,0,2.18l1.69,1.69a14.32,14.32,0,0,0-2.15,5.21H253a1.54,1.54,0,0,0-1.54,1.54v2.6A1.53,1.53,0,0,0,253,245.18Zm16.58-9.4a6.57,6.57,0,1,1-6.57,6.57A6.58,6.58,0,0,1,269.54,235.78Z" transform="translate(-206 -206)"/><path class="cls-3" d="M269.63,273.65a.9.9,0,0,1-1.18.5l-3-1.26a1.2,1.2,0,0,0-1.47.44,18.52,18.52,0,0,1-5.15,5.15,1.2,1.2,0,0,0-.44,1.47l1.24,3a.9.9,0,0,1-.5,1.18l-3.29,1.38a.9.9,0,0,1-1.18-.5l-1.26-3a1.2,1.2,0,0,0-1.35-.72,18.52,18.52,0,0,1-7.28,0,1.21,1.21,0,0,0-1.35.72l-1.26,3a.91.91,0,0,1-1.18.5l-3.29-1.37a.91.91,0,0,1-.5-1.19l1.26-3a1.2,1.2,0,0,0-.44-1.47,18.52,18.52,0,0,1-5.15-5.15,1.2,1.2,0,0,0-1.47-.44l-3,1.26a.9.9,0,0,1-1.18-.5l-1.37-3.29a.9.9,0,0,1,.5-1.18l3-1.26a1.2,1.2,0,0,0,.72-1.35,18.52,18.52,0,0,1,0-7.28,1.21,1.21,0,0,0-.72-1.35l-3-1.26a.91.91,0,0,1-.5-1.19l1.37-3.29a.91.91,0,0,1,1.19-.5l3,1.26a1.2,1.2,0,0,0,1.47-.44,18.52,18.52,0,0,1,5.15-5.15,1.2,1.2,0,0,0,.44-1.47l-1.26-3a.91.91,0,0,1,.5-1.19l3.29-1.37a.9.9,0,0,1,1.18.5l1.26,3a1.21,1.21,0,1,0,2.24-.92l-1.26-3a3.34,3.34,0,0,0-4.35-1.81l-3.29,1.37a3.32,3.32,0,0,0-1.81,1.81,3.38,3.38,0,0,0,0,2.56l.88,2.13a21.07,21.07,0,0,0-4.43,4.43l-2.13-.88a3.38,3.38,0,0,0-2.56,0,3.32,3.32,0,0,0-1.81,1.81l-1.37,3.29a3.38,3.38,0,0,0,0,2.56,3.32,3.32,0,0,0,1.81,1.81l2.13.88a20.48,20.48,0,0,0,0,6.26l-2.13.88a3.34,3.34,0,0,0-1.81,4.35l1.37,3.25a3.33,3.33,0,0,0,4.35,1.81l2.13-.88a21.07,21.07,0,0,0,4.43,4.43l-.88,2.13a3.38,3.38,0,0,0,0,2.56,3.32,3.32,0,0,0,1.81,1.81l3.29,1.37a3.33,3.33,0,0,0,4.35-1.81l.88-2.13a20.48,20.48,0,0,0,6.26,0l.88,2.13a3.35,3.35,0,0,0,3.08,2.06,3.27,3.27,0,0,0,1.27-.25l3.29-1.37a3.34,3.34,0,0,0,1.81-4.35l-.88-2.13a21.07,21.07,0,0,0,4.43-4.43l2.13.88a3.32,3.32,0,0,0,4.35-1.81l1.37-3.29a3.38,3.38,0,0,0,0-2.56,3.32,3.32,0,0,0-1.81-1.81l-3-1.26a1.21,1.21,0,0,0-.92,2.24l3,1.26a.91.91,0,0,1,.5,1.19Z" transform="translate(-206 -206)"/><path class="cls-3" d="M248.32,254.64a1.21,1.21,0,0,0,0-2.42h0a10.7,10.7,0,0,0,.07,21.4h.08a10.69,10.69,0,0,0,10.63-10.77,1.21,1.21,0,0,0-1.22-1.2h0a1.21,1.21,0,0,0-1.2,1.22,8.27,8.27,0,0,1-8.22,8.34h-.07a8.28,8.28,0,0,1-5.89-14.09A8.36,8.36,0,0,1,248.32,254.64Z" transform="translate(-206 -206)"/><path class="cls-3" d="M286.14,246.4a2.76,2.76,0,0,0,2.76-2.76v-2.58a2.76,2.76,0,0,0-2.76-2.76h-1.41a15.62,15.62,0,0,0-1.58-3.81l1-1a2.76,2.76,0,0,0,0-3.9l-1.83-1.83a2.73,2.73,0,0,0-1.94-.8,2.69,2.69,0,0,0-1.94.8l-1,1a15.31,15.31,0,0,0-3.81-1.58v-1.42a2.76,2.76,0,0,0-2.76-2.76h-2.6a2.76,2.76,0,0,0-2.76,2.76v1.42a15.62,15.62,0,0,0-3.81,1.58l-1-1a2.73,2.73,0,0,0-1.94-.8,2.69,2.69,0,0,0-1.94.8L255,229.59a2.76,2.76,0,0,0,0,3.9l1,1a15.31,15.31,0,0,0-1.58,3.81H253a2.76,2.76,0,0,0-2.76,2.76v2.6a2.76,2.76,0,0,0,2.76,2.76h1.42a15.62,15.62,0,0,0,1.58,3.81l-1,1a2.76,2.76,0,0,0,0,3.9l1.83,1.83a2.73,2.73,0,0,0,1.94.8,2.69,2.69,0,0,0,1.94-.8l1-1a15.31,15.31,0,0,0,3.81,1.58V259a2.76,2.76,0,0,0,2.76,2.76h2.6a2.76,2.76,0,0,0,2.76-2.76v-1.43a15.62,15.62,0,0,0,3.81-1.58l1,1a2.73,2.73,0,0,0,1.94.8,2.69,2.69,0,0,0,1.94-.8l1.83-1.83a2.76,2.76,0,0,0,0-3.9l-1-1a15.31,15.31,0,0,0,1.58-3.81ZM282.57,245a13,13,0,0,1-2,4.78,1.21,1.21,0,0,0,.15,1.53l1.69,1.69a.32.32,0,0,1,0,.47l-1.83,1.83a.32.32,0,0,1-.23.09.3.3,0,0,1-.23-.09l-1.69-1.69a1.2,1.2,0,0,0-1.53-.15,13.27,13.27,0,0,1-4.78,2,1.22,1.22,0,0,0-1,1.19V259a.33.33,0,0,1-.32.32h-2.6a.33.33,0,0,1-.32-.32v-2.38a1.23,1.23,0,0,0-1-1.19,13,13,0,0,1-4.78-2,1.22,1.22,0,0,0-.67-.2,1.19,1.19,0,0,0-.86.36L259,255.26a.32.32,0,0,1-.23.09.3.3,0,0,1-.23-.09l-1.83-1.83a.32.32,0,0,1,0-.47l1.69-1.69a1.2,1.2,0,0,0,.15-1.53,13.27,13.27,0,0,1-2-4.78,1.22,1.22,0,0,0-1.19-1H253a.33.33,0,0,1-.32-.32v-2.61a.33.33,0,0,1,.32-.32h2.38a1.23,1.23,0,0,0,1.19-1,13,13,0,0,1,2-4.78,1.21,1.21,0,0,0-.15-1.53l-1.69-1.69a.32.32,0,0,1-.09-.23.3.3,0,0,1,.09-.23l1.82-1.85a.32.32,0,0,1,.23-.09.3.3,0,0,1,.23.09l1.69,1.69a1.2,1.2,0,0,0,1.53.15,13.27,13.27,0,0,1,4.78-2,1.22,1.22,0,0,0,1-1.19v-2.37a.33.33,0,0,1,.32-.32h2.6a.33.33,0,0,1,.32.32v2.38a1.23,1.23,0,0,0,1,1.19,13,13,0,0,1,4.78,2,1.21,1.21,0,0,0,1.53-.15l1.69-1.69a.32.32,0,0,1,.23-.09.3.3,0,0,1,.23.09l1.83,1.83a.32.32,0,0,1,0,.47l-1.69,1.69a1.2,1.2,0,0,0-.15,1.53,13.27,13.27,0,0,1,2,4.78,1.22,1.22,0,0,0,1.19,1h2.38a.33.33,0,0,1,.32.32v2.6a.33.33,0,0,1-.32.32h-2.38A1.17,1.17,0,0,0,282.57,245Z" transform="translate(-206 -206)"/><path class="cls-3" d="M269.55,234.56a7.78,7.78,0,1,0,7.78,7.78A7.78,7.78,0,0,0,269.55,234.56Zm0,13.13a5.35,5.35,0,1,1,5.35-5.35A5.35,5.35,0,0,1,269.55,247.7Z" transform="translate(-206 -206)"/></svg>