<svg id="Layer_1" data-name="Layer 1" xmlns="http://www.w3.org/2000/svg" viewBox="0 0 100 100"><defs><style>.cls-1{fill:#fff;}.cls-2{fill:#ffdaae;}.cls-3{fill:#ff5a5a;}.cls-4{fill:#ff9d21;}.cls-5{fill:#96c8eb;}.cls-6{fill:#bf9a94;}.cls-7{fill:#11113f;}</style></defs><title>shop</title><circle class="cls-1" cx="50" cy="50" r="50"/><polygon class="cls-2" points="35.37 28.19 45.12 28.19 54.88 28.19 64.63 28.19 74.39 28.19 74.39 23.24 25.61 23.24 25.61 28.19 35.37 28.19"/><path class="cls-3" d="M237.71,246.21l3.66-12h-9.75l-6.1,12v3a6.1,6.1,0,0,0,12.19,0Z" transform="translate(-206 -206)"/><path class="cls-4" d="M241.37,234.19l-3.66,12v3a6.1,6.1,0,0,0,12.19,0v-3l1.22-12Z" transform="translate(-206 -206)"/><path class="cls-3" d="M251.12,234.19l-1.22,12v3a6.1,6.1,0,0,0,12.19,0v-3l-1.22-12Z" transform="translate(-206 -206)"/><path class="cls-4" d="M260.88,234.19l1.22,12v3a6.1,6.1,0,0,0,12.19,0v-3l-3.66-12Z" transform="translate(-206 -206)"/><path class="cls-3" d="M270.63,234.19l3.66,12v3a6.1,6.1,0,0,0,12.19,0v-3l-6.1-12Z" transform="translate(-206 -206)"/><path class="cls-2" d="M268.19,255.35a6.1,6.1,0,0,1-6.1-6.1,6.1,6.1,0,0,1-12.19,0,6.1,6.1,0,0,1-12.19,0,6.1,6.1,0,0,1-6.1,6.1v28.41h33.9v-5H236.57V261.46h38.86v22.31h5V255.35a6.1,6.1,0,0,1-6.1-6.1A6.1,6.1,0,0,1,268.19,255.35Z" transform="translate(-206 -206)"/><polygon class="cls-5" points="59.52 55.46 51.2 55.46 43.38 55.46 30.57 55.46 30.57 68.27 30.57 72.8 59.52 72.8 59.52 66.61 59.52 55.46"/><polygon class="cls-6" points="59.52 55.46 59.52 66.61 59.52 72.8 59.52 77.76 69.43 77.76 69.43 55.46 59.52 55.46"/><path class="cls-7" d="M287.59,245.65l-6-11.75v-4.66a1.24,1.24,0,0,0-1.24-1.24H231.61a1.24,1.24,0,0,0-1.24,1.24v4.66l-6,11.75a1.24,1.24,0,0,0-.13.56v3a7.35,7.35,0,0,0,6.1,7.23v26H229.1a1.24,1.24,0,0,0,0,2.48h53.79a1.24,1.24,0,0,0,0-2.48h-1.27v-26a7.35,7.35,0,0,0,6.1-7.23v-3A1.24,1.24,0,0,0,287.59,245.65Zm-54.74-15.17h46.3V233h-46.3ZM273,249.26a4.86,4.86,0,0,1-9.72,0v-3a1.24,1.24,0,0,0,0-.13l-1.08-10.65h7.47l3.34,11Zm-12.19,0a4.86,4.86,0,0,1-9.71,0v-3l1.1-10.84h7.52l1.1,10.84v3Zm-12.19-3v3a4.86,4.86,0,0,1-9.71,0v-2.86l3.34-11h7.47l-1.08,10.65A1.2,1.2,0,0,0,248.66,246.21Zm-21.91,3V246.5l5.62-11.07h7.32l-3.17,10.41a1.24,1.24,0,0,0-.05.36v3a4.86,4.86,0,0,1-9.72,0Zm6.1,7.23a7.35,7.35,0,0,0,4.86-3.15,7.33,7.33,0,0,0,12.19,0,7.33,7.33,0,0,0,12.19,0,7.33,7.33,0,0,0,12.19,0,7.35,7.35,0,0,0,4.86,3.15v26h-2.48V261.46a1.24,1.24,0,0,0-1.24-1.24H236.57a1.24,1.24,0,0,0-1.24,1.24V278.8a1.24,1.24,0,0,0,1.24,1.24h27.71v2.48H232.85Zm5,18.3,12.09-12.09h4.32l-2.36,2.36a1.24,1.24,0,1,0,1.75,1.75l4.11-4.11h6.56v14.87H237.81Zm0-3.5v-8.58h8.58Zm28.95,11.25v-8.67H268a1.24,1.24,0,0,0,0-2.48h-1.24v-8.67h7.44v19.83Zm18.49-33.26a4.86,4.86,0,0,1-9.71,0v-3a1.24,1.24,0,0,0-.05-.36l-3.17-10.41h7.32l5.62,11.07Z" transform="translate(-206 -206)"/></svg>