<svg id="Layer_1" data-name="Layer 1" xmlns="http://www.w3.org/2000/svg" viewBox="0 0 100 100"><defs><style>.cls-1{fill:#fff;}.cls-2{fill:#d8d8d8;}.cls-3{fill:#81a4e3;}.cls-4{fill:#11113f;}</style></defs><title>site</title><circle class="cls-1" cx="50" cy="50" r="50"/><path class="cls-2" d="M267.16,277.29a34.19,34.19,0,0,1,3.18-3.26,1.13,1.13,0,0,1,.75-.28l.22,0a1.13,1.13,0,0,1,.8.6l5.3,10.4,2-1-5.3-10.4a1.13,1.13,0,0,1,.76-1.62,34.45,34.45,0,0,1,4.5-.65l-13.12-10.64Z" transform="translate(-206 -206)"/><path class="cls-3" d="M285.6,231.27H226.51a1.13,1.13,0,0,0-1.13,1.13v19.33a1.13,1.13,0,0,0,1.13,1.13H285.6a1.13,1.13,0,0,0,1.13-1.13V232.4A1.13,1.13,0,0,0,285.6,231.27Zm-41,7.27-4.45,9.71a1.14,1.14,0,0,1-1,.66h0a1.13,1.13,0,0,1-1-.65l-1.27-2.67-1.21,2.65a1.14,1.14,0,0,1-1,.66h0a1.13,1.13,0,0,1-1-.65l-4.62-9.71a1.14,1.14,0,0,1,2.05-1l3.58,7.51,1-2.17-2.08-4.36a1.14,1.14,0,1,1,2.05-1l1.26,2.65,1.21-2.63a1.14,1.14,0,1,1,2.07.95l-2,4.36,1,2.19,3.43-7.5a1.14,1.14,0,0,1,2.07.95Zm19.31,0-4.45,9.71a1.14,1.14,0,0,1-1,.66h0a1.13,1.13,0,0,1-1-.65l-1.27-2.67-1.21,2.65a1.14,1.14,0,0,1-1,.66h0a1.13,1.13,0,0,1-1-.65l-4.62-9.71a1.14,1.14,0,1,1,2.05-1l3.58,7.51,1-2.17-2.08-4.36a1.14,1.14,0,1,1,2.05-1l1.26,2.65,1.21-2.63a1.14,1.14,0,1,1,2.07.95l-2,4.36,1,2.19,3.43-7.5a1.14,1.14,0,0,1,2.07.95Zm19.31,0-4.45,9.71a1.14,1.14,0,0,1-1,.66h0a1.13,1.13,0,0,1-1-.65l-1.27-2.67-1.21,2.65a1.14,1.14,0,0,1-1,.66h0a1.13,1.13,0,0,1-1-.65l-4.62-9.71a1.14,1.14,0,1,1,2.05-1l3.58,7.51,1-2.17-2.08-4.36a1.14,1.14,0,1,1,2.05-1l1.26,2.65,1.21-2.63a1.14,1.14,0,1,1,2.07.95l-2,4.36,1,2.19,3.43-7.5a1.14,1.14,0,0,1,2.07.95Z" transform="translate(-206 -206)"/><path class="cls-4" d="M285.6,229H226.51a3.4,3.4,0,0,0-3.4,3.4v19.33a3.4,3.4,0,0,0,3.4,3.4H285.6a3.4,3.4,0,0,0,3.4-3.4V232.4A3.4,3.4,0,0,0,285.6,229Zm1.13,22.73a1.13,1.13,0,0,1-1.13,1.13H226.51a1.13,1.13,0,0,1-1.13-1.13V232.4a1.13,1.13,0,0,1,1.13-1.13H285.6a1.13,1.13,0,0,1,1.13,1.13Z" transform="translate(-206 -206)"/><path class="cls-4" d="M244,237a1.14,1.14,0,0,0-1.51.56l-3.43,7.5-1-2.19,2-4.36a1.14,1.14,0,1,0-2.07-.95l-1.21,2.63-1.26-2.65a1.14,1.14,0,1,0-2.05,1l2.08,4.36-1,2.17-3.58-7.51a1.14,1.14,0,0,0-2.05,1l4.62,9.71a1.13,1.13,0,0,0,1,.65h0a1.14,1.14,0,0,0,1-.66l1.21-2.65,1.27,2.67a1.13,1.13,0,0,0,1,.65h0a1.14,1.14,0,0,0,1-.66l4.45-9.71A1.14,1.14,0,0,0,244,237Z" transform="translate(-206 -206)"/><path class="cls-4" d="M263.32,237a1.14,1.14,0,0,0-1.51.56l-3.43,7.5-1-2.19,2-4.36a1.14,1.14,0,1,0-2.07-.95l-1.21,2.63-1.26-2.65a1.14,1.14,0,1,0-2.05,1l2.08,4.36-1,2.17-3.58-7.51a1.14,1.14,0,1,0-2.05,1l4.62,9.71a1.13,1.13,0,0,0,1,.65h0a1.14,1.14,0,0,0,1-.66l1.21-2.65,1.27,2.67a1.13,1.13,0,0,0,1,.65h0a1.14,1.14,0,0,0,1-.66l4.45-9.71A1.14,1.14,0,0,0,263.32,237Z" transform="translate(-206 -206)"/><path class="cls-4" d="M282.64,237a1.14,1.14,0,0,0-1.51.56l-3.43,7.5-1-2.19,2-4.36a1.14,1.14,0,1,0-2.07-.95l-1.21,2.63-1.26-2.65a1.14,1.14,0,1,0-2.05,1l2.08,4.36-1,2.17-3.58-7.51a1.14,1.14,0,1,0-2.05,1l4.62,9.71a1.13,1.13,0,0,0,1,.65h0a1.14,1.14,0,0,0,1-.66l1.21-2.65,1.27,2.67a1.13,1.13,0,0,0,1,.65h0a1.14,1.14,0,0,0,1-.66l4.45-9.71A1.14,1.14,0,0,0,282.64,237Z" transform="translate(-206 -206)"/><path class="cls-4" d="M265.71,257.05a1.14,1.14,0,0,0-1.85.94L265,280.34a1.14,1.14,0,0,0,2,.63,48.16,48.16,0,0,1,3.67-4.22l5.13,10.06a1.13,1.13,0,0,0,.66.56,1.15,1.15,0,0,0,.35.06,1.14,1.14,0,0,0,.52-.12l4-2.06a1.13,1.13,0,0,0,.5-1.53l-5.13-10.06a47.76,47.76,0,0,1,5.57-.49,1.14,1.14,0,0,0,.69-2Zm9.17,14.66a1.13,1.13,0,0,0-.76,1.62l5.3,10.4-2,1-5.3-10.4a1.13,1.13,0,0,0-.8-.6l-.22,0a1.13,1.13,0,0,0-.75.28,34.19,34.19,0,0,0-3.18,3.26l-.89-16.86,13.12,10.64A34.43,34.43,0,0,0,274.88,271.72Z" transform="translate(-206 -206)"/></svg>