<svg id="Layer_1" data-name="Layer 1" xmlns="http://www.w3.org/2000/svg" viewBox="0 0 100 100"><defs><style>.cls-1{fill:#fff;}.cls-2{fill:#2d2d44;}.cls-3{fill:#cbcfd3;}.cls-4{fill:#11113f;}</style></defs><title>smartphone</title><circle class="cls-1" cx="50" cy="50" r="50"/><rect class="cls-2" x="32.34" y="27.31" width="35.19" height="39.96"/><rect class="cls-3" x="32.34" y="67.4" width="35.19" height="13.41"/><rect class="cls-3" x="32.34" y="18.68" width="35.19" height="7.99"/><path class="cls-4" d="M280.87,285.86V230.12a5.13,5.13,0,0,0-5.12-5.12h-29.5a5.13,5.13,0,0,0-5.12,5.12v55.75a5.13,5.13,0,0,0,5.12,5.12h29.5A5.15,5.15,0,0,0,280.87,285.86Zm-36.44-49h33.13v37.51H244.43Zm1.82-8.58h29.5a1.82,1.82,0,0,1,1.82,1.82v3.45H244.43v-3.45A1.82,1.82,0,0,1,246.25,228.3Zm-1.82,57.56v-8.18h33.13v8.18a1.82,1.82,0,0,1-1.82,1.82H246.25A1.82,1.82,0,0,1,244.43,285.86Z" transform="translate(-211 -208)"/><path class="cls-4" d="M264.34,281.17h-6.7a1.66,1.66,0,1,0,0,3.32h6.7a1.66,1.66,0,0,0,0-3.32Z" transform="translate(-211 -208)"/></svg>