<svg id="Layer_1" data-name="Layer 1" xmlns="http://www.w3.org/2000/svg" viewBox="0 0 100 100"><defs><style>.cls-1{fill:#fff;}.cls-2{fill:#ff768a;}.cls-3{fill:#f05;}.cls-4{fill:#11113f;}</style></defs><title>target-ad</title><circle class="cls-1" cx="50" cy="50" r="50"/><circle class="cls-2" cx="49.6" cy="50" r="29.13"/><circle class="cls-3" cx="50" cy="50" r="18.64"/><circle class="cls-1" cx="49.6" cy="50" r="6.38"/><path class="cls-4" d="M288.87,254.87h-2.3a30.63,30.63,0,0,0-29.44-29.44v-2.3a1.13,1.13,0,1,0-2.27,0v2.3a30.63,30.63,0,0,0-29.44,29.44h-2.3a1.13,1.13,0,1,0,0,2.27h2.3a30.63,30.63,0,0,0,29.44,29.44v2.3a1.13,1.13,0,1,0,2.27,0v-2.3a30.63,30.63,0,0,0,29.44-29.44h2.3a1.13,1.13,0,1,0,0-2.27Zm-31.73,29.44v-2.24a1.13,1.13,0,1,0-2.27,0v2.24a28.37,28.37,0,0,1-27.17-27.17h2.24a1.13,1.13,0,1,0,0-2.27H227.7a28.37,28.37,0,0,1,27.17-27.17v2.24a1.13,1.13,0,1,0,2.27,0V227.7a28.37,28.37,0,0,1,27.17,27.17h-2.24a1.13,1.13,0,1,0,0,2.27h2.24A28.37,28.37,0,0,1,257.13,284.31Z" transform="translate(-206 -206)"/><path class="cls-4" d="M269.6,254.87h-5.76a7.94,7.94,0,0,0-6.71-6.71V242.4a1.13,1.13,0,1,0-2.27,0v5.76a7.94,7.94,0,0,0-6.71,6.71H242.4a1.13,1.13,0,1,0,0,2.27h5.76a7.94,7.94,0,0,0,6.71,6.71v5.76a1.13,1.13,0,1,0,2.27,0v-5.76a7.94,7.94,0,0,0,6.71-6.71h5.76a1.13,1.13,0,1,0,0-2.27Zm-13.6,6.8a5.67,5.67,0,1,1,5.67-5.67A5.67,5.67,0,0,1,256,261.67Z" transform="translate(-206 -206)"/></svg>