<svg id="Layer_1" data-name="Layer 1" xmlns="http://www.w3.org/2000/svg" viewBox="0 0 100 100"><defs><style>.cls-1{fill:#fff;}.cls-2{fill:#ede8bc;}.cls-3{fill:#aaa;}.cls-4{fill:#11113f;}</style></defs><title>time-refresh</title><circle class="cls-1" cx="50" cy="50" r="50"/><circle class="cls-2" cx="49.8" cy="50.18" r="31.98"/><circle class="cls-3" cx="49.8" cy="50.18" r="3.2"/><g id="Layer_1-2" data-name="Layer 1"><path class="cls-4" d="M890.71,287.55a1.59,1.59,0,0,0-1.44-.92h-4.72a35,35,0,1,0-4.1,23.87,3.18,3.18,0,0,0-5.51-3.19A28.67,28.67,0,1,1,878,286.64h-4.68a1.59,1.59,0,0,0-1.22,2.61l8,9.55a1.59,1.59,0,0,0,2.44,0l8-9.55A1.59,1.59,0,0,0,890.71,287.55Z" transform="translate(-800 -243)"/><path class="cls-4" d="M850.14,266a3.18,3.18,0,0,0-3.18,3.18v19.31a5.56,5.56,0,0,0,3.18,10.13,5.5,5.5,0,0,0,2.35-.54l11.07,6.39a3.15,3.15,0,0,0,1.59.43,3.18,3.18,0,0,0,1.59-5.94l-11.08-6.4a5.54,5.54,0,0,0-2.33-4.07V269.14A3.19,3.19,0,0,0,850.14,266Zm0,29.43a2.39,2.39,0,1,1,2.39-2.38A2.39,2.39,0,0,1,850.14,295.39Z" transform="translate(-800 -243)"/></g></svg>