<svg id="Layer_1" data-name="Layer 1" xmlns="http://www.w3.org/2000/svg" viewBox="0 0 100 100"><defs><style>.cls-1{fill:#fff;}.cls-2{fill:#fbffc2;stroke:#000;stroke-miterlimit:10;}.cls-3{fill:#11113f;}</style></defs><title>user-card</title><circle class="cls-1" cx="50" cy="50" r="50"/><polygon class="cls-2" points="21.12 29.66 25.26 27.02 74.74 27.02 80.01 31.29 79.01 71.35 72.35 75.62 23.38 73.73 21.12 69.09 21.12 29.66"/><path class="cls-3" d="M335.22,301.76h-1.56a1.47,1.47,0,0,1-1.47-1.47,1.12,1.12,0,0,1,.34-.8,10.55,10.55,0,0,0,2.23-3.36.63.63,0,0,0,.37.14c.88,0,1.91-1.94,1.91-3.26s-.12-2.4-1-2.4a1.35,1.35,0,0,0-.33,0c-.06-3.59-1-8.06-6.45-8.06-5.72,0-6.38,4.47-6.45,8.05a1.25,1.25,0,0,0-.24,0c-.88,0-1,1.07-1,2.4s1,3.26,1.91,3.26a.6.6,0,0,0,.3-.08,10.58,10.58,0,0,0,2.2,3.3,1.11,1.11,0,0,1,.34.8,1.47,1.47,0,0,1-1.47,1.47h-1.57a6.06,6.06,0,0,0-6.06,6.06v1.68a1.91,1.91,0,0,0,1.91,1.91h20.22a1.91,1.91,0,0,0,1.91-1.91v-1.68A6.06,6.06,0,0,0,335.22,301.76Z" transform="translate(-286 -246)"/><path class="cls-3" d="M353.35,285.14h-17a12.46,12.46,0,0,1,1,4.06,2.46,2.46,0,0,1,.86,1h15.11a1.42,1.42,0,0,0,1.42-1.42v-2.25A1.42,1.42,0,0,0,353.35,285.14Z" transform="translate(-286 -246)"/><path class="cls-3" d="M353.35,294.4H338.59c-.4,1.51-1.39,3.1-2.75,3.52l-.13.21v1.35h17.65a1.42,1.42,0,0,0,1.42-1.42v-2.25A1.41,1.41,0,0,0,353.35,294.4Z" transform="translate(-286 -246)"/><path class="cls-3" d="M353.35,303.67H341.82a7.74,7.74,0,0,1,1.21,4.15v.93h10.32a1.42,1.42,0,0,0,1.42-1.42v-2.25A1.42,1.42,0,0,0,353.35,303.67Z" transform="translate(-286 -246)"/><path class="cls-3" d="M359.44,271H312.56a8.71,8.71,0,0,0-8.71,8.71v34.58a8.7,8.7,0,0,0,8.71,8.71h46.88a8.7,8.7,0,0,0,8.7-8.71V279.72A8.7,8.7,0,0,0,359.44,271Zm4.6,43.28a4.6,4.6,0,0,1-4.6,4.6H312.56a4.6,4.6,0,0,1-4.6-4.6V279.72a4.6,4.6,0,0,1,4.6-4.6h46.88a4.6,4.6,0,0,1,4.6,4.6v34.58Z" transform="translate(-286 -246)"/></svg>