<svg id="Capa_1" data-name="Capa 1" xmlns="http://www.w3.org/2000/svg" viewBox="0 0 100 100"><defs><style>.cls-1{fill:#fff;}.cls-2{fill:#f4f2e1;}.cls-3{fill:#bfbfbf;}.cls-4{fill:#ff107d;}.cls-5{fill:#11113f;}</style></defs><title>user-description</title><circle class="cls-1" cx="50" cy="50" r="50"/><polygon class="cls-2" points="24.61 20.05 73.09 20.05 74.16 79.77 23.28 79.77 24.61 20.05"/><polygon class="cls-3" points="52.15 60.25 59.54 67.65 48.95 70.32 52.15 60.25"/><path class="cls-4" d="M902.2,396.31c.45-.17,24.06-23.52,24.06-23.52l6.77,6.59-24.16,23.88Z" transform="translate(-849.33 -336.88)"/><path class="cls-5" d="M933.53,376.56,929,372.07a3.17,3.17,0,0,0-4.49,0l-24.68,24.67a3.15,3.15,0,0,0-.77,1.24l-2.24,6.73a3.15,3.15,0,0,0-.14,1H879.2a1.36,1.36,0,0,0-1.36,1.36h0a1.78,1.78,0,0,0,1.78,1.78h20.24v0a3.12,3.12,0,0,0,1-.14l6.73-2.24a3.18,3.18,0,0,0,1.24-.77L933.53,381A3.17,3.17,0,0,0,933.53,376.56Zm-33.65,29.16,2.24-6.73,4.49,4.49Zm9-4.49-4.49-4.49,22.43-22.43,4.49,4.49Z" transform="translate(-849.33 -336.88)"/><path class="cls-5" d="M888.47,361.71a9.44,9.44,0,1,0,9.44,9.44A9.45,9.45,0,0,0,888.47,361.71Zm0,15.73a6.29,6.29,0,1,1,6.29-6.29A6.29,6.29,0,0,1,888.47,377.44Z" transform="translate(-849.33 -336.88)"/><path class="cls-5" d="M897.85,383.17a3.15,3.15,0,0,0-3.1-2.58H882.17a3.14,3.14,0,0,0-3.09,2.58L877.83,390H881l1.14-6.29h4.72V390H890v-6.29h4.72L895.9,390h3.2Z" transform="translate(-849.33 -336.88)"/><rect class="cls-5" x="50.52" y="27.98" width="18.88" height="3.15" rx="1.57" ry="1.57"/><path class="cls-5" d="M877.83,396.81V399a.49.49,0,0,0,.49.49H895a.49.49,0,0,0,.47-.34l.71-2.13h0a.5.5,0,0,0-.46-.67H878.33A.49.49,0,0,0,877.83,396.81Z" transform="translate(-849.33 -336.88)"/><path class="cls-5" d="M899.85,375.86h0a1.57,1.57,0,0,0,1.57,1.57h12.67a1.57,1.57,0,0,0,1.11-.46h0a1.57,1.57,0,0,0-1.11-2.69H901.43A1.57,1.57,0,0,0,899.85,375.86Z" transform="translate(-849.33 -336.88)"/><path class="cls-5" d="M923.14,374.93a3.35,3.35,0,0,1,1.88-1.25V357.2a1.78,1.78,0,0,0-1.78-1.78H873.32a1.78,1.78,0,0,0-1.78,1.78v59.35a1.78,1.78,0,0,0,1.78,1.78h49.91a1.78,1.78,0,0,0,1.78-1.78V387.32L921.88,392v21.36a1.78,1.78,0,0,1-1.78,1.78H876.47a1.78,1.78,0,0,1-1.78-1.78V360.34a1.78,1.78,0,0,1,1.78-1.78h43.62a1.78,1.78,0,0,1,1.78,1.78v16.19Z" transform="translate(-849.33 -336.88)"/></svg>