<svg id="Layer_1" data-name="Layer 1" xmlns="http://www.w3.org/2000/svg" viewBox="0 0 100 100"><defs><style>.cls-1{fill:#fff;}.cls-2{fill:#af7c4f;}.cls-3{fill:#5b3e1f;}.cls-4{fill:#826037;}.cls-5{fill:#17ba45;}.cls-6{fill:#11113f;}</style></defs><title>wallet</title><circle class="cls-1" cx="50" cy="50" r="50"/><polygon class="cls-2" points="80.72 47.81 66.05 47.81 61.4 53.11 62.95 58 66.78 60.69 80.72 60.37 80.72 47.81"/><polygon class="cls-3" points="21.77 35 21.77 30.68 24.78 27.83 72.98 27.83 76.48 29.62 77.46 35.98 21.77 35"/><polygon class="cls-4" points="77.87 33.37 77.87 47.07 65.47 47.64 61.48 53.6 64.09 59.47 77.87 60.45 77.87 75.7 73.63 79.04 26.01 79.04 21.68 76.27 20.95 53.6 20.95 33.37 77.87 33.37"/><polygon class="cls-5" points="35.63 32.96 61.97 18.04 71.83 33.37 35.63 32.96"/><path class="cls-6" d="M293,254.36h-3V240.54a6,6,0,0,0-6-6h-4.07L275.75,227a3.61,3.61,0,0,0-4.9-1.4l-16,8.89H237a6,6,0,0,0-6,6V281.8a6,6,0,0,0,6,6h47a6,6,0,0,0,6-6V269.68h3V254.36Zm-9-17.43a3.6,3.6,0,0,1,3.57,3.21H283l-1.78-3.21Zm-12-9.19a1.22,1.22,0,0,1,1.63.47l6.63,11.93H249.72Zm15.57,54.06a3.61,3.61,0,0,1-3.61,3.61H237a3.61,3.61,0,0,1-3.61-3.61V240.54a3.61,3.61,0,0,1,3.61-3.61h13.53l-5.76,3.21h-7a1.2,1.2,0,0,0,0,2.4h49.83v11.82H278.8a7.41,7.41,0,0,0-7.4,7.4v.52a7.41,7.41,0,0,0,7.4,7.4h8.79V281.8Zm3-14.52H278.8a5,5,0,0,1-5-5v-.52a5,5,0,0,1,5-5H290.6Zm-8.11-5.16a2.65,2.65,0,1,1-2.65-2.65A2.65,2.65,0,0,1,282.48,262.12Z" transform="translate(-211 -208)"/></svg>