<svg xmlns="http://www.w3.org/2000/svg" viewBox="0 0 100 100"><defs><style>.cls-1{fill:#c4302b;}.cls-2{fill:#fff;}</style></defs><title>Asset 1</title><g id="Layer_2" data-name="Layer 2"><g id="Layer_1-2" data-name="Layer 1"><path class="cls-1" d="M50,0A50,50,0,1,1,0,50,50,50,0,0,1,50,0Z"/><path class="cls-2" d="M48.79,40.63a5.89,5.89,0,0,0,3.73-1.22,3.57,3.57,0,0,0,1.35-3V28.87a3.33,3.33,0,0,0-1.38-2.75,5.64,5.64,0,0,0-3.54-1.06,6.35,6.35,0,0,0-3.77,1,3.17,3.17,0,0,0-1.41,2.72v7.61a3.63,3.63,0,0,0,1.37,3A5.69,5.69,0,0,0,48.79,40.63ZM47.14,29.16a.81.81,0,0,1,.45-.7,2.25,2.25,0,0,1,1.16-.27,2.55,2.55,0,0,1,1.25.27.8.8,0,0,1,.48.7v7.21a1,1,0,0,1-.47.84,2.31,2.31,0,0,1-1.26.3,2,2,0,0,1-1.19-.3,1,1,0,0,1-.42-.84ZM59.26,40.62A3.9,3.9,0,0,0,61,40a6.4,6.4,0,0,0,1.7-1.42v1.68h3V25h-3V36.58a4.19,4.19,0,0,1-.91.82,1.68,1.68,0,0,1-.82.32.69.69,0,0,1-.6-.24,1.26,1.26,0,0,1-.19-.78V25H57.19v12.7a3.35,3.35,0,0,0,.52,2A1.94,1.94,0,0,0,59.26,40.62Zm8.59,6.28H32.16a10.08,10.08,0,0,0-10.27,9.87v8.34A10.08,10.08,0,0,0,32.16,75H67.84a10.08,10.08,0,0,0,10.27-9.87V56.77A10.08,10.08,0,0,0,67.84,46.9ZM37.47,55.37H34.31V68.44H31.26V55.37H28.1V53.14h9.37Zm9.42,13.25H43.59V67.27a7,7,0,0,1-1.9,1.14,5,5,0,0,1-1.91.4,2.39,2.39,0,0,1-1.72-.56,2.19,2.19,0,0,1-.58-1.65V56.28h3.29v9.47a.86.86,0,0,0,.2.63,1,1,0,0,0,.68.19,2.27,2.27,0,0,0,.92-.26,4.22,4.22,0,0,0,1-.66V56.28h3.29Zm12.46-2.35a2.31,2.31,0,0,1-.77,1.86,3.3,3.3,0,0,1-2.21.65,5.36,5.36,0,0,1-1.7-.25,4.28,4.28,0,0,1-1.39-.78v.87H50V53.14h3.28v5a5.35,5.35,0,0,1,1.39-.79,4.28,4.28,0,0,1,1.5-.27,3.42,3.42,0,0,1,2.35.72,2.72,2.72,0,0,1,.82,2.14Zm12.52-3.48H65.8V65a2,2,0,0,0,.31,1.3,1.38,1.38,0,0,0,1.08.36,1.58,1.58,0,0,0,1.11-.31A2,2,0,0,0,68.61,65v-.54h3.26v.61a3.22,3.22,0,0,1-1.2,2.74,5.77,5.77,0,0,1-3.56.92,5.25,5.25,0,0,1-3.36-1,3.24,3.24,0,0,1-1.23-2.68V59.77a3,3,0,0,1,1.35-2.51,5.8,5.8,0,0,1,3.47-1,5.42,5.42,0,0,1,3.35.9,3.06,3.06,0,0,1,1.17,2.58ZM35.7,40.66h3.73V31.58l4.34-12.81H40l-2.31,8.76h-.24L35,18.77H31.25L35.7,32ZM54.63,58.88l-.69.11-.67.35v7.12a2.86,2.86,0,0,0,.77.4l.78.12a1.3,1.3,0,0,0,.88-.24A1,1,0,0,0,56,66v-5.9a1.08,1.08,0,0,0-.34-.88A1.54,1.54,0,0,0,54.63,58.88Z"/><path class="cls-2" d="M67.36,58.36a1.5,1.5,0,0,0-1.09.33,1.43,1.43,0,0,0-.33,1.06v1.19h2.8V59.75a1.19,1.19,0,0,0-1.39-1.39Z"/></g></g></svg>