<svg xmlns="http://www.w3.org/2000/svg" viewBox="0 0 217.25 228.66"><defs><style>.cls-1{isolation:isolate;}.cls-2,.cls-9{fill:#fff;}.cls-2,.cls-3,.cls-4,.cls-5,.cls-6,.cls-7,.cls-8{stroke:#000;stroke-linecap:round;stroke-linejoin:round;stroke-width:7px;}.cls-3{fill:#eda8b0;}.cls-4{fill:#e66b38;}.cls-5,.cls-8{fill:#ff814a;}.cls-5{opacity:0.7;}.cls-6{fill:#f3723a;}.cls-7{fill:#f56c71;}.cls-10{fill:#dedede;opacity:0.5;mix-blend-mode:multiply;}</style></defs><title>arrive-message</title><g class="cls-1"><g id="Layer_2" data-name="Layer 2"><g id="Layer_1-2" data-name="Layer 1"><path class="cls-2" d="M190.1,20.75H26.89A23.58,23.58,0,0,0,3.5,44.29V164a23.24,23.24,0,0,0,23.39,23.14H131L173.53,217V187.12H190.1c12.87,0,23.64-10.27,23.64-23.14V44.29A23.8,23.8,0,0,0,190.1,20.75Z"/><rect class="cls-3" x="51.82" y="90.49" width="113.37" height="73.18"/><rect class="cls-4" x="51.82" y="90.23" width="113.37" height="73.74"/><path class="cls-4" d="M113.73,44.06s-7.18-7.62-14.89.06l-47,46.12H165.19Z"/><path class="cls-5" d="M113.1,49.53s-6.32-6.73-13.11,0L58.59,90.27l99.84,0Z"/><rect class="cls-2" x="59.99" y="57.48" width="93.47" height="79.51"/><rect x="67.56" y="70.36" width="78.33" height="3.45"/><rect x="67.56" y="80.83" width="78.33" height="3.45"/><rect x="67.56" y="91.3" width="78.33" height="3.45"/><rect x="67.56" y="101.76" width="78.33" height="3.45"/><rect x="67.56" y="112.23" width="78.33" height="3.45"/><path class="cls-6" d="M114.08,111.5a13,13,0,0,0-3.31,1.78c-1.54,1.74-4,9.27-4,9.27l5.23,5,53.23,36.16V90.49Z"/><path class="cls-7" d="M105.76,123.13h0S105.76,123.14,105.76,123.13Z"/><path class="cls-6" d="M101.62,113.92a12.75,12.75,0,0,0-3.33-1.73L51.82,90.49v73.18l48.77-35.5,5.18-5C105.67,122.89,103,115.47,101.62,113.92Z"/><path class="cls-8" d="M127.57,118.28a4.9,4.9,0,0,0-4-2.57l-17.16-.09h-.14l-17.13.13s-2.38-.07-3.68,3l-33.62,45,54.91-.2,58.45.2Z"/><circle class="cls-6" cx="168.77" cy="29.81" r="26.31"/><path class="cls-9" d="M173.29,13.37V46.52a3.13,3.13,0,0,1-3.15,3.09A3,3,0,0,1,167,46.52V18.87l-2.25,1.29a2.81,2.81,0,0,1-1.57.45A3,3,0,0,1,160.59,19a3,3,0,0,1,1-4.21l6.91-4.1c.06-.06.17-.06.22-.11s.17-.11.28-.17.22-.06.34-.06a.34.34,0,0,1,.22-.06,1,1,0,0,1,.39-.06h.62a.34.34,0,0,0,.22.06.6.6,0,0,1,.34.11.34.34,0,0,1,.22.06c.17.11.23.17.34.17a.78.78,0,0,0,.22.17c.06.06.17.11.22.17s.17.17.22.22a.77.77,0,0,1,.17.22l.22.22.06.11c0,.06.06.11.06.17s.11.17.11.28.06.22.11.28a2.43,2.43,0,0,0,.06.28.47.47,0,0,0,.11.39Z"/><ellipse class="cls-10" cx="105.88" cy="226.12" rx="50.36" ry="2.54"/></g></g></g></svg>