<svg id="Layer_1" data-name="Layer 1" xmlns="http://www.w3.org/2000/svg" viewBox="0 0 500.24 300"><defs><style>.cls-1{fill:#fff;}.cls-2{fill:#585b9e;}</style></defs><title>coming-soon-th</title><rect class="cls-1" width="500" height="300"/><path class="cls-2" d="M16.3,179.13a17,17,0,0,1,6.15-1,15.76,15.76,0,0,1,11.45,4.7,15.34,15.34,0,0,1,4.78,11.36,15.62,15.62,0,0,1-4.78,11.45,15.62,15.62,0,0,1-11.45,4.78q-10.08,0-16.15-6.15T.24,187.5v-74H16.3Zm6.15,21.7A6.24,6.24,0,0,0,27,198.91a6.44,6.44,0,0,0,1.92-4.74A6,6,0,0,0,27,189.72a6.5,6.5,0,0,0-9.14,0A6,6,0,0,0,16,194.16a6.44,6.44,0,0,0,1.92,4.74A6.24,6.24,0,0,0,22.45,200.83Z"/><path class="cls-2" d="M115.57,125.4a79.55,79.55,0,0,1-15.8,1.54l-19.05-.85q-8.54,0-13.28,2.78t-4.74,6.88a45.54,45.54,0,0,1,7.86-.51q18.79,0,26,7.77t7.22,26V187.5q0,10.59-6,16.74T81.57,210.4a16.33,16.33,0,0,1-16.23-16.23,15.34,15.34,0,0,1,4.78-11.36,15.76,15.76,0,0,1,11.45-4.7,17,17,0,0,1,6.15,1V169q0-11.62-4.1-16.74t-13.07-5.13q-3.67,0-8.37.47t-8.12,1.07L48,149.74h-.51v-6q0-14.95,7.43-23.24t25.8-8.29l19.05.77a38.92,38.92,0,0,0,7.94-.85l7.09-1.62h.77Zm-34,75.43a6.2,6.2,0,0,0,4.61-1.92,6.52,6.52,0,0,0,1.88-4.74,6,6,0,0,0-1.92-4.48,6.39,6.39,0,0,0-4.57-1.84A6.17,6.17,0,0,0,77,189.72a6.07,6.07,0,0,0-1.88,4.44A6.52,6.52,0,0,0,77,198.91,6.1,6.1,0,0,0,81.57,200.83Z"/><path class="cls-2" d="M109.07,57.06A35.38,35.38,0,0,1,99,72.6q-6.62,5.72-23.88,5.72H66.45a12.57,12.57,0,0,0-7.94,2.39A7.53,7.53,0,0,0,55.43,87a8.82,8.82,0,0,0,2,5.55,8.43,8.43,0,0,0,5.34,3.16q0-9.82,8.2-9.82,2.73,0,14,6.66a11.35,11.35,0,0,1,3.84-6.32,10.82,10.82,0,0,1,14.44,16.1,10.29,10.29,0,0,1-7.43,3.2q-4.7,0-16.74-6.66-6.49-3.5-7.77-3.5t-1.2,4.53v5.64H68q-10.08,0-16.06-5.34a17,17,0,0,1-6-13.2A16.25,16.25,0,0,1,51.5,74.18Q57,69.27,66.45,69.27H75q11.45,0,15.5-2.95t6.36-9.27ZM95.66,98.49a3.42,3.42,0,0,0,2.61-1.15,3.84,3.84,0,0,0,1.07-2.69,3.79,3.79,0,0,0-1.07-2.73,3.61,3.61,0,0,0-5.21,0A3.79,3.79,0,0,0,92,94.64a3.92,3.92,0,0,0,1,2.69A3.38,3.38,0,0,0,95.66,98.49Z"/><path class="cls-2" d="M189.54,187.5q0,10.59-6,16.74t-16.19,6.15a16.33,16.33,0,0,1-16.23-16.23,15.34,15.34,0,0,1,4.78-11.36,15.76,15.76,0,0,1,11.45-4.7,17,17,0,0,1,6.15,1V147.78q0-11-5.25-16.87t-14.48-5.85q-14.1,0-28.87,8.71h-1.11V116.85a83.16,83.16,0,0,1,30-5.81q35.79,0,35.79,35.71Zm-22.21,13.33a6.2,6.2,0,0,0,4.61-1.92,6.52,6.52,0,0,0,1.88-4.74,6,6,0,0,0-1.92-4.44,6.5,6.5,0,0,0-9.14,0,6,6,0,0,0-1.92,4.44,6.44,6.44,0,0,0,1.92,4.74A6.24,6.24,0,0,0,167.33,200.83Z"/><path class="cls-2" d="M331.52,230.21H315.46v-95a10.49,10.49,0,0,0-6.66-10.34l-9.65,7.18-9.65-7.18q-3.33,1-6.41,5.38a16.87,16.87,0,0,1,11.66,5.25,15.75,15.75,0,0,1,4.4,11.06,15.34,15.34,0,0,1-4.78,11.36,15.76,15.76,0,0,1-11.45,4.7,17.57,17.57,0,0,1-13.63-6.15q-5.51-6.15-5.51-15.72,0-10.25,7.3-19.05a30.45,30.45,0,0,1,18.41-10.85l9.65,7.52,9.65-7.52q10.25,1.88,16.49,8.59A22.19,22.19,0,0,1,331.52,135Zm-48.61-77.14a6.1,6.1,0,0,0,4.53-1.92,6.52,6.52,0,0,0,1.88-4.74,6.07,6.07,0,0,0-1.88-4.44,6.17,6.17,0,0,0-4.53-1.88,6.31,6.31,0,0,0-4.57,1.88,6,6,0,0,0-1.92,4.44,6.52,6.52,0,0,0,1.88,4.74A6.2,6.2,0,0,0,282.92,153.07Z"/><path class="cls-2" d="M491,179.13q9.23,5,9.23,14.86a15.9,15.9,0,0,1-4.78,11.53A15.48,15.48,0,0,1,484,210.4a15.9,15.9,0,0,1-11.58-4.87A15.7,15.7,0,0,1,467.52,194a9.63,9.63,0,0,1,.17-2.14A97.07,97.07,0,0,0,443.26,209h-15v-66.8a17,17,0,0,1-6.15,1,15.83,15.83,0,0,1-11.49-4.74,15.32,15.32,0,0,1-4.83-11.32,16.41,16.41,0,0,1,16.32-16.32q10.08,0,16.15,6.19t6.07,16.7v59.71q14.78-11.87,30.58-15.63V113.52H491Zm-68.94-45.7a6.39,6.39,0,0,0,4.57-1.84,5.87,5.87,0,0,0,1.92-4.4,6.4,6.4,0,0,0-1.92-4.78,6.31,6.31,0,0,0-4.57-1.88,6.24,6.24,0,0,0-4.57,1.92,6.44,6.44,0,0,0-1.92,4.74,5.87,5.87,0,0,0,1.92,4.4A6.39,6.39,0,0,0,422.08,133.43Zm61.76,67.23a6.24,6.24,0,0,0,4.57-1.92,6.44,6.44,0,0,0,1.92-4.74,6,6,0,0,0-1.92-4.48,6.39,6.39,0,0,0-4.57-1.84,6.31,6.31,0,0,0-4.57,1.88,6,6,0,0,0-1.92,4.44,6.44,6.44,0,0,0,1.92,4.74A6.24,6.24,0,0,0,483.84,200.66Z"/><path class="cls-2" d="M487.17,105.49H417.38q3.25-10,6.15-14.35a32.28,32.28,0,0,1,7.65-7.9,35.54,35.54,0,0,1,21.23-7.13,33.61,33.61,0,0,1,25.2,10.76V68.5h9.57ZM473.42,96q-2.05-4.61-8-7.47a31.08,31.08,0,0,0-26.06,0q-6,2.86-7.94,7.47Z"/><path class="cls-2" d="M492.64,77.22q-11.19,23.07-45.36,28.11l4.19-9.23a9.4,9.4,0,0,1-6.15-3.37,10.35,10.35,0,0,1,.38-13.67,9.35,9.35,0,0,1,13.63,0,9.84,9.84,0,0,1,2.82,7,14.66,14.66,0,0,1-3.5,10q14.18-3.67,23.15-18.88ZM452.57,89.09a2.78,2.78,0,0,0,2-.9,2.89,2.89,0,0,0,0-4.19,2.78,2.78,0,0,0-2-.9,3,3,0,0,0,0,6Z"/></svg>