<svg id="Layer_1" data-name="Layer 1" xmlns="http://www.w3.org/2000/svg" viewBox="0 0 500.14 300"><defs><style>.cls-1{fill:#fff;}.cls-2{fill:#595ca3;}</style></defs><title>coming-soon</title><rect class="cls-1" x="0.14" width="500" height="300"/><path class="cls-2" d="M38.61,128.78A22.85,22.85,0,0,1,46.79,141H40a16.6,16.6,0,0,0-6.14-7.87,17.79,17.79,0,0,0-10.38-2.93,16,16,0,0,0-14.78,9.14,22.66,22.66,0,0,0-2.23,10.34A22.31,22.31,0,0,0,8.72,160a16.43,16.43,0,0,0,6.07,6.74A16.28,16.28,0,0,0,23.5,169a17.79,17.79,0,0,0,10.38-2.93A16.57,16.57,0,0,0,40,158.25h6.77a22.81,22.81,0,0,1-8.19,12.25q-5.93,4.49-15,4.48a23.62,23.62,0,0,1-12.35-3.21,22.14,22.14,0,0,1-8.36-9,27.86,27.86,0,0,1-3-13.09,28.23,28.23,0,0,1,3-13.2,22.08,22.08,0,0,1,8.36-9,23.59,23.59,0,0,1,12.35-3.21Q32.68,124.3,38.61,128.78Z" transform="translate(0.14)"/><path class="cls-2" d="M90.66,127.41a23.12,23.12,0,0,1,8.72,9.07,28.86,28.86,0,0,1,0,26.33,23.06,23.06,0,0,1-8.72,9.07,24.18,24.18,0,0,1-12.46,3.25,24.54,24.54,0,0,1-12.53-3.25,22.91,22.91,0,0,1-8.79-9.07,28.86,28.86,0,0,1,0-26.33,23,23,0,0,1,8.79-9.07,24.57,24.57,0,0,1,12.53-3.25A24.2,24.2,0,0,1,90.66,127.41ZM69,132.53a16.39,16.39,0,0,0-6.35,6.77,24.37,24.37,0,0,0,0,20.65A16.31,16.31,0,0,0,69,166.76a17.92,17.92,0,0,0,9.21,2.37,17.6,17.6,0,0,0,9.14-2.4,16.62,16.62,0,0,0,6.35-6.81,24.31,24.31,0,0,0,0-20.61,16.41,16.41,0,0,0-6.35-6.77,19,19,0,0,0-18.35,0Z" transform="translate(0.14)"/><path class="cls-2" d="M161.06,125.64v48.91h-6.42v-39l-15.6,39h-5.72l-15.67-38.89v38.89h-6.42V125.64h7.69l17.36,41.08,17.08-41.08Z" transform="translate(0.14)"/><path class="cls-2" d="M177.79,124.8v49.76h-6.42V124.8Z" transform="translate(0.14)"/><path class="cls-2" d="M226.77,174.56h-6.42l-25.83-39.31v39.31h-6.42V124.8h6.42l25.83,39.38V124.8h6.42Z" transform="translate(0.14)"/><path class="cls-2" d="M274.24,128.61a21,21,0,0,1,7.94,11.72H275.4a15.17,15.17,0,0,0-5.89-7.27,17.21,17.21,0,0,0-9.78-2.75,17.62,17.62,0,0,0-9.1,2.36,16.5,16.5,0,0,0-6.32,6.74,21.89,21.89,0,0,0-2.29,10.3,22.16,22.16,0,0,0,2.33,10.48A16.48,16.48,0,0,0,250.8,167a18.8,18.8,0,0,0,9.49,2.37,18,18,0,0,0,8.4-2,16.3,16.3,0,0,0,6.25-5.76,19.65,19.65,0,0,0,2.93-8.86H258.32v-4.8h25v5.93a24.73,24.73,0,0,1-3.66,10.73,22.09,22.09,0,0,1-8.19,7.63,24,24,0,0,1-11.72,2.82A24.74,24.74,0,0,1,247,171.84a22.35,22.35,0,0,1-8.58-9,29.76,29.76,0,0,1,0-26.33,22.59,22.59,0,0,1,8.58-9,24.42,24.42,0,0,1,12.64-3.25Q268.35,124.3,274.24,128.61Z" transform="translate(0.14)"/><path class="cls-2" d="M339.21,168.2a12.74,12.74,0,0,1-5.15,4.94,17.52,17.52,0,0,1-8.54,1.91,20.57,20.57,0,0,1-8.79-1.8,15.63,15.63,0,0,1-6.14-4.94,14,14,0,0,1-2.65-7.17h6.85a9.71,9.71,0,0,0,5,7.44,11,11,0,0,0,5.54,1.31,8.79,8.79,0,0,0,6.49-2.26,7.85,7.85,0,0,0,2.26-5.79,7.47,7.47,0,0,0-1.59-4.94,11.26,11.26,0,0,0-3.92-3,53.07,53.07,0,0,0-6.35-2.37,63.8,63.8,0,0,1-7.59-2.93,13,13,0,0,1-4.87-4.13,12.06,12.06,0,0,1-2-7.27,12.57,12.57,0,0,1,1.87-6.85,12.25,12.25,0,0,1,5.36-4.59,19.32,19.32,0,0,1,8.22-1.62q7.34,0,11.65,3.56a13.65,13.65,0,0,1,5,9.07h-6.92a9.4,9.4,0,0,0-3-5.22,9.57,9.57,0,0,0-6.71-2.26,9.17,9.17,0,0,0-6.21,2,7.11,7.11,0,0,0-2.33,5.68,7,7,0,0,0,1.52,4.69,10.53,10.53,0,0,0,3.77,2.82,60.26,60.26,0,0,0,6.21,2.29,62.74,62.74,0,0,1,7.73,3,13.07,13.07,0,0,1,5,4.27,12.75,12.75,0,0,1,2,7.58A13.28,13.28,0,0,1,339.21,168.2Z" transform="translate(0.14)"/><path class="cls-2" d="M384.77,127.41a23.09,23.09,0,0,1,8.71,9.07,28.86,28.86,0,0,1,0,26.33,23,23,0,0,1-8.71,9.07,24.17,24.17,0,0,1-12.46,3.25,24.54,24.54,0,0,1-12.53-3.25,23,23,0,0,1-8.79-9.07,28.86,28.86,0,0,1,0-26.33,23,23,0,0,1,8.79-9.07,24.57,24.57,0,0,1,12.53-3.25A24.2,24.2,0,0,1,384.77,127.41Zm-21.67,5.12a16.38,16.38,0,0,0-6.35,6.77,24.35,24.35,0,0,0,0,20.65,16.29,16.29,0,0,0,6.35,6.81,17.93,17.93,0,0,0,9.21,2.37,17.58,17.58,0,0,0,9.14-2.4,16.6,16.6,0,0,0,6.35-6.81,24.26,24.26,0,0,0,0-20.61,16.39,16.39,0,0,0-6.35-6.77,19,19,0,0,0-18.35,0Z" transform="translate(0.14)"/><path class="cls-2" d="M440.6,127.41a23.09,23.09,0,0,1,8.71,9.07,28.86,28.86,0,0,1,0,26.33,23,23,0,0,1-8.71,9.07,24.17,24.17,0,0,1-12.46,3.25,24.54,24.54,0,0,1-12.53-3.25,23,23,0,0,1-8.79-9.07,28.86,28.86,0,0,1,0-26.33,23,23,0,0,1,8.79-9.07,24.57,24.57,0,0,1,12.53-3.25A24.2,24.2,0,0,1,440.6,127.41Zm-21.67,5.12a16.38,16.38,0,0,0-6.35,6.77,24.35,24.35,0,0,0,0,20.65,16.29,16.29,0,0,0,6.35,6.81,17.93,17.93,0,0,0,9.21,2.37,17.58,17.58,0,0,0,9.14-2.4,16.6,16.6,0,0,0,6.35-6.81,24.26,24.26,0,0,0,0-20.61,16.39,16.39,0,0,0-6.35-6.77,19,19,0,0,0-18.35,0Z" transform="translate(0.14)"/><path class="cls-2" d="M499.86,174.56h-6.42L467.6,135.24v39.31h-6.42V124.8h6.42l25.84,39.38V124.8h6.42Z" transform="translate(0.14)"/></svg>