<svg id="Layer_1" data-name="Layer 1" xmlns="http://www.w3.org/2000/svg" viewBox="0 0 765.23 342.04"><defs><style>.cls-1,.cls-16{fill:#fff;}.cls-1{stroke:#00c5db;}.cls-1,.cls-14,.cls-17{stroke-miterlimit:10;}.cls-1,.cls-10,.cls-12,.cls-13,.cls-14,.cls-15,.cls-17,.cls-2,.cls-4,.cls-5,.cls-7,.cls-8{stroke-width:5px;}.cls-11,.cls-2{fill:#9c9c9c;}.cls-10,.cls-14,.cls-15,.cls-17,.cls-2,.cls-4,.cls-5,.cls-7,.cls-8{stroke:#000;}.cls-10,.cls-12,.cls-13,.cls-15,.cls-2,.cls-4,.cls-5,.cls-7,.cls-8{stroke-linecap:round;stroke-linejoin:round;}.cls-3,.cls-7{fill:#d9d9d9;}.cls-5,.cls-9{fill:#129f58;}.cls-6,.cls-8{fill:#46c678;}.cls-10,.cls-12,.cls-14{fill:none;}.cls-12,.cls-13{stroke:#fff;}.cls-15{fill:#090a0a;}.cls-18{fill:#00c5db;}</style></defs><title>footer-adv-fb-en</title><path class="cls-1" d="M503.4,70a23.8,23.8,0,1,1-16.8,7A23.8,23.8,0,0,1,503.4,70Z" transform="translate(0 0.01)"/><path class="cls-1" d="M91.45,272.55a93.19,93.19,0,0,1-57.3-163.07A120.8,120.8,0,0,1,245.29,44a68.84,68.84,0,0,1,83.86,20,68.83,68.83,0,0,1,93.18,24,93.22,93.22,0,0,1-10,184.35q-3.92.34-7.93.34H95.6C94.25,272.65,92.84,272.62,91.45,272.55Z" transform="translate(0 0.01)"/><path class="cls-1" d="M557.08,112.47a14.29,14.29,0,1,1-14.29,14.29h0A14.29,14.29,0,0,1,557.08,112.47Z" transform="translate(0 0.01)"/><path class="cls-2" d="M675,161.64c-73.88,1-82.2,108.12-84.28,177.89H747.47C744.78,261.16,754,160.58,675,161.64Z" transform="translate(0 0.01)"/><path class="cls-3" d="M643.88,337.74c5.6-34.63,6.75-81,17.92-126.61a15,15,0,0,1,14.8-11.23,15.49,15.49,0,0,1,3,.34c6.11,1.3,8.17,12.8,9.84,23.23,9,56.48,18.21,83.12,22.24,114.27Z" transform="translate(0 0.01)"/><path class="cls-2" d="M634.24,165.22C595.89,181.5,584,280.89,577.14,339.53h56.62C643.6,256.48,656.68,208.12,634.24,165.22Z" transform="translate(0 0.01)"/><path class="cls-3" d="M589.43,337.74s3.34-21.3,10.86-26.61c8.3-5.86,16.68-7.75,25.84-2.25.48,16.81,0,28.6,0,28.6Z" transform="translate(0 0.01)"/><path class="cls-4" d="M634.24,165.22c28.64,49.93,2.23,114.48-.48,174.31-4.82-.3-11.61-.25-15-.28,6.69-93.31,25.58-103,4-170C625.21,168.35,629.13,166.84,634.24,165.22Z" transform="translate(0 0.01)"/><path class="cls-2" d="M651.6,225.84c-8.12,39.26-10.12,84.22-13.3,92.72-4.38-5.42-14.5-36.11-10.6-60.06C630.8,239.39,645.38,228.23,651.6,225.84Z" transform="translate(0 0.01)"/><path class="cls-2" d="M706.6,163.3c-21.7,53.15,17.27,131.44,19.48,176.11l31.85.12C754,268.17,735,167.25,706.6,163.3Z" transform="translate(0 0.01)"/><path class="cls-3" d="M729.9,303.18c3.1-4,7.83-5.17,13.11-4.4,8.45,1.23,7.81,19.32,7.54,39l-18.68-.15C729.34,322.11,721.52,314,729.9,303.18Z" transform="translate(0 0.01)"/><path class="cls-4" d="M706.6,163.3a99.09,99.09,0,0,1,9.57,3.8c-19.85,47.26,18,120.33,20.77,172.42l-10.86-.12C724.07,295.24,685.71,216.24,706.6,163.3Z" transform="translate(0 0.01)"/><path class="cls-2" d="M699.33,259.86c3.18,20.3,5.5,78.46,10.42,78.46,4.43-18.53,24.71-32,12.44-56.23C717.2,272.23,704.87,256,699.33,259.86Z" transform="translate(0 0.01)"/><path class="cls-5" d="M665.6,254.37a400.89,400.89,0,0,1,1.29,47.87c-.06,1.9-3.45,4.87-2.39,6.93.79,1.54,4.32-1.21,7.16-1.1,3.39.14,6.18,2.84,7.22,1s-1.23-4.75-1.88-5.9c-8.43-14.87-3.11-37.1,5.21-50.89C678.81,249.13,669.6,250,665.6,254.37Z" transform="translate(0 0.01)"/><path class="cls-6" d="M670.13,263.81c.36-3.09.22-4.11,1.1-5.29,1.22-1.63,3.71-2.66,4.68-1.94,1.28.93-.33,4.6-1.58,8.36-1.57,4.75-4.94,15-3.17,24.18,1.61,8.28,7.22,14.86,5.38,16.28-.31.24-.9.27-2.07.33-2.49.13-3.11-.65-4.68-.27s-2.24,1.47-2.62,1.21.17-1.57.55-2.75a31.55,31.55,0,0,0,.82-6.57c.35-4.74-.27-7.6-.27-14.07a114.74,114.74,0,0,1,1-14C669.68,266.14,669.82,266.5,670.13,263.81Z" transform="translate(0 0.01)"/><path class="cls-4" d="M699.79,260.24c-11.23,7.57-24.65-.85-26.49,4.83-.8,2.47,1,4.4,7,6.29-5-.11-12.61.58-15.21,1.9-3.85,2-6.08,8,3,10.64-4.94.38-6.62,4.72-5.79,8.39.56,2.49,6.17,4.92,9.59,4.54-2.28,1.14-2.92,3.3-1.14,4.7,4.18,3.28,17.49.94,19.66.3,8.93-2.62,11.55-3.12,24.19-12.33C719.83,278.69,710.36,265.33,699.79,260.24Z" transform="translate(0 0.01)"/><path class="cls-7" d="M706.6,163.3c16.78,5.21,31.93,16.89,45.71,39.23,9.45,15.3,14.46,29.63,6.36,48.28-17.77,40.91-31.83,47.11-48.89,87.51C720.14,305,717,274.4,699.36,259.86c12.16-9,20-18,26.91-30.72-6.36-5.76-8.68-9.6-8.68-20.57" transform="translate(0 0.01)"/><path class="cls-8" d="M675.72,257c-2-1.84-.29-10.45,5.29-15.13,8.39-7,15.33,0,25.56-5.62C708.6,240.84,696.44,261.6,675.72,257Z" transform="translate(0 0.01)"/><path class="cls-9" d="M676,256.46c7.29-12.52,22.38-8.87,29.81-19.11a.51.51,0,0,1,.93.28c-.16,6.24-11.69,23.22-30.41,19.54a.48.48,0,0,1-.33-.71Z" transform="translate(0 0.01)"/><path class="cls-4" d="M643.69,232.61c7.36-6.55,18.92-8,25.65-7.64,2.94.17,4.94,3,3.34,5.3a21.05,21.05,0,0,1-1.36,1.75c15.91,3.7,10.15,11.22,7.11,14.64.76,2.28-.41,5.55-1.14,7.22s-3,2.66-5.32,3C669.69,271,652.26,268.16,636.9,261,631.6,254.81,635,240.38,643.69,232.61Z" transform="translate(0 0.01)"/><path class="cls-7" d="M634.24,165.22c-4.75,1.2-37.33,12-58.62,35.06a29.71,29.71,0,0,0-5.11,33.45c11.9,24,45,51.37,67.77,84.84-12.92-22-.58-68.58,13.3-92.72-9,0-16.2-1.92-32.11-4.94,2.31-5.21-4.34-11-9.84-13.17" transform="translate(0 0.01)"/><path class="cls-10" d="M675.72,257c7-11.52,14.83-9.66,21.13-13.14" transform="translate(0 0.01)"/><path class="cls-5" d="M665.1,314.81c1.16-3.08,12.61-3.32,14-.18.54,1.23-.61,2.68-1.72,4.12a2.7,2.7,0,0,0-.56,1.41c-.61,6.54-.94,12.94-1.34,19.37H665.07c.47-6.61.89-12.39,1.54-18.69a5.57,5.57,0,0,0-.91-3.73A2.56,2.56,0,0,1,665.1,314.81Z" transform="translate(0 0.01)"/><path class="cls-6" d="M667.68,314.79A4.47,4.47,0,0,1,670,314c2.8-.28,4.87-.49,5.73.67s.19,2.66,0,3.23c-1.66,5-1.87,12.51-2,19.85l-6.52-.28c1-8.46,2-17.16.42-19.31-.17-.23-1.06-1.36-.73-2.35A2.15,2.15,0,0,1,667.68,314.79Z" transform="translate(0 0.01)"/><path class="cls-4" d="M619.94,170.45c3.9-1.62,8.81-3.47,14.3-5.23,2.41,4.56,2.41,4.56,4.46,9.09-1.61,3.17-9.07,6.36-12.54,6.17C623.72,174.93,622.93,174.57,619.94,170.45Z" transform="translate(0 0.01)"/><path class="cls-4" d="M706.6,163.3a95,95,0,0,1,9.57,3.8c-2.1,5.76-2.5,7.08-4.82,18.09-3.2.63-8-1.61-9.61-3.47A116.43,116.43,0,0,1,706.6,163.3Z" transform="translate(0 0.01)"/><path class="cls-10" d="M675.72,257" transform="translate(0 0.01)"/><path class="cls-10" d="M706.6,236.27" transform="translate(0 0.01)"/><path class="cls-11" d="M619.48,220.91c-5.79.19-10.62-2.24-14-2.8a78.21,78.21,0,0,1-11.63-2.64c-13.5-3.8.76-5.62,2.28-5.84,2.74-.38,4.61.27,5.26-.38.5-.5-.61-1.65-1.14-4.21-.35-1.64-.73-3.35.09-4.66,1.45-2.32,5.78-2.08,6.94-2,3.13.17,13.38,4,14.66,4.94" transform="translate(0 0.01)"/><path class="cls-10" d="M619.48,220.91a12.14,12.14,0,0,0,.08-5.54c-1.77-7.83-11.14-10.9-12-11.16" transform="translate(0 0.01)"/><path class="cls-10" d="M619.48,220.91c-5.76-.6-12-2.57-17.9-3.58" transform="translate(0 0.01)"/><path class="cls-11" d="M568.31,217.33a107.66,107.66,0,0,0,14.75,19c7,7.32,14.83,15.59,27.2,20.57A120,120,0,0,0,636,264c-3.54,15.82-5.84,31.37-1,48.69-9.37-12.84-28.32-33.45-42.09-49.29-7.71-8.87-13.77-16.51-15.67-19.84C568.4,231.64,567.16,222,568.31,217.33Z" transform="translate(0 0.01)"/><path class="cls-10" d="M595.6,253.77a68.46,68.46,0,0,0,8.4,5.76,71.36,71.36,0,0,0,19.24,7.68" transform="translate(0 0.01)"/><path class="cls-11" d="M716.39,229.77c.07,0-3.06-29.93-2.8-30.1.76-.49-2-5.15,2.31-1.46,1.87,1.59,4.64,2.8,6.08,5.45,1.63,3,.64,4.66,2.51,6.77,2.61,2.93,6.24,1.6,8.29,4.21s.59,6.79.38,7.32c-1.57,4.09-7.84,8.36-7.08,7" transform="translate(0 0.01)"/><path class="cls-10" d="M725.94,229.77c1-2.23,3.39-5.76,3.08-9.6" transform="translate(0 0.01)"/><path class="cls-10" d="M724.1,212.76a37.07,37.07,0,0,0-.38,9.94c.23,2.43,1.64,5.21,2.2,6.79" transform="translate(0 0.01)"/><path class="cls-10" d="M715.85,203.64a32.2,32.2,0,0,0,1.59,14.83c2.66,7.39,6.18,9.5,8.18,11.78" transform="translate(0 0.01)"/><path class="cls-11" d="M714.18,283.63S756,251.78,762,230.25c1.74,14.34-10,33-12.34,37.63-1,2.37-5.17,9.68-11,18.63-8.2,12.6-19.26,28.94-26,43.63C715,321.59,718.72,302,714.18,283.63Z" transform="translate(0 0.01)"/><path class="cls-10" d="M722.36,285.23a71.9,71.9,0,0,0,10.9-9,69.47,69.47,0,0,0,10-12.89" transform="translate(0 0.01)"/><path class="cls-10" d="M675.74,257.52c-2-1.84-.29-10.45,5.29-15.13,8.39-7,15.33,0,25.56-5.62C708.6,241.33,696.46,262.09,675.74,257.52Z" transform="translate(0 0.01)"/><path class="cls-10" d="M634.24,165c-4.75,1.2-37.33,12-58.62,35.06a29.71,29.71,0,0,0-5.11,33.45c11.9,24,45,51.37,67.77,84.84-12.92-22-.58-68.58,13.3-92.72-9,0-25-2.66-32.09-4.65" transform="translate(0 0.01)"/><path class="cls-10" d="M717.6,208" transform="translate(0 0.01)"/><path class="cls-10" d="M706.6,162.77c16.78,5.24,31.93,16.89,45.71,39.24,9.45,15.3,14.46,29.63,6.36,48.28-17.77,40.93-31.82,47.09-48.88,87.51,10.36-33.33,7.22-63.92-10.42-78.46,12.16-9,20-18,26.91-30.72" transform="translate(0 0.01)"/><path class="cls-12" d="M665.88,283.54a36.82,36.82,0,0,0,4.94.38,49.82,49.82,0,0,0,9.12-.76" transform="translate(0 0.01)"/><path class="cls-13" d="M670.82,297.22c2.28.76,10.71-1.78,11.41-2.28" transform="translate(0 0.01)"/><path class="cls-13" d="M678,247c-1.06.38-5.32,1.9-9.12,1.14" transform="translate(0 0.01)"/><path class="cls-13" d="M671.6,258a42.4,42.4,0,0,1-8,1.14" transform="translate(0 0.01)"/><path class="cls-10" d="M653.43,171.45" transform="translate(0 0.01)"/><path class="cls-10" d="M652.67,175.63" transform="translate(0 0.01)"/><path class="cls-10" d="M654.6,171.45" transform="translate(0 0.01)"/><path class="cls-14" d="M727.41,139.63" transform="translate(0 0.01)"/><path class="cls-15" d="M614,120c-6.51-2.91-8-7.94-7.39-8.74,0,0,4.22,1.84,5.09,1,2-2-17.35-7.74-16.51-24.74.43-8.78,5.26-17.82,8.64-20.91.29-.27.49-3.63,1.47-4.77.5-.58,2.78,1.52,2.74,1a4.4,4.4,0,0,1,2.71-4.71c.85-.3.68,3.89,3,4.66.33-1.43.79-2.37,1.85-2.84,1.47,1.54.46,1.68,2.46,3,4.32,2.1,11.32,8.85,18.83,14.56,10,1.34,24-9.45,30-7.88a.72.72,0,0,1,.5.89h0a.1.1,0,0,1,0,.05c-.79,2.3-4.94,4.65-4.94,4.65,1.6,3,12-9.12,25.7-4.88.33.79-6.64,3.66-6.2,5.3,7.78.91,10.32.89,12.68,0,5.88-3.06,8.51-14.64,17.24-16.38,1.57-1.7,2.83-3.2,3.62-2.91s.14,2.28,1.09,2.28c.46,0,1.79-2.11,2.26-3.61,3.77.17,2.83,5.13,3.32,5.12.71,0,1.45-1.61,1.66-1.76.79,0,1.52,2.7,2,5.85,7.78,9.21,19.24,27.43-2.14,42.09-.11,2.84,4,.43,6.46,0-1.14,6-8.4,10.68-8.48,12.08" transform="translate(0 0.01)"/><path class="cls-7" d="M594.49,153.59c6.87-5.41,12.29-12.24,17.17-26.92,5.7-17.13,16.62-49.19,55.27-49.19,46.69,0,50.51,25,60.48,61.37,2.66,9.65,7.89,12.91,14.21,13.19a6.41,6.41,0,0,1-5.4,3.35c1.52,3,2.12,4.63.79,7.49-.79-2.86-4.28-4.45-4.28-4.45-.83,9.54-9.48,14.17-22.81,21.84-2.28,1.32-17.82,16.89-36.11,16.9-26.36,0-40.14-13.78-44-16.37-7.38-4.31-18.47-5.16-27.66-18.83-1.52.52-2.44.33-5,2.42-.86-1.12-.11-4.63,2.88-7.72C596.93,156.68,594.49,155,594.49,153.59Z" transform="translate(0 0.01)"/><path class="cls-16" d="M606.2,158.11c-1.31-.4-2.21-3.27-1.47-6.87a9.35,9.35,0,0,1,2-4c5.64-6.91,7.34-10.89,10-18,.54-1.43,1.17-2.82,1.83-4.18a31.05,31.05,0,0,0,1.34-3.16c3.86-10.45,6.39-17.42,10.26-21.82,7.32-6,12.48-4.15,12.07-5.08-1.29-2.46-6.31-3-6.31-3,1.19-3.34,15.56-.4,19.72-1.54-1.94-2.46-4.74-3.12-4.09-4.52a45.7,45.7,0,0,0,18.39,3.42,64,64,0,0,0,15.62-2.76c.59,1.06-1.52,2.66-2.22,4.63,3.54,2.07,17.32-1.11,17.94.88,0,0-4,1.52-4.64,3a56,56,0,0,1,8.21,3.12A14.07,14.07,0,0,1,711,104c4.28,7.68,2.69,18.52,11,35.14,3.7,7.39,9.5,12.64,8.31,15.55,0,0-2.92-2.83-5.65-3.31-.08,2,2.28,7.64,1.33,8.16a11.11,11.11,0,0,0-3.21-1.87,13.44,13.44,0,0,1-1.33,6.73c-1.52,2.86-10.23,9.31-18.39,9.75a10.26,10.26,0,0,0-6.3,2.45c-3,2.61-7.7,4.09-11.2,1.48-.5-.38,3.09-.67,4.94-1.94-1.36-1.38,1-1.19.4-1.61,2.11-2.26-2.17.15-2.22-1.56-15,5.78-19.91-13-19.91-13s-4.85,23.26-22,8.15c.09,1.2,1.52,4.31,1.11,4.88-1.52-.66-2.63.67-3.57,1.77,3.8.22,7.63,1.94,6.91,2.44-8.28,5.73-6.91-.69-16.11-3.88-7.83-2.72-11.31-2.87-15.13-4.39a9.92,9.92,0,0,1-6.36-8.28v-.84c-1.1-.22-2,.83-2.88,2.31-.92-.38-.17-6.37.67-8.27C607.5,154.1,606.5,158,606.2,158.11Z" transform="translate(0 0.01)"/><path class="cls-14" d="M741.6,152a6.41,6.41,0,0,1-5.4,3.35" transform="translate(0 0.01)"/><path class="cls-14" d="M727.41,138.87" transform="translate(0 0.01)"/><path class="cls-10" d="M664.27,74.51" transform="translate(0 0.01)"/><path class="cls-10" d="M667.6,69.71" transform="translate(0 0.01)"/><path class="cls-10" d="M636.91,77.38" transform="translate(0 0.01)"/><path class="cls-3" d="M631.72,149.75c-.29-2.14.24-2.58,1-2.8.69,2.06,3.28,5.76,6.08,6,1.25-3.78,11.48-6.88,12.86-7.26.41.6-.9,2.22-.76,2.33,4.52.27,8.8-10,10.52-11.49,1.65.88,4.94,10.21-.87,16.5,3.31,4.87,13.93,4.84,16.87.23-5.15-7.73-3-15.59-1.61-16.38,1.52.58,6.61,9.82,11.46,12.66-.66-1.9-.43-2.45.11-2.8,1.32,1.55,8.07,9.55,12.49,10.72,3.75-2.27,5.52-8,6.68-7.47.71.29.69,2.21.55,3.26,1.64-.74,7.93-7.14,7.88-15.72,0-10.68-10.93-19.94-20.37-20.38a28.29,28.29,0,0,0-18.14,5.2c-1.57-3,2.37-7.77,2.37-7.77-.76-.71-3.76-.38-6.54,2.14,0-1.67-2.36-6.84-3.54-6.68s-2.44,3.77-3.36,6.91c-.62.47-2.66-3.57-6.46-2.33,2.23,2.72,4,6.44,3,7.88-3.14-2.41-6.9-4.18-13.91-4.77-10.62-.89-23.29,7.11-24.78,16.7C621.93,142.92,630.21,150.39,631.72,149.75Z" transform="translate(0 0.01)"/><path class="cls-17" d="M676.15,126a9,9,0,0,0,.28,4.56c.84,2.41,2.39,3.25,5.22,6.35,6.08,6.68,9.12,10,13.6,10,4.88,0,9.5-3.63,11.54-8a13.39,13.39,0,0,0,1.14-8.68c-1-4.23-4.08-7.88-7.71-10.31-5.76-3.84-13-5.95-16.73-4.5C679.5,117.34,677,121.31,676.15,126Z" transform="translate(0 0.01)"/><path class="cls-17" d="M669.44,168.92c-.43,0,.43-5.79-2.5-9.12-.92-1-1.82-1.74-5.49-3.25-2.68-1.1-5.8-2.33-6.18-4.41-.24-4.27,6.66-5.93,13.46-6.15s14.07,1.34,14.07,5.47c0,2.15-2.13,2.73-5.29,4.38-2.61,1.36-4.2,1.88-5.7,3.52C668.71,162.75,669.88,168.93,669.44,168.92Z" transform="translate(0 0.01)"/><path class="cls-16" d="M661.41,148.85c-.06-.53,3.19-1.74,7.6-1.74,4.94,0,7.8,1,7.75,1.57C676.73,149.72,661.54,149.87,661.41,148.85Z" transform="translate(0 0.01)"/><path class="cls-17" d="M661.89,126a9,9,0,0,1-.28,4.56c-.84,2.41-2.39,3.25-5.22,6.35-6.08,6.68-9.12,10-13.6,10-4.88,0-9.5-3.63-11.54-8a13.39,13.39,0,0,1-1.14-8.68c1-4.23,4.08-7.88,7.71-10.31,5.76-3.84,13-5.95,16.73-4.5C658.53,117.34,661,121.31,661.89,126Z" transform="translate(0 0.01)"/><path class="cls-3" d="M689.6,153.29c.26-.48,4,.88,6.91,2.66a9.41,9.41,0,0,1,3.5,3.23c2.1,3.77,2.25,9.59,2.23,9.32-.22-2.89-2.9-8.88-4.91-9.77.16,1,4,4.44-1.27,20.53-.07.12,2.83-15.35-1.56-21.76C692.6,154.71,689.35,153.74,689.6,153.29Z" transform="translate(0 0.01)"/><path class="cls-3" d="M648.21,153.29c-.26-.48-4,.88-6.91,2.66a9.41,9.41,0,0,0-3.5,3.23c-2.1,3.77-2.25,9.59-2.23,9.32.22-2.89,2.9-8.88,4.91-9.77-.16,1-4,4.44,1.27,20.53.07.12-2.83-15.35,1.56-21.76C645.23,154.71,648.44,153.74,648.21,153.29Z" transform="translate(0 0.01)"/><path class="cls-10" d="M644.7,158.31A14.76,14.76,0,0,0,648,169.15c3.72,5.85,10.32,6.08,14.4,4.74a16,16,0,0,0,6.76-4.41" transform="translate(0 0.01)"/><path class="cls-10" d="M694.43,160.09c0,11.78-9.36,14.16-9.69,14.23a16.17,16.17,0,0,1-8.59-.43,15.74,15.74,0,0,1-6.7-4.92" transform="translate(0 0.01)"/><path class="cls-7" d="M677,114.52c-.35-.43-1.72-2.14-1.56-3.88.41-4.23,9.75-4.85,11.58-5,15.13-1,22.52,11.23,39.53,17.21,18.35,6.46,32.34.14,32.58,1.66s-11.68,4.44-27.42,4.28c-16.8-2-19.64-4.94-30.94-10.07A20,20,0,0,0,689,117C684.6,117.85,679.92,118.14,677,114.52Z" transform="translate(0 0.01)"/><path class="cls-7" d="M659.6,163.85c-.06-2-2.24-3.42-2.83-3.8-5.34-3.45-14.09,0-23.93,6.12-19.11,11.91-26,15.89-28,16.73a78.53,78.53,0,0,1-41.07,4.47c-11.33-1.26-19.35-4.91-19.44-4.63s11.23,5.9,26.25,7.78c15.65,2,27.9-1,35.56-3,4.56-1.14,25.12-10.91,28.58-12.61C649.6,167.57,659.74,167.71,659.6,163.85Z" transform="translate(0 0.01)"/><path class="cls-16" d="M655.18,162.08a4.36,4.36,0,0,0-3.12-1.55,20.78,20.78,0,0,0-8.92,1.55,71.9,71.9,0,0,0-13.38,8.22A152.81,152.81,0,0,1,614.82,180a80.33,80.33,0,0,1-14.49,6.22,58.86,58.86,0,0,1-20.62,2.94c0,.2,7.32.56,16.7-1.08a67.43,67.43,0,0,0,17.52-5.86c4.15-1.77,7.14-4,13.16-7.32a114.08,114.08,0,0,1,11.82-6.66,43.61,43.61,0,0,1,7.13-2.66,26.69,26.69,0,0,1,6.24-.67c1.72-.18,2.36.06,3.12-.89C655.94,163.42,655.7,162.8,655.18,162.08Z" transform="translate(0 0.01)"/><path class="cls-7" d="M680.22,183c-2.58-3.33-2.94-3.61-3.63-4a9.58,9.58,0,0,0-9.66.72c-2,1.45-1.78,2.77-4.15,4.09-1.81,1-3,.84-4.65,1.31-3.42,1-5.44,3.65-7.14,5.9-5,6.65-7.66,17.46-8.31,19.84-3.08,11.53-11.48,18.74-19.08,25.3C603.19,253.74,570,258,548,247.5c-5.66-2.69-12.6-7.3-13.14-6.56s7.11,8,14.12,12.63c20.32,13.25,52.7,16,76.76,3.12,12.76-6.84,21.89-17.35,23.59-15.75,1,1-1.41,5.7-4.49,9-6.23,6.76-15,7.78-14.79,8.36s5.7.31,12.29-2.28c7.26-2.88,11.81-7.2,18.11-13.28,5.53-5.34,8.83-8.54,12.46-13.94,4.15-6.18,7.6-11,11.38-22.14,3.45-10.23,2.15-14.86.41-17.71C684.4,188.46,683,186.66,680.22,183Z" transform="translate(0 0.01)"/><path class="cls-16" d="M663,187c-.52-.73-3.66.26-4.24.45a7.85,7.85,0,0,0-4.61,3.26c-4.37,5.84-8.12,17.53-11,23.8-3.27,7.22-6.75,12.8-9.62,16a70.07,70.07,0,0,1-23,17.11c-5.46,2.5-25.61,13.3-48.17,7.11A150.81,150.81,0,0,1,547.92,250s2.58,1.48,10.48,5.11a106.61,106.61,0,0,0,14,4.84c20.1,5.41,39.35-.49,41.37-1.14a78.18,78.18,0,0,0,31.07-19.43c11.2-11.5,16-24,17.44-23.32,1.26.57-.51,10.18-1.29,12.39-1.87,5.23-2.43,8.3-7.13,14-4,4.8-7.32,8.66-7.13,8.88s2.92-2.84,9.09-8.39c5.25-4.72,8.61-9.26,15.12-18.14,8.56-11.68,10.2-15.68,11.13-18.78a33,33,0,0,0,.67-13.11c-.24-1.58-.67-4.25-1.66-4.37-.43,0-1.44.32-3.49,6-3.84,10.64-3.72,18.76-4.65,18.78-.71,0-1.62-4.65-2-9.55-.74-9.8,5.38-22.36,4.11-22.81-1.64-.59-10.26,7.6-13.75,21.36-1.77,7-2.69,7.91-5,13.11-5.16,11.67-13.34,19.26-13.78,19s3-4.6,8.47-14.9c4.88-9.15,5-20,6-23.15C658.69,190.59,663.83,188.14,663,187Z" transform="translate(0 0.01)"/><path class="cls-7" d="M678,161.87c.7-2.14,4.07-2.73,4.65-2.81a9.79,9.79,0,0,1,6.46,1.49c1.74,1,5.11,3.53,7.81,11.41,1.31,3.83,4.28,12.58,2,22.18-5.26,22.1-33.9,29.73-39,31.1-13.73,3.66-23.59,1.19-25.59.66-6.21-1.65-11.78-4.69-11.63-5.13s5.66,2,13.3,3a56,56,0,0,0,20.44-1c12.65-3.17,20.82-9.3,22.76-11.17,4.28-4.07,9.86-10,11.39-17.94.46-2.43,1.69-10.15-2-16.3A75,75,0,0,0,680,166.85C678.72,165.44,677.52,163.53,678,161.87Z" transform="translate(0 0.01)"/><path class="cls-16" d="M681.27,163.42a2.34,2.34,0,0,1,0-1.33c.67-1.77,3.39-1.27,5.8,0,7.58,4,11.9,16.13,10.7,26.2a37.79,37.79,0,0,1-12,23.13,43.32,43.32,0,0,1-8.64,5.54c-12.46,6.69-23.19,8-23.26,7.78s14.16-1.25,26.83-11.41c3.65-2.93,9.61-7.25,11.92-14.83,1.94-6.32,2.28-12.42,1.56-16.43-1.1-6.08-2.55-9.66-5.13-12.21C685.79,166.61,681.87,167,681.27,163.42Z" transform="translate(0 0.01)"/><path class="cls-7" d="M661.16,114.52c.35-.43,1.72-2.14,1.56-3.88-.42-4.24-9.76-4.88-11.58-5-15.13-1-22.52,11.23-39.53,17.21-18.35,6.46-32.34.14-32.58,1.66s11.7,4.43,27.44,4.28c16.8-2,19.64-4.94,30.94-10.07A20,20,0,0,1,649.13,117C653.55,117.85,658.21,118.14,661.16,114.52Z" transform="translate(0 0.01)"/><path class="cls-16" d="M658.75,109.24a17.41,17.41,0,0,0-8.92-1.33c-9.88.76-13.35,3.1-23.86,9.55-12.16,7.47-17.36,8.09-22.74,8.88a41.35,41.35,0,0,1-8.47.22,49.58,49.58,0,0,0,18.52-1.11c3.9-1,8.48-2.78,17.66-6.89,15.34-6.88,18.89-5.09,23.37-5.1,4,0,4.94.48,5.57-.8a2.33,2.33,0,0,0-1.13-3.42Z" transform="translate(0 0.01)"/><path class="cls-16" d="M679.6,109.24a17.41,17.41,0,0,1,8.92-1.33c9.88.76,13.35,3.1,23.86,9.55,12.16,7.47,17.66,8.31,23,9.1a33.73,33.73,0,0,0,8.16.11c.09.56-8.16,1.46-18.19-1-3.9-1-8.74-3-18-7.11-15.34-6.88-18.89-5.09-23.37-5.1-4,0-4.94.48-5.57-.8a2.36,2.36,0,0,1,1.19-3.42Z" transform="translate(0 0.01)"/><path class="cls-16" d="M654.77,129.46a2.32,2.32,0,0,1-1.29,2.42c-1.66.81-4.72,2.26-8.36,3.76-2,.84-2.58-1.52-2.4-4s4.69-6.12,9.12-5.81C653.6,126,654.48,127.62,654.77,129.46Z" transform="translate(0 0.01)"/><path class="cls-16" d="M683,129.16a2.6,2.6,0,0,0,1.43,2.81c1.7.83,4.66,2.22,8.17,3.66,2,.84,2.58-1.52,2.4-4s-4.69-6.12-9.12-5.81C684.23,126,683.3,127.45,683,129.16Z" transform="translate(0 0.01)"/><path class="cls-15" d="M614,119.61c-6.51-2.91-8-7.94-7.39-8.74,0,0,4.22,1.84,5.09,1,2-2-17.35-7.74-16.51-24.74.43-8.78,5.26-17.82,8.64-20.91.29-.27.49-3.63,1.47-4.77.5-.58,2.78,1.52,2.74,1a4.4,4.4,0,0,1,2.71-4.71c.85-.3.68,3.89,3,4.66.33-1.43.79-2.37,1.85-2.84,1.47,1.54.46,1.68,2.46,3,4.32,2.1,11.32,8.85,18.83,14.56,10,1.34,24-9.45,30-7.88a.72.72,0,0,1,.5.89h0a.1.1,0,0,1,0,.05c-.79,2.3-4.94,4.65-4.94,4.65,1.6,3,12-9.12,25.7-4.88.33.79-6.64,3.66-6.2,5.3,7.78.91,10.32.89,12.68,0,5.88-3.06,8.51-14.64,17.24-16.38,1.57-1.7,2.83-3.2,3.62-2.91s.14,2.28,1.09,2.28c.46,0,1.79-2.11,2.26-3.61,3.77.17,2.83,5.13,3.32,5.12.71,0,1.45-1.61,1.66-1.76.79,0,1.52,2.7,2,5.85,7.78,9.21,19.24,27.43-2.14,42.09-.11,2.84,4,.43,6.46,0-1.14,6-8.4,10.68-8.48,12.08" transform="translate(0 0.01)"/><path class="cls-7" d="M594.49,153.21c6.87-5.41,12.29-12.24,17.17-26.92,5.7-17.13,16.62-49.19,55.27-49.19,46.69,0,50.51,25,60.48,61.37,2.66,9.65,7.89,12.91,14.21,13.19a6.41,6.41,0,0,1-5.4,3.35c1.52,3,2.12,4.63.79,7.49-.79-2.86-4.28-4.45-4.28-4.45-.83,9.54-9.48,14.17-22.81,21.84-2.28,1.32-17.82,16.89-36.11,16.9-26.36,0-40.14-13.78-44-16.37-7.38-4.31-18.47-5.16-27.66-18.83-1.52.52-2.44.33-5,2.42-.86-1.12-.11-4.63,2.88-7.72C596.93,156.31,594.49,154.65,594.49,153.21Z" transform="translate(0 0.01)"/><path class="cls-16" d="M606.2,157.73c-1.31-.4-2.21-3.27-1.47-6.87a9.35,9.35,0,0,1,2-4c5.64-6.91,7.34-10.89,10-18,.54-1.43,1.17-2.82,1.83-4.18a31.05,31.05,0,0,0,1.34-3.16c3.86-10.45,6.39-17.42,10.26-21.82,7.32-6,12.48-4.15,12.07-5.08-1.29-2.46-6.31-3-6.31-3,1.19-3.34,15.56-.4,19.72-1.54-1.94-2.46-4.74-3.12-4.09-4.52A45.7,45.7,0,0,0,669.92,89a64,64,0,0,0,15.62-2.76c.59,1.06-1.52,2.66-2.22,4.63,3.54,2.07,17.32-1.11,17.94.88,0,0-4,1.52-4.64,3a56,56,0,0,1,8.21,3.12,14.07,14.07,0,0,1,6.13,5.73c4.28,7.68,2.69,18.52,11,35.14,3.7,7.39,9.5,12.64,8.31,15.55,0,0-2.92-2.83-5.65-3.31-.08,2,2.28,7.64,1.33,8.16a11.11,11.11,0,0,0-3.21-1.87,13.44,13.44,0,0,1-1.33,6.73c-1.52,2.86-10.23,9.31-18.39,9.75a10.26,10.26,0,0,0-6.3,2.45c-3,2.61-7.7,4.09-11.2,1.48-.5-.38,3.09-.67,4.94-1.94-1.36-1.38,1-1.19.4-1.61,2.11-2.26-2.17.15-2.22-1.56-15,5.78-19.91-13-19.91-13s-4.85,23.26-22,8.15c.09,1.2,1.52,4.31,1.11,4.88-1.52-.66-2.63.67-3.57,1.77,3.8.22,7.63,1.94,6.91,2.44-8.28,5.73-6.91-.69-16.11-3.88-7.83-2.72-11.31-2.87-15.13-4.39a9.92,9.92,0,0,1-6.31-8.34v-.84c-1.1-.22-2,.83-2.88,2.31-.92-.38-.17-6.37.67-8.27C607.5,153.72,606.5,157.56,606.2,157.73Z" transform="translate(0 0.01)"/><path class="cls-14" d="M741.6,151.69a6.41,6.41,0,0,1-5.4,3.35" transform="translate(0 0.01)"/><path class="cls-14" d="M727.41,138.49" transform="translate(0 0.01)"/><path class="cls-10" d="M664.27,74.13" transform="translate(0 0.01)"/><path class="cls-10" d="M667.6,69.33" transform="translate(0 0.01)"/><path class="cls-10" d="M636.91,77" transform="translate(0 0.01)"/><path class="cls-3" d="M631.72,149.38c-.29-2.14.24-2.58,1-2.8.69,2.06,3.28,5.76,6.08,6,1.25-3.78,11.48-6.88,12.86-7.26.41.6-.9,2.22-.76,2.33,4.52.27,8.8-10,10.52-11.49,1.65.88,4.94,10.21-.87,16.5,3.31,4.87,13.93,4.84,16.87.23-5.15-7.73-3-15.59-1.61-16.38,1.52.58,6.61,9.82,11.46,12.66-.66-1.9-.43-2.45.11-2.8,1.32,1.55,8.07,9.55,12.49,10.72,3.75-2.27,5.52-8,6.68-7.47.71.29.69,2.21.55,3.26,1.64-.74,7.93-7.14,7.88-15.72,0-10.68-10.93-19.94-20.37-20.38a28.29,28.29,0,0,0-18.14,5.2c-1.57-3,2.37-7.77,2.37-7.77-.76-.71-3.76-.38-6.54,2.14,0-1.67-2.36-6.84-3.54-6.68s-2.44,3.77-3.36,6.91c-.62.47-2.66-3.57-6.46-2.33,2.23,2.72,4,6.44,3,7.88-3.14-2.41-6.9-4.18-13.91-4.77-10.62-.89-23.29,7.11-24.78,16.7C621.93,142.55,630.21,150,631.72,149.38Z" transform="translate(0 0.01)"/><path class="cls-17" d="M676.15,125.58a9,9,0,0,0,.28,4.56c.84,2.41,2.39,3.25,5.22,6.35,6.08,6.68,9.12,10,13.6,10,4.88,0,9.5-3.63,11.54-8a13.39,13.39,0,0,0,1.14-8.68c-1-4.23-4.08-7.88-7.71-10.31-5.76-3.84-13-5.95-16.73-4.5C679.5,117,677,120.92,676.15,125.58Z" transform="translate(0 0.01)"/><path class="cls-17" d="M669.44,168.54c-.43,0,.43-5.79-2.5-9.12-.92-1-1.82-1.74-5.49-3.25-2.68-1.1-5.8-2.33-6.18-4.41-.24-4.27,6.66-5.93,13.46-6.15s14.07,1.34,14.07,5.47c0,2.15-2.13,2.73-5.29,4.38-2.61,1.36-4.2,1.88-5.7,3.52C668.71,162.37,669.88,168.54,669.44,168.54Z" transform="translate(0 0.01)"/><path class="cls-16" d="M661.41,148.47c-.06-.53,3.19-1.74,7.6-1.74,4.94,0,7.8,1,7.75,1.57C676.73,149.34,661.54,149.49,661.41,148.47Z" transform="translate(0 0.01)"/><path class="cls-17" d="M661.89,125.58a9,9,0,0,1-.28,4.56c-.84,2.41-2.39,3.25-5.22,6.35-6.08,6.68-9.12,10-13.6,10-4.88,0-9.5-3.63-11.54-8a13.39,13.39,0,0,1-1.14-8.68c1-4.23,4.08-7.88,7.71-10.31,5.76-3.83,13-5.93,16.74-4.49C658.53,117,661,120.92,661.89,125.58Z" transform="translate(0 0.01)"/><path class="cls-3" d="M689.6,152.91c.26-.48,4,.88,6.91,2.66a9.41,9.41,0,0,1,3.5,3.23c2.1,3.77,2.25,9.59,2.23,9.32-.22-2.89-2.9-8.88-4.91-9.77.16,1,4,4.44-1.27,20.53-.07.12,2.83-15.35-1.56-21.76C692.6,154.33,689.35,153.36,689.6,152.91Z" transform="translate(0 0.01)"/><path class="cls-3" d="M648.21,152.91c-.26-.48-4,.88-6.91,2.66a9.41,9.41,0,0,0-3.5,3.23c-2.1,3.77-2.25,9.59-2.23,9.32.22-2.89,2.9-8.88,4.91-9.77-.16,1-4,4.44,1.27,20.53.07.12-2.83-15.35,1.56-21.76C645.23,154.33,648.44,153.36,648.21,152.91Z" transform="translate(0 0.01)"/><path class="cls-10" d="M644.7,157.94A14.76,14.76,0,0,0,648,168.78c3.72,5.85,10.32,6.08,14.4,4.74a16,16,0,0,0,6.76-4.41" transform="translate(0 0.01)"/><path class="cls-10" d="M694.43,159.71c0,11.78-9.36,14.16-9.69,14.23a16.17,16.17,0,0,1-8.59-.43,15.74,15.74,0,0,1-6.7-4.92" transform="translate(0 0.01)"/><path class="cls-7" d="M677,114.14c-.35-.43-1.72-2.14-1.56-3.88.41-4.23,9.75-4.85,11.58-5,15.13-1,22.52,11.23,39.53,17.21,18.35,6.46,32.34.14,32.58,1.66s-11.68,4.44-27.42,4.28c-16.8-2-19.64-4.94-30.94-10.07A20,20,0,0,0,689,116.67C684.6,117.47,679.92,117.76,677,114.14Z" transform="translate(0 0.01)"/><path class="cls-7" d="M659.6,163.47c-.06-2-2.24-3.42-2.83-3.8-5.34-3.45-14.09,0-23.93,6.12-19.1,11.91-26,15.89-28,16.73a78.53,78.53,0,0,1-41.09,4.5c-11.33-1.26-19.35-4.91-19.44-4.63s11.23,5.9,26.25,7.78c15.65,2,27.9-1,35.56-3,4.56-1.14,25.12-10.91,28.58-12.61C649.6,167.19,659.74,167.33,659.6,163.47Z" transform="translate(0 0.01)"/><path class="cls-16" d="M655.18,161.71a4.36,4.36,0,0,0-3.12-1.55,20.78,20.78,0,0,0-8.92,1.55,71.9,71.9,0,0,0-13.38,8.22,152.8,152.8,0,0,1-14.94,9.77,80.33,80.33,0,0,1-14.49,6.22,58.86,58.86,0,0,1-20.62,2.94c0,.2,7.32.56,16.7-1.08a67.43,67.43,0,0,0,17.52-5.86c4.15-1.77,7.14-4,13.16-7.32a114.08,114.08,0,0,1,11.82-6.66,43.61,43.61,0,0,1,7.13-2.66,26.69,26.69,0,0,1,6.24-.67c1.72-.18,2.36.06,3.12-.89C655.94,163,655.7,162.42,655.18,161.71Z" transform="translate(0 0.01)"/><path class="cls-7" d="M680.22,182.68c-2.58-3.33-2.94-3.61-3.63-4a9.58,9.58,0,0,0-9.66.72c-2,1.45-1.78,2.77-4.15,4.09-1.81,1-3,.84-4.65,1.31-3.42,1-5.44,3.65-7.14,5.9-5,6.65-7.66,17.46-8.31,19.84C639.6,222,631.2,229.24,623.6,235.8,603.19,253.36,570,257.57,548,247.12c-5.66-2.69-12.6-7.3-13.14-6.56s7.11,8,14.12,12.63c20.32,13.25,52.7,16,76.76,3.12,12.76-6.84,21.89-17.35,23.59-15.75,1,1-1.41,5.7-4.49,9-6.23,6.76-15,7.78-14.79,8.36s5.7.31,12.29-2.28c7.26-2.88,11.81-7.2,18.11-13.28,5.53-5.34,8.83-8.54,12.46-13.94,4.15-6.18,7.6-11,11.38-22.14,3.45-10.23,2.15-14.86.41-17.71C684.4,188.08,683,186.28,680.22,182.68Z" transform="translate(0 0.01)"/><path class="cls-16" d="M663,186.58c-.52-.73-3.66.26-4.24.45a7.85,7.85,0,0,0-4.61,3.26c-4.37,5.84-8.12,17.53-11,23.8-3.27,7.22-6.75,12.8-9.62,16a70.07,70.07,0,0,1-23,17.11c-5.46,2.5-25.61,13.3-48.17,7.11a150.81,150.81,0,0,1-14.49-4.66s2.58,1.48,10.48,5.11a106.61,106.61,0,0,0,14,4.84c20.1,5.41,39.35-.49,41.37-1.14A78.18,78.18,0,0,0,644.84,239c11.2-11.5,16-24,17.44-23.32,1.26.57-.51,10.18-1.29,12.39-1.87,5.23-2.43,8.3-7.13,14-4,4.8-7.32,8.66-7.13,8.88s2.92-2.84,9.09-8.39c5.25-4.72,8.61-9.26,15.12-18.14,8.56-11.68,10.2-15.68,11.13-18.78a33,33,0,0,0,.67-13.11c-.24-1.58-.67-4.25-1.66-4.37-.43,0-1.44.32-3.49,6-3.84,10.64-3.72,18.76-4.65,18.78-.71,0-1.62-4.65-2-9.55-.74-9.8,5.38-22.36,4.11-22.81-1.64-.59-10.26,7.6-13.75,21.36-1.77,7-2.69,7.91-5,13.11-5.16,11.67-13.34,19.26-13.78,19s3-4.6,8.47-14.9c4.88-9.15,5-20,6-23.15C658.69,190.2,663.83,187.76,663,186.58Z" transform="translate(0 0.01)"/><path class="cls-7" d="M678,161.49c.7-2.14,4.07-2.73,4.65-2.81a9.79,9.79,0,0,1,6.46,1.49c1.74,1,5.11,3.53,7.81,11.41,1.31,3.83,4.28,12.58,2,22.18-5.26,22.1-33.9,29.73-39,31.1-13.73,3.66-23.59,1.19-25.59.66-6.21-1.65-11.78-4.69-11.63-5.13s5.66,2,13.3,3a56,56,0,0,0,20.44-1c12.65-3.17,20.82-9.3,22.76-11.17,4.28-4.07,9.86-10,11.39-17.94.46-2.43,1.69-10.15-2-16.3A75,75,0,0,0,680,166.47C678.72,165,677.52,163.16,678,161.49Z" transform="translate(0 0.01)"/><path class="cls-16" d="M681.27,163a2.34,2.34,0,0,1,0-1.33c.67-1.77,3.39-1.27,5.8,0,7.58,4,11.9,16.13,10.7,26.2a37.79,37.79,0,0,1-12,23.13,43.32,43.32,0,0,1-8.64,5.54c-12.46,6.69-23.19,8-23.26,7.78s14.16-1.25,26.83-11.41c3.65-2.93,9.61-7.25,11.92-14.83,1.94-6.32,2.28-12.42,1.56-16.43-1.1-6.08-2.55-9.66-5.13-12.21C685.79,166.22,681.87,166.64,681.27,163Z" transform="translate(0 0.01)"/><path class="cls-7" d="M661.16,114.14c.35-.43,1.72-2.14,1.56-3.88-.42-4.24-9.76-4.88-11.58-5-15.13-1-22.52,11.23-39.53,17.21-18.35,6.46-32.34.14-32.58,1.66s11.7,4.43,27.44,4.28c16.8-2,19.64-4.94,30.94-10.07a20,20,0,0,1,11.72-1.67C653.55,117.47,658.21,117.76,661.16,114.14Z" transform="translate(0 0.01)"/><path class="cls-16" d="M658.75,108.86a17.41,17.41,0,0,0-8.92-1.33c-9.88.76-13.35,3.1-23.86,9.55-12.16,7.47-17.36,8.09-22.74,8.88a41.35,41.35,0,0,1-8.47.22A49.58,49.58,0,0,0,613.27,125c3.9-1,8.48-2.78,17.66-6.89,15.34-6.88,18.89-5.09,23.37-5.1,4,0,4.94.48,5.57-.8a2.29,2.29,0,0,0-1.12-3.37Z" transform="translate(0 0.01)"/><path class="cls-16" d="M679.6,108.86a17.41,17.41,0,0,1,8.92-1.33c9.88.76,13.35,3.1,23.86,9.55,12.16,7.47,17.66,8.31,23,9.1a33.73,33.73,0,0,0,8.16.11c.09.56-8.16,1.46-18.19-1-3.9-1-8.74-3-18-7.11-15.34-6.88-18.89-5.09-23.37-5.1-4,0-4.94.48-5.57-.8a2.36,2.36,0,0,1,1.19-3.42Z" transform="translate(0 0.01)"/><path class="cls-16" d="M641.8,134.4a13.52,13.52,0,0,1,3-3.23,15.29,15.29,0,0,1,3.75-2.21A11.66,11.66,0,0,1,653,128a7.9,7.9,0,0,1,2.28.34,6,6,0,0,1,1.08.45,7.48,7.48,0,0,1,.93.67,19,19,0,0,0-4,.9c-1.21.4-2.38.88-3.59,1.37s-2.43,1-3.71,1.47A21.13,21.13,0,0,1,641.8,134.4Z" transform="translate(0 0.01)"/><path class="cls-16" d="M696,134.4a21.12,21.12,0,0,1-4.13-1.14c-1.29-.48-2.51-1-3.71-1.47s-2.38-1-3.59-1.37a19,19,0,0,0-4-.9,7.48,7.48,0,0,1,.93-.67,10.7,10.7,0,0,1,1.08-.45,6.66,6.66,0,0,1,1.14-.25,8.22,8.22,0,0,1,1.14-.08,11.66,11.66,0,0,1,4.4.91,15.29,15.29,0,0,1,3.75,2.21A13.52,13.52,0,0,1,696,134.4Z" transform="translate(0 0.01)"/><path class="cls-18" d="M62.36,79.19V94H60.45V79.19Z" transform="translate(0 0.01)"/><path class="cls-18" d="M74.75,83.56A5.17,5.17,0,0,1,76,87.29V94H74.08V87.46a3.68,3.68,0,0,0-.88-2.65,3.15,3.15,0,0,0-2.39-.92,3.27,3.27,0,0,0-2.52,1,4.22,4.22,0,0,0-.95,3V94H65.42V82.46h1.91v2.73A3.93,3.93,0,0,1,68.9,83a4.54,4.54,0,0,1,2.59-.76A4.3,4.3,0,0,1,74.75,83.56Z" transform="translate(0 0.01)"/><path class="cls-18" d="M93.21,83a4.93,4.93,0,0,1,1.88,2.06,7.59,7.59,0,0,1,0,6.29,4.94,4.94,0,0,1-1.88,2,5.22,5.22,0,0,1-2.73.71,4.7,4.7,0,0,1-2.85-.85A4.32,4.32,0,0,1,86,91.05v8.4H84.11v-17H86V85.4a4.32,4.32,0,0,1,1.61-2.24,4.7,4.7,0,0,1,2.85-.85A5.22,5.22,0,0,1,93.21,83Zm-5.29,1.5A3.55,3.55,0,0,0,86.51,86a4.74,4.74,0,0,0-.5,2.23,4.68,4.68,0,0,0,.5,2.22,3.63,3.63,0,0,0,1.41,1.48,3.93,3.93,0,0,0,2,.52,3.73,3.73,0,0,0,2.85-1.12,5.05,5.05,0,0,0,0-6.19A3.73,3.73,0,0,0,89.93,84,4,4,0,0,0,87.91,84.53Z" transform="translate(0 0.01)"/><path class="cls-18" d="M101.84,82.93a4.93,4.93,0,0,1,2.6-.66v2.08h-.59a4.08,4.08,0,0,0-2.65.83,3.32,3.32,0,0,0-1,2.74V94H98.27V82.46h1.91v2.33A4.24,4.24,0,0,1,101.84,82.93Z" transform="translate(0 0.01)"/><path class="cls-18" d="M106.35,78.23a1.54,1.54,0,0,1,1.89,0,1.19,1.19,0,0,1,0,1.7,1.53,1.53,0,0,1-1.89,0,1.19,1.19,0,0,1,0-1.7Zm1.89,4.23V94h-1.91V82.46Z" transform="translate(0 0.01)"/><path class="cls-18" d="M115.78,92l3.57-9.49h2.06L116.89,94h-2.27l-4.52-11.53h2.06Z" transform="translate(0 0.01)"/><path class="cls-18" d="M130.85,83.15a4.38,4.38,0,0,1,1.63,2.25V82.46h1.91V94h-1.91V91.05a4.38,4.38,0,0,1-1.63,2.25,4.74,4.74,0,0,1-2.85.84,5.23,5.23,0,0,1-2.73-.71,4.94,4.94,0,0,1-1.88-2,7.59,7.59,0,0,1,0-6.29A4.93,4.93,0,0,1,125.27,83a5.23,5.23,0,0,1,2.73-.71A4.74,4.74,0,0,1,130.85,83.15Zm-5.12,2a5.05,5.05,0,0,0,0,6.19,3.7,3.7,0,0,0,2.82,1.12,3.92,3.92,0,0,0,2-.52,3.65,3.65,0,0,0,1.4-1.48,4.68,4.68,0,0,0,.5-2.22A4.74,4.74,0,0,0,132,86a3.57,3.57,0,0,0-1.4-1.48,4,4,0,0,0-2-.51A3.7,3.7,0,0,0,125.72,85.14Z" transform="translate(0 0.01)"/><path class="cls-18" d="M142.93,92.31V94h-1.43a3.67,3.67,0,0,1-2.64-.84,3.79,3.79,0,0,1-.87-2.81V84.12h-1.72V82.46H138V79.58h1.93v2.88h3v1.66h-3v6.26a2.16,2.16,0,0,0,.41,1.52,2,2,0,0,0,1.42.41Z" transform="translate(0 0.01)"/><path class="cls-18" d="M155.79,88.64h-9.22a4,4,0,0,0,1.12,3,3.66,3.66,0,0,0,2.59,1,3.75,3.75,0,0,0,2.32-.7A2.91,2.91,0,0,0,153.75,90h2A4.81,4.81,0,0,1,153,93.61a6.23,6.23,0,0,1-2.6.52,5.94,5.94,0,0,1-2.94-.71,5,5,0,0,1-2-2,7.19,7.19,0,0,1,0-6.29,5,5,0,0,1,2-2.06,5.94,5.94,0,0,1,2.94-.71,5.8,5.8,0,0,1,2.93.71,4.91,4.91,0,0,1,1.91,1.91,5.38,5.38,0,0,1,.66,2.65A5.72,5.72,0,0,1,155.79,88.64Zm-2.27-3.07a3.07,3.07,0,0,0-1.32-1.28,4,4,0,0,0-1.83-.42,3.78,3.78,0,0,0-2.65,1,3.93,3.93,0,0,0-1.16,2.87h7.37A3.93,3.93,0,0,0,153.52,85.57Z" transform="translate(0 0.01)"/><path class="cls-18" d="M171.93,79.19v1.55h-6.47v5.12h5.48v1.49h-5.48V94h-1.91V79.19Z" transform="translate(0 0.01)"/><path class="cls-18" d="M181.77,83.15a4.38,4.38,0,0,1,1.63,2.25V82.46h1.91V94H183.4V91.05a4.38,4.38,0,0,1-1.63,2.25,4.74,4.74,0,0,1-2.85.84,5.23,5.23,0,0,1-2.73-.71,4.94,4.94,0,0,1-1.88-2,7.59,7.59,0,0,1,0-6.29A4.93,4.93,0,0,1,176.2,83a5.23,5.23,0,0,1,2.73-.71A4.74,4.74,0,0,1,181.77,83.15Zm-5.12,2a5.05,5.05,0,0,0,0,6.19,3.7,3.7,0,0,0,2.82,1.12,3.92,3.92,0,0,0,2-.52,3.65,3.65,0,0,0,1.4-1.48,4.68,4.68,0,0,0,.5-2.22,4.74,4.74,0,0,0-.5-2.23,3.57,3.57,0,0,0-1.4-1.48,4,4,0,0,0-2-.51A3.7,3.7,0,0,0,176.65,85.14Z" transform="translate(0 0.01)"/><path class="cls-18" d="M197.11,83.49a5,5,0,0,1,1.79,3.15h-2a3,3,0,0,0-1.14-1.94,4,4,0,0,0-4.16-.24,3.36,3.36,0,0,0-1.33,1.42,5.79,5.79,0,0,0,0,4.73A3.36,3.36,0,0,0,191.58,92a4,4,0,0,0,4.16-.25,3,3,0,0,0,1.14-2h2A5,5,0,0,1,197.11,93a5.64,5.64,0,0,1-3.65,1.17,5.94,5.94,0,0,1-2.94-.71,5,5,0,0,1-2-2,7.19,7.19,0,0,1,0-6.29,5,5,0,0,1,2-2.06,5.94,5.94,0,0,1,2.94-.71A5.61,5.61,0,0,1,197.11,83.49Z" transform="translate(0 0.01)"/><path class="cls-18" d="M211.92,88.64H202.7a4,4,0,0,0,1.12,3,3.66,3.66,0,0,0,2.59,1,3.75,3.75,0,0,0,2.32-.7A2.91,2.91,0,0,0,209.88,90h2a4.81,4.81,0,0,1-2.81,3.61,6.23,6.23,0,0,1-2.6.52,5.94,5.94,0,0,1-2.94-.71,5,5,0,0,1-2-2,7.19,7.19,0,0,1,0-6.29,5,5,0,0,1,2-2.06,5.94,5.94,0,0,1,2.94-.71,5.8,5.8,0,0,1,2.93.71,4.91,4.91,0,0,1,1.91,1.91,5.38,5.38,0,0,1,.66,2.65A5.72,5.72,0,0,1,211.92,88.64Zm-2.27-3.07a3.07,3.07,0,0,0-1.32-1.28,4,4,0,0,0-1.83-.42,3.78,3.78,0,0,0-2.65,1,3.93,3.93,0,0,0-1.16,2.87h7.37A3.93,3.93,0,0,0,209.65,85.57Z" transform="translate(0 0.01)"/><path class="cls-18" d="M223.59,83a4.93,4.93,0,0,1,1.88,2.06,7.59,7.59,0,0,1,0,6.29,4.94,4.94,0,0,1-1.88,2,5.22,5.22,0,0,1-2.73.71,4.7,4.7,0,0,1-2.85-.85,4.32,4.32,0,0,1-1.61-2.24V94H214.5V78.45h1.91v7A4.32,4.32,0,0,1,218,83.17a4.7,4.7,0,0,1,2.85-.85A5.22,5.22,0,0,1,223.59,83Zm-5.29,1.5A3.55,3.55,0,0,0,216.89,86a4.74,4.74,0,0,0-.5,2.23,4.68,4.68,0,0,0,.5,2.22,3.63,3.63,0,0,0,1.41,1.48,3.93,3.93,0,0,0,2,.52,3.73,3.73,0,0,0,2.85-1.12,5.05,5.05,0,0,0,0-6.19A3.73,3.73,0,0,0,220.32,84,4,4,0,0,0,218.3,84.53Z" transform="translate(0 0.01)"/><path class="cls-18" d="M236.85,83a5.11,5.11,0,0,1,2.06,2.06,7,7,0,0,1,0,6.29,5.13,5.13,0,0,1-2.06,2,6.54,6.54,0,0,1-5.94,0,5.19,5.19,0,0,1-2.07-2,6.92,6.92,0,0,1,0-6.29A5.18,5.18,0,0,1,230.91,83a6.54,6.54,0,0,1,5.94,0ZM232,84.46a3.47,3.47,0,0,0-1.41,1.42,4.78,4.78,0,0,0-.54,2.36,4.73,4.73,0,0,0,.54,2.34A3.47,3.47,0,0,0,232,92a4.14,4.14,0,0,0,3.8,0,3.47,3.47,0,0,0,1.41-1.42,4.73,4.73,0,0,0,.54-2.34,4.78,4.78,0,0,0-.54-2.36,3.48,3.48,0,0,0-1.41-1.42,4.14,4.14,0,0,0-3.8,0Z" transform="translate(0 0.01)"/><path class="cls-18" d="M250.36,83a5.11,5.11,0,0,1,2.06,2.06,7,7,0,0,1,0,6.29,5.13,5.13,0,0,1-2.06,2,6.54,6.54,0,0,1-5.94,0,5.19,5.19,0,0,1-2.07-2,6.92,6.92,0,0,1,0-6.29A5.18,5.18,0,0,1,244.42,83a6.54,6.54,0,0,1,5.94,0Zm-4.87,1.43a3.47,3.47,0,0,0-1.41,1.42,4.78,4.78,0,0,0-.54,2.36,4.73,4.73,0,0,0,.54,2.34A3.47,3.47,0,0,0,245.49,92a4.14,4.14,0,0,0,3.8,0,3.47,3.47,0,0,0,1.41-1.42,4.73,4.73,0,0,0,.54-2.34,4.78,4.78,0,0,0-.54-2.36,3.48,3.48,0,0,0-1.41-1.42,4.14,4.14,0,0,0-3.8,0Z" transform="translate(0 0.01)"/><path class="cls-18" d="M262,94l-4.41-5.19V94h-1.91V78.45h1.91v9l4.35-5h2.33l-5.17,5.73,5.29,5.8Z" transform="translate(0 0.01)"/><path class="cls-18" d="M280.34,83a4.93,4.93,0,0,1,1.88,2.06,7.59,7.59,0,0,1,0,6.29,4.94,4.94,0,0,1-1.88,2,5.22,5.22,0,0,1-2.73.71,4.7,4.7,0,0,1-2.85-.85,4.32,4.32,0,0,1-1.61-2.24v8.4h-1.91v-17h1.91V85.4a4.32,4.32,0,0,1,1.61-2.24,4.7,4.7,0,0,1,2.85-.85A5.22,5.22,0,0,1,280.34,83ZM275,84.53A3.55,3.55,0,0,0,273.64,86a4.74,4.74,0,0,0-.5,2.23,4.68,4.68,0,0,0,.5,2.22A3.63,3.63,0,0,0,275,91.93a3.93,3.93,0,0,0,2,.52,3.73,3.73,0,0,0,2.85-1.12,5.05,5.05,0,0,0,0-6.19A3.73,3.73,0,0,0,277.06,84,4,4,0,0,0,275,84.53Z" transform="translate(0 0.01)"/><path class="cls-18" d="M289,82.93a4.93,4.93,0,0,1,2.6-.66v2.08H291a4.08,4.08,0,0,0-2.65.83,3.32,3.32,0,0,0-1,2.74V94H285.4V82.46h1.91v2.33A4.24,4.24,0,0,1,289,82.93Z" transform="translate(0 0.01)"/><path class="cls-18" d="M301.66,83a5.11,5.11,0,0,1,2.06,2.06,7,7,0,0,1,0,6.29,5.13,5.13,0,0,1-2.06,2,6.54,6.54,0,0,1-5.94,0,5.19,5.19,0,0,1-2.07-2,6.92,6.92,0,0,1,0-6.29A5.18,5.18,0,0,1,295.72,83a6.54,6.54,0,0,1,5.94,0Zm-4.87,1.43a3.47,3.47,0,0,0-1.41,1.42,4.78,4.78,0,0,0-.54,2.36,4.73,4.73,0,0,0,.54,2.34A3.47,3.47,0,0,0,296.79,92a4.14,4.14,0,0,0,3.8,0A3.47,3.47,0,0,0,302,90.58a4.73,4.73,0,0,0,.54-2.34,4.78,4.78,0,0,0-.54-2.36,3.48,3.48,0,0,0-1.41-1.42,4.14,4.14,0,0,0-3.8,0Z" transform="translate(0 0.01)"/><path class="cls-18" d="M324.38,83.56a5.2,5.2,0,0,1,1.23,3.73V94H323.7V87.46a3.72,3.72,0,0,0-.83-2.6,2.94,2.94,0,0,0-2.28-.9,3.13,3.13,0,0,0-2.43,1,4.2,4.2,0,0,0-.91,2.93V94h-1.91V87.46a3.69,3.69,0,0,0-.84-2.6,3,3,0,0,0-2.27-.9,3.16,3.16,0,0,0-2.45,1,4.2,4.2,0,0,0-.91,2.93V94H307V82.46h1.91v2.63a3.75,3.75,0,0,1,1.5-2.09,4.69,4.69,0,0,1,5,0A4.06,4.06,0,0,1,317,85.21,4.17,4.17,0,0,1,318.58,83a4.47,4.47,0,0,1,2.56-.77A4.27,4.27,0,0,1,324.38,83.56Z" transform="translate(0 0.01)"/><path class="cls-18" d="M336.77,83a5.11,5.11,0,0,1,2.06,2.06,7,7,0,0,1,0,6.29,5.13,5.13,0,0,1-2.06,2,6.54,6.54,0,0,1-5.94,0,5.19,5.19,0,0,1-2.07-2,6.92,6.92,0,0,1,0-6.29A5.18,5.18,0,0,1,330.83,83a6.54,6.54,0,0,1,5.94,0Zm-4.87,1.43a3.47,3.47,0,0,0-1.41,1.42,4.78,4.78,0,0,0-.54,2.36,4.73,4.73,0,0,0,.54,2.34A3.47,3.47,0,0,0,331.9,92a4.14,4.14,0,0,0,3.8,0,3.47,3.47,0,0,0,1.41-1.42,4.73,4.73,0,0,0,.54-2.34,4.78,4.78,0,0,0-.54-2.36,3.48,3.48,0,0,0-1.41-1.42,4.14,4.14,0,0,0-3.8,0Z" transform="translate(0 0.01)"/><path class="cls-18" d="M347.58,92.31V94h-1.43a3.67,3.67,0,0,1-2.64-.84,3.79,3.79,0,0,1-.87-2.81V84.12h-1.72V82.46h1.72V79.58h1.93v2.88h3v1.66h-3v6.26A2.16,2.16,0,0,0,345,91.9a2,2,0,0,0,1.42.41Z" transform="translate(0 0.01)"/><path class="cls-18" d="M349.93,78.23a1.54,1.54,0,0,1,1.89,0,1.19,1.19,0,0,1,0,1.7,1.53,1.53,0,0,1-1.89,0,1.19,1.19,0,0,1,0-1.7Zm1.89,4.23V94h-1.91V82.46Z" transform="translate(0 0.01)"/><path class="cls-18" d="M363.08,83a5.11,5.11,0,0,1,2.06,2.06,7,7,0,0,1,0,6.29,5.13,5.13,0,0,1-2.06,2,6.54,6.54,0,0,1-5.94,0,5.19,5.19,0,0,1-2.07-2,6.92,6.92,0,0,1,0-6.29A5.18,5.18,0,0,1,357.14,83a6.54,6.54,0,0,1,5.94,0Zm-4.87,1.43a3.47,3.47,0,0,0-1.41,1.42,4.78,4.78,0,0,0-.54,2.36,4.73,4.73,0,0,0,.54,2.34A3.47,3.47,0,0,0,358.21,92a4.14,4.14,0,0,0,3.8,0,3.47,3.47,0,0,0,1.41-1.42,4.73,4.73,0,0,0,.54-2.34,4.78,4.78,0,0,0-.54-2.36A3.48,3.48,0,0,0,362,84.46a4.14,4.14,0,0,0-3.8,0Z" transform="translate(0 0.01)"/><path class="cls-18" d="M377.71,83.56A5.18,5.18,0,0,1,379,87.29V94H377V87.46a3.68,3.68,0,0,0-.88-2.65,3.15,3.15,0,0,0-2.39-.92,3.27,3.27,0,0,0-2.52,1,4.22,4.22,0,0,0-.95,3V94h-1.91V82.46h1.91v2.73A3.93,3.93,0,0,1,371.86,83a4.54,4.54,0,0,1,2.59-.76A4.3,4.3,0,0,1,377.71,83.56Z" transform="translate(0 0.01)"/><path class="cls-18" d="M69.2,108.69A5,5,0,0,1,71,111.84H69a3,3,0,0,0-1.14-1.94,4,4,0,0,0-4.16-.24,3.36,3.36,0,0,0-1.33,1.42,5.79,5.79,0,0,0,0,4.73,3.36,3.36,0,0,0,1.33,1.42,4,4,0,0,0,4.16-.25A3,3,0,0,0,69,115h2a5,5,0,0,1-1.79,3.16,5.64,5.64,0,0,1-3.65,1.17,5.94,5.94,0,0,1-2.94-.71,5,5,0,0,1-2-2,7.19,7.19,0,0,1,0-6.29,5,5,0,0,1,2-2.06,5.94,5.94,0,0,1,2.94-.71A5.61,5.61,0,0,1,69.2,108.69Z" transform="translate(0 0.01)"/><path class="cls-18" d="M81.69,108.23a5.11,5.11,0,0,1,2.06,2.06,7,7,0,0,1,0,6.29,5.13,5.13,0,0,1-2.06,2,6.54,6.54,0,0,1-5.94,0,5.19,5.19,0,0,1-2.07-2,6.92,6.92,0,0,1,0-6.29,5.18,5.18,0,0,1,2.07-2.06,6.54,6.54,0,0,1,5.94,0Zm-4.87,1.43a3.47,3.47,0,0,0-1.41,1.42,4.78,4.78,0,0,0-.54,2.36,4.73,4.73,0,0,0,.54,2.34,3.47,3.47,0,0,0,1.41,1.42,4.14,4.14,0,0,0,3.8,0A3.47,3.47,0,0,0,82,115.78a4.73,4.73,0,0,0,.54-2.34,4.78,4.78,0,0,0-.54-2.36,3.48,3.48,0,0,0-1.41-1.42,4.14,4.14,0,0,0-3.8,0Z" transform="translate(0 0.01)"/><path class="cls-18" d="M97.24,107.66v11.53H95.33v-2.71a3.88,3.88,0,0,1-1.56,2.15,4.62,4.62,0,0,1-2.61.75,4.28,4.28,0,0,1-3.23-1.29,5.14,5.14,0,0,1-1.24-3.71v-6.72h1.91v6.53a3.72,3.72,0,0,0,.88,2.66,3.13,3.13,0,0,0,2.39.93,3.27,3.27,0,0,0,2.52-1,4.22,4.22,0,0,0,.95-3v-6.13Z" transform="translate(0 0.01)"/><path class="cls-18" d="M103.87,108.13a4.93,4.93,0,0,1,2.6-.66v2.08h-.59a4.08,4.08,0,0,0-2.65.83,3.32,3.32,0,0,0-1,2.74v6.07H100.3V107.66h1.91V110A4.24,4.24,0,0,1,103.87,108.13Z" transform="translate(0 0.01)"/><path class="cls-18" d="M115.12,108.53a4.29,4.29,0,0,1,1.44,2.74h-1.83a2.65,2.65,0,0,0-.85-1.69,2.77,2.77,0,0,0-1.94-.66,2.4,2.4,0,0,0-1.61.49,1.66,1.66,0,0,0-.58,1.33,1.38,1.38,0,0,0,.39,1,2.48,2.48,0,0,0,1,.59,16.1,16.1,0,0,0,1.59.43,15.63,15.63,0,0,1,2.07.6,3.24,3.24,0,0,1,1.34,1,2.75,2.75,0,0,1,.56,1.81,2.84,2.84,0,0,1-1.06,2.29,4.28,4.28,0,0,1-2.82.88,5.41,5.41,0,0,1-3.36-1,3.94,3.94,0,0,1-1.53-2.75h1.85a2.4,2.4,0,0,0,.91,1.7,3.29,3.29,0,0,0,2.13.65,2.22,2.22,0,0,0,1.54-.5,1.7,1.7,0,0,0,.56-1.32,1.45,1.45,0,0,0-.4-1.07,2.63,2.63,0,0,0-1-.61,14.65,14.65,0,0,0-1.62-.44,15.69,15.69,0,0,1-2-.59,3.13,3.13,0,0,1-1.3-.93,2.62,2.62,0,0,1-.54-1.73,2.9,2.9,0,0,1,1.07-2.34,4.42,4.42,0,0,1,2.92-.89A4.66,4.66,0,0,1,115.12,108.53Z" transform="translate(0 0.01)"/><path class="cls-18" d="M129.75,113.84h-9.22a4,4,0,0,0,1.12,3,3.66,3.66,0,0,0,2.59,1,3.75,3.75,0,0,0,2.32-.7,2.91,2.91,0,0,0,1.14-1.88h2a4.81,4.81,0,0,1-2.81,3.61,6.23,6.23,0,0,1-2.6.52,5.94,5.94,0,0,1-2.94-.71,5,5,0,0,1-2-2,7.19,7.19,0,0,1,0-6.29,5,5,0,0,1,2-2.06,5.94,5.94,0,0,1,2.94-.71,5.8,5.8,0,0,1,2.93.71,4.91,4.91,0,0,1,1.91,1.91,5.38,5.38,0,0,1,.66,2.65A5.72,5.72,0,0,1,129.75,113.84Zm-2.27-3.07a3.07,3.07,0,0,0-1.32-1.28,4,4,0,0,0-1.83-.42,3.78,3.78,0,0,0-2.65,1,3.93,3.93,0,0,0-1.16,2.87h7.37A3.93,3.93,0,0,0,127.48,110.77Z" transform="translate(0 0.01)"/><path class="cls-18" d="M138.31,107.66l3.74,9.07,3.47-9.07h2.12l-6.85,17h-2.16L141,119l-4.85-11.34Z" transform="translate(0 0.01)"/><path class="cls-18" d="M157.58,108.23a5.11,5.11,0,0,1,2.06,2.06,7,7,0,0,1,0,6.29,5.13,5.13,0,0,1-2.06,2,6.54,6.54,0,0,1-5.94,0,5.19,5.19,0,0,1-2.07-2,6.92,6.92,0,0,1,0-6.29,5.18,5.18,0,0,1,2.07-2.06,6.54,6.54,0,0,1,5.94,0Zm-4.87,1.43a3.47,3.47,0,0,0-1.41,1.42,4.78,4.78,0,0,0-.54,2.36,4.73,4.73,0,0,0,.54,2.34,3.47,3.47,0,0,0,1.41,1.42,4.14,4.14,0,0,0,3.8,0,3.47,3.47,0,0,0,1.41-1.42,4.73,4.73,0,0,0,.54-2.34,4.78,4.78,0,0,0-.54-2.36,3.48,3.48,0,0,0-1.41-1.42,4.14,4.14,0,0,0-3.8,0Z" transform="translate(0 0.01)"/><path class="cls-18" d="M173.13,107.66v11.53h-1.91v-2.71a3.88,3.88,0,0,1-1.56,2.15,4.62,4.62,0,0,1-2.61.75,4.28,4.28,0,0,1-3.23-1.29,5.14,5.14,0,0,1-1.24-3.71v-6.72h1.91v6.53a3.72,3.72,0,0,0,.88,2.66,3.13,3.13,0,0,0,2.39.93,3.27,3.27,0,0,0,2.52-1,4.22,4.22,0,0,0,.95-3v-6.13Z" transform="translate(0 0.01)"/><path class="cls-18" d="M197.22,107.66l-3.32,11.53h-2.06l-3.17-9.39-3.19,9.39H183.4l-3.28-11.53h1.93l2.46,9.7,3.19-9.7h2l3.21,9.68,2.48-9.68Z" transform="translate(0 0.01)"/><path class="cls-18" d="M199,103.43a1.54,1.54,0,0,1,1.89,0,1.19,1.19,0,0,1,0,1.7,1.53,1.53,0,0,1-1.89,0,1.19,1.19,0,0,1,0-1.7Zm1.89,4.23v11.53H199V107.66Z" transform="translate(0 0.01)"/><path class="cls-18" d="M205.89,103.65v15.54H204V103.65Z" transform="translate(0 0.01)"/><path class="cls-18" d="M210.87,103.65v15.54H209V103.65Z" transform="translate(0 0.01)"/><path class="cls-18" d="M221,103.65v15.54h-1.91V103.65Z" transform="translate(0 0.01)"/><path class="cls-18" d="M234.62,113.84H225.4a4,4,0,0,0,1.12,3,3.66,3.66,0,0,0,2.59,1,3.75,3.75,0,0,0,2.32-.7,2.91,2.91,0,0,0,1.14-1.88h2a4.81,4.81,0,0,1-2.81,3.61,6.23,6.23,0,0,1-2.6.52,5.94,5.94,0,0,1-2.94-.71,5,5,0,0,1-2-2,7.19,7.19,0,0,1,0-6.29,5,5,0,0,1,2-2.06,5.94,5.94,0,0,1,2.94-.71,5.8,5.8,0,0,1,2.93.71,4.91,4.91,0,0,1,1.91,1.91,5.38,5.38,0,0,1,.66,2.65A5.72,5.72,0,0,1,234.62,113.84Zm-2.27-3.07a3.07,3.07,0,0,0-1.32-1.28,4,4,0,0,0-1.83-.42,3.78,3.78,0,0,0-2.65,1,3.93,3.93,0,0,0-1.16,2.87h7.37A3.93,3.93,0,0,0,232.35,110.77Z" transform="translate(0 0.01)"/><path class="cls-18" d="M244.77,108.35a4.38,4.38,0,0,1,1.63,2.25v-2.94h1.91v11.53H246.4v-2.94a4.38,4.38,0,0,1-1.63,2.25,4.74,4.74,0,0,1-2.85.84,5.23,5.23,0,0,1-2.73-.71,4.94,4.94,0,0,1-1.88-2,7.59,7.59,0,0,1,0-6.29,4.93,4.93,0,0,1,1.88-2.06,5.23,5.23,0,0,1,2.73-.71A4.74,4.74,0,0,1,244.77,108.35Zm-5.12,2a5.05,5.05,0,0,0,0,6.19,3.7,3.7,0,0,0,2.82,1.12,3.92,3.92,0,0,0,2-.52,3.65,3.65,0,0,0,1.4-1.48,4.68,4.68,0,0,0,.5-2.22,4.74,4.74,0,0,0-.5-2.23,3.57,3.57,0,0,0-1.4-1.48,4,4,0,0,0-2-.51A3.7,3.7,0,0,0,239.65,110.34Z" transform="translate(0 0.01)"/><path class="cls-18" d="M254.93,108.13a4.93,4.93,0,0,1,2.6-.66v2.08h-.59a4.08,4.08,0,0,0-2.65.83,3.32,3.32,0,0,0-1,2.74v6.07h-1.91V107.66h1.91V110A4.24,4.24,0,0,1,254.93,108.13Z" transform="translate(0 0.01)"/><path class="cls-18" d="M268.74,108.76a5.17,5.17,0,0,1,1.24,3.73v6.7h-1.91v-6.53a3.68,3.68,0,0,0-.88-2.65,3.15,3.15,0,0,0-2.39-.92,3.27,3.27,0,0,0-2.52,1,4.22,4.22,0,0,0-.95,3v6.11h-1.91V107.66h1.91v2.73a3.93,3.93,0,0,1,1.56-2.16,4.54,4.54,0,0,1,2.59-.76A4.3,4.3,0,0,1,268.74,108.76Z" transform="translate(0 0.01)"/><path class="cls-18" d="M285.68,108.35a4.38,4.38,0,0,1,1.63,2.25v-2.94h1.91v11.53h-1.91v-2.94a4.38,4.38,0,0,1-1.63,2.25,4.74,4.74,0,0,1-2.85.84,5.23,5.23,0,0,1-2.73-.71,4.94,4.94,0,0,1-1.88-2,7.59,7.59,0,0,1,0-6.29,4.93,4.93,0,0,1,1.88-2.06,5.23,5.23,0,0,1,2.73-.71A4.74,4.74,0,0,1,285.68,108.35Zm-5.12,2a5.05,5.05,0,0,0,0,6.19,3.7,3.7,0,0,0,2.82,1.12,3.92,3.92,0,0,0,2-.52,3.65,3.65,0,0,0,1.4-1.48,4.68,4.68,0,0,0,.5-2.22,4.74,4.74,0,0,0-.5-2.23,3.57,3.57,0,0,0-1.4-1.48,4,4,0,0,0-2-.51A3.7,3.7,0,0,0,280.56,110.34Z" transform="translate(0 0.01)"/><path class="cls-18" d="M301.36,108.23a4.93,4.93,0,0,1,1.88,2.06,7.59,7.59,0,0,1,0,6.29,4.94,4.94,0,0,1-1.88,2,5.22,5.22,0,0,1-2.73.71,4.7,4.7,0,0,1-2.85-.85,4.32,4.32,0,0,1-1.61-2.24v2.94h-1.91V103.65h1.91v7a4.32,4.32,0,0,1,1.61-2.24,4.7,4.7,0,0,1,2.85-.85A5.22,5.22,0,0,1,301.36,108.23Zm-5.29,1.5a3.55,3.55,0,0,0-1.41,1.48,4.74,4.74,0,0,0-.5,2.23,4.68,4.68,0,0,0,.5,2.22,3.63,3.63,0,0,0,1.41,1.48,3.93,3.93,0,0,0,2,.52,3.73,3.73,0,0,0,2.85-1.12,5.05,5.05,0,0,0,0-6.19,3.73,3.73,0,0,0-2.85-1.12A4,4,0,0,0,296.06,109.73Z" transform="translate(0 0.01)"/><path class="cls-18" d="M314.62,108.23a5.11,5.11,0,0,1,2.06,2.06,7,7,0,0,1,0,6.29,5.13,5.13,0,0,1-2.06,2,6.54,6.54,0,0,1-5.94,0,5.19,5.19,0,0,1-2.07-2,6.92,6.92,0,0,1,0-6.29,5.18,5.18,0,0,1,2.07-2.06,6.54,6.54,0,0,1,5.94,0Zm-4.87,1.43a3.47,3.47,0,0,0-1.41,1.42,4.78,4.78,0,0,0-.54,2.36,4.73,4.73,0,0,0,.54,2.34,3.47,3.47,0,0,0,1.41,1.42,4.14,4.14,0,0,0,3.8,0,3.47,3.47,0,0,0,1.41-1.42,4.73,4.73,0,0,0,.54-2.34,4.78,4.78,0,0,0-.54-2.36,3.48,3.48,0,0,0-1.41-1.42,4.14,4.14,0,0,0-3.8,0Z" transform="translate(0 0.01)"/><path class="cls-18" d="M330.17,107.66v11.53h-1.91v-2.71a3.88,3.88,0,0,1-1.56,2.15,4.62,4.62,0,0,1-2.61.75,4.28,4.28,0,0,1-3.23-1.29,5.14,5.14,0,0,1-1.24-3.71v-6.72h1.91v6.53a3.72,3.72,0,0,0,.88,2.66,3.13,3.13,0,0,0,2.39.93,3.27,3.27,0,0,0,2.52-1,4.22,4.22,0,0,0,.95-3v-6.13Z" transform="translate(0 0.01)"/><path class="cls-18" d="M338.74,117.51v1.68h-1.43a3.67,3.67,0,0,1-2.64-.84,3.79,3.79,0,0,1-.87-2.81v-6.22h-1.72v-1.66h1.72v-2.88h1.93v2.88h3v1.66h-3v6.26a2.16,2.16,0,0,0,.41,1.52,2,2,0,0,0,1.42.41Z" transform="translate(0 0.01)"/><path class="cls-18" d="M347.05,107.66l3.74,9.07,3.47-9.07h2.12l-6.85,17h-2.16l2.39-5.65-4.85-11.34Z" transform="translate(0 0.01)"/><path class="cls-18" d="M366.32,108.23a5.11,5.11,0,0,1,2.06,2.06,7,7,0,0,1,0,6.29,5.13,5.13,0,0,1-2.06,2,6.54,6.54,0,0,1-5.94,0,5.19,5.19,0,0,1-2.07-2,6.92,6.92,0,0,1,0-6.29,5.18,5.18,0,0,1,2.07-2.06,6.54,6.54,0,0,1,5.94,0Zm-4.87,1.43a3.47,3.47,0,0,0-1.41,1.42,4.78,4.78,0,0,0-.54,2.36,4.73,4.73,0,0,0,.54,2.34,3.47,3.47,0,0,0,1.41,1.42,4.14,4.14,0,0,0,3.8,0,3.47,3.47,0,0,0,1.41-1.42,4.73,4.73,0,0,0,.54-2.34,4.78,4.78,0,0,0-.54-2.36,3.48,3.48,0,0,0-1.41-1.42,4.14,4.14,0,0,0-3.8,0Z" transform="translate(0 0.01)"/><path class="cls-18" d="M381.87,107.66v11.53H380v-2.71a3.87,3.87,0,0,1-1.56,2.15,4.61,4.61,0,0,1-2.61.75,4.28,4.28,0,0,1-3.23-1.29,5.14,5.14,0,0,1-1.24-3.71v-6.72h1.91v6.53a3.72,3.72,0,0,0,.88,2.66,3.13,3.13,0,0,0,2.39.93,3.27,3.27,0,0,0,2.52-1,4.22,4.22,0,0,0,.95-3v-6.13Z" transform="translate(0 0.01)"/><path class="cls-18" d="M388.5,108.13a4.94,4.94,0,0,1,2.6-.66v2.08h-.59a4.09,4.09,0,0,0-2.65.83,3.32,3.32,0,0,0-1,2.74v6.07h-1.91V107.66h1.91V110A4.24,4.24,0,0,1,388.5,108.13Z" transform="translate(0 0.01)"/><path class="cls-18" d="M68,133.56a4.38,4.38,0,0,1,1.63,2.25v-2.94h1.91v11.72a5.85,5.85,0,0,1-.67,2.83A4.83,4.83,0,0,1,69,149.35a5.64,5.64,0,0,1-2.83.69,6.09,6.09,0,0,1-3.8-1.12,5,5,0,0,1-1.87-3h1.89a3.27,3.27,0,0,0,1.27,1.82,4.07,4.07,0,0,0,2.4.66,3.53,3.53,0,0,0,2.57-1,3.72,3.72,0,0,0,1-2.78v-3.13A4.38,4.38,0,0,1,68,143.7a4.74,4.74,0,0,1-2.85.84,5.23,5.23,0,0,1-2.73-.71,4.94,4.94,0,0,1-1.88-2,7.59,7.59,0,0,1,0-6.29,4.93,4.93,0,0,1,1.88-2.06,5.23,5.23,0,0,1,2.73-.71A4.74,4.74,0,0,1,68,133.56Zm-5.12,2a5.05,5.05,0,0,0,0,6.19,3.7,3.7,0,0,0,2.82,1.12,3.92,3.92,0,0,0,2-.52,3.65,3.65,0,0,0,1.4-1.48,4.68,4.68,0,0,0,.5-2.22,4.74,4.74,0,0,0-.5-2.23,3.57,3.57,0,0,0-1.4-1.48,4,4,0,0,0-2-.51A3.7,3.7,0,0,0,62.89,135.54Z" transform="translate(0 0.01)"/><path class="cls-18" d="M78.17,133.33a4.93,4.93,0,0,1,2.6-.66v2.08h-.59a4.08,4.08,0,0,0-2.65.83,3.32,3.32,0,0,0-1,2.74v6.07H74.6V132.86h1.91v2.33A4.24,4.24,0,0,1,78.17,133.33Z" transform="translate(0 0.01)"/><path class="cls-18" d="M90.86,133.43a5.11,5.11,0,0,1,2.06,2.06,7,7,0,0,1,0,6.29,5.13,5.13,0,0,1-2.06,2,6.54,6.54,0,0,1-5.94,0,5.19,5.19,0,0,1-2.07-2,6.92,6.92,0,0,1,0-6.29,5.18,5.18,0,0,1,2.07-2.06,6.54,6.54,0,0,1,5.94,0ZM86,134.86a3.47,3.47,0,0,0-1.41,1.42,4.78,4.78,0,0,0-.54,2.36,4.73,4.73,0,0,0,.54,2.34A3.47,3.47,0,0,0,86,142.4a4.14,4.14,0,0,0,3.8,0A3.47,3.47,0,0,0,91.2,141a4.73,4.73,0,0,0,.54-2.34,4.78,4.78,0,0,0-.54-2.36,3.48,3.48,0,0,0-1.41-1.42,4.14,4.14,0,0,0-3.8,0Z" transform="translate(0 0.01)"/><path class="cls-18" d="M106.42,132.86v11.53H104.5v-2.71a3.88,3.88,0,0,1-1.56,2.15,4.62,4.62,0,0,1-2.61.75,4.28,4.28,0,0,1-3.23-1.29,5.14,5.14,0,0,1-1.24-3.71v-6.72h1.91v6.53a3.72,3.72,0,0,0,.88,2.66A3.13,3.13,0,0,0,101,143a3.27,3.27,0,0,0,2.52-1,4.22,4.22,0,0,0,.95-3v-6.13Z" transform="translate(0 0.01)"/><path class="cls-18" d="M118.57,133.43a4.93,4.93,0,0,1,1.88,2.06,7.59,7.59,0,0,1,0,6.29,4.94,4.94,0,0,1-1.88,2,5.22,5.22,0,0,1-2.73.71,4.7,4.7,0,0,1-2.85-.85,4.32,4.32,0,0,1-1.61-2.24v8.4h-1.91v-17h1.91v2.94a4.32,4.32,0,0,1,1.61-2.24,4.7,4.7,0,0,1,2.85-.85A5.22,5.22,0,0,1,118.57,133.43Zm-5.29,1.5a3.55,3.55,0,0,0-1.41,1.48,4.74,4.74,0,0,0-.5,2.23,4.68,4.68,0,0,0,.5,2.22,3.63,3.63,0,0,0,1.41,1.48,3.93,3.93,0,0,0,2,.52,3.73,3.73,0,0,0,2.85-1.12,5.05,5.05,0,0,0,0-6.19,3.73,3.73,0,0,0-2.85-1.12A4,4,0,0,0,113.28,134.93Z" transform="translate(0 0.01)"/><path class="cls-18" d="M137.92,133.43a4.93,4.93,0,0,1,1.88,2.06,7.59,7.59,0,0,1,0,6.29,4.94,4.94,0,0,1-1.88,2,5.22,5.22,0,0,1-2.73.71,4.7,4.7,0,0,1-2.85-.85,4.32,4.32,0,0,1-1.61-2.24v8.4h-1.91v-17h1.91v2.94a4.32,4.32,0,0,1,1.61-2.24,4.7,4.7,0,0,1,2.85-.85A5.22,5.22,0,0,1,137.92,133.43Zm-5.29,1.5a3.55,3.55,0,0,0-1.41,1.48,4.74,4.74,0,0,0-.5,2.23,4.68,4.68,0,0,0,.5,2.22,3.63,3.63,0,0,0,1.41,1.48,3.93,3.93,0,0,0,2,.52,3.73,3.73,0,0,0,2.85-1.12,5.05,5.05,0,0,0,0-6.19,3.73,3.73,0,0,0-2.85-1.12A4,4,0,0,0,132.62,134.93Z" transform="translate(0 0.01)"/><path class="cls-18" d="M146.55,133.33a4.93,4.93,0,0,1,2.6-.66v2.08h-.59a4.08,4.08,0,0,0-2.65.83,3.32,3.32,0,0,0-1,2.74v6.07H143V132.86h1.91v2.33A4.24,4.24,0,0,1,146.55,133.33Z" transform="translate(0 0.01)"/><path class="cls-18" d="M159.24,133.43a5.11,5.11,0,0,1,2.06,2.06,7,7,0,0,1,0,6.29,5.13,5.13,0,0,1-2.06,2,6.54,6.54,0,0,1-5.94,0,5.19,5.19,0,0,1-2.07-2,6.92,6.92,0,0,1,0-6.29,5.18,5.18,0,0,1,2.07-2.06,6.54,6.54,0,0,1,5.94,0Zm-4.87,1.43a3.47,3.47,0,0,0-1.41,1.42,4.78,4.78,0,0,0-.54,2.36A4.73,4.73,0,0,0,153,141a3.47,3.47,0,0,0,1.41,1.42,4.14,4.14,0,0,0,3.8,0,3.47,3.47,0,0,0,1.41-1.42,4.73,4.73,0,0,0,.54-2.34,4.78,4.78,0,0,0-.54-2.36,3.48,3.48,0,0,0-1.41-1.42,4.14,4.14,0,0,0-3.8,0Z" transform="translate(0 0.01)"/><path class="cls-18" d="M182,134a5.2,5.2,0,0,1,1.23,3.73v6.7h-1.91v-6.53a3.72,3.72,0,0,0-.83-2.6,2.94,2.94,0,0,0-2.28-.9,3.13,3.13,0,0,0-2.43,1,4.2,4.2,0,0,0-.91,2.93v6.11h-1.91v-6.53a3.69,3.69,0,0,0-.84-2.6,3,3,0,0,0-2.27-.9,3.16,3.16,0,0,0-2.45,1,4.2,4.2,0,0,0-.91,2.93v6.11h-1.91V132.86h1.91v2.63a3.75,3.75,0,0,1,1.5-2.09,4.69,4.69,0,0,1,5,0,4.06,4.06,0,0,1,1.54,2.19,4.17,4.17,0,0,1,1.62-2.17,4.47,4.47,0,0,1,2.56-.77A4.27,4.27,0,0,1,182,134Z" transform="translate(0 0.01)"/><path class="cls-18" d="M194.35,133.43a5.11,5.11,0,0,1,2.06,2.06,7,7,0,0,1,0,6.29,5.13,5.13,0,0,1-2.06,2,6.54,6.54,0,0,1-5.94,0,5.19,5.19,0,0,1-2.07-2,6.92,6.92,0,0,1,0-6.29,5.18,5.18,0,0,1,2.07-2.06,6.54,6.54,0,0,1,5.94,0Zm-4.87,1.43a3.47,3.47,0,0,0-1.41,1.42,4.78,4.78,0,0,0-.54,2.36,4.73,4.73,0,0,0,.54,2.34,3.47,3.47,0,0,0,1.41,1.42,4.14,4.14,0,0,0,3.8,0,3.47,3.47,0,0,0,1.41-1.42,4.73,4.73,0,0,0,.54-2.34,4.78,4.78,0,0,0-.54-2.36,3.48,3.48,0,0,0-1.41-1.42,4.14,4.14,0,0,0-3.8,0Z" transform="translate(0 0.01)"/><path class="cls-18" d="M205.16,142.71v1.68h-1.43a3.67,3.67,0,0,1-2.64-.84,3.79,3.79,0,0,1-.87-2.81v-6.22H198.5v-1.66h1.72V130h1.93v2.88h3v1.66h-3v6.26a2.16,2.16,0,0,0,.41,1.52,2,2,0,0,0,1.42.41Z" transform="translate(0 0.01)"/><path class="cls-18" d="M207.51,128.63a1.54,1.54,0,0,1,1.89,0,1.19,1.19,0,0,1,0,1.7,1.53,1.53,0,0,1-1.89,0,1.19,1.19,0,0,1,0-1.7Zm1.89,4.23v11.53h-1.91V132.86Z" transform="translate(0 0.01)"/><path class="cls-18" d="M220.66,133.43a5.11,5.11,0,0,1,2.06,2.06,7,7,0,0,1,0,6.29,5.13,5.13,0,0,1-2.06,2,6.54,6.54,0,0,1-5.94,0,5.19,5.19,0,0,1-2.07-2,6.92,6.92,0,0,1,0-6.29,5.18,5.18,0,0,1,2.07-2.06,6.54,6.54,0,0,1,5.94,0Zm-4.87,1.43a3.47,3.47,0,0,0-1.41,1.42,4.78,4.78,0,0,0-.54,2.36,4.73,4.73,0,0,0,.54,2.34,3.47,3.47,0,0,0,1.41,1.42,4.14,4.14,0,0,0,3.8,0A3.47,3.47,0,0,0,221,141a4.73,4.73,0,0,0,.54-2.34,4.78,4.78,0,0,0-.54-2.36,3.48,3.48,0,0,0-1.41-1.42,4.14,4.14,0,0,0-3.8,0Z" transform="translate(0 0.01)"/><path class="cls-18" d="M235.29,134a5.17,5.17,0,0,1,1.24,3.73v6.7h-1.91v-6.53a3.68,3.68,0,0,0-.88-2.65,3.15,3.15,0,0,0-2.39-.92,3.27,3.27,0,0,0-2.52,1,4.22,4.22,0,0,0-.95,3v6.11H226V132.86h1.91v2.73a3.93,3.93,0,0,1,1.56-2.16,4.54,4.54,0,0,1,2.59-.76A4.3,4.3,0,0,1,235.29,134Z" transform="translate(0 0.01)"/><path class="cls-18" d="M252.86,133.43a5.11,5.11,0,0,1,2.06,2.06,7,7,0,0,1,0,6.29,5.13,5.13,0,0,1-2.06,2,6.54,6.54,0,0,1-5.94,0,5.19,5.19,0,0,1-2.07-2,6.92,6.92,0,0,1,0-6.29,5.18,5.18,0,0,1,2.07-2.06,6.54,6.54,0,0,1,5.94,0ZM248,134.86a3.47,3.47,0,0,0-1.41,1.42,4.78,4.78,0,0,0-.54,2.36,4.73,4.73,0,0,0,.54,2.34A3.47,3.47,0,0,0,248,142.4a4.14,4.14,0,0,0,3.8,0,3.47,3.47,0,0,0,1.41-1.42,4.73,4.73,0,0,0,.54-2.34,4.78,4.78,0,0,0-.54-2.36,3.48,3.48,0,0,0-1.41-1.42,4.14,4.14,0,0,0-3.8,0Z" transform="translate(0 0.01)"/><path class="cls-18" d="M267.25,133.43a4.93,4.93,0,0,1,1.88,2.06,7.59,7.59,0,0,1,0,6.29,4.94,4.94,0,0,1-1.88,2,5.22,5.22,0,0,1-2.73.71,4.7,4.7,0,0,1-2.85-.85,4.32,4.32,0,0,1-1.61-2.24v8.4h-1.91v-17h1.91v2.94a4.32,4.32,0,0,1,1.61-2.24,4.7,4.7,0,0,1,2.85-.85A5.22,5.22,0,0,1,267.25,133.43Zm-5.29,1.5a3.55,3.55,0,0,0-1.41,1.48,4.74,4.74,0,0,0-.5,2.23,4.68,4.68,0,0,0,.5,2.22,3.63,3.63,0,0,0,1.41,1.48,3.93,3.93,0,0,0,2,.52,3.73,3.73,0,0,0,2.85-1.12,5.05,5.05,0,0,0,0-6.19,3.73,3.73,0,0,0-2.85-1.12A4,4,0,0,0,262,134.93Z" transform="translate(0 0.01)"/><path class="cls-18" d="M281.41,133.43a4.93,4.93,0,0,1,1.88,2.06,7.59,7.59,0,0,1,0,6.29,4.94,4.94,0,0,1-1.88,2,5.22,5.22,0,0,1-2.73.71,4.7,4.7,0,0,1-2.85-.85,4.32,4.32,0,0,1-1.61-2.24v8.4h-1.91v-17h1.91v2.94a4.32,4.32,0,0,1,1.61-2.24,4.7,4.7,0,0,1,2.85-.85A5.22,5.22,0,0,1,281.41,133.43Zm-5.29,1.5a3.55,3.55,0,0,0-1.41,1.48,4.74,4.74,0,0,0-.5,2.23,4.68,4.68,0,0,0,.5,2.22,3.63,3.63,0,0,0,1.41,1.48,3.93,3.93,0,0,0,2,.52,3.73,3.73,0,0,0,2.85-1.12,5.05,5.05,0,0,0,0-6.19,3.73,3.73,0,0,0-2.85-1.12A4,4,0,0,0,276.11,134.93Z" transform="translate(0 0.01)"/><path class="cls-18" d="M294.67,133.43a5.11,5.11,0,0,1,2.06,2.06,7,7,0,0,1,0,6.29,5.13,5.13,0,0,1-2.06,2,6.54,6.54,0,0,1-5.94,0,5.19,5.19,0,0,1-2.07-2,6.92,6.92,0,0,1,0-6.29,5.18,5.18,0,0,1,2.07-2.06,6.54,6.54,0,0,1,5.94,0Zm-4.87,1.43a3.47,3.47,0,0,0-1.41,1.42,4.78,4.78,0,0,0-.54,2.36,4.73,4.73,0,0,0,.54,2.34,3.47,3.47,0,0,0,1.41,1.42,4.14,4.14,0,0,0,3.8,0A3.47,3.47,0,0,0,295,141a4.73,4.73,0,0,0,.54-2.34,4.78,4.78,0,0,0-.54-2.36,3.48,3.48,0,0,0-1.41-1.42,4.14,4.14,0,0,0-3.8,0Z" transform="translate(0 0.01)"/><path class="cls-18" d="M303.54,133.33a4.93,4.93,0,0,1,2.6-.66v2.08h-.59a4.08,4.08,0,0,0-2.65.83,3.32,3.32,0,0,0-1,2.74v6.07H300V132.86h1.91v2.33A4.24,4.24,0,0,1,303.54,133.33Z" transform="translate(0 0.01)"/><path class="cls-18" d="M313.54,142.71v1.68h-1.43a3.67,3.67,0,0,1-2.64-.84,3.79,3.79,0,0,1-.87-2.81v-6.22h-1.72v-1.66h1.72V130h1.93v2.88h3v1.66h-3v6.26a2.16,2.16,0,0,0,.41,1.52,2,2,0,0,0,1.42.41Z" transform="translate(0 0.01)"/><path class="cls-18" d="M326.11,132.86v11.53H324.2v-2.71a3.88,3.88,0,0,1-1.56,2.15,4.62,4.62,0,0,1-2.61.75,4.28,4.28,0,0,1-3.23-1.29,5.14,5.14,0,0,1-1.24-3.71v-6.72h1.91v6.53a3.72,3.72,0,0,0,.88,2.66,3.13,3.13,0,0,0,2.39.93,3.27,3.27,0,0,0,2.52-1,4.22,4.22,0,0,0,.95-3v-6.13Z" transform="translate(0 0.01)"/><path class="cls-18" d="M338.5,134a5.17,5.17,0,0,1,1.24,3.73v6.7h-1.91v-6.53a3.68,3.68,0,0,0-.88-2.65,3.15,3.15,0,0,0-2.39-.92,3.27,3.27,0,0,0-2.52,1,4.22,4.22,0,0,0-.95,3v6.11h-1.91V132.86h1.91v2.73a3.93,3.93,0,0,1,1.56-2.16,4.54,4.54,0,0,1,2.59-.76A4.3,4.3,0,0,1,338.5,134Z" transform="translate(0 0.01)"/><path class="cls-18" d="M342.71,128.63a1.54,1.54,0,0,1,1.89,0,1.19,1.19,0,0,1,0,1.7,1.53,1.53,0,0,1-1.89,0,1.19,1.19,0,0,1,0-1.7Zm1.89,4.23v11.53h-1.91V132.86Z" transform="translate(0 0.01)"/><path class="cls-18" d="M353.16,142.71v1.68h-1.43a3.67,3.67,0,0,1-2.64-.84,3.79,3.79,0,0,1-.87-2.81v-6.22h-1.72v-1.66h1.72V130h1.93v2.88h3v1.66h-3v6.26a2.16,2.16,0,0,0,.41,1.52,2,2,0,0,0,1.42.41Z" transform="translate(0 0.01)"/><path class="cls-18" d="M355.51,128.63a1.54,1.54,0,0,1,1.89,0,1.19,1.19,0,0,1,0,1.7,1.53,1.53,0,0,1-1.89,0,1.19,1.19,0,0,1,0-1.7Zm1.89,4.23v11.53h-1.91V132.86Z" transform="translate(0 0.01)"/><path class="cls-18" d="M371,139h-9.22a4,4,0,0,0,1.12,3,3.66,3.66,0,0,0,2.59,1,3.75,3.75,0,0,0,2.32-.7A2.91,2.91,0,0,0,369,140.4h2a4.81,4.81,0,0,1-2.81,3.61,6.23,6.23,0,0,1-2.6.52,5.94,5.94,0,0,1-2.94-.71,5,5,0,0,1-2-2,7.19,7.19,0,0,1,0-6.29,5,5,0,0,1,2-2.06,5.94,5.94,0,0,1,2.94-.71,5.8,5.8,0,0,1,2.93.71,4.91,4.91,0,0,1,1.91,1.91,5.38,5.38,0,0,1,.66,2.65A5.72,5.72,0,0,1,371,139ZM368.72,136a3.07,3.07,0,0,0-1.32-1.28,4,4,0,0,0-1.83-.42,3.78,3.78,0,0,0-2.65,1,3.93,3.93,0,0,0-1.16,2.87h7.37A3.93,3.93,0,0,0,368.72,136Z" transform="translate(0 0.01)"/><path class="cls-18" d="M380.33,133.73a4.29,4.29,0,0,1,1.44,2.74h-1.83a2.65,2.65,0,0,0-.85-1.69,2.77,2.77,0,0,0-1.94-.66,2.39,2.39,0,0,0-1.61.49,1.66,1.66,0,0,0-.58,1.33,1.38,1.38,0,0,0,.39,1,2.48,2.48,0,0,0,1,.59,16,16,0,0,0,1.59.43,15.64,15.64,0,0,1,2.07.6,3.25,3.25,0,0,1,1.34,1,2.74,2.74,0,0,1,.56,1.81,2.84,2.84,0,0,1-1.06,2.29,4.28,4.28,0,0,1-2.82.88,5.41,5.41,0,0,1-3.36-1,3.94,3.94,0,0,1-1.53-2.75h1.85a2.4,2.4,0,0,0,.91,1.7,3.29,3.29,0,0,0,2.13.65,2.22,2.22,0,0,0,1.54-.5,1.7,1.7,0,0,0,.56-1.32,1.45,1.45,0,0,0-.4-1.07,2.62,2.62,0,0,0-1-.61,14.65,14.65,0,0,0-1.62-.44,15.69,15.69,0,0,1-2-.59,3.13,3.13,0,0,1-1.3-.93,2.62,2.62,0,0,1-.54-1.73,2.9,2.9,0,0,1,1.07-2.34,4.42,4.42,0,0,1,2.92-.89A4.65,4.65,0,0,1,380.33,133.73Z" transform="translate(0 0.01)"/><path class="cls-18" d="M385.84,144.71a2.67,2.67,0,0,1-.55,1.75,2,2,0,0,1-1.64.66v-.82a1,1,0,0,0,.77-.28,1.36,1.36,0,0,0,.24-.89v-.19h-1.07v-2h2A5.73,5.73,0,0,1,385.84,144.71Z" transform="translate(0 0.01)"/><path class="cls-18" d="M402.62,134a5.18,5.18,0,0,1,1.24,3.73v6.7h-1.91v-6.53a3.68,3.68,0,0,0-.88-2.65,3.15,3.15,0,0,0-2.39-.92,3.28,3.28,0,0,0-2.52,1,4.22,4.22,0,0,0-.94,3v6.11h-1.91V128.85h1.91v6.74a3.93,3.93,0,0,1,1.56-2.16,4.53,4.53,0,0,1,2.59-.76A4.3,4.3,0,0,1,402.62,134Z" transform="translate(0 0.01)"/><path class="cls-18" d="M415,133.43a5.11,5.11,0,0,1,2.06,2.06,7,7,0,0,1,0,6.29,5.13,5.13,0,0,1-2.06,2,6.54,6.54,0,0,1-5.94,0,5.19,5.19,0,0,1-2.07-2,6.92,6.92,0,0,1,0-6.29,5.18,5.18,0,0,1,2.07-2.06,6.54,6.54,0,0,1,5.94,0Zm-4.87,1.43a3.48,3.48,0,0,0-1.41,1.42,4.78,4.78,0,0,0-.54,2.36,4.73,4.73,0,0,0,.54,2.34,3.47,3.47,0,0,0,1.41,1.42,4.14,4.14,0,0,0,3.8,0,3.47,3.47,0,0,0,1.41-1.42,4.72,4.72,0,0,0,.54-2.34,4.77,4.77,0,0,0-.54-2.36,3.47,3.47,0,0,0-1.41-1.42,4.14,4.14,0,0,0-3.8,0Z" transform="translate(0 0.01)"/><path class="cls-18" d="M436.13,132.86l-3.32,11.53h-2.06L427.59,135l-3.19,9.39h-2.08L419,132.86H421l2.46,9.7,3.19-9.7h2l3.21,9.68,2.48-9.68Z" transform="translate(0 0.01)"/><path class="cls-18" d="M65.95,167.91v1.68H64.52a3.67,3.67,0,0,1-2.64-.84,3.79,3.79,0,0,1-.87-2.81v-6.22H59.29v-1.66H61v-2.88h1.93v2.88h3v1.66h-3V166a2.16,2.16,0,0,0,.41,1.52,2,2,0,0,0,1.42.41Z" transform="translate(0 0.01)"/><path class="cls-18" d="M76.48,158.63a5.11,5.11,0,0,1,2.06,2.06,7,7,0,0,1,0,6.29,5.13,5.13,0,0,1-2.06,2,6.54,6.54,0,0,1-5.94,0,5.19,5.19,0,0,1-2.07-2,6.92,6.92,0,0,1,0-6.29,5.18,5.18,0,0,1,2.07-2.06,6.54,6.54,0,0,1,5.94,0Zm-4.87,1.43a3.47,3.47,0,0,0-1.41,1.42,4.78,4.78,0,0,0-.54,2.36,4.73,4.73,0,0,0,.54,2.34,3.47,3.47,0,0,0,1.41,1.42,4.14,4.14,0,0,0,3.8,0,3.47,3.47,0,0,0,1.41-1.42,4.73,4.73,0,0,0,.54-2.34,4.78,4.78,0,0,0-.54-2.36,3.48,3.48,0,0,0-1.41-1.42,4.14,4.14,0,0,0-3.8,0Z" transform="translate(0 0.01)"/><path class="cls-18" d="M96.06,158.63a4.93,4.93,0,0,1,1.88,2.06,7.59,7.59,0,0,1,0,6.29,4.94,4.94,0,0,1-1.88,2,5.22,5.22,0,0,1-2.73.71,4.7,4.7,0,0,1-2.85-.85,4.32,4.32,0,0,1-1.61-2.24v8.4H87v-17h1.91V161a4.32,4.32,0,0,1,1.61-2.24,4.7,4.7,0,0,1,2.85-.85A5.22,5.22,0,0,1,96.06,158.63Zm-5.29,1.5a3.55,3.55,0,0,0-1.41,1.48,4.74,4.74,0,0,0-.5,2.23,4.68,4.68,0,0,0,.5,2.22,3.63,3.63,0,0,0,1.41,1.48,3.93,3.93,0,0,0,2,.52,3.73,3.73,0,0,0,2.85-1.12,5.05,5.05,0,0,0,0-6.19,3.73,3.73,0,0,0-2.85-1.12A4,4,0,0,0,90.77,160.13Z" transform="translate(0 0.01)"/><path class="cls-18" d="M104.69,158.53a4.93,4.93,0,0,1,2.6-.66V160h-.59a4.08,4.08,0,0,0-2.65.83,3.32,3.32,0,0,0-1,2.74v6.07h-1.91V158.06H103v2.33A4.24,4.24,0,0,1,104.69,158.53Z" transform="translate(0 0.01)"/><path class="cls-18" d="M117.39,158.63a5.11,5.11,0,0,1,2.06,2.06,7,7,0,0,1,0,6.29,5.13,5.13,0,0,1-2.06,2,6.54,6.54,0,0,1-5.94,0,5.19,5.19,0,0,1-2.07-2,6.92,6.92,0,0,1,0-6.29,5.18,5.18,0,0,1,2.07-2.06,6.54,6.54,0,0,1,5.94,0Zm-4.87,1.43a3.47,3.47,0,0,0-1.41,1.42,4.78,4.78,0,0,0-.54,2.36,4.73,4.73,0,0,0,.54,2.34,3.47,3.47,0,0,0,1.41,1.42,4.14,4.14,0,0,0,3.8,0,3.47,3.47,0,0,0,1.41-1.42,4.73,4.73,0,0,0,.54-2.34,4.78,4.78,0,0,0-.54-2.36,3.48,3.48,0,0,0-1.41-1.42,4.14,4.14,0,0,0-3.8,0Z" transform="translate(0 0.01)"/><path class="cls-18" d="M140.11,159.16a5.2,5.2,0,0,1,1.23,3.73v6.7h-1.91v-6.53a3.72,3.72,0,0,0-.83-2.6,2.94,2.94,0,0,0-2.28-.9,3.13,3.13,0,0,0-2.43,1,4.2,4.2,0,0,0-.91,2.93v6.11h-1.91v-6.53a3.69,3.69,0,0,0-.84-2.6,3,3,0,0,0-2.27-.9,3.16,3.16,0,0,0-2.45,1,4.2,4.2,0,0,0-.91,2.93v6.11h-1.91V158.06h1.91v2.63a3.75,3.75,0,0,1,1.5-2.09,4.69,4.69,0,0,1,5,0,4.06,4.06,0,0,1,1.54,2.19,4.17,4.17,0,0,1,1.62-2.17,4.47,4.47,0,0,1,2.56-.77A4.27,4.27,0,0,1,140.11,159.16Z" transform="translate(0 0.01)"/><path class="cls-18" d="M152.5,158.63a5.11,5.11,0,0,1,2.06,2.06,7,7,0,0,1,0,6.29,5.13,5.13,0,0,1-2.06,2,6.54,6.54,0,0,1-5.94,0,5.19,5.19,0,0,1-2.07-2,6.92,6.92,0,0,1,0-6.29,5.18,5.18,0,0,1,2.07-2.06,6.54,6.54,0,0,1,5.94,0Zm-4.87,1.43a3.47,3.47,0,0,0-1.41,1.42,4.78,4.78,0,0,0-.54,2.36,4.73,4.73,0,0,0,.54,2.34,3.47,3.47,0,0,0,1.41,1.42,4.14,4.14,0,0,0,3.8,0,3.47,3.47,0,0,0,1.41-1.42,4.73,4.73,0,0,0,.54-2.34,4.78,4.78,0,0,0-.54-2.36,3.48,3.48,0,0,0-1.41-1.42,4.14,4.14,0,0,0-3.8,0Z" transform="translate(0 0.01)"/><path class="cls-18" d="M163.3,167.91v1.68h-1.43a3.67,3.67,0,0,1-2.64-.84,3.79,3.79,0,0,1-.87-2.81v-6.22h-1.72v-1.66h1.72v-2.88h1.93v2.88h3v1.66h-3V166a2.16,2.16,0,0,0,.41,1.52,2,2,0,0,0,1.42.41Z" transform="translate(0 0.01)"/><path class="cls-18" d="M176.16,164.24h-9.22a4,4,0,0,0,1.12,3,3.66,3.66,0,0,0,2.59,1,3.75,3.75,0,0,0,2.32-.7,2.91,2.91,0,0,0,1.14-1.88h2a4.81,4.81,0,0,1-2.81,3.61,6.23,6.23,0,0,1-2.6.52,5.94,5.94,0,0,1-2.94-.71,5,5,0,0,1-2-2,7.19,7.19,0,0,1,0-6.29,5,5,0,0,1,2-2.06,5.94,5.94,0,0,1,2.94-.71,5.8,5.8,0,0,1,2.93.71,4.91,4.91,0,0,1,1.91,1.91,5.38,5.38,0,0,1,.66,2.65A5.72,5.72,0,0,1,176.16,164.24Zm-2.27-3.07a3.07,3.07,0,0,0-1.32-1.28,4,4,0,0,0-1.83-.42,3.78,3.78,0,0,0-2.65,1,3.93,3.93,0,0,0-1.16,2.87h7.37A3.93,3.93,0,0,0,173.89,161.17Z" transform="translate(0 0.01)"/><path class="cls-18" d="M184.72,158.06l3.74,9.07,3.47-9.07H194l-6.85,17H185l2.39-5.65-4.85-11.34Z" transform="translate(0 0.01)"/><path class="cls-18" d="M204,158.63a5.11,5.11,0,0,1,2.06,2.06,7,7,0,0,1,0,6.29,5.13,5.13,0,0,1-2.06,2,6.54,6.54,0,0,1-5.94,0,5.19,5.19,0,0,1-2.07-2,6.92,6.92,0,0,1,0-6.29,5.18,5.18,0,0,1,2.07-2.06,6.54,6.54,0,0,1,5.94,0Zm-4.87,1.43a3.47,3.47,0,0,0-1.41,1.42,4.78,4.78,0,0,0-.54,2.36,4.73,4.73,0,0,0,.54,2.34,3.47,3.47,0,0,0,1.41,1.42,4.14,4.14,0,0,0,3.8,0,3.47,3.47,0,0,0,1.41-1.42,4.73,4.73,0,0,0,.54-2.34,4.78,4.78,0,0,0-.54-2.36,3.48,3.48,0,0,0-1.41-1.42,4.14,4.14,0,0,0-3.8,0Z" transform="translate(0 0.01)"/><path class="cls-18" d="M219.54,158.06v11.53h-1.91v-2.71a3.88,3.88,0,0,1-1.56,2.15,4.62,4.62,0,0,1-2.61.75,4.28,4.28,0,0,1-3.23-1.29,5.14,5.14,0,0,1-1.24-3.71v-6.72h1.91v6.53a3.72,3.72,0,0,0,.88,2.66,3.13,3.13,0,0,0,2.39.93,3.27,3.27,0,0,0,2.52-1,4.22,4.22,0,0,0,.95-3v-6.13Z" transform="translate(0 0.01)"/><path class="cls-18" d="M226.18,158.53a4.93,4.93,0,0,1,2.6-.66V160h-.59a4.08,4.08,0,0,0-2.65.83,3.32,3.32,0,0,0-1,2.74v6.07h-1.91V158.06h1.91v2.33A4.24,4.24,0,0,1,226.18,158.53Z" transform="translate(0 0.01)"/><path class="cls-18" d="M244.06,158.63a5.11,5.11,0,0,1,2.06,2.06,7,7,0,0,1,0,6.29,5.13,5.13,0,0,1-2.06,2,6.54,6.54,0,0,1-5.94,0,5.19,5.19,0,0,1-2.07-2,6.92,6.92,0,0,1,0-6.29,5.18,5.18,0,0,1,2.07-2.06,6.54,6.54,0,0,1,5.94,0Zm-4.87,1.43a3.47,3.47,0,0,0-1.41,1.42,4.78,4.78,0,0,0-.54,2.36,4.73,4.73,0,0,0,.54,2.34,3.47,3.47,0,0,0,1.41,1.42,4.14,4.14,0,0,0,3.8,0,3.47,3.47,0,0,0,1.41-1.42,4.73,4.73,0,0,0,.54-2.34,4.78,4.78,0,0,0-.54-2.36,3.48,3.48,0,0,0-1.41-1.42,4.14,4.14,0,0,0-3.8,0Z" transform="translate(0 0.01)"/><path class="cls-18" d="M265.19,158.06l-3.32,11.53h-2.06l-3.17-9.39-3.19,9.39h-2.08l-3.28-11.53H250l2.46,9.7,3.19-9.7h2l3.21,9.68,2.48-9.68Z" transform="translate(0 0.01)"/><path class="cls-18" d="M276.3,159.16a5.17,5.17,0,0,1,1.24,3.73v6.7h-1.91v-6.53a3.68,3.68,0,0,0-.88-2.65,3.15,3.15,0,0,0-2.39-.92,3.27,3.27,0,0,0-2.52,1,4.22,4.22,0,0,0-.95,3v6.11H267V158.06h1.91v2.73a3.93,3.93,0,0,1,1.56-2.16,4.54,4.54,0,0,1,2.59-.76A4.3,4.3,0,0,1,276.3,159.16Z" transform="translate(0 0.01)"/><path class="cls-18" d="M294.76,158.63a4.93,4.93,0,0,1,1.88,2.06,7.59,7.59,0,0,1,0,6.29,4.94,4.94,0,0,1-1.88,2,5.22,5.22,0,0,1-2.73.71,4.7,4.7,0,0,1-2.85-.85,4.32,4.32,0,0,1-1.61-2.24v8.4h-1.91v-17h1.91V161a4.32,4.32,0,0,1,1.61-2.24,4.7,4.7,0,0,1,2.85-.85A5.22,5.22,0,0,1,294.76,158.63Zm-5.29,1.5a3.55,3.55,0,0,0-1.41,1.48,4.74,4.74,0,0,0-.5,2.23,4.68,4.68,0,0,0,.5,2.22,3.63,3.63,0,0,0,1.41,1.48,3.93,3.93,0,0,0,2,.52,3.73,3.73,0,0,0,2.85-1.12,5.05,5.05,0,0,0,0-6.19,3.73,3.73,0,0,0-2.85-1.12A4,4,0,0,0,289.47,160.13Z" transform="translate(0 0.01)"/><path class="cls-18" d="M307.39,158.75A4.38,4.38,0,0,1,309,161v-2.94h1.91v11.53H309v-2.94a4.38,4.38,0,0,1-1.63,2.25,4.74,4.74,0,0,1-2.85.84,5.23,5.23,0,0,1-2.73-.71,4.94,4.94,0,0,1-1.88-2,7.59,7.59,0,0,1,0-6.29,4.93,4.93,0,0,1,1.88-2.06,5.23,5.23,0,0,1,2.73-.71A4.74,4.74,0,0,1,307.39,158.75Zm-5.12,2a5.05,5.05,0,0,0,0,6.19,3.7,3.7,0,0,0,2.82,1.12,3.92,3.92,0,0,0,2-.52,3.65,3.65,0,0,0,1.4-1.48,4.68,4.68,0,0,0,.5-2.22,4.74,4.74,0,0,0-.5-2.23,3.57,3.57,0,0,0-1.4-1.48,4,4,0,0,0-2-.51A3.7,3.7,0,0,0,302.27,160.74Z" transform="translate(0 0.01)"/><path class="cls-18" d="M321.55,158.75a4.38,4.38,0,0,1,1.63,2.25v-2.94h1.91v11.72a5.86,5.86,0,0,1-.67,2.84,4.83,4.83,0,0,1-1.89,1.93,5.64,5.64,0,0,1-2.83.69,6.09,6.09,0,0,1-3.8-1.12,5,5,0,0,1-1.87-3h1.89a3.27,3.27,0,0,0,1.27,1.82,4.06,4.06,0,0,0,2.4.66,3.53,3.53,0,0,0,2.57-1,3.72,3.72,0,0,0,1-2.78v-3.13a4.38,4.38,0,0,1-1.63,2.25,4.74,4.74,0,0,1-2.85.84A5.23,5.23,0,0,1,316,169a4.94,4.94,0,0,1-1.88-2,7.59,7.59,0,0,1,0-6.29,4.93,4.93,0,0,1,1.88-2.06,5.23,5.23,0,0,1,2.73-.71A4.74,4.74,0,0,1,321.55,158.75Zm-5.12,2a5.05,5.05,0,0,0,0,6.19,3.7,3.7,0,0,0,2.82,1.12,3.92,3.92,0,0,0,2-.52,3.65,3.65,0,0,0,1.4-1.48,4.68,4.68,0,0,0,.5-2.22,4.74,4.74,0,0,0-.5-2.23,3.57,3.57,0,0,0-1.4-1.48,4,4,0,0,0-2-.51A3.7,3.7,0,0,0,316.42,160.74Z" transform="translate(0 0.01)"/><path class="cls-18" d="M338.65,164.24h-9.22a4,4,0,0,0,1.12,3,3.66,3.66,0,0,0,2.59,1,3.75,3.75,0,0,0,2.32-.7,2.91,2.91,0,0,0,1.14-1.88h2a4.81,4.81,0,0,1-2.81,3.61,6.23,6.23,0,0,1-2.6.52,5.94,5.94,0,0,1-2.94-.71,5,5,0,0,1-2-2,7.19,7.19,0,0,1,0-6.29,5,5,0,0,1,2-2.06,5.94,5.94,0,0,1,2.94-.71,5.8,5.8,0,0,1,2.93.71,4.91,4.91,0,0,1,1.91,1.91,5.38,5.38,0,0,1,.66,2.65A5.72,5.72,0,0,1,338.65,164.24Zm-2.27-3.07a3.07,3.07,0,0,0-1.32-1.28,4,4,0,0,0-1.83-.42,3.78,3.78,0,0,0-2.65,1,3.93,3.93,0,0,0-1.16,2.87h7.37A3.93,3.93,0,0,0,336.38,161.17Z" transform="translate(0 0.01)"/><path class="cls-18" d="M354,158.75a4.38,4.38,0,0,1,1.63,2.25v-2.94h1.91v11.53h-1.91v-2.94A4.38,4.38,0,0,1,354,168.9a4.74,4.74,0,0,1-2.85.84,5.23,5.23,0,0,1-2.73-.71,4.94,4.94,0,0,1-1.88-2,7.59,7.59,0,0,1,0-6.29,4.93,4.93,0,0,1,1.88-2.06,5.23,5.23,0,0,1,2.73-.71A4.74,4.74,0,0,1,354,158.75Zm-5.12,2a5.05,5.05,0,0,0,0,6.19,3.7,3.7,0,0,0,2.82,1.12,3.92,3.92,0,0,0,2-.52,3.65,3.65,0,0,0,1.4-1.48,4.68,4.68,0,0,0,.5-2.22,4.74,4.74,0,0,0-.5-2.23,3.57,3.57,0,0,0-1.4-1.48,4,4,0,0,0-2-.51A3.7,3.7,0,0,0,348.87,160.74Z" transform="translate(0 0.01)"/><path class="cls-18" d="M369.9,159.16a5.17,5.17,0,0,1,1.24,3.73v6.7h-1.91v-6.53a3.68,3.68,0,0,0-.88-2.65,3.15,3.15,0,0,0-2.39-.92,3.27,3.27,0,0,0-2.52,1,4.22,4.22,0,0,0-.95,3v6.11h-1.91V158.06h1.91v2.73a3.93,3.93,0,0,1,1.56-2.16,4.54,4.54,0,0,1,2.59-.76A4.3,4.3,0,0,1,369.9,159.16Z" transform="translate(0 0.01)"/><path class="cls-18" d="M381.65,158.75a4.38,4.38,0,0,1,1.63,2.25v-7h1.91v15.54h-1.91v-2.94a4.38,4.38,0,0,1-1.63,2.25,4.74,4.74,0,0,1-2.85.84,5.23,5.23,0,0,1-2.73-.71,4.94,4.94,0,0,1-1.88-2,7.59,7.59,0,0,1,0-6.29,4.93,4.93,0,0,1,1.88-2.06,5.23,5.23,0,0,1,2.73-.71A4.74,4.74,0,0,1,381.65,158.75Zm-5.12,2a5.05,5.05,0,0,0,0,6.19,3.7,3.7,0,0,0,2.82,1.12,3.92,3.92,0,0,0,2-.52,3.65,3.65,0,0,0,1.4-1.48,4.67,4.67,0,0,0,.5-2.22,4.74,4.74,0,0,0-.5-2.23,3.57,3.57,0,0,0-1.4-1.48,4,4,0,0,0-2-.51A3.7,3.7,0,0,0,376.52,160.74Z" transform="translate(0 0.01)"/><path class="cls-18" d="M68,183.92A4.34,4.34,0,0,1,69.64,186v-2.73h1.91v17H69.64V192A4.61,4.61,0,0,1,68,194.14a4.54,4.54,0,0,1-2.7.8,5.4,5.4,0,0,1-2.77-.72,5.06,5.06,0,0,1-1.94-2.06,7.17,7.17,0,0,1,0-6.2,5.13,5.13,0,0,1,1.94-2.07,5.34,5.34,0,0,1,2.77-.73A4.71,4.71,0,0,1,68,183.92Zm-5.1,2a4.31,4.31,0,0,0-1.08,3.12,4.26,4.26,0,0,0,1.07,3.1,3.74,3.74,0,0,0,2.81,1.1,3.9,3.9,0,0,0,2-.51,3.72,3.72,0,0,0,1.42-1.47,5,5,0,0,0,0-4.47,3.73,3.73,0,0,0-1.42-1.47,3.91,3.91,0,0,0-2-.51A3.72,3.72,0,0,0,62.91,185.94Z" transform="translate(0 0.01)"/><path class="cls-18" d="M84.85,183.26v11.53H82.94v-2.71a3.88,3.88,0,0,1-1.56,2.15,4.62,4.62,0,0,1-2.61.75,4.28,4.28,0,0,1-3.23-1.29A5.14,5.14,0,0,1,74.29,190v-6.72H76.2v6.53a3.72,3.72,0,0,0,.88,2.66,3.13,3.13,0,0,0,2.39.93,3.27,3.27,0,0,0,2.52-1,4.22,4.22,0,0,0,.95-3v-6.13Z" transform="translate(0 0.01)"/><path class="cls-18" d="M87.94,179a1.54,1.54,0,0,1,1.89,0,1.19,1.19,0,0,1,0,1.7,1.54,1.54,0,0,1-1.89,0,1.19,1.19,0,0,1,0-1.7Zm1.89,4.23v11.53H87.91V183.26Z" transform="translate(0 0.01)"/><path class="cls-18" d="M101.65,184.29a5,5,0,0,1,1.79,3.15h-2a3,3,0,0,0-1.14-1.94,4,4,0,0,0-4.16-.24,3.36,3.36,0,0,0-1.33,1.42,5.79,5.79,0,0,0,0,4.73,3.36,3.36,0,0,0,1.33,1.42,4,4,0,0,0,4.16-.25,3,3,0,0,0,1.14-2h2a5,5,0,0,1-1.79,3.16A5.64,5.64,0,0,1,98,194.94a5.93,5.93,0,0,1-2.94-.71,5,5,0,0,1-2-2,7.19,7.19,0,0,1,0-6.29,5,5,0,0,1,2-2.06,5.93,5.93,0,0,1,2.94-.71A5.61,5.61,0,0,1,101.65,184.29Z" transform="translate(0 0.01)"/><path class="cls-18" d="M112.25,194.79l-4.41-5.19v5.19h-1.91V179.25h1.91v9l4.35-5h2.33L109.35,189l5.29,5.8Z" transform="translate(0 0.01)"/><path class="cls-18" d="M118.24,179.25v15.54h-1.91V179.25Z" transform="translate(0 0.01)"/><path class="cls-18" d="M122.1,183.26l3.74,9.07,3.47-9.07h2.12l-6.85,17h-2.16l2.39-5.65L120,183.26Z" transform="translate(0 0.01)"/><path class="cls-18" d="M145.93,184a4.38,4.38,0,0,1,1.63,2.25v-2.94h1.91v11.53h-1.91v-2.94a4.38,4.38,0,0,1-1.63,2.25,4.73,4.73,0,0,1-2.85.84,5.22,5.22,0,0,1-2.73-.71,4.94,4.94,0,0,1-1.88-2,7.59,7.59,0,0,1,0-6.29,4.93,4.93,0,0,1,1.88-2.06,5.22,5.22,0,0,1,2.73-.71A4.73,4.73,0,0,1,145.93,184Zm-5.12,2a5.05,5.05,0,0,0,0,6.2,3.7,3.7,0,0,0,2.82,1.12,3.93,3.93,0,0,0,2-.52,3.66,3.66,0,0,0,1.4-1.48,4.68,4.68,0,0,0,.5-2.21,4.75,4.75,0,0,0-.5-2.23,3.58,3.58,0,0,0-1.4-1.48,4,4,0,0,0-2-.51A3.7,3.7,0,0,0,140.8,185.94Z" transform="translate(0 0.01)"/><path class="cls-18" d="M158,193.11v1.68h-1.43a3.67,3.67,0,0,1-2.64-.84,3.79,3.79,0,0,1-.87-2.81v-6.22h-1.72v-1.66h1.72v-2.88H155v2.88h3v1.66h-3v6.26a2.15,2.15,0,0,0,.41,1.52,2,2,0,0,0,1.42.41Z" transform="translate(0 0.01)"/><path class="cls-18" d="M165.84,193.11v1.68h-1.43a3.67,3.67,0,0,1-2.64-.84,3.79,3.79,0,0,1-.87-2.81v-6.22h-1.72v-1.66h1.72v-2.88h1.93v2.88h3v1.66h-3v6.26a2.15,2.15,0,0,0,.41,1.52,2,2,0,0,0,1.42.41Z" transform="translate(0 0.01)"/><path class="cls-18" d="M171.74,183.73a4.93,4.93,0,0,1,2.6-.66v2.08h-.59a4.08,4.08,0,0,0-2.65.83,3.32,3.32,0,0,0-1,2.74v6.07h-1.91V183.26h1.91v2.33A4.24,4.24,0,0,1,171.74,183.73Z" transform="translate(0 0.01)"/><path class="cls-18" d="M183.81,184a4.38,4.38,0,0,1,1.63,2.25v-2.94h1.91v11.53h-1.91v-2.94a4.38,4.38,0,0,1-1.63,2.25,4.73,4.73,0,0,1-2.85.84,5.22,5.22,0,0,1-2.73-.71,4.94,4.94,0,0,1-1.88-2,7.59,7.59,0,0,1,0-6.29,4.93,4.93,0,0,1,1.88-2.06,5.22,5.22,0,0,1,2.73-.71A4.73,4.73,0,0,1,183.81,184Zm-5.12,2a5.05,5.05,0,0,0,0,6.2,3.7,3.7,0,0,0,2.82,1.12,3.93,3.93,0,0,0,2-.52,3.66,3.66,0,0,0,1.4-1.48,4.68,4.68,0,0,0,.5-2.21,4.75,4.75,0,0,0-.5-2.23,3.58,3.58,0,0,0-1.4-1.48,4,4,0,0,0-2-.51A3.7,3.7,0,0,0,178.69,185.94Z" transform="translate(0 0.01)"/><path class="cls-18" d="M199.15,184.29a5,5,0,0,1,1.79,3.15h-2a3,3,0,0,0-1.14-1.94,4,4,0,0,0-4.16-.24,3.36,3.36,0,0,0-1.33,1.42,5.79,5.79,0,0,0,0,4.73,3.36,3.36,0,0,0,1.33,1.42,4,4,0,0,0,4.16-.25,3,3,0,0,0,1.14-2h2a5,5,0,0,1-1.79,3.16,5.64,5.64,0,0,1-3.65,1.17,5.93,5.93,0,0,1-2.94-.71,5,5,0,0,1-2-2,7.19,7.19,0,0,1,0-6.29,5,5,0,0,1,2-2.06,5.93,5.93,0,0,1,2.94-.71A5.61,5.61,0,0,1,199.15,184.29Z" transform="translate(0 0.01)"/><path class="cls-18" d="M208.94,193.11v1.68h-1.43a3.67,3.67,0,0,1-2.64-.84,3.79,3.79,0,0,1-.87-2.81v-6.22h-1.72v-1.66H204v-2.88h1.93v2.88h3v1.66h-3v6.26a2.15,2.15,0,0,0,.41,1.52,2,2,0,0,0,1.42.41Z" transform="translate(0 0.01)"/><path class="cls-18" d="M225.78,184.36a5.18,5.18,0,0,1,1.24,3.73v6.7H225.1v-6.53a3.68,3.68,0,0,0-.88-2.65,3.15,3.15,0,0,0-2.39-.92,3.27,3.27,0,0,0-2.52,1,4.22,4.22,0,0,0-.95,3v6.11h-1.91V183.26h1.91V186a3.93,3.93,0,0,1,1.56-2.16,4.54,4.54,0,0,1,2.59-.76A4.3,4.3,0,0,1,225.78,184.36Z" transform="translate(0 0.01)"/><path class="cls-18" d="M240.48,189.44h-9.22a4,4,0,0,0,1.12,3,3.66,3.66,0,0,0,2.59,1,3.75,3.75,0,0,0,2.32-.7,2.91,2.91,0,0,0,1.14-1.88h2a4.81,4.81,0,0,1-2.81,3.61,6.23,6.23,0,0,1-2.6.53,5.93,5.93,0,0,1-2.94-.71,5,5,0,0,1-2-2,7.19,7.19,0,0,1,0-6.29,5,5,0,0,1,2-2.06,5.93,5.93,0,0,1,2.94-.71,5.8,5.8,0,0,1,2.93.71,4.91,4.91,0,0,1,1.91,1.91,5.38,5.38,0,0,1,.66,2.65A5.72,5.72,0,0,1,240.48,189.44Zm-2.27-3.07a3.07,3.07,0,0,0-1.32-1.28,4,4,0,0,0-1.83-.42,3.78,3.78,0,0,0-2.65,1,3.93,3.93,0,0,0-1.16,2.87h7.37A3.92,3.92,0,0,0,238.21,186.37Z" transform="translate(0 0.01)"/><path class="cls-18" d="M258.89,183.26l-3.32,11.53h-2.06l-3.17-9.39-3.19,9.39h-2.08l-3.28-11.53h1.93l2.46,9.7,3.19-9.7h2l3.21,9.68,2.48-9.68Z" transform="translate(0 0.01)"/><path class="cls-18" d="M272.62,184.13a4.29,4.29,0,0,1,1.44,2.74h-1.83a2.65,2.65,0,0,0-.85-1.69,2.77,2.77,0,0,0-1.94-.66,2.4,2.4,0,0,0-1.61.49,1.66,1.66,0,0,0-.58,1.33,1.38,1.38,0,0,0,.39,1,2.48,2.48,0,0,0,1,.59,16,16,0,0,0,1.59.43,15.62,15.62,0,0,1,2.07.6,3.24,3.24,0,0,1,1.34,1,2.75,2.75,0,0,1,.56,1.81,2.84,2.84,0,0,1-1.06,2.29,4.28,4.28,0,0,1-2.82.88,5.41,5.41,0,0,1-3.36-1,3.94,3.94,0,0,1-1.53-2.75h1.85a2.41,2.41,0,0,0,.91,1.7,3.3,3.3,0,0,0,2.13.65,2.22,2.22,0,0,0,1.54-.5,1.7,1.7,0,0,0,.56-1.32,1.45,1.45,0,0,0-.4-1.07,2.62,2.62,0,0,0-1-.61,14.63,14.63,0,0,0-1.62-.44,15.61,15.61,0,0,1-2-.59,3.12,3.12,0,0,1-1.3-.93,2.62,2.62,0,0,1-.54-1.73,2.9,2.9,0,0,1,1.07-2.34,4.42,4.42,0,0,1,2.92-.89A4.66,4.66,0,0,1,272.62,184.13Z" transform="translate(0 0.01)"/><path class="cls-18" d="M287,183.26v11.53h-1.91v-2.71a3.88,3.88,0,0,1-1.56,2.15,4.62,4.62,0,0,1-2.61.75,4.28,4.28,0,0,1-3.23-1.29,5.14,5.14,0,0,1-1.24-3.71v-6.72h1.91v6.53a3.72,3.72,0,0,0,.88,2.66,3.13,3.13,0,0,0,2.39.93,3.27,3.27,0,0,0,2.52-1,4.22,4.22,0,0,0,.95-3v-6.13Z" transform="translate(0 0.01)"/><path class="cls-18" d="M299.13,183.83a4.93,4.93,0,0,1,1.88,2.06,7.59,7.59,0,0,1,0,6.29,4.94,4.94,0,0,1-1.88,2,5.22,5.22,0,0,1-2.73.71,4.7,4.7,0,0,1-2.85-.85,4.32,4.32,0,0,1-1.61-2.24v2.94H290V179.25h1.91v7a4.32,4.32,0,0,1,1.61-2.24,4.7,4.7,0,0,1,2.85-.85A5.22,5.22,0,0,1,299.13,183.83Zm-5.29,1.5a3.56,3.56,0,0,0-1.41,1.48,4.75,4.75,0,0,0-.5,2.23,4.68,4.68,0,0,0,.5,2.21,3.64,3.64,0,0,0,1.41,1.48,3.94,3.94,0,0,0,2,.52,3.73,3.73,0,0,0,2.85-1.12,5.05,5.05,0,0,0,0-6.2,3.73,3.73,0,0,0-2.85-1.12A4,4,0,0,0,293.84,185.33Z" transform="translate(0 0.01)"/><path class="cls-18" d="M310.94,184.13a4.29,4.29,0,0,1,1.44,2.74h-1.83a2.65,2.65,0,0,0-.85-1.69,2.77,2.77,0,0,0-1.94-.66,2.4,2.4,0,0,0-1.61.49,1.66,1.66,0,0,0-.58,1.33,1.38,1.38,0,0,0,.39,1,2.48,2.48,0,0,0,1,.59,16,16,0,0,0,1.59.43,15.62,15.62,0,0,1,2.07.6,3.24,3.24,0,0,1,1.34,1,2.75,2.75,0,0,1,.56,1.81,2.84,2.84,0,0,1-1.06,2.29,4.28,4.28,0,0,1-2.82.88,5.41,5.41,0,0,1-3.36-1,3.94,3.94,0,0,1-1.53-2.75h1.85a2.41,2.41,0,0,0,.91,1.7,3.3,3.3,0,0,0,2.13.65,2.22,2.22,0,0,0,1.54-.5,1.7,1.7,0,0,0,.56-1.32,1.45,1.45,0,0,0-.4-1.07,2.62,2.62,0,0,0-1-.61,14.63,14.63,0,0,0-1.62-.44,15.61,15.61,0,0,1-2-.59,3.12,3.12,0,0,1-1.3-.93,2.62,2.62,0,0,1-.54-1.73,2.9,2.9,0,0,1,1.07-2.34,4.42,4.42,0,0,1,2.92-.89A4.66,4.66,0,0,1,310.94,184.13Z" transform="translate(0 0.01)"/><path class="cls-18" d="M323.8,184.29a5,5,0,0,1,1.79,3.15h-2a3,3,0,0,0-1.14-1.94,4,4,0,0,0-4.16-.24,3.36,3.36,0,0,0-1.33,1.42,5.79,5.79,0,0,0,0,4.73,3.36,3.36,0,0,0,1.33,1.42,4,4,0,0,0,4.16-.25,3,3,0,0,0,1.14-2h2a5,5,0,0,1-1.79,3.16,5.64,5.64,0,0,1-3.65,1.17,5.93,5.93,0,0,1-2.94-.71,5,5,0,0,1-2-2,7.19,7.19,0,0,1,0-6.29,5,5,0,0,1,2-2.06,5.93,5.93,0,0,1,2.94-.71A5.61,5.61,0,0,1,323.8,184.29Z" transform="translate(0 0.01)"/><path class="cls-18" d="M331.66,183.73a4.93,4.93,0,0,1,2.6-.66v2.08h-.59A4.08,4.08,0,0,0,331,186a3.32,3.32,0,0,0-1,2.74v6.07h-1.91V183.26H330v2.33A4.24,4.24,0,0,1,331.66,183.73Z" transform="translate(0 0.01)"/><path class="cls-18" d="M336.17,179a1.54,1.54,0,0,1,1.89,0,1.19,1.19,0,0,1,0,1.7,1.54,1.54,0,0,1-1.89,0,1.19,1.19,0,0,1,0-1.7Zm1.89,4.23v11.53h-1.91V183.26Z" transform="translate(0 0.01)"/><path class="cls-18" d="M350.22,183.83a4.93,4.93,0,0,1,1.88,2.06,7.59,7.59,0,0,1,0,6.29,4.94,4.94,0,0,1-1.88,2,5.22,5.22,0,0,1-2.73.71,4.7,4.7,0,0,1-2.85-.85,4.32,4.32,0,0,1-1.61-2.24v2.94h-1.91V179.25H343v7a4.32,4.32,0,0,1,1.61-2.24,4.7,4.7,0,0,1,2.85-.85A5.22,5.22,0,0,1,350.22,183.83Zm-5.29,1.5a3.56,3.56,0,0,0-1.41,1.48A4.75,4.75,0,0,0,343,189a4.68,4.68,0,0,0,.5,2.21,3.64,3.64,0,0,0,1.41,1.48,3.94,3.94,0,0,0,2,.52,3.73,3.73,0,0,0,2.85-1.12,5.05,5.05,0,0,0,0-6.2,3.73,3.73,0,0,0-2.85-1.12A4,4,0,0,0,344.93,185.33Z" transform="translate(0 0.01)"/><path class="cls-18" d="M365.8,189.44h-9.22a4,4,0,0,0,1.12,3,3.66,3.66,0,0,0,2.59,1,3.75,3.75,0,0,0,2.32-.7,2.91,2.91,0,0,0,1.14-1.88h2a4.81,4.81,0,0,1-2.81,3.61,6.23,6.23,0,0,1-2.6.53,5.93,5.93,0,0,1-2.94-.71,5,5,0,0,1-2-2,7.19,7.19,0,0,1,0-6.29,5,5,0,0,1,2-2.06,5.93,5.93,0,0,1,2.94-.71,5.8,5.8,0,0,1,2.93.71,4.91,4.91,0,0,1,1.91,1.91,5.38,5.38,0,0,1,.66,2.65A5.72,5.72,0,0,1,365.8,189.44Zm-2.27-3.07a3.07,3.07,0,0,0-1.32-1.28,4,4,0,0,0-1.83-.42,3.78,3.78,0,0,0-2.65,1,3.93,3.93,0,0,0-1.16,2.87H364A3.92,3.92,0,0,0,363.54,186.37Z" transform="translate(0 0.01)"/><path class="cls-18" d="M372,183.73a4.93,4.93,0,0,1,2.6-.66v2.08H374a4.08,4.08,0,0,0-2.65.83,3.32,3.32,0,0,0-1,2.74v6.07h-1.91V183.26h1.91v2.33A4.24,4.24,0,0,1,372,183.73Z" transform="translate(0 0.01)"/><path class="cls-18" d="M383.2,184.13a4.29,4.29,0,0,1,1.44,2.74h-1.83a2.66,2.66,0,0,0-.85-1.69,2.77,2.77,0,0,0-1.94-.66,2.39,2.39,0,0,0-1.61.49,1.66,1.66,0,0,0-.58,1.33,1.37,1.37,0,0,0,.39,1,2.49,2.49,0,0,0,1,.59,15.83,15.83,0,0,0,1.59.43,15.63,15.63,0,0,1,2.07.6,3.25,3.25,0,0,1,1.34,1,2.74,2.74,0,0,1,.56,1.81,2.84,2.84,0,0,1-1.06,2.29,4.27,4.27,0,0,1-2.82.88,5.41,5.41,0,0,1-3.36-1A3.94,3.94,0,0,1,376,191.2h1.85a2.4,2.4,0,0,0,.91,1.7,3.3,3.3,0,0,0,2.13.65,2.22,2.22,0,0,0,1.54-.5,1.7,1.7,0,0,0,.56-1.32,1.44,1.44,0,0,0-.4-1.07,2.61,2.61,0,0,0-1-.61,14.63,14.63,0,0,0-1.62-.44,15.58,15.58,0,0,1-2-.59,3.12,3.12,0,0,1-1.3-.93,2.62,2.62,0,0,1-.54-1.73,2.9,2.9,0,0,1,1.07-2.34,4.43,4.43,0,0,1,2.92-.89A4.65,4.65,0,0,1,383.2,184.13Z" transform="translate(0 0.01)"/><path class="cls-18" d="M408.33,183.26,405,194.79H403l-3.17-9.39-3.19,9.39h-2.08l-3.28-11.53h1.93l2.46,9.7,3.19-9.7h2l3.21,9.68,2.48-9.68Z" transform="translate(0 0.01)"/><path class="cls-18" d="M419.44,184.36a5.18,5.18,0,0,1,1.24,3.73v6.7h-1.91v-6.53a3.68,3.68,0,0,0-.88-2.65,3.15,3.15,0,0,0-2.39-.92,3.28,3.28,0,0,0-2.52,1,4.22,4.22,0,0,0-.94,3v6.11h-1.91V179.25H412V186a3.93,3.93,0,0,1,1.56-2.16,4.53,4.53,0,0,1,2.59-.76A4.3,4.3,0,0,1,419.44,184.36Z" transform="translate(0 0.01)"/><path class="cls-18" d="M431.82,183.83a5.11,5.11,0,0,1,2.06,2.06,7,7,0,0,1,0,6.29,5.12,5.12,0,0,1-2.06,2,6.53,6.53,0,0,1-5.94,0,5.19,5.19,0,0,1-2.07-2,6.92,6.92,0,0,1,0-6.29,5.18,5.18,0,0,1,2.07-2.06,6.54,6.54,0,0,1,5.94,0Zm-4.87,1.43a3.47,3.47,0,0,0-1.41,1.42A4.78,4.78,0,0,0,425,189a4.73,4.73,0,0,0,.54,2.34,3.47,3.47,0,0,0,1.41,1.42,4.14,4.14,0,0,0,3.8,0,3.47,3.47,0,0,0,1.41-1.42,4.72,4.72,0,0,0,.54-2.34,4.77,4.77,0,0,0-.54-2.36,3.47,3.47,0,0,0-1.41-1.42,4.14,4.14,0,0,0-3.8,0Z" transform="translate(0 0.01)"/><path class="cls-18" d="M69.2,209.49A5,5,0,0,1,71,212.64H69a3,3,0,0,0-1.14-1.94,4,4,0,0,0-4.16-.24,3.36,3.36,0,0,0-1.33,1.42,5.79,5.79,0,0,0,0,4.72A3.36,3.36,0,0,0,63.67,218a4,4,0,0,0,4.16-.25,3,3,0,0,0,1.14-2h2A5,5,0,0,1,69.2,219a5.64,5.64,0,0,1-3.65,1.17,5.93,5.93,0,0,1-2.94-.71,5,5,0,0,1-2-2,7.19,7.19,0,0,1,0-6.29,5,5,0,0,1,2-2.06,5.94,5.94,0,0,1,2.94-.71A5.61,5.61,0,0,1,69.2,209.49Z" transform="translate(0 0.01)"/><path class="cls-18" d="M81.06,209.16a4.38,4.38,0,0,1,1.63,2.25v-2.94H84.6V220H82.69v-2.94a4.38,4.38,0,0,1-1.63,2.25,4.73,4.73,0,0,1-2.85.84,5.22,5.22,0,0,1-2.73-.71,4.94,4.94,0,0,1-1.88-2,6.8,6.8,0,0,1-.68-3.14,6.87,6.87,0,0,1,.68-3.15A4.93,4.93,0,0,1,75.48,209a5.23,5.23,0,0,1,2.73-.71A4.74,4.74,0,0,1,81.06,209.16Zm-5.12,2a5.05,5.05,0,0,0,0,6.2,3.7,3.7,0,0,0,2.82,1.12,3.93,3.93,0,0,0,2-.52,3.66,3.66,0,0,0,1.4-1.48,4.68,4.68,0,0,0,.5-2.22,4.75,4.75,0,0,0-.5-2.23,3.58,3.58,0,0,0-1.4-1.48,4,4,0,0,0-2-.51A3.7,3.7,0,0,0,75.93,211.14Z" transform="translate(0 0.01)"/><path class="cls-18" d="M97,209.56a5.18,5.18,0,0,1,1.24,3.73V220H96.29v-6.53a3.68,3.68,0,0,0-.88-2.65,3.15,3.15,0,0,0-2.39-.92,3.27,3.27,0,0,0-2.52,1,4.21,4.21,0,0,0-.95,3V220H87.64V208.46h1.91v2.73A3.93,3.93,0,0,1,91.12,209a4.54,4.54,0,0,1,2.59-.76A4.31,4.31,0,0,1,97,209.56Z" transform="translate(0 0.01)"/><path class="cls-18" d="M116.85,214.64h-9.22a4,4,0,0,0,1.12,3,3.66,3.66,0,0,0,2.59,1,3.75,3.75,0,0,0,2.32-.7,2.91,2.91,0,0,0,1.14-1.88h2a4.81,4.81,0,0,1-2.81,3.61,6.23,6.23,0,0,1-2.6.53,5.93,5.93,0,0,1-2.94-.71,5,5,0,0,1-2-2,7.19,7.19,0,0,1,0-6.29,5,5,0,0,1,2-2.06,5.94,5.94,0,0,1,2.94-.71,5.81,5.81,0,0,1,2.93.71,4.91,4.91,0,0,1,1.91,1.91,5.38,5.38,0,0,1,.66,2.65A5.72,5.72,0,0,1,116.85,214.64Zm-2.27-3.07a3.07,3.07,0,0,0-1.32-1.28,4,4,0,0,0-1.83-.42,3.78,3.78,0,0,0-2.65,1,3.93,3.93,0,0,0-1.16,2.87H115A3.92,3.92,0,0,0,114.58,211.57Z" transform="translate(0 0.01)"/><path class="cls-18" d="M127,209.16a4.38,4.38,0,0,1,1.63,2.25v-2.94h1.91V220h-1.91v-2.94A4.38,4.38,0,0,1,127,219.3a4.73,4.73,0,0,1-2.85.84,5.22,5.22,0,0,1-2.73-.71,4.94,4.94,0,0,1-1.88-2,6.8,6.8,0,0,1-.68-3.14,6.87,6.87,0,0,1,.68-3.15,4.93,4.93,0,0,1,1.88-2.06,5.23,5.23,0,0,1,2.73-.71A4.74,4.74,0,0,1,127,209.16Zm-5.12,2a5.05,5.05,0,0,0,0,6.2,3.7,3.7,0,0,0,2.82,1.12,3.93,3.93,0,0,0,2-.52,3.66,3.66,0,0,0,1.4-1.48,4.68,4.68,0,0,0,.5-2.22,4.75,4.75,0,0,0-.5-2.23,3.58,3.58,0,0,0-1.4-1.48,4,4,0,0,0-2-.51A3.7,3.7,0,0,0,121.88,211.14Z" transform="translate(0 0.01)"/><path class="cls-18" d="M140.34,209.33a4.29,4.29,0,0,1,1.44,2.74H140a2.65,2.65,0,0,0-.85-1.69,2.77,2.77,0,0,0-1.94-.66,2.4,2.4,0,0,0-1.61.49,1.66,1.66,0,0,0-.58,1.33,1.38,1.38,0,0,0,.39,1,2.48,2.48,0,0,0,1,.59,15.69,15.69,0,0,0,1.59.43,15.62,15.62,0,0,1,2.07.6,3.24,3.24,0,0,1,1.34,1,2.75,2.75,0,0,1,.56,1.81,2.84,2.84,0,0,1-1.06,2.29,4.28,4.28,0,0,1-2.82.88,5.41,5.41,0,0,1-3.36-1,3.94,3.94,0,0,1-1.53-2.75H135a2.41,2.41,0,0,0,.91,1.7,3.3,3.3,0,0,0,2.13.65,2.22,2.22,0,0,0,1.54-.5,1.7,1.7,0,0,0,.56-1.32,1.45,1.45,0,0,0-.4-1.07,2.63,2.63,0,0,0-1-.61,14.45,14.45,0,0,0-1.62-.44,15.75,15.75,0,0,1-2-.59,3.12,3.12,0,0,1-1.3-.93,2.62,2.62,0,0,1-.54-1.73,2.9,2.9,0,0,1,1.07-2.34,4.42,4.42,0,0,1,2.92-.89A4.66,4.66,0,0,1,140.34,209.33Z" transform="translate(0 0.01)"/><path class="cls-18" d="M144.47,204.23a1.54,1.54,0,0,1,1.89,0,1.19,1.19,0,0,1,0,1.7,1.54,1.54,0,0,1-1.89,0,1.19,1.19,0,0,1,0-1.7Zm1.89,4.23V220h-1.91V208.46Z" transform="translate(0 0.01)"/><path class="cls-18" d="M151.33,204.45V220h-1.91V204.45Z" transform="translate(0 0.01)"/><path class="cls-18" d="M155.2,208.46l3.74,9.07,3.47-9.07h2.12l-6.85,17h-2.16l2.39-5.65-4.85-11.34Z" transform="translate(0 0.01)"/><path class="cls-18" d="M180.54,209a4.93,4.93,0,0,1,1.88,2.06,6.87,6.87,0,0,1,.68,3.15,6.8,6.8,0,0,1-.68,3.14,4.94,4.94,0,0,1-1.88,2,5.22,5.22,0,0,1-2.73.71,4.7,4.7,0,0,1-2.85-.85,4.32,4.32,0,0,1-1.61-2.24V220h-1.91V204.45h1.91v7a4.32,4.32,0,0,1,1.61-2.24,4.69,4.69,0,0,1,2.85-.85A5.23,5.23,0,0,1,180.54,209Zm-5.29,1.5a3.56,3.56,0,0,0-1.41,1.48,4.75,4.75,0,0,0-.5,2.23,4.68,4.68,0,0,0,.5,2.22,3.64,3.64,0,0,0,1.41,1.48,3.94,3.94,0,0,0,2,.52,3.73,3.73,0,0,0,2.85-1.12,5.05,5.05,0,0,0,0-6.2,3.73,3.73,0,0,0-2.85-1.12A4,4,0,0,0,175.25,210.53Z" transform="translate(0 0.01)"/><path class="cls-18" d="M196.13,214.64h-9.22a4,4,0,0,0,1.12,3,3.66,3.66,0,0,0,2.59,1,3.75,3.75,0,0,0,2.32-.7,2.91,2.91,0,0,0,1.14-1.88h2a4.81,4.81,0,0,1-2.81,3.61,6.23,6.23,0,0,1-2.6.53,5.93,5.93,0,0,1-2.94-.71,5,5,0,0,1-2-2,7.19,7.19,0,0,1,0-6.29,5,5,0,0,1,2-2.06,5.94,5.94,0,0,1,2.94-.71,5.81,5.81,0,0,1,2.93.71,4.91,4.91,0,0,1,1.91,1.91,5.38,5.38,0,0,1,.66,2.65A5.72,5.72,0,0,1,196.13,214.64Zm-2.27-3.07a3.07,3.07,0,0,0-1.32-1.28,4,4,0,0,0-1.83-.42,3.78,3.78,0,0,0-2.65,1,3.93,3.93,0,0,0-1.16,2.87h7.37A3.92,3.92,0,0,0,193.86,211.57Z" transform="translate(0 0.01)"/><path class="cls-18" d="M207.47,209.49a5,5,0,0,1,1.79,3.15h-2a3,3,0,0,0-1.14-1.94,4,4,0,0,0-4.16-.24,3.36,3.36,0,0,0-1.33,1.42,5.79,5.79,0,0,0,0,4.72,3.36,3.36,0,0,0,1.33,1.42,4,4,0,0,0,4.16-.25,3,3,0,0,0,1.14-2h2a5,5,0,0,1-1.79,3.16,5.64,5.64,0,0,1-3.65,1.17,5.93,5.93,0,0,1-2.94-.71,5,5,0,0,1-2-2,7.19,7.19,0,0,1,0-6.29,5,5,0,0,1,2-2.06,5.94,5.94,0,0,1,2.94-.71A5.61,5.61,0,0,1,207.47,209.49Z" transform="translate(0 0.01)"/><path class="cls-18" d="M220,209a5.11,5.11,0,0,1,2.06,2.06,7,7,0,0,1,0,6.29,5.13,5.13,0,0,1-2.06,2,6.53,6.53,0,0,1-5.94,0,5.19,5.19,0,0,1-2.07-2,6.92,6.92,0,0,1,0-6.29A5.18,5.18,0,0,1,214,209a6.54,6.54,0,0,1,5.94,0Zm-4.87,1.43a3.48,3.48,0,0,0-1.41,1.42,5.43,5.43,0,0,0,0,4.7,3.47,3.47,0,0,0,1.41,1.42,4.14,4.14,0,0,0,3.8,0,3.47,3.47,0,0,0,1.41-1.42,5.43,5.43,0,0,0,0-4.7,3.48,3.48,0,0,0-1.41-1.42,4.14,4.14,0,0,0-3.8,0Z" transform="translate(0 0.01)"/><path class="cls-18" d="M242.67,209.56a5.2,5.2,0,0,1,1.23,3.73V220H242v-6.53a3.72,3.72,0,0,0-.83-2.6,2.94,2.94,0,0,0-2.28-.9,3.13,3.13,0,0,0-2.43,1,4.2,4.2,0,0,0-.91,2.93V220h-1.91v-6.53a3.68,3.68,0,0,0-.84-2.6,3,3,0,0,0-2.27-.9,3.16,3.16,0,0,0-2.45,1,4.2,4.2,0,0,0-.91,2.93V220h-1.91V208.46h1.91v2.63a3.75,3.75,0,0,1,1.5-2.09,4.69,4.69,0,0,1,5,0,4.06,4.06,0,0,1,1.54,2.19,4.17,4.17,0,0,1,1.62-2.17,4.47,4.47,0,0,1,2.56-.77A4.27,4.27,0,0,1,242.67,209.56Z" transform="translate(0 0.01)"/><path class="cls-18" d="M257.38,214.64h-9.22a4,4,0,0,0,1.12,3,3.66,3.66,0,0,0,2.59,1,3.75,3.75,0,0,0,2.32-.7,2.91,2.91,0,0,0,1.14-1.88h2a4.81,4.81,0,0,1-2.81,3.61,6.23,6.23,0,0,1-2.6.53,5.93,5.93,0,0,1-2.94-.71,5,5,0,0,1-2-2,7.19,7.19,0,0,1,0-6.29,5,5,0,0,1,2-2.06,5.94,5.94,0,0,1,2.94-.71,5.81,5.81,0,0,1,2.93.71,4.91,4.91,0,0,1,1.91,1.91,5.38,5.38,0,0,1,.66,2.65A5.72,5.72,0,0,1,257.38,214.64Zm-2.27-3.07a3.07,3.07,0,0,0-1.32-1.28,4,4,0,0,0-1.83-.42,3.78,3.78,0,0,0-2.65,1,3.93,3.93,0,0,0-1.16,2.87h7.37A3.92,3.92,0,0,0,255.11,211.57Z" transform="translate(0 0.01)"/><path class="cls-18" d="M266,208.46l3.74,9.07,3.47-9.07h2.12l-6.85,17h-2.16l2.39-5.65-4.85-11.34Z" transform="translate(0 0.01)"/><path class="cls-18" d="M285.22,209a5.11,5.11,0,0,1,2.06,2.06,7,7,0,0,1,0,6.29,5.13,5.13,0,0,1-2.06,2,6.53,6.53,0,0,1-5.94,0,5.19,5.19,0,0,1-2.07-2,6.92,6.92,0,0,1,0-6.29,5.18,5.18,0,0,1,2.07-2.06,6.54,6.54,0,0,1,5.94,0Zm-4.87,1.43a3.48,3.48,0,0,0-1.41,1.42,5.43,5.43,0,0,0,0,4.7,3.47,3.47,0,0,0,1.41,1.42,4.14,4.14,0,0,0,3.8,0,3.47,3.47,0,0,0,1.41-1.42,5.43,5.43,0,0,0,0-4.7,3.48,3.48,0,0,0-1.41-1.42,4.14,4.14,0,0,0-3.8,0Z" transform="translate(0 0.01)"/><path class="cls-18" d="M300.77,208.46V220h-1.91v-2.71a3.88,3.88,0,0,1-1.56,2.15,4.62,4.62,0,0,1-2.61.75,4.28,4.28,0,0,1-3.23-1.29,5.14,5.14,0,0,1-1.24-3.71v-6.72h1.91V215a3.72,3.72,0,0,0,.88,2.66,3.13,3.13,0,0,0,2.39.93,3.27,3.27,0,0,0,2.52-1,4.22,4.22,0,0,0,.95-3v-6.13Z" transform="translate(0 0.01)"/><path class="cls-18" d="M307.4,208.93a4.94,4.94,0,0,1,2.6-.66v2.08h-.59a4.08,4.08,0,0,0-2.65.83,3.32,3.32,0,0,0-1,2.74V220h-1.91V208.46h1.91v2.33A4.24,4.24,0,0,1,307.4,208.93Z" transform="translate(0 0.01)"/><path class="cls-18" d="M326.18,209a4.93,4.93,0,0,1,1.88,2.06,6.87,6.87,0,0,1,.68,3.15,6.8,6.8,0,0,1-.68,3.14,4.94,4.94,0,0,1-1.88,2,5.22,5.22,0,0,1-2.73.71,4.7,4.7,0,0,1-2.85-.85,4.32,4.32,0,0,1-1.61-2.24v8.4h-1.91v-17H319v2.94a4.32,4.32,0,0,1,1.61-2.24,4.69,4.69,0,0,1,2.85-.85A5.23,5.23,0,0,1,326.18,209Zm-5.29,1.5a3.56,3.56,0,0,0-1.41,1.48,4.75,4.75,0,0,0-.5,2.23,4.68,4.68,0,0,0,.5,2.22,3.64,3.64,0,0,0,1.41,1.48,3.94,3.94,0,0,0,2,.52,3.73,3.73,0,0,0,2.85-1.12,5.05,5.05,0,0,0,0-6.2A3.73,3.73,0,0,0,322.9,210,4,4,0,0,0,320.89,210.53Z" transform="translate(0 0.01)"/><path class="cls-18" d="M338.81,209.16a4.38,4.38,0,0,1,1.63,2.25v-2.94h1.91V220h-1.91v-2.94a4.38,4.38,0,0,1-1.63,2.25,4.73,4.73,0,0,1-2.85.84,5.22,5.22,0,0,1-2.73-.71,4.94,4.94,0,0,1-1.88-2,6.8,6.8,0,0,1-.68-3.14,6.87,6.87,0,0,1,.68-3.15,4.93,4.93,0,0,1,1.88-2.06,5.23,5.23,0,0,1,2.73-.71A4.74,4.74,0,0,1,338.81,209.16Zm-5.12,2a5.05,5.05,0,0,0,0,6.2,3.7,3.7,0,0,0,2.82,1.12,3.93,3.93,0,0,0,2-.52,3.66,3.66,0,0,0,1.4-1.48,4.68,4.68,0,0,0,.5-2.22,4.75,4.75,0,0,0-.5-2.23,3.58,3.58,0,0,0-1.4-1.48,4,4,0,0,0-2-.51A3.7,3.7,0,0,0,333.69,211.14Z" transform="translate(0 0.01)"/><path class="cls-18" d="M349,208.93a4.94,4.94,0,0,1,2.6-.66v2.08H351a4.08,4.08,0,0,0-2.65.83,3.32,3.32,0,0,0-1,2.74V220h-1.91V208.46h1.91v2.33A4.24,4.24,0,0,1,349,208.93Z" transform="translate(0 0.01)"/><path class="cls-18" d="M359,218.31V220h-1.43a3.67,3.67,0,0,1-2.64-.84,3.79,3.79,0,0,1-.87-2.81v-6.22H352.3v-1.66H354v-2.88H356v2.88h3v1.66h-3v6.26a2.15,2.15,0,0,0,.41,1.52,2,2,0,0,0,1.42.41Z" transform="translate(0 0.01)"/><path class="cls-18" d="M370.61,209.56a5.18,5.18,0,0,1,1.24,3.73V220h-1.91v-6.53a3.68,3.68,0,0,0-.88-2.65,3.15,3.15,0,0,0-2.39-.92,3.27,3.27,0,0,0-2.52,1,4.21,4.21,0,0,0-.95,3V220h-1.91V208.46h1.91v2.73a3.93,3.93,0,0,1,1.56-2.16,4.54,4.54,0,0,1,2.59-.76A4.31,4.31,0,0,1,370.61,209.56Z" transform="translate(0 0.01)"/><path class="cls-18" d="M385.31,214.64h-9.22a4,4,0,0,0,1.12,3,3.66,3.66,0,0,0,2.59,1,3.75,3.75,0,0,0,2.32-.7,2.91,2.91,0,0,0,1.14-1.88h2a4.81,4.81,0,0,1-2.81,3.61,6.24,6.24,0,0,1-2.6.53,5.94,5.94,0,0,1-2.94-.71,5,5,0,0,1-2-2,7.19,7.19,0,0,1,0-6.29,5,5,0,0,1,2-2.06,6,6,0,0,1,2.94-.71,5.81,5.81,0,0,1,2.93.71,4.92,4.92,0,0,1,1.91,1.91,5.37,5.37,0,0,1,.66,2.65A5.72,5.72,0,0,1,385.31,214.64ZM383,211.57a3.07,3.07,0,0,0-1.32-1.28,4,4,0,0,0-1.83-.42,3.78,3.78,0,0,0-2.65,1,3.93,3.93,0,0,0-1.16,2.87h7.37A3.93,3.93,0,0,0,383,211.57Z" transform="translate(0 0.01)"/><path class="cls-18" d="M391.46,208.93a4.94,4.94,0,0,1,2.6-.66v2.08h-.59a4.09,4.09,0,0,0-2.65.83,3.32,3.32,0,0,0-1,2.74V220H387.9V208.46h1.91v2.33A4.24,4.24,0,0,1,391.46,208.93Z" transform="translate(0 0.01)"/><path class="cls-18" d="M402.71,209.33a4.29,4.29,0,0,1,1.44,2.74h-1.83a2.65,2.65,0,0,0-.85-1.69,2.77,2.77,0,0,0-1.94-.66,2.4,2.4,0,0,0-1.61.49,1.66,1.66,0,0,0-.58,1.33,1.37,1.37,0,0,0,.39,1,2.48,2.48,0,0,0,1,.59,15.64,15.64,0,0,0,1.59.43,15.63,15.63,0,0,1,2.07.6,3.24,3.24,0,0,1,1.34,1,2.74,2.74,0,0,1,.56,1.81,2.84,2.84,0,0,1-1.06,2.29,4.28,4.28,0,0,1-2.82.88,5.41,5.41,0,0,1-3.36-1,3.94,3.94,0,0,1-1.53-2.75h1.85a2.4,2.4,0,0,0,.91,1.7,3.3,3.3,0,0,0,2.13.65,2.22,2.22,0,0,0,1.54-.5,1.7,1.7,0,0,0,.56-1.32,1.44,1.44,0,0,0-.4-1.07,2.63,2.63,0,0,0-1-.61,14.45,14.45,0,0,0-1.62-.44,15.73,15.73,0,0,1-2-.59,3.13,3.13,0,0,1-1.3-.93,2.62,2.62,0,0,1-.54-1.73,2.9,2.9,0,0,1,1.07-2.34,4.42,4.42,0,0,1,2.92-.89A4.65,4.65,0,0,1,402.71,209.33Z" transform="translate(0 0.01)"/><path class="cls-18" d="M420.2,209a5.11,5.11,0,0,1,2.06,2.06,7,7,0,0,1,0,6.29,5.12,5.12,0,0,1-2.06,2,6.53,6.53,0,0,1-5.94,0,5.19,5.19,0,0,1-2.07-2,6.92,6.92,0,0,1,0-6.29,5.18,5.18,0,0,1,2.07-2.06,6.54,6.54,0,0,1,5.94,0Zm-4.87,1.43a3.48,3.48,0,0,0-1.41,1.42,5.44,5.44,0,0,0,0,4.7,3.47,3.47,0,0,0,1.41,1.42,4.14,4.14,0,0,0,3.8,0,3.47,3.47,0,0,0,1.41-1.42,5.43,5.43,0,0,0,0-4.7,3.48,3.48,0,0,0-1.41-1.42,4.14,4.14,0,0,0-3.8,0Z" transform="translate(0 0.01)"/><path class="cls-18" d="M429.08,208.93a4.94,4.94,0,0,1,2.6-.66v2.08h-.59a4.09,4.09,0,0,0-2.65.83,3.32,3.32,0,0,0-1,2.74V220h-1.91V208.46h1.91v2.33A4.24,4.24,0,0,1,429.08,208.93Z" transform="translate(0 0.01)"/><path class="cls-18" d="M69.2,234.69A5,5,0,0,1,71,237.84H69a3,3,0,0,0-1.14-1.94,4,4,0,0,0-4.16-.24,3.36,3.36,0,0,0-1.33,1.42,5.79,5.79,0,0,0,0,4.72,3.36,3.36,0,0,0,1.33,1.42,4,4,0,0,0,4.16-.25A3,3,0,0,0,69,241h2a5,5,0,0,1-1.79,3.16,5.64,5.64,0,0,1-3.65,1.17,5.93,5.93,0,0,1-2.94-.71,5,5,0,0,1-2-2,7.19,7.19,0,0,1,0-6.29,5,5,0,0,1,2-2.06,5.94,5.94,0,0,1,2.94-.71A5.61,5.61,0,0,1,69.2,234.69Z" transform="translate(0 0.01)"/><path class="cls-18" d="M83.73,233.66v11.53H81.82v-2.71a3.88,3.88,0,0,1-1.56,2.15,4.62,4.62,0,0,1-2.61.75,4.28,4.28,0,0,1-3.23-1.29,5.14,5.14,0,0,1-1.24-3.71v-6.72h1.91v6.53a3.72,3.72,0,0,0,.88,2.66,3.13,3.13,0,0,0,2.39.93,3.27,3.27,0,0,0,2.52-1,4.22,4.22,0,0,0,.95-3v-6.13Z" transform="translate(0 0.01)"/><path class="cls-18" d="M93.55,234.53A4.29,4.29,0,0,1,95,237.27H93.16a2.65,2.65,0,0,0-.85-1.69,2.77,2.77,0,0,0-1.94-.66,2.4,2.4,0,0,0-1.61.49,1.66,1.66,0,0,0-.58,1.33,1.38,1.38,0,0,0,.39,1,2.48,2.48,0,0,0,1,.59,15.69,15.69,0,0,0,1.59.43,15.62,15.62,0,0,1,2.07.6,3.24,3.24,0,0,1,1.34,1,2.75,2.75,0,0,1,.56,1.81A2.84,2.84,0,0,1,94,244.46a4.28,4.28,0,0,1-2.82.88,5.41,5.41,0,0,1-3.36-1,3.94,3.94,0,0,1-1.53-2.75h1.85a2.41,2.41,0,0,0,.91,1.7,3.3,3.3,0,0,0,2.13.65,2.22,2.22,0,0,0,1.54-.5,1.7,1.7,0,0,0,.56-1.32,1.45,1.45,0,0,0-.4-1.07,2.63,2.63,0,0,0-1-.61,14.45,14.45,0,0,0-1.62-.44,15.75,15.75,0,0,1-2-.59,3.12,3.12,0,0,1-1.3-.93,2.62,2.62,0,0,1-.54-1.73,2.9,2.9,0,0,1,1.07-2.34,4.42,4.42,0,0,1,2.92-.89A4.66,4.66,0,0,1,93.55,234.53Z" transform="translate(0 0.01)"/><path class="cls-18" d="M103.16,243.51v1.68h-1.43a3.67,3.67,0,0,1-2.64-.84,3.79,3.79,0,0,1-.87-2.81v-6.22H96.5v-1.66h1.72v-2.88h1.93v2.88h3v1.66h-3v6.26a2.15,2.15,0,0,0,.41,1.52,2,2,0,0,0,1.42.41Z" transform="translate(0 0.01)"/><path class="cls-18" d="M113.69,234.23a5.11,5.11,0,0,1,2.06,2.06,7,7,0,0,1,0,6.29,5.13,5.13,0,0,1-2.06,2,6.53,6.53,0,0,1-5.94,0,5.19,5.19,0,0,1-2.07-2,6.92,6.92,0,0,1,0-6.29,5.18,5.18,0,0,1,2.07-2.06,6.54,6.54,0,0,1,5.94,0Zm-4.87,1.43a3.48,3.48,0,0,0-1.41,1.42,5.43,5.43,0,0,0,0,4.7,3.47,3.47,0,0,0,1.41,1.42,4.14,4.14,0,0,0,3.8,0,3.47,3.47,0,0,0,1.41-1.42,5.43,5.43,0,0,0,0-4.7,3.48,3.48,0,0,0-1.41-1.42,4.14,4.14,0,0,0-3.8,0Z" transform="translate(0 0.01)"/><path class="cls-18" d="M136.41,234.76a5.2,5.2,0,0,1,1.23,3.73v6.7h-1.91v-6.53a3.72,3.72,0,0,0-.83-2.6,2.94,2.94,0,0,0-2.28-.9,3.13,3.13,0,0,0-2.43,1,4.2,4.2,0,0,0-.91,2.93v6.11h-1.91v-6.53a3.68,3.68,0,0,0-.84-2.6,3,3,0,0,0-2.27-.9,3.16,3.16,0,0,0-2.45,1,4.2,4.2,0,0,0-.91,2.93v6.11H119V233.66h1.91v2.63a3.75,3.75,0,0,1,1.5-2.09,4.69,4.69,0,0,1,5,0,4.06,4.06,0,0,1,1.54,2.19,4.17,4.17,0,0,1,1.62-2.17,4.47,4.47,0,0,1,2.56-.77A4.27,4.27,0,0,1,136.41,234.76Z" transform="translate(0 0.01)"/><path class="cls-18" d="M151.12,239.84H141.9a4,4,0,0,0,1.12,3,3.66,3.66,0,0,0,2.59,1,3.75,3.75,0,0,0,2.32-.7,2.91,2.91,0,0,0,1.14-1.88h2a4.81,4.81,0,0,1-2.81,3.61,6.23,6.23,0,0,1-2.6.53,5.93,5.93,0,0,1-2.94-.71,5,5,0,0,1-2-2,7.19,7.19,0,0,1,0-6.29,5,5,0,0,1,2-2.06,5.94,5.94,0,0,1,2.94-.71,5.81,5.81,0,0,1,2.93.71,4.91,4.91,0,0,1,1.91,1.91,5.38,5.38,0,0,1,.66,2.65A5.72,5.72,0,0,1,151.12,239.84Zm-2.27-3.07a3.07,3.07,0,0,0-1.32-1.28,4,4,0,0,0-1.83-.42,3.78,3.78,0,0,0-2.65,1,3.93,3.93,0,0,0-1.16,2.87h7.37A3.92,3.92,0,0,0,148.86,236.77Z" transform="translate(0 0.01)"/><path class="cls-18" d="M157.28,234.13a4.94,4.94,0,0,1,2.6-.66v2.08h-.59a4.08,4.08,0,0,0-2.65.83,3.32,3.32,0,0,0-1,2.74v6.07h-1.91V233.66h1.91V236A4.24,4.24,0,0,1,157.28,234.13Z" transform="translate(0 0.01)"/><path class="cls-18" d="M168.52,234.53a4.29,4.29,0,0,1,1.44,2.74h-1.83a2.65,2.65,0,0,0-.85-1.69,2.77,2.77,0,0,0-1.94-.66,2.4,2.4,0,0,0-1.61.49,1.66,1.66,0,0,0-.58,1.33,1.38,1.38,0,0,0,.39,1,2.48,2.48,0,0,0,1,.59,15.69,15.69,0,0,0,1.59.43,15.62,15.62,0,0,1,2.07.6,3.24,3.24,0,0,1,1.34,1,2.75,2.75,0,0,1,.56,1.81,2.84,2.84,0,0,1-1.06,2.29,4.28,4.28,0,0,1-2.82.88,5.41,5.41,0,0,1-3.36-1,3.94,3.94,0,0,1-1.53-2.75h1.85a2.41,2.41,0,0,0,.91,1.7,3.3,3.3,0,0,0,2.13.65,2.22,2.22,0,0,0,1.54-.5,1.7,1.7,0,0,0,.56-1.32,1.45,1.45,0,0,0-.4-1.07,2.63,2.63,0,0,0-1-.61,14.45,14.45,0,0,0-1.62-.44,15.75,15.75,0,0,1-2-.59,3.12,3.12,0,0,1-1.3-.93,2.62,2.62,0,0,1-.54-1.73,2.9,2.9,0,0,1,1.07-2.34,4.42,4.42,0,0,1,2.92-.89A4.66,4.66,0,0,1,168.52,234.53Z" transform="translate(0 0.01)"/><path class="cls-18" d="M174,242.94v2.25h-2.31v-2.25Z" transform="translate(0 0.01)"/></svg>