<svg xmlns="http://www.w3.org/2000/svg" viewBox="0 0 765.23 342.03"><defs><style>.cls-1,.cls-16{fill:#fff;}.cls-1{stroke:#00c5db;}.cls-1,.cls-14,.cls-17{stroke-miterlimit:10;}.cls-1,.cls-10,.cls-12,.cls-13,.cls-14,.cls-15,.cls-17,.cls-2,.cls-4,.cls-5,.cls-7,.cls-8{stroke-width:5px;}.cls-11,.cls-2{fill:#9c9c9c;}.cls-10,.cls-14,.cls-15,.cls-17,.cls-2,.cls-4,.cls-5,.cls-7,.cls-8{stroke:#000;}.cls-10,.cls-12,.cls-13,.cls-15,.cls-2,.cls-4,.cls-5,.cls-7,.cls-8{stroke-linecap:round;stroke-linejoin:round;}.cls-3,.cls-7{fill:#d9d9d9;}.cls-5,.cls-9{fill:#129f58;}.cls-6,.cls-8{fill:#46c678;}.cls-10,.cls-12,.cls-14{fill:none;}.cls-12,.cls-13{stroke:#fff;}.cls-15{fill:#090a0a;}.cls-18{fill:#00c5db;}</style></defs><title>Asset 6</title><g id="Layer_2" data-name="Layer 2"><g id="Layer_1-2" data-name="Layer 1"><path class="cls-1" d="M503.4,70a23.8,23.8,0,1,1-16.8,7A23.8,23.8,0,0,1,503.4,70Z"/><path class="cls-1" d="M91.45,272.55a93.19,93.19,0,0,1-57.3-163.07A120.8,120.8,0,0,1,245.29,44a68.84,68.84,0,0,1,83.86,20,68.83,68.83,0,0,1,93.18,24,93.22,93.22,0,0,1-10,184.35q-3.92.34-7.93.34H95.6C94.25,272.65,92.84,272.62,91.45,272.55Z"/><path class="cls-1" d="M557.08,112.47a14.29,14.29,0,1,1-14.29,14.29,14.29,14.29,0,0,1,14.29-14.29Z"/><path class="cls-2" d="M675,161.64c-73.88,1-82.2,108.12-84.28,177.89H747.47C744.78,261.16,754,160.58,675,161.64Z"/><path class="cls-3" d="M643.88,337.74c5.6-34.63,6.75-81,17.92-126.61a15,15,0,0,1,14.8-11.23,15.49,15.49,0,0,1,3,.34c6.11,1.3,8.17,12.8,9.84,23.23,9,56.48,18.21,83.12,22.24,114.27Z"/><path class="cls-2" d="M634.24,165.22C595.89,181.5,584,280.89,577.14,339.53h56.62C643.6,256.48,656.68,208.12,634.24,165.22Z"/><path class="cls-3" d="M589.43,337.74s3.34-21.3,10.86-26.61c8.3-5.86,16.68-7.75,25.84-2.25.48,16.81,0,28.6,0,28.6Z"/><path class="cls-4" d="M634.24,165.22c28.64,49.93,2.23,114.48-.48,174.31-4.82-.3-11.61-.25-15-.28,6.69-93.31,25.58-103,4-170C625.21,168.35,629.13,166.84,634.24,165.22Z"/><path class="cls-2" d="M651.6,225.84c-8.12,39.26-10.12,84.22-13.3,92.72-4.38-5.42-14.5-36.11-10.6-60.06C630.8,239.39,645.38,228.23,651.6,225.84Z"/><path class="cls-2" d="M706.6,163.3c-21.7,53.15,17.27,131.44,19.48,176.11l31.85.12C753.95,268.17,735,167.25,706.6,163.3Z"/><path class="cls-3" d="M729.9,303.18c3.1-4,7.83-5.17,13.11-4.4,8.45,1.23,7.81,19.32,7.54,39l-18.68-.15C729.34,322.11,721.52,314,729.9,303.18Z"/><path class="cls-4" d="M706.6,163.3a99.09,99.09,0,0,1,9.57,3.8c-19.85,47.26,18,120.33,20.77,172.42l-10.86-.12C724.07,295.24,685.71,216.24,706.6,163.3Z"/><path class="cls-2" d="M699.33,259.86c3.18,20.3,5.5,78.46,10.42,78.46,4.43-18.53,24.71-32,12.44-56.23C717.2,272.23,704.87,256,699.33,259.86Z"/><path class="cls-5" d="M665.6,254.37a400.89,400.89,0,0,1,1.29,47.87c-.06,1.9-3.45,4.87-2.39,6.93.79,1.54,4.32-1.21,7.16-1.1,3.39.14,6.18,2.84,7.22,1s-1.23-4.75-1.88-5.9c-8.43-14.87-3.11-37.1,5.21-50.89C678.81,249.13,669.6,250,665.6,254.37Z"/><path class="cls-6" d="M670.13,263.81c.36-3.09.22-4.11,1.1-5.29,1.22-1.63,3.71-2.66,4.68-1.94,1.28.93-.33,4.6-1.58,8.36-1.57,4.75-4.94,15-3.17,24.18,1.61,8.28,7.22,14.86,5.38,16.28-.31.24-.9.27-2.07.33-2.49.13-3.11-.65-4.68-.27s-2.24,1.47-2.62,1.21.17-1.57.55-2.75a31.55,31.55,0,0,0,.82-6.57c.35-4.74-.27-7.6-.27-14.07a114.74,114.74,0,0,1,1-14C669.68,266.14,669.82,266.5,670.13,263.81Z"/><path class="cls-4" d="M699.79,260.24c-11.23,7.57-24.65-.85-26.49,4.83-.8,2.47,1,4.4,7,6.29-5-.11-12.61.58-15.21,1.9-3.85,2-6.08,8,3,10.64-4.94.38-6.62,4.72-5.79,8.39.56,2.49,6.17,4.92,9.59,4.54-2.28,1.14-2.92,3.3-1.14,4.7,4.18,3.28,17.49.94,19.66.3,8.93-2.62,11.55-3.12,24.19-12.33C719.83,278.69,710.36,265.33,699.79,260.24Z"/><path class="cls-7" d="M706.6,163.3c16.78,5.21,31.93,16.89,45.71,39.23,9.45,15.3,14.46,29.63,6.36,48.28-17.77,40.91-31.83,47.11-48.89,87.51C720.14,305,717,274.4,699.36,259.86c12.16-9,20-18,26.91-30.72-6.36-5.76-8.68-9.6-8.68-20.57"/><path class="cls-8" d="M675.72,257c-2-1.84-.29-10.45,5.29-15.13,8.39-7,15.33,0,25.56-5.62C708.6,240.84,696.44,261.6,675.72,257Z"/><path class="cls-9" d="M676,256.46c7.29-12.52,22.38-8.87,29.81-19.11a.51.51,0,0,1,.93.28c-.16,6.24-11.69,23.22-30.41,19.54a.48.48,0,0,1-.33-.71Z"/><path class="cls-4" d="M643.69,232.61c7.36-6.55,18.92-8,25.65-7.64,2.94.17,4.94,3,3.34,5.3a21.05,21.05,0,0,1-1.36,1.75c15.91,3.7,10.15,11.22,7.11,14.64.76,2.28-.41,5.55-1.14,7.22s-3,2.66-5.32,3c-2.28,14.07-19.71,11.28-35.07,4.09C631.6,254.81,635,240.38,643.69,232.61Z"/><path class="cls-7" d="M634.24,165.22c-4.75,1.2-37.33,12-58.62,35.06a29.71,29.71,0,0,0-5.11,33.45c11.9,24,45,51.37,67.77,84.84-12.92-22-.58-68.58,13.3-92.72-9,0-16.2-1.92-32.11-4.94,2.31-5.21-4.34-11-9.84-13.17"/><path class="cls-10" d="M675.72,257c7-11.52,14.83-9.66,21.13-13.14"/><path class="cls-5" d="M665.1,314.81c1.16-3.08,12.61-3.32,14-.18.54,1.23-.61,2.68-1.72,4.12a2.7,2.7,0,0,0-.56,1.41c-.61,6.54-.94,12.94-1.34,19.37H665.07c.47-6.61.89-12.39,1.54-18.69a5.57,5.57,0,0,0-.91-3.73A2.56,2.56,0,0,1,665.1,314.81Z"/><path class="cls-6" d="M667.68,314.79A4.47,4.47,0,0,1,670,314c2.8-.28,4.87-.49,5.73.67s.19,2.66,0,3.23c-1.66,5-1.87,12.51-2,19.85l-6.52-.28c1-8.46,2-17.16.42-19.31-.17-.23-1.06-1.36-.73-2.35A2.15,2.15,0,0,1,667.68,314.79Z"/><path class="cls-4" d="M619.94,170.45c3.9-1.62,8.81-3.47,14.3-5.23,2.41,4.56,2.41,4.56,4.46,9.09-1.61,3.17-9.07,6.36-12.54,6.17C623.72,174.93,622.93,174.57,619.94,170.45Z"/><path class="cls-4" d="M706.6,163.3a95,95,0,0,1,9.57,3.8c-2.1,5.76-2.5,7.08-4.82,18.09-3.2.63-8-1.61-9.61-3.47A116.43,116.43,0,0,1,706.6,163.3Z"/><path class="cls-10" d="M675.72,257"/><path class="cls-10" d="M706.6,236.27"/><path class="cls-11" d="M619.48,220.91c-5.79.19-10.62-2.24-14-2.8a78.21,78.21,0,0,1-11.63-2.64c-13.5-3.8.76-5.62,2.28-5.84,2.74-.38,4.61.27,5.26-.38.5-.5-.61-1.65-1.14-4.21-.35-1.64-.73-3.35.09-4.66,1.45-2.32,5.78-2.08,6.94-2,3.13.17,13.38,4,14.66,4.94"/><path class="cls-10" d="M619.48,220.91a12.14,12.14,0,0,0,.08-5.54c-1.77-7.83-11.14-10.9-12-11.16"/><path class="cls-10" d="M619.48,220.91c-5.76-.6-12-2.57-17.9-3.58"/><path class="cls-11" d="M568.31,217.33a107.66,107.66,0,0,0,14.75,19c7,7.32,14.83,15.59,27.2,20.57A120,120,0,0,0,636,264c-3.54,15.82-5.84,31.37-1,48.69-9.37-12.84-28.32-33.45-42.09-49.29-7.71-8.87-13.77-16.51-15.67-19.84C568.4,231.64,567.16,222,568.31,217.33Z"/><path class="cls-10" d="M595.6,253.77a68.46,68.46,0,0,0,8.4,5.76,71.36,71.36,0,0,0,19.24,7.68"/><path class="cls-11" d="M716.39,229.77c.07,0-3.06-29.93-2.8-30.1.76-.49-2-5.15,2.31-1.46,1.87,1.59,4.64,2.8,6.08,5.45,1.63,3,.64,4.66,2.51,6.77,2.61,2.93,6.24,1.6,8.29,4.21s.59,6.79.38,7.32c-1.57,4.09-7.84,8.36-7.08,7"/><path class="cls-10" d="M725.94,229.77c1-2.23,3.39-5.76,3.08-9.6"/><path class="cls-10" d="M724.1,212.76a37.07,37.07,0,0,0-.38,9.94c.23,2.43,1.64,5.21,2.2,6.79"/><path class="cls-10" d="M715.85,203.64a32.2,32.2,0,0,0,1.59,14.83c2.66,7.39,6.18,9.5,8.18,11.78"/><path class="cls-11" d="M714.18,283.63S756,251.78,762,230.25c1.74,14.34-10,33-12.34,37.63-1,2.37-5.17,9.68-11,18.63-8.2,12.6-19.26,28.94-26,43.63C715,321.59,718.72,302,714.18,283.63Z"/><path class="cls-10" d="M722.36,285.23a71.9,71.9,0,0,0,10.9-9,69.47,69.47,0,0,0,10-12.89"/><path class="cls-10" d="M675.74,257.52c-2-1.84-.29-10.45,5.29-15.13,8.39-7,15.33,0,25.56-5.62C708.6,241.33,696.46,262.09,675.74,257.52Z"/><path class="cls-10" d="M634.24,165c-4.75,1.2-37.33,12-58.62,35.06a29.71,29.71,0,0,0-5.11,33.45c11.9,24,45,51.37,67.77,84.84-12.92-22-.58-68.58,13.3-92.72-9,0-25-2.66-32.09-4.65"/><path class="cls-10" d="M717.6,208"/><path class="cls-10" d="M706.6,162.77c16.78,5.21,31.93,16.89,45.71,39.23,9.45,15.3,14.46,29.63,6.36,48.28-17.77,40.93-31.82,47.09-48.88,87.51,10.36-33.33,7.22-63.92-10.42-78.46,12.16-9,20-18,26.91-30.72"/><path class="cls-12" d="M665.88,283.54a36.82,36.82,0,0,0,4.94.38,49.82,49.82,0,0,0,9.12-.76"/><path class="cls-13" d="M670.82,297.22c2.28.76,10.71-1.78,11.41-2.28"/><path class="cls-13" d="M678,247c-1.06.38-5.32,1.9-9.12,1.14"/><path class="cls-13" d="M671.6,258a42.4,42.4,0,0,1-8,1.14"/><path class="cls-10" d="M653.43,171.45"/><path class="cls-10" d="M652.67,175.63"/><path class="cls-10" d="M654.6,171.45"/><path class="cls-14" d="M727.41,139.63"/><path class="cls-15" d="M614,120c-6.51-2.91-8-7.94-7.39-8.74,0,0,4.22,1.84,5.09,1,2-2-17.35-7.74-16.51-24.74.43-8.78,5.26-17.82,8.64-20.91.29-.27.49-3.63,1.47-4.77.5-.58,2.78,1.52,2.74,1a4.4,4.4,0,0,1,2.71-4.71c.85-.3.68,3.89,3,4.66.33-1.43.79-2.37,1.85-2.84,1.47,1.54.46,1.68,2.46,3,4.32,2.1,11.32,8.85,18.83,14.56,10,1.34,24-9.45,30-7.88a.72.72,0,0,1,.5.89h0a.1.1,0,0,1,0,.05c-.79,2.3-4.94,4.65-4.94,4.65,1.6,3,12-9.12,25.7-4.88.33.79-6.64,3.66-6.2,5.3,7.78.91,10.32.89,12.68,0,5.88-3.06,8.51-14.64,17.24-16.38,1.57-1.7,2.83-3.2,3.62-2.91s.14,2.28,1.09,2.28c.46,0,1.79-2.11,2.26-3.61,3.77.17,2.83,5.13,3.32,5.12.71,0,1.45-1.61,1.66-1.76.79,0,1.52,2.7,2,5.85,7.78,9.21,19.24,27.43-2.14,42.09-.11,2.84,4,.43,6.46,0-1.14,6-8.4,10.68-8.48,12.08"/><path class="cls-7" d="M594.49,153.59c6.87-5.41,12.29-12.24,17.17-26.92,5.7-17.13,16.62-49.19,55.27-49.19,46.69,0,50.51,25,60.48,61.37,2.66,9.65,7.89,12.91,14.21,13.19a6.41,6.41,0,0,1-5.4,3.35c1.52,3,2.12,4.63.79,7.49-.79-2.86-4.28-4.45-4.28-4.45-.83,9.54-9.48,14.17-22.81,21.84-2.28,1.32-17.82,16.89-36.11,16.9-26.36,0-40.14-13.78-44-16.37-7.38-4.31-18.47-5.16-27.66-18.83-1.52.52-2.44.33-5,2.42-.86-1.12-.11-4.63,2.88-7.72C596.93,156.68,594.49,155,594.49,153.59Z"/><path class="cls-16" d="M606.2,158.11c-1.31-.4-2.21-3.27-1.47-6.87a9.35,9.35,0,0,1,2-4c5.64-6.91,7.34-10.89,10-18,.54-1.43,1.17-2.82,1.83-4.18a31.05,31.05,0,0,0,1.34-3.16c3.86-10.45,6.39-17.42,10.26-21.82,7.32-6,12.48-4.15,12.07-5.08-1.29-2.46-6.31-3-6.31-3,1.19-3.34,15.56-.4,19.72-1.54-1.94-2.46-4.74-3.12-4.09-4.52a45.7,45.7,0,0,0,18.39,3.42,64,64,0,0,0,15.62-2.76c.59,1.06-1.52,2.66-2.22,4.63,3.54,2.07,17.32-1.11,17.94.88,0,0-4,1.52-4.64,3a56,56,0,0,1,8.21,3.12A14.07,14.07,0,0,1,711,104c4.28,7.68,2.69,18.52,11,35.14,3.7,7.39,9.5,12.64,8.31,15.55,0,0-2.92-2.83-5.65-3.31-.08,2,2.28,7.64,1.33,8.16a11.11,11.11,0,0,0-3.21-1.87,13.44,13.44,0,0,1-1.33,6.73c-1.52,2.86-10.23,9.31-18.39,9.75a10.26,10.26,0,0,0-6.3,2.45c-3,2.61-7.7,4.09-11.2,1.48-.5-.38,3.09-.67,4.94-1.94-1.36-1.38,1-1.19.4-1.61,2.11-2.26-2.17.15-2.22-1.56-15,5.78-19.91-13-19.91-13s-4.85,23.26-22,8.15c.09,1.2,1.52,4.31,1.11,4.88-1.52-.66-2.63.67-3.57,1.77,3.8.22,7.63,1.94,6.91,2.44-8.28,5.73-6.91-.69-16.11-3.88-7.83-2.72-11.31-2.87-15.13-4.39a9.92,9.92,0,0,1-6.36-8.28v-.84c-1.1-.22-2,.83-2.88,2.31-.92-.38-.17-6.37.67-8.27C607.5,154.1,606.5,157.95,606.2,158.11Z"/><path class="cls-14" d="M741.6,152a6.41,6.41,0,0,1-5.4,3.35"/><path class="cls-14" d="M727.41,138.87"/><path class="cls-10" d="M664.27,74.51"/><path class="cls-10" d="M667.6,69.71"/><path class="cls-10" d="M636.91,77.38"/><path class="cls-3" d="M631.72,149.75c-.29-2.14.24-2.58,1-2.8.69,2.06,3.28,5.76,6.08,6,1.25-3.78,11.48-6.88,12.86-7.26.41.6-.9,2.22-.76,2.33,4.52.27,8.8-10,10.52-11.49,1.65.88,4.94,10.21-.87,16.5,3.31,4.87,13.93,4.84,16.87.23-5.15-7.73-3-15.59-1.61-16.38,1.52.58,6.61,9.82,11.46,12.66-.66-1.9-.43-2.45.11-2.8,1.32,1.55,8.07,9.55,12.49,10.72,3.75-2.27,5.52-8,6.68-7.47.71.29.69,2.21.55,3.26,1.64-.74,7.93-7.14,7.88-15.72,0-10.68-10.93-19.94-20.37-20.38a28.29,28.29,0,0,0-18.14,5.2c-1.57-3,2.37-7.77,2.37-7.77-.76-.71-3.76-.38-6.54,2.14,0-1.67-2.36-6.84-3.54-6.68s-2.44,3.77-3.36,6.91c-.62.47-2.66-3.57-6.46-2.33,2.23,2.72,4,6.44,3,7.88-3.14-2.41-6.9-4.18-13.91-4.77-10.62-.89-23.29,7.11-24.78,16.7C621.93,142.92,630.21,150.39,631.72,149.75Z"/><path class="cls-17" d="M676.15,126a9,9,0,0,0,.28,4.56c.84,2.41,2.39,3.25,5.22,6.35,6.08,6.68,9.12,10,13.6,10,4.88,0,9.5-3.63,11.54-8a13.39,13.39,0,0,0,1.14-8.68c-1-4.23-4.08-7.88-7.71-10.31-5.76-3.84-13-5.95-16.73-4.5C679.5,117.34,677,121.31,676.15,126Z"/><path class="cls-17" d="M669.44,168.92c-.43,0,.43-5.79-2.5-9.12-.92-1-1.82-1.74-5.49-3.25-2.68-1.1-5.8-2.33-6.18-4.41-.24-4.27,6.66-5.93,13.46-6.15s14.07,1.34,14.07,5.47c0,2.15-2.13,2.73-5.29,4.38-2.61,1.36-4.2,1.88-5.7,3.52C668.71,162.75,669.88,168.93,669.44,168.92Z"/><path class="cls-16" d="M661.41,148.85c-.06-.53,3.19-1.74,7.6-1.74,4.94,0,7.8,1,7.75,1.57C676.73,149.72,661.54,149.87,661.41,148.85Z"/><path class="cls-17" d="M661.89,126a9,9,0,0,1-.28,4.56c-.84,2.41-2.39,3.25-5.22,6.35-6.08,6.68-9.12,10-13.6,10-4.88,0-9.5-3.63-11.54-8a13.39,13.39,0,0,1-1.14-8.68c1-4.23,4.08-7.88,7.71-10.31,5.76-3.84,13-5.95,16.73-4.5C658.53,117.34,661,121.31,661.89,126Z"/><path class="cls-3" d="M689.6,153.29c.26-.48,4,.88,6.91,2.66a9.41,9.41,0,0,1,3.5,3.23c2.1,3.77,2.25,9.59,2.23,9.32-.22-2.89-2.9-8.88-4.91-9.77.16,1,4,4.44-1.27,20.53-.07.12,2.83-15.35-1.56-21.76C692.6,154.71,689.35,153.74,689.6,153.29Z"/><path class="cls-3" d="M648.21,153.29c-.26-.48-4,.88-6.91,2.66a9.41,9.41,0,0,0-3.5,3.23c-2.1,3.77-2.25,9.59-2.23,9.32.22-2.89,2.9-8.88,4.91-9.77-.16,1-4,4.44,1.27,20.53.07.12-2.83-15.35,1.56-21.76C645.23,154.71,648.44,153.74,648.21,153.29Z"/><path class="cls-10" d="M644.7,158.31A14.76,14.76,0,0,0,648,169.15c3.72,5.85,10.32,6.08,14.4,4.74a16,16,0,0,0,6.76-4.41"/><path class="cls-10" d="M694.43,160.09c0,11.78-9.36,14.16-9.69,14.23a16.17,16.17,0,0,1-8.59-.43,15.74,15.74,0,0,1-6.7-4.92"/><path class="cls-7" d="M677,114.52c-.35-.43-1.72-2.14-1.56-3.88.41-4.23,9.75-4.85,11.58-5,15.13-1,22.52,11.23,39.53,17.21,18.35,6.46,32.34.14,32.58,1.66s-11.68,4.44-27.42,4.28c-16.8-2-19.64-4.94-30.94-10.07A20,20,0,0,0,689,117C684.6,117.85,679.92,118.14,677,114.52Z"/><path class="cls-7" d="M659.6,163.85c-.06-2-2.24-3.42-2.83-3.8-5.34-3.45-14.09,0-23.93,6.12-19.11,11.91-26,15.89-28,16.73a78.53,78.53,0,0,1-41.07,4.47c-11.33-1.26-19.35-4.91-19.44-4.63s11.23,5.9,26.25,7.78c15.65,2,27.9-1,35.56-3,4.56-1.14,25.12-10.91,28.58-12.61C649.6,167.57,659.74,167.71,659.6,163.85Z"/><path class="cls-16" d="M655.18,162.08a4.36,4.36,0,0,0-3.12-1.55,20.78,20.78,0,0,0-8.92,1.55,71.9,71.9,0,0,0-13.38,8.22A152.81,152.81,0,0,1,614.82,180a80.33,80.33,0,0,1-14.49,6.22,58.86,58.86,0,0,1-20.62,2.94c0,.2,7.32.56,16.7-1.08a67.43,67.43,0,0,0,17.52-5.86c4.15-1.77,7.14-4,13.16-7.32a114.08,114.08,0,0,1,11.82-6.66A43.61,43.61,0,0,1,646,165.6a26.69,26.69,0,0,1,6.24-.67c1.72-.18,2.36.06,3.12-.89C655.94,163.42,655.7,162.8,655.18,162.08Z"/><path class="cls-7" d="M680.22,183c-2.58-3.33-2.94-3.61-3.63-4a9.58,9.58,0,0,0-9.66.72c-2,1.45-1.78,2.77-4.15,4.09-1.81,1-3,.84-4.65,1.31-3.42,1-5.44,3.65-7.14,5.9-5,6.65-7.66,17.46-8.31,19.84-3.08,11.53-11.48,18.74-19.08,25.3C603.19,253.74,570,257.95,548,247.5c-5.66-2.69-12.6-7.3-13.14-6.56s7.11,8,14.12,12.63c20.32,13.25,52.7,16,76.76,3.12,12.76-6.84,21.89-17.35,23.59-15.75,1,1-1.41,5.7-4.49,9-6.23,6.76-15,7.78-14.79,8.36s5.7.31,12.29-2.28c7.26-2.88,11.81-7.2,18.11-13.28,5.53-5.34,8.83-8.54,12.46-13.94,4.15-6.18,7.6-11,11.38-22.14,3.45-10.23,2.15-14.86.41-17.71C684.4,188.46,683,186.66,680.22,183Z"/><path class="cls-16" d="M663,187c-.52-.73-3.66.26-4.24.45a7.85,7.85,0,0,0-4.61,3.26c-4.37,5.84-8.12,17.53-11,23.8-3.27,7.22-6.75,12.8-9.62,16a70.07,70.07,0,0,1-23,17.11c-5.46,2.5-25.61,13.3-48.17,7.11A150.81,150.81,0,0,1,547.92,250s2.58,1.48,10.48,5.11a106.61,106.61,0,0,0,14,4.84c20.1,5.41,39.35-.49,41.37-1.14a78.18,78.18,0,0,0,31.07-19.43c11.2-11.5,16-24,17.44-23.32,1.26.57-.51,10.18-1.29,12.39-1.87,5.23-2.43,8.3-7.13,14-4,4.8-7.32,8.66-7.13,8.88s2.92-2.84,9.09-8.39c5.25-4.72,8.61-9.26,15.12-18.14,8.56-11.68,10.2-15.68,11.13-18.78a33,33,0,0,0,.67-13.11c-.24-1.58-.67-4.25-1.66-4.37-.43,0-1.44.32-3.49,6-3.84,10.64-3.72,18.76-4.65,18.78-.71,0-1.62-4.65-2-9.55-.74-9.8,5.38-22.36,4.11-22.81-1.64-.59-10.26,7.6-13.75,21.36-1.77,7-2.69,7.91-5,13.11-5.16,11.67-13.34,19.26-13.78,19s3-4.6,8.47-14.9c4.88-9.15,5-20,6-23.15C658.69,190.59,663.83,188.14,663,187Z"/><path class="cls-7" d="M678,161.87c.7-2.14,4.07-2.73,4.65-2.81a9.79,9.79,0,0,1,6.46,1.49c1.74,1,5.11,3.53,7.81,11.41,1.31,3.83,4.28,12.58,2,22.18-5.26,22.1-33.9,29.73-39,31.1-13.73,3.66-23.59,1.19-25.59.66-6.21-1.65-11.78-4.69-11.63-5.13s5.66,2,13.3,3a56,56,0,0,0,20.44-1c12.65-3.17,20.82-9.3,22.76-11.17,4.28-4.07,9.86-10,11.39-17.94.46-2.43,1.69-10.15-2-16.3A75,75,0,0,0,680,166.85C678.72,165.44,677.52,163.53,678,161.87Z"/><path class="cls-16" d="M681.27,163.42a2.34,2.34,0,0,1,0-1.33c.67-1.77,3.39-1.27,5.8,0,7.58,4,11.9,16.13,10.7,26.2a37.79,37.79,0,0,1-12,23.13,43.32,43.32,0,0,1-8.64,5.54c-12.46,6.69-23.19,8-23.26,7.78s14.16-1.25,26.83-11.41c3.65-2.93,9.61-7.25,11.92-14.83,1.94-6.32,2.28-12.42,1.56-16.43-1.1-6.08-2.55-9.66-5.13-12.21C685.79,166.61,681.87,167,681.27,163.42Z"/><path class="cls-7" d="M661.16,114.52c.35-.43,1.72-2.14,1.56-3.88-.42-4.24-9.76-4.88-11.58-5-15.13-1-22.52,11.23-39.53,17.21-18.35,6.46-32.34.14-32.58,1.66s11.7,4.43,27.44,4.28c16.8-2,19.64-4.94,30.94-10.07a20,20,0,0,1,11.72-1.66C653.55,117.85,658.21,118.14,661.16,114.52Z"/><path class="cls-16" d="M658.75,109.24a17.41,17.41,0,0,0-8.92-1.33c-9.88.76-13.35,3.1-23.86,9.55-12.16,7.47-17.36,8.09-22.74,8.88a41.35,41.35,0,0,1-8.47.22,49.58,49.58,0,0,0,18.52-1.11c3.9-1,8.48-2.78,17.66-6.89,15.34-6.88,18.89-5.09,23.37-5.1,4,0,4.94.48,5.57-.8A2.33,2.33,0,0,0,658.75,109.24Z"/><path class="cls-16" d="M679.6,109.24a17.41,17.41,0,0,1,8.92-1.33c9.88.76,13.35,3.1,23.86,9.55,12.16,7.47,17.66,8.31,23,9.1a33.73,33.73,0,0,0,8.16.11c.09.56-8.16,1.46-18.19-1-3.9-1-8.74-3-18-7.11-15.34-6.88-18.89-5.09-23.37-5.1-4,0-4.94.48-5.57-.8A2.36,2.36,0,0,1,679.6,109.24Z"/><path class="cls-16" d="M654.77,129.46a2.32,2.32,0,0,1-1.29,2.42c-1.66.81-4.72,2.26-8.36,3.76-2,.84-2.58-1.52-2.4-4s4.69-6.12,9.12-5.81C653.6,126,654.48,127.62,654.77,129.46Z"/><path class="cls-16" d="M683,129.16a2.6,2.6,0,0,0,1.43,2.81c1.7.83,4.66,2.22,8.17,3.66,2,.84,2.58-1.52,2.4-4s-4.69-6.12-9.12-5.81C684.23,126,683.3,127.45,683,129.16Z"/><path class="cls-15" d="M614,119.61c-6.51-2.91-8-7.94-7.39-8.74,0,0,4.22,1.84,5.09,1,2-2-17.35-7.74-16.51-24.74.43-8.78,5.26-17.82,8.64-20.91.29-.27.49-3.63,1.47-4.77.5-.58,2.78,1.52,2.74,1a4.4,4.4,0,0,1,2.71-4.71c.85-.3.68,3.89,3,4.66.33-1.43.79-2.37,1.85-2.84,1.47,1.54.46,1.68,2.46,3,4.32,2.1,11.32,8.85,18.83,14.56,10,1.34,24-9.45,30-7.88a.72.72,0,0,1,.5.89h0a.1.1,0,0,1,0,.05c-.79,2.3-4.94,4.65-4.94,4.65,1.6,3,12-9.12,25.7-4.88.33.79-6.64,3.66-6.2,5.3,7.78.91,10.32.89,12.68,0,5.88-3.06,8.51-14.64,17.24-16.38,1.57-1.7,2.83-3.2,3.62-2.91s.14,2.28,1.09,2.28c.46,0,1.79-2.11,2.26-3.61,3.77.17,2.83,5.13,3.32,5.12.71,0,1.45-1.61,1.66-1.76.79,0,1.52,2.7,2,5.85,7.78,9.21,19.24,27.43-2.14,42.09-.11,2.84,4,.43,6.46,0-1.14,6-8.4,10.68-8.48,12.08"/><path class="cls-7" d="M594.49,153.21c6.87-5.41,12.29-12.24,17.17-26.92,5.7-17.13,16.62-49.19,55.27-49.19,46.69,0,50.51,25,60.48,61.37,2.66,9.65,7.89,12.91,14.21,13.19a6.41,6.41,0,0,1-5.4,3.35c1.52,3,2.12,4.63.79,7.49-.79-2.86-4.28-4.45-4.28-4.45-.83,9.54-9.48,14.17-22.81,21.84-2.28,1.32-17.82,16.89-36.11,16.9-26.36,0-40.14-13.78-44-16.37-7.38-4.31-18.47-5.16-27.66-18.83-1.52.52-2.44.33-5,2.42-.86-1.12-.11-4.63,2.88-7.72C596.93,156.31,594.49,154.65,594.49,153.21Z"/><path class="cls-16" d="M606.2,157.73c-1.31-.4-2.21-3.27-1.47-6.87a9.35,9.35,0,0,1,2-4c5.64-6.91,7.34-10.89,10-18,.54-1.43,1.17-2.82,1.83-4.18a31.05,31.05,0,0,0,1.34-3.16c3.86-10.45,6.39-17.42,10.26-21.82,7.32-6,12.48-4.15,12.07-5.08-1.29-2.46-6.31-3-6.31-3,1.19-3.34,15.56-.4,19.72-1.54-1.94-2.46-4.74-3.12-4.09-4.52A45.7,45.7,0,0,0,669.92,89a64,64,0,0,0,15.62-2.76c.59,1.06-1.52,2.66-2.22,4.63,3.54,2.07,17.32-1.11,17.94.88,0,0-4,1.52-4.64,3a56,56,0,0,1,8.21,3.12,14.07,14.07,0,0,1,6.13,5.73c4.28,7.68,2.69,18.52,11,35.14,3.7,7.39,9.5,12.64,8.31,15.55,0,0-2.92-2.83-5.65-3.31-.08,2,2.28,7.64,1.33,8.16a11.11,11.11,0,0,0-3.21-1.87,13.44,13.44,0,0,1-1.33,6.73c-1.52,2.86-10.23,9.31-18.39,9.75a10.26,10.26,0,0,0-6.3,2.45c-3,2.61-7.7,4.09-11.2,1.48-.5-.38,3.09-.67,4.94-1.94-1.36-1.38,1-1.19.4-1.61,2.11-2.26-2.17.15-2.22-1.56-15,5.78-19.91-13-19.91-13s-4.85,23.26-22,8.15c.09,1.2,1.52,4.31,1.11,4.88-1.52-.66-2.63.67-3.57,1.77,3.8.22,7.63,1.94,6.91,2.44-8.28,5.73-6.91-.69-16.11-3.88-7.83-2.72-11.31-2.87-15.13-4.39a9.92,9.92,0,0,1-6.31-8.34v-.84c-1.1-.22-2,.83-2.88,2.31-.92-.38-.17-6.37.67-8.27C607.5,153.72,606.5,157.56,606.2,157.73Z"/><path class="cls-14" d="M741.6,151.69a6.41,6.41,0,0,1-5.4,3.35"/><path class="cls-14" d="M727.41,138.49"/><path class="cls-10" d="M664.27,74.13"/><path class="cls-10" d="M667.6,69.33"/><path class="cls-10" d="M636.91,77"/><path class="cls-3" d="M631.72,149.38c-.29-2.14.24-2.58,1-2.8.69,2.06,3.28,5.76,6.08,6,1.25-3.78,11.48-6.88,12.86-7.26.41.6-.9,2.22-.76,2.33,4.52.27,8.8-10,10.52-11.49,1.65.88,4.94,10.21-.87,16.5,3.31,4.87,13.93,4.84,16.87.23-5.15-7.73-3-15.59-1.61-16.38,1.52.58,6.61,9.82,11.46,12.66-.66-1.9-.43-2.45.11-2.8,1.32,1.55,8.07,9.55,12.49,10.72,3.75-2.27,5.52-8,6.68-7.47.71.29.69,2.21.55,3.26,1.64-.74,7.93-7.14,7.88-15.72,0-10.68-10.93-19.94-20.37-20.38a28.29,28.29,0,0,0-18.14,5.2c-1.57-3,2.37-7.77,2.37-7.77-.76-.71-3.76-.38-6.54,2.14,0-1.67-2.36-6.84-3.54-6.68s-2.44,3.77-3.36,6.91c-.62.47-2.66-3.57-6.46-2.33,2.23,2.72,4,6.44,3,7.88-3.14-2.41-6.9-4.18-13.91-4.77-10.62-.89-23.29,7.11-24.78,16.7C621.93,142.55,630.21,150,631.72,149.38Z"/><path class="cls-17" d="M676.15,125.58a9,9,0,0,0,.28,4.56c.84,2.41,2.39,3.25,5.22,6.35,6.08,6.68,9.12,10,13.6,10,4.88,0,9.5-3.63,11.54-8a13.39,13.39,0,0,0,1.14-8.68c-1-4.23-4.08-7.88-7.71-10.31-5.76-3.84-13-5.95-16.73-4.5C679.5,117,677,120.92,676.15,125.58Z"/><path class="cls-17" d="M669.44,168.54c-.43,0,.43-5.79-2.5-9.12-.92-1-1.82-1.74-5.49-3.25-2.68-1.1-5.8-2.33-6.18-4.41-.24-4.27,6.66-5.93,13.46-6.15s14.07,1.34,14.07,5.47c0,2.15-2.13,2.73-5.29,4.38-2.61,1.36-4.2,1.88-5.7,3.52C668.71,162.37,669.88,168.54,669.44,168.54Z"/><path class="cls-16" d="M661.41,148.47c-.06-.53,3.19-1.74,7.6-1.74,4.94,0,7.8,1,7.75,1.57C676.73,149.34,661.54,149.49,661.41,148.47Z"/><path class="cls-17" d="M661.89,125.58a9,9,0,0,1-.28,4.56c-.84,2.41-2.39,3.25-5.22,6.35-6.08,6.68-9.12,10-13.6,10-4.88,0-9.5-3.63-11.54-8a13.39,13.39,0,0,1-1.14-8.68c1-4.23,4.08-7.88,7.71-10.31,5.76-3.83,13-5.93,16.74-4.49C658.53,117,661,120.92,661.89,125.58Z"/><path class="cls-3" d="M689.6,152.91c.26-.48,4,.88,6.91,2.66a9.41,9.41,0,0,1,3.5,3.23c2.1,3.77,2.25,9.59,2.23,9.32-.22-2.89-2.9-8.88-4.91-9.77.16,1,4,4.44-1.27,20.53-.07.12,2.83-15.35-1.56-21.76C692.6,154.33,689.35,153.36,689.6,152.91Z"/><path class="cls-3" d="M648.21,152.91c-.26-.48-4,.88-6.91,2.66a9.41,9.41,0,0,0-3.5,3.23c-2.1,3.77-2.25,9.59-2.23,9.32.22-2.89,2.9-8.88,4.91-9.77-.16,1-4,4.44,1.27,20.53.07.12-2.83-15.35,1.56-21.76C645.23,154.33,648.44,153.36,648.21,152.91Z"/><path class="cls-10" d="M644.7,157.94A14.76,14.76,0,0,0,648,168.78c3.72,5.85,10.32,6.08,14.4,4.74a16,16,0,0,0,6.76-4.41"/><path class="cls-10" d="M694.43,159.71c0,11.78-9.36,14.16-9.69,14.23a16.17,16.17,0,0,1-8.59-.43,15.74,15.74,0,0,1-6.7-4.92"/><path class="cls-7" d="M677,114.14c-.35-.43-1.72-2.14-1.56-3.88.41-4.23,9.75-4.85,11.58-5,15.13-1,22.52,11.23,39.53,17.21,18.35,6.46,32.34.14,32.58,1.66s-11.68,4.44-27.42,4.28c-16.8-2-19.64-4.94-30.94-10.07A20,20,0,0,0,689,116.67C684.6,117.47,679.92,117.76,677,114.14Z"/><path class="cls-7" d="M659.6,163.47c-.06-2-2.24-3.42-2.83-3.8-5.34-3.45-14.09,0-23.93,6.12-19.1,11.91-26,15.89-28,16.73a78.53,78.53,0,0,1-41.09,4.5c-11.33-1.26-19.35-4.91-19.44-4.63s11.23,5.9,26.25,7.78c15.65,2,27.9-1,35.56-3,4.56-1.14,25.12-10.91,28.58-12.61C649.6,167.19,659.74,167.33,659.6,163.47Z"/><path class="cls-16" d="M655.18,161.71a4.36,4.36,0,0,0-3.12-1.55,20.78,20.78,0,0,0-8.92,1.55,71.9,71.9,0,0,0-13.38,8.22,152.8,152.8,0,0,1-14.94,9.77,80.33,80.33,0,0,1-14.49,6.22,58.86,58.86,0,0,1-20.62,2.94c0,.2,7.32.56,16.7-1.08a67.43,67.43,0,0,0,17.52-5.86c4.15-1.77,7.14-4,13.16-7.32a114.08,114.08,0,0,1,11.82-6.66,43.61,43.61,0,0,1,7.13-2.66,26.69,26.69,0,0,1,6.24-.67c1.72-.18,2.36.06,3.12-.89C655.94,163,655.7,162.42,655.18,161.71Z"/><path class="cls-7" d="M680.22,182.68c-2.58-3.33-2.94-3.61-3.63-4a9.58,9.58,0,0,0-9.66.72c-2,1.45-1.78,2.77-4.15,4.09-1.81,1-3,.84-4.65,1.31-3.42,1-5.44,3.65-7.14,5.9-5,6.65-7.66,17.46-8.31,19.84C639.6,222,631.2,229.24,623.6,235.8,603.19,253.36,570,257.57,548,247.12c-5.66-2.69-12.6-7.3-13.14-6.56s7.11,8,14.12,12.63c20.32,13.25,52.7,16,76.76,3.12,12.76-6.84,21.89-17.35,23.59-15.75,1,1-1.41,5.7-4.49,9-6.23,6.76-15,7.78-14.79,8.36s5.7.31,12.29-2.28c7.26-2.88,11.81-7.2,18.11-13.28,5.53-5.34,8.83-8.54,12.46-13.94,4.15-6.18,7.6-11,11.38-22.14,3.45-10.23,2.15-14.86.41-17.71C684.4,188.08,683,186.28,680.22,182.68Z"/><path class="cls-16" d="M663,186.58c-.52-.73-3.66.26-4.24.45a7.85,7.85,0,0,0-4.61,3.26c-4.37,5.84-8.12,17.53-11,23.8-3.27,7.22-6.75,12.8-9.62,16a70.07,70.07,0,0,1-23,17.11c-5.46,2.5-25.61,13.3-48.17,7.11a150.81,150.81,0,0,1-14.49-4.66s2.58,1.48,10.48,5.11a106.61,106.61,0,0,0,14,4.84c20.1,5.41,39.35-.49,41.37-1.14A78.18,78.18,0,0,0,644.84,239c11.2-11.5,16-24,17.44-23.32,1.26.57-.51,10.18-1.29,12.39-1.87,5.23-2.43,8.3-7.13,14-4,4.8-7.32,8.66-7.13,8.88s2.92-2.84,9.09-8.39c5.25-4.72,8.61-9.26,15.12-18.14,8.56-11.68,10.2-15.68,11.13-18.78a33,33,0,0,0,.67-13.11c-.24-1.58-.67-4.25-1.66-4.37-.43,0-1.44.32-3.49,6-3.84,10.64-3.72,18.76-4.65,18.78-.71,0-1.62-4.65-2-9.55-.74-9.8,5.38-22.36,4.11-22.81-1.64-.59-10.26,7.6-13.75,21.36-1.77,7-2.69,7.91-5,13.11-5.16,11.67-13.34,19.26-13.78,19s3-4.6,8.47-14.9c4.88-9.15,5-20,6-23.15C658.69,190.2,663.83,187.76,663,186.58Z"/><path class="cls-7" d="M678,161.49c.7-2.14,4.07-2.73,4.65-2.81a9.79,9.79,0,0,1,6.46,1.49c1.74,1,5.11,3.53,7.81,11.41,1.31,3.83,4.28,12.58,2,22.18-5.26,22.1-33.9,29.73-39,31.1-13.73,3.66-23.59,1.19-25.59.66-6.21-1.65-11.78-4.69-11.63-5.13s5.66,2,13.3,3a56,56,0,0,0,20.44-1c12.65-3.17,20.82-9.3,22.76-11.17,4.28-4.07,9.86-10,11.39-17.94.46-2.43,1.69-10.15-2-16.3A75,75,0,0,0,680,166.47C678.72,165,677.52,163.16,678,161.49Z"/><path class="cls-16" d="M681.27,163a2.34,2.34,0,0,1,0-1.33c.67-1.77,3.39-1.27,5.8,0,7.58,4,11.9,16.13,10.7,26.2a37.79,37.79,0,0,1-12,23.13,43.32,43.32,0,0,1-8.64,5.54c-12.46,6.69-23.19,8-23.26,7.78s14.16-1.25,26.83-11.41c3.65-2.93,9.61-7.25,11.92-14.83,1.94-6.32,2.28-12.42,1.56-16.43-1.1-6.08-2.55-9.66-5.13-12.21C685.79,166.22,681.87,166.64,681.27,163Z"/><path class="cls-7" d="M661.16,114.14c.35-.43,1.72-2.14,1.56-3.88-.42-4.24-9.76-4.88-11.58-5-15.13-1-22.52,11.23-39.53,17.21-18.35,6.46-32.34.14-32.58,1.66s11.7,4.43,27.44,4.28c16.8-2,19.64-4.94,30.94-10.07a20,20,0,0,1,11.72-1.67C653.55,117.47,658.21,117.76,661.16,114.14Z"/><path class="cls-16" d="M658.75,108.86a17.41,17.41,0,0,0-8.92-1.33c-9.88.76-13.35,3.1-23.86,9.55-12.16,7.47-17.36,8.09-22.74,8.88a41.35,41.35,0,0,1-8.47.22A49.58,49.58,0,0,0,613.27,125c3.9-1,8.48-2.78,17.66-6.89,15.34-6.88,18.89-5.09,23.37-5.1,4,0,4.94.48,5.57-.8a2.29,2.29,0,0,0-1.12-3.37Z"/><path class="cls-16" d="M679.6,108.86a17.41,17.41,0,0,1,8.92-1.33c9.88.76,13.35,3.1,23.86,9.55,12.16,7.47,17.66,8.31,23,9.1a33.73,33.73,0,0,0,8.16.11c.09.56-8.16,1.46-18.19-1-3.9-1-8.74-3-18-7.11-15.34-6.88-18.89-5.09-23.37-5.1-4,0-4.94.48-5.57-.8A2.36,2.36,0,0,1,679.6,108.86Z"/><path class="cls-16" d="M641.8,134.4a13.52,13.52,0,0,1,3-3.23,15.29,15.29,0,0,1,3.75-2.21,11.66,11.66,0,0,1,4.4-.91,7.9,7.9,0,0,1,2.28.34,6,6,0,0,1,1.08.45,7.48,7.48,0,0,1,.93.67,19,19,0,0,0-4,.9c-1.21.4-2.38.88-3.59,1.37s-2.43,1-3.71,1.47A21.13,21.13,0,0,1,641.8,134.4Z"/><path class="cls-16" d="M696,134.4a21.12,21.12,0,0,1-4.13-1.14c-1.29-.48-2.51-1-3.71-1.47s-2.38-1-3.59-1.37a19,19,0,0,0-4-.9,7.48,7.48,0,0,1,.93-.67,10.7,10.7,0,0,1,1.08-.45,6.66,6.66,0,0,1,1.14-.25,8.22,8.22,0,0,1,1.14-.08,11.66,11.66,0,0,1,4.4.91,15.29,15.29,0,0,1,3.75,2.21A13.52,13.52,0,0,1,696,134.4Z"/><path class="cls-18" d="M74.35,97.92a2.85,2.85,0,0,1-.66-2v-7a4.77,4.77,0,0,1,.47-2.22,10.74,10.74,0,0,1,1.35-1.94,7.65,7.65,0,0,0,.87-1.14,1.93,1.93,0,0,0,.27-1,1.56,1.56,0,0,0-.45-1.25,2.44,2.44,0,0,0-1.57-.39,4.9,4.9,0,0,0-2.86.88V79.73a6.35,6.35,0,0,1,1.7-.68,8.2,8.2,0,0,1,2-.23,4,4,0,0,1,3,1,3.36,3.36,0,0,1,1,2.5A3,3,0,0,1,79,83.75a9.44,9.44,0,0,1-1.05,1.47,10.46,10.46,0,0,0-1.21,1.72,3.87,3.87,0,0,0-.4,1.85v6.4a1.32,1.32,0,0,0,.29,1,1.41,1.41,0,0,0,1,.27h.94v2.21H76.28A2.51,2.51,0,0,1,74.35,97.92Z"/><path class="cls-18" d="M82.85,97.59a5,5,0,0,1-1.42-3.69V84.72h2.65v9.07A3,3,0,0,0,85,96.15a3.68,3.68,0,0,0,2.56.79,4.76,4.76,0,0,0,4.21-2.39V84.72h2.65V98.63H91.8V96.76a6.29,6.29,0,0,1-5,2.26A5.33,5.33,0,0,1,82.85,97.59Z"/><path class="cls-18" d="M100.9,98.29a5.47,5.47,0,0,1-2.33-2,5.55,5.55,0,0,1-.82-3V84.72h2.65V93.2a3.65,3.65,0,0,0,1,2.74,5,5,0,0,0,6,0,3.66,3.66,0,0,0,1-2.74V84.72h2.65v8.53a5.55,5.55,0,0,1-.82,3,5.46,5.46,0,0,1-2.33,2,8.89,8.89,0,0,1-7,0Z"/><path class="cls-18" d="M114.48,84.72H117v1.87a6.4,6.4,0,0,1,2.38-1.7,7.24,7.24,0,0,1,2.77-.56,5.16,5.16,0,0,1,3.9,1.4,5,5,0,0,1,1.35,3.61v9.28h-2.65V89.48a3,3,0,0,0-.81-2.25,3.44,3.44,0,0,0-2.5-.79,4.85,4.85,0,0,0-4.34,2.37v9.83h-2.65Z"/><path class="cls-18" d="M131.47,97.92a2.85,2.85,0,0,1-.66-2V84.72h2.65V95.17a1.32,1.32,0,0,0,.29,1,1.41,1.41,0,0,0,1,.27h.94v2.21H133.4A2.51,2.51,0,0,1,131.47,97.92Z"/><path class="cls-18" d="M140.4,98.7a6,6,0,0,1-2.31-.95V95.61a9.24,9.24,0,0,0,2.46,1,10.08,10.08,0,0,0,2.56.35,5.56,5.56,0,0,0,2.47-.4,1.44,1.44,0,0,0,.75-1.39,1.6,1.6,0,0,0-.36-1.09,3,3,0,0,0-1.1-.73,24.39,24.39,0,0,0-2.33-.78,9.71,9.71,0,0,1-3.41-1.65A3.27,3.27,0,0,1,138,88.31a3.37,3.37,0,0,1,1.48-3,7,7,0,0,1,4.06-1,10.86,10.86,0,0,1,2.56.3,7.12,7.12,0,0,1,2,.79v2.18a7.71,7.71,0,0,0-2-.86,8.86,8.86,0,0,0-2.34-.31q-3.12,0-3.12,1.87a1.49,1.49,0,0,0,.43,1.12,3.32,3.32,0,0,0,1.14.69q.71.27,2.4.77a11.24,11.24,0,0,1,2.6,1.07,3.41,3.41,0,0,1,1.33,1.35,4.28,4.28,0,0,1,.39,1.92,3.27,3.27,0,0,1-1.4,2.76,7.11,7.11,0,0,1-4.24,1A13.56,13.56,0,0,1,140.4,98.7Z"/><path class="cls-18" d="M137.17,80.87H146V78.09h2.42v4.58H137.17Z"/><path class="cls-18" d="M153.08,97.88a3.71,3.71,0,0,1-1.79-3.33,3.32,3.32,0,0,1,.64-2,3.27,3.27,0,0,1,1.7-1.21A3.9,3.9,0,0,1,152,90a3.17,3.17,0,0,1-.61-1.92,3.55,3.55,0,0,1,1.14-2.76,4.83,4.83,0,0,1,3.35-1,9.2,9.2,0,0,1,1.27.09,9.55,9.55,0,0,1,1,.19V86.7a3.82,3.82,0,0,0-.87-.19,8.19,8.19,0,0,0-1-.07,2.62,2.62,0,0,0-1.7.48,1.67,1.67,0,0,0-.58,1.36,1.72,1.72,0,0,0,.62,1.43,2.93,2.93,0,0,0,1.85.49h1.66v2.18h-1.64a3.05,3.05,0,0,0-1.92.53,2.13,2.13,0,0,0,.38,3.39,5.63,5.63,0,0,0,2.87.62q4.29,0,4.29-3.64V84.72h2.65v8.53a6,6,0,0,1-.68,2.77,5.2,5.2,0,0,1-2.22,2.16,8.41,8.41,0,0,1-4,.84A8.86,8.86,0,0,1,153.08,97.88Z"/><path class="cls-18" d="M169.63,97.59a5,5,0,0,1-1.42-3.69V84.72h2.65v9.07a3,3,0,0,0,.87,2.35,3.68,3.68,0,0,0,2.56.79,4.76,4.76,0,0,0,4.21-2.39V84.72h2.65V98.63h-2.57V96.76a6.29,6.29,0,0,1-5,2.26A5.33,5.33,0,0,1,169.63,97.59Z"/><path class="cls-18" d="M186,97.9a2.82,2.82,0,0,1-.68-2V90L184,87.87a9.5,9.5,0,0,1,3.15-2.64,9.15,9.15,0,0,1,4.19-.9,7.18,7.18,0,0,1,4.78,1.42,4.93,4.93,0,0,1,1.66,4v8.92h-2.65V89.92a3.36,3.36,0,0,0-.95-2.64,4.17,4.17,0,0,0-2.85-.85,6.92,6.92,0,0,0-2.52.42,5.46,5.46,0,0,0-2,1.38L188,90v5.15a1.38,1.38,0,0,0,.3,1,1.43,1.43,0,0,0,1,.29h1.46v2.21H188A2.57,2.57,0,0,1,186,97.9Z"/><path class="cls-18" d="M191.29,82.11a2.43,2.43,0,0,1-.51-1.68V79.08h2.39v1a.81.81,0,0,0,.17.6,1,1,0,0,0,.64.16h6.14v1.79h-7.2A2.1,2.1,0,0,1,191.29,82.11Z"/><path class="cls-18" d="M202.44,97.25a7,7,0,0,1-1.78-5.2,8.72,8.72,0,0,1,.92-4.13,6.31,6.31,0,0,1,2.64-2.67,8.5,8.5,0,0,1,4.08-.92q3.67,0,5.36,1.73a6,6,0,0,1,1.69,4.41v8.16H212.7V90.44q0-4-4.39-4a4.68,4.68,0,0,0-3.64,1.46,6,6,0,0,0-1.33,4.16,5.26,5.26,0,0,0,1.12,3.69,4.34,4.34,0,0,0,3.33,1.2,6.06,6.06,0,0,0,1.82-.26v2.05a7.69,7.69,0,0,1-2.26.29A6.65,6.65,0,0,1,202.44,97.25Z"/><path class="cls-18" d="M220.28,97.89a2.85,2.85,0,0,1-.66-2V86a7.12,7.12,0,0,1,.49-2.86,4.13,4.13,0,0,1,1.66-1.85H217V79.08h8.19v2.13A5,5,0,0,0,223,83a5.36,5.36,0,0,0-.7,3v9.2a1.32,1.32,0,0,0,.29,1,1.41,1.41,0,0,0,1,.27h.94V98.6h-2.26A2.51,2.51,0,0,1,220.28,97.89Z"/><path class="cls-18" d="M230.46,98.29a5.47,5.47,0,0,1-2.33-2,5.55,5.55,0,0,1-.82-3V84.72H230V93.2a3.65,3.65,0,0,0,1,2.74,5,5,0,0,0,6,0,3.66,3.66,0,0,0,1-2.74V80.07h2.65V93.25a5.55,5.55,0,0,1-.82,3,5.46,5.46,0,0,1-2.33,2,8.89,8.89,0,0,1-7,0Z"/><path class="cls-18" d="M246.5,98.37a4.88,4.88,0,0,1-2.12-1.83,5,5,0,0,1-.74-2.72v-.88a3.55,3.55,0,0,1,.36-1.61,12.34,12.34,0,0,1,1.07-1.69,9.07,9.07,0,0,0,.73-1.08,1.71,1.71,0,0,0,.23-.82.88.88,0,0,0-.25-.7,1.28,1.28,0,0,0-.82-.21h-1.46V84.72h2.73a2.44,2.44,0,0,1,1.81.66,2.37,2.37,0,0,1,.66,1.75,3.12,3.12,0,0,1-.31,1.39,13,13,0,0,1-.94,1.55,13,13,0,0,0-.9,1.51,2.85,2.85,0,0,0-.27,1.25v1a3,3,0,0,0,.87,2.33,3.65,3.65,0,0,0,2.59.82,3.44,3.44,0,0,0,2.55-.84,3.25,3.25,0,0,0,.83-2.38v-9h2.65v8.55a5.59,5.59,0,0,1-1.59,4.21A6.13,6.13,0,0,1,249.75,99,7.56,7.56,0,0,1,246.5,98.37Z"/><path class="cls-18" d="M261.19,98.64a8.36,8.36,0,0,1-2.55-1.05V90.67h5.77v2.13h-3.12v3.46a5.8,5.8,0,0,0,3,.68,5,5,0,0,0,3.81-1.38,5.59,5.59,0,0,0,1.31-4,5.06,5.06,0,0,0-1.34-3.87q-1.34-1.25-4.38-1.25a13.4,13.4,0,0,0-2.7.27,6.38,6.38,0,0,0-2.24.87V85.47a8.27,8.27,0,0,1,2.39-.86,14.66,14.66,0,0,1,3-.29,8.47,8.47,0,0,1,6,1.9,6.89,6.89,0,0,1,2.05,5.33,7.3,7.3,0,0,1-2,5.46,7.91,7.91,0,0,1-5.79,2A12.79,12.79,0,0,1,261.19,98.64Z"/><path class="cls-18" d="M274.48,86.46h2.65l3.3,10.09a5,5,0,0,0,3.77-1.35,5.23,5.23,0,0,0,1.33-3.82,6.24,6.24,0,0,0-.91-3.69,3.36,3.36,0,0,0-2.91-1.25,7.07,7.07,0,0,0-1.82.23V84.62a8.55,8.55,0,0,1,2.26-.29,5.56,5.56,0,0,1,4.52,1.87,7.85,7.85,0,0,1,1.56,5.17,7.49,7.49,0,0,1-1,3.9,6.48,6.48,0,0,1-2.64,2.5,7.93,7.93,0,0,1-3.69.86h-2.5Z"/><path class="cls-18" d="M300.71,80.46h5.85a11.16,11.16,0,0,1,5.1,1.09A7.75,7.75,0,0,1,315,84.67a9.5,9.5,0,0,1,1.16,4.78q0,4.52-2.61,6.85t-7.32,2.33h-5.49Zm5.46,16a7.48,7.48,0,0,0,5.46-1.79,7,7,0,0,0,1.82-5.17,6.25,6.25,0,0,0-6.86-6.76h-3.22V96.42Z"/><path class="cls-18" d="M316.78,80.46h2.81L325.31,95,331,80.46h2.81l-7.25,18.17H324Z"/><path class="cls-18" d="M339.11,97.85a8.41,8.41,0,0,1-3.41-3.31,10.78,10.78,0,0,1,0-10,8.38,8.38,0,0,1,3.41-3.33,10.4,10.4,0,0,1,5-1.17,10.13,10.13,0,0,1,6.27,1.9v2.55a8.77,8.77,0,0,0-6-2,7.88,7.88,0,0,0-3.73.86,6.19,6.19,0,0,0-2.54,2.46,8.08,8.08,0,0,0,0,7.48,6.24,6.24,0,0,0,2.55,2.47,7.81,7.81,0,0,0,3.71.86,10.87,10.87,0,0,0,3.45-.51,8.37,8.37,0,0,0,2.82-1.62v2.57A9.86,9.86,0,0,1,344.1,99,10.4,10.4,0,0,1,339.11,97.85Z"/><path class="cls-18" d="M74.24,129.12a2.85,2.85,0,0,1-.66-2V115.92h2.65v10.45a1.33,1.33,0,0,0,.29,1,1.42,1.42,0,0,0,1,.27h.94v2.21H76.18A2.51,2.51,0,0,1,74.24,129.12Z"/><path class="cls-18" d="M82.08,121.17l-1.3-2.11a9.48,9.48,0,0,1,3.15-2.64,9.14,9.14,0,0,1,4.19-.9,7.18,7.18,0,0,1,4.78,1.42,4.93,4.93,0,0,1,1.66,4v8.92H91.91v-8.71a3.36,3.36,0,0,0-.95-2.64,4.18,4.18,0,0,0-2.85-.84,6.88,6.88,0,0,0-2.52.43,5.48,5.48,0,0,0-2,1.37l1.12,1.74v8.66H82.08Z"/><path class="cls-18" d="M83.3,112.07h8.81v-2.78h2.42v4.58H83.3Z"/><path class="cls-18" d="M92,109.52h2.63v4.34H92Z"/><path class="cls-18" d="M99.21,129.08a3.71,3.71,0,0,1-1.79-3.33,3.32,3.32,0,0,1,.64-2,3.29,3.29,0,0,1,1.7-1.21,3.9,3.9,0,0,1-1.62-1.27,3.16,3.16,0,0,1-.61-1.92,3.54,3.54,0,0,1,1.14-2.76,4.83,4.83,0,0,1,3.35-1,9.2,9.2,0,0,1,1.27.09,9.06,9.06,0,0,1,1,.2v2.08a3.71,3.71,0,0,0-.87-.2,8.17,8.17,0,0,0-1-.06,2.63,2.63,0,0,0-1.7.48,1.67,1.67,0,0,0-.58,1.37,1.72,1.72,0,0,0,.62,1.43,2.92,2.92,0,0,0,1.85.49h1.66v2.18H102.7a3,3,0,0,0-1.92.53,2.13,2.13,0,0,0,.38,3.39,5.63,5.63,0,0,0,2.87.63q4.29,0,4.29-3.64v-8.58H111v8.53a6,6,0,0,1-.68,2.77,5.19,5.19,0,0,1-2.22,2.16,8.42,8.42,0,0,1-4,.85A8.87,8.87,0,0,1,99.21,129.08Z"/><path class="cls-18" d="M113.83,129.05v-2.13a7.76,7.76,0,0,0,4.55,1.22,5.58,5.58,0,0,0,4-1.33,6.15,6.15,0,0,0,0-7.85,5.58,5.58,0,0,0-4-1.33,7.74,7.74,0,0,0-4.5,1.22V116.7a9.22,9.22,0,0,1,5-1.17,7.69,7.69,0,0,1,5.54,1.94,8.24,8.24,0,0,1,0,10.83,7.72,7.72,0,0,1-5.54,1.92A9.27,9.27,0,0,1,113.83,129.05Z"/><path class="cls-18" d="M130.1,121.17l-1.3-2.11a9.48,9.48,0,0,1,3.15-2.64,9.14,9.14,0,0,1,4.19-.9,7.18,7.18,0,0,1,4.78,1.42,4.93,4.93,0,0,1,1.66,4v8.92h-2.65v-8.71a3.36,3.36,0,0,0-.95-2.64,4.18,4.18,0,0,0-2.85-.84,6.88,6.88,0,0,0-2.52.43,5.48,5.48,0,0,0-2,1.37l1.12,1.74v8.66H130.1Z"/><path class="cls-18" d="M136.07,113.31a2.42,2.42,0,0,1-.51-1.68v-1.35H138v1a.81.81,0,0,0,.17.6,1,1,0,0,0,.64.16h6.14v1.79h-7.2A2.1,2.1,0,0,1,136.07,113.31Z"/><path class="cls-18" d="M149.11,129.49a5.47,5.47,0,0,1-2.33-2,5.55,5.55,0,0,1-.82-3v-8.53h2.65v8.48a3.65,3.65,0,0,0,1,2.74,5,5,0,0,0,6,0,3.65,3.65,0,0,0,1-2.74v-8.48h2.65v8.53a5.55,5.55,0,0,1-.82,3,5.47,5.47,0,0,1-2.33,2,8.88,8.88,0,0,1-7,0Z"/><path class="cls-18" d="M163.46,121.17l-1.3-2.11a9.48,9.48,0,0,1,3.15-2.64,9.14,9.14,0,0,1,4.19-.9,7.18,7.18,0,0,1,4.78,1.42,4.93,4.93,0,0,1,1.66,4v8.92h-2.65v-8.71a3.36,3.36,0,0,0-.95-2.64,4.18,4.18,0,0,0-2.85-.84,6.88,6.88,0,0,0-2.52.43,5.48,5.48,0,0,0-2,1.37l1.12,1.74v8.66h-2.65Z"/><path class="cls-18" d="M184.21,120.83a3.62,3.62,0,0,0-.68-2.43,3.08,3.08,0,0,0-2.39-.77,6.88,6.88,0,0,0-3.12.73v-2.08a7.13,7.13,0,0,1,1.63-.53,9.19,9.19,0,0,1,2-.22,5.07,5.07,0,0,1,3.93,1.42,5.81,5.81,0,0,1,1.3,4.07v8.81h-2.65Z"/><path class="cls-18" d="M192.11,129.89a6,6,0,0,1-2.31-.95v-2.13a9.24,9.24,0,0,0,2.46,1,10.12,10.12,0,0,0,2.56.35,5.55,5.55,0,0,0,2.47-.4,1.44,1.44,0,0,0,.75-1.39,1.6,1.6,0,0,0-.36-1.09,3,3,0,0,0-1.1-.73,24.12,24.12,0,0,0-2.33-.78,9.71,9.71,0,0,1-3.41-1.65,3.27,3.27,0,0,1-1.12-2.64,3.37,3.37,0,0,1,1.48-3,7,7,0,0,1,4.06-1,10.86,10.86,0,0,1,2.56.3,7.12,7.12,0,0,1,2,.79v2.18a7.65,7.65,0,0,0-2-.86,8.86,8.86,0,0,0-2.34-.31q-3.12,0-3.12,1.87a1.48,1.48,0,0,0,.43,1.12,3.31,3.31,0,0,0,1.14.69q.71.27,2.4.77a11.28,11.28,0,0,1,2.6,1.07,3.4,3.4,0,0,1,1.33,1.35,4.28,4.28,0,0,1,.39,1.92,3.26,3.26,0,0,1-1.4,2.76,7.1,7.1,0,0,1-4.24,1A13.56,13.56,0,0,1,192.11,129.89Z"/><path class="cls-18" d="M205.46,129.12a2.85,2.85,0,0,1-.66-2v-10a5.36,5.36,0,0,0-.7-3,4.82,4.82,0,0,0-2.26-1.72v-2.16H210v2.24h-4.65a4.19,4.19,0,0,1,1.57,1.87,7,7,0,0,1,.51,2.81v9.18a1.33,1.33,0,0,0,.29,1,1.42,1.42,0,0,0,1,.27h.94v2.21H207.4A2.51,2.51,0,0,1,205.46,129.12Z"/><path class="cls-18" d="M215.25,129.49a5.47,5.47,0,0,1-2.33-2,5.55,5.55,0,0,1-.82-3v-8.53h2.65v8.48a3.65,3.65,0,0,0,1,2.74,5,5,0,0,0,6,0,3.65,3.65,0,0,0,1-2.74V111.27h2.65v13.18a5.55,5.55,0,0,1-.82,3,5.47,5.47,0,0,1-2.33,2,8.88,8.88,0,0,1-7,0Z"/><path class="cls-18" d="M230.69,129.89a6,6,0,0,1-2.31-.95v-2.13a9.24,9.24,0,0,0,2.46,1,10.12,10.12,0,0,0,2.56.35,5.55,5.55,0,0,0,2.47-.4,1.44,1.44,0,0,0,.75-1.39,1.6,1.6,0,0,0-.36-1.09,3,3,0,0,0-1.1-.73,24.12,24.12,0,0,0-2.33-.78,9.71,9.71,0,0,1-3.41-1.65,3.27,3.27,0,0,1-1.12-2.64,3.37,3.37,0,0,1,1.48-3,7,7,0,0,1,4.06-1,10.86,10.86,0,0,1,2.56.3,7.12,7.12,0,0,1,2,.79v2.18a7.65,7.65,0,0,0-2-.86,8.86,8.86,0,0,0-2.34-.31q-3.12,0-3.12,1.87a1.48,1.48,0,0,0,.43,1.12,3.31,3.31,0,0,0,1.14.69q.71.27,2.4.77a11.28,11.28,0,0,1,2.6,1.07,3.4,3.4,0,0,1,1.33,1.35,4.28,4.28,0,0,1,.39,1.92,3.26,3.26,0,0,1-1.4,2.76,7.1,7.1,0,0,1-4.24,1A13.56,13.56,0,0,1,230.69,129.89Z"/><path class="cls-18" d="M244,129.12a2.85,2.85,0,0,1-.66-2v-10a5.36,5.36,0,0,0-.7-3,4.82,4.82,0,0,0-2.26-1.72v-2.16h8.19v2.24H244a4.19,4.19,0,0,1,1.57,1.87,7,7,0,0,1,.51,2.81v9.18a1.33,1.33,0,0,0,.29,1,1.42,1.42,0,0,0,1,.27h.94v2.21H246A2.51,2.51,0,0,1,244,129.12Z"/><path class="cls-18" d="M255.54,129.65a6.85,6.85,0,0,1-2.3-1.69v1.87h-2.55V115.92h2.65v9.83a4.77,4.77,0,0,0,4.21,2.39,3.69,3.69,0,0,0,2.56-.79A3,3,0,0,0,261,125v-9.07h2.65v9.18a5,5,0,0,1-1.43,3.69,5.34,5.34,0,0,1-4,1.43A6.62,6.62,0,0,1,255.54,129.65Z"/><path class="cls-18" d="M267,115.92h2.55v1.87a6.39,6.39,0,0,1,2.38-1.7,7.26,7.26,0,0,1,2.77-.56,5.17,5.17,0,0,1,3.9,1.4,5,5,0,0,1,1.35,3.61v9.28h-2.65v-9.15a3,3,0,0,0-.81-2.25,3.44,3.44,0,0,0-2.5-.79,4.85,4.85,0,0,0-4.34,2.37v9.83H267Z"/><path class="cls-18" d="M284.11,129.12a2.85,2.85,0,0,1-.66-2v-7a4.77,4.77,0,0,1,.47-2.22,10.7,10.7,0,0,1,1.35-1.94,7.65,7.65,0,0,0,.87-1.14,1.93,1.93,0,0,0,.27-1,1.56,1.56,0,0,0-.45-1.25,2.45,2.45,0,0,0-1.57-.39,4.9,4.9,0,0,0-2.86.88v-2.08a6.38,6.38,0,0,1,1.7-.68,8.15,8.15,0,0,1,2-.23,4,4,0,0,1,3,1,3.35,3.35,0,0,1,1,2.5,3,3,0,0,1-.35,1.47,9.44,9.44,0,0,1-1.05,1.47,10.42,10.42,0,0,0-1.21,1.72,3.87,3.87,0,0,0-.4,1.85v6.4a1.33,1.33,0,0,0,.29,1,1.42,1.42,0,0,0,1,.27h.94v2.21H286A2.51,2.51,0,0,1,284.11,129.12Z"/><path class="cls-18" d="M292.61,128.79a5,5,0,0,1-1.42-3.69v-9.18h2.65V125a3,3,0,0,0,.87,2.35,3.69,3.69,0,0,0,2.56.79,4.77,4.77,0,0,0,4.21-2.39v-9.83h2.65v13.91h-2.57V128a6.29,6.29,0,0,1-5,2.26A5.33,5.33,0,0,1,292.61,128.79Z"/><path class="cls-18" d="M323.23,122.94l-6.6-11.28h2.83l5.07,8.76,5.15-8.76h2.81l-6.68,11.28v6.89h-2.57Z"/><path class="cls-18" d="M334.44,129.43a5.9,5.9,0,0,1-2.5-2.29,6.72,6.72,0,0,1-.9-3.52,6.81,6.81,0,0,1,.88-3.51,6,6,0,0,1,2.5-2.33,8.85,8.85,0,0,1,7.44,0,6,6,0,0,1,2.51,2.33,7.34,7.34,0,0,1,0,7,5.89,5.89,0,0,1-2.51,2.29,8.34,8.34,0,0,1-3.72.79A8.25,8.25,0,0,1,334.44,129.43Zm6.93-2.54a5.16,5.16,0,0,0,0-6.6,4.87,4.87,0,0,0-6.45,0,5.16,5.16,0,0,0,0,6.6,4.79,4.79,0,0,0,6.45,0Z"/><path class="cls-18" d="M349.29,128.87a5,5,0,0,1-1.29-3.61v-7.9h2.63v7.8a2.64,2.64,0,0,0,3,3,4.61,4.61,0,0,0,4.11-2.37v-8.42h2.63v12.48h-2.55v-1.77a5.34,5.34,0,0,1-2.09,1.64,6.54,6.54,0,0,1-2.61.52A5,5,0,0,1,349.29,128.87Z"/><path class="cls-18" d="M366.65,113.89H361v-2.24h14v2.24h-5.64v15.94h-2.68Z"/><path class="cls-18" d="M376,128.87a5,5,0,0,1-1.29-3.61v-7.9h2.63v7.8a2.64,2.64,0,0,0,3,3,4.61,4.61,0,0,0,4.11-2.37v-8.42h2.63v12.48h-2.55v-1.77a5.34,5.34,0,0,1-2.09,1.64,6.54,6.54,0,0,1-2.61.52A5,5,0,0,1,376,128.87Z"/><path class="cls-18" d="M395.26,129.69A6.62,6.62,0,0,1,393,128v1.82h-2.55V110.62h2.63V119a5.34,5.34,0,0,1,2.21-1.53,8,8,0,0,1,2.91-.52,6.73,6.73,0,0,1,3.37.84,6,6,0,0,1,2.34,2.35,7.52,7.52,0,0,1,0,6.93,5.88,5.88,0,0,1-2.34,2.31,6.88,6.88,0,0,1-3.37.82A7.36,7.36,0,0,1,395.26,129.69Zm4.63-2.11a4,4,0,0,0,1.61-1.6,5.08,5.08,0,0,0,0-4.73,4.11,4.11,0,0,0-1.61-1.61,4.64,4.64,0,0,0-2.3-.57,4.88,4.88,0,0,0-2.83.86,4.21,4.21,0,0,0-1.69,2.29V125a4.48,4.48,0,0,0,1.7,2.28,4.8,4.8,0,0,0,2.82.85A4.73,4.73,0,0,0,399.89,127.58Z"/><path class="cls-18" d="M409,128.49a6.16,6.16,0,0,1-2-4.87,6.15,6.15,0,0,1,6.76-6.66,7.58,7.58,0,0,1,3.67.82,5.46,5.46,0,0,1,2.28,2.26,6.91,6.91,0,0,1,.77,3.29v1.3h-11a3.22,3.22,0,0,0,1.5,2.64,6.84,6.84,0,0,0,3.71.87,13.57,13.57,0,0,0,2.42-.22,11.72,11.72,0,0,0,2.16-.58v2.11a10.35,10.35,0,0,1-2.2.56,16.8,16.8,0,0,1-2.69.22A7.92,7.92,0,0,1,409,128.49Zm9-5.71a3.62,3.62,0,0,0-1.16-2.74,4.58,4.58,0,0,0-3.13-1,4.34,4.34,0,0,0-3.07,1,3.68,3.68,0,0,0-1.14,2.7Z"/><path class="cls-18" d="M74.24,160.31a2.85,2.85,0,0,1-.66-2V147.12h2.65v10.45a1.32,1.32,0,0,0,.29,1,1.42,1.42,0,0,0,1,.27h.94V161H76.18A2.51,2.51,0,0,1,74.24,160.31Z"/><path class="cls-18" d="M83.17,161.09a6,6,0,0,1-2.31-.95V158a9.24,9.24,0,0,0,2.46,1,10.08,10.08,0,0,0,2.56.35,5.55,5.55,0,0,0,2.47-.4,1.44,1.44,0,0,0,.75-1.39,1.6,1.6,0,0,0-.36-1.09,3,3,0,0,0-1.1-.73A24.45,24.45,0,0,0,85.3,155a9.73,9.73,0,0,1-3.41-1.65,3.27,3.27,0,0,1-1.12-2.64,3.37,3.37,0,0,1,1.48-3,7,7,0,0,1,4.06-1,10.86,10.86,0,0,1,2.56.3,7.09,7.09,0,0,1,2,.79V150a7.65,7.65,0,0,0-2-.86,8.82,8.82,0,0,0-2.34-.31q-3.12,0-3.12,1.87a1.49,1.49,0,0,0,.43,1.12,3.31,3.31,0,0,0,1.14.69q.71.27,2.4.77a11.28,11.28,0,0,1,2.6,1.07,3.41,3.41,0,0,1,1.33,1.35,4.28,4.28,0,0,1,.39,1.92,3.27,3.27,0,0,1-1.4,2.76,7.11,7.11,0,0,1-4.24,1A13.56,13.56,0,0,1,83.17,161.09Z"/><path class="cls-18" d="M99.47,152a3.62,3.62,0,0,0-.68-2.43,3.08,3.08,0,0,0-2.39-.77,6.87,6.87,0,0,0-3.12.73v-2.08a7,7,0,0,1,1.63-.53,9.19,9.19,0,0,1,2-.22,5.07,5.07,0,0,1,3.93,1.42,5.81,5.81,0,0,1,1.3,4.07V161H99.47Z"/><path class="cls-18" d="M105.69,153.39h2.63l1.35,5.56a5.83,5.83,0,0,0,4-1.36,4.82,4.82,0,0,0,1.52-3.78A5,5,0,0,0,114,150a5.9,5.9,0,0,0-4.11-1.17,14.49,14.49,0,0,0-2.64.25,9.68,9.68,0,0,0-2.25.66v-2.08a9.76,9.76,0,0,1,2.35-.69,16.31,16.31,0,0,1,2.85-.25,8.38,8.38,0,0,1,5.71,1.77,6.69,6.69,0,0,1,2,5.3,6.8,6.8,0,0,1-1,3.71,7.26,7.26,0,0,1-2.82,2.59,8.28,8.28,0,0,1-3.91.94h-2.57Z"/><path class="cls-18" d="M120.72,152.06a2.31,2.31,0,0,1-.47-1.59V149h2.39v1a.77.77,0,0,0,.18.58,1,1,0,0,0,.65.17h3v1.85h-4.19A2.09,2.09,0,0,1,120.72,152.06Zm0,7.1a2.31,2.31,0,0,1-.47-1.59v-1.48h2.39v1a.77.77,0,0,0,.18.58,1,1,0,0,0,.65.17h3v1.85h-4.19A2.09,2.09,0,0,1,120.72,159.16Z"/><path class="cls-18" d="M128.59,147.12h2.65l2.52,10.19,3-10.19h2l3,10.19,2.55-10.19H147L143.13,161h-2.24l-3.09-10.45L134.68,161h-2.24Z"/><path class="cls-18" d="M140.49,167.4a2.16,2.16,0,0,1-.9-1.82v-.7a.77.77,0,0,0-.1-.48.6.6,0,0,0-.44-.12h-.88v-1.77h2.29a1.2,1.2,0,0,1,1,.31,1.58,1.58,0,0,1,.26,1v1.48q0,1.14,1.25,1.14t1.22-1.14v-2.81h2.08v3a2.32,2.32,0,0,1-.85,1.86,3.58,3.58,0,0,1-2.38.71A4.1,4.1,0,0,1,140.49,167.4Z"/><path class="cls-18" d="M150.86,159.65a7,7,0,0,1-1.78-5.2,8.71,8.71,0,0,1,.92-4.13,6.31,6.31,0,0,1,2.64-2.67,8.5,8.5,0,0,1,4.08-.92q3.67,0,5.36,1.73a6,6,0,0,1,1.69,4.41V161h-2.65v-8.19q0-4-4.39-4a4.68,4.68,0,0,0-3.64,1.46,6,6,0,0,0-1.33,4.16,5.26,5.26,0,0,0,1.12,3.69,4.34,4.34,0,0,0,3.33,1.2,6.06,6.06,0,0,0,1.82-.26v2.05a7.66,7.66,0,0,1-2.26.29A6.65,6.65,0,0,1,150.86,159.65Z"/><path class="cls-18" d="M168.61,160.3a2.82,2.82,0,0,1-.68-2v-5.93l-1.3-2.11a9.49,9.49,0,0,1,3.15-2.64,9.15,9.15,0,0,1,4.19-.9,7.18,7.18,0,0,1,4.78,1.42,4.93,4.93,0,0,1,1.66,4V161h-2.65v-8.71a3.36,3.36,0,0,0-.95-2.64,4.17,4.17,0,0,0-2.85-.84,6.92,6.92,0,0,0-2.52.42,5.45,5.45,0,0,0-2,1.38l1.12,1.74v5.15a1.37,1.37,0,0,0,.3,1,1.42,1.42,0,0,0,1,.29h1.46V161h-2.76A2.56,2.56,0,0,1,168.61,160.3Z"/><path class="cls-18" d="M169.18,143.32H176a2.29,2.29,0,0,1-.16-1.12,2.18,2.18,0,0,1,.81-1.51,2.63,2.63,0,0,1,1.72-.57,2.47,2.47,0,0,1,1.89.7,2.4,2.4,0,0,1,.66,1.72,2.36,2.36,0,0,1-.77,1.81,2.83,2.83,0,0,1-2,.72h-8.94Zm10,.06a1.2,1.2,0,0,0-.85-2,1.11,1.11,0,0,0-.83.35,1.24,1.24,0,0,0,0,1.7,1.13,1.13,0,0,0,.83.34A1.15,1.15,0,0,0,179.2,143.39Z"/><path class="cls-18" d="M183.27,148.86h2.65l3.3,10.09A5,5,0,0,0,193,157.6a5.23,5.23,0,0,0,1.33-3.82,6.24,6.24,0,0,0-.91-3.69,3.36,3.36,0,0,0-2.91-1.25,7.07,7.07,0,0,0-1.82.23V147a8.51,8.51,0,0,1,2.26-.29,5.55,5.55,0,0,1,4.52,1.87,7.85,7.85,0,0,1,1.56,5.17,7.49,7.49,0,0,1-1,3.9,6.48,6.48,0,0,1-2.64,2.5,7.93,7.93,0,0,1-3.69.86h-2.5Z"/><path class="cls-18" d="M199.36,160.25v-2.13a7.75,7.75,0,0,0,4.55,1.22,5.58,5.58,0,0,0,4-1.33,6.15,6.15,0,0,0,0-7.85,5.58,5.58,0,0,0-4-1.33,7.74,7.74,0,0,0-4.5,1.22V147.9a9.21,9.21,0,0,1,5-1.17,7.68,7.68,0,0,1,5.54,1.94,8.24,8.24,0,0,1,0,10.83,7.71,7.71,0,0,1-5.54,1.92A9.27,9.27,0,0,1,199.36,160.25Z"/><path class="cls-18" d="M200.22,143.27h11.23v1.79H200.22Z"/><path class="cls-18" d="M216.08,160.31a3.46,3.46,0,0,1-1.69-3.05v-1.74H217v1.59a1.87,1.87,0,0,0,.95,1.73,5,5,0,0,0,2.56.56,4.87,4.87,0,0,0,2.48-.52,1.72,1.72,0,0,0,.87-1.59,2,2,0,0,0-.39-1.33,2.77,2.77,0,0,0-1.21-.77,26.93,26.93,0,0,0-2.66-.74,19.13,19.13,0,0,1-2.87-.87,4.53,4.53,0,0,1-1.76-1.21,2.88,2.88,0,0,1-.65-1.95,3,3,0,0,1,1.65-2.79,8.93,8.93,0,0,1,4.28-.9,14.27,14.27,0,0,1,3,.32,8.79,8.79,0,0,1,2.39.82v2.18a8.34,8.34,0,0,0-2.34-.9,12.13,12.13,0,0,0-2.78-.32,8.56,8.56,0,0,0-2.66.31,1.23,1.23,0,0,0-.9,1.27,1.19,1.19,0,0,0,.42.94,3.38,3.38,0,0,0,1.12.61q.7.25,2.11.61l.94.26a16.88,16.88,0,0,1,2.86,1,3.71,3.71,0,0,1,1.56,1.33,3.9,3.9,0,0,1,.52,2.12,3.53,3.53,0,0,1-1.56,3,7.44,7.44,0,0,1-4.42,1.13A8,8,0,0,1,216.08,160.31Z"/><path class="cls-18" d="M214.73,143.27h8.81v-2.78H226v4.58H214.73Z"/><path class="cls-18" d="M230.15,152.37l-1.3-2.11a9.49,9.49,0,0,1,3.15-2.64,9.15,9.15,0,0,1,4.19-.9,7.18,7.18,0,0,1,4.78,1.42,4.93,4.93,0,0,1,1.66,4V161H240v-8.71a3.36,3.36,0,0,0-.95-2.64,4.17,4.17,0,0,0-2.85-.84,6.86,6.86,0,0,0-2.52.43,5.45,5.45,0,0,0-2,1.37l1.12,1.74V161h-2.65Z"/><path class="cls-18" d="M250.9,152a3.62,3.62,0,0,0-.68-2.43,3.08,3.08,0,0,0-2.39-.77,6.87,6.87,0,0,0-3.12.73v-2.08a7,7,0,0,1,1.63-.53,9.19,9.19,0,0,1,2-.22,5.07,5.07,0,0,1,3.93,1.42,5.81,5.81,0,0,1,1.3,4.07V161H250.9Z"/><path class="cls-18" d="M258.8,161.09a6,6,0,0,1-2.31-.95V158a9.24,9.24,0,0,0,2.46,1,10.08,10.08,0,0,0,2.56.35A5.55,5.55,0,0,0,264,159a1.44,1.44,0,0,0,.75-1.39,1.6,1.6,0,0,0-.36-1.09,3,3,0,0,0-1.1-.73,24.45,24.45,0,0,0-2.33-.78,9.73,9.73,0,0,1-3.41-1.65,3.27,3.27,0,0,1-1.12-2.64,3.37,3.37,0,0,1,1.48-3,7,7,0,0,1,4.06-1,10.86,10.86,0,0,1,2.56.3,7.09,7.09,0,0,1,2,.79V150a7.65,7.65,0,0,0-2-.86,8.82,8.82,0,0,0-2.34-.31q-3.12,0-3.12,1.87a1.49,1.49,0,0,0,.43,1.12,3.31,3.31,0,0,0,1.14.69q.71.27,2.4.77a11.28,11.28,0,0,1,2.6,1.07A3.41,3.41,0,0,1,267,155.7a4.28,4.28,0,0,1,.39,1.92,3.27,3.27,0,0,1-1.4,2.76,7.11,7.11,0,0,1-4.24,1A13.56,13.56,0,0,1,258.8,161.09Z"/><path class="cls-18" d="M270.4,153.39H273l1.35,5.56a5.83,5.83,0,0,0,4-1.36,4.82,4.82,0,0,0,1.52-3.78,5,5,0,0,0-1.25-3.8,5.9,5.9,0,0,0-4.11-1.17,14.49,14.49,0,0,0-2.64.25,9.68,9.68,0,0,0-2.25.66v-2.08A9.76,9.76,0,0,1,272,147a16.31,16.31,0,0,1,2.85-.25,8.38,8.38,0,0,1,5.71,1.77,6.69,6.69,0,0,1,2,5.3,6.8,6.8,0,0,1-1,3.71,7.26,7.26,0,0,1-2.82,2.59,8.28,8.28,0,0,1-3.91.94h-2.57Z"/><path class="cls-18" d="M275.58,144.51a2.42,2.42,0,0,1-.51-1.68v-1.35h2.39v1a.81.81,0,0,0,.17.6,1,1,0,0,0,.64.16h6.14v1.79h-7.2A2.1,2.1,0,0,1,275.58,144.51Z"/><path class="cls-18" d="M286.74,159.65a7,7,0,0,1-1.78-5.2,8.71,8.71,0,0,1,.92-4.13,6.31,6.31,0,0,1,2.64-2.67,8.5,8.5,0,0,1,4.08-.92q3.67,0,5.36,1.73a6,6,0,0,1,1.69,4.41V161H297v-8.19q0-4-4.39-4a4.68,4.68,0,0,0-3.64,1.46,6,6,0,0,0-1.33,4.16,5.26,5.26,0,0,0,1.12,3.69,4.34,4.34,0,0,0,3.33,1.2,6.06,6.06,0,0,0,1.82-.26v2.05a7.66,7.66,0,0,1-2.26.29A6.65,6.65,0,0,1,286.74,159.65Z"/><path class="cls-18" d="M303.81,152.37l-1.3-2.11a9.49,9.49,0,0,1,3.15-2.64,9.15,9.15,0,0,1,4.19-.9,7.18,7.18,0,0,1,4.78,1.42,4.93,4.93,0,0,1,1.66,4V161h-2.65v-8.71a3.36,3.36,0,0,0-.95-2.64,4.17,4.17,0,0,0-2.85-.84,6.86,6.86,0,0,0-2.52.43,5.45,5.45,0,0,0-2,1.37l1.12,1.74V161h-2.65Z"/><path class="cls-18" d="M324.55,152a3.62,3.62,0,0,0-.68-2.43,3.08,3.08,0,0,0-2.39-.77,6.87,6.87,0,0,0-3.12.73v-2.08A7,7,0,0,1,320,147a9.19,9.19,0,0,1,2-.22,5.07,5.07,0,0,1,3.93,1.42,5.81,5.81,0,0,1,1.3,4.07V161h-2.65Z"/><path class="cls-18" d="M332.46,161.09a6,6,0,0,1-2.31-.95V158a9.24,9.24,0,0,0,2.46,1,10.08,10.08,0,0,0,2.56.35,5.55,5.55,0,0,0,2.47-.4,1.44,1.44,0,0,0,.75-1.39,1.6,1.6,0,0,0-.36-1.09,3,3,0,0,0-1.1-.73,24.45,24.45,0,0,0-2.33-.78,9.73,9.73,0,0,1-3.41-1.65,3.27,3.27,0,0,1-1.12-2.64,3.37,3.37,0,0,1,1.48-3,7,7,0,0,1,4.06-1,10.86,10.86,0,0,1,2.56.3,7.09,7.09,0,0,1,2,.79V150a7.65,7.65,0,0,0-2-.86,8.82,8.82,0,0,0-2.34-.31q-3.12,0-3.12,1.87a1.49,1.49,0,0,0,.43,1.12,3.31,3.31,0,0,0,1.14.69q.71.27,2.4.77a11.28,11.28,0,0,1,2.6,1.07,3.41,3.41,0,0,1,1.33,1.35,4.28,4.28,0,0,1,.39,1.92,3.27,3.27,0,0,1-1.4,2.76,7.11,7.11,0,0,1-4.24,1A13.56,13.56,0,0,1,332.46,161.09Z"/><path class="cls-18" d="M346.42,160.77a5,5,0,0,1-2.17-1.83,4.89,4.89,0,0,1-.77-2.72v-.88a3.6,3.6,0,0,1,.39-1.65,12.05,12.05,0,0,1,1.07-1.68,9.83,9.83,0,0,0,.72-1.09,1.68,1.68,0,0,0,.22-.78.87.87,0,0,0-.25-.7,1.27,1.27,0,0,0-.82-.21h-1.46v-2.11h2.73a2.44,2.44,0,0,1,1.81.66,2.37,2.37,0,0,1,.66,1.75,3.12,3.12,0,0,1-.31,1.39,12.85,12.85,0,0,1-.94,1.55,13,13,0,0,0-.9,1.51,2.85,2.85,0,0,0-.27,1.25v1a2.94,2.94,0,0,0,.94,2.31,3.74,3.74,0,0,0,6.34-3,4.3,4.3,0,0,0-.78-2.81,2.81,2.81,0,0,0-2.29-.94v-1.43l2.78-3.64H356L353,150.6a4.28,4.28,0,0,1,2.3,1.83,6.12,6.12,0,0,1,.71,3.11,6,6,0,0,1-.79,3.12,5.25,5.25,0,0,1-2.25,2,7.52,7.52,0,0,1-3.35.71A7.66,7.66,0,0,1,346.42,160.77Z"/><path class="cls-18" d="M353.1,140.72h2.63v4.34H353.1Z"/><path class="cls-18" d="M361.08,161a8.38,8.38,0,0,1-2.55-1.05v-6.92h5.77v2.13h-3.12v3.46a5.8,5.8,0,0,0,3,.68A5,5,0,0,0,368,158a5.59,5.59,0,0,0,1.31-4,5.06,5.06,0,0,0-1.34-3.87q-1.34-1.25-4.38-1.25a13.33,13.33,0,0,0-2.7.27,6.36,6.36,0,0,0-2.24.87v-2.11a8.27,8.27,0,0,1,2.39-.86,14.59,14.59,0,0,1,3-.29,8.47,8.47,0,0,1,6,1.9A6.9,6.9,0,0,1,372,154a7.3,7.3,0,0,1-2,5.46,7.91,7.91,0,0,1-5.79,2A12.83,12.83,0,0,1,361.08,161Z"/><path class="cls-18" d="M374.37,148.86H377l3.3,10.09a5,5,0,0,0,3.77-1.35,5.23,5.23,0,0,0,1.33-3.82,6.24,6.24,0,0,0-.91-3.69,3.36,3.36,0,0,0-2.91-1.25,7.07,7.07,0,0,0-1.82.23V147a8.51,8.51,0,0,1,2.26-.29,5.56,5.56,0,0,1,4.52,1.87,7.85,7.85,0,0,1,1.56,5.17,7.48,7.48,0,0,1-1,3.9,6.48,6.48,0,0,1-2.64,2.5,7.93,7.93,0,0,1-3.69.86h-2.5Z"/><path class="cls-18" d="M391.64,160.31a2.85,2.85,0,0,1-.66-2V147.12h2.65v10.45a1.32,1.32,0,0,0,.29,1,1.42,1.42,0,0,0,1,.27h.94V161h-2.26A2.51,2.51,0,0,1,391.64,160.31Zm6.7,0a2.82,2.82,0,0,1-.68-2V147.12h2.65v10.45a1.28,1.28,0,0,0,.3,1,1.47,1.47,0,0,0,1,.27h.94V161h-2.29A2.49,2.49,0,0,1,398.34,160.3Z"/><path class="cls-18" d="M408,160.77a5,5,0,0,1-2.17-1.83,4.88,4.88,0,0,1-.77-2.72v-.88a3.58,3.58,0,0,1,.39-1.65,12,12,0,0,1,1.07-1.68,9.82,9.82,0,0,0,.71-1.09,1.67,1.67,0,0,0,.22-.78.88.88,0,0,0-.25-.7,1.28,1.28,0,0,0-.82-.21h-1.46v-2.11h2.73a2.44,2.44,0,0,1,1.81.66,2.37,2.37,0,0,1,.66,1.75,3.12,3.12,0,0,1-.31,1.39,12.83,12.83,0,0,1-.94,1.55,13.13,13.13,0,0,0-.9,1.51,2.86,2.86,0,0,0-.27,1.25v1a2.94,2.94,0,0,0,.94,2.31,3.74,3.74,0,0,0,6.34-3,4.31,4.31,0,0,0-.78-2.81,2.81,2.81,0,0,0-2.29-.94v-1.43l2.78-3.64h2.86l-2.94,3.87a4.28,4.28,0,0,1,2.3,1.83,6.12,6.12,0,0,1,.71,3.11,6,6,0,0,1-.79,3.12,5.25,5.25,0,0,1-2.25,2,7.52,7.52,0,0,1-3.35.71A7.65,7.65,0,0,1,408,160.77Z"/><path class="cls-18" d="M75,191.19a5,5,0,0,1-1.42-3.69v-9.18h2.65v9.07a3,3,0,0,0,.87,2.35,3.69,3.69,0,0,0,2.56.79,4.77,4.77,0,0,0,4.21-2.39v-9.83h2.65v13.91H84v-1.87a6.29,6.29,0,0,1-5,2.26A5.33,5.33,0,0,1,75,191.19Z"/><path class="cls-18" d="M90.57,191.52a2.85,2.85,0,0,1-.66-2V178.32h2.65v10.45a1.32,1.32,0,0,0,.29,1,1.42,1.42,0,0,0,1,.27h.94v2.21H92.51A2.51,2.51,0,0,1,90.57,191.52Zm6.69,0a2.83,2.83,0,0,1-.68-2V178.32h2.65v10.45a1.29,1.29,0,0,0,.3,1,1.47,1.47,0,0,0,1,.27h.94v2.21H99.19A2.5,2.5,0,0,1,97.26,191.5Z"/><path class="cls-18" d="M105.75,191.19a5,5,0,0,1-1.42-3.69v-9.18H107v9.07a3,3,0,0,0,.87,2.35,3.69,3.69,0,0,0,2.56.79,4.77,4.77,0,0,0,4.21-2.39v-9.83h2.65v13.91h-2.57v-1.87a6.29,6.29,0,0,1-5,2.26A5.33,5.33,0,0,1,105.75,191.19Z"/><path class="cls-18" d="M121.51,191.46a4.55,4.55,0,0,1,.16-6.64,6.3,6.3,0,0,1,4.12-1.25,10.78,10.78,0,0,1,4.63,1v-1.07a3.22,3.22,0,0,0-1-2.61,5,5,0,0,0-3.24-.82,12.67,12.67,0,0,0-2.44.23,8.9,8.9,0,0,0-2.08.65v-2.08a9,9,0,0,1,2.2-.65,14.9,14.9,0,0,1,2.72-.26,7,7,0,0,1,4.86,1.48,5.17,5.17,0,0,1,1.61,4v8.81h-2.65v-5.59a9.47,9.47,0,0,0-4.34-1,4,4,0,0,0-2.48.62,2.23,2.23,0,0,0-.79,1.87q0,2.37,3,2.37a4.7,4.7,0,0,0,1.64-.26v2.05a7.92,7.92,0,0,1-2.29.29A5.5,5.5,0,0,1,121.51,191.46Z"/><path class="cls-18" d="M137.11,191.52a2.85,2.85,0,0,1-.66-2V178.32h2.65v10.45a1.32,1.32,0,0,0,.29,1,1.42,1.42,0,0,0,1,.27h.94v2.21H139A2.51,2.51,0,0,1,137.11,191.52Z"/><path class="cls-18" d="M143.39,178.32H146l2.52,10.19,3-10.19h2l3,10.19,2.55-10.19h2.65l-3.87,13.91h-2.24l-3.09-10.45-3.12,10.45h-2.24Z"/><path class="cls-18" d="M149.78,174.52H155v-2.83H157v2.83h2.11v-2.83H161v4.58H149.78Z"/><path class="cls-18" d="M158.44,171.92h2.63v4.34h-2.63Z"/><path class="cls-18" d="M166.42,192.24a8.36,8.36,0,0,1-2.55-1.05v-6.92h5.77v2.13h-3.12v3.46a5.8,5.8,0,0,0,3,.68,5,5,0,0,0,3.81-1.38,5.59,5.59,0,0,0,1.31-4,5.06,5.06,0,0,0-1.34-3.87Q172,180,168.95,180a13.4,13.4,0,0,0-2.7.27,6.4,6.4,0,0,0-2.24.87v-2.11a8.27,8.27,0,0,1,2.39-.86,14.59,14.59,0,0,1,3-.29,8.47,8.47,0,0,1,6,1.9,6.9,6.9,0,0,1,2.05,5.33,7.3,7.3,0,0,1-2,5.46,7.91,7.91,0,0,1-5.79,2A12.83,12.83,0,0,1,166.42,192.24Z"/><path class="cls-18" d="M181,191.52a2.85,2.85,0,0,1-.66-2v-7a4.77,4.77,0,0,1,.47-2.22,10.74,10.74,0,0,1,1.35-1.94,7.65,7.65,0,0,0,.87-1.14,1.93,1.93,0,0,0,.27-1,1.56,1.56,0,0,0-.45-1.25,2.44,2.44,0,0,0-1.57-.39,4.9,4.9,0,0,0-2.86.88v-2.08a6.34,6.34,0,0,1,1.7-.68,8.15,8.15,0,0,1,2-.23,4,4,0,0,1,3,1,3.35,3.35,0,0,1,1,2.5,3,3,0,0,1-.35,1.47,9.48,9.48,0,0,1-1.05,1.47,10.41,10.41,0,0,0-1.21,1.71,3.88,3.88,0,0,0-.4,1.85v6.4a1.32,1.32,0,0,0,.29,1,1.42,1.42,0,0,0,1,.27h.94v2.21h-2.26A2.51,2.51,0,0,1,181,191.52Z"/><path class="cls-18" d="M188.08,178.32h2.65v6.14l6.73-6.14h3.09l-3.8,3.46a5,5,0,0,1,3,1.74,5.44,5.44,0,0,1,.84,3.2v5.51h-2.65v-5.36a3.76,3.76,0,0,0-.64-2.37,3.71,3.71,0,0,0-2.2-1.14l-4.37,4v4.89h-2.65Z"/><path class="cls-18" d="M195,174.63a.66.66,0,0,0-.12-.44.57.57,0,0,0-.43-.13h-1.17v-1.87h2a1.59,1.59,0,0,1,1.21.4,1.41,1.41,0,0,1,.38,1v.91h5.33v1.77H195Z"/><path class="cls-18" d="M204.63,191.52a2.85,2.85,0,0,1-.66-2V178.32h2.65v10.45a1.32,1.32,0,0,0,.29,1,1.42,1.42,0,0,0,1,.27h.94v2.21h-2.26A2.51,2.51,0,0,1,204.63,191.52Zm6.69,0a2.83,2.83,0,0,1-.68-2V178.32h2.65v10.45a1.29,1.29,0,0,0,.3,1,1.47,1.47,0,0,0,1,.27h.94v2.21h-2.29A2.5,2.5,0,0,1,211.32,191.5Z"/><path class="cls-18" d="M220.94,192a5,5,0,0,1-2.17-1.83,4.88,4.88,0,0,1-.77-2.72v-.88a3.6,3.6,0,0,1,.39-1.65,12,12,0,0,1,1.07-1.68,9.74,9.74,0,0,0,.72-1.09,1.68,1.68,0,0,0,.22-.78.88.88,0,0,0-.25-.7,1.28,1.28,0,0,0-.82-.21h-1.46v-2.11h2.73a2.44,2.44,0,0,1,1.81.66,2.37,2.37,0,0,1,.66,1.76,3.12,3.12,0,0,1-.31,1.39,12.85,12.85,0,0,1-.94,1.55,13.13,13.13,0,0,0-.9,1.51,2.86,2.86,0,0,0-.27,1.25v1a2.94,2.94,0,0,0,.94,2.31,3.74,3.74,0,0,0,6.34-3,4.31,4.31,0,0,0-.78-2.81,2.81,2.81,0,0,0-2.29-.94v-1.43l2.78-3.64h2.86l-2.94,3.88a4.28,4.28,0,0,1,2.3,1.83,6.13,6.13,0,0,1,.71,3.11,6,6,0,0,1-.79,3.12,5.24,5.24,0,0,1-2.25,2,7.52,7.52,0,0,1-3.35.72A7.69,7.69,0,0,1,220.94,192Z"/><path class="cls-18" d="M235,191.19a5,5,0,0,1-1.42-3.69v-9.18h2.65v9.07a3,3,0,0,0,.87,2.35,3.69,3.69,0,0,0,2.56.79,4.77,4.77,0,0,0,4.21-2.39v-9.83h2.65v13.91H244v-1.87a6.29,6.29,0,0,1-5,2.26A5.33,5.33,0,0,1,235,191.19Z"/><path class="cls-18" d="M250.57,191.52a2.85,2.85,0,0,1-.66-2V178.32h2.65v10.45a1.32,1.32,0,0,0,.29,1,1.42,1.42,0,0,0,1,.27h.94v2.21h-2.26A2.51,2.51,0,0,1,250.57,191.52Zm6.69,0a2.83,2.83,0,0,1-.68-2V178.32h2.65v10.45a1.29,1.29,0,0,0,.3,1,1.47,1.47,0,0,0,1,.27h.94v2.21h-2.29A2.5,2.5,0,0,1,257.27,191.5Z"/><path class="cls-18" d="M265.75,191.19a5,5,0,0,1-1.42-3.69v-9.18H267v9.07a3,3,0,0,0,.87,2.35,3.69,3.69,0,0,0,2.56.79,4.77,4.77,0,0,0,4.21-2.39v-9.83h2.65v13.91h-2.57v-1.87a6.29,6.29,0,0,1-5,2.26A5.33,5.33,0,0,1,265.75,191.19Z"/><path class="cls-18" d="M281.51,191.46a4.55,4.55,0,0,1,.16-6.64,6.3,6.3,0,0,1,4.12-1.25,10.78,10.78,0,0,1,4.63,1v-1.07a3.22,3.22,0,0,0-1-2.61,5,5,0,0,0-3.24-.82,12.67,12.67,0,0,0-2.44.23,8.9,8.9,0,0,0-2.08.65v-2.08a9,9,0,0,1,2.2-.65,14.9,14.9,0,0,1,2.72-.26,7,7,0,0,1,4.86,1.48,5.17,5.17,0,0,1,1.61,4v8.81h-2.65v-5.59a9.47,9.47,0,0,0-4.34-1,4,4,0,0,0-2.48.62,2.23,2.23,0,0,0-.79,1.87q0,2.37,3,2.37a4.7,4.7,0,0,0,1.64-.26v2.05a7.92,7.92,0,0,1-2.29.29A5.5,5.5,0,0,1,281.51,191.46Z"/><path class="cls-18" d="M298.92,192a4.89,4.89,0,0,1-2.12-1.83,5,5,0,0,1-.74-2.72v-.88a3.55,3.55,0,0,1,.36-1.61,12.34,12.34,0,0,1,1.07-1.69,9.07,9.07,0,0,0,.73-1.08,1.71,1.71,0,0,0,.23-.82.88.88,0,0,0-.25-.7,1.28,1.28,0,0,0-.82-.21h-1.46v-2.11h2.73a2.44,2.44,0,0,1,1.81.66,2.37,2.37,0,0,1,.66,1.76,3.12,3.12,0,0,1-.31,1.39,12.85,12.85,0,0,1-.94,1.55,13.13,13.13,0,0,0-.9,1.51,2.86,2.86,0,0,0-.27,1.25v1a3,3,0,0,0,.87,2.33,3.64,3.64,0,0,0,2.59.82,3.44,3.44,0,0,0,2.55-.84,3.25,3.25,0,0,0,.83-2.38v-9h2.65v8.55a5.59,5.59,0,0,1-1.59,4.21,6.13,6.13,0,0,1-4.45,1.53A7.58,7.58,0,0,1,298.92,192Z"/><path class="cls-18" d="M313.61,192.24a8.36,8.36,0,0,1-2.55-1.05v-6.92h5.77v2.13h-3.12v3.46a5.8,5.8,0,0,0,3,.68,5,5,0,0,0,3.81-1.38,5.59,5.59,0,0,0,1.31-4,5.06,5.06,0,0,0-1.34-3.87q-1.34-1.25-4.38-1.25a13.4,13.4,0,0,0-2.7.27,6.4,6.4,0,0,0-2.24.87v-2.11a8.27,8.27,0,0,1,2.39-.86,14.59,14.59,0,0,1,3-.29,8.47,8.47,0,0,1,6,1.9,6.9,6.9,0,0,1,2.05,5.33,7.3,7.3,0,0,1-2,5.46,7.91,7.91,0,0,1-5.79,2A12.83,12.83,0,0,1,313.61,192.24Z"/><path class="cls-18" d="M326.89,180.06h2.65l3.3,10.09a5,5,0,0,0,3.77-1.35,5.23,5.23,0,0,0,1.33-3.82,6.24,6.24,0,0,0-.91-3.69,3.36,3.36,0,0,0-2.91-1.25,7.07,7.07,0,0,0-1.82.23v-2.05a8.51,8.51,0,0,1,2.26-.29,5.56,5.56,0,0,1,4.52,1.87,7.85,7.85,0,0,1,1.56,5.17,7.49,7.49,0,0,1-1,3.9,6.48,6.48,0,0,1-2.64,2.5,7.94,7.94,0,0,1-3.69.86h-2.5Z"/><path class="cls-18" d="M343.51,183.62a5.2,5.2,0,0,1,1.77-4.2,8.64,8.64,0,0,1,9.7,0,5.19,5.19,0,0,1,1.77,4.21v8.61h-2.65v-8.68a3.25,3.25,0,0,0-1-2.64,5.35,5.35,0,0,0-5.85,0,3.25,3.25,0,0,0-1,2.64v2.65a2.44,2.44,0,0,1,1.07-1,3.67,3.67,0,0,1,1.72-.38H351V187h-2.29a2.58,2.58,0,0,0-2.57,2.52v2.71h-2.65Z"/><path class="cls-18" d="M354.32,196.42a.9.9,0,0,0-.17-.64,1,1,0,0,0-.66-.17h-.86v-1.9h2.13a2,2,0,0,1,1.57.47,2.6,2.6,0,0,1,.4,1.66v3.22h-2.42Z"/><path class="cls-18" d="M371.56,191.2a5.15,5.15,0,0,1-1.35-3.71v-4a3.54,3.54,0,0,0-.87-2.64,3.7,3.7,0,0,0-2.67-.84,6.1,6.1,0,0,0-2.35.42,5.41,5.41,0,0,0-1.89,1.38l1.12,1.74V188a3.71,3.71,0,0,0,.23,1.61q.23.42,1.07.42h1.46v2.21h-2.76a2.56,2.56,0,0,1-2-.73,2.82,2.82,0,0,1-.68-2v-5.93l-1.3-2.11a9.78,9.78,0,0,1,3.07-2.64,8.42,8.42,0,0,1,4-.9,6.64,6.64,0,0,1,4.59,1.42,5.06,5.06,0,0,1,1.57,4v4.08q0,3.15,3.2,3.15a4.36,4.36,0,0,0,2.26-.6,4.71,4.71,0,0,0,1.69-1.79v-9.83h2.65v13.91h-2.55v-1.82a5.73,5.73,0,0,1-4.76,2.21A5,5,0,0,1,371.56,191.2Z"/><path class="cls-18" d="M387.28,190.85a7,7,0,0,1-1.78-5.2,11.74,11.74,0,0,1,.65-4.11,6.18,6.18,0,0,1,1.78-2.68,4,4,0,0,1,2.59-.94,2.86,2.86,0,0,1,2.78,1.59,2.71,2.71,0,0,1,1.33-1.2,4.85,4.85,0,0,1,2-.39,3.21,3.21,0,0,1,2.69,1.14,4.84,4.84,0,0,1,.9,3.07v10.09h-2.65v-9.91a3.22,3.22,0,0,0-.36-1.73,1.37,1.37,0,0,0-1.25-.56,1.78,1.78,0,0,0-1.85,1.61h-1.56a2.27,2.27,0,0,0-.51-1.21,1.4,1.4,0,0,0-1.08-.4,2.27,2.27,0,0,0-2,1.46,9.09,9.09,0,0,0-.77,4.16,5.33,5.33,0,0,0,1.09,3.69,4.32,4.32,0,0,0,3.35,1.2,6.07,6.07,0,0,0,1.82-.26v2.05a7.66,7.66,0,0,1-2.26.29A6.65,6.65,0,0,1,387.28,190.85Z"/><path class="cls-18" d="M388.93,174.47h11.23v1.79H388.93Z"/><path class="cls-18" d="M404.83,190.85a7,7,0,0,1-1.78-5.2,8.72,8.72,0,0,1,.92-4.13,6.32,6.32,0,0,1,2.64-2.66,8.5,8.5,0,0,1,4.08-.92q3.67,0,5.36,1.73a6,6,0,0,1,1.69,4.41v8.16h-2.65V184q0-4-4.39-4a4.68,4.68,0,0,0-3.64,1.46,6,6,0,0,0-1.33,4.16,5.25,5.25,0,0,0,1.12,3.69,4.34,4.34,0,0,0,3.33,1.2,6.07,6.07,0,0,0,1.82-.26v2.05a7.66,7.66,0,0,1-2.26.29A6.65,6.65,0,0,1,404.83,190.85Z"/><path class="cls-18" d="M75.61,223.44a8.38,8.38,0,0,1-2.55-1.05v-6.92h5.77v2.13H75.71v3.46a5.8,5.8,0,0,0,3,.68,5,5,0,0,0,3.81-1.38,5.58,5.58,0,0,0,1.31-4,5.06,5.06,0,0,0-1.34-3.87q-1.34-1.25-4.38-1.25a13.4,13.4,0,0,0-2.7.27,6.38,6.38,0,0,0-2.24.87v-2.11a8.3,8.3,0,0,1,2.39-.86,14.66,14.66,0,0,1,3-.29,8.48,8.48,0,0,1,6,1.9,6.9,6.9,0,0,1,2.05,5.33,7.3,7.3,0,0,1-2,5.46,7.92,7.92,0,0,1-5.79,2A12.88,12.88,0,0,1,75.61,223.44Z"/><path class="cls-18" d="M79.52,206.91a2.42,2.42,0,0,1-.51-1.68v-1.35H81.4v1a.81.81,0,0,0,.17.6,1,1,0,0,0,.64.16h6.14v1.79h-7.2A2.1,2.1,0,0,1,79.52,206.91Z"/><path class="cls-18" d="M90.83,222.39a5,5,0,0,1-1.42-3.69v-9.18h2.65v9.07a3,3,0,0,0,.87,2.35,3.68,3.68,0,0,0,2.56.79,4.76,4.76,0,0,0,4.21-2.39v-9.83h2.65v13.91H99.79v-1.87a6.29,6.29,0,0,1-5,2.26A5.33,5.33,0,0,1,90.83,222.39Z"/><path class="cls-18" d="M107,222.05a7,7,0,0,1-1.78-5.2,8.71,8.71,0,0,1,.92-4.13,6.31,6.31,0,0,1,2.64-2.67,8.5,8.5,0,0,1,4.08-.92q3.67,0,5.36,1.73a6,6,0,0,1,1.69,4.41v8.16h-2.65v-8.19q0-4-4.39-4a4.68,4.68,0,0,0-3.64,1.46,6,6,0,0,0-1.33,4.16,5.26,5.26,0,0,0,1.12,3.69,4.34,4.34,0,0,0,3.33,1.2,6.06,6.06,0,0,0,1.82-.26v2.05a7.62,7.62,0,0,1-2.26.29A6.65,6.65,0,0,1,107,222.05Z"/><path class="cls-18" d="M113.4,206.91a2.42,2.42,0,0,1-.51-1.68v-1.35h2.39v1a.81.81,0,0,0,.17.6,1,1,0,0,0,.64.16h6.14v1.79H115A2.1,2.1,0,0,1,113.4,206.91Z"/><path class="cls-18" d="M126.44,223.09a5.47,5.47,0,0,1-2.33-2,5.55,5.55,0,0,1-.82-3v-8.53h2.65V218a3.65,3.65,0,0,0,1,2.74,5,5,0,0,0,6,0,3.65,3.65,0,0,0,1-2.74v-8.48h2.65V218a5.55,5.55,0,0,1-.82,3,5.46,5.46,0,0,1-2.33,2,8.88,8.88,0,0,1-7,0Z"/><path class="cls-18" d="M141.27,222.05a7,7,0,0,1-1.78-5.2,11.75,11.75,0,0,1,.65-4.11,6.19,6.19,0,0,1,1.78-2.68,3.94,3.94,0,0,1,2.59-.94,2.86,2.86,0,0,1,2.78,1.59,2.71,2.71,0,0,1,1.33-1.2,4.85,4.85,0,0,1,2-.39,3.21,3.21,0,0,1,2.69,1.14,4.84,4.84,0,0,1,.9,3.07v10.09h-2.65v-9.91a3.24,3.24,0,0,0-.36-1.73,1.38,1.38,0,0,0-1.25-.56,1.78,1.78,0,0,0-1.85,1.61h-1.56a2.27,2.27,0,0,0-.51-1.21,1.41,1.41,0,0,0-1.08-.4,2.26,2.26,0,0,0-2,1.46,9.1,9.1,0,0,0-.77,4.16,5.34,5.34,0,0,0,1.09,3.69,4.33,4.33,0,0,0,3.35,1.2,6.06,6.06,0,0,0,1.82-.26v2.05a7.62,7.62,0,0,1-2.26.29A6.65,6.65,0,0,1,141.27,222.05Z"/><path class="cls-18" d="M148.59,205.83a.66.66,0,0,0-.12-.44.56.56,0,0,0-.43-.13h-1.17v-1.87h2a1.59,1.59,0,0,1,1.21.4,1.41,1.41,0,0,1,.38,1v.91h5.33v1.77h-7.15Z"/><path class="cls-18" d="M159,222.39a5,5,0,0,1-1.42-3.69v-9.18h2.65v9.07a3,3,0,0,0,.87,2.35,3.68,3.68,0,0,0,2.56.79,4.76,4.76,0,0,0,4.21-2.39v-9.83h2.65v13.91h-2.57v-1.87a6.29,6.29,0,0,1-5,2.26A5.33,5.33,0,0,1,159,222.39Z"/><path class="cls-18" d="M193,213.34a2.94,2.94,0,0,0-.34-1.61,1.34,1.34,0,0,0-1.2-.49,1.52,1.52,0,0,0-1.14.4,2.21,2.21,0,0,0-.52,1.21h-1.59a2.92,2.92,0,0,0-.4-1.23,1.13,1.13,0,0,0-1-.38,1.43,1.43,0,0,0-1.26.69,3.78,3.78,0,0,0-.46,2.07,2.15,2.15,0,0,0,2.47,2.39,5.81,5.81,0,0,0,1.82-.26v2.05a8.48,8.48,0,0,1-2.26.29,5.15,5.15,0,0,1-3.38-1.09,4.13,4.13,0,0,1-1.33-3.38,5.79,5.79,0,0,1,1-3.52,3.42,3.42,0,0,1,2.94-1.34,2.74,2.74,0,0,1,2.68,1.59,2.87,2.87,0,0,1,2.83-1.59,3.37,3.37,0,0,1,2.91,1.17,5.45,5.45,0,0,1,.86,3.28v9.85H193Z"/><path class="cls-18" d="M210.22,222.69a2.85,2.85,0,0,1-.66-2v-9.85a7.11,7.11,0,0,1,.49-2.86,4.14,4.14,0,0,1,1.66-1.85H207v-2.23h8.19V206a5,5,0,0,0-2.26,1.74,5.36,5.36,0,0,0-.7,3v9.2a1.32,1.32,0,0,0,.29,1,1.41,1.41,0,0,0,1,.27h.94v2.24h-2.26A2.51,2.51,0,0,1,210.22,222.69Z"/><path class="cls-18" d="M218.51,222.05a7,7,0,0,1-1.78-5.2,8.71,8.71,0,0,1,.92-4.13,6.31,6.31,0,0,1,2.64-2.67,8.5,8.5,0,0,1,4.08-.92q3.67,0,5.36,1.73a6,6,0,0,1,1.69,4.41v8.16h-2.65v-8.19q0-4-4.39-4a4.68,4.68,0,0,0-3.64,1.46,6,6,0,0,0-1.33,4.16,5.26,5.26,0,0,0,1.12,3.69,4.34,4.34,0,0,0,3.33,1.2,6.06,6.06,0,0,0,1.82-.26v2.05a7.62,7.62,0,0,1-2.26.29A6.65,6.65,0,0,1,218.51,222.05Z"/><path class="cls-18" d="M225.83,205.83a.66.66,0,0,0-.12-.44.56.56,0,0,0-.43-.13h-1.17v-1.87h2a1.59,1.59,0,0,1,1.21.4,1.41,1.41,0,0,1,.38,1v.91H233v1.77h-7.15Z"/><path class="cls-18" d="M236.83,223.44a8.38,8.38,0,0,1-2.55-1.05v-6.92h5.77v2.13h-3.12v3.46a5.8,5.8,0,0,0,3,.68,5,5,0,0,0,3.81-1.38,5.58,5.58,0,0,0,1.31-4,5.06,5.06,0,0,0-1.34-3.87q-1.34-1.25-4.38-1.25a13.4,13.4,0,0,0-2.7.27,6.38,6.38,0,0,0-2.24.87v-2.11a8.3,8.3,0,0,1,2.39-.86,14.66,14.66,0,0,1,3-.29,8.48,8.48,0,0,1,6,1.9,6.9,6.9,0,0,1,2.05,5.33,7.3,7.3,0,0,1-2,5.46,7.92,7.92,0,0,1-5.79,2A12.88,12.88,0,0,1,236.83,223.44Z"/><path class="cls-18" d="M251.91,222.68a3.71,3.71,0,0,1-1.79-3.33,3.32,3.32,0,0,1,.64-2,3.26,3.26,0,0,1,1.7-1.21,3.91,3.91,0,0,1-1.62-1.28,3.16,3.16,0,0,1-.61-1.92,3.54,3.54,0,0,1,1.14-2.76,4.83,4.83,0,0,1,3.35-1,10.14,10.14,0,0,1,2.31.29v2.08a3.76,3.76,0,0,0-.87-.2,8.17,8.17,0,0,0-1-.06,2.63,2.63,0,0,0-1.7.48,1.67,1.67,0,0,0-.58,1.37,1.71,1.71,0,0,0,.62,1.43,2.92,2.92,0,0,0,1.85.49H257v2.18h-1.64a3,3,0,0,0-1.92.53,2.13,2.13,0,0,0,.38,3.39,5.63,5.63,0,0,0,2.87.63q4.29,0,4.29-3.64v-8.58h2.65V218a6,6,0,0,1-.68,2.77,5.19,5.19,0,0,1-2.22,2.16,8.4,8.4,0,0,1-4,.85A8.85,8.85,0,0,1,251.91,222.68Z"/><path class="cls-18" d="M261.09,203.13h2.63v4.34h-2.63Z"/><path class="cls-18" d="M271.93,214.43a3.61,3.61,0,0,0-.68-2.43,3.08,3.08,0,0,0-2.39-.77,6.87,6.87,0,0,0-3.12.73v-2.08a7,7,0,0,1,1.63-.53,9.25,9.25,0,0,1,2-.22,5.08,5.08,0,0,1,3.93,1.42,5.81,5.81,0,0,1,1.3,4.07v8.81h-2.65Z"/><path class="cls-18" d="M277.44,211.26h2.65l3.3,10.09a5,5,0,0,0,3.77-1.35,5.23,5.23,0,0,0,1.33-3.82,6.24,6.24,0,0,0-.91-3.69,3.36,3.36,0,0,0-2.91-1.25,7.07,7.07,0,0,0-1.82.23v-2.05a8.55,8.55,0,0,1,2.26-.29,5.55,5.55,0,0,1,4.52,1.87,7.85,7.85,0,0,1,1.56,5.17,7.49,7.49,0,0,1-1,3.9,6.48,6.48,0,0,1-2.64,2.5,7.93,7.93,0,0,1-3.69.86h-2.5Z"/><path class="cls-18" d="M295.93,223.5a6,6,0,0,1-2.31-.95v-2.13a9.24,9.24,0,0,0,2.46,1,10.08,10.08,0,0,0,2.56.35,5.55,5.55,0,0,0,2.47-.4,1.44,1.44,0,0,0,.75-1.39,1.6,1.6,0,0,0-.36-1.09,3,3,0,0,0-1.1-.73q-.74-.31-2.33-.78a9.73,9.73,0,0,1-3.41-1.65,3.28,3.28,0,0,1-1.12-2.64,3.38,3.38,0,0,1,1.48-3,7,7,0,0,1,4.06-1,10.86,10.86,0,0,1,2.56.3,7.09,7.09,0,0,1,2,.79v2.18a7.68,7.68,0,0,0-2-.86,8.82,8.82,0,0,0-2.34-.31q-3.12,0-3.12,1.87a1.49,1.49,0,0,0,.43,1.12,3.35,3.35,0,0,0,1.14.69q.71.27,2.4.77a11.28,11.28,0,0,1,2.6,1.07,3.4,3.4,0,0,1,1.33,1.35,4.28,4.28,0,0,1,.39,1.92,3.26,3.26,0,0,1-1.4,2.76,7.1,7.1,0,0,1-4.24,1A13.68,13.68,0,0,1,295.93,223.5Z"/><path class="cls-18" d="M306.82,222.65v-2.13a7.75,7.75,0,0,0,4.55,1.22,5.58,5.58,0,0,0,4-1.33,6.15,6.15,0,0,0,0-7.85,5.58,5.58,0,0,0-4-1.33,7.74,7.74,0,0,0-4.5,1.22V210.3a9.21,9.21,0,0,1,5-1.17,7.69,7.69,0,0,1,5.54,1.94,8.24,8.24,0,0,1,0,10.83,7.71,7.71,0,0,1-5.54,1.92A9.27,9.27,0,0,1,306.82,222.65Z"/><path class="cls-18" d="M323.58,222.05a7,7,0,0,1-1.78-5.2,8.71,8.71,0,0,1,.92-4.13,6.31,6.31,0,0,1,2.64-2.67,8.5,8.5,0,0,1,4.08-.92q3.67,0,5.36,1.73a6,6,0,0,1,1.69,4.41v8.16h-2.65v-8.19q0-4-4.39-4a4.68,4.68,0,0,0-3.64,1.46,6,6,0,0,0-1.33,4.16,5.26,5.26,0,0,0,1.12,3.69,4.34,4.34,0,0,0,3.33,1.2,6.06,6.06,0,0,0,1.82-.26v2.05a7.62,7.62,0,0,1-2.26.29A6.65,6.65,0,0,1,323.58,222.05Z"/><path class="cls-18" d="M340.53,222.71a2.85,2.85,0,0,1-.66-2V209.52h2.65V220a1.32,1.32,0,0,0,.29,1,1.42,1.42,0,0,0,1,.27h.94v2.21h-2.26A2.51,2.51,0,0,1,340.53,222.71Z"/><path class="cls-18" d="M349.46,223.5a6,6,0,0,1-2.31-.95v-2.13a9.24,9.24,0,0,0,2.46,1,10.08,10.08,0,0,0,2.56.35,5.55,5.55,0,0,0,2.47-.4,1.44,1.44,0,0,0,.75-1.39,1.6,1.6,0,0,0-.36-1.09,3,3,0,0,0-1.1-.73q-.74-.31-2.33-.78a9.73,9.73,0,0,1-3.41-1.65,3.28,3.28,0,0,1-1.12-2.64,3.38,3.38,0,0,1,1.48-3,7,7,0,0,1,4.06-1,10.86,10.86,0,0,1,2.56.3,7.09,7.09,0,0,1,2,.79v2.18a7.68,7.68,0,0,0-2-.86,8.82,8.82,0,0,0-2.34-.31q-3.12,0-3.12,1.87a1.49,1.49,0,0,0,.43,1.12,3.35,3.35,0,0,0,1.14.69q.71.27,2.4.77a11.28,11.28,0,0,1,2.6,1.07,3.4,3.4,0,0,1,1.33,1.35A4.28,4.28,0,0,1,358,220a3.26,3.26,0,0,1-1.4,2.76,7.1,7.1,0,0,1-4.24,1A13.68,13.68,0,0,1,349.46,223.5Z"/><path class="cls-18" d="M347.85,206.79a2.7,2.7,0,0,1-.81-2,3,3,0,0,1,.91-2.39,3.63,3.63,0,0,1,2.5-.81h6.16v1.51h-6a2,2,0,0,0-1.31.36,1.42,1.42,0,0,0-.43,1.14,1.45,1.45,0,0,0,.36,1.07,1.37,1.37,0,0,0,1,.36,1.47,1.47,0,0,0,1.1-.39,1.44,1.44,0,0,0,.38-1h1.51q0,1.33,1.46,1.33h1.46v1.56h-1.43a3,3,0,0,1-1.48-.35,1.53,1.53,0,0,1-.78-.87,2,2,0,0,1-.88.92,3.36,3.36,0,0,1-3.74-.38Z"/><path class="cls-18" d="M360.35,222.65v-2.13a7.75,7.75,0,0,0,4.55,1.22,5.58,5.58,0,0,0,4-1.33,6.15,6.15,0,0,0,0-7.85,5.58,5.58,0,0,0-4-1.33,7.74,7.74,0,0,0-4.5,1.22V210.3a9.21,9.21,0,0,1,5-1.17,7.69,7.69,0,0,1,5.54,1.94,8.24,8.24,0,0,1,0,10.83,7.71,7.71,0,0,1-5.54,1.92A9.27,9.27,0,0,1,360.35,222.65Z"/><path class="cls-18" d="M76,254.37a4.89,4.89,0,0,1-2.12-1.83,5,5,0,0,1-.74-2.72v-.88a3.55,3.55,0,0,1,.36-1.61,12.34,12.34,0,0,1,1.07-1.69,9.07,9.07,0,0,0,.73-1.08,1.71,1.71,0,0,0,.23-.82.87.87,0,0,0-.25-.7,1.27,1.27,0,0,0-.82-.21H73.06v-2.11h2.73a2.44,2.44,0,0,1,1.81.66,2.38,2.38,0,0,1,.66,1.76,3.12,3.12,0,0,1-.31,1.39,12.69,12.69,0,0,1-.94,1.55,13.21,13.21,0,0,0-.9,1.51,2.87,2.87,0,0,0-.27,1.25v1a3,3,0,0,0,.87,2.33,3.64,3.64,0,0,0,2.59.82,3.44,3.44,0,0,0,2.55-.84,3.24,3.24,0,0,0,.83-2.38v-9h2.65v8.55a5.59,5.59,0,0,1-1.59,4.21A6.13,6.13,0,0,1,79.3,255,7.58,7.58,0,0,1,76,254.37Z"/><path class="cls-18" d="M90.74,254.64a8.33,8.33,0,0,1-2.55-1.05v-6.92H94v2.13H90.84v3.46a5.8,5.8,0,0,0,3,.68,5,5,0,0,0,3.81-1.38,5.59,5.59,0,0,0,1.31-4,5.06,5.06,0,0,0-1.34-3.87q-1.34-1.25-4.38-1.25a13.4,13.4,0,0,0-2.7.27,6.38,6.38,0,0,0-2.24.87v-2.11a8.24,8.24,0,0,1,2.39-.86,14.52,14.52,0,0,1,3-.29,8.47,8.47,0,0,1,6,1.9,6.9,6.9,0,0,1,2.05,5.33,7.3,7.3,0,0,1-2,5.46,7.91,7.91,0,0,1-5.79,2A12.79,12.79,0,0,1,90.74,254.64Z"/><path class="cls-18" d="M105.31,253.92a2.85,2.85,0,0,1-.66-2v-7a4.77,4.77,0,0,1,.47-2.22,10.73,10.73,0,0,1,1.35-1.94,7.65,7.65,0,0,0,.87-1.14,1.93,1.93,0,0,0,.27-1,1.56,1.56,0,0,0-.45-1.25,2.44,2.44,0,0,0-1.57-.39,4.9,4.9,0,0,0-2.86.88v-2.08a6.34,6.34,0,0,1,1.7-.68,8.15,8.15,0,0,1,2-.23,4,4,0,0,1,3,1,3.35,3.35,0,0,1,1,2.5,3,3,0,0,1-.35,1.47,9.48,9.48,0,0,1-1.05,1.47,10.41,10.41,0,0,0-1.21,1.71,3.88,3.88,0,0,0-.4,1.85v6.39a1.32,1.32,0,0,0,.29,1,1.41,1.41,0,0,0,1,.27h.94v2.21h-2.26A2.51,2.51,0,0,1,105.31,253.92Z"/><path class="cls-18" d="M112.4,240.72H115v6.13l6.73-6.13h3.09l-3.8,3.46a5,5,0,0,1,3,1.74,5.45,5.45,0,0,1,.84,3.2v5.51h-2.65v-5.36a3.76,3.76,0,0,0-.64-2.37,3.71,3.71,0,0,0-2.2-1.14l-4.37,4v4.89H112.4Z"/><path class="cls-18" d="M119.31,237a.66.66,0,0,0-.12-.44.57.57,0,0,0-.43-.13H117.6v-1.87h2a1.59,1.59,0,0,1,1.21.4,1.4,1.4,0,0,1,.38,1v.91h5.33v1.77h-7.15Z"/><path class="cls-18" d="M130.22,253.92a2.85,2.85,0,0,1-.66-2v-10a5.35,5.35,0,0,0-.7-3,4.82,4.82,0,0,0-2.26-1.72v-2.16h8.19v2.24h-4.65a4.2,4.2,0,0,1,1.57,1.87,7,7,0,0,1,.51,2.81v9.18a1.32,1.32,0,0,0,.29,1,1.41,1.41,0,0,0,1,.27h.94v2.21h-2.26A2.51,2.51,0,0,1,130.22,253.92Z"/><path class="cls-18" d="M139.41,254.37a5,5,0,0,1-2.17-1.83,4.88,4.88,0,0,1-.77-2.72v-.88a3.6,3.6,0,0,1,.39-1.65,12,12,0,0,1,1.07-1.68,9.65,9.65,0,0,0,.72-1.09,1.67,1.67,0,0,0,.22-.78.87.87,0,0,0-.25-.7,1.27,1.27,0,0,0-.82-.21h-1.46v-2.11h2.73a2.44,2.44,0,0,1,1.81.66,2.38,2.38,0,0,1,.66,1.76,3.12,3.12,0,0,1-.31,1.39,12.69,12.69,0,0,1-.94,1.55,13.21,13.21,0,0,0-.9,1.51,2.87,2.87,0,0,0-.27,1.25v1a2.93,2.93,0,0,0,.94,2.31,3.74,3.74,0,0,0,6.34-3,4.31,4.31,0,0,0-.78-2.81,2.81,2.81,0,0,0-2.29-.94V244l2.78-3.64H149L146,244.21a4.28,4.28,0,0,1,2.3,1.83,6.13,6.13,0,0,1,.71,3.11,6,6,0,0,1-.79,3.12,5.24,5.24,0,0,1-2.25,2,7.52,7.52,0,0,1-3.35.71A7.69,7.69,0,0,1,139.41,254.37Z"/><path class="cls-18" d="M152,246a5.2,5.2,0,0,1,1.77-4.2,8.64,8.64,0,0,1,9.7,0,5.19,5.19,0,0,1,1.77,4.21v8.61h-2.65v-8.68a3.25,3.25,0,0,0-1-2.64,5.35,5.35,0,0,0-5.85,0,3.25,3.25,0,0,0-1,2.64v2.65a2.44,2.44,0,0,1,1.07-1,3.67,3.67,0,0,1,1.72-.38h2.08v2.18h-2.29a2.58,2.58,0,0,0-2.57,2.52v2.71H152Z"/><path class="cls-18" d="M169.92,253.25a7,7,0,0,1-1.78-5.2,8.72,8.72,0,0,1,.92-4.13,6.32,6.32,0,0,1,2.64-2.66,8.5,8.5,0,0,1,4.08-.92q3.67,0,5.36,1.73a6,6,0,0,1,1.69,4.41v8.16h-2.65v-8.19q0-4-4.39-4a4.68,4.68,0,0,0-3.64,1.46,6,6,0,0,0-1.33,4.16,5.25,5.25,0,0,0,1.12,3.69,4.34,4.34,0,0,0,3.33,1.2,6.06,6.06,0,0,0,1.82-.26v2.05a7.63,7.63,0,0,1-2.26.29A6.65,6.65,0,0,1,169.92,253.25Z"/><path class="cls-18" d="M171.57,236.87h8.81v-2.78h2.42v4.58H171.57Z"/><path class="cls-18" d="M186.13,254.58a1.53,1.53,0,0,1,1.09-2.62,1.53,1.53,0,0,1,1.1.44,1.54,1.54,0,0,1,0,2.18,1.53,1.53,0,0,1-1.1.44A1.48,1.48,0,0,1,186.13,254.58ZM186,236.46h2.55v13H186Z"/></g></g></svg>