<svg id="Layer_1" data-name="Layer 1" xmlns="http://www.w3.org/2000/svg" viewBox="0 0 765.18 342.01"><defs><style>.cls-1,.cls-16{fill:#fff;}.cls-1{stroke:#00c5db;}.cls-1,.cls-14,.cls-17{stroke-miterlimit:10;}.cls-1,.cls-10,.cls-12,.cls-13,.cls-14,.cls-15,.cls-17,.cls-2,.cls-4,.cls-5,.cls-7,.cls-8{stroke-width:5px;}.cls-11,.cls-2{fill:#9c9c9c;}.cls-10,.cls-14,.cls-15,.cls-17,.cls-2,.cls-4,.cls-5,.cls-7,.cls-8{stroke:#000;}.cls-10,.cls-12,.cls-13,.cls-15,.cls-2,.cls-4,.cls-5,.cls-7,.cls-8{stroke-linecap:round;stroke-linejoin:round;}.cls-3,.cls-7{fill:#d9d9d9;}.cls-5,.cls-9{fill:#129f58;}.cls-6,.cls-8{fill:#46c678;}.cls-10,.cls-12,.cls-14{fill:none;}.cls-12,.cls-13{stroke:#fff;}.cls-15{fill:#090a0a;}.cls-18{fill:#00c5db;}</style></defs><title>footer-adv-inst-th</title><path class="cls-1" d="M455.8,195A23.8,23.8,0,1,1,439,202,23.8,23.8,0,0,1,455.8,195Z" transform="translate(47.59 -124.99)"/><path class="cls-1" d="M43.85,397.53a93.19,93.19,0,0,1-57.3-163.07A120.8,120.8,0,0,1,197.69,169a68.84,68.84,0,0,1,83.86,20,68.83,68.83,0,0,1,93.18,24,93.22,93.22,0,0,1-10,184.35q-3.92.34-7.93.34H48C46.65,397.63,45.24,397.6,43.85,397.53Z" transform="translate(47.59 -124.99)"/><path class="cls-1" d="M509.48,237.45a14.29,14.29,0,1,1-14.29,14.29,14.29,14.29,0,0,1,14.29-14.29Z" transform="translate(47.59 -124.99)"/><path class="cls-2" d="M627.38,286.62c-73.88,1-82.2,108.12-84.28,177.89H699.87C697.18,386.14,706.4,285.56,627.38,286.62Z" transform="translate(47.59 -124.99)"/><path class="cls-3" d="M596.28,462.72c5.6-34.63,6.75-81,17.92-126.61A15,15,0,0,1,629,324.88a15.49,15.49,0,0,1,3,.34c6.11,1.3,8.17,12.8,9.84,23.23,9,56.48,18.21,83.12,22.24,114.27Z" transform="translate(47.59 -124.99)"/><path class="cls-2" d="M586.64,290.2c-38.35,16.28-50.23,115.67-57.1,174.31h56.62C596,381.46,609.08,333.1,586.64,290.2Z" transform="translate(47.59 -124.99)"/><path class="cls-3" d="M541.83,462.72s3.34-21.3,10.86-26.61c8.3-5.86,16.68-7.75,25.84-2.25.48,16.81,0,28.6,0,28.6Z" transform="translate(47.59 -124.99)"/><path class="cls-4" d="M586.64,290.2c28.64,49.93,2.23,114.48-.48,174.31-4.82-.3-11.61-.25-15-.28,6.69-93.31,25.58-103,4-170C577.61,293.33,581.53,291.82,586.64,290.2Z" transform="translate(47.59 -124.99)"/><path class="cls-2" d="M604,350.82c-8.12,39.26-10.12,84.22-13.3,92.72-4.38-5.42-14.5-36.11-10.6-60.06C583.2,364.37,597.78,353.21,604,350.82Z" transform="translate(47.59 -124.99)"/><path class="cls-2" d="M659,288.28c-21.7,53.15,17.27,131.44,19.48,176.11l31.85.12C706.35,393.15,687.42,292.23,659,288.28Z" transform="translate(47.59 -124.99)"/><path class="cls-3" d="M682.3,428.16c3.1-4,7.83-5.17,13.11-4.4,8.45,1.23,7.81,19.32,7.54,39l-18.68-.15C681.74,447.09,673.92,439,682.3,428.16Z" transform="translate(47.59 -124.99)"/><path class="cls-4" d="M659,288.28a99.09,99.09,0,0,1,9.57,3.8c-19.85,47.26,18,120.33,20.77,172.42l-10.86-.12C676.47,420.22,638.11,341.22,659,288.28Z" transform="translate(47.59 -124.99)"/><path class="cls-2" d="M651.73,384.84c3.18,20.3,5.5,78.46,10.42,78.46,4.43-18.53,24.71-32,12.44-56.23C669.6,397.21,657.27,380.94,651.73,384.84Z" transform="translate(47.59 -124.99)"/><path class="cls-5" d="M618,379.35a400.89,400.89,0,0,1,1.29,47.87c-.06,1.9-3.45,4.87-2.39,6.93.79,1.54,4.32-1.21,7.16-1.1,3.39.14,6.18,2.84,7.22,1s-1.23-4.75-1.88-5.9c-8.43-14.87-3.11-37.1,5.21-50.89C631.21,374.11,622,375,618,379.35Z" transform="translate(47.59 -124.99)"/><path class="cls-6" d="M622.53,388.79c.36-3.09.22-4.11,1.1-5.29,1.22-1.63,3.71-2.66,4.68-1.94,1.28.93-.33,4.6-1.58,8.36-1.57,4.75-4.94,15-3.17,24.18,1.61,8.28,7.22,14.86,5.38,16.28-.31.24-.9.27-2.07.33-2.49.13-3.11-.65-4.68-.27s-2.24,1.47-2.62,1.21.17-1.57.55-2.75a31.55,31.55,0,0,0,.82-6.57c.35-4.74-.27-7.6-.27-14.07a114.73,114.73,0,0,1,1-14C622.08,391.12,622.22,391.48,622.53,388.79Z" transform="translate(47.59 -124.99)"/><path class="cls-4" d="M652.19,385.22c-11.23,7.57-24.65-.85-26.49,4.83-.8,2.47.95,4.4,7,6.29-5-.11-12.61.58-15.21,1.9-3.85,2-6.08,8,3,10.64-4.94.38-6.62,4.72-5.79,8.39.56,2.49,6.17,4.92,9.59,4.54-2.28,1.14-2.92,3.3-1.14,4.7,4.18,3.28,17.49.94,19.66.3,8.93-2.62,11.55-3.12,24.19-12.33C672.23,403.67,662.76,390.31,652.19,385.22Z" transform="translate(47.59 -124.99)"/><path class="cls-7" d="M659,288.28c16.78,5.21,31.93,16.89,45.71,39.23,9.45,15.3,14.46,29.63,6.36,48.28-17.77,40.91-31.83,47.11-48.89,87.51,10.36-33.33,7.22-63.92-10.42-78.46,12.16-9,20-18,26.91-30.72-6.36-5.76-8.68-9.6-8.68-20.57" transform="translate(47.59 -124.99)"/><path class="cls-8" d="M628.12,382c-2-1.84-.29-10.45,5.29-15.13,8.39-7,15.33,0,25.56-5.62C661,365.82,648.84,386.58,628.12,382Z" transform="translate(47.59 -124.99)"/><path class="cls-9" d="M628.44,381.44c7.29-12.52,22.38-8.87,29.81-19.11a.51.51,0,0,1,.93.28c-.16,6.24-11.69,23.22-30.41,19.54a.48.48,0,0,1-.33-.71Z" transform="translate(47.59 -124.99)"/><path class="cls-4" d="M596.09,357.59c7.36-6.55,18.92-8,25.65-7.64,2.94.17,4.94,3,3.34,5.3a21.05,21.05,0,0,1-1.36,1.75c15.91,3.7,10.15,11.22,7.11,14.64.76,2.28-.41,5.55-1.14,7.22s-3,2.66-5.32,3c-2.28,14.07-19.71,11.28-35.07,4.09C584,379.79,587.37,365.36,596.09,357.59Z" transform="translate(47.59 -124.99)"/><path class="cls-7" d="M586.64,290.2c-4.75,1.2-37.33,12-58.62,35.06a29.71,29.71,0,0,0-5.11,33.45c11.9,24,45,51.37,67.77,84.84-12.92-21.95-.58-68.58,13.3-92.72-9,0-16.2-1.92-32.11-4.94,2.31-5.21-4.34-11-9.84-13.17" transform="translate(47.59 -124.99)"/><path class="cls-10" d="M628.12,382c7-11.52,14.83-9.66,21.13-13.14" transform="translate(47.59 -124.99)"/><path class="cls-5" d="M617.5,439.79c1.16-3.08,12.61-3.32,14-.18.54,1.23-.61,2.68-1.72,4.12a2.7,2.7,0,0,0-.56,1.41c-.61,6.54-.94,12.94-1.34,19.37H617.47c.47-6.61.89-12.39,1.54-18.69a5.57,5.57,0,0,0-.91-3.73A2.56,2.56,0,0,1,617.5,439.79Z" transform="translate(47.59 -124.99)"/><path class="cls-6" d="M620.08,439.77a4.47,4.47,0,0,1,2.28-.81c2.8-.28,4.87-.49,5.73.67s.19,2.66,0,3.23c-1.66,5-1.87,12.51-2,19.85l-6.52-.28c1-8.46,2-17.16.42-19.31-.17-.23-1.06-1.36-.73-2.35A2.15,2.15,0,0,1,620.08,439.77Z" transform="translate(47.59 -124.99)"/><path class="cls-4" d="M572.34,295.43c3.9-1.62,8.81-3.47,14.3-5.23,2.41,4.56,2.41,4.56,4.46,9.09-1.61,3.17-9.07,6.36-12.54,6.17C576.12,299.91,575.33,299.55,572.34,295.43Z" transform="translate(47.59 -124.99)"/><path class="cls-4" d="M659,288.28a95,95,0,0,1,9.57,3.8c-2.1,5.76-2.5,7.08-4.82,18.09-3.2.63-8-1.61-9.61-3.47A116.43,116.43,0,0,1,659,288.28Z" transform="translate(47.59 -124.99)"/><path class="cls-10" d="M628.12,382" transform="translate(47.59 -124.99)"/><path class="cls-10" d="M659,361.25" transform="translate(47.59 -124.99)"/><path class="cls-11" d="M571.88,345.89c-5.79.19-10.62-2.24-14-2.8a78.21,78.21,0,0,1-11.63-2.64c-13.5-3.8.76-5.62,2.28-5.84,2.74-.38,4.61.27,5.26-.38.5-.5-.61-1.65-1.14-4.21-.35-1.64-.73-3.35.09-4.66,1.45-2.32,5.78-2.08,6.94-2,3.13.17,13.38,4.05,14.66,4.94" transform="translate(47.59 -124.99)"/><path class="cls-10" d="M571.88,345.89a12.14,12.14,0,0,0,.08-5.54c-1.77-7.83-11.14-10.9-12-11.16" transform="translate(47.59 -124.99)"/><path class="cls-10" d="M571.88,345.89c-5.76-.6-12-2.57-17.9-3.58" transform="translate(47.59 -124.99)"/><path class="cls-11" d="M520.71,342.31a107.66,107.66,0,0,0,14.75,19c7,7.32,14.83,15.59,27.2,20.57A120,120,0,0,0,588.41,389c-3.54,15.82-5.84,31.37-1,48.69-9.37-12.84-28.32-33.45-42.09-49.29-7.71-8.87-13.77-16.51-15.67-19.84C520.8,356.62,519.56,347,520.71,342.31Z" transform="translate(47.59 -124.99)"/><path class="cls-10" d="M548,378.75a68.46,68.46,0,0,0,8.4,5.76,71.36,71.36,0,0,0,19.24,7.68" transform="translate(47.59 -124.99)"/><path class="cls-11" d="M668.79,354.75c.07,0-3.06-29.93-2.8-30.1.76-.49-2-5.15,2.31-1.46,1.87,1.59,4.64,2.8,6.08,5.45,1.63,3,.64,4.66,2.51,6.77,2.61,2.93,6.24,1.6,8.29,4.21s.59,6.79.38,7.32c-1.57,4.09-7.84,8.36-7.08,7" transform="translate(47.59 -124.99)"/><path class="cls-10" d="M678.34,354.75c1-2.23,3.39-5.76,3.08-9.6" transform="translate(47.59 -124.99)"/><path class="cls-10" d="M676.5,337.74a37.07,37.07,0,0,0-.38,9.94c.23,2.43,1.64,5.21,2.2,6.79" transform="translate(47.59 -124.99)"/><path class="cls-10" d="M668.25,328.62a32.2,32.2,0,0,0,1.59,14.83c2.66,7.39,6.18,9.5,8.18,11.78" transform="translate(47.59 -124.99)"/><path class="cls-11" d="M666.58,408.61s41.86-31.85,47.81-53.38c1.74,14.34-10,32.95-12.34,37.63-1,2.37-5.17,9.68-11,18.63-8.2,12.6-19.26,28.94-26,43.63C667.42,446.57,671.12,427,666.58,408.61Z" transform="translate(47.59 -124.99)"/><path class="cls-10" d="M674.76,410.21a71.9,71.9,0,0,0,10.9-9,69.47,69.47,0,0,0,10-12.89" transform="translate(47.59 -124.99)"/><path class="cls-10" d="M628.14,382.5c-2-1.84-.29-10.45,5.29-15.13,8.39-7,15.33,0,25.56-5.62C661,366.31,648.86,387.07,628.14,382.5Z" transform="translate(47.59 -124.99)"/><path class="cls-10" d="M586.64,290c-4.75,1.2-37.33,12-58.62,35.06a29.71,29.71,0,0,0-5.11,33.45c11.9,24,45,51.37,67.77,84.84-12.92-21.95-.58-68.58,13.3-92.72-9,0-25-2.66-32.09-4.65" transform="translate(47.59 -124.99)"/><path class="cls-10" d="M670,333" transform="translate(47.59 -124.99)"/><path class="cls-10" d="M659,287.75c16.78,5.21,31.93,16.89,45.71,39.23,9.45,15.3,14.46,29.63,6.36,48.28-17.77,40.93-31.82,47.09-48.88,87.51,10.36-33.33,7.22-63.92-10.42-78.46,12.16-9,20-18,26.91-30.72" transform="translate(47.59 -124.99)"/><path class="cls-12" d="M618.28,408.52a36.82,36.82,0,0,0,4.94.38,49.82,49.82,0,0,0,9.12-.76" transform="translate(47.59 -124.99)"/><path class="cls-13" d="M623.22,422.2c2.28.76,10.71-1.78,11.41-2.28" transform="translate(47.59 -124.99)"/><path class="cls-13" d="M630.44,372c-1.06.38-5.32,1.9-9.12,1.14" transform="translate(47.59 -124.99)"/><path class="cls-13" d="M624,383a42.4,42.4,0,0,1-8,1.14" transform="translate(47.59 -124.99)"/><path class="cls-10" d="M605.83,296.43" transform="translate(47.59 -124.99)"/><path class="cls-10" d="M605.07,300.61" transform="translate(47.59 -124.99)"/><path class="cls-10" d="M607,296.43" transform="translate(47.59 -124.99)"/><path class="cls-14" d="M679.81,264.61" transform="translate(47.59 -124.99)"/><path class="cls-15" d="M566.36,245c-6.51-2.91-8-7.94-7.39-8.74,0,0,4.22,1.84,5.09,1,2-2-17.35-7.74-16.51-24.74.43-8.78,5.26-17.82,8.64-20.91.29-.27.49-3.63,1.47-4.77.5-.58,2.78,1.52,2.74,1a4.4,4.4,0,0,1,2.71-4.71c.85-.3.68,3.89,3,4.66.33-1.43.79-2.37,1.85-2.84,1.47,1.54.46,1.68,2.46,3,4.32,2.1,11.32,8.85,18.83,14.56,10,1.34,23.95-9.45,30-7.88a.72.72,0,0,1,.5.89h0a.1.1,0,0,1,0,.05c-.79,2.3-4.94,4.65-4.94,4.65,1.6,3,12-9.12,25.7-4.88.33.79-6.64,3.66-6.2,5.3,7.78.91,10.32.89,12.68,0,5.88-3.06,8.51-14.64,17.24-16.38,1.57-1.7,2.83-3.2,3.62-2.91s.14,2.28,1.09,2.28c.46,0,1.79-2.11,2.26-3.61,3.77.17,2.83,5.13,3.32,5.12.71,0,1.45-1.61,1.66-1.76.79,0,1.52,2.7,2,5.85,7.78,9.21,19.24,27.43-2.14,42.09-.11,2.84,4,.43,6.46,0-1.14,6-8.4,10.68-8.48,12.08" transform="translate(47.59 -124.99)"/><path class="cls-7" d="M546.89,278.57c6.87-5.41,12.29-12.24,17.17-26.92,5.7-17.13,16.62-49.19,55.27-49.19,46.69,0,50.51,25,60.48,61.37,2.66,9.65,7.89,12.91,14.21,13.19a6.41,6.41,0,0,1-5.4,3.35c1.52,3,2.12,4.63.79,7.49-.79-2.86-4.28-4.45-4.28-4.45-.83,9.54-9.48,14.17-22.81,21.84-2.28,1.32-17.82,16.89-36.11,16.9-26.36,0-40.14-13.78-44-16.37-7.38-4.31-18.47-5.16-27.66-18.83-1.52.52-2.44.33-5,2.42-.86-1.12-.11-4.63,2.88-7.72C549.33,281.66,546.89,280,546.89,278.57Z" transform="translate(47.59 -124.99)"/><path class="cls-16" d="M558.6,283.09c-1.31-.4-2.21-3.27-1.47-6.87a9.35,9.35,0,0,1,2-4c5.64-6.91,7.34-10.89,10-18,.54-1.43,1.17-2.82,1.83-4.18a31.06,31.06,0,0,0,1.34-3.16c3.86-10.45,6.39-17.42,10.26-21.82,7.32-6,12.48-4.15,12.07-5.08-1.29-2.46-6.31-3-6.31-3,1.19-3.34,15.56-.4,19.72-1.54-1.94-2.46-4.74-3.12-4.09-4.52a45.7,45.7,0,0,0,18.39,3.42,64,64,0,0,0,15.62-2.76c.59,1.06-1.52,2.66-2.22,4.63,3.54,2.07,17.32-1.11,17.94.88,0,0-4,1.52-4.64,3a56,56,0,0,1,8.21,3.12,14.07,14.07,0,0,1,6.13,5.73c4.28,7.68,2.69,18.52,11,35.14,3.7,7.39,9.5,12.64,8.31,15.55,0,0-2.92-2.83-5.65-3.31-.08,2,2.28,7.64,1.33,8.16a11.11,11.11,0,0,0-3.21-1.87,13.44,13.44,0,0,1-1.33,6.73c-1.52,2.86-10.23,9.31-18.39,9.75a10.26,10.26,0,0,0-6.3,2.45c-3,2.61-7.7,4.09-11.2,1.48-.5-.38,3.09-.67,4.94-1.94-1.36-1.38,1-1.19.4-1.61,2.11-2.26-2.17.15-2.22-1.56-14.95,5.78-19.91-13-19.91-13s-4.85,23.26-22,8.15c.09,1.2,1.52,4.31,1.11,4.88-1.52-.66-2.63.67-3.57,1.77,3.8.22,7.63,1.94,6.91,2.44-8.28,5.73-6.91-.69-16.11-3.88-7.83-2.72-11.31-2.87-15.13-4.39A9.92,9.92,0,0,1,566,285.6c0-.28,0-.56,0-.84-1.1-.22-2,.83-2.88,2.31-.92-.38-.17-6.37.67-8.27C559.9,279.08,558.9,282.93,558.6,283.09Z" transform="translate(47.59 -124.99)"/><path class="cls-14" d="M694,277a6.41,6.41,0,0,1-5.4,3.35" transform="translate(47.59 -124.99)"/><path class="cls-14" d="M679.81,263.85" transform="translate(47.59 -124.99)"/><path class="cls-10" d="M616.67,199.49" transform="translate(47.59 -124.99)"/><path class="cls-10" d="M620,194.69" transform="translate(47.59 -124.99)"/><path class="cls-10" d="M589.31,202.36" transform="translate(47.59 -124.99)"/><path class="cls-3" d="M584.12,274.73c-.29-2.14.24-2.58,1-2.8.69,2.06,3.28,5.76,6.08,6,1.25-3.78,11.48-6.88,12.86-7.26.41.6-.9,2.22-.76,2.33,4.52.27,8.8-10,10.52-11.49,1.65.88,4.94,10.21-.87,16.5,3.31,4.87,13.93,4.84,16.87.23-5.15-7.73-3-15.59-1.61-16.38,1.52.58,6.61,9.82,11.46,12.66-.66-1.9-.43-2.45.11-2.8,1.32,1.55,8.07,9.55,12.49,10.72,3.75-2.27,5.52-8,6.68-7.47.71.29.69,2.21.55,3.26,1.64-.74,7.93-7.14,7.88-15.72-.05-10.68-10.93-19.94-20.37-20.38a28.29,28.29,0,0,0-18.14,5.2c-1.57-3,2.37-7.77,2.37-7.77-.76-.71-3.76-.38-6.54,2.14,0-1.67-2.36-6.84-3.54-6.68s-2.44,3.77-3.36,6.91c-.62.47-2.66-3.57-6.46-2.33,2.23,2.72,4,6.44,3,7.88-3.14-2.41-6.9-4.18-13.91-4.77-10.62-.89-23.29,7.11-24.78,16.7C574.33,267.9,582.61,275.37,584.12,274.73Z" transform="translate(47.59 -124.99)"/><path class="cls-17" d="M628.55,250.94a9,9,0,0,0,.28,4.56c.84,2.41,2.39,3.25,5.22,6.35,6.08,6.68,9.12,10,13.6,10.05,4.88,0,9.5-3.63,11.54-8a13.39,13.39,0,0,0,1.14-8.68c-1-4.23-4.08-7.88-7.71-10.31-5.76-3.84-13-5.95-16.73-4.5C631.9,242.32,629.39,246.29,628.55,250.94Z" transform="translate(47.59 -124.99)"/><path class="cls-17" d="M621.84,293.9c-.43,0,.43-5.79-2.5-9.12-.92-1-1.82-1.74-5.49-3.25-2.68-1.1-5.8-2.33-6.18-4.41-.24-4.27,6.66-5.93,13.46-6.15s14.07,1.34,14.07,5.47c0,2.15-2.13,2.73-5.29,4.38-2.61,1.36-4.2,1.88-5.7,3.52C621.11,287.73,622.28,293.91,621.84,293.9Z" transform="translate(47.59 -124.99)"/><path class="cls-16" d="M613.81,273.83c-.06-.53,3.19-1.74,7.6-1.74,4.94,0,7.8,1,7.75,1.57C629.13,274.7,613.94,274.85,613.81,273.83Z" transform="translate(47.59 -124.99)"/><path class="cls-17" d="M614.29,250.94a9,9,0,0,1-.28,4.56c-.84,2.41-2.39,3.25-5.22,6.35-6.08,6.68-9.12,10-13.6,10.05-4.88,0-9.5-3.63-11.54-8a13.39,13.39,0,0,1-1.14-8.68c1-4.23,4.08-7.88,7.71-10.31,5.76-3.84,13-5.95,16.73-4.5C610.93,242.32,613.44,246.29,614.29,250.94Z" transform="translate(47.59 -124.99)"/><path class="cls-3" d="M642,278.27c.26-.48,4,.88,6.91,2.66a9.41,9.41,0,0,1,3.5,3.23c2.1,3.77,2.25,9.59,2.23,9.32-.22-2.89-2.9-8.88-4.91-9.77.16,1,4,4.44-1.27,20.53-.07.12,2.83-15.35-1.56-21.76C645,279.69,641.75,278.72,642,278.27Z" transform="translate(47.59 -124.99)"/><path class="cls-3" d="M600.61,278.27c-.26-.48-4,.88-6.91,2.66a9.41,9.41,0,0,0-3.5,3.23c-2.1,3.77-2.25,9.59-2.23,9.32.22-2.89,2.9-8.88,4.91-9.77-.16,1-4,4.44,1.27,20.53.07.12-2.83-15.35,1.56-21.76C597.63,279.69,600.84,278.72,600.61,278.27Z" transform="translate(47.59 -124.99)"/><path class="cls-10" d="M597.1,283.29a14.76,14.76,0,0,0,3.29,10.84c3.72,5.85,10.32,6.08,14.4,4.74a16,16,0,0,0,6.76-4.41" transform="translate(47.59 -124.99)"/><path class="cls-10" d="M646.83,285.07c0,11.78-9.36,14.16-9.69,14.23a16.17,16.17,0,0,1-8.59-.43,15.74,15.74,0,0,1-6.7-4.92" transform="translate(47.59 -124.99)"/><path class="cls-7" d="M629.38,239.5c-.35-.43-1.72-2.14-1.56-3.88.41-4.23,9.75-4.85,11.58-5,15.13-1,22.52,11.23,39.53,17.21,18.35,6.46,32.34.14,32.58,1.66s-11.68,4.44-27.42,4.28c-16.8-2-19.64-4.94-30.94-10.07a20,20,0,0,0-11.72-1.67C637,242.83,632.32,243.12,629.38,239.5Z" transform="translate(47.59 -124.99)"/><path class="cls-7" d="M612,288.83c-.06-2-2.24-3.42-2.83-3.8-5.34-3.45-14.09,0-23.93,6.12-19.11,11.91-26,15.89-28,16.73a78.53,78.53,0,0,1-41.07,4.47c-11.33-1.26-19.35-4.91-19.44-4.63s11.23,5.9,26.25,7.78c15.65,2,27.9-1,35.56-3,4.56-1.14,25.12-10.91,28.58-12.61C602,292.55,612.14,292.69,612,288.83Z" transform="translate(47.59 -124.99)"/><path class="cls-16" d="M607.58,287.06a4.36,4.36,0,0,0-3.12-1.55,20.78,20.78,0,0,0-8.92,1.55,71.9,71.9,0,0,0-13.38,8.22A152.81,152.81,0,0,1,567.22,305a80.33,80.33,0,0,1-14.49,6.22,58.86,58.86,0,0,1-20.62,2.94c0,.2,7.32.56,16.7-1.08a67.43,67.43,0,0,0,17.52-5.86c4.15-1.77,7.14-4,13.16-7.32a114.08,114.08,0,0,1,11.82-6.66,43.61,43.61,0,0,1,7.13-2.66,26.69,26.69,0,0,1,6.24-.67c1.72-.18,2.36.06,3.12-.89C608.34,288.4,608.1,287.78,607.58,287.06Z" transform="translate(47.59 -124.99)"/><path class="cls-7" d="M632.62,308c-2.58-3.33-2.94-3.61-3.63-4a9.58,9.58,0,0,0-9.66.72c-2,1.45-1.78,2.77-4.15,4.09-1.81,1-3,.84-4.65,1.31-3.42,1-5.44,3.65-7.14,5.9-5,6.65-7.66,17.46-8.31,19.84C592,347.39,583.6,354.6,576,361.16c-20.41,17.56-53.58,21.77-75.6,11.32-5.66-2.69-12.6-7.3-13.14-6.56s7.11,8,14.12,12.63c20.32,13.25,52.7,16,76.76,3.12,12.76-6.84,21.89-17.35,23.59-15.75,1,1-1.41,5.7-4.49,9-6.23,6.76-14.95,7.78-14.79,8.36s5.7.31,12.29-2.28c7.26-2.88,11.81-7.2,18.11-13.28,5.53-5.34,8.83-8.54,12.46-13.94,4.15-6.18,7.6-11,11.38-22.14,3.45-10.23,2.15-14.86.41-17.71C636.8,313.44,635.41,311.64,632.62,308Z" transform="translate(47.59 -124.99)"/><path class="cls-16" d="M615.39,311.94c-.52-.73-3.66.26-4.24.45a7.85,7.85,0,0,0-4.61,3.26c-4.37,5.84-8.12,17.53-11,23.8-3.27,7.22-6.75,12.8-9.62,16a70.07,70.07,0,0,1-23,17.11c-5.46,2.5-25.61,13.3-48.17,7.11A150.81,150.81,0,0,1,500.32,375s2.58,1.48,10.48,5.11a106.61,106.61,0,0,0,14,4.84c20.1,5.41,39.35-.49,41.37-1.14a78.18,78.18,0,0,0,31.07-19.43c11.2-11.5,16-24,17.44-23.32,1.26.57-.51,10.18-1.29,12.39-1.87,5.23-2.43,8.3-7.13,14-4,4.8-7.32,8.66-7.13,8.88s2.92-2.84,9.09-8.39c5.25-4.72,8.61-9.26,15.12-18.14,8.56-11.68,10.2-15.68,11.13-18.78a33,33,0,0,0,.67-13.11c-.24-1.58-.67-4.25-1.66-4.37-.43,0-1.44.32-3.49,6-3.84,10.64-3.72,18.76-4.65,18.78-.71,0-1.62-4.65-2-9.55-.74-9.8,5.38-22.36,4.11-22.81-1.64-.59-10.26,7.6-13.75,21.36-1.77,7-2.69,7.91-5,13.11-5.16,11.67-13.34,19.26-13.78,19s3-4.6,8.47-14.9c4.88-9.15,5-20,6-23.15C611.09,315.57,616.23,313.12,615.39,311.94Z" transform="translate(47.59 -124.99)"/><path class="cls-7" d="M630.44,286.85c.7-2.14,4.07-2.73,4.65-2.81a9.79,9.79,0,0,1,6.46,1.49c1.74,1,5.11,3.53,7.81,11.41,1.31,3.83,4.28,12.58,2,22.18-5.26,22.1-33.9,29.73-39,31.1-13.73,3.66-23.59,1.19-25.59.66-6.21-1.65-11.78-4.69-11.63-5.13s5.66,2,13.3,3a56,56,0,0,0,20.44-1c12.65-3.17,20.82-9.3,22.76-11.17,4.28-4.07,9.86-10,11.39-17.94.46-2.43,1.69-10.15-2-16.3a75,75,0,0,0-8.58-10.51C631.12,290.42,629.92,288.51,630.44,286.85Z" transform="translate(47.59 -124.99)"/><path class="cls-16" d="M633.67,288.4a2.34,2.34,0,0,1,0-1.33c.67-1.77,3.39-1.27,5.8,0,7.58,4,11.9,16.13,10.7,26.2a37.79,37.79,0,0,1-12,23.13,43.32,43.32,0,0,1-8.64,5.54c-12.46,6.69-23.19,8-23.26,7.78s14.16-1.25,26.83-11.41c3.65-2.93,9.61-7.25,11.92-14.83,1.94-6.32,2.28-12.42,1.56-16.43-1.1-6.08-2.55-9.66-5.13-12.21C638.19,291.59,634.27,292,633.67,288.4Z" transform="translate(47.59 -124.99)"/><path class="cls-7" d="M613.56,239.5c.35-.43,1.72-2.14,1.56-3.88-.42-4.24-9.76-4.88-11.58-5-15.13-1-22.52,11.23-39.53,17.21-18.35,6.46-32.34.14-32.58,1.66s11.7,4.43,27.44,4.28c16.8-2,19.64-4.94,30.94-10.07a20,20,0,0,1,11.72-1.66C605.95,242.83,610.61,243.12,613.56,239.5Z" transform="translate(47.59 -124.99)"/><path class="cls-16" d="M611.15,234.22a17.41,17.41,0,0,0-8.92-1.33c-9.88.76-13.35,3.1-23.86,9.55-12.16,7.47-17.36,8.09-22.74,8.88a41.35,41.35,0,0,1-8.47.22,49.58,49.58,0,0,0,18.52-1.11c3.9-1,8.48-2.78,17.66-6.89,15.34-6.88,18.89-5.09,23.37-5.1,4,0,4.94.48,5.57-.8S612.71,234.89,611.15,234.22Z" transform="translate(47.59 -124.99)"/><path class="cls-16" d="M632,234.22a17.41,17.41,0,0,1,8.92-1.33c9.88.76,13.35,3.1,23.86,9.55,12.16,7.47,17.66,8.31,23,9.1a33.73,33.73,0,0,0,8.16.11c.09.56-8.16,1.46-18.19-1-3.9-1-8.74-3-17.95-7.11-15.34-6.88-18.89-5.09-23.37-5.1-4,0-4.94.48-5.57-.8S630.49,234.89,632,234.22Z" transform="translate(47.59 -124.99)"/><path class="cls-16" d="M607.17,254.44a2.32,2.32,0,0,1-1.29,2.42c-1.66.81-4.72,2.26-8.36,3.76-2,.84-2.58-1.52-2.4-4s4.69-6.12,9.12-5.81C606,251,606.88,252.6,607.17,254.44Z" transform="translate(47.59 -124.99)"/><path class="cls-16" d="M635.39,254.14a2.6,2.6,0,0,0,1.43,2.81c1.7.83,4.66,2.22,8.17,3.66,2,.84,2.58-1.52,2.4-4s-4.69-6.12-9.12-5.81C636.63,251,635.7,252.43,635.39,254.14Z" transform="translate(47.59 -124.99)"/><path class="cls-15" d="M566.36,244.59c-6.51-2.91-8-7.94-7.39-8.74,0,0,4.22,1.84,5.09,1,2-2-17.35-7.74-16.51-24.74.43-8.78,5.26-17.82,8.64-20.91.29-.27.49-3.63,1.47-4.77.5-.58,2.78,1.52,2.74,1a4.4,4.4,0,0,1,2.71-4.71c.85-.3.68,3.89,3,4.66.33-1.43.79-2.37,1.85-2.84,1.47,1.54.46,1.68,2.46,3,4.32,2.1,11.32,8.85,18.83,14.56,10,1.34,23.95-9.45,30-7.88a.72.72,0,0,1,.5.89h0a.1.1,0,0,1,0,.05c-.79,2.3-4.94,4.65-4.94,4.65,1.6,3,12-9.12,25.7-4.88.33.79-6.64,3.66-6.2,5.3,7.78.91,10.32.89,12.68,0,5.88-3.06,8.51-14.64,17.24-16.38,1.57-1.7,2.83-3.2,3.62-2.91s.14,2.28,1.09,2.28c.46,0,1.79-2.11,2.26-3.61,3.77.17,2.83,5.13,3.32,5.12.71,0,1.45-1.61,1.66-1.76.79,0,1.52,2.7,2,5.85,7.78,9.21,19.24,27.43-2.14,42.09-.11,2.84,4,.43,6.46,0-1.14,6-8.4,10.68-8.48,12.08" transform="translate(47.59 -124.99)"/><path class="cls-7" d="M546.89,278.19c6.87-5.41,12.29-12.24,17.17-26.92,5.7-17.13,16.62-49.19,55.27-49.19,46.69,0,50.51,25,60.48,61.37,2.66,9.65,7.89,12.91,14.21,13.19a6.41,6.41,0,0,1-5.4,3.35c1.52,3,2.12,4.63.79,7.49-.79-2.86-4.28-4.45-4.28-4.45-.83,9.54-9.48,14.17-22.81,21.84-2.28,1.32-17.82,16.89-36.11,16.9-26.36,0-40.14-13.78-44-16.37-7.38-4.31-18.47-5.16-27.66-18.83-1.52.52-2.44.33-5,2.42-.86-1.12-.11-4.63,2.88-7.72C549.33,281.29,546.89,279.63,546.89,278.19Z" transform="translate(47.59 -124.99)"/><path class="cls-16" d="M558.6,282.71c-1.31-.4-2.21-3.27-1.47-6.87a9.35,9.35,0,0,1,2-4c5.64-6.91,7.34-10.89,10-18,.54-1.43,1.17-2.82,1.83-4.18a31.06,31.06,0,0,0,1.34-3.16c3.86-10.45,6.39-17.42,10.26-21.82,7.32-6,12.48-4.15,12.07-5.08-1.29-2.46-6.31-3-6.31-3,1.19-3.34,15.56-.4,19.72-1.54-1.94-2.46-4.74-3.12-4.09-4.52A45.7,45.7,0,0,0,622.32,214a64,64,0,0,0,15.62-2.76c.59,1.06-1.52,2.66-2.22,4.63,3.54,2.07,17.32-1.11,17.94.88,0,0-4,1.52-4.64,3a56,56,0,0,1,8.21,3.12,14.07,14.07,0,0,1,6.13,5.73c4.28,7.68,2.69,18.52,11,35.14,3.7,7.39,9.5,12.64,8.31,15.55,0,0-2.92-2.83-5.65-3.31-.08,2,2.28,7.64,1.33,8.16a11.11,11.11,0,0,0-3.21-1.87,13.44,13.44,0,0,1-1.33,6.73c-1.52,2.86-10.23,9.31-18.39,9.75a10.26,10.26,0,0,0-6.3,2.45c-3,2.61-7.7,4.09-11.2,1.48-.5-.38,3.09-.67,4.94-1.94-1.36-1.38,1-1.19.4-1.61,2.11-2.26-2.17.15-2.22-1.56-14.95,5.78-19.91-13-19.91-13s-4.85,23.26-22,8.15c.09,1.2,1.52,4.31,1.11,4.88-1.52-.66-2.63.67-3.57,1.77,3.8.22,7.63,1.94,6.91,2.44-8.28,5.73-6.91-.69-16.11-3.88-7.83-2.72-11.31-2.87-15.13-4.39a9.92,9.92,0,0,1-6.31-8.34c0-.28,0-.56,0-.84-1.1-.22-2,.83-2.88,2.31-.92-.38-.17-6.37.67-8.27C559.9,278.7,558.9,282.54,558.6,282.71Z" transform="translate(47.59 -124.99)"/><path class="cls-14" d="M694,276.67a6.41,6.41,0,0,1-5.4,3.35" transform="translate(47.59 -124.99)"/><path class="cls-14" d="M679.81,263.47" transform="translate(47.59 -124.99)"/><path class="cls-10" d="M616.67,199.11" transform="translate(47.59 -124.99)"/><path class="cls-10" d="M620,194.31" transform="translate(47.59 -124.99)"/><path class="cls-10" d="M589.31,202" transform="translate(47.59 -124.99)"/><path class="cls-3" d="M584.12,274.36c-.29-2.14.24-2.58,1-2.8.69,2.06,3.28,5.76,6.08,6,1.25-3.78,11.48-6.88,12.86-7.26.41.6-.9,2.22-.76,2.33,4.52.27,8.8-10,10.52-11.49,1.65.88,4.94,10.21-.87,16.5,3.31,4.87,13.93,4.84,16.87.23-5.15-7.73-3-15.59-1.61-16.38,1.52.58,6.61,9.82,11.46,12.66-.66-1.9-.43-2.45.11-2.8,1.32,1.55,8.07,9.55,12.49,10.72,3.75-2.27,5.52-8,6.68-7.47.71.29.69,2.21.55,3.26,1.64-.74,7.93-7.14,7.88-15.72-.05-10.68-10.93-19.94-20.37-20.38a28.29,28.29,0,0,0-18.14,5.2c-1.57-3,2.37-7.77,2.37-7.77-.76-.71-3.76-.38-6.54,2.14,0-1.67-2.36-6.84-3.54-6.68s-2.44,3.77-3.36,6.91c-.62.47-2.66-3.57-6.46-2.33,2.23,2.72,4,6.44,3,7.88-3.14-2.41-6.9-4.18-13.91-4.77-10.62-.89-23.29,7.11-24.78,16.7C574.33,267.53,582.61,275,584.12,274.36Z" transform="translate(47.59 -124.99)"/><path class="cls-17" d="M628.55,250.56a9,9,0,0,0,.28,4.56c.84,2.41,2.39,3.25,5.22,6.35,6.08,6.68,9.12,10,13.6,10.05,4.88,0,9.5-3.63,11.54-8a13.39,13.39,0,0,0,1.14-8.68c-1-4.23-4.08-7.88-7.71-10.31-5.76-3.84-13-5.95-16.73-4.5C631.9,241.94,629.39,245.9,628.55,250.56Z" transform="translate(47.59 -124.99)"/><path class="cls-17" d="M621.84,293.52c-.43,0,.43-5.79-2.5-9.12-.92-1-1.82-1.74-5.49-3.25-2.68-1.1-5.8-2.33-6.18-4.41-.24-4.27,6.66-5.93,13.46-6.15s14.07,1.34,14.07,5.47c0,2.15-2.13,2.73-5.29,4.38-2.61,1.36-4.2,1.88-5.7,3.52C621.11,287.35,622.28,293.52,621.84,293.52Z" transform="translate(47.59 -124.99)"/><path class="cls-16" d="M613.81,273.45c-.06-.53,3.19-1.74,7.6-1.74,4.94,0,7.8,1,7.75,1.57C629.13,274.32,613.94,274.47,613.81,273.45Z" transform="translate(47.59 -124.99)"/><path class="cls-17" d="M614.29,250.56a9,9,0,0,1-.28,4.56c-.84,2.41-2.39,3.25-5.22,6.35-6.08,6.68-9.12,10-13.6,10.05-4.88,0-9.5-3.63-11.54-8a13.39,13.39,0,0,1-1.14-8.68c1-4.23,4.08-7.88,7.71-10.31,5.76-3.83,13-5.93,16.74-4.49C610.93,241.94,613.44,245.9,614.29,250.56Z" transform="translate(47.59 -124.99)"/><path class="cls-3" d="M642,277.89c.26-.48,4,.88,6.91,2.66a9.41,9.41,0,0,1,3.5,3.23c2.1,3.77,2.25,9.59,2.23,9.32-.22-2.89-2.9-8.88-4.91-9.77.16,1,4,4.44-1.27,20.53-.07.12,2.83-15.35-1.56-21.76C645,279.31,641.75,278.34,642,277.89Z" transform="translate(47.59 -124.99)"/><path class="cls-3" d="M600.61,277.89c-.26-.48-4,.88-6.91,2.66a9.41,9.41,0,0,0-3.5,3.23c-2.1,3.77-2.25,9.59-2.23,9.32.22-2.89,2.9-8.88,4.91-9.77-.16,1-4,4.44,1.27,20.53.07.12-2.83-15.35,1.56-21.76C597.63,279.31,600.84,278.34,600.61,277.89Z" transform="translate(47.59 -124.99)"/><path class="cls-10" d="M597.1,282.92a14.76,14.76,0,0,0,3.29,10.84c3.72,5.85,10.32,6.08,14.4,4.74a16,16,0,0,0,6.76-4.41" transform="translate(47.59 -124.99)"/><path class="cls-10" d="M646.83,284.69c0,11.78-9.36,14.16-9.69,14.23a16.17,16.17,0,0,1-8.59-.43,15.74,15.74,0,0,1-6.7-4.92" transform="translate(47.59 -124.99)"/><path class="cls-7" d="M629.38,239.12c-.35-.43-1.72-2.14-1.56-3.88.41-4.23,9.75-4.85,11.58-5,15.13-1,22.52,11.23,39.53,17.21,18.35,6.46,32.34.14,32.58,1.66s-11.68,4.44-27.42,4.28c-16.8-2-19.64-4.94-30.94-10.07a20,20,0,0,0-11.72-1.67C637,242.45,632.32,242.74,629.38,239.12Z" transform="translate(47.59 -124.99)"/><path class="cls-7" d="M612,288.45c-.06-2-2.24-3.42-2.83-3.8-5.34-3.45-14.09,0-23.93,6.12-19.1,11.91-26,15.89-28,16.73A78.53,78.53,0,0,1,516.15,312c-11.33-1.26-19.35-4.91-19.44-4.63s11.23,5.9,26.25,7.78c15.65,2,27.9-1,35.56-3,4.56-1.14,25.12-10.91,28.58-12.61C602,292.17,612.14,292.31,612,288.45Z" transform="translate(47.59 -124.99)"/><path class="cls-16" d="M607.58,286.69a4.36,4.36,0,0,0-3.12-1.55,20.78,20.78,0,0,0-8.92,1.55,71.9,71.9,0,0,0-13.38,8.22,152.81,152.81,0,0,1-14.94,9.77,80.33,80.33,0,0,1-14.49,6.22,58.86,58.86,0,0,1-20.62,2.94c0,.2,7.32.56,16.7-1.08a67.43,67.43,0,0,0,17.52-5.86c4.15-1.77,7.14-4,13.16-7.32a114.08,114.08,0,0,1,11.82-6.66,43.61,43.61,0,0,1,7.13-2.66,26.69,26.69,0,0,1,6.24-.67c1.72-.18,2.36.06,3.12-.89C608.34,288,608.1,287.4,607.58,286.69Z" transform="translate(47.59 -124.99)"/><path class="cls-7" d="M632.62,307.66c-2.58-3.33-2.94-3.61-3.63-4a9.58,9.58,0,0,0-9.66.72c-2,1.45-1.78,2.77-4.15,4.09-1.81,1-3,.84-4.65,1.31-3.42,1-5.44,3.65-7.14,5.9-5,6.65-7.66,17.46-8.31,19.84C592,347,583.6,354.22,576,360.78c-20.41,17.56-53.58,21.77-75.6,11.32-5.66-2.69-12.6-7.3-13.14-6.56s7.11,8,14.12,12.63c20.32,13.25,52.7,16,76.76,3.12,12.76-6.84,21.89-17.35,23.59-15.75,1,1-1.41,5.7-4.49,9-6.23,6.76-14.95,7.78-14.79,8.36s5.7.31,12.29-2.28c7.26-2.88,11.81-7.2,18.11-13.28,5.53-5.34,8.83-8.54,12.46-13.94,4.15-6.18,7.6-11,11.38-22.14,3.45-10.23,2.15-14.86.41-17.71C636.8,313.06,635.41,311.26,632.62,307.66Z" transform="translate(47.59 -124.99)"/><path class="cls-16" d="M615.39,311.56c-.52-.73-3.66.26-4.24.45a7.85,7.85,0,0,0-4.61,3.26c-4.37,5.84-8.12,17.53-11,23.8-3.27,7.22-6.75,12.8-9.62,16a70.07,70.07,0,0,1-23,17.11c-5.46,2.5-25.61,13.3-48.17,7.11a150.81,150.81,0,0,1-14.49-4.66s2.58,1.48,10.48,5.11a106.61,106.61,0,0,0,14,4.84c20.1,5.41,39.35-.49,41.37-1.14A78.18,78.18,0,0,0,597.24,364c11.2-11.5,16-24,17.44-23.32,1.26.57-.51,10.18-1.29,12.39-1.87,5.23-2.43,8.3-7.13,14-4,4.8-7.32,8.66-7.13,8.88s2.92-2.84,9.09-8.39c5.25-4.72,8.61-9.26,15.12-18.14,8.56-11.68,10.2-15.68,11.13-18.78a33,33,0,0,0,.67-13.11c-.24-1.58-.67-4.25-1.66-4.37-.43,0-1.44.32-3.49,6-3.84,10.64-3.72,18.76-4.65,18.78-.71,0-1.62-4.65-2-9.55-.74-9.8,5.38-22.36,4.11-22.81-1.64-.59-10.26,7.6-13.75,21.36-1.77,7-2.69,7.91-5,13.11-5.16,11.67-13.34,19.26-13.78,19s3-4.6,8.47-14.9c4.88-9.15,5-20,6-23.15C611.09,315.18,616.23,312.74,615.39,311.56Z" transform="translate(47.59 -124.99)"/><path class="cls-7" d="M630.44,286.47c.7-2.14,4.07-2.73,4.65-2.81a9.79,9.79,0,0,1,6.46,1.49c1.74,1,5.11,3.53,7.81,11.41,1.31,3.83,4.28,12.58,2,22.18-5.26,22.1-33.9,29.73-39,31.1-13.73,3.66-23.59,1.19-25.59.66-6.21-1.65-11.78-4.69-11.63-5.13s5.66,2,13.3,3a56,56,0,0,0,20.44-1c12.65-3.17,20.82-9.3,22.76-11.17,4.28-4.07,9.86-10,11.39-17.94.46-2.43,1.69-10.15-2-16.3a75,75,0,0,0-8.58-10.51C631.12,290,629.92,288.14,630.44,286.47Z" transform="translate(47.59 -124.99)"/><path class="cls-16" d="M633.67,288a2.34,2.34,0,0,1,0-1.33c.67-1.77,3.39-1.27,5.8,0,7.58,4,11.9,16.13,10.7,26.2a37.79,37.79,0,0,1-12,23.13,43.32,43.32,0,0,1-8.64,5.54c-12.46,6.69-23.19,8-23.26,7.78s14.16-1.25,26.83-11.41c3.65-2.93,9.61-7.25,11.92-14.83,1.94-6.32,2.28-12.42,1.56-16.43-1.1-6.08-2.55-9.66-5.13-12.21C638.19,291.2,634.27,291.62,633.67,288Z" transform="translate(47.59 -124.99)"/><path class="cls-7" d="M613.56,239.12c.35-.43,1.72-2.14,1.56-3.88-.42-4.24-9.76-4.88-11.58-5-15.13-1-22.52,11.23-39.53,17.21-18.35,6.46-32.34.14-32.58,1.66s11.7,4.43,27.44,4.28c16.8-2,19.64-4.94,30.94-10.07a20,20,0,0,1,11.72-1.67C605.95,242.45,610.61,242.74,613.56,239.12Z" transform="translate(47.59 -124.99)"/><path class="cls-16" d="M611.15,233.84a17.41,17.41,0,0,0-8.92-1.33c-9.88.76-13.35,3.1-23.86,9.55-12.16,7.47-17.36,8.09-22.74,8.88a41.35,41.35,0,0,1-8.47.22A49.58,49.58,0,0,0,565.67,250c3.9-1,8.48-2.78,17.66-6.89,15.34-6.88,18.89-5.09,23.37-5.1,4,0,4.94.48,5.57-.8A2.29,2.29,0,0,0,611.15,233.84Z" transform="translate(47.59 -124.99)"/><path class="cls-16" d="M632,233.84a17.41,17.41,0,0,1,8.92-1.33c9.88.76,13.35,3.1,23.86,9.55,12.16,7.47,17.66,8.31,23,9.1a33.73,33.73,0,0,0,8.16.11c.09.56-8.16,1.46-18.19-1-3.9-1-8.74-3-17.95-7.11-15.34-6.88-18.89-5.09-23.37-5.1-4,0-4.94.48-5.57-.8S630.49,234.51,632,233.84Z" transform="translate(47.59 -124.99)"/><path class="cls-16" d="M594.2,259.38a13.52,13.52,0,0,1,3-3.23,15.29,15.29,0,0,1,3.75-2.21,11.66,11.66,0,0,1,4.4-.91,7.9,7.9,0,0,1,2.28.34,6,6,0,0,1,1.08.45,7.48,7.48,0,0,1,.93.67,19,19,0,0,0-3.95.9c-1.21.4-2.38.88-3.59,1.37s-2.43,1-3.71,1.47A21.13,21.13,0,0,1,594.2,259.38Z" transform="translate(47.59 -124.99)"/><path class="cls-16" d="M648.39,259.38a21.12,21.12,0,0,1-4.13-1.14c-1.29-.48-2.51-1-3.71-1.47s-2.38-1-3.59-1.37a19,19,0,0,0-3.95-.9,7.48,7.48,0,0,1,.93-.67,10.7,10.7,0,0,1,1.08-.45,6.66,6.66,0,0,1,1.14-.25,8.22,8.22,0,0,1,1.14-.08,11.66,11.66,0,0,1,4.4.91,15.29,15.29,0,0,1,3.75,2.21A13.52,13.52,0,0,1,648.39,259.38Z" transform="translate(47.59 -124.99)"/><path class="cls-18" d="M24.5,200.36h2.22v15.05H24.5Z" transform="translate(47.59 -124.99)"/><path class="cls-18" d="M29.52,205.07h2.11v1.49a4.41,4.41,0,0,1,1.8-1.37,5.78,5.78,0,0,1,2.23-.44,4,4,0,0,1,3.08,1.1,4.18,4.18,0,0,1,1,3v6.61H37.58V209q0-2.52-2.41-2.52a4,4,0,0,0-1.93.48,4.3,4.3,0,0,0-1.54,1.48v7H29.52Z" transform="translate(47.59 -124.99)"/><path class="cls-18" d="M44,215.46a5.77,5.77,0,0,1-1.9-.72v-1.85a8.24,8.24,0,0,0,1.94.81,7.79,7.79,0,0,0,2.13.31,3.88,3.88,0,0,0,1.7-.28,1,1,0,0,0,.54-.9,1.14,1.14,0,0,0-.25-.76,2.15,2.15,0,0,0-.84-.53,17.71,17.71,0,0,0-1.78-.56,11.76,11.76,0,0,1-2-.74,2.8,2.8,0,0,1-1.12-1,2.73,2.73,0,0,1-.38-1.51,2.51,2.51,0,0,1,1.17-2.25,5.71,5.71,0,0,1,3.15-.76,10.55,10.55,0,0,1,2,.19,5.34,5.34,0,0,1,1.59.54v1.81a5.6,5.6,0,0,0-1.54-.58,8.16,8.16,0,0,0-1.86-.21,4.28,4.28,0,0,0-1.74.28,1,1,0,0,0-.6,1,1,1,0,0,0,.26.73,2.08,2.08,0,0,0,.83.48q.57.21,1.82.53a6.55,6.55,0,0,1,2.72,1.27,2.67,2.67,0,0,1,.76,2,2.5,2.5,0,0,1-1.1,2.13,5.51,5.51,0,0,1-3.25.8A10.48,10.48,0,0,1,44,215.46Z" transform="translate(47.59 -124.99)"/><path class="cls-18" d="M54.21,214.83a3.6,3.6,0,0,1-.85-2.56v-5.51H51.79v-1.68h1.57V202h2.2v3.1H58.1v1.68H55.56v5.36a2.14,2.14,0,0,0,.4,1.46,1.94,1.94,0,0,0,1.45.43,3,3,0,0,0,1.25-.28v1.72a6.32,6.32,0,0,1-2,.28A3.17,3.17,0,0,1,54.21,214.83Z" transform="translate(47.59 -124.99)"/><path class="cls-18" d="M61.08,214.77a3.22,3.22,0,0,1-1.13-2.59A3.32,3.32,0,0,1,61,209.52a4.6,4.6,0,0,1,3.09-.94,7.1,7.1,0,0,1,3.62.86v-.54a2.19,2.19,0,0,0-.74-1.82,3.74,3.74,0,0,0-2.34-.59,9.22,9.22,0,0,0-1.84.18,7.49,7.49,0,0,0-1.6.51v-1.77a6.9,6.9,0,0,1,1.68-.48,11.47,11.47,0,0,1,2-.18,5.5,5.5,0,0,1,3.8,1.13A4,4,0,0,1,69.94,209v6.4h-2v-1.16a4.36,4.36,0,0,1-1.58,1.11,5.86,5.86,0,0,1-2.23.38A4.49,4.49,0,0,1,61.08,214.77Zm5.42-1.11a2.77,2.77,0,0,0,1.25-1.14v-1.4a5.63,5.63,0,0,0-3.12-.9,3,3,0,0,0-1.86.48,1.76,1.76,0,0,0-.61,1.47q0,1.9,2.48,1.9A4.23,4.23,0,0,0,66.5,213.66Z" transform="translate(47.59 -124.99)"/><path class="cls-18" d="M76,220.19a6.67,6.67,0,0,1-1.69-.5v-1.79a9,9,0,0,0,3.75.73,4.12,4.12,0,0,0,2.92-.87,3.49,3.49,0,0,0,.92-2.64V214a5.13,5.13,0,0,1-4.18,1.7,5.75,5.75,0,0,1-2.82-.69,5,5,0,0,1-2-1.94,6.19,6.19,0,0,1,0-5.74,5,5,0,0,1,1.94-1.93,5.64,5.64,0,0,1,2.79-.69,6.32,6.32,0,0,1,2.44.42,5.21,5.21,0,0,1,1.86,1.39v-1.49H84v9.82A5.35,5.35,0,0,1,82.57,219,6.35,6.35,0,0,1,78,220.36,12.07,12.07,0,0,1,76,220.19Zm4.5-6.89a3.51,3.51,0,0,0,1.39-1.89v-2.33a3.65,3.65,0,0,0-1.41-1.89,4,4,0,0,0-2.34-.69,3.92,3.92,0,0,0-1.91.46,3.34,3.34,0,0,0-1.34,1.32,4.23,4.23,0,0,0,0,3.93,3.44,3.44,0,0,0,1.34,1.33,3.85,3.85,0,0,0,1.91.47A4,4,0,0,0,80.48,213.3Z" transform="translate(47.59 -124.99)"/><path class="cls-18" d="M86.85,205.07H89v1.85a3.77,3.77,0,0,1,1.82-1.4,7.54,7.54,0,0,1,2.72-.45v1.7a6.84,6.84,0,0,0-2.84.54A3,3,0,0,0,89,209v6.4H86.85Z" transform="translate(47.59 -124.99)"/><path class="cls-18" d="M95.17,214.77A3.22,3.22,0,0,1,94,212.18a3.32,3.32,0,0,1,1.09-2.66,4.6,4.6,0,0,1,3.09-.94,7.1,7.1,0,0,1,3.62.86v-.54a2.19,2.19,0,0,0-.74-1.82,3.74,3.74,0,0,0-2.34-.59,9.22,9.22,0,0,0-1.84.18,7.49,7.49,0,0,0-1.6.51v-1.77a6.9,6.9,0,0,1,1.68-.48,11.47,11.47,0,0,1,2-.18,5.5,5.5,0,0,1,3.8,1.13A4,4,0,0,1,104,209v6.4h-2v-1.16a4.36,4.36,0,0,1-1.58,1.11,5.86,5.86,0,0,1-2.23.38A4.49,4.49,0,0,1,95.17,214.77Zm5.42-1.11a2.77,2.77,0,0,0,1.25-1.14v-1.4a5.63,5.63,0,0,0-3.12-.9,3,3,0,0,0-1.86.48,1.76,1.76,0,0,0-.61,1.47q0,1.9,2.48,1.9A4.23,4.23,0,0,0,100.58,213.66Z" transform="translate(47.59 -124.99)"/><path class="cls-18" d="M106.72,205.07h2.07v1.49a4.92,4.92,0,0,1,1.66-1.36,4.31,4.31,0,0,1,1.92-.45,4,4,0,0,1,2,.42,2.48,2.48,0,0,1,1.08,1.28,4.4,4.4,0,0,1,1.69-1.27,5.06,5.06,0,0,1,2-.43,3.47,3.47,0,0,1,2.73,1,4.18,4.18,0,0,1,.84,2.83v6.87h-2.11v-6.59a2.69,2.69,0,0,0-.47-1.8,2.09,2.09,0,0,0-1.62-.53,3.17,3.17,0,0,0-2.67,1.42,9.11,9.11,0,0,1,0,1.06v6.44h-2.11v-6.59a2.89,2.89,0,0,0-.43-1.8,1.91,1.91,0,0,0-1.55-.53,3.62,3.62,0,0,0-2.93,1.85v7.06h-2.13Z" transform="translate(47.59 -124.99)"/><path class="cls-18" d="M25.05,240.66A2.36,2.36,0,0,1,24.5,239v-9.26h2.2v8.66a1.09,1.09,0,0,0,.24.81,1.18,1.18,0,0,0,.82.23h.78v1.83H26.66A2.08,2.08,0,0,1,25.05,240.66Z" transform="translate(47.59 -124.99)"/><path class="cls-18" d="M33.51,241a4.52,4.52,0,0,1-1.93-1.69,4.6,4.6,0,0,1-.68-2.49v-7.06h2.2v7a3,3,0,0,0,.85,2.27,3.42,3.42,0,0,0,2.49.83A3.39,3.39,0,0,0,38.9,239a3,3,0,0,0,.85-2.27V225.87h2.2v10.92a4.6,4.6,0,0,1-.68,2.49A4.52,4.52,0,0,1,39.34,241a7.36,7.36,0,0,1-5.84,0Z" transform="translate(47.59 -124.99)"/><path class="cls-18" d="M34,227.47a2.23,2.23,0,0,1-.67-1.68,2.51,2.51,0,0,1,.75-2,3,3,0,0,1,2.07-.67h5.1v1.25h-5a1.65,1.65,0,0,0-1.09.3,1.18,1.18,0,0,0-.35.95,1.2,1.2,0,0,0,.3.88,1.13,1.13,0,0,0,.84.3,1.21,1.21,0,0,0,.92-.32,1.18,1.18,0,0,0,.31-.86h1.25q0,1.1,1.21,1.1h1.21V228H39.66a2.47,2.47,0,0,1-1.23-.29,1.26,1.26,0,0,1-.65-.72,1.64,1.64,0,0,1-.73.76,2.77,2.77,0,0,1-3.1-.31Z" transform="translate(47.59 -124.99)"/><path class="cls-18" d="M45.92,240.39a4.16,4.16,0,0,1-1.17-3.06v-7.6h2.2v7.52a2.5,2.5,0,0,0,.72,1.95,3,3,0,0,0,2.12.66,4,4,0,0,0,3.49-2v-8.14h2.2v11.52H53.34V239.7a5.21,5.21,0,0,1-4.13,1.87A4.41,4.41,0,0,1,45.92,240.39Z" transform="translate(47.59 -124.99)"/><path class="cls-18" d="M58.27,229.73h2.2v5.08L66,229.73h2.56l-3.14,2.86A4.15,4.15,0,0,1,67.93,234a4.51,4.51,0,0,1,.7,2.65v4.57h-2.2v-4.44a3.11,3.11,0,0,0-.53-2,3.06,3.06,0,0,0-1.82-.95l-3.62,3.29v4h-2.2Z" transform="translate(47.59 -124.99)"/><path class="cls-18" d="M72.6,240.39a4.16,4.16,0,0,1-1.17-3.06v-7.6h2.2v7.52a2.5,2.5,0,0,0,.72,1.95,3,3,0,0,0,2.12.66,4,4,0,0,0,3.49-2v-8.14h2.2v11.52H80V239.7a5.21,5.21,0,0,1-4.13,1.87A4.41,4.41,0,0,1,72.6,240.39Z" transform="translate(47.59 -124.99)"/><path class="cls-18" d="M72.85,226.58h5.64a1.89,1.89,0,0,1-.13-.93,1.81,1.81,0,0,1,.67-1.25,2.18,2.18,0,0,1,1.42-.47,2,2,0,0,1,1.56.58,2,2,0,0,1,.55,1.42,2,2,0,0,1-.64,1.5,2.35,2.35,0,0,1-1.67.59H72.85Zm8.3.05a1,1,0,0,0-.7-1.69.92.92,0,0,0-.69.29,1,1,0,0,0-.28.7,1,1,0,0,0,.28.71.93.93,0,0,0,.69.28A1,1,0,0,0,81.15,226.64Z" transform="translate(47.59 -124.99)"/><path class="cls-18" d="M80,224.43h2.18V228H80Z" transform="translate(47.59 -124.99)"/><path class="cls-18" d="M84.52,231.17h2.2l2.73,8.36a4.18,4.18,0,0,0,3.12-1.12,4.33,4.33,0,0,0,1.1-3.17,5.16,5.16,0,0,0-.75-3.06,2.78,2.78,0,0,0-2.41-1,5.84,5.84,0,0,0-1.51.19v-1.7a7,7,0,0,1,1.87-.24A4.6,4.6,0,0,1,94.62,231a6.49,6.49,0,0,1,1.29,4.29,6.2,6.2,0,0,1-.81,3.23,5.36,5.36,0,0,1-2.19,2.07,6.57,6.57,0,0,1-3.06.71H87.79Z" transform="translate(47.59 -124.99)"/><path class="cls-18" d="M98.92,240.66a2.36,2.36,0,0,1-.55-1.67v-5.84a4,4,0,0,1,.39-1.84,8.87,8.87,0,0,1,1.12-1.6,6.36,6.36,0,0,0,.72-.95,1.6,1.6,0,0,0,.23-.82,1.29,1.29,0,0,0-.38-1,2,2,0,0,0-1.3-.32,4.06,4.06,0,0,0-2.37.73v-1.72a5.26,5.26,0,0,1,1.41-.56,6.73,6.73,0,0,1,1.63-.19,3.35,3.35,0,0,1,2.44.8,2.78,2.78,0,0,1,.81,2.07,2.48,2.48,0,0,1-.29,1.22,7.85,7.85,0,0,1-.87,1.22,8.65,8.65,0,0,0-1,1.42,3.21,3.21,0,0,0-.33,1.53v5.3a1.09,1.09,0,0,0,.24.81,1.18,1.18,0,0,0,.82.23h.78v1.83h-1.87A2.08,2.08,0,0,1,98.92,240.66Z" transform="translate(47.59 -124.99)"/><path class="cls-18" d="M106,240.39a4.16,4.16,0,0,1-1.17-3.06v-7.6H107v7.52a2.5,2.5,0,0,0,.72,1.95,3,3,0,0,0,2.12.66,4,4,0,0,0,3.49-2v-8.14h2.2v11.52h-2.13V239.7a5.21,5.21,0,0,1-4.13,1.87A4.41,4.41,0,0,1,106,240.39Z" transform="translate(47.59 -124.99)"/><path class="cls-18" d="M118.86,240.66a2.36,2.36,0,0,1-.55-1.67v-9.26h2.2v8.66a1.09,1.09,0,0,0,.24.81,1.18,1.18,0,0,0,.82.23h.78v1.83h-1.87A2.08,2.08,0,0,1,118.86,240.66Z" transform="translate(47.59 -124.99)"/><path class="cls-18" d="M124.7,234.12a4.3,4.3,0,0,1,1.46-3.48,7.16,7.16,0,0,1,8,0,4.3,4.3,0,0,1,1.46,3.49v7.13h-2.2v-7.19a2.69,2.69,0,0,0-.86-2.19,3.65,3.65,0,0,0-2.41-.72,3.68,3.68,0,0,0-2.43.72,2.69,2.69,0,0,0-.86,2.19v2.2a2,2,0,0,1,.88-.83,3.05,3.05,0,0,1,1.42-.31h1.72v1.81H129A2.13,2.13,0,0,0,126.9,239v2.24h-2.2Z" transform="translate(47.59 -124.99)"/><path class="cls-18" d="M140,241.3a5,5,0,0,1-1.92-.79v-1.77a7.62,7.62,0,0,0,2,.85,8.33,8.33,0,0,0,2.12.29,4.6,4.6,0,0,0,2-.33,1.2,1.2,0,0,0,.62-1.15,1.32,1.32,0,0,0-.3-.9,2.47,2.47,0,0,0-.92-.6,20,20,0,0,0-1.93-.65,8,8,0,0,1-2.82-1.37,2.71,2.71,0,0,1-.93-2.19,2.79,2.79,0,0,1,1.23-2.44,5.82,5.82,0,0,1,3.36-.85,9,9,0,0,1,2.12.25,5.9,5.9,0,0,1,1.69.66v1.81a6.37,6.37,0,0,0-1.68-.71,7.31,7.31,0,0,0-1.94-.26q-2.58,0-2.58,1.55a1.23,1.23,0,0,0,.36.93,2.75,2.75,0,0,0,.95.57q.59.23,2,.64a9.32,9.32,0,0,1,2.15.88,2.82,2.82,0,0,1,1.1,1.12,3.54,3.54,0,0,1,.32,1.59,2.7,2.7,0,0,1-1.16,2.28,5.88,5.88,0,0,1-3.51.86A11.22,11.22,0,0,1,140,241.3Z" transform="translate(47.59 -124.99)"/><path class="cls-18" d="M137.36,226.58h4.33v-2.35h1.61v2.35h1.74v-2.35h1.59V228h-9.28Z" transform="translate(47.59 -124.99)"/><path class="cls-18" d="M144.53,224.43h2.18V228h-2.18Z" transform="translate(47.59 -124.99)"/><path class="cls-18" d="M151.15,241.26a6.93,6.93,0,0,1-2.11-.87v-5.73h4.78v1.77h-2.58v2.86a4.8,4.8,0,0,0,2.5.56,4.15,4.15,0,0,0,3.15-1.14,4.63,4.63,0,0,0,1.09-3.32,4.19,4.19,0,0,0-1.11-3.21,5.23,5.23,0,0,0-3.63-1,11,11,0,0,0-2.24.23,5.28,5.28,0,0,0-1.85.72v-1.74a6.84,6.84,0,0,1,2-.71,12.06,12.06,0,0,1,2.46-.24,7,7,0,0,1,4.93,1.57,5.71,5.71,0,0,1,1.7,4.41,6,6,0,0,1-1.69,4.52,6.56,6.56,0,0,1-4.79,1.66A10.61,10.61,0,0,1,151.15,241.26Z" transform="translate(47.59 -124.99)"/><path class="cls-18" d="M162.15,231.17h2.2l2.73,8.36a4.18,4.18,0,0,0,3.12-1.12,4.33,4.33,0,0,0,1.1-3.17,5.16,5.16,0,0,0-.75-3.06,2.78,2.78,0,0,0-2.41-1,5.84,5.84,0,0,0-1.51.19v-1.7a7,7,0,0,1,1.87-.24,4.6,4.6,0,0,1,3.75,1.55,6.49,6.49,0,0,1,1.29,4.29,6.2,6.2,0,0,1-.81,3.23,5.36,5.36,0,0,1-2.19,2.07,6.57,6.57,0,0,1-3.06.71h-2.07Z" transform="translate(47.59 -124.99)"/><path class="cls-18" d="M179.93,241.1a5.66,5.66,0,0,1-1.91-1.4v1.55h-2.11V229.73h2.2v8.14a4,4,0,0,0,3.49,2,3.05,3.05,0,0,0,2.12-.66,2.5,2.5,0,0,0,.72-1.95v-7.52h2.2v7.6a4.14,4.14,0,0,1-1.18,3.06,4.42,4.42,0,0,1-3.27,1.18A5.48,5.48,0,0,1,179.93,241.1Z" transform="translate(47.59 -124.99)"/><path class="cls-18" d="M177.33,226.58h4.33v-2.35h1.61v2.35H185v-2.35h1.59V228h-9.28Z" transform="translate(47.59 -124.99)"/><path class="cls-18" d="M191.11,241.26a6.93,6.93,0,0,1-2.11-.87v-5.73h4.78v1.77H191.2v2.86a4.8,4.8,0,0,0,2.5.56,4.15,4.15,0,0,0,3.15-1.14,4.63,4.63,0,0,0,1.09-3.32,4.19,4.19,0,0,0-1.11-3.21,5.23,5.23,0,0,0-3.63-1,11,11,0,0,0-2.24.23,5.28,5.28,0,0,0-1.85.72v-1.74a6.84,6.84,0,0,1,2-.71,12.06,12.06,0,0,1,2.46-.24,7,7,0,0,1,4.93,1.57,5.71,5.71,0,0,1,1.7,4.41,6,6,0,0,1-1.69,4.52,6.56,6.56,0,0,1-4.79,1.66A10.61,10.61,0,0,1,191.11,241.26Z" transform="translate(47.59 -124.99)"/><path class="cls-18" d="M204.23,241.26a6.93,6.93,0,0,1-2.11-.87v-5.73h4.78v1.77h-2.58v2.86a4.8,4.8,0,0,0,2.5.56,4.15,4.15,0,0,0,3.15-1.14,4.63,4.63,0,0,0,1.09-3.32,4.19,4.19,0,0,0-1.11-3.21,5.23,5.23,0,0,0-3.63-1,11,11,0,0,0-2.24.23,5.28,5.28,0,0,0-1.85.72v-1.74a6.84,6.84,0,0,1,2-.71,12.06,12.06,0,0,1,2.46-.24,7,7,0,0,1,4.93,1.57,5.71,5.71,0,0,1,1.7,4.41,6,6,0,0,1-1.69,4.52,6.56,6.56,0,0,1-4.79,1.66A10.61,10.61,0,0,1,204.23,241.26Z" transform="translate(47.59 -124.99)"/><path class="cls-18" d="M217.34,241.26a6.93,6.93,0,0,1-2.11-.87v-5.73H220v1.77h-2.58v2.86a4.8,4.8,0,0,0,2.5.56,4.15,4.15,0,0,0,3.15-1.14,4.63,4.63,0,0,0,1.09-3.32,4.19,4.19,0,0,0-1.11-3.21,5.23,5.23,0,0,0-3.63-1,11,11,0,0,0-2.24.23,5.28,5.28,0,0,0-1.85.72v-1.74a6.84,6.84,0,0,1,2-.71,12.06,12.06,0,0,1,2.46-.24,7,7,0,0,1,4.93,1.57,5.71,5.71,0,0,1,1.7,4.41,6,6,0,0,1-1.69,4.52,6.56,6.56,0,0,1-4.79,1.66A10.61,10.61,0,0,1,217.34,241.26Z" transform="translate(47.59 -124.99)"/><path class="cls-18" d="M229.95,240.39a4.16,4.16,0,0,1-1.17-3.06v-7.6H231v7.52a2.5,2.5,0,0,0,.72,1.95,3,3,0,0,0,2.12.66,4,4,0,0,0,3.49-2v-8.14h2.2v11.52h-2.13V239.7a5.21,5.21,0,0,1-4.13,1.87A4.41,4.41,0,0,1,229.95,240.39Z" transform="translate(47.59 -124.99)"/><path class="cls-18" d="M243.58,240.64A2.36,2.36,0,0,1,243,239V230.8a5.89,5.89,0,0,1,.41-2.37,3.43,3.43,0,0,1,1.38-1.53H240.9v-1.85h6.78v1.77a4.12,4.12,0,0,0-1.87,1.44,4.44,4.44,0,0,0-.58,2.46v7.62a1.09,1.09,0,0,0,.24.81,1.18,1.18,0,0,0,.82.23h.77v1.85h-1.87A2.08,2.08,0,0,1,243.58,240.64Z" transform="translate(47.59 -124.99)"/><path class="cls-18" d="M250.11,240.61a3.37,3.37,0,0,1-1.13-2.72,3.41,3.41,0,0,1,1.26-2.78,5.22,5.22,0,0,1,3.41-1,8.93,8.93,0,0,1,3.83.8V234a2.67,2.67,0,0,0-.81-2.16,4.18,4.18,0,0,0-2.68-.68,10.46,10.46,0,0,0-2,.19,7.36,7.36,0,0,0-1.72.54v-1.72a7.43,7.43,0,0,1,1.82-.54,12.32,12.32,0,0,1,2.25-.21,5.78,5.78,0,0,1,4,1.23,4.28,4.28,0,0,1,1.33,3.32v7.3h-2.2v-4.63a7.85,7.85,0,0,0-3.6-.8,3.32,3.32,0,0,0-2.06.52,1.85,1.85,0,0,0-.66,1.55q0,2,2.52,2a3.9,3.9,0,0,0,1.36-.22v1.7a6.54,6.54,0,0,1-1.9.24A4.56,4.56,0,0,1,250.11,240.61Z" transform="translate(47.59 -124.99)"/><path class="cls-18" d="M263.65,240.39a4.16,4.16,0,0,1-1.17-3.06v-7.6h2.2v7.52a2.5,2.5,0,0,0,.72,1.95,3,3,0,0,0,2.12.66,4,4,0,0,0,3.49-2v-8.14h2.2v11.52h-2.13V239.7a5.21,5.21,0,0,1-4.13,1.87A4.41,4.41,0,0,1,263.65,240.39Z" transform="translate(47.59 -124.99)"/><path class="cls-18" d="M268.05,226.8q0-1.68,1.83-1.68h4.76v1.44h-3.9a.57.57,0,0,0-.69.69V228h-2Z" transform="translate(47.59 -124.99)"/><path class="cls-18" d="M276,229.73h2.2v5.08l5.58-5.08h2.56l-3.14,2.86a4.15,4.15,0,0,1,2.47,1.44,4.51,4.51,0,0,1,.7,2.65v4.57h-2.2v-4.44a3.11,3.11,0,0,0-.53-2,3.06,3.06,0,0,0-1.82-.95l-3.62,3.29v4H276Z" transform="translate(47.59 -124.99)"/><path class="cls-18" d="M289.86,240.61a3.37,3.37,0,0,1-1.13-2.72,3.41,3.41,0,0,1,1.26-2.78,5.22,5.22,0,0,1,3.41-1,8.93,8.93,0,0,1,3.83.8V234a2.67,2.67,0,0,0-.81-2.16,4.18,4.18,0,0,0-2.68-.68,10.46,10.46,0,0,0-2,.19,7.36,7.36,0,0,0-1.72.54v-1.72a7.43,7.43,0,0,1,1.82-.54,12.32,12.32,0,0,1,2.25-.21,5.78,5.78,0,0,1,4,1.23,4.28,4.28,0,0,1,1.33,3.32v7.3h-2.2v-4.63a7.85,7.85,0,0,0-3.6-.8,3.32,3.32,0,0,0-2.06.52,1.85,1.85,0,0,0-.66,1.55q0,2,2.52,2a3.9,3.9,0,0,0,1.36-.22v1.7a6.54,6.54,0,0,1-1.9.24A4.56,4.56,0,0,1,289.86,240.61Z" transform="translate(47.59 -124.99)"/><path class="cls-18" d="M294,227.56a2,2,0,0,1-.42-1.39v-1.12h2v.86a.67.67,0,0,0,.14.5.8.8,0,0,0,.53.13h5.08V228h-6A1.74,1.74,0,0,1,294,227.56Z" transform="translate(47.59 -124.99)"/><path class="cls-18" d="M302.88,234.08l-1.08-1.74a7.85,7.85,0,0,1,2.61-2.19,7.58,7.58,0,0,1,3.47-.74,6,6,0,0,1,4,1.17,4.08,4.08,0,0,1,1.38,3.28v7.39H311V234a2.79,2.79,0,0,0-.79-2.19,3.45,3.45,0,0,0-2.36-.7,5.68,5.68,0,0,0-2.09.36,4.5,4.5,0,0,0-1.64,1.13l.93,1.44v7.17h-2.2Z" transform="translate(47.59 -124.99)"/><path class="cls-18" d="M26.55,266.87a4,4,0,0,1-1.75-1.52,4.15,4.15,0,0,1-.61-2.25v-.73a2.93,2.93,0,0,1,.3-1.33,10.14,10.14,0,0,1,.88-1.4,7.51,7.51,0,0,0,.6-.89,1.42,1.42,0,0,0,.19-.68.73.73,0,0,0-.2-.58,1.06,1.06,0,0,0-.68-.17H24.07v-1.74h2.26a2,2,0,0,1,1.5.55,2,2,0,0,1,.55,1.45,2.58,2.58,0,0,1-.26,1.15,10.55,10.55,0,0,1-.78,1.28,10.76,10.76,0,0,0-.74,1.25,2.37,2.37,0,0,0-.23,1v.8A2.52,2.52,0,0,0,27.1,265a3,3,0,0,0,2.14.68,2.84,2.84,0,0,0,2.11-.7,2.69,2.69,0,0,0,.69-2v-7.45h2.2v7.08a4.63,4.63,0,0,1-1.31,3.49,5.08,5.08,0,0,1-3.68,1.27A6.25,6.25,0,0,1,26.55,266.87Z" transform="translate(47.59 -124.99)"/><path class="cls-18" d="M38.72,267.1a6.93,6.93,0,0,1-2.11-.87V260.5h4.78v1.77H38.8v2.86a4.8,4.8,0,0,0,2.5.56,4.15,4.15,0,0,0,3.15-1.14,4.63,4.63,0,0,0,1.09-3.32A4.19,4.19,0,0,0,44.43,258a5.23,5.23,0,0,0-3.63-1,11,11,0,0,0-2.24.23,5.28,5.28,0,0,0-1.85.72v-1.74a6.84,6.84,0,0,1,2-.71,12.06,12.06,0,0,1,2.46-.24,7,7,0,0,1,4.93,1.57,5.71,5.71,0,0,1,1.7,4.41,6,6,0,0,1-1.69,4.52,6.56,6.56,0,0,1-4.79,1.66A10.61,10.61,0,0,1,38.72,267.1Z" transform="translate(47.59 -124.99)"/><path class="cls-18" d="M50.79,266.5a2.36,2.36,0,0,1-.55-1.67V259a4,4,0,0,1,.39-1.84,8.87,8.87,0,0,1,1.12-1.6,6.36,6.36,0,0,0,.72-.95,1.6,1.6,0,0,0,.23-.82,1.29,1.29,0,0,0-.38-1,2,2,0,0,0-1.3-.32,4.06,4.06,0,0,0-2.37.73v-1.72a5.26,5.26,0,0,1,1.41-.56,6.73,6.73,0,0,1,1.63-.19,3.35,3.35,0,0,1,2.44.8,2.78,2.78,0,0,1,.81,2.07,2.48,2.48,0,0,1-.29,1.22,7.85,7.85,0,0,1-.87,1.22,8.65,8.65,0,0,0-1,1.42,3.21,3.21,0,0,0-.33,1.53v5.3a1.09,1.09,0,0,0,.24.81,1.18,1.18,0,0,0,.82.23h.78v1.83H52.39A2.08,2.08,0,0,1,50.79,266.5Z" transform="translate(47.59 -124.99)"/><path class="cls-18" d="M56.65,255.57h2.2v5.08l5.58-5.08H67l-3.14,2.86a4.15,4.15,0,0,1,2.47,1.44,4.51,4.51,0,0,1,.7,2.65v4.57h-2.2v-4.44a3.11,3.11,0,0,0-.53-2,3.06,3.06,0,0,0-1.82-.95L58.85,263v4h-2.2Z" transform="translate(47.59 -124.99)"/><path class="cls-18" d="M62.38,252.51a.54.54,0,0,0-.1-.37.46.46,0,0,0-.36-.11H61v-1.55h1.61a1.32,1.32,0,0,1,1,.33,1.17,1.17,0,0,1,.31.83v.75H68.3v1.46H62.38Z" transform="translate(47.59 -124.99)"/><path class="cls-18" d="M70.45,266.5a2.36,2.36,0,0,1-.55-1.67V259a4,4,0,0,1,.39-1.84,8.87,8.87,0,0,1,1.12-1.6,6.36,6.36,0,0,0,.72-.95,1.6,1.6,0,0,0,.23-.82,1.29,1.29,0,0,0-.38-1,2,2,0,0,0-1.3-.32,4.06,4.06,0,0,0-2.37.73v-1.72a5.26,5.26,0,0,1,1.41-.56,6.73,6.73,0,0,1,1.63-.19,3.35,3.35,0,0,1,2.44.8,2.78,2.78,0,0,1,.81,2.07,2.48,2.48,0,0,1-.29,1.22,7.85,7.85,0,0,1-.87,1.22,8.65,8.65,0,0,0-1,1.42,3.21,3.21,0,0,0-.33,1.53v5.3a1.09,1.09,0,0,0,.24.81,1.18,1.18,0,0,0,.82.23h.78v1.83H72.05A2.08,2.08,0,0,1,70.45,266.5Z" transform="translate(47.59 -124.99)"/><path class="cls-18" d="M78.43,266.87a4.16,4.16,0,0,1-1.8-1.52,4,4,0,0,1-.64-2.25v-.73a3,3,0,0,1,.32-1.37,9.89,9.89,0,0,1,.88-1.39,8.18,8.18,0,0,0,.59-.9,1.39,1.39,0,0,0,.18-.65.73.73,0,0,0-.2-.58,1.06,1.06,0,0,0-.68-.17H75.88v-1.74h2.26a2,2,0,0,1,1.5.55,2,2,0,0,1,.55,1.45,2.58,2.58,0,0,1-.26,1.15,10.55,10.55,0,0,1-.78,1.28,10.76,10.76,0,0,0-.74,1.25,2.37,2.37,0,0,0-.23,1v.8A2.43,2.43,0,0,0,79,265a3.1,3.1,0,0,0,5.25-2.46,3.57,3.57,0,0,0-.65-2.33,2.33,2.33,0,0,0-1.9-.78v-1.18l2.3-3h2.37l-2.43,3.21A3.54,3.54,0,0,1,85.82,260a5.08,5.08,0,0,1,.59,2.57,4.93,4.93,0,0,1-.66,2.58,4.34,4.34,0,0,1-1.86,1.69,6.22,6.22,0,0,1-2.78.59A6.33,6.33,0,0,1,78.43,266.87Z" transform="translate(47.59 -124.99)"/><path class="cls-18" d="M81.46,252.51a.54.54,0,0,0-.1-.37A.46.46,0,0,0,81,252H80v-1.55h1.61a1.32,1.32,0,0,1,1,.33,1.17,1.17,0,0,1,.31.83v.75h4.41v1.46H81.46Z" transform="translate(47.59 -124.99)"/><path class="cls-18" d="M90.57,267.1a6.93,6.93,0,0,1-2.11-.87V260.5h4.78v1.77H90.66v2.86a4.8,4.8,0,0,0,2.5.56,4.15,4.15,0,0,0,3.15-1.14,4.63,4.63,0,0,0,1.09-3.32A4.19,4.19,0,0,0,96.29,258a5.23,5.23,0,0,0-3.63-1,11,11,0,0,0-2.24.23,5.28,5.28,0,0,0-1.85.72v-1.74a6.84,6.84,0,0,1,2-.71,12.06,12.06,0,0,1,2.46-.24,7,7,0,0,1,4.93,1.57,5.71,5.71,0,0,1,1.7,4.41,6,6,0,0,1-1.69,4.52,6.56,6.56,0,0,1-4.79,1.66A10.61,10.61,0,0,1,90.57,267.1Z" transform="translate(47.59 -124.99)"/><path class="cls-18" d="M103.06,266.47a3.07,3.07,0,0,1-1.49-2.76,2.75,2.75,0,0,1,.53-1.67,2.72,2.72,0,0,1,1.41-1,3.23,3.23,0,0,1-1.35-1.06,2.62,2.62,0,0,1-.51-1.59,2.93,2.93,0,0,1,.95-2.28,4,4,0,0,1,2.78-.86,8.42,8.42,0,0,1,1.92.24v1.72a3.08,3.08,0,0,0-.72-.16,6.87,6.87,0,0,0-.81-.05,2.17,2.17,0,0,0-1.41.4,1.38,1.38,0,0,0-.48,1.13,1.42,1.42,0,0,0,.52,1.18,2.43,2.43,0,0,0,1.53.41h1.38v1.81h-1.36a2.52,2.52,0,0,0-1.59.44,1.76,1.76,0,0,0,.31,2.81,4.66,4.66,0,0,0,2.38.52q3.55,0,3.55-3v-7.11h2.2v7.06a4.94,4.94,0,0,1-.56,2.29,4.31,4.31,0,0,1-1.84,1.79,7,7,0,0,1-3.35.7A7.34,7.34,0,0,1,103.06,266.47Z" transform="translate(47.59 -124.99)"/><path class="cls-18" d="M110.66,250.27h2.18v3.6h-2.18Z" transform="translate(47.59 -124.99)"/><path class="cls-18" d="M119.64,259.64a3,3,0,0,0-.56-2,2.55,2.55,0,0,0-2-.64,5.69,5.69,0,0,0-2.58.6v-1.72a5.92,5.92,0,0,1,1.35-.44,7.68,7.68,0,0,1,1.65-.18,4.2,4.2,0,0,1,3.25,1.17,4.81,4.81,0,0,1,1.08,3.37v7.3h-2.2Z" transform="translate(47.59 -124.99)"/><path class="cls-18" d="M124.21,257h2.2l2.73,8.36a4.18,4.18,0,0,0,3.12-1.12,4.33,4.33,0,0,0,1.1-3.17,5.16,5.16,0,0,0-.75-3.06,2.78,2.78,0,0,0-2.41-1,5.84,5.84,0,0,0-1.51.19v-1.7a7,7,0,0,1,1.87-.24,4.6,4.6,0,0,1,3.75,1.55,6.49,6.49,0,0,1,1.29,4.29,6.2,6.2,0,0,1-.81,3.23,5.36,5.36,0,0,1-2.19,2.07,6.57,6.57,0,0,1-3.06.71h-2.07Z" transform="translate(47.59 -124.99)"/><path class="cls-18" d="M138.52,266.5a2.36,2.36,0,0,1-.55-1.67v-9.26h2.2v8.66a1.09,1.09,0,0,0,.24.81,1.18,1.18,0,0,0,.82.23H142v1.83h-1.87A2.08,2.08,0,0,1,138.52,266.5Z" transform="translate(47.59 -124.99)"/><path class="cls-18" d="M145.41,265.95a5.81,5.81,0,0,1-1.48-4.31,9.73,9.73,0,0,1,.54-3.4,5.12,5.12,0,0,1,1.48-2.22,3.27,3.27,0,0,1,2.14-.78,2.37,2.37,0,0,1,2.3,1.31,2.25,2.25,0,0,1,1.1-1,4,4,0,0,1,1.64-.32,2.66,2.66,0,0,1,2.23.95,4,4,0,0,1,.74,2.54v8.36h-2.2v-8.2a2.67,2.67,0,0,0-.3-1.43,1.14,1.14,0,0,0-1-.46,1.48,1.48,0,0,0-1.53,1.33h-1.29a1.88,1.88,0,0,0-.42-1,1.16,1.16,0,0,0-.89-.33,1.88,1.88,0,0,0-1.65,1.21,7.54,7.54,0,0,0-.64,3.45,4.42,4.42,0,0,0,.9,3.06,3.58,3.58,0,0,0,2.78,1,5,5,0,0,0,1.51-.22v1.7a6.33,6.33,0,0,1-1.87.24A5.51,5.51,0,0,1,145.41,265.95Z" transform="translate(47.59 -124.99)"/><path class="cls-18" d="M148.11,253.31a2.23,2.23,0,0,1-.67-1.68,2.51,2.51,0,0,1,.75-2,3,3,0,0,1,2.07-.67h5.1v1.25h-5a1.65,1.65,0,0,0-1.09.3,1.18,1.18,0,0,0-.35.95,1.2,1.2,0,0,0,.3.88,1.13,1.13,0,0,0,.84.3,1.21,1.21,0,0,0,.92-.32,1.18,1.18,0,0,0,.31-.86h1.25q0,1.1,1.21,1.1H155v1.29h-1.18a2.47,2.47,0,0,1-1.23-.29,1.26,1.26,0,0,1-.65-.72,1.64,1.64,0,0,1-.73.76,2.77,2.77,0,0,1-3.1-.31Z" transform="translate(47.59 -124.99)"/><path class="cls-18" d="M162.91,266.94a5.66,5.66,0,0,1-1.91-1.4v1.55H158.9V255.57h2.2v8.14a4,4,0,0,0,3.49,2,3.05,3.05,0,0,0,2.12-.66,2.5,2.5,0,0,0,.72-1.95v-7.52h2.2v7.6a4.14,4.14,0,0,1-1.18,3.06,4.42,4.42,0,0,1-3.27,1.18A5.48,5.48,0,0,1,162.91,266.94Z" transform="translate(47.59 -124.99)"/><path class="cls-18" d="M175,266.81a4.52,4.52,0,0,1-1.93-1.69,4.6,4.6,0,0,1-.68-2.49v-7.06h2.2v7a3,3,0,0,0,.85,2.27,4.11,4.11,0,0,0,5,0,3,3,0,0,0,.85-2.27V251.71h2.2v10.92a4.6,4.6,0,0,1-.68,2.49,4.52,4.52,0,0,1-1.93,1.69,7.36,7.36,0,0,1-5.84,0Z" transform="translate(47.59 -124.99)"/><path class="cls-18" d="M187.82,267.14a5,5,0,0,1-1.92-.79v-1.77a7.62,7.62,0,0,0,2,.85,8.33,8.33,0,0,0,2.12.29,4.6,4.6,0,0,0,2-.33,1.2,1.2,0,0,0,.62-1.15,1.32,1.32,0,0,0-.3-.9,2.47,2.47,0,0,0-.92-.6,20,20,0,0,0-1.93-.65,8,8,0,0,1-2.82-1.37,2.71,2.71,0,0,1-.93-2.19,2.79,2.79,0,0,1,1.23-2.44,5.82,5.82,0,0,1,3.36-.85,9,9,0,0,1,2.12.25,5.9,5.9,0,0,1,1.69.66V258a6.37,6.37,0,0,0-1.68-.71,7.31,7.31,0,0,0-1.94-.26q-2.58,0-2.58,1.55a1.23,1.23,0,0,0,.36.93,2.75,2.75,0,0,0,.95.57q.59.23,2,.64a9.32,9.32,0,0,1,2.15.88,2.82,2.82,0,0,1,1.1,1.12,3.54,3.54,0,0,1,.32,1.59,2.7,2.7,0,0,1-1.16,2.28,5.88,5.88,0,0,1-3.51.86A11.22,11.22,0,0,1,187.82,267.14Z" transform="translate(47.59 -124.99)"/><path class="cls-18" d="M197.23,259.66a1.91,1.91,0,0,1-.39-1.31v-1.23h2v.82a.64.64,0,0,0,.15.48.79.79,0,0,0,.54.14H202v1.53h-3.47A1.73,1.73,0,0,1,197.23,259.66Zm0,5.88a1.91,1.91,0,0,1-.39-1.31V263h2v.82a.64.64,0,0,0,.15.48.79.79,0,0,0,.54.14H202V266h-3.47A1.73,1.73,0,0,1,197.23,265.54Z" transform="translate(47.59 -124.99)"/><path class="cls-18" d="M205.1,266.45a3.37,3.37,0,0,1-1.13-2.72,3.41,3.41,0,0,1,1.26-2.78,5.22,5.22,0,0,1,3.41-1,8.93,8.93,0,0,1,3.83.8v-.88a2.67,2.67,0,0,0-.81-2.16A4.18,4.18,0,0,0,209,257a10.46,10.46,0,0,0-2,.19,7.36,7.36,0,0,0-1.72.54V256a7.43,7.43,0,0,1,1.82-.54,12.32,12.32,0,0,1,2.25-.21,6.64,6.64,0,0,1,3.23.71l1.1-1.25h2.43l-2.17,2.43a4.48,4.48,0,0,1,.77,2.65v7.3h-2.2v-4.63a7.85,7.85,0,0,0-3.6-.8,3.32,3.32,0,0,0-2.06.52,1.85,1.85,0,0,0-.66,1.55q0,2,2.52,2a3.9,3.9,0,0,0,1.36-.22v1.7a6.54,6.54,0,0,1-1.9.24A4.56,4.56,0,0,1,205.1,266.45Z" transform="translate(47.59 -124.99)"/><path class="cls-18" d="M205.67,252.38H215v1.49h-9.3Z" transform="translate(47.59 -124.99)"/><path class="cls-18" d="M217.79,255.57h2.11v1.55a5.29,5.29,0,0,1,2-1.41,6,6,0,0,1,2.29-.46,4.28,4.28,0,0,1,3.23,1.16,4.14,4.14,0,0,1,1.12,3v7.69h-2.2v-7.58a2.5,2.5,0,0,0-.67-1.86,2.85,2.85,0,0,0-2.07-.66,4,4,0,0,0-3.6,2v8.14h-2.2Z" transform="translate(47.59 -124.99)"/><path class="cls-18" d="M232.33,266.5a2.87,2.87,0,0,1-1.4-2.53v-1.44h2.17v1.31a1.55,1.55,0,0,0,.79,1.43,4.17,4.17,0,0,0,2.12.46,4,4,0,0,0,2.06-.43,1.43,1.43,0,0,0,.72-1.31,1.67,1.67,0,0,0-.32-1.1,2.3,2.3,0,0,0-1-.63,22.28,22.28,0,0,0-2.21-.61,16,16,0,0,1-2.38-.72,3.76,3.76,0,0,1-1.45-1,2.38,2.38,0,0,1-.54-1.62,2.46,2.46,0,0,1,1.37-2.31,7.39,7.39,0,0,1,3.54-.74,11.82,11.82,0,0,1,2.5.27,7.29,7.29,0,0,1,2,.68V258a6.89,6.89,0,0,0-1.94-.74A10,10,0,0,0,236,257a7.1,7.1,0,0,0-2.21.26,1,1,0,0,0-.74,1.05,1,1,0,0,0,.34.78,2.79,2.79,0,0,0,.93.51q.58.21,1.74.51l.78.22a13.85,13.85,0,0,1,2.37.83,3.08,3.08,0,0,1,1.29,1.1A3.23,3.23,0,0,1,241,264a2.93,2.93,0,0,1-1.29,2.49,6.16,6.16,0,0,1-3.66.94A6.64,6.64,0,0,1,232.33,266.5Z" transform="translate(47.59 -124.99)"/><path class="cls-18" d="M231.21,252.38h9.3v1.49h-9.3Z" transform="translate(47.59 -124.99)"/><path class="cls-18" d="M242.9,265.26h.9a1.09,1.09,0,0,0,.8-.23,1.25,1.25,0,0,0,.22-.85v-4.26l-1.51-1.74a7.21,7.21,0,0,1,6.09-2.93,5.91,5.91,0,0,1,3.94,1.17,4.08,4.08,0,0,1,1.38,3.28v7.39h-2.2v-7.21a2.76,2.76,0,0,0-.8-2.19,3.46,3.46,0,0,0-2.35-.7,5.74,5.74,0,0,0-2.06.33,4.46,4.46,0,0,0-1.6,1.09L247,259.9v4.93a2.32,2.32,0,0,1-.57,1.66,2.16,2.16,0,0,1-1.65.6h-1.9Z" transform="translate(47.59 -124.99)"/><path class="cls-18" d="M261.57,259.64a3,3,0,0,0-.56-2,2.55,2.55,0,0,0-2-.64,5.69,5.69,0,0,0-2.58.6v-1.72a5.92,5.92,0,0,1,1.35-.44,7.68,7.68,0,0,1,1.65-.18,4.2,4.2,0,0,1,3.25,1.17,4.81,4.81,0,0,1,1.08,3.37v7.3h-2.2Z" transform="translate(47.59 -124.99)"/><path class="cls-18" d="M265.92,255.57h2.2l2.09,8.44,2.5-8.44h1.68l2.48,8.44,2.11-8.44h2.2L278,267.09h-1.85l-2.56-8.66L271,267.09h-1.85Z" transform="translate(47.59 -124.99)"/><path class="cls-18" d="M283.26,267a1.27,1.27,0,0,1,.9-2.17,1.27,1.27,0,0,1,.92.37,1.27,1.27,0,0,1,0,1.81,1.27,1.27,0,0,1-.92.37A1.23,1.23,0,0,1,283.26,267Zm-.13-15h2.11v10.75h-2.11Z" transform="translate(47.59 -124.99)"/><path class="cls-18" d="M26.55,292.71a4,4,0,0,1-1.75-1.52,4.15,4.15,0,0,1-.61-2.25v-.73a2.93,2.93,0,0,1,.3-1.33,10.14,10.14,0,0,1,.88-1.4,7.51,7.51,0,0,0,.6-.89,1.42,1.42,0,0,0,.19-.68.73.73,0,0,0-.2-.58,1.06,1.06,0,0,0-.68-.17H24.07v-1.74h2.26a2,2,0,0,1,1.5.55,2,2,0,0,1,.55,1.45,2.58,2.58,0,0,1-.26,1.15,10.55,10.55,0,0,1-.78,1.28,10.76,10.76,0,0,0-.74,1.25,2.37,2.37,0,0,0-.23,1v.8a2.52,2.52,0,0,0,.72,1.93,3,3,0,0,0,2.14.68,2.84,2.84,0,0,0,2.11-.7,2.69,2.69,0,0,0,.69-2v-7.45h2.2v7.08A4.63,4.63,0,0,1,32.92,292a5.08,5.08,0,0,1-3.68,1.27A6.25,6.25,0,0,1,26.55,292.71Z" transform="translate(47.59 -124.99)"/><path class="cls-18" d="M29.61,278.35a.54.54,0,0,0-.1-.37.46.46,0,0,0-.36-.11h-1v-1.55H29.8a1.32,1.32,0,0,1,1,.33,1.17,1.17,0,0,1,.31.83v.75h4.41v1.46H29.61Z" transform="translate(47.59 -124.99)"/><path class="cls-18" d="M38.72,292.94a6.93,6.93,0,0,1-2.11-.87v-5.73h4.78v1.77H38.8V291a4.8,4.8,0,0,0,2.5.56,4.15,4.15,0,0,0,3.15-1.14,4.63,4.63,0,0,0,1.09-3.32,4.19,4.19,0,0,0-1.11-3.21,5.23,5.23,0,0,0-3.63-1,11,11,0,0,0-2.24.23,5.28,5.28,0,0,0-1.85.72V282a6.84,6.84,0,0,1,2-.71,12.06,12.06,0,0,1,2.46-.24,7,7,0,0,1,4.93,1.57,5.71,5.71,0,0,1,1.7,4.41,6,6,0,0,1-1.69,4.52,6.56,6.56,0,0,1-4.79,1.66A10.61,10.61,0,0,1,38.72,292.94Z" transform="translate(47.59 -124.99)"/><path class="cls-18" d="M54.17,292.78a5.66,5.66,0,0,1-1.91-1.4v1.55H50.15V281.41h2.2v8.14a4,4,0,0,0,3.49,2,3.05,3.05,0,0,0,2.12-.66,2.5,2.5,0,0,0,.72-1.95v-7.52h2.2V289a4.14,4.14,0,0,1-1.18,3.06,4.42,4.42,0,0,1-3.27,1.18A5.48,5.48,0,0,1,54.17,292.78Z" transform="translate(47.59 -124.99)"/><path class="cls-18" d="M56.13,298.21a1.79,1.79,0,0,1-.74-1.51v-.58a.64.64,0,0,0-.09-.4.49.49,0,0,0-.37-.1H54.2v-1.46h1.9a1,1,0,0,1,.8.26,1.31,1.31,0,0,1,.22.84v1.23q0,.95,1,.95t1-.95v-2.33h1.72v2.48a1.92,1.92,0,0,1-.7,1.54,3,3,0,0,1-2,.59A3.38,3.38,0,0,1,56.13,298.21Z" transform="translate(47.59 -124.99)"/><path class="cls-18" d="M64.38,292.29a3.37,3.37,0,0,1-1.13-2.72,3.41,3.41,0,0,1,1.26-2.78,5.22,5.22,0,0,1,3.41-1,8.93,8.93,0,0,1,3.83.8v-.88a2.67,2.67,0,0,0-.81-2.16,4.18,4.18,0,0,0-2.68-.68,10.46,10.46,0,0,0-2,.19,7.36,7.36,0,0,0-1.72.54v-1.72a7.43,7.43,0,0,1,1.82-.54,12.32,12.32,0,0,1,2.25-.21,5.78,5.78,0,0,1,4,1.23,4.28,4.28,0,0,1,1.33,3.32v7.3h-2.2V288.3a7.85,7.85,0,0,0-3.6-.8,3.32,3.32,0,0,0-2.06.52,1.85,1.85,0,0,0-.66,1.55q0,2,2.52,2a3.9,3.9,0,0,0,1.36-.22V293a6.54,6.54,0,0,1-1.9.24A4.56,4.56,0,0,1,64.38,292.29Z" transform="translate(47.59 -124.99)"/><path class="cls-18" d="M77.3,292.34a2.36,2.36,0,0,1-.55-1.67v-9.26h2.2v8.66a1.09,1.09,0,0,0,.24.81,1.18,1.18,0,0,0,.82.23h.78v1.83H78.9A2.08,2.08,0,0,1,77.3,292.34Z" transform="translate(47.59 -124.99)"/><path class="cls-18" d="M82.5,281.41h2.2l2.09,8.44,2.5-8.44H91l2.48,8.44,2.11-8.44h2.2l-3.21,11.52H92.68l-2.56-8.66-2.58,8.66H85.68Z" transform="translate(47.59 -124.99)"/><path class="cls-18" d="M87.77,278.22h9.3v1.49h-9.3Z" transform="translate(47.59 -124.99)"/><path class="cls-18" d="M95,276.11h2.18v3.6H95Z" transform="translate(47.59 -124.99)"/><path class="cls-18" d="M103.91,292.78a5.66,5.66,0,0,1-1.91-1.4v1.55H99.9V281.41h2.2v8.14a4,4,0,0,0,3.49,2,3.05,3.05,0,0,0,2.12-.66,2.5,2.5,0,0,0,.72-1.95v-7.52h2.2V289a4.14,4.14,0,0,1-1.18,3.06,4.42,4.42,0,0,1-3.27,1.18A5.48,5.48,0,0,1,103.91,292.78Z" transform="translate(47.59 -124.99)"/><path class="cls-18" d="M114,292.34a2.36,2.36,0,0,1-.55-1.67v-9.26h2.2v8.66a1.09,1.09,0,0,0,.24.81,1.18,1.18,0,0,0,.82.23h.78v1.83h-1.87A2.08,2.08,0,0,1,114,292.34Z" transform="translate(47.59 -124.99)"/><path class="cls-18" d="M120.86,291.79a5.81,5.81,0,0,1-1.48-4.31,9.73,9.73,0,0,1,.54-3.4,5.12,5.12,0,0,1,1.48-2.22,3.27,3.27,0,0,1,2.14-.78,2.37,2.37,0,0,1,2.3,1.31,2.25,2.25,0,0,1,1.1-1,4,4,0,0,1,1.64-.32,2.66,2.66,0,0,1,2.23.95,4,4,0,0,1,.74,2.54v8.36h-2.2v-8.2a2.67,2.67,0,0,0-.3-1.43,1.14,1.14,0,0,0-1-.46,1.48,1.48,0,0,0-1.53,1.33H125.2a1.88,1.88,0,0,0-.42-1,1.16,1.16,0,0,0-.89-.33,1.88,1.88,0,0,0-1.65,1.21,7.54,7.54,0,0,0-.64,3.45,4.42,4.42,0,0,0,.9,3.06,3.58,3.58,0,0,0,2.78,1,5,5,0,0,0,1.51-.22V293a6.33,6.33,0,0,1-1.87.24A5.51,5.51,0,0,1,120.86,291.79Z" transform="translate(47.59 -124.99)"/><path class="cls-18" d="M122.23,278.22h9.3v1.49h-9.3Z" transform="translate(47.59 -124.99)"/><path class="cls-18" d="M138.37,292.78a5.66,5.66,0,0,1-1.91-1.4v1.55h-2.11V281.41h2.2v8.14a4,4,0,0,0,3.49,2,3.05,3.05,0,0,0,2.12-.66,2.5,2.5,0,0,0,.72-1.95v-7.52h2.2V289a4.14,4.14,0,0,1-1.18,3.06,4.42,4.42,0,0,1-3.27,1.18A5.48,5.48,0,0,1,138.37,292.78Z" transform="translate(47.59 -124.99)"/><path class="cls-18" d="M148.42,292.34a2.36,2.36,0,0,1-.55-1.67v-9.26h2.2v8.66a1.09,1.09,0,0,0,.24.81,1.18,1.18,0,0,0,.82.23h.78v1.83H150A2.08,2.08,0,0,1,148.42,292.34Z" transform="translate(47.59 -124.99)"/><path class="cls-18" d="M154.91,285.76,153.84,284a7.85,7.85,0,0,1,2.61-2.19,7.58,7.58,0,0,1,3.47-.74,6,6,0,0,1,4,1.17,4.08,4.08,0,0,1,1.38,3.28v7.39h-2.2v-7.21a2.79,2.79,0,0,0-.79-2.19,3.45,3.45,0,0,0-2.36-.7,5.68,5.68,0,0,0-2.09.36,4.5,4.5,0,0,0-1.64,1.13l.93,1.44v7.17h-2.2Z" transform="translate(47.59 -124.99)"/><path class="cls-18" d="M155.93,278.22h7.3v-2.3h2v3.79h-9.3Z" transform="translate(47.59 -124.99)"/><path class="cls-18" d="M163.12,276.11h2.18v3.6h-2.18Z" transform="translate(47.59 -124.99)"/><path class="cls-18" d="M169.11,292.31a3.07,3.07,0,0,1-1.49-2.76,2.75,2.75,0,0,1,.53-1.67,2.72,2.72,0,0,1,1.41-1,3.23,3.23,0,0,1-1.35-1.06,2.62,2.62,0,0,1-.51-1.59,2.93,2.93,0,0,1,.95-2.28,4,4,0,0,1,2.78-.86,8.42,8.42,0,0,1,1.92.24V283a3.08,3.08,0,0,0-.72-.16,6.87,6.87,0,0,0-.81-.05,2.17,2.17,0,0,0-1.41.4,1.38,1.38,0,0,0-.48,1.13,1.42,1.42,0,0,0,.52,1.18A2.43,2.43,0,0,0,172,286h1.38v1.81H172a2.52,2.52,0,0,0-1.59.44,1.76,1.76,0,0,0,.31,2.81,4.66,4.66,0,0,0,2.38.52q3.55,0,3.55-3v-7.11h2.2v7.06a4.94,4.94,0,0,1-.56,2.29,4.31,4.31,0,0,1-1.84,1.79,7,7,0,0,1-3.35.7A7.34,7.34,0,0,1,169.11,292.31Z" transform="translate(47.59 -124.99)"/><path class="cls-18" d="M181.21,292.28v-1.77a6.42,6.42,0,0,0,3.77,1,4.62,4.62,0,0,0,3.28-1.1,5.09,5.09,0,0,0,0-6.5,4.62,4.62,0,0,0-3.28-1.1,6.41,6.41,0,0,0-3.73,1v-1.79a7.64,7.64,0,0,1,4.16-1,6.37,6.37,0,0,1,4.59,1.6,6.83,6.83,0,0,1,0,9,6.39,6.39,0,0,1-4.59,1.59A7.66,7.66,0,0,1,181.21,292.28Z" transform="translate(47.59 -124.99)"/><path class="cls-18" d="M194.69,285.76,193.61,284a7.85,7.85,0,0,1,2.61-2.19,7.58,7.58,0,0,1,3.47-.74,6,6,0,0,1,4,1.17,4.08,4.08,0,0,1,1.38,3.28v7.39h-2.2v-7.21a2.79,2.79,0,0,0-.79-2.19,3.45,3.45,0,0,0-2.36-.7,5.68,5.68,0,0,0-2.09.36,4.5,4.5,0,0,0-1.64,1.13l.93,1.44v7.17h-2.2Z" transform="translate(47.59 -124.99)"/><path class="cls-18" d="M199.63,279.25a2,2,0,0,1-.42-1.39v-1.12h2v.86a.67.67,0,0,0,.14.5.8.8,0,0,0,.53.13h5.08v1.49h-6A1.74,1.74,0,0,1,199.63,279.25Z" transform="translate(47.59 -124.99)"/><path class="cls-18" d="M210.43,292.65A4.52,4.52,0,0,1,208.5,291a4.6,4.6,0,0,1-.68-2.49v-7.06H210v7a3,3,0,0,0,.85,2.27,4.11,4.11,0,0,0,5,0,3,3,0,0,0,.85-2.27v-7h2.2v7.06a4.6,4.6,0,0,1-.68,2.49,4.52,4.52,0,0,1-1.93,1.69,7.36,7.36,0,0,1-5.84,0Z" transform="translate(47.59 -124.99)"/><path class="cls-18" d="M221.24,292.28v-1.77a6.42,6.42,0,0,0,3.77,1,4.62,4.62,0,0,0,3.28-1.1,5.09,5.09,0,0,0,0-6.5,4.62,4.62,0,0,0-3.28-1.1,6.41,6.41,0,0,0-3.73,1v-1.79a7.64,7.64,0,0,1,4.16-1,6.37,6.37,0,0,1,4.59,1.6,6.83,6.83,0,0,1,0,9,6.39,6.39,0,0,1-4.59,1.59A7.66,7.66,0,0,1,221.24,292.28Z" transform="translate(47.59 -124.99)"/><path class="cls-18" d="M221.95,278.22h9.3v1.49h-9.3Z" transform="translate(47.59 -124.99)"/><path class="cls-18" d="M235.08,292.34a2.87,2.87,0,0,1-1.4-2.53v-1.44h2.17v1.31a1.55,1.55,0,0,0,.79,1.43,4.17,4.17,0,0,0,2.12.46,4,4,0,0,0,2.06-.43,1.43,1.43,0,0,0,.72-1.31,1.67,1.67,0,0,0-.32-1.1,2.3,2.3,0,0,0-1-.63,22.28,22.28,0,0,0-2.21-.61,16,16,0,0,1-2.38-.72,3.76,3.76,0,0,1-1.45-1,2.38,2.38,0,0,1-.54-1.62,2.46,2.46,0,0,1,1.37-2.31,7.39,7.39,0,0,1,3.54-.74,11.82,11.82,0,0,1,2.5.27,7.29,7.29,0,0,1,2,.68v1.81a6.89,6.89,0,0,0-1.94-.74,10,10,0,0,0-2.3-.27,7.1,7.1,0,0,0-2.21.26,1,1,0,0,0-.74,1.05,1,1,0,0,0,.34.78,2.79,2.79,0,0,0,.93.51q.58.21,1.74.51l.78.22A13.85,13.85,0,0,1,242,287a3.08,3.08,0,0,1,1.29,1.1,3.23,3.23,0,0,1,.43,1.76,2.93,2.93,0,0,1-1.29,2.49,6.16,6.16,0,0,1-3.66.94A6.64,6.64,0,0,1,235.08,292.34Z" transform="translate(47.59 -124.99)"/><path class="cls-18" d="M234,278.22h7.3v-2.3h2v3.79H234Z" transform="translate(47.59 -124.99)"/><path class="cls-18" d="M246.79,292.29a3.37,3.37,0,0,1-1.13-2.72,3.41,3.41,0,0,1,1.26-2.78,5.22,5.22,0,0,1,3.41-1,8.93,8.93,0,0,1,3.83.8v-.88a2.67,2.67,0,0,0-.81-2.16,4.18,4.18,0,0,0-2.68-.68,10.46,10.46,0,0,0-2,.19,7.36,7.36,0,0,0-1.72.54v-1.72a7.43,7.43,0,0,1,1.82-.54,12.32,12.32,0,0,1,2.25-.21,5.78,5.78,0,0,1,4,1.23,4.28,4.28,0,0,1,1.33,3.32v7.3h-2.2V288.3a7.85,7.85,0,0,0-3.6-.8,3.32,3.32,0,0,0-2.06.52,1.85,1.85,0,0,0-.66,1.55q0,2,2.52,2a3.9,3.9,0,0,0,1.36-.22V293a6.54,6.54,0,0,1-1.9.24A4.56,4.56,0,0,1,246.79,292.29Z" transform="translate(47.59 -124.99)"/><path class="cls-18" d="M251,279.25a2,2,0,0,1-.42-1.39v-1.12h2v.86a.67.67,0,0,0,.14.5.8.8,0,0,0,.53.13h5.08v1.49h-6A1.74,1.74,0,0,1,251,279.25Z" transform="translate(47.59 -124.99)"/><path class="cls-18" d="M261.77,292.65a4.52,4.52,0,0,1-1.93-1.69,4.6,4.6,0,0,1-.68-2.49v-7.06h2.2v7a3,3,0,0,0,.85,2.27,4.11,4.11,0,0,0,5,0,3,3,0,0,0,.85-2.27v-7h2.2v7.06a4.6,4.6,0,0,1-.68,2.49,4.52,4.52,0,0,1-1.93,1.69,7.36,7.36,0,0,1-5.84,0Z" transform="translate(47.59 -124.99)"/><path class="cls-18" d="M274.05,291.79a5.81,5.81,0,0,1-1.48-4.31,9.73,9.73,0,0,1,.54-3.4,5.12,5.12,0,0,1,1.48-2.22,3.27,3.27,0,0,1,2.14-.78,2.37,2.37,0,0,1,2.3,1.31,2.25,2.25,0,0,1,1.1-1,4,4,0,0,1,1.64-.32A2.66,2.66,0,0,1,284,282a4,4,0,0,1,.74,2.54v8.36h-2.2v-8.2a2.67,2.67,0,0,0-.3-1.43,1.14,1.14,0,0,0-1-.46,1.48,1.48,0,0,0-1.53,1.33h-1.29a1.88,1.88,0,0,0-.42-1,1.16,1.16,0,0,0-.89-.33,1.88,1.88,0,0,0-1.65,1.21,7.54,7.54,0,0,0-.64,3.45,4.42,4.42,0,0,0,.9,3.06,3.58,3.58,0,0,0,2.78,1,5,5,0,0,0,1.51-.22V293a6.33,6.33,0,0,1-1.87.24A5.51,5.51,0,0,1,274.05,291.79Z" transform="translate(47.59 -124.99)"/><path class="cls-18" d="M282.61,276.11h2.18v3.6h-2.18Z" transform="translate(47.59 -124.99)"/><path class="cls-18" d="M291.59,285.48a3,3,0,0,0-.56-2,2.55,2.55,0,0,0-2-.64,5.69,5.69,0,0,0-2.58.6v-1.72a5.92,5.92,0,0,1,1.35-.44,7.68,7.68,0,0,1,1.65-.18,4.2,4.2,0,0,1,3.25,1.17,4.81,4.81,0,0,1,1.08,3.37v7.3h-2.2Z" transform="translate(47.59 -124.99)"/><path class="cls-18" d="M296.16,282.85h2.2l2.73,8.36a4.18,4.18,0,0,0,3.12-1.12,4.33,4.33,0,0,0,1.1-3.17,5.16,5.16,0,0,0-.75-3.06,2.78,2.78,0,0,0-2.41-1,5.84,5.84,0,0,0-1.51.19v-1.7a7,7,0,0,1,1.87-.24,4.6,4.6,0,0,1,3.75,1.55,6.49,6.49,0,0,1,1.29,4.29,6.2,6.2,0,0,1-.81,3.23,5.36,5.36,0,0,1-2.19,2.07,6.57,6.57,0,0,1-3.06.71h-2.07Z" transform="translate(47.59 -124.99)"/><path class="cls-18" d="M32.39,310.42a2.44,2.44,0,0,0-.28-1.33,1.12,1.12,0,0,0-1-.41,1.26,1.26,0,0,0-.95.33,1.83,1.83,0,0,0-.43,1H28.42a2.42,2.42,0,0,0-.33-1,.93.93,0,0,0-.81-.31,1.19,1.19,0,0,0-1,.57,3.14,3.14,0,0,0-.38,1.71,1.78,1.78,0,0,0,2,2,4.77,4.77,0,0,0,1.51-.21v1.7a7,7,0,0,1-1.87.24,4.25,4.25,0,0,1-2.8-.9,3.42,3.42,0,0,1-1.1-2.8,4.8,4.8,0,0,1,.82-2.92,2.83,2.83,0,0,1,2.43-1.11,2.27,2.27,0,0,1,2.22,1.31,2.38,2.38,0,0,1,2.35-1.31,2.8,2.8,0,0,1,2.41,1,4.52,4.52,0,0,1,.71,2.71v8.16h-2.2Z" transform="translate(47.59 -124.99)"/><path class="cls-18" d="M38,318.18a2.36,2.36,0,0,1-.55-1.67v-5.84a4,4,0,0,1,.39-1.84,8.87,8.87,0,0,1,1.12-1.6,6.36,6.36,0,0,0,.72-.95,1.6,1.6,0,0,0,.23-.82,1.29,1.29,0,0,0-.38-1,2,2,0,0,0-1.3-.32,4.06,4.06,0,0,0-2.37.73v-1.72a5.26,5.26,0,0,1,1.41-.56,6.73,6.73,0,0,1,1.63-.19,3.35,3.35,0,0,1,2.44.8,2.78,2.78,0,0,1,.81,2.07,2.48,2.48,0,0,1-.29,1.22,7.85,7.85,0,0,1-.87,1.22,8.65,8.65,0,0,0-1,1.42,3.21,3.21,0,0,0-.33,1.53v5.3a1.09,1.09,0,0,0,.24.81,1.18,1.18,0,0,0,.82.23h.78v1.83H39.62A2.08,2.08,0,0,1,38,318.18Z" transform="translate(47.59 -124.99)"/><path class="cls-18" d="M45.06,317.91a4.16,4.16,0,0,1-1.17-3.06v-7.6h2.2v7.52a2.5,2.5,0,0,0,.72,1.95,3,3,0,0,0,2.12.66,4,4,0,0,0,3.49-2v-8.14h2.2v11.52H52.48v-1.55a5.21,5.21,0,0,1-4.13,1.87A4.41,4.41,0,0,1,45.06,317.91Z" transform="translate(47.59 -124.99)"/><path class="cls-18" d="M58.05,311.6,57,309.86a7.85,7.85,0,0,1,2.61-2.19,7.58,7.58,0,0,1,3.47-.74,6,6,0,0,1,4,1.17,4.08,4.08,0,0,1,1.38,3.28v7.39h-2.2v-7.21a2.79,2.79,0,0,0-.79-2.19,3.45,3.45,0,0,0-2.36-.7A5.68,5.68,0,0,0,61,309a4.5,4.5,0,0,0-1.64,1.13l.93,1.44v7.17h-2.2Z" transform="translate(47.59 -124.99)"/><path class="cls-18" d="M75.24,311.32a3,3,0,0,0-.56-2,2.55,2.55,0,0,0-2-.64,5.69,5.69,0,0,0-2.58.6v-1.72a5.92,5.92,0,0,1,1.35-.44,7.68,7.68,0,0,1,1.65-.18,4.2,4.2,0,0,1,3.25,1.17,4.81,4.81,0,0,1,1.08,3.37v7.3h-2.2Z" transform="translate(47.59 -124.99)"/><path class="cls-18" d="M81.79,318.83a5,5,0,0,1-1.92-.79v-1.77a7.62,7.62,0,0,0,2,.85,8.33,8.33,0,0,0,2.12.29,4.6,4.6,0,0,0,2-.33,1.2,1.2,0,0,0,.62-1.15,1.32,1.32,0,0,0-.3-.9,2.47,2.47,0,0,0-.92-.6,20,20,0,0,0-1.93-.65,8,8,0,0,1-2.82-1.37,2.71,2.71,0,0,1-.93-2.19A2.79,2.79,0,0,1,81,307.78a5.82,5.82,0,0,1,3.36-.85,9,9,0,0,1,2.12.25,5.9,5.9,0,0,1,1.69.66v1.81a6.37,6.37,0,0,0-1.68-.71,7.31,7.31,0,0,0-1.94-.26q-2.58,0-2.58,1.55a1.23,1.23,0,0,0,.36.93,2.75,2.75,0,0,0,.95.57q.59.23,2,.64a9.32,9.32,0,0,1,2.15.88,2.82,2.82,0,0,1,1.1,1.12,3.54,3.54,0,0,1,.32,1.59,2.7,2.7,0,0,1-1.16,2.28,5.88,5.88,0,0,1-3.51.86A11.22,11.22,0,0,1,81.79,318.83Z" transform="translate(47.59 -124.99)"/><path class="cls-18" d="M92.84,318.18a2.36,2.36,0,0,1-.55-1.67v-8.27a4.44,4.44,0,0,0-.58-2.46,4,4,0,0,0-1.87-1.42v-1.79h6.78v1.85H92.77a3.47,3.47,0,0,1,1.3,1.55,5.83,5.83,0,0,1,.42,2.33v7.6a1.09,1.09,0,0,0,.24.81,1.18,1.18,0,0,0,.82.23h.78v1.83H94.45A2.08,2.08,0,0,1,92.84,318.18Z" transform="translate(47.59 -124.99)"/><path class="cls-18" d="M101,318.49A4.52,4.52,0,0,1,99,316.8a4.6,4.6,0,0,1-.68-2.49v-7.06h2.2v7a3,3,0,0,0,.85,2.27,4.11,4.11,0,0,0,5,0,3,3,0,0,0,.85-2.27V303.4h2.2v10.92a4.6,4.6,0,0,1-.68,2.49,4.52,4.52,0,0,1-1.93,1.69,7.36,7.36,0,0,1-5.84,0Z" transform="translate(47.59 -124.99)"/><path class="cls-18" d="M113.74,318.83a5,5,0,0,1-1.92-.79v-1.77a7.62,7.62,0,0,0,2,.85,8.33,8.33,0,0,0,2.12.29,4.6,4.6,0,0,0,2-.33,1.2,1.2,0,0,0,.62-1.15,1.32,1.32,0,0,0-.3-.9,2.47,2.47,0,0,0-.92-.6,20,20,0,0,0-1.93-.65,8,8,0,0,1-2.82-1.37,2.71,2.71,0,0,1-.93-2.19,2.79,2.79,0,0,1,1.23-2.44,5.82,5.82,0,0,1,3.36-.85,9,9,0,0,1,2.12.25,5.9,5.9,0,0,1,1.69.66v1.81a6.37,6.37,0,0,0-1.68-.71,7.31,7.31,0,0,0-1.94-.26q-2.58,0-2.58,1.55a1.23,1.23,0,0,0,.36.93,2.75,2.75,0,0,0,.95.57q.59.23,2,.64a9.32,9.32,0,0,1,2.15.88,2.82,2.82,0,0,1,1.1,1.12,3.54,3.54,0,0,1,.32,1.59,2.7,2.7,0,0,1-1.16,2.28,5.88,5.88,0,0,1-3.51.86A11.22,11.22,0,0,1,113.74,318.83Z" transform="translate(47.59 -124.99)"/><path class="cls-18" d="M124.8,318.18a2.36,2.36,0,0,1-.55-1.67v-8.27a4.44,4.44,0,0,0-.58-2.46,4,4,0,0,0-1.87-1.42v-1.79h6.78v1.85h-3.85A3.47,3.47,0,0,1,126,306a5.83,5.83,0,0,1,.42,2.33v7.6a1.09,1.09,0,0,0,.24.81,1.18,1.18,0,0,0,.82.23h.78v1.83H126.4A2.08,2.08,0,0,1,124.8,318.18Z" transform="translate(47.59 -124.99)"/><path class="cls-18" d="M134.32,318.62a5.66,5.66,0,0,1-1.91-1.4v1.55H130.3V307.25h2.2v8.14a4,4,0,0,0,3.49,2,3.05,3.05,0,0,0,2.12-.66,2.5,2.5,0,0,0,.72-1.95v-7.52H141v7.6a4.14,4.14,0,0,1-1.18,3.06,4.42,4.42,0,0,1-3.27,1.18A5.48,5.48,0,0,1,134.32,318.62Z" transform="translate(47.59 -124.99)"/><path class="cls-18" d="M143.82,307.25h2.11v1.55a5.29,5.29,0,0,1,2-1.41,6,6,0,0,1,2.29-.46,4.28,4.28,0,0,1,3.23,1.16,4.14,4.14,0,0,1,1.12,3v7.69h-2.2v-7.58a2.5,2.5,0,0,0-.67-1.86,2.85,2.85,0,0,0-2.07-.66,4,4,0,0,0-3.6,2v8.14h-2.2Z" transform="translate(47.59 -124.99)"/><path class="cls-18" d="M165.32,303.72h2.22v15.05h-2.22Z" transform="translate(47.59 -124.99)"/><path class="cls-18" d="M170.33,308.44h2.11v1.49a4.41,4.41,0,0,1,1.8-1.37,5.78,5.78,0,0,1,2.23-.44,4,4,0,0,1,3.08,1.1,4.18,4.18,0,0,1,1,3v6.61h-2.17v-6.4q0-2.52-2.41-2.52a4,4,0,0,0-1.93.48,4.3,4.3,0,0,0-1.54,1.48v7h-2.17Z" transform="translate(47.59 -124.99)"/><path class="cls-18" d="M184.78,318.83a5.77,5.77,0,0,1-1.9-.72v-1.85a8.24,8.24,0,0,0,1.94.81,7.79,7.79,0,0,0,2.13.31,3.88,3.88,0,0,0,1.7-.28,1,1,0,0,0,.54-.9,1.14,1.14,0,0,0-.25-.76,2.15,2.15,0,0,0-.84-.53,17.71,17.71,0,0,0-1.78-.56,11.76,11.76,0,0,1-2-.74,2.8,2.8,0,0,1-1.12-1,2.73,2.73,0,0,1-.38-1.51,2.51,2.51,0,0,1,1.17-2.25,5.71,5.71,0,0,1,3.15-.76,10.55,10.55,0,0,1,2,.19,5.34,5.34,0,0,1,1.59.54v1.81a5.6,5.6,0,0,0-1.54-.58,8.16,8.16,0,0,0-1.86-.21,4.28,4.28,0,0,0-1.74.28,1,1,0,0,0-.6,1,1,1,0,0,0,.26.73,2.08,2.08,0,0,0,.83.48q.57.21,1.82.53a6.55,6.55,0,0,1,2.72,1.27,2.67,2.67,0,0,1,.76,2,2.5,2.5,0,0,1-1.1,2.13,5.51,5.51,0,0,1-3.25.8A10.48,10.48,0,0,1,184.78,318.83Z" transform="translate(47.59 -124.99)"/><path class="cls-18" d="M195,318.19a3.6,3.6,0,0,1-.85-2.56v-5.51H192.6v-1.68h1.57v-3.1h2.2v3.1h2.54v1.68h-2.54v5.36a2.14,2.14,0,0,0,.4,1.46,1.94,1.94,0,0,0,1.45.43,3,3,0,0,0,1.25-.28v1.72a6.32,6.32,0,0,1-2,.28A3.17,3.17,0,0,1,195,318.19Z" transform="translate(47.59 -124.99)"/><path class="cls-18" d="M201.89,318.14a3.22,3.22,0,0,1-1.13-2.59,3.32,3.32,0,0,1,1.09-2.66,4.6,4.6,0,0,1,3.09-.94,7.1,7.1,0,0,1,3.62.86v-.54a2.19,2.19,0,0,0-.74-1.82,3.74,3.74,0,0,0-2.34-.59,9.22,9.22,0,0,0-1.84.18,7.49,7.49,0,0,0-1.6.51v-1.77a6.9,6.9,0,0,1,1.68-.48,11.47,11.47,0,0,1,2-.18,5.5,5.5,0,0,1,3.8,1.13,4,4,0,0,1,1.24,3.13v6.4h-2v-1.16a4.36,4.36,0,0,1-1.58,1.11,5.86,5.86,0,0,1-2.23.38A4.49,4.49,0,0,1,201.89,318.14Zm5.42-1.11a2.77,2.77,0,0,0,1.25-1.14v-1.4a5.63,5.63,0,0,0-3.12-.9,3,3,0,0,0-1.86.48,1.76,1.76,0,0,0-.61,1.47q0,1.9,2.48,1.9A4.23,4.23,0,0,0,207.31,317Z" transform="translate(47.59 -124.99)"/><path class="cls-18" d="M216.79,323.55a6.67,6.67,0,0,1-1.69-.5v-1.79a9,9,0,0,0,3.75.73,4.12,4.12,0,0,0,2.92-.87,3.49,3.49,0,0,0,.92-2.64v-1.1a5.13,5.13,0,0,1-4.18,1.7,5.75,5.75,0,0,1-2.82-.69,5,5,0,0,1-2-1.94,6.19,6.19,0,0,1,0-5.74,5,5,0,0,1,1.94-1.93,5.64,5.64,0,0,1,2.79-.69,6.32,6.32,0,0,1,2.44.42,5.21,5.21,0,0,1,1.86,1.39v-1.49h2.11v9.82a5.35,5.35,0,0,1-1.48,4.06,6.35,6.35,0,0,1-4.53,1.41A12.07,12.07,0,0,1,216.79,323.55Zm4.5-6.89a3.51,3.51,0,0,0,1.39-1.89v-2.33a3.65,3.65,0,0,0-1.41-1.89,4,4,0,0,0-2.34-.69,3.92,3.92,0,0,0-1.91.46,3.34,3.34,0,0,0-1.34,1.32,4.23,4.23,0,0,0,0,3.93A3.44,3.44,0,0,0,217,316.9a3.85,3.85,0,0,0,1.91.47A4,4,0,0,0,221.29,316.66Z" transform="translate(47.59 -124.99)"/><path class="cls-18" d="M227.66,308.44h2.11v1.85a3.77,3.77,0,0,1,1.82-1.4,7.54,7.54,0,0,1,2.72-.45v1.7a6.84,6.84,0,0,0-2.84.54,3,3,0,0,0-1.64,1.7v6.4h-2.17Z" transform="translate(47.59 -124.99)"/><path class="cls-18" d="M236,318.14a3.22,3.22,0,0,1-1.13-2.59,3.32,3.32,0,0,1,1.09-2.66,4.6,4.6,0,0,1,3.09-.94,7.1,7.1,0,0,1,3.62.86v-.54a2.19,2.19,0,0,0-.74-1.82,3.74,3.74,0,0,0-2.34-.59,9.22,9.22,0,0,0-1.84.18,7.49,7.49,0,0,0-1.6.51v-1.77a6.9,6.9,0,0,1,1.68-.48,11.47,11.47,0,0,1,2-.18,5.5,5.5,0,0,1,3.8,1.13,4,4,0,0,1,1.24,3.13v6.4h-2v-1.16a4.36,4.36,0,0,1-1.58,1.11,5.86,5.86,0,0,1-2.23.38A4.49,4.49,0,0,1,236,318.14Zm5.42-1.11a2.77,2.77,0,0,0,1.25-1.14v-1.4a5.63,5.63,0,0,0-3.12-.9,3,3,0,0,0-1.86.48,1.76,1.76,0,0,0-.61,1.47q0,1.9,2.48,1.9A4.23,4.23,0,0,0,241.39,317Z" transform="translate(47.59 -124.99)"/><path class="cls-18" d="M247.53,308.44h2.07v1.49a4.92,4.92,0,0,1,1.66-1.36,4.31,4.31,0,0,1,1.92-.45,4,4,0,0,1,2,.42,2.48,2.48,0,0,1,1.08,1.28,4.4,4.4,0,0,1,1.69-1.27,5.06,5.06,0,0,1,2-.43,3.47,3.47,0,0,1,2.73,1,4.18,4.18,0,0,1,.84,2.83v6.87H261.4v-6.59a2.69,2.69,0,0,0-.47-1.8,2.09,2.09,0,0,0-1.62-.53,3.17,3.17,0,0,0-2.67,1.42,9.11,9.11,0,0,1,0,1.06v6.44h-2.11v-6.59a2.89,2.89,0,0,0-.43-1.8,1.91,1.91,0,0,0-1.55-.53,3.62,3.62,0,0,0-2.93,1.85v7.06h-2.13Z" transform="translate(47.59 -124.99)"/><path class="cls-18" d="M24.5,337.49A4.3,4.3,0,0,1,26,334a6,6,0,0,1,4-1.24A6,6,0,0,1,34,334a4.3,4.3,0,0,1,1.46,3.49v7.13h-2.2v-7.19a2.69,2.69,0,0,0-.86-2.19,3.65,3.65,0,0,0-2.41-.72,3.68,3.68,0,0,0-2.43.72,2.69,2.69,0,0,0-.86,2.19v2.2a2,2,0,0,1,.88-.83,3.05,3.05,0,0,1,1.42-.31h1.72v1.81h-1.9a2.13,2.13,0,0,0-2.13,2.09v2.24H24.5Z" transform="translate(47.59 -124.99)"/><path class="cls-18" d="M33.46,348.08a.75.75,0,0,0-.14-.53.79.79,0,0,0-.55-.14h-.71v-1.57h1.77a1.69,1.69,0,0,1,1.3.39,2.15,2.15,0,0,1,.33,1.38v2.67h-2Z" transform="translate(47.59 -124.99)"/><path class="cls-18" d="M47.74,343.76a4.26,4.26,0,0,1-1.12-3.07V337.4a2.93,2.93,0,0,0-.72-2.19,3.06,3.06,0,0,0-2.21-.7,5.06,5.06,0,0,0-1.95.34A4.46,4.46,0,0,0,40.18,336l.93,1.44v3.66a3.07,3.07,0,0,0,.19,1.33q.19.34.88.34h1.21v1.83H41.11a2.13,2.13,0,0,1-1.64-.6,2.34,2.34,0,0,1-.56-1.66v-4.91l-1.08-1.74a8.1,8.1,0,0,1,2.54-2.19,7,7,0,0,1,3.32-.74,5.5,5.5,0,0,1,3.8,1.17,4.19,4.19,0,0,1,1.3,3.28v3.38a2.32,2.32,0,0,0,2.65,2.61,3.62,3.62,0,0,0,1.87-.5,3.9,3.9,0,0,0,1.4-1.49v-8.14h2.2v11.52H54.8v-1.51a4.75,4.75,0,0,1-3.94,1.83A4.11,4.11,0,0,1,47.74,343.76Z" transform="translate(47.59 -124.99)"/><path class="cls-18" d="M60.41,344a3.37,3.37,0,0,1-1.13-2.72,3.41,3.41,0,0,1,1.26-2.78,5.22,5.22,0,0,1,3.41-1,8.93,8.93,0,0,1,3.83.8v-.88a2.67,2.67,0,0,0-.81-2.16,4.18,4.18,0,0,0-2.68-.68,10.46,10.46,0,0,0-2,.19,7.36,7.36,0,0,0-1.72.54v-1.72a7.43,7.43,0,0,1,1.82-.54,12.32,12.32,0,0,1,2.25-.21,6.64,6.64,0,0,1,3.23.71l1.1-1.25h2.43l-2.17,2.43a4.48,4.48,0,0,1,.77,2.65v7.3h-2.2V340a7.85,7.85,0,0,0-3.6-.8,3.32,3.32,0,0,0-2.06.52,1.85,1.85,0,0,0-.66,1.55q0,2,2.52,2a3.9,3.9,0,0,0,1.36-.22v1.7a6.54,6.54,0,0,1-1.9.24A4.56,4.56,0,0,1,60.41,344Z" transform="translate(47.59 -124.99)"/><path class="cls-18" d="M77.16,337.16a3,3,0,0,0-.56-2,2.55,2.55,0,0,0-2-.64,5.69,5.69,0,0,0-2.58.6v-1.72a5.92,5.92,0,0,1,1.35-.44,7.68,7.68,0,0,1,1.65-.18,4.2,4.2,0,0,1,3.25,1.17,4.81,4.81,0,0,1,1.08,3.37v7.3h-2.2Z" transform="translate(47.59 -124.99)"/><path class="cls-18" d="M86.17,344.46a5.66,5.66,0,0,1-1.91-1.4v1.55H82.15V333.09h2.2v8.14a4,4,0,0,0,3.49,2,3.05,3.05,0,0,0,2.12-.66,2.5,2.5,0,0,0,.72-1.95v-7.52h2.2v7.6a4.14,4.14,0,0,1-1.18,3.06,4.42,4.42,0,0,1-3.27,1.18A5.48,5.48,0,0,1,86.17,344.46Z" transform="translate(47.59 -124.99)"/><path class="cls-18" d="M99.72,337.16a3,3,0,0,0-.56-2,2.55,2.55,0,0,0-2-.64,5.69,5.69,0,0,0-2.58.6v-1.72a5.92,5.92,0,0,1,1.35-.44,7.68,7.68,0,0,1,1.65-.18,4.2,4.2,0,0,1,3.25,1.17,4.81,4.81,0,0,1,1.08,3.37v7.3h-2.2Z" transform="translate(47.59 -124.99)"/><path class="cls-18" d="M106.27,344.67a5,5,0,0,1-1.92-.79v-1.77a7.62,7.62,0,0,0,2,.85,8.33,8.33,0,0,0,2.12.29,4.6,4.6,0,0,0,2-.33,1.2,1.2,0,0,0,.62-1.15,1.32,1.32,0,0,0-.3-.9,2.47,2.47,0,0,0-.92-.6,20,20,0,0,0-1.93-.65,8,8,0,0,1-2.82-1.37,2.71,2.71,0,0,1-.93-2.19,2.79,2.79,0,0,1,1.23-2.44,5.82,5.82,0,0,1,3.36-.85A9,9,0,0,1,111,333a5.9,5.9,0,0,1,1.69.66v1.81a6.37,6.37,0,0,0-1.68-.71,7.31,7.31,0,0,0-1.94-.26q-2.58,0-2.58,1.55a1.23,1.23,0,0,0,.36.93,2.75,2.75,0,0,0,.95.57q.59.23,2,.64a9.32,9.32,0,0,1,2.15.88,2.82,2.82,0,0,1,1.1,1.12,3.54,3.54,0,0,1,.32,1.59,2.7,2.7,0,0,1-1.16,2.28,5.88,5.88,0,0,1-3.51.86A11.22,11.22,0,0,1,106.27,344.67Z" transform="translate(47.59 -124.99)"/><path class="cls-18" d="M116.93,344a2.34,2.34,0,0,1-.56-1.66v-4.91l-1.08-1.74a7.85,7.85,0,0,1,2.61-2.19,7.58,7.58,0,0,1,3.47-.74,6,6,0,0,1,4,1.17,4.08,4.08,0,0,1,1.38,3.28v7.39h-2.2V337.4a2.79,2.79,0,0,0-.79-2.19,3.45,3.45,0,0,0-2.36-.7,5.74,5.74,0,0,0-2.09.34,4.52,4.52,0,0,0-1.64,1.14l.93,1.44v4.26a1.14,1.14,0,0,0,.25.84,1.18,1.18,0,0,0,.83.24h1.21v1.83h-2.28A2.13,2.13,0,0,1,116.93,344Z" transform="translate(47.59 -124.99)"/><path class="cls-18" d="M129.5,333.09h2.2v5.08l5.58-5.08h2.56L136.7,336a4.15,4.15,0,0,1,2.47,1.44,4.51,4.51,0,0,1,.7,2.65v4.57h-2.2v-4.44a3.11,3.11,0,0,0-.53-2,3.06,3.06,0,0,0-1.82-.95l-3.62,3.29v4h-2.2Z" transform="translate(47.59 -124.99)"/><path class="cls-18" d="M146.71,337.16a3,3,0,0,0-.56-2,2.55,2.55,0,0,0-2-.64,5.69,5.69,0,0,0-2.58.6v-1.72a5.92,5.92,0,0,1,1.35-.44,7.68,7.68,0,0,1,1.65-.18,4.2,4.2,0,0,1,3.25,1.17,4.81,4.81,0,0,1,1.08,3.37v7.3h-2.2Z" transform="translate(47.59 -124.99)"/><path class="cls-18" d="M153.39,344.62a6.93,6.93,0,0,1-2.11-.87V338h4.78v1.77h-2.58v2.86a4.8,4.8,0,0,0,2.5.56,4.15,4.15,0,0,0,3.15-1.14,4.63,4.63,0,0,0,1.09-3.32,4.19,4.19,0,0,0-1.11-3.21,5.23,5.23,0,0,0-3.63-1,11,11,0,0,0-2.24.23,5.28,5.28,0,0,0-1.85.72v-1.74a6.84,6.84,0,0,1,2-.71,12.06,12.06,0,0,1,2.46-.24,7,7,0,0,1,4.93,1.57,5.71,5.71,0,0,1,1.7,4.41,6,6,0,0,1-1.69,4.52,6.56,6.56,0,0,1-4.79,1.66A10.61,10.61,0,0,1,153.39,344.62Z" transform="translate(47.59 -124.99)"/><path class="cls-18" d="M159.89,327.79h2.18v3.6h-2.18Z" transform="translate(47.59 -124.99)"/><path class="cls-18" d="M168.87,337.16a3,3,0,0,0-.56-2,2.55,2.55,0,0,0-2-.64,5.69,5.69,0,0,0-2.58.6v-1.72a5.92,5.92,0,0,1,1.35-.44,7.68,7.68,0,0,1,1.65-.18,4.2,4.2,0,0,1,3.25,1.17,4.81,4.81,0,0,1,1.08,3.37v7.3h-2.2Z" transform="translate(47.59 -124.99)"/><path class="cls-18" d="M175,343.75a4.16,4.16,0,0,1-1.17-3.06v-7.6h2.2v7.52a2.5,2.5,0,0,0,.72,1.95,3,3,0,0,0,2.12.66,4,4,0,0,0,3.49-2v-8.14h2.2v11.52h-2.13v-1.55a5.21,5.21,0,0,1-4.13,1.87A4.41,4.41,0,0,1,175,343.75Z" transform="translate(47.59 -124.99)"/><path class="cls-18" d="M188.67,344a2.36,2.36,0,0,1-.55-1.67v-8.16a5.89,5.89,0,0,1,.41-2.37,3.43,3.43,0,0,1,1.38-1.53H186v-1.85h6.78v1.77a4.12,4.12,0,0,0-1.87,1.44,4.44,4.44,0,0,0-.58,2.46v7.62a1.09,1.09,0,0,0,.24.81,1.18,1.18,0,0,0,.82.23h.77v1.85h-1.87A2.08,2.08,0,0,1,188.67,344Z" transform="translate(47.59 -124.99)"/><path class="cls-18" d="M195.54,343.47a5.81,5.81,0,0,1-1.48-4.31,7.22,7.22,0,0,1,.76-3.42,5.23,5.23,0,0,1,2.19-2.21,7,7,0,0,1,3.38-.76,6,6,0,0,1,4.44,1.43,5,5,0,0,1,1.4,3.65v6.76H204v-6.78q0-3.32-3.64-3.32a3.87,3.87,0,0,0-3,1.21,4.94,4.94,0,0,0-1.1,3.45,4.35,4.35,0,0,0,.93,3.06,3.59,3.59,0,0,0,2.76,1,5,5,0,0,0,1.51-.22v1.7a6.33,6.33,0,0,1-1.87.24A5.51,5.51,0,0,1,195.54,343.47Z" transform="translate(47.59 -124.99)"/><path class="cls-18" d="M201.6,330a.54.54,0,0,0-.1-.37.46.46,0,0,0-.36-.11h-1V328h1.61a1.32,1.32,0,0,1,1,.33,1.17,1.17,0,0,1,.31.83v.75h4.41v1.46H201.6Z" transform="translate(47.59 -124.99)"/><path class="cls-18" d="M209.67,344a2.36,2.36,0,0,1-.55-1.67v-5.84a4,4,0,0,1,.39-1.84,8.87,8.87,0,0,1,1.12-1.6,6.36,6.36,0,0,0,.72-.95,1.6,1.6,0,0,0,.23-.82,1.29,1.29,0,0,0-.38-1,2,2,0,0,0-1.3-.32,4.06,4.06,0,0,0-2.37.73V329a5.26,5.26,0,0,1,1.41-.56,6.73,6.73,0,0,1,1.63-.19,3.35,3.35,0,0,1,2.44.8,2.78,2.78,0,0,1,.81,2.07,2.48,2.48,0,0,1-.29,1.22,7.85,7.85,0,0,1-.87,1.22,8.65,8.65,0,0,0-1,1.42,3.21,3.21,0,0,0-.33,1.53v5.3a1.09,1.09,0,0,0,.24.81,1.18,1.18,0,0,0,.82.23h.78v1.83h-1.87A2.08,2.08,0,0,1,209.67,344Z" transform="translate(47.59 -124.99)"/><path class="cls-18" d="M216.71,343.75a4.16,4.16,0,0,1-1.17-3.06v-7.6h2.2v7.52a2.5,2.5,0,0,0,.72,1.95,3,3,0,0,0,2.12.66,4,4,0,0,0,3.49-2v-8.14h2.2v11.52h-2.13v-1.55a5.21,5.21,0,0,1-4.13,1.87A4.41,4.41,0,0,1,216.71,343.75Z" transform="translate(47.59 -124.99)"/><path class="cls-18" d="M229.06,333.09h2.2v5.08l5.58-5.08h2.56L236.25,336a4.15,4.15,0,0,1,2.47,1.44,4.51,4.51,0,0,1,.7,2.65v4.57h-2.2v-4.44a3.11,3.11,0,0,0-.53-2,3.06,3.06,0,0,0-1.82-.95l-3.62,3.29v4h-2.2Z" transform="translate(47.59 -124.99)"/><path class="cls-18" d="M242.91,344a3.37,3.37,0,0,1-1.13-2.72,3.41,3.41,0,0,1,1.26-2.78,5.22,5.22,0,0,1,3.41-1,8.93,8.93,0,0,1,3.83.8v-.88a2.67,2.67,0,0,0-.81-2.16,4.18,4.18,0,0,0-2.68-.68,10.46,10.46,0,0,0-2,.19,7.36,7.36,0,0,0-1.72.54v-1.72a7.43,7.43,0,0,1,1.82-.54,12.32,12.32,0,0,1,2.25-.21,5.78,5.78,0,0,1,4,1.23,4.28,4.28,0,0,1,1.33,3.32v7.3h-2.2V340a7.85,7.85,0,0,0-3.6-.8,3.32,3.32,0,0,0-2.06.52,1.85,1.85,0,0,0-.66,1.55q0,2,2.52,2a3.9,3.9,0,0,0,1.36-.22v1.7a6.54,6.54,0,0,1-1.9.24A4.56,4.56,0,0,1,242.91,344Z" transform="translate(47.59 -124.99)"/><path class="cls-18" d="M247.09,330.93a2,2,0,0,1-.42-1.39v-1.12h2v.86a.67.67,0,0,0,.14.5.8.8,0,0,0,.53.13h5.08v1.49h-6A1.74,1.74,0,0,1,247.09,330.93Z" transform="translate(47.59 -124.99)"/><path class="cls-18" d="M255.93,337.44l-1.08-1.74a7.85,7.85,0,0,1,2.61-2.19,7.58,7.58,0,0,1,3.47-.74,6,6,0,0,1,4,1.17,4.08,4.08,0,0,1,1.38,3.28v7.39h-2.2V337.4a2.79,2.79,0,0,0-.79-2.19,3.45,3.45,0,0,0-2.36-.7,5.68,5.68,0,0,0-2.09.36A4.5,4.5,0,0,0,257.2,336l.93,1.44v7.17h-2.2Z" transform="translate(47.59 -124.99)"/><path class="cls-18" d="M269.77,344a3.37,3.37,0,0,1-1.13-2.72,3.41,3.41,0,0,1,1.26-2.78,5.22,5.22,0,0,1,3.41-1,8.93,8.93,0,0,1,3.83.8v-.88a2.67,2.67,0,0,0-.81-2.16,4.18,4.18,0,0,0-2.68-.68,10.46,10.46,0,0,0-2,.19,7.36,7.36,0,0,0-1.72.54v-1.72a7.43,7.43,0,0,1,1.82-.54,12.32,12.32,0,0,1,2.25-.21,6.64,6.64,0,0,1,3.23.71l1.1-1.25h2.43l-2.17,2.43a4.48,4.48,0,0,1,.77,2.65v7.3h-2.2V340a7.85,7.85,0,0,0-3.6-.8,3.32,3.32,0,0,0-2.06.52,1.85,1.85,0,0,0-.66,1.55q0,2,2.52,2a3.9,3.9,0,0,0,1.36-.22v1.7a6.54,6.54,0,0,1-1.9.24A4.56,4.56,0,0,1,269.77,344Z" transform="translate(47.59 -124.99)"/><path class="cls-18" d="M274.91,349.89a1.79,1.79,0,0,1-.74-1.51v-.58a.64.64,0,0,0-.09-.4.49.49,0,0,0-.37-.1H273v-1.46h1.9a1,1,0,0,1,.8.26,1.31,1.31,0,0,1,.22.84v1.23q0,.95,1,.95t1-.95v-2.33h1.72v2.48a1.92,1.92,0,0,1-.7,1.54,3,3,0,0,1-2,.59A3.38,3.38,0,0,1,274.91,349.89Z" transform="translate(47.59 -124.99)"/><path class="cls-18" d="M283.5,343.47a5.81,5.81,0,0,1-1.48-4.31,9.73,9.73,0,0,1,.54-3.4,5.12,5.12,0,0,1,1.48-2.22,3.27,3.27,0,0,1,2.14-.78,2.37,2.37,0,0,1,2.3,1.31,2.25,2.25,0,0,1,1.1-1,4,4,0,0,1,1.64-.32,2.66,2.66,0,0,1,2.23.95,4,4,0,0,1,.74,2.54v8.36H292v-8.2a2.67,2.67,0,0,0-.3-1.43,1.14,1.14,0,0,0-1-.46,1.48,1.48,0,0,0-1.53,1.33h-1.29a1.88,1.88,0,0,0-.42-1,1.16,1.16,0,0,0-.89-.33,1.88,1.88,0,0,0-1.65,1.21,7.54,7.54,0,0,0-.64,3.45,4.42,4.42,0,0,0,.9,3.06,3.58,3.58,0,0,0,2.78,1,5,5,0,0,0,1.51-.22v1.7a6.33,6.33,0,0,1-1.87.24A5.51,5.51,0,0,1,283.5,343.47Z" transform="translate(47.59 -124.99)"/><path class="cls-18" d="M298.55,344.67a5,5,0,0,1-1.92-.79v-1.77a7.62,7.62,0,0,0,2,.85,8.33,8.33,0,0,0,2.12.29,4.6,4.6,0,0,0,2-.33,1.2,1.2,0,0,0,.62-1.15,1.32,1.32,0,0,0-.3-.9,2.47,2.47,0,0,0-.92-.6,20,20,0,0,0-1.93-.65,8,8,0,0,1-2.82-1.37,2.71,2.71,0,0,1-.93-2.19,2.79,2.79,0,0,1,1.23-2.44,5.82,5.82,0,0,1,3.36-.85,9,9,0,0,1,2.12.25,5.9,5.9,0,0,1,1.69.66v1.81a6.37,6.37,0,0,0-1.68-.71,7.31,7.31,0,0,0-1.94-.26q-2.58,0-2.58,1.55a1.23,1.23,0,0,0,.36.93,2.75,2.75,0,0,0,.95.57q.59.23,2,.64a9.32,9.32,0,0,1,2.15.88,2.82,2.82,0,0,1,1.1,1.12,3.54,3.54,0,0,1,.32,1.59,2.7,2.7,0,0,1-1.16,2.28,5.88,5.88,0,0,1-3.51.86A11.22,11.22,0,0,1,298.55,344.67Z" transform="translate(47.59 -124.99)"/><path class="cls-18" d="M308.7,344a3.37,3.37,0,0,1-1.13-2.72,3.41,3.41,0,0,1,1.26-2.78,5.22,5.22,0,0,1,3.41-1,8.93,8.93,0,0,1,3.83.8v-.88a2.67,2.67,0,0,0-.81-2.16,4.18,4.18,0,0,0-2.68-.68,10.46,10.46,0,0,0-2,.19,7.36,7.36,0,0,0-1.72.54v-1.72a7.43,7.43,0,0,1,1.82-.54,12.32,12.32,0,0,1,2.25-.21,6.64,6.64,0,0,1,3.23.71l1.1-1.25h2.43l-2.17,2.43a4.48,4.48,0,0,1,.77,2.65v7.3h-2.2V340a7.85,7.85,0,0,0-3.6-.8,3.32,3.32,0,0,0-2.06.52,1.85,1.85,0,0,0-.66,1.55q0,2,2.52,2a3.9,3.9,0,0,0,1.36-.22v1.7a6.54,6.54,0,0,1-1.9.24A4.56,4.56,0,0,1,308.7,344Z" transform="translate(47.59 -124.99)"/><path class="cls-18" d="M316.46,327.79h2.18v3.6h-2.18Z" transform="translate(47.59 -124.99)"/><path class="cls-18" d="M321,344V342.2a6.42,6.42,0,0,0,3.77,1,4.62,4.62,0,0,0,3.28-1.1,5.09,5.09,0,0,0,0-6.5,4.62,4.62,0,0,0-3.28-1.1,6.41,6.41,0,0,0-3.73,1v-1.79a7.64,7.64,0,0,1,4.16-1,6.37,6.37,0,0,1,4.59,1.6,6.83,6.83,0,0,1,0,9,6.39,6.39,0,0,1-4.59,1.59A7.66,7.66,0,0,1,321,344Z" transform="translate(47.59 -124.99)"/><path class="cls-18" d="M335,343.75a4.16,4.16,0,0,1-1.17-3.06v-7.6H336v7.52a2.5,2.5,0,0,0,.72,1.95,3,3,0,0,0,2.12.66,4,4,0,0,0,3.49-2v-8.14h2.2v11.52h-2.13v-1.55a5.21,5.21,0,0,1-4.13,1.87A4.41,4.41,0,0,1,335,343.75Z" transform="translate(47.59 -124.99)"/><path class="cls-18" d="M25.55,369.31A5.81,5.81,0,0,1,24.07,365a9.73,9.73,0,0,1,.54-3.4,5.12,5.12,0,0,1,1.48-2.22,3.27,3.27,0,0,1,2.14-.78,2.37,2.37,0,0,1,2.3,1.31,2.25,2.25,0,0,1,1.1-1,4,4,0,0,1,1.64-.32,2.66,2.66,0,0,1,2.23.95,4,4,0,0,1,.74,2.54v8.36H34v-8.2a2.67,2.67,0,0,0-.3-1.43,1.14,1.14,0,0,0-1-.46,1.48,1.48,0,0,0-1.53,1.33H29.89a1.88,1.88,0,0,0-.42-1,1.16,1.16,0,0,0-.89-.33,1.88,1.88,0,0,0-1.65,1.21,7.54,7.54,0,0,0-.64,3.45,4.42,4.42,0,0,0,.9,3.06,3.58,3.58,0,0,0,2.78,1,5,5,0,0,0,1.51-.22v1.7a6.33,6.33,0,0,1-1.87.24A5.51,5.51,0,0,1,25.55,369.31Z" transform="translate(47.59 -124.99)"/><path class="cls-18" d="M30.85,356.77a2,2,0,0,1-.42-1.39v-1.12h2v.86a.67.67,0,0,0,.14.5.8.8,0,0,0,.53.13h5.08v1.49h-6A1.74,1.74,0,0,1,30.85,356.77Z" transform="translate(47.59 -124.99)"/><path class="cls-18" d="M38.61,369.81V368a6.42,6.42,0,0,0,3.77,1,4.62,4.62,0,0,0,3.28-1.1,5.09,5.09,0,0,0,0-6.5,4.62,4.62,0,0,0-3.28-1.1,6.41,6.41,0,0,0-3.73,1v-1.79a7.64,7.64,0,0,1,4.16-1,6.37,6.37,0,0,1,4.59,1.6,6.83,6.83,0,0,1,0,9,6.39,6.39,0,0,1-4.59,1.59A7.66,7.66,0,0,1,38.61,369.81Z" transform="translate(47.59 -124.99)"/><path class="cls-18" d="M61.46,370.24a4,4,0,0,1-1.75-1.52,4.15,4.15,0,0,1-.61-2.25v-.73a2.93,2.93,0,0,1,.3-1.33,10.14,10.14,0,0,1,.88-1.4,7.51,7.51,0,0,0,.6-.89,1.42,1.42,0,0,0,.19-.68.73.73,0,0,0-.2-.58,1.06,1.06,0,0,0-.68-.17H59v-1.74h2.26a2,2,0,0,1,1.5.55,2,2,0,0,1,.55,1.45,2.58,2.58,0,0,1-.26,1.15,10.55,10.55,0,0,1-.78,1.28,10.76,10.76,0,0,0-.74,1.25,2.37,2.37,0,0,0-.23,1v.8a2.52,2.52,0,0,0,.72,1.93,3,3,0,0,0,2.14.68,2.84,2.84,0,0,0,2.11-.7,2.69,2.69,0,0,0,.69-2v-7.45h2.2V366a4.63,4.63,0,0,1-1.31,3.49,5.08,5.08,0,0,1-3.68,1.27A6.25,6.25,0,0,1,61.46,370.24Z" transform="translate(47.59 -124.99)"/><path class="cls-18" d="M73.62,370.46a6.93,6.93,0,0,1-2.11-.87v-5.73h4.78v1.77H73.71v2.86a4.8,4.8,0,0,0,2.5.56,4.15,4.15,0,0,0,3.15-1.14,4.63,4.63,0,0,0,1.09-3.32,4.19,4.19,0,0,0-1.11-3.21,5.23,5.23,0,0,0-3.63-1,11,11,0,0,0-2.24.23,5.28,5.28,0,0,0-1.85.72v-1.74a6.84,6.84,0,0,1,2-.71,12.06,12.06,0,0,1,2.46-.24A7,7,0,0,1,81,360.18a5.71,5.71,0,0,1,1.7,4.41A6,6,0,0,1,81,369.12a6.56,6.56,0,0,1-4.79,1.66A10.61,10.61,0,0,1,73.62,370.46Z" transform="translate(47.59 -124.99)"/><path class="cls-18" d="M85.69,369.86a2.36,2.36,0,0,1-.55-1.67v-5.84a4,4,0,0,1,.39-1.84,8.87,8.87,0,0,1,1.12-1.6,6.36,6.36,0,0,0,.72-.95,1.6,1.6,0,0,0,.23-.82,1.29,1.29,0,0,0-.38-1,2,2,0,0,0-1.3-.32,4.06,4.06,0,0,0-2.37.73V354.8a5.26,5.26,0,0,1,1.41-.56,6.73,6.73,0,0,1,1.63-.19,3.35,3.35,0,0,1,2.44.8,2.78,2.78,0,0,1,.81,2.07,2.48,2.48,0,0,1-.29,1.22,7.85,7.85,0,0,1-.87,1.22,8.65,8.65,0,0,0-1,1.42,3.21,3.21,0,0,0-.33,1.53v5.3a1.09,1.09,0,0,0,.24.81,1.18,1.18,0,0,0,.82.23h.78v1.83H87.3A2.08,2.08,0,0,1,85.69,369.86Z" transform="translate(47.59 -124.99)"/><path class="cls-18" d="M91.56,358.93h2.2V364l5.58-5.08h2.56l-3.14,2.86a4.15,4.15,0,0,1,2.47,1.44,4.51,4.51,0,0,1,.7,2.65v4.57h-2.2V366a3.11,3.11,0,0,0-.53-2,3.06,3.06,0,0,0-1.82-.95l-3.62,3.29v4h-2.2Z" transform="translate(47.59 -124.99)"/><path class="cls-18" d="M97.29,355.88a.54.54,0,0,0-.1-.37.46.46,0,0,0-.36-.11h-1v-1.55h1.61a1.32,1.32,0,0,1,1,.33,1.17,1.17,0,0,1,.31.83v.75h4.41v1.46H97.29Z" transform="translate(47.59 -124.99)"/><path class="cls-18" d="M106.32,369.86a2.36,2.36,0,0,1-.55-1.67v-8.27a4.44,4.44,0,0,0-.58-2.46,4,4,0,0,0-1.87-1.42v-1.79h6.78v1.85h-3.85a3.47,3.47,0,0,1,1.3,1.55A5.83,5.83,0,0,1,108,360v7.6a1.09,1.09,0,0,0,.24.81,1.18,1.18,0,0,0,.82.23h.78v1.83h-1.87A2.08,2.08,0,0,1,106.32,369.86Z" transform="translate(47.59 -124.99)"/><path class="cls-18" d="M113.93,370.24a4.16,4.16,0,0,1-1.8-1.52,4,4,0,0,1-.64-2.25v-.73a3,3,0,0,1,.32-1.37,9.89,9.89,0,0,1,.88-1.39,8.18,8.18,0,0,0,.59-.9,1.39,1.39,0,0,0,.18-.65.73.73,0,0,0-.2-.58,1.06,1.06,0,0,0-.68-.17h-1.21v-1.74h2.26a2,2,0,0,1,1.5.55,2,2,0,0,1,.55,1.45,2.58,2.58,0,0,1-.26,1.15,10.55,10.55,0,0,1-.78,1.28,10.76,10.76,0,0,0-.74,1.25,2.37,2.37,0,0,0-.23,1v.8a2.43,2.43,0,0,0,.77,1.92,3.1,3.1,0,0,0,5.25-2.46,3.57,3.57,0,0,0-.65-2.33,2.33,2.33,0,0,0-1.9-.78v-1.18l2.3-3h2.37l-2.43,3.21a3.54,3.54,0,0,1,1.91,1.52,5.08,5.08,0,0,1,.59,2.57,4.93,4.93,0,0,1-.66,2.58,4.34,4.34,0,0,1-1.86,1.69,6.22,6.22,0,0,1-2.78.59A6.33,6.33,0,0,1,113.93,370.24Z" transform="translate(47.59 -124.99)"/><path class="cls-18" d="M124.4,363.33a4.3,4.3,0,0,1,1.46-3.48,7.16,7.16,0,0,1,8,0,4.3,4.3,0,0,1,1.46,3.49v7.13h-2.2v-7.19a2.69,2.69,0,0,0-.86-2.19,3.65,3.65,0,0,0-2.41-.72,3.68,3.68,0,0,0-2.43.72,2.69,2.69,0,0,0-.86,2.19v2.2a2,2,0,0,1,.88-.83,3.05,3.05,0,0,1,1.42-.31h1.72v1.81h-1.9a2.13,2.13,0,0,0-2.13,2.09v2.24h-2.2Z" transform="translate(47.59 -124.99)"/><path class="cls-18" d="M139.21,369.31a5.81,5.81,0,0,1-1.48-4.31,7.22,7.22,0,0,1,.76-3.42,5.23,5.23,0,0,1,2.19-2.21,7,7,0,0,1,3.38-.76A6,6,0,0,1,148.5,360a5,5,0,0,1,1.4,3.65v6.76h-2.2v-6.78q0-3.32-3.64-3.32a3.87,3.87,0,0,0-3,1.21,4.94,4.94,0,0,0-1.1,3.45,4.35,4.35,0,0,0,.93,3.06,3.59,3.59,0,0,0,2.76,1,5,5,0,0,0,1.51-.22v1.7a6.33,6.33,0,0,1-1.87.24A5.51,5.51,0,0,1,139.21,369.31Z" transform="translate(47.59 -124.99)"/><path class="cls-18" d="M140.57,355.75h7.3v-2.3h2v3.79h-9.3Z" transform="translate(47.59 -124.99)"/><path class="cls-18" d="M152.63,370.41a1.27,1.27,0,0,1,.9-2.17,1.27,1.27,0,0,1,.92.37,1.27,1.27,0,0,1,0,1.81,1.27,1.27,0,0,1-.92.37A1.23,1.23,0,0,1,152.63,370.41Zm-.13-15h2.11v10.75H152.5Z" transform="translate(47.59 -124.99)"/></svg>