<svg id="Layer_1" data-name="Layer 1" xmlns="http://www.w3.org/2000/svg" viewBox="0 0 765.23 342.03"><defs><style>.cls-1,.cls-16{fill:#fff;}.cls-1{stroke:#00c5db;}.cls-1,.cls-14,.cls-17{stroke-miterlimit:10;}.cls-1,.cls-10,.cls-12,.cls-13,.cls-14,.cls-15,.cls-17,.cls-2,.cls-4,.cls-5,.cls-7,.cls-8{stroke-width:5px;}.cls-11,.cls-2{fill:#9c9c9c;}.cls-10,.cls-14,.cls-15,.cls-17,.cls-2,.cls-4,.cls-5,.cls-7,.cls-8{stroke:#000;}.cls-10,.cls-12,.cls-13,.cls-15,.cls-2,.cls-4,.cls-5,.cls-7,.cls-8{stroke-linecap:round;stroke-linejoin:round;}.cls-3,.cls-7{fill:#d9d9d9;}.cls-5,.cls-9{fill:#129f58;}.cls-6,.cls-8{fill:#46c678;}.cls-10,.cls-12,.cls-14{fill:none;}.cls-12,.cls-13{stroke:#fff;}.cls-15{fill:#090a0a;}.cls-18{fill:#00c5db;}</style></defs><title>footer-adv-inst-en</title><path class="cls-1" d="M503.39,70a23.8,23.8,0,1,1-16.8,7A23.8,23.8,0,0,1,503.39,70Z" transform="translate(0.01 0.01)"/><path class="cls-1" d="M91.44,272.54a93.19,93.19,0,0,1-57.3-163.07A120.8,120.8,0,0,1,245.28,44a68.84,68.84,0,0,1,83.86,20,68.83,68.83,0,0,1,93.18,24,93.22,93.22,0,0,1-10,184.35q-3.92.34-7.93.34H95.59C94.24,272.64,92.83,272.61,91.44,272.54Z" transform="translate(0.01 0.01)"/><path class="cls-1" d="M557.07,112.46a14.29,14.29,0,1,1-14.29,14.29,14.29,14.29,0,0,1,14.29-14.29Z" transform="translate(0.01 0.01)"/><path class="cls-2" d="M675,161.63c-73.88,1-82.2,108.12-84.28,177.89H747.46C744.77,261.15,754,160.57,675,161.63Z" transform="translate(0.01 0.01)"/><path class="cls-3" d="M643.87,337.73c5.6-34.63,6.75-81,17.92-126.61a15,15,0,0,1,14.8-11.23,15.49,15.49,0,0,1,3,.34c6.11,1.3,8.17,12.8,9.84,23.23,9,56.48,18.21,83.12,22.24,114.27Z" transform="translate(0.01 0.01)"/><path class="cls-2" d="M634.23,165.21c-38.35,16.28-50.23,115.67-57.1,174.31h56.62C643.59,256.47,656.67,208.11,634.23,165.21Z" transform="translate(0.01 0.01)"/><path class="cls-3" d="M589.42,337.73s3.34-21.3,10.86-26.61c8.3-5.86,16.68-7.75,25.84-2.25.48,16.81,0,28.6,0,28.6Z" transform="translate(0.01 0.01)"/><path class="cls-4" d="M634.23,165.21c28.64,49.93,2.23,114.48-.48,174.31-4.82-.3-11.61-.25-15-.28,6.69-93.31,25.58-103,4-170C625.2,168.34,629.12,166.83,634.23,165.21Z" transform="translate(0.01 0.01)"/><path class="cls-2" d="M651.59,225.83c-8.12,39.26-10.12,84.22-13.3,92.72-4.38-5.42-14.5-36.11-10.6-60.06C630.79,239.38,645.37,228.22,651.59,225.83Z" transform="translate(0.01 0.01)"/><path class="cls-2" d="M706.59,163.29c-21.7,53.15,17.27,131.44,19.48,176.11l31.85.12C753.94,268.16,735,167.24,706.59,163.29Z" transform="translate(0.01 0.01)"/><path class="cls-3" d="M729.89,303.17c3.1-4,7.83-5.17,13.11-4.4,8.45,1.23,7.81,19.32,7.54,39l-18.68-.15C729.33,322.1,721.51,314,729.89,303.17Z" transform="translate(0.01 0.01)"/><path class="cls-4" d="M706.59,163.29a99.09,99.09,0,0,1,9.57,3.8c-19.85,47.26,18,120.33,20.77,172.42l-10.86-.12C724.06,295.23,685.7,216.23,706.59,163.29Z" transform="translate(0.01 0.01)"/><path class="cls-2" d="M699.32,259.85c3.18,20.3,5.5,78.46,10.42,78.46,4.43-18.53,24.71-32,12.44-56.23C717.19,272.22,704.86,256,699.32,259.85Z" transform="translate(0.01 0.01)"/><path class="cls-5" d="M665.59,254.36a400.89,400.89,0,0,1,1.29,47.87c-.06,1.9-3.45,4.87-2.39,6.93.79,1.54,4.32-1.21,7.16-1.1,3.39.14,6.18,2.84,7.22,1s-1.23-4.75-1.88-5.9c-8.43-14.87-3.11-37.1,5.21-50.89C678.8,249.12,669.59,250,665.59,254.36Z" transform="translate(0.01 0.01)"/><path class="cls-6" d="M670.12,263.8c.36-3.09.22-4.11,1.1-5.29,1.22-1.63,3.71-2.66,4.68-1.94,1.28.93-.33,4.6-1.58,8.36-1.57,4.75-4.94,15-3.17,24.18,1.61,8.28,7.22,14.86,5.38,16.28-.31.24-.9.27-2.07.33-2.49.13-3.11-.65-4.68-.27s-2.24,1.47-2.62,1.21.17-1.57.55-2.75a31.55,31.55,0,0,0,.82-6.57c.35-4.74-.27-7.6-.27-14.07a114.74,114.74,0,0,1,1-14C669.67,266.13,669.81,266.49,670.12,263.8Z" transform="translate(0.01 0.01)"/><path class="cls-4" d="M699.78,260.23c-11.23,7.57-24.65-.85-26.49,4.83-.8,2.47,1,4.4,7,6.29-5-.11-12.61.58-15.21,1.9-3.85,2-6.08,8,3,10.64-4.94.38-6.62,4.72-5.79,8.39.56,2.49,6.17,4.92,9.59,4.54-2.28,1.14-2.92,3.3-1.14,4.7,4.18,3.28,17.49.94,19.66.3,8.93-2.62,11.55-3.12,24.19-12.33C719.82,278.68,710.35,265.32,699.78,260.23Z" transform="translate(0.01 0.01)"/><path class="cls-7" d="M706.59,163.29c16.78,5.21,31.93,16.89,45.71,39.23,9.45,15.3,14.46,29.63,6.36,48.28-17.77,40.91-31.83,47.11-48.89,87.51,10.36-33.33,7.22-63.92-10.42-78.46,12.16-9,20-18,26.91-30.72-6.36-5.76-8.68-9.6-8.68-20.57" transform="translate(0.01 0.01)"/><path class="cls-8" d="M675.71,257c-2-1.84-.29-10.45,5.29-15.13,8.39-7,15.33,0,25.56-5.62C708.59,240.83,696.43,261.59,675.71,257Z" transform="translate(0.01 0.01)"/><path class="cls-9" d="M676,256.45c7.29-12.52,22.38-8.87,29.81-19.11a.51.51,0,0,1,.93.28c-.16,6.24-11.69,23.22-30.41,19.54a.48.48,0,0,1-.33-.71Z" transform="translate(0.01 0.01)"/><path class="cls-4" d="M643.68,232.6c7.36-6.55,18.92-8,25.65-7.64,2.94.17,4.94,3,3.34,5.3a21.05,21.05,0,0,1-1.36,1.75c15.91,3.7,10.15,11.22,7.11,14.64.76,2.28-.41,5.55-1.14,7.22s-3,2.66-5.32,3c-2.28,14.07-19.71,11.28-35.07,4.09C631.59,254.8,635,240.37,643.68,232.6Z" transform="translate(0.01 0.01)"/><path class="cls-7" d="M634.23,165.21c-4.75,1.2-37.33,12-58.62,35.06a29.71,29.71,0,0,0-5.11,33.45c11.9,24,45,51.37,67.77,84.84-12.92-22-.58-68.58,13.3-92.72-9,0-16.2-1.92-32.11-4.94,2.31-5.21-4.34-11-9.84-13.17" transform="translate(0.01 0.01)"/><path class="cls-10" d="M675.71,257c7-11.52,14.83-9.66,21.13-13.14" transform="translate(0.01 0.01)"/><path class="cls-5" d="M665.09,314.8c1.16-3.08,12.61-3.32,14-.18.54,1.23-.61,2.68-1.72,4.12a2.7,2.7,0,0,0-.56,1.41c-.61,6.54-.94,12.94-1.34,19.37H665.06c.47-6.61.89-12.39,1.54-18.69a5.57,5.57,0,0,0-.91-3.73A2.56,2.56,0,0,1,665.09,314.8Z" transform="translate(0.01 0.01)"/><path class="cls-6" d="M667.67,314.78A4.47,4.47,0,0,1,670,314c2.8-.28,4.87-.49,5.73.67s.19,2.66,0,3.23c-1.66,5-1.87,12.51-2,19.85l-6.52-.28c1-8.46,2-17.16.42-19.31-.17-.23-1.06-1.36-.73-2.35A2.15,2.15,0,0,1,667.67,314.78Z" transform="translate(0.01 0.01)"/><path class="cls-4" d="M619.93,170.44c3.9-1.62,8.81-3.47,14.3-5.23,2.41,4.56,2.41,4.56,4.46,9.09-1.61,3.17-9.07,6.36-12.54,6.17C623.71,174.92,622.92,174.56,619.93,170.44Z" transform="translate(0.01 0.01)"/><path class="cls-4" d="M706.59,163.29a95,95,0,0,1,9.57,3.8c-2.1,5.76-2.5,7.08-4.82,18.09-3.2.63-8-1.61-9.61-3.47A116.43,116.43,0,0,1,706.59,163.29Z" transform="translate(0.01 0.01)"/><path class="cls-10" d="M675.71,257" transform="translate(0.01 0.01)"/><path class="cls-10" d="M706.59,236.26" transform="translate(0.01 0.01)"/><path class="cls-11" d="M619.47,220.9c-5.79.19-10.62-2.24-14-2.8a78.21,78.21,0,0,1-11.63-2.64c-13.5-3.8.76-5.62,2.28-5.84,2.74-.38,4.61.27,5.26-.38.5-.5-.61-1.65-1.14-4.21-.35-1.64-.73-3.35.09-4.66,1.45-2.32,5.78-2.08,6.94-2,3.13.17,13.38,4,14.66,4.94" transform="translate(0.01 0.01)"/><path class="cls-10" d="M619.47,220.9a12.14,12.14,0,0,0,.08-5.54c-1.77-7.83-11.14-10.9-12-11.16" transform="translate(0.01 0.01)"/><path class="cls-10" d="M619.47,220.9c-5.76-.6-12-2.57-17.9-3.58" transform="translate(0.01 0.01)"/><path class="cls-11" d="M568.3,217.32a107.66,107.66,0,0,0,14.75,19c7,7.32,14.83,15.59,27.2,20.57A120,120,0,0,0,636,264c-3.54,15.82-5.84,31.37-1,48.69-9.37-12.84-28.32-33.45-42.09-49.29-7.71-8.87-13.77-16.51-15.67-19.84C568.39,231.63,567.15,222,568.3,217.32Z" transform="translate(0.01 0.01)"/><path class="cls-10" d="M595.59,253.76a68.46,68.46,0,0,0,8.4,5.76,71.36,71.36,0,0,0,19.24,7.68" transform="translate(0.01 0.01)"/><path class="cls-11" d="M716.38,229.76c.07,0-3.06-29.93-2.8-30.1.76-.49-2-5.15,2.31-1.46,1.87,1.59,4.64,2.8,6.08,5.45,1.63,3,.64,4.66,2.51,6.77,2.61,2.93,6.24,1.6,8.29,4.21s.59,6.79.38,7.32c-1.57,4.09-7.84,8.36-7.08,7" transform="translate(0.01 0.01)"/><path class="cls-10" d="M725.93,229.76c1-2.23,3.39-5.76,3.08-9.6" transform="translate(0.01 0.01)"/><path class="cls-10" d="M724.09,212.75a37.07,37.07,0,0,0-.38,9.94c.23,2.43,1.64,5.21,2.2,6.79" transform="translate(0.01 0.01)"/><path class="cls-10" d="M715.84,203.63a32.2,32.2,0,0,0,1.59,14.83c2.66,7.39,6.18,9.5,8.18,11.78" transform="translate(0.01 0.01)"/><path class="cls-11" d="M714.17,283.62S756,251.77,762,230.24c1.74,14.34-10,33-12.34,37.63-1,2.37-5.17,9.68-11,18.63-8.2,12.6-19.26,28.94-26,43.63C715,321.58,718.71,302,714.17,283.62Z" transform="translate(0.01 0.01)"/><path class="cls-10" d="M722.35,285.22a71.9,71.9,0,0,0,10.9-9,69.47,69.47,0,0,0,10-12.89" transform="translate(0.01 0.01)"/><path class="cls-10" d="M675.73,257.51c-2-1.84-.29-10.45,5.29-15.13,8.39-7,15.33,0,25.56-5.62C708.59,241.32,696.45,262.08,675.73,257.51Z" transform="translate(0.01 0.01)"/><path class="cls-10" d="M634.23,165c-4.75,1.2-37.33,12-58.62,35.06a29.71,29.71,0,0,0-5.11,33.45c11.9,24,45,51.37,67.77,84.84-12.92-22-.58-68.58,13.3-92.72-9,0-25-2.66-32.09-4.65" transform="translate(0.01 0.01)"/><path class="cls-10" d="M717.59,208" transform="translate(0.01 0.01)"/><path class="cls-10" d="M706.59,162.76C723.37,168,738.52,179.65,752.3,202c9.45,15.3,14.46,29.63,6.36,48.28-17.77,40.93-31.82,47.09-48.88,87.51,10.36-33.33,7.22-63.92-10.42-78.46,12.16-9,20-18,26.91-30.72" transform="translate(0.01 0.01)"/><path class="cls-12" d="M665.87,283.53a36.82,36.82,0,0,0,4.94.38,49.82,49.82,0,0,0,9.12-.76" transform="translate(0.01 0.01)"/><path class="cls-13" d="M670.81,297.21c2.28.76,10.71-1.78,11.41-2.28" transform="translate(0.01 0.01)"/><path class="cls-13" d="M678,247c-1.06.38-5.32,1.9-9.12,1.14" transform="translate(0.01 0.01)"/><path class="cls-13" d="M671.59,258a42.4,42.4,0,0,1-8,1.14" transform="translate(0.01 0.01)"/><path class="cls-10" d="M653.42,171.44" transform="translate(0.01 0.01)"/><path class="cls-10" d="M652.66,175.62" transform="translate(0.01 0.01)"/><path class="cls-10" d="M654.59,171.44" transform="translate(0.01 0.01)"/><path class="cls-14" d="M727.4,139.62" transform="translate(0.01 0.01)"/><path class="cls-15" d="M613.95,120c-6.51-2.91-8-7.94-7.39-8.74,0,0,4.22,1.84,5.09,1,2-2-17.35-7.74-16.51-24.74.43-8.78,5.26-17.82,8.64-20.91.29-.27.49-3.63,1.47-4.77.5-.58,2.78,1.52,2.74,1a4.4,4.4,0,0,1,2.71-4.71c.85-.3.68,3.89,3,4.66.33-1.43.79-2.37,1.85-2.84,1.47,1.54.46,1.68,2.46,3,4.32,2.1,11.32,8.85,18.83,14.56,10,1.34,24-9.45,30-7.88a.72.72,0,0,1,.5.89h0a.1.1,0,0,1,0,.05c-.79,2.3-4.94,4.65-4.94,4.65,1.6,3,12-9.12,25.7-4.88.33.79-6.64,3.66-6.2,5.3,7.78.91,10.32.89,12.68,0,5.88-3.06,8.51-14.64,17.24-16.38,1.57-1.7,2.83-3.2,3.62-2.91s.14,2.28,1.09,2.28c.46,0,1.79-2.11,2.26-3.61,3.77.17,2.83,5.13,3.32,5.12.71,0,1.45-1.61,1.66-1.76.79,0,1.52,2.7,2,5.85,7.78,9.21,19.24,27.43-2.14,42.09-.11,2.84,4,.43,6.46,0-1.14,6-8.4,10.68-8.48,12.08" transform="translate(0.01 0.01)"/><path class="cls-7" d="M594.48,153.58c6.87-5.41,12.29-12.24,17.17-26.92,5.7-17.13,16.62-49.19,55.27-49.19,46.69,0,50.51,25,60.48,61.37,2.66,9.65,7.89,12.91,14.21,13.19a6.41,6.41,0,0,1-5.4,3.35c1.52,3,2.12,4.63.79,7.49-.79-2.86-4.28-4.45-4.28-4.45-.83,9.54-9.48,14.17-22.81,21.84-2.28,1.32-17.82,16.89-36.11,16.9-26.36,0-40.14-13.78-44-16.37-7.38-4.31-18.47-5.16-27.66-18.83-1.52.52-2.44.33-5,2.42-.86-1.12-.11-4.63,2.88-7.72C596.92,156.67,594.48,155,594.48,153.58Z" transform="translate(0.01 0.01)"/><path class="cls-16" d="M606.19,158.1c-1.31-.4-2.21-3.27-1.47-6.87a9.35,9.35,0,0,1,2-4c5.64-6.91,7.34-10.89,10-18,.54-1.43,1.17-2.82,1.83-4.18a31.05,31.05,0,0,0,1.34-3.16c3.86-10.45,6.39-17.42,10.26-21.82,7.32-6,12.48-4.15,12.07-5.08-1.29-2.46-6.31-3-6.31-3,1.19-3.34,15.56-.4,19.72-1.54-1.94-2.46-4.74-3.12-4.09-4.52a45.7,45.7,0,0,0,18.39,3.42,64,64,0,0,0,15.62-2.76c.59,1.06-1.52,2.66-2.22,4.63,3.54,2.07,17.32-1.11,17.94.88,0,0-4,1.52-4.64,3a56,56,0,0,1,8.21,3.12A14.07,14.07,0,0,1,711,104c4.28,7.68,2.69,18.52,11,35.14,3.7,7.39,9.5,12.64,8.31,15.55,0,0-2.92-2.83-5.65-3.31-.08,2,2.28,7.64,1.33,8.16a11.11,11.11,0,0,0-3.21-1.87,13.44,13.44,0,0,1-1.33,6.73c-1.52,2.86-10.23,9.31-18.39,9.75a10.26,10.26,0,0,0-6.3,2.45c-3,2.61-7.7,4.09-11.2,1.48-.5-.38,3.09-.67,4.94-1.94-1.36-1.38,1-1.19.4-1.61,2.11-2.26-2.17.15-2.22-1.56-15,5.78-19.91-13-19.91-13s-4.85,23.26-22,8.15c.09,1.2,1.52,4.31,1.11,4.88-1.52-.66-2.63.67-3.57,1.77,3.8.22,7.63,1.94,6.91,2.44-8.28,5.73-6.91-.69-16.11-3.88-7.83-2.72-11.31-2.87-15.13-4.39a9.92,9.92,0,0,1-6.36-8.28v-.84c-1.1-.22-2,.83-2.88,2.31-.92-.38-.17-6.37.67-8.27C607.49,154.09,606.49,157.94,606.19,158.1Z" transform="translate(0.01 0.01)"/><path class="cls-14" d="M741.59,152a6.41,6.41,0,0,1-5.4,3.35" transform="translate(0.01 0.01)"/><path class="cls-14" d="M727.4,138.86" transform="translate(0.01 0.01)"/><path class="cls-10" d="M664.26,74.5" transform="translate(0.01 0.01)"/><path class="cls-10" d="M667.59,69.7" transform="translate(0.01 0.01)"/><path class="cls-10" d="M636.9,77.37" transform="translate(0.01 0.01)"/><path class="cls-3" d="M631.71,149.74c-.29-2.14.24-2.58,1-2.8.69,2.06,3.28,5.76,6.08,6,1.25-3.78,11.48-6.88,12.86-7.26.41.6-.9,2.22-.76,2.33,4.52.27,8.8-10,10.52-11.49,1.65.88,4.94,10.21-.87,16.5,3.31,4.87,13.93,4.84,16.87.23-5.15-7.73-3-15.59-1.61-16.38,1.52.58,6.61,9.82,11.46,12.66-.66-1.9-.43-2.45.11-2.8,1.32,1.55,8.07,9.55,12.49,10.72,3.75-2.27,5.52-8,6.68-7.47.71.29.69,2.21.55,3.26,1.64-.74,7.93-7.14,7.88-15.72,0-10.68-10.93-19.94-20.37-20.38a28.29,28.29,0,0,0-18.14,5.2c-1.57-3,2.37-7.77,2.37-7.77-.76-.71-3.76-.38-6.54,2.14,0-1.67-2.36-6.84-3.54-6.68s-2.44,3.77-3.36,6.91c-.62.47-2.66-3.57-6.46-2.33,2.23,2.72,4,6.44,3,7.88-3.14-2.41-6.9-4.18-13.91-4.77-10.62-.89-23.29,7.11-24.78,16.7C621.92,142.91,630.2,150.38,631.71,149.74Z" transform="translate(0.01 0.01)"/><path class="cls-17" d="M676.14,126a9,9,0,0,0,.28,4.56c.84,2.41,2.39,3.25,5.22,6.35,6.08,6.68,9.12,10,13.6,10,4.88,0,9.5-3.63,11.54-8a13.39,13.39,0,0,0,1.14-8.68c-1-4.23-4.08-7.88-7.71-10.31-5.76-3.84-13-5.95-16.73-4.5C679.49,117.33,677,121.3,676.14,126Z" transform="translate(0.01 0.01)"/><path class="cls-17" d="M669.43,168.91c-.43,0,.43-5.79-2.5-9.12-.92-1-1.82-1.74-5.49-3.25-2.68-1.1-5.8-2.33-6.18-4.41-.24-4.27,6.66-5.93,13.46-6.15s14.07,1.34,14.07,5.47c0,2.15-2.13,2.73-5.29,4.38-2.61,1.36-4.2,1.88-5.7,3.52C668.7,162.74,669.87,168.92,669.43,168.91Z" transform="translate(0.01 0.01)"/><path class="cls-16" d="M661.4,148.84c-.06-.53,3.19-1.74,7.6-1.74,4.94,0,7.8,1,7.75,1.57C676.72,149.71,661.53,149.86,661.4,148.84Z" transform="translate(0.01 0.01)"/><path class="cls-17" d="M661.88,126a9,9,0,0,1-.28,4.56c-.84,2.41-2.39,3.25-5.22,6.35-6.08,6.68-9.12,10-13.6,10-4.88,0-9.5-3.63-11.54-8a13.39,13.39,0,0,1-1.14-8.68c1-4.23,4.08-7.88,7.71-10.31,5.76-3.84,13-5.95,16.73-4.5C658.52,117.33,661,121.3,661.88,126Z" transform="translate(0.01 0.01)"/><path class="cls-3" d="M689.59,153.28c.26-.48,4,.88,6.91,2.66a9.41,9.41,0,0,1,3.5,3.23c2.1,3.77,2.25,9.59,2.23,9.32-.22-2.89-2.9-8.88-4.91-9.77.16,1,4,4.44-1.27,20.53-.07.12,2.83-15.35-1.56-21.76C692.59,154.7,689.34,153.73,689.59,153.28Z" transform="translate(0.01 0.01)"/><path class="cls-3" d="M648.2,153.28c-.26-.48-4,.88-6.91,2.66a9.41,9.41,0,0,0-3.5,3.23c-2.1,3.77-2.25,9.59-2.23,9.32.22-2.89,2.9-8.88,4.91-9.77-.16,1-4,4.44,1.27,20.53.07.12-2.83-15.35,1.56-21.76C645.22,154.7,648.43,153.73,648.2,153.28Z" transform="translate(0.01 0.01)"/><path class="cls-10" d="M644.69,158.3A14.76,14.76,0,0,0,648,169.14c3.72,5.85,10.32,6.08,14.4,4.74a16,16,0,0,0,6.76-4.41" transform="translate(0.01 0.01)"/><path class="cls-10" d="M694.42,160.08c0,11.78-9.36,14.16-9.69,14.23a16.17,16.17,0,0,1-8.59-.43,15.74,15.74,0,0,1-6.7-4.92" transform="translate(0.01 0.01)"/><path class="cls-7" d="M677,114.51c-.35-.43-1.72-2.14-1.56-3.88.41-4.23,9.75-4.85,11.58-5,15.13-1,22.52,11.23,39.53,17.21,18.35,6.46,32.34.14,32.58,1.66s-11.68,4.44-27.42,4.28c-16.8-2-19.64-4.94-30.94-10.07A20,20,0,0,0,689,117C684.59,117.84,679.91,118.13,677,114.51Z" transform="translate(0.01 0.01)"/><path class="cls-7" d="M659.59,163.84c-.06-2-2.24-3.42-2.83-3.8-5.34-3.45-14.09,0-23.93,6.12-19.11,11.91-26,15.89-28,16.73a78.53,78.53,0,0,1-41.07,4.47c-11.33-1.26-19.35-4.91-19.44-4.63s11.23,5.9,26.25,7.78c15.65,2,27.9-1,35.56-3,4.56-1.14,25.12-10.91,28.58-12.61C649.59,167.56,659.73,167.7,659.59,163.84Z" transform="translate(0.01 0.01)"/><path class="cls-16" d="M655.17,162.07a4.36,4.36,0,0,0-3.12-1.55,20.78,20.78,0,0,0-8.92,1.55,71.9,71.9,0,0,0-13.38,8.22A152.81,152.81,0,0,1,614.81,180a80.33,80.33,0,0,1-14.49,6.22,58.86,58.86,0,0,1-20.62,2.94c0,.2,7.32.56,16.7-1.08a67.43,67.43,0,0,0,17.52-5.86c4.15-1.77,7.14-4,13.16-7.32a114.08,114.08,0,0,1,11.82-6.66,43.61,43.61,0,0,1,7.13-2.66,26.69,26.69,0,0,1,6.24-.67c1.72-.18,2.36.06,3.12-.89C655.93,163.41,655.69,162.79,655.17,162.07Z" transform="translate(0.01 0.01)"/><path class="cls-7" d="M680.21,183c-2.58-3.33-2.94-3.61-3.63-4a9.58,9.58,0,0,0-9.66.72c-2,1.45-1.78,2.77-4.15,4.09-1.81,1-3,.84-4.65,1.31-3.42,1-5.44,3.65-7.14,5.9-5,6.65-7.66,17.46-8.31,19.84-3.08,11.53-11.48,18.74-19.08,25.3C603.18,253.73,570,257.94,548,247.49c-5.66-2.69-12.6-7.3-13.14-6.56s7.11,8,14.12,12.63c20.32,13.25,52.7,16,76.76,3.12,12.76-6.84,21.89-17.35,23.59-15.75,1,1-1.41,5.7-4.49,9-6.23,6.76-15,7.78-14.79,8.36s5.7.31,12.29-2.28c7.26-2.88,11.81-7.2,18.11-13.28,5.53-5.34,8.83-8.54,12.46-13.94,4.15-6.18,7.6-11,11.38-22.14,3.45-10.23,2.15-14.86.41-17.71C684.39,188.45,683,186.65,680.21,183Z" transform="translate(0.01 0.01)"/><path class="cls-16" d="M663,187c-.52-.73-3.66.26-4.24.45a7.85,7.85,0,0,0-4.61,3.26c-4.37,5.84-8.12,17.53-11,23.8-3.27,7.22-6.75,12.8-9.62,16a70.07,70.07,0,0,1-23,17.11c-5.46,2.5-25.61,13.3-48.17,7.11A150.81,150.81,0,0,1,547.91,250s2.58,1.48,10.48,5.11a106.61,106.61,0,0,0,14,4.84c20.1,5.41,39.35-.49,41.37-1.14a78.18,78.18,0,0,0,31.07-19.43c11.2-11.5,16-24,17.44-23.32,1.26.57-.51,10.18-1.29,12.39-1.87,5.23-2.43,8.3-7.13,14-4,4.8-7.32,8.66-7.13,8.88s2.92-2.84,9.09-8.39c5.25-4.72,8.61-9.26,15.12-18.14,8.56-11.68,10.2-15.68,11.13-18.78a33,33,0,0,0,.67-13.11c-.24-1.58-.67-4.25-1.66-4.37-.43,0-1.44.32-3.49,6-3.84,10.64-3.72,18.76-4.65,18.78-.71,0-1.62-4.65-2-9.55-.74-9.8,5.38-22.36,4.11-22.81-1.64-.59-10.26,7.6-13.75,21.36-1.77,7-2.69,7.91-5,13.11-5.16,11.67-13.34,19.26-13.78,19s3-4.6,8.47-14.9c4.88-9.15,5-20,6-23.15C658.68,190.58,663.82,188.13,663,187Z" transform="translate(0.01 0.01)"/><path class="cls-7" d="M678,161.86c.7-2.14,4.07-2.73,4.65-2.81a9.79,9.79,0,0,1,6.46,1.49c1.74,1,5.11,3.53,7.81,11.41,1.31,3.83,4.28,12.58,2,22.18-5.26,22.1-33.9,29.73-39,31.1-13.73,3.66-23.59,1.19-25.59.66-6.21-1.65-11.78-4.69-11.63-5.13s5.66,2,13.3,3a56,56,0,0,0,20.44-1c12.65-3.17,20.82-9.3,22.76-11.17,4.28-4.07,9.86-10,11.39-17.94.46-2.43,1.69-10.15-2-16.3A75,75,0,0,0,680,166.84C678.71,165.43,677.51,163.52,678,161.86Z" transform="translate(0.01 0.01)"/><path class="cls-16" d="M681.26,163.41a2.34,2.34,0,0,1,0-1.33c.67-1.77,3.39-1.27,5.8,0,7.58,4,11.9,16.13,10.7,26.2a37.79,37.79,0,0,1-12,23.13,43.32,43.32,0,0,1-8.64,5.54c-12.46,6.69-23.19,8-23.26,7.78s14.16-1.25,26.83-11.41c3.65-2.93,9.61-7.25,11.92-14.83,1.94-6.32,2.28-12.42,1.56-16.43-1.1-6.08-2.55-9.66-5.13-12.21C685.78,166.6,681.86,167,681.26,163.41Z" transform="translate(0.01 0.01)"/><path class="cls-7" d="M661.15,114.51c.35-.43,1.72-2.14,1.56-3.88-.42-4.24-9.76-4.88-11.58-5-15.13-1-22.52,11.23-39.53,17.21-18.35,6.46-32.34.14-32.58,1.66s11.7,4.43,27.44,4.28c16.8-2,19.64-4.94,30.94-10.07A20,20,0,0,1,649.12,117C653.54,117.84,658.2,118.13,661.15,114.51Z" transform="translate(0.01 0.01)"/><path class="cls-16" d="M658.74,109.23a17.41,17.41,0,0,0-8.92-1.33c-9.88.76-13.35,3.1-23.86,9.55-12.16,7.47-17.36,8.09-22.74,8.88a41.35,41.35,0,0,1-8.47.22,49.58,49.58,0,0,0,18.52-1.11c3.9-1,8.48-2.78,17.66-6.89,15.34-6.88,18.89-5.09,23.37-5.1,4,0,4.94.48,5.57-.8A2.33,2.33,0,0,0,658.74,109.23Z" transform="translate(0.01 0.01)"/><path class="cls-16" d="M679.59,109.23a17.41,17.41,0,0,1,8.92-1.33c9.88.76,13.35,3.1,23.86,9.55,12.16,7.47,17.66,8.31,23,9.1a33.73,33.73,0,0,0,8.16.11c.09.56-8.16,1.46-18.19-1-3.9-1-8.74-3-18-7.11-15.34-6.88-18.89-5.09-23.37-5.1-4,0-4.94.48-5.57-.8A2.36,2.36,0,0,1,679.59,109.23Z" transform="translate(0.01 0.01)"/><path class="cls-16" d="M654.76,129.45a2.32,2.32,0,0,1-1.29,2.42c-1.66.81-4.72,2.26-8.36,3.76-2,.84-2.58-1.52-2.4-4s4.69-6.12,9.12-5.81C653.59,126,654.47,127.61,654.76,129.45Z" transform="translate(0.01 0.01)"/><path class="cls-16" d="M683,129.15a2.6,2.6,0,0,0,1.43,2.81c1.7.83,4.66,2.22,8.17,3.66,2,.84,2.58-1.52,2.4-4s-4.69-6.12-9.12-5.81C684.22,126,683.29,127.44,683,129.15Z" transform="translate(0.01 0.01)"/><path class="cls-15" d="M613.95,119.6c-6.51-2.91-8-7.94-7.39-8.74,0,0,4.22,1.84,5.09,1,2-2-17.35-7.74-16.51-24.74.43-8.78,5.26-17.82,8.64-20.91.29-.27.49-3.63,1.47-4.77.5-.58,2.78,1.52,2.74,1a4.4,4.4,0,0,1,2.71-4.71c.85-.3.68,3.89,3,4.66.33-1.43.79-2.37,1.85-2.84,1.47,1.54.46,1.68,2.46,3,4.32,2.1,11.32,8.85,18.83,14.56,10,1.34,24-9.45,30-7.88a.72.72,0,0,1,.5.89h0a.1.1,0,0,1,0,.05c-.79,2.3-4.94,4.65-4.94,4.65,1.6,3,12-9.12,25.7-4.88.33.79-6.64,3.66-6.2,5.3,7.78.91,10.32.89,12.68,0,5.88-3.06,8.51-14.64,17.24-16.38,1.57-1.7,2.83-3.2,3.62-2.91s.14,2.28,1.09,2.28c.46,0,1.79-2.11,2.26-3.61,3.77.17,2.83,5.13,3.32,5.12.71,0,1.45-1.61,1.66-1.76.79,0,1.52,2.7,2,5.85,7.78,9.21,19.24,27.43-2.14,42.09-.11,2.84,4,.43,6.46,0-1.14,6-8.4,10.68-8.48,12.08" transform="translate(0.01 0.01)"/><path class="cls-7" d="M594.48,153.2c6.87-5.41,12.29-12.24,17.17-26.92,5.7-17.13,16.62-49.19,55.27-49.19,46.69,0,50.51,25,60.48,61.37,2.66,9.65,7.89,12.91,14.21,13.19a6.41,6.41,0,0,1-5.4,3.35c1.52,3,2.12,4.63.79,7.49-.79-2.86-4.28-4.45-4.28-4.45-.83,9.54-9.48,14.17-22.81,21.84-2.28,1.32-17.82,16.89-36.11,16.9-26.36,0-40.14-13.78-44-16.37-7.38-4.31-18.47-5.16-27.66-18.83-1.52.52-2.44.33-5,2.42-.86-1.12-.11-4.63,2.88-7.72C596.92,156.3,594.48,154.64,594.48,153.2Z" transform="translate(0.01 0.01)"/><path class="cls-16" d="M606.19,157.72c-1.31-.4-2.21-3.27-1.47-6.87a9.35,9.35,0,0,1,2-4c5.64-6.91,7.34-10.89,10-18,.54-1.43,1.17-2.82,1.83-4.18a31.05,31.05,0,0,0,1.34-3.16c3.86-10.45,6.39-17.42,10.26-21.82,7.32-6,12.48-4.15,12.07-5.08-1.29-2.46-6.31-3-6.31-3,1.19-3.34,15.56-.4,19.72-1.54-1.94-2.46-4.74-3.12-4.09-4.52A45.7,45.7,0,0,0,669.91,89a64,64,0,0,0,15.62-2.76c.59,1.06-1.52,2.66-2.22,4.63,3.54,2.07,17.32-1.11,17.94.88,0,0-4,1.52-4.64,3a56,56,0,0,1,8.21,3.12,14.07,14.07,0,0,1,6.13,5.73c4.28,7.68,2.69,18.52,11,35.14,3.7,7.39,9.5,12.64,8.31,15.55,0,0-2.92-2.83-5.65-3.31-.08,2,2.28,7.64,1.33,8.16a11.11,11.11,0,0,0-3.21-1.87A13.44,13.44,0,0,1,721.4,164c-1.52,2.86-10.23,9.31-18.39,9.75a10.26,10.26,0,0,0-6.3,2.45c-3,2.61-7.7,4.09-11.2,1.48-.5-.38,3.09-.67,4.94-1.94-1.36-1.38,1-1.19.4-1.61,2.11-2.26-2.17.15-2.22-1.56-15,5.78-19.91-13-19.91-13s-4.85,23.26-22,8.15c.09,1.2,1.52,4.31,1.11,4.88-1.52-.66-2.63.67-3.57,1.77,3.8.22,7.63,1.94,6.91,2.44-8.28,5.73-6.91-.69-16.11-3.88-7.83-2.72-11.31-2.87-15.13-4.39a9.92,9.92,0,0,1-6.31-8.34v-.84c-1.1-.22-2,.83-2.88,2.31-.92-.38-.17-6.37.67-8.27C607.49,153.71,606.49,157.55,606.19,157.72Z" transform="translate(0.01 0.01)"/><path class="cls-14" d="M741.59,151.68a6.41,6.41,0,0,1-5.4,3.35" transform="translate(0.01 0.01)"/><path class="cls-14" d="M727.4,138.48" transform="translate(0.01 0.01)"/><path class="cls-10" d="M664.26,74.12" transform="translate(0.01 0.01)"/><path class="cls-10" d="M667.59,69.32" transform="translate(0.01 0.01)"/><path class="cls-10" d="M636.9,77" transform="translate(0.01 0.01)"/><path class="cls-3" d="M631.71,149.37c-.29-2.14.24-2.58,1-2.8.69,2.06,3.28,5.76,6.08,6,1.25-3.78,11.48-6.88,12.86-7.26.41.6-.9,2.22-.76,2.33,4.52.27,8.8-10,10.52-11.49,1.65.88,4.94,10.21-.87,16.5,3.31,4.87,13.93,4.84,16.87.23-5.15-7.73-3-15.59-1.61-16.38,1.52.58,6.61,9.82,11.46,12.66-.66-1.9-.43-2.45.11-2.8,1.32,1.55,8.07,9.55,12.49,10.72,3.75-2.27,5.52-8,6.68-7.47.71.29.69,2.21.55,3.26,1.64-.74,7.93-7.14,7.88-15.72,0-10.68-10.93-19.94-20.37-20.38a28.29,28.29,0,0,0-18.14,5.2c-1.57-3,2.37-7.77,2.37-7.77-.76-.71-3.76-.38-6.54,2.14,0-1.67-2.36-6.84-3.54-6.68s-2.44,3.77-3.36,6.91c-.62.47-2.66-3.57-6.46-2.33,2.23,2.72,4,6.44,3,7.88-3.14-2.41-6.9-4.18-13.91-4.77-10.62-.89-23.29,7.11-24.78,16.7C621.92,142.54,630.2,150,631.71,149.37Z" transform="translate(0.01 0.01)"/><path class="cls-17" d="M676.14,125.57a9,9,0,0,0,.28,4.56c.84,2.41,2.39,3.25,5.22,6.35,6.08,6.68,9.12,10,13.6,10,4.88,0,9.5-3.63,11.54-8a13.39,13.39,0,0,0,1.14-8.68c-1-4.23-4.08-7.88-7.71-10.31-5.76-3.84-13-5.95-16.73-4.5C679.49,117,677,120.91,676.14,125.57Z" transform="translate(0.01 0.01)"/><path class="cls-17" d="M669.43,168.53c-.43,0,.43-5.79-2.5-9.12-.92-1-1.82-1.74-5.49-3.25-2.68-1.1-5.8-2.33-6.18-4.41-.24-4.27,6.66-5.93,13.46-6.15s14.07,1.34,14.07,5.47c0,2.15-2.13,2.73-5.29,4.38-2.61,1.36-4.2,1.88-5.7,3.52C668.7,162.36,669.87,168.53,669.43,168.53Z" transform="translate(0.01 0.01)"/><path class="cls-16" d="M661.4,148.46c-.06-.53,3.19-1.74,7.6-1.74,4.94,0,7.8,1,7.75,1.57C676.72,149.33,661.53,149.48,661.4,148.46Z" transform="translate(0.01 0.01)"/><path class="cls-17" d="M661.88,125.57a9,9,0,0,1-.28,4.56c-.84,2.41-2.39,3.25-5.22,6.35-6.08,6.68-9.12,10-13.6,10-4.88,0-9.5-3.63-11.54-8a13.39,13.39,0,0,1-1.14-8.68c1-4.23,4.08-7.88,7.71-10.31,5.76-3.83,13-5.93,16.74-4.49C658.52,117,661,120.91,661.88,125.57Z" transform="translate(0.01 0.01)"/><path class="cls-3" d="M689.59,152.9c.26-.48,4,.88,6.91,2.66a9.41,9.41,0,0,1,3.5,3.23c2.1,3.77,2.25,9.59,2.23,9.32-.22-2.89-2.9-8.88-4.91-9.77.16,1,4,4.44-1.27,20.53-.07.12,2.83-15.35-1.56-21.76C692.59,154.32,689.34,153.35,689.59,152.9Z" transform="translate(0.01 0.01)"/><path class="cls-3" d="M648.2,152.9c-.26-.48-4,.88-6.91,2.66a9.41,9.41,0,0,0-3.5,3.23c-2.1,3.77-2.25,9.59-2.23,9.32.22-2.89,2.9-8.88,4.91-9.77-.16,1-4,4.44,1.27,20.53.07.12-2.83-15.35,1.56-21.76C645.22,154.32,648.43,153.35,648.2,152.9Z" transform="translate(0.01 0.01)"/><path class="cls-10" d="M644.69,157.93A14.76,14.76,0,0,0,648,168.77c3.72,5.85,10.32,6.08,14.4,4.74a16,16,0,0,0,6.76-4.41" transform="translate(0.01 0.01)"/><path class="cls-10" d="M694.42,159.7c0,11.78-9.36,14.16-9.69,14.23a16.17,16.17,0,0,1-8.59-.43,15.74,15.74,0,0,1-6.7-4.92" transform="translate(0.01 0.01)"/><path class="cls-7" d="M677,114.13c-.35-.43-1.72-2.14-1.56-3.88.41-4.23,9.75-4.85,11.58-5,15.13-1,22.52,11.23,39.53,17.21,18.35,6.46,32.34.14,32.58,1.66s-11.68,4.44-27.42,4.28c-16.8-2-19.64-4.94-30.94-10.07A20,20,0,0,0,689,116.66C684.59,117.46,679.91,117.75,677,114.13Z" transform="translate(0.01 0.01)"/><path class="cls-7" d="M659.59,163.46c-.06-2-2.24-3.42-2.83-3.8-5.34-3.45-14.09,0-23.93,6.12-19.1,11.91-26,15.89-28,16.73a78.53,78.53,0,0,1-41.09,4.5c-11.33-1.26-19.35-4.91-19.44-4.63s11.23,5.9,26.25,7.78c15.65,2,27.9-1,35.56-3,4.56-1.14,25.12-10.91,28.58-12.61C649.59,167.18,659.73,167.32,659.59,163.46Z" transform="translate(0.01 0.01)"/><path class="cls-16" d="M655.17,161.7a4.36,4.36,0,0,0-3.12-1.55,20.78,20.78,0,0,0-8.92,1.55,71.9,71.9,0,0,0-13.38,8.22,152.8,152.8,0,0,1-14.94,9.77,80.33,80.33,0,0,1-14.49,6.22,58.86,58.86,0,0,1-20.62,2.94c0,.2,7.32.56,16.7-1.08a67.43,67.43,0,0,0,17.52-5.86c4.15-1.77,7.14-4,13.16-7.32a114.08,114.08,0,0,1,11.82-6.66,43.61,43.61,0,0,1,7.13-2.66,26.69,26.69,0,0,1,6.24-.67c1.72-.18,2.36.06,3.12-.89C655.93,163,655.69,162.41,655.17,161.7Z" transform="translate(0.01 0.01)"/><path class="cls-7" d="M680.21,182.67c-2.58-3.33-2.94-3.61-3.63-4a9.58,9.58,0,0,0-9.66.72c-2,1.45-1.78,2.77-4.15,4.09-1.81,1-3,.84-4.65,1.31-3.42,1-5.44,3.65-7.14,5.9-5,6.65-7.66,17.46-8.31,19.84-3.08,11.48-11.48,18.7-19.08,25.26C603.18,253.35,570,257.56,548,247.11c-5.66-2.69-12.6-7.3-13.14-6.56s7.11,8,14.12,12.63c20.32,13.25,52.7,16,76.76,3.12,12.76-6.84,21.89-17.35,23.59-15.75,1,1-1.41,5.7-4.49,9-6.23,6.76-15,7.78-14.79,8.36s5.7.31,12.29-2.28c7.26-2.88,11.81-7.2,18.11-13.28,5.53-5.34,8.83-8.54,12.46-13.94,4.15-6.18,7.6-11,11.38-22.14,3.45-10.23,2.15-14.86.41-17.71C684.39,188.07,683,186.27,680.21,182.67Z" transform="translate(0.01 0.01)"/><path class="cls-16" d="M663,186.57c-.52-.73-3.66.26-4.24.45a7.85,7.85,0,0,0-4.61,3.26c-4.37,5.84-8.12,17.53-11,23.8-3.27,7.22-6.75,12.8-9.62,16a70.07,70.07,0,0,1-23,17.11c-5.46,2.5-25.61,13.3-48.17,7.11a150.81,150.81,0,0,1-14.49-4.66s2.58,1.48,10.48,5.11a106.61,106.61,0,0,0,14,4.84c20.1,5.41,39.35-.49,41.37-1.14A78.18,78.18,0,0,0,644.83,239c11.2-11.5,16-24,17.44-23.32,1.26.57-.51,10.18-1.29,12.39-1.87,5.23-2.43,8.3-7.13,14-4,4.8-7.32,8.66-7.13,8.88s2.92-2.84,9.09-8.39c5.25-4.72,8.61-9.26,15.12-18.14,8.56-11.68,10.2-15.68,11.13-18.78a33,33,0,0,0,.67-13.11c-.24-1.58-.67-4.25-1.66-4.37-.43,0-1.44.32-3.49,6-3.84,10.64-3.72,18.76-4.65,18.78-.71,0-1.62-4.65-2-9.55-.74-9.8,5.38-22.36,4.11-22.81-1.64-.59-10.26,7.6-13.75,21.36-1.77,7-2.69,7.91-5,13.11-5.16,11.67-13.34,19.26-13.78,19s3-4.6,8.47-14.9c4.88-9.15,5-20,6-23.15C658.68,190.19,663.82,187.75,663,186.57Z" transform="translate(0.01 0.01)"/><path class="cls-7" d="M678,161.48c.7-2.14,4.07-2.73,4.65-2.81a9.79,9.79,0,0,1,6.46,1.49c1.74,1,5.11,3.53,7.81,11.41,1.31,3.83,4.28,12.58,2,22.18-5.26,22.1-33.9,29.73-39,31.1-13.73,3.66-23.59,1.19-25.59.66-6.21-1.65-11.78-4.69-11.63-5.13s5.66,2,13.3,3a56,56,0,0,0,20.44-1c12.65-3.17,20.82-9.3,22.76-11.17,4.28-4.07,9.86-10,11.39-17.94.46-2.43,1.69-10.15-2-16.3A75,75,0,0,0,680,166.46C678.71,165,677.51,163.15,678,161.48Z" transform="translate(0.01 0.01)"/><path class="cls-16" d="M681.26,163a2.34,2.34,0,0,1,0-1.33c.67-1.77,3.39-1.27,5.8,0,7.58,4,11.9,16.13,10.7,26.2a37.79,37.79,0,0,1-12,23.13,43.32,43.32,0,0,1-8.64,5.54c-12.46,6.69-23.19,8-23.26,7.78s14.16-1.25,26.83-11.41c3.65-2.93,9.61-7.25,11.92-14.83,1.94-6.32,2.28-12.42,1.56-16.43-1.1-6.08-2.55-9.66-5.13-12.21C685.78,166.21,681.86,166.63,681.26,163Z" transform="translate(0.01 0.01)"/><path class="cls-7" d="M661.15,114.13c.35-.43,1.72-2.14,1.56-3.88-.42-4.24-9.76-4.88-11.58-5-15.13-1-22.52,11.23-39.53,17.21-18.35,6.46-32.34.14-32.58,1.66s11.7,4.43,27.44,4.28c16.8-2,19.64-4.94,30.94-10.07a20,20,0,0,1,11.72-1.67C653.54,117.46,658.2,117.75,661.15,114.13Z" transform="translate(0.01 0.01)"/><path class="cls-16" d="M658.74,108.85a17.41,17.41,0,0,0-8.92-1.33c-9.88.76-13.35,3.1-23.86,9.55-12.16,7.47-17.36,8.09-22.74,8.88a41.35,41.35,0,0,1-8.47.22A49.58,49.58,0,0,0,613.26,125c3.9-1,8.48-2.78,17.66-6.89,15.34-6.88,18.89-5.09,23.37-5.1,4,0,4.94.48,5.57-.8a2.29,2.29,0,0,0-1.12-3.37Z" transform="translate(0.01 0.01)"/><path class="cls-16" d="M679.59,108.85a17.41,17.41,0,0,1,8.92-1.33c9.88.76,13.35,3.1,23.86,9.55,12.16,7.47,17.66,8.31,23,9.1a33.73,33.73,0,0,0,8.16.11c.09.56-8.16,1.46-18.19-1-3.9-1-8.74-3-18-7.11-15.34-6.88-18.89-5.09-23.37-5.1-4,0-4.94.48-5.57-.8A2.36,2.36,0,0,1,679.59,108.85Z" transform="translate(0.01 0.01)"/><path class="cls-16" d="M641.79,134.39a13.52,13.52,0,0,1,3-3.23,15.29,15.29,0,0,1,3.75-2.21,11.66,11.66,0,0,1,4.4-.91,7.9,7.9,0,0,1,2.28.34,6,6,0,0,1,1.08.45,7.48,7.48,0,0,1,.93.67,19,19,0,0,0-4,.9c-1.21.4-2.38.88-3.59,1.37s-2.43,1-3.71,1.47A21.13,21.13,0,0,1,641.79,134.39Z" transform="translate(0.01 0.01)"/><path class="cls-16" d="M696,134.39a21.12,21.12,0,0,1-4.13-1.14c-1.29-.48-2.51-1-3.71-1.47s-2.38-1-3.59-1.37a19,19,0,0,0-4-.9,7.48,7.48,0,0,1,.93-.67,10.7,10.7,0,0,1,1.08-.45,6.66,6.66,0,0,1,1.14-.25,8.22,8.22,0,0,1,1.14-.08,11.66,11.66,0,0,1,4.4.91,15.29,15.29,0,0,1,3.75,2.21A13.52,13.52,0,0,1,696,134.39Z" transform="translate(0.01 0.01)"/><path class="cls-18" d="M71,89.89V105.4H69V89.89Z" transform="translate(0.01 0.01)"/><path class="cls-18" d="M84,94.48a5.42,5.42,0,0,1,1.3,3.9v7h-2V98.56a3.86,3.86,0,0,0-.92-2.77,3.3,3.3,0,0,0-2.51-1,3.43,3.43,0,0,0-2.64,1.07,4.42,4.42,0,0,0-1,3.11v6.4h-2V93.32h2v2.86a4.12,4.12,0,0,1,1.64-2.27,4.75,4.75,0,0,1,2.72-.79A4.51,4.51,0,0,1,84,94.48Z" transform="translate(0.01 0.01)"/><path class="cls-18" d="M95.48,94.23A4.5,4.5,0,0,1,97,97.11H95.07a2.77,2.77,0,0,0-.89-1.77,2.9,2.9,0,0,0-2-.69,2.51,2.51,0,0,0-1.68.52,1.74,1.74,0,0,0-.6,1.4,1.44,1.44,0,0,0,.41,1.07,2.61,2.61,0,0,0,1,.62,16.73,16.73,0,0,0,1.66.45,16.44,16.44,0,0,1,2.17.63,3.4,3.4,0,0,1,1.41,1,2.88,2.88,0,0,1,.58,1.89,3,3,0,0,1-1.11,2.4,4.48,4.48,0,0,1-3,.92,5.67,5.67,0,0,1-3.52-1,4.12,4.12,0,0,1-1.61-2.88h1.94a2.52,2.52,0,0,0,1,1.78,3.45,3.45,0,0,0,2.23.68,2.32,2.32,0,0,0,1.62-.53,1.78,1.78,0,0,0,.58-1.39,1.52,1.52,0,0,0-.42-1.12,2.75,2.75,0,0,0-1-.64,15.26,15.26,0,0,0-1.69-.46,16.48,16.48,0,0,1-2.15-.62,3.29,3.29,0,0,1-1.36-1A2.74,2.74,0,0,1,88,96.56a3,3,0,0,1,1.12-2.45,4.63,4.63,0,0,1,3.06-.94A4.88,4.88,0,0,1,95.48,94.23Z" transform="translate(0.01 0.01)"/><path class="cls-18" d="M105.54,103.64v1.76H104a3.84,3.84,0,0,1-2.76-.88,4,4,0,0,1-.91-2.95V95.06h-1.8V93.32h1.8v-3h2v3h3.12v1.74H102.4v6.56a2.26,2.26,0,0,0,.43,1.6,2.07,2.07,0,0,0,1.49.43Z" transform="translate(0.01 0.01)"/><path class="cls-18" d="M115.92,94a4.59,4.59,0,0,1,1.71,2.35V93.32h2V105.4h-2v-3.08a4.59,4.59,0,0,1-1.71,2.35,5,5,0,0,1-3,.88,5.47,5.47,0,0,1-2.86-.75,5.17,5.17,0,0,1-2-2.14,7.95,7.95,0,0,1,0-6.59,5.16,5.16,0,0,1,2-2.16,5.48,5.48,0,0,1,2.86-.75A5,5,0,0,1,115.92,94Zm-5.37,2.08a5.29,5.29,0,0,0,0,6.49,3.88,3.88,0,0,0,3,1.18,4.11,4.11,0,0,0,2.12-.55,3.83,3.83,0,0,0,1.46-1.55,4.9,4.9,0,0,0,.53-2.32,5,5,0,0,0-.53-2.33,3.74,3.74,0,0,0-1.46-1.55,4.18,4.18,0,0,0-2.12-.54A3.88,3.88,0,0,0,110.55,96.13Z" transform="translate(0.01 0.01)"/><path class="cls-18" d="M130.74,94a4.59,4.59,0,0,1,1.71,2.35V93.32h2V105.6a6.13,6.13,0,0,1-.7,3,5.06,5.06,0,0,1-2,2,5.91,5.91,0,0,1-3,.73,6.38,6.38,0,0,1-4-1.18,5.19,5.19,0,0,1-2-3.18h2a3.43,3.43,0,0,0,1.33,1.9,4.26,4.26,0,0,0,2.52.69,3.69,3.69,0,0,0,2.69-1,3.89,3.89,0,0,0,1.07-2.91v-3.28a4.59,4.59,0,0,1-1.71,2.35,5,5,0,0,1-3,.88,5.47,5.47,0,0,1-2.86-.75,5.17,5.17,0,0,1-2-2.14,7.95,7.95,0,0,1,0-6.59,5.16,5.16,0,0,1,2-2.16,5.48,5.48,0,0,1,2.86-.75A5,5,0,0,1,130.74,94Zm-5.37,2.08a5.29,5.29,0,0,0,0,6.49,3.88,3.88,0,0,0,3,1.18,4.11,4.11,0,0,0,2.12-.55,3.83,3.83,0,0,0,1.46-1.55,4.9,4.9,0,0,0,.53-2.32,5,5,0,0,0-.53-2.33,3.74,3.74,0,0,0-1.46-1.55,4.18,4.18,0,0,0-2.12-.54A3.88,3.88,0,0,0,125.38,96.13Z" transform="translate(0.01 0.01)"/><path class="cls-18" d="M141.38,93.82a5.17,5.17,0,0,1,2.73-.69V95.3h-.62a4.28,4.28,0,0,0-2.77.87A3.48,3.48,0,0,0,139.64,99v6.36h-2V93.32h2v2.44A4.44,4.44,0,0,1,141.38,93.82Z" transform="translate(0.01 0.01)"/><path class="cls-18" d="M154,94a4.59,4.59,0,0,1,1.71,2.35V93.32h2V105.4h-2v-3.08a4.59,4.59,0,0,1-1.71,2.35,5,5,0,0,1-3,.88,5.47,5.47,0,0,1-2.86-.75,5.17,5.17,0,0,1-2-2.14,7.95,7.95,0,0,1,0-6.59,5.16,5.16,0,0,1,2-2.16,5.48,5.48,0,0,1,2.86-.75A5,5,0,0,1,154,94Zm-5.37,2.08a5.29,5.29,0,0,0,0,6.49,3.88,3.88,0,0,0,3,1.18,4.11,4.11,0,0,0,2.12-.55,3.83,3.83,0,0,0,1.46-1.55,4.9,4.9,0,0,0,.53-2.32A5,5,0,0,0,155.2,97a3.74,3.74,0,0,0-1.46-1.55,4.18,4.18,0,0,0-2.12-.54A3.88,3.88,0,0,0,148.65,96.13Z" transform="translate(0.01 0.01)"/><path class="cls-18" d="M179.17,94.48a5.45,5.45,0,0,1,1.29,3.9v7h-2V98.56a3.89,3.89,0,0,0-.87-2.73,3.08,3.08,0,0,0-2.39-.95,3.28,3.28,0,0,0-2.54,1,4.4,4.4,0,0,0-1,3.07v6.4h-2V98.56a3.86,3.86,0,0,0-.88-2.73,3.09,3.09,0,0,0-2.38-.95,3.31,3.31,0,0,0-2.56,1,4.4,4.4,0,0,0-1,3.07v6.4h-2V93.32h2v2.75a3.92,3.92,0,0,1,1.57-2.19,4.91,4.91,0,0,1,5.28,0,4.25,4.25,0,0,1,1.62,2.3,4.37,4.37,0,0,1,1.69-2.28,4.68,4.68,0,0,1,2.68-.8A4.47,4.47,0,0,1,179.17,94.48Z" transform="translate(0.01 0.01)"/><path class="cls-18" d="M189,88.89a1.61,1.61,0,0,1,2,0,1.25,1.25,0,0,1,0,1.78,1.61,1.61,0,0,1-2,0,1.25,1.25,0,0,1,0-1.78Zm2,4.43V105.4h-2V93.32Z" transform="translate(0.01 0.01)"/><path class="cls-18" d="M201.27,94.23a4.5,4.5,0,0,1,1.51,2.87h-1.91a2.77,2.77,0,0,0-.89-1.77,2.9,2.9,0,0,0-2-.69,2.51,2.51,0,0,0-1.68.52,1.74,1.74,0,0,0-.6,1.4,1.44,1.44,0,0,0,.41,1.07,2.61,2.61,0,0,0,1,.62,16.73,16.73,0,0,0,1.66.45,16.44,16.44,0,0,1,2.17.63,3.4,3.4,0,0,1,1.41,1,2.88,2.88,0,0,1,.58,1.89,3,3,0,0,1-1.11,2.4,4.48,4.48,0,0,1-3,.92,5.67,5.67,0,0,1-3.52-1,4.12,4.12,0,0,1-1.61-2.88h1.94a2.52,2.52,0,0,0,1,1.78,3.45,3.45,0,0,0,2.23.68,2.32,2.32,0,0,0,1.62-.53,1.78,1.78,0,0,0,.58-1.39,1.52,1.52,0,0,0-.42-1.12,2.75,2.75,0,0,0-1-.64,15.26,15.26,0,0,0-1.69-.46,16.48,16.48,0,0,1-2.15-.62,3.29,3.29,0,0,1-1.36-1,2.74,2.74,0,0,1-.56-1.82,3,3,0,0,1,1.12-2.45,4.63,4.63,0,0,1,3.06-.94A4.88,4.88,0,0,1,201.27,94.23Z" transform="translate(0.01 0.01)"/><path class="cls-18" d="M219.6,93.92a5.36,5.36,0,0,1,2.16,2.16,7.34,7.34,0,0,1,0,6.59,5.37,5.37,0,0,1-2.16,2.14,6.85,6.85,0,0,1-6.23,0,5.44,5.44,0,0,1-2.17-2.14,7.25,7.25,0,0,1,0-6.59,5.42,5.42,0,0,1,2.17-2.16,6.85,6.85,0,0,1,6.23,0Zm-5.1,1.5A3.64,3.64,0,0,0,213,96.9a5,5,0,0,0-.56,2.48,5,5,0,0,0,.56,2.45,3.64,3.64,0,0,0,1.47,1.49,4.34,4.34,0,0,0,4,0,3.64,3.64,0,0,0,1.47-1.49,5,5,0,0,0,.56-2.45A5,5,0,0,0,220,96.9a3.64,3.64,0,0,0-1.47-1.48,4.34,4.34,0,0,0-4,0Z" transform="translate(0.01 0.01)"/><path class="cls-18" d="M234.92,94.48a5.42,5.42,0,0,1,1.3,3.9v7h-2V98.56a3.86,3.86,0,0,0-.92-2.77,3.3,3.3,0,0,0-2.51-1,3.43,3.43,0,0,0-2.64,1.07,4.42,4.42,0,0,0-1,3.11v6.4h-2V93.32h2v2.86a4.12,4.12,0,0,1,1.64-2.27,4.75,4.75,0,0,1,2.72-.79A4.51,4.51,0,0,1,234.92,94.48Z" transform="translate(0.01 0.01)"/><path class="cls-18" d="M250.32,99.79h-9.66a4.23,4.23,0,0,0,1.18,3.1,3.84,3.84,0,0,0,2.72,1,3.92,3.92,0,0,0,2.43-.74,3,3,0,0,0,1.2-2h2.13a5,5,0,0,1-2.95,3.78,6.52,6.52,0,0,1-2.73.55,6.22,6.22,0,0,1-3.08-.75,5.28,5.28,0,0,1-2.1-2.14,7.53,7.53,0,0,1,0-6.59,5.27,5.27,0,0,1,2.1-2.16,6.22,6.22,0,0,1,3.08-.75,6.08,6.08,0,0,1,3.07.75,5.15,5.15,0,0,1,2,2,5.63,5.63,0,0,1,.69,2.77A6,6,0,0,1,250.32,99.79Zm-2.38-3.21a3.22,3.22,0,0,0-1.39-1.34,4.23,4.23,0,0,0-1.91-.44,4,4,0,0,0-2.77,1,4.12,4.12,0,0,0-1.21,3h7.72A4.11,4.11,0,0,0,247.95,96.58Z" transform="translate(0.01 0.01)"/><path class="cls-18" d="M267.05,93.92a5.36,5.36,0,0,1,2.16,2.16,7.34,7.34,0,0,1,0,6.59,5.37,5.37,0,0,1-2.16,2.14,6.85,6.85,0,0,1-6.23,0,5.44,5.44,0,0,1-2.17-2.14,7.25,7.25,0,0,1,0-6.59,5.42,5.42,0,0,1,2.17-2.16,6.85,6.85,0,0,1,6.23,0Zm-5.1,1.5a3.64,3.64,0,0,0-1.47,1.48,5,5,0,0,0-.56,2.48,5,5,0,0,0,.56,2.45,3.64,3.64,0,0,0,1.47,1.49,4.34,4.34,0,0,0,4,0,3.64,3.64,0,0,0,1.47-1.49,5,5,0,0,0,.56-2.45,5,5,0,0,0-.56-2.48,3.64,3.64,0,0,0-1.47-1.48,4.34,4.34,0,0,0-4,0Z" transform="translate(0.01 0.01)"/><path class="cls-18" d="M275.72,91a2.59,2.59,0,0,0-.63,2v.33H278v1.76H275.1V105.4h-2V95.08h-1.74V93.32h1.74v-.48q0-4.33,4.86-4.14v1.76A3.27,3.27,0,0,0,275.72,91Z" transform="translate(0.01 0.01)"/><path class="cls-18" d="M291.33,103.64v1.76h-1.5a3.84,3.84,0,0,1-2.76-.88,4,4,0,0,1-.91-2.95V95.06h-1.8V93.32h1.8v-3h2v3h3.12v1.74h-3.12v6.56a2.26,2.26,0,0,0,.43,1.6,2.07,2.07,0,0,0,1.49.43Z" transform="translate(0.01 0.01)"/><path class="cls-18" d="M303.54,94.48a5.42,5.42,0,0,1,1.3,3.9v7h-2V98.56a3.86,3.86,0,0,0-.92-2.77,3.3,3.3,0,0,0-2.51-1,3.43,3.43,0,0,0-2.64,1.07,4.42,4.42,0,0,0-1,3.11v6.4h-2V89.12h2v7.06a4.12,4.12,0,0,1,1.64-2.27,4.75,4.75,0,0,1,2.72-.79A4.51,4.51,0,0,1,303.54,94.48Z" transform="translate(0.01 0.01)"/><path class="cls-18" d="M318.94,99.79h-9.66a4.23,4.23,0,0,0,1.18,3.1,3.84,3.84,0,0,0,2.72,1,3.92,3.92,0,0,0,2.43-.74,3,3,0,0,0,1.2-2h2.13A5,5,0,0,1,316,105a6.52,6.52,0,0,1-2.73.55,6.22,6.22,0,0,1-3.08-.75,5.28,5.28,0,0,1-2.1-2.14,7.53,7.53,0,0,1,0-6.59,5.27,5.27,0,0,1,2.1-2.16,6.22,6.22,0,0,1,3.08-.75,6.08,6.08,0,0,1,3.07.75,5.15,5.15,0,0,1,2,2,5.63,5.63,0,0,1,.69,2.77A6,6,0,0,1,318.94,99.79Zm-2.38-3.21a3.22,3.22,0,0,0-1.39-1.34,4.23,4.23,0,0,0-1.91-.44,4,4,0,0,0-2.77,1,4.12,4.12,0,0,0-1.21,3H317A4.11,4.11,0,0,0,316.57,96.58Z" transform="translate(0.01 0.01)"/><path class="cls-18" d="M345.33,94.48a5.45,5.45,0,0,1,1.29,3.9v7h-2V98.56a3.89,3.89,0,0,0-.87-2.73,3.08,3.08,0,0,0-2.39-.95,3.28,3.28,0,0,0-2.54,1,4.4,4.4,0,0,0-1,3.07v6.4h-2V98.56a3.86,3.86,0,0,0-.88-2.73,3.09,3.09,0,0,0-2.38-.95,3.31,3.31,0,0,0-2.56,1,4.4,4.4,0,0,0-1,3.07v6.4h-2V93.32h2v2.75a3.92,3.92,0,0,1,1.57-2.19,4.91,4.91,0,0,1,5.28,0,4.25,4.25,0,0,1,1.62,2.3,4.37,4.37,0,0,1,1.69-2.28,4.68,4.68,0,0,1,2.68-.8A4.47,4.47,0,0,1,345.33,94.48Z" transform="translate(0.01 0.01)"/><path class="cls-18" d="M357.65,94a4.59,4.59,0,0,1,1.71,2.35V93.32h2V105.4h-2v-3.08a4.59,4.59,0,0,1-1.71,2.35,5,5,0,0,1-3,.88,5.47,5.47,0,0,1-2.86-.75,5.17,5.17,0,0,1-2-2.14,7.95,7.95,0,0,1,0-6.59,5.16,5.16,0,0,1,2-2.16,5.48,5.48,0,0,1,2.86-.75A5,5,0,0,1,357.65,94Zm-5.37,2.08a5.29,5.29,0,0,0,0,6.49,3.88,3.88,0,0,0,3,1.18,4.11,4.11,0,0,0,2.12-.55,3.83,3.83,0,0,0,1.46-1.55,4.9,4.9,0,0,0,.53-2.32,5,5,0,0,0-.53-2.33,3.74,3.74,0,0,0-1.46-1.55,4.18,4.18,0,0,0-2.12-.54A3.88,3.88,0,0,0,352.28,96.13Z" transform="translate(0.01 0.01)"/><path class="cls-18" d="M364.57,88.89a1.61,1.61,0,0,1,2,0,1.25,1.25,0,0,1,0,1.78,1.61,1.61,0,0,1-2,0,1.25,1.25,0,0,1,0-1.78Zm2,4.43V105.4h-2V93.32Z" transform="translate(0.01 0.01)"/><path class="cls-18" d="M379.53,94.48a5.42,5.42,0,0,1,1.3,3.9v7h-2V98.56a3.86,3.86,0,0,0-.92-2.77,3.3,3.3,0,0,0-2.51-1,3.43,3.43,0,0,0-2.64,1.07,4.42,4.42,0,0,0-1,3.11v6.4h-2V93.32h2v2.86a4.11,4.11,0,0,1,1.64-2.27,4.75,4.75,0,0,1,2.72-.79A4.51,4.51,0,0,1,379.53,94.48Z" transform="translate(0.01 0.01)"/><path class="cls-18" d="M77.64,120.32a5.36,5.36,0,0,1,2.16,2.16,7.34,7.34,0,0,1,0,6.59,5.37,5.37,0,0,1-2.16,2.14,6.85,6.85,0,0,1-6.23,0,5.44,5.44,0,0,1-2.17-2.14,7.25,7.25,0,0,1,0-6.59,5.42,5.42,0,0,1,2.17-2.16,6.85,6.85,0,0,1,6.23,0Zm-5.1,1.5a3.64,3.64,0,0,0-1.47,1.48,5,5,0,0,0-.56,2.48,5,5,0,0,0,.56,2.45,3.64,3.64,0,0,0,1.47,1.49,4.34,4.34,0,0,0,4,0A3.64,3.64,0,0,0,78,128.22a5,5,0,0,0,.56-2.45A5,5,0,0,0,78,123.3a3.64,3.64,0,0,0-1.47-1.48,4.34,4.34,0,0,0-4,0Z" transform="translate(0.01 0.01)"/><path class="cls-18" d="M93,120.88a5.42,5.42,0,0,1,1.3,3.9v7h-2V125a3.86,3.86,0,0,0-.92-2.77,3.3,3.3,0,0,0-2.51-1,3.43,3.43,0,0,0-2.64,1.07,4.42,4.42,0,0,0-1,3.11v6.4h-2V119.72h2v2.86a4.12,4.12,0,0,1,1.64-2.27,4.75,4.75,0,0,1,2.72-.79A4.51,4.51,0,0,1,93,120.88Z" transform="translate(0.01 0.01)"/><path class="cls-18" d="M99.34,115.52V131.8h-2V115.52Z" transform="translate(0.01 0.01)"/><path class="cls-18" d="M102.57,115.29a1.61,1.61,0,0,1,2,0,1.25,1.25,0,0,1,0,1.78,1.61,1.61,0,0,1-2,0,1.25,1.25,0,0,1,0-1.78Zm2,4.43V131.8h-2V119.72Z" transform="translate(0.01 0.01)"/><path class="cls-18" d="M117.53,120.88a5.42,5.42,0,0,1,1.3,3.9v7h-2V125a3.86,3.86,0,0,0-.92-2.77,3.3,3.3,0,0,0-2.51-1,3.43,3.43,0,0,0-2.64,1.07,4.42,4.42,0,0,0-1,3.11v6.4h-2V119.72h2v2.86a4.12,4.12,0,0,1,1.64-2.27,4.75,4.75,0,0,1,2.72-.79A4.51,4.51,0,0,1,117.53,120.88Z" transform="translate(0.01 0.01)"/><path class="cls-18" d="M132.93,126.19h-9.66a4.23,4.23,0,0,0,1.18,3.1,3.84,3.84,0,0,0,2.72,1,3.92,3.92,0,0,0,2.43-.74,3,3,0,0,0,1.2-2h2.13A5,5,0,0,1,130,131.4a6.52,6.52,0,0,1-2.73.55,6.22,6.22,0,0,1-3.08-.75,5.28,5.28,0,0,1-2.1-2.14,7.53,7.53,0,0,1,0-6.59,5.27,5.27,0,0,1,2.1-2.16,6.22,6.22,0,0,1,3.08-.75,6.08,6.08,0,0,1,3.07.75,5.15,5.15,0,0,1,2,2,5.63,5.63,0,0,1,.69,2.77A6,6,0,0,1,132.93,126.19ZM130.56,123a3.22,3.22,0,0,0-1.39-1.34,4.23,4.23,0,0,0-1.91-.44,4,4,0,0,0-2.77,1,4.12,4.12,0,0,0-1.21,3H131A4.11,4.11,0,0,0,130.56,123Z" transform="translate(0.01 0.01)"/><path class="cls-18" d="M146.84,130v1.76h-1.5a3.84,3.84,0,0,1-2.76-.88,4,4,0,0,1-.91-2.95v-6.51h-1.8v-1.74h1.8v-3h2v3h3.12v1.74h-3.12V128a2.26,2.26,0,0,0,.43,1.6,2.07,2.07,0,0,0,1.49.43Z" transform="translate(0.01 0.01)"/><path class="cls-18" d="M157.87,120.32a5.36,5.36,0,0,1,2.16,2.16,7.34,7.34,0,0,1,0,6.59,5.37,5.37,0,0,1-2.16,2.14,6.85,6.85,0,0,1-6.23,0,5.44,5.44,0,0,1-2.17-2.14,7.25,7.25,0,0,1,0-6.59,5.42,5.42,0,0,1,2.17-2.16,6.85,6.85,0,0,1,6.23,0Zm-5.1,1.5a3.64,3.64,0,0,0-1.47,1.48,5,5,0,0,0-.56,2.48,5,5,0,0,0,.56,2.45,3.64,3.64,0,0,0,1.47,1.49,4.34,4.34,0,0,0,4,0,3.64,3.64,0,0,0,1.47-1.49,5,5,0,0,0,.56-2.45,5,5,0,0,0-.56-2.48,3.64,3.64,0,0,0-1.47-1.48,4.34,4.34,0,0,0-4,0Z" transform="translate(0.01 0.01)"/><path class="cls-18" d="M172,120.32a5.36,5.36,0,0,1,2.16,2.16,7.34,7.34,0,0,1,0,6.59,5.37,5.37,0,0,1-2.16,2.14,6.85,6.85,0,0,1-6.23,0,5.44,5.44,0,0,1-2.17-2.14,7.25,7.25,0,0,1,0-6.59,5.42,5.42,0,0,1,2.17-2.16,6.85,6.85,0,0,1,6.23,0Zm-5.1,1.5a3.64,3.64,0,0,0-1.47,1.48,5,5,0,0,0-.56,2.48,5,5,0,0,0,.56,2.45,3.64,3.64,0,0,0,1.47,1.49,4.34,4.34,0,0,0,4,0,3.64,3.64,0,0,0,1.47-1.49,5,5,0,0,0,.56-2.45,5,5,0,0,0-.56-2.48,3.64,3.64,0,0,0-1.47-1.48,4.34,4.34,0,0,0-4,0Z" transform="translate(0.01 0.01)"/><path class="cls-18" d="M179.57,115.52V131.8h-2V115.52Z" transform="translate(0.01 0.01)"/><path class="cls-18" d="M189.86,120.63a4.5,4.5,0,0,1,1.51,2.87h-1.91a2.77,2.77,0,0,0-.89-1.77,2.9,2.9,0,0,0-2-.69,2.51,2.51,0,0,0-1.68.52,1.74,1.74,0,0,0-.6,1.4,1.44,1.44,0,0,0,.41,1.07,2.61,2.61,0,0,0,1,.62,16.73,16.73,0,0,0,1.66.45,16.44,16.44,0,0,1,2.17.63,3.4,3.4,0,0,1,1.41,1,2.88,2.88,0,0,1,.58,1.89,3,3,0,0,1-1.11,2.4,4.48,4.48,0,0,1-3,.92,5.67,5.67,0,0,1-3.52-1,4.12,4.12,0,0,1-1.61-2.88h1.94a2.52,2.52,0,0,0,1,1.78,3.45,3.45,0,0,0,2.23.68A2.32,2.32,0,0,0,189,130a1.78,1.78,0,0,0,.58-1.39,1.52,1.52,0,0,0-.42-1.12,2.75,2.75,0,0,0-1-.64,15.26,15.26,0,0,0-1.69-.46,16.48,16.48,0,0,1-2.15-.62,3.29,3.29,0,0,1-1.36-1,2.74,2.74,0,0,1-.56-1.82,3,3,0,0,1,1.12-2.45,4.63,4.63,0,0,1,3.06-.94A4.88,4.88,0,0,1,189.86,120.63Z" transform="translate(0.01 0.01)"/><path class="cls-18" d="M195.63,129.45v2.35h-2.42v-2.35Z" transform="translate(0.01 0.01)"/><path class="cls-18" d="M205.25,116.29v9.31a4.83,4.83,0,0,0,1,3.38,3.63,3.63,0,0,0,2.79,1.09,3.51,3.51,0,0,0,2.75-1.1,4.91,4.91,0,0,0,1-3.37v-9.31h2v9.31a6.52,6.52,0,0,1-1.57,4.76,6.33,6.33,0,0,1-8.4,0,6.52,6.52,0,0,1-1.57-4.76v-9.31Z" transform="translate(0.01 0.01)"/><path class="cls-18" d="M225,120.63a4.5,4.5,0,0,1,1.51,2.87h-1.91a2.77,2.77,0,0,0-.89-1.77,2.9,2.9,0,0,0-2-.69,2.51,2.51,0,0,0-1.68.52,1.74,1.74,0,0,0-.6,1.4,1.44,1.44,0,0,0,.41,1.07,2.61,2.61,0,0,0,1,.62,16.73,16.73,0,0,0,1.66.45,16.44,16.44,0,0,1,2.17.63,3.4,3.4,0,0,1,1.41,1,2.88,2.88,0,0,1,.58,1.89,3,3,0,0,1-1.11,2.4,4.48,4.48,0,0,1-3,.92,5.67,5.67,0,0,1-3.52-1,4.12,4.12,0,0,1-1.61-2.88h1.94a2.52,2.52,0,0,0,1,1.78,3.45,3.45,0,0,0,2.23.68,2.32,2.32,0,0,0,1.62-.53,1.78,1.78,0,0,0,.58-1.39,1.52,1.52,0,0,0-.42-1.12,2.75,2.75,0,0,0-1-.64,15.26,15.26,0,0,0-1.69-.46,16.48,16.48,0,0,1-2.15-.62,3.29,3.29,0,0,1-1.36-1,2.74,2.74,0,0,1-.56-1.82,3,3,0,0,1,1.12-2.45,4.63,4.63,0,0,1,3.06-.94A4.88,4.88,0,0,1,225,120.63Z" transform="translate(0.01 0.01)"/><path class="cls-18" d="M240.29,126.19h-9.66a4.23,4.23,0,0,0,1.18,3.1,3.84,3.84,0,0,0,2.72,1,3.92,3.92,0,0,0,2.43-.74,3,3,0,0,0,1.2-2h2.13a5,5,0,0,1-2.95,3.78,6.52,6.52,0,0,1-2.73.55,6.22,6.22,0,0,1-3.08-.75,5.28,5.28,0,0,1-2.1-2.14,7.53,7.53,0,0,1,0-6.59,5.27,5.27,0,0,1,2.1-2.16,6.22,6.22,0,0,1,3.08-.75,6.08,6.08,0,0,1,3.07.75,5.15,5.15,0,0,1,2,2,5.63,5.63,0,0,1,.69,2.77A6,6,0,0,1,240.29,126.19ZM237.92,123a3.22,3.22,0,0,0-1.39-1.34,4.23,4.23,0,0,0-1.91-.44,4,4,0,0,0-2.77,1,4.12,4.12,0,0,0-1.21,3h7.72A4.11,4.11,0,0,0,237.92,123Z" transform="translate(0.01 0.01)"/><path class="cls-18" d="M248.45,115.29a1.61,1.61,0,0,1,2,0,1.25,1.25,0,0,1,0,1.78,1.61,1.61,0,0,1-2,0,1.25,1.25,0,0,1,0-1.78Zm2,4.43V131.8h-2V119.72Z" transform="translate(0.01 0.01)"/><path class="cls-18" d="M259.41,130v1.76h-1.5a3.84,3.84,0,0,1-2.76-.88,4,4,0,0,1-.91-2.95v-6.51h-1.8v-1.74h1.8v-3h2v3h3.12v1.74h-3.12V128a2.26,2.26,0,0,0,.43,1.6,2.07,2.07,0,0,0,1.49.43Z" transform="translate(0.01 0.01)"/><path class="cls-18" d="M275.22,120.45a4.59,4.59,0,0,1,1.71,2.35v-3.08h2V131.8h-2v-3.08a4.59,4.59,0,0,1-1.71,2.35,5,5,0,0,1-3,.88,5.47,5.47,0,0,1-2.86-.75,5.17,5.17,0,0,1-2-2.14,7.95,7.95,0,0,1,0-6.59,5.16,5.16,0,0,1,2-2.16,5.48,5.48,0,0,1,2.86-.75A5,5,0,0,1,275.22,120.45Zm-5.37,2.08a5.29,5.29,0,0,0,0,6.49,3.88,3.88,0,0,0,3,1.18,4.11,4.11,0,0,0,2.12-.55,3.83,3.83,0,0,0,1.46-1.55,4.9,4.9,0,0,0,.53-2.32,5,5,0,0,0-.53-2.33,3.74,3.74,0,0,0-1.46-1.55,4.18,4.18,0,0,0-2.12-.54A3.88,3.88,0,0,0,269.85,122.53Z" transform="translate(0.01 0.01)"/><path class="cls-18" d="M287.88,130v1.76h-1.5a3.84,3.84,0,0,1-2.76-.88,4,4,0,0,1-.91-2.95v-6.51h-1.8v-1.74h1.8v-3h2v3h3.12v1.74h-3.12V128a2.26,2.26,0,0,0,.43,1.6,2.07,2.07,0,0,0,1.49.43Z" transform="translate(0.01 0.01)"/><path class="cls-18" d="M298.87,117.41a2.59,2.59,0,0,0-.63,2v.33h2.86v1.76h-2.86V131.8h-2V121.48H294.5v-1.76h1.74v-.48q0-4.33,4.86-4.14v1.76A3.27,3.27,0,0,0,298.87,117.41Z" transform="translate(0.01 0.01)"/><path class="cls-18" d="M314,119.72V131.8h-2V129a4.06,4.06,0,0,1-1.64,2.25,4.84,4.84,0,0,1-2.74.78,4.48,4.48,0,0,1-3.39-1.35,5.39,5.39,0,0,1-1.3-3.88v-7h2v6.84a3.9,3.9,0,0,0,.92,2.78,3.28,3.28,0,0,0,2.51,1,3.43,3.43,0,0,0,2.64-1.07,4.42,4.42,0,0,0,1-3.11v-6.42Z" transform="translate(0.01 0.01)"/><path class="cls-18" d="M319.23,115.52V131.8h-2V115.52Z" transform="translate(0.01 0.01)"/><path class="cls-18" d="M324.44,115.52V131.8h-2V115.52Z" transform="translate(0.01 0.01)"/><path class="cls-18" d="M342.61,120.32a5.16,5.16,0,0,1,2,2.16,7.95,7.95,0,0,1,0,6.59,5.17,5.17,0,0,1-2,2.14,5.47,5.47,0,0,1-2.86.75,4.92,4.92,0,0,1-3-.89,4.53,4.53,0,0,1-1.68-2.34v8.8h-2v-17.8h2v3.08a4.53,4.53,0,0,1,1.68-2.34,4.92,4.92,0,0,1,3-.89A5.48,5.48,0,0,1,342.61,120.32Zm-5.54,1.57a3.72,3.72,0,0,0-1.47,1.55,5,5,0,0,0-.53,2.33,4.91,4.91,0,0,0,.53,2.32,3.81,3.81,0,0,0,1.47,1.55,4.12,4.12,0,0,0,2.11.55,3.9,3.9,0,0,0,3-1.18,5.29,5.29,0,0,0,0-6.49,3.91,3.91,0,0,0-3-1.18A4.19,4.19,0,0,0,337.07,121.89Z" transform="translate(0.01 0.01)"/><path class="cls-18" d="M356.51,120.32a5.36,5.36,0,0,1,2.16,2.16,7.34,7.34,0,0,1,0,6.59,5.37,5.37,0,0,1-2.16,2.14,6.85,6.85,0,0,1-6.23,0,5.44,5.44,0,0,1-2.17-2.14,7.25,7.25,0,0,1,0-6.59,5.42,5.42,0,0,1,2.17-2.16,6.85,6.85,0,0,1,6.23,0Zm-5.1,1.5a3.64,3.64,0,0,0-1.47,1.48,5,5,0,0,0-.56,2.48,5,5,0,0,0,.56,2.45,3.64,3.64,0,0,0,1.47,1.49,4.34,4.34,0,0,0,4,0,3.64,3.64,0,0,0,1.47-1.49,5,5,0,0,0,.56-2.45,5,5,0,0,0-.56-2.48,3.64,3.64,0,0,0-1.47-1.48,4.34,4.34,0,0,0-4,0Z" transform="translate(0.01 0.01)"/><path class="cls-18" d="M378.65,119.72l-3.48,12.08H373L369.69,122l-3.34,9.83h-2.18l-3.43-12.08h2l2.57,10.16,3.34-10.16h2.09l3.37,10.14,2.6-10.14Z" transform="translate(0.01 0.01)"/><path class="cls-18" d="M391.54,126.19h-9.66a4.23,4.23,0,0,0,1.18,3.1,3.84,3.84,0,0,0,2.72,1,3.92,3.92,0,0,0,2.43-.74,3,3,0,0,0,1.2-2h2.13a5,5,0,0,1-2.95,3.78,6.52,6.52,0,0,1-2.73.55,6.21,6.21,0,0,1-3.08-.75,5.28,5.28,0,0,1-2.1-2.14,7.52,7.52,0,0,1,0-6.59,5.27,5.27,0,0,1,2.1-2.16,6.22,6.22,0,0,1,3.08-.75,6.08,6.08,0,0,1,3.07.75,5.16,5.16,0,0,1,2,2,5.63,5.63,0,0,1,.69,2.77A6,6,0,0,1,391.54,126.19ZM389.16,123a3.22,3.22,0,0,0-1.39-1.34,4.22,4.22,0,0,0-1.91-.44,4,4,0,0,0-2.77,1,4.12,4.12,0,0,0-1.21,3h7.72A4.11,4.11,0,0,0,389.16,123Z" transform="translate(0.01 0.01)"/><path class="cls-18" d="M398,120.22a5.17,5.17,0,0,1,2.73-.69v2.18h-.62a4.28,4.28,0,0,0-2.77.87,3.48,3.48,0,0,0-1.08,2.87v6.36h-2V119.72h2v2.44A4.44,4.44,0,0,1,398,120.22Z" transform="translate(0.01 0.01)"/><path class="cls-18" d="M405.68,129.45v2.35h-2.44v-2.35Zm-.13-13.53-.29,11.33h-1.65l-.29-11.33Z" transform="translate(0.01 0.01)"/><path class="cls-18" d="M84.58,143V158.2h-2V146L77.71,158.2H75.93L71,146.08V158.2H69V143h2.4l5.41,12.8L82.18,143Z" transform="translate(0.01 0.01)"/><path class="cls-18" d="M96.38,146.72a5.36,5.36,0,0,1,2.16,2.16,7.34,7.34,0,0,1,0,6.59,5.37,5.37,0,0,1-2.16,2.14,6.85,6.85,0,0,1-6.23,0A5.44,5.44,0,0,1,88,155.46a7.25,7.25,0,0,1,0-6.59,5.42,5.42,0,0,1,2.17-2.16,6.85,6.85,0,0,1,6.23,0Zm-5.1,1.5a3.64,3.64,0,0,0-1.47,1.48,5,5,0,0,0-.56,2.48,5,5,0,0,0,.56,2.45,3.64,3.64,0,0,0,1.47,1.49,4.34,4.34,0,0,0,4,0,3.64,3.64,0,0,0,1.47-1.49,5,5,0,0,0,.56-2.45,5,5,0,0,0-.56-2.48,3.64,3.64,0,0,0-1.47-1.48,4.34,4.34,0,0,0-4,0Z" transform="translate(0.01 0.01)"/><path class="cls-18" d="M105.67,146.62a5.17,5.17,0,0,1,2.73-.69v2.18h-.62A4.28,4.28,0,0,0,105,149a3.48,3.48,0,0,0-1.08,2.87v6.36h-2V146.12h2v2.44A4.44,4.44,0,0,1,105.67,146.62Z" transform="translate(0.01 0.01)"/><path class="cls-18" d="M121.4,152.59h-9.66a4.23,4.23,0,0,0,1.18,3.1,3.84,3.84,0,0,0,2.72,1,3.92,3.92,0,0,0,2.43-.74,3,3,0,0,0,1.2-2h2.13a5,5,0,0,1-2.95,3.78,6.52,6.52,0,0,1-2.73.55,6.22,6.22,0,0,1-3.08-.75,5.28,5.28,0,0,1-2.1-2.14,7.53,7.53,0,0,1,0-6.59,5.27,5.27,0,0,1,2.1-2.16,6.22,6.22,0,0,1,3.08-.75,6.08,6.08,0,0,1,3.07.75,5.15,5.15,0,0,1,2,2,5.63,5.63,0,0,1,.69,2.77A6,6,0,0,1,121.4,152.59ZM119,149.38a3.22,3.22,0,0,0-1.39-1.34,4.23,4.23,0,0,0-1.91-.44,4,4,0,0,0-2.77,1,4.12,4.12,0,0,0-1.21,3h7.72A4.11,4.11,0,0,0,119,149.38Z" transform="translate(0.01 0.01)"/><path class="cls-18" d="M129.57,141.69a1.61,1.61,0,0,1,2,0,1.25,1.25,0,0,1,0,1.78,1.61,1.61,0,0,1-2,0,1.25,1.25,0,0,1,0-1.78Zm2,4.43V158.2h-2V146.12Z" transform="translate(0.01 0.01)"/><path class="cls-18" d="M144.53,147.28a5.42,5.42,0,0,1,1.3,3.9v7h-2v-6.84a3.86,3.86,0,0,0-.92-2.77,3.3,3.3,0,0,0-2.51-1,3.43,3.43,0,0,0-2.64,1.07,4.42,4.42,0,0,0-1,3.11v6.4h-2V146.12h2V149a4.12,4.12,0,0,1,1.64-2.27,4.75,4.75,0,0,1,2.72-.79A4.51,4.51,0,0,1,144.53,147.28Z" transform="translate(0.01 0.01)"/><path class="cls-18" d="M152,143.81a2.59,2.59,0,0,0-.63,2v.33h2.86v1.76h-2.86V158.2h-2V147.88h-1.74v-1.76h1.74v-.48q0-4.33,4.86-4.14v1.76A3.27,3.27,0,0,0,152,143.81Z" transform="translate(0.01 0.01)"/><path class="cls-18" d="M165,146.72a5.36,5.36,0,0,1,2.16,2.16,7.34,7.34,0,0,1,0,6.59,5.37,5.37,0,0,1-2.16,2.14,6.85,6.85,0,0,1-6.23,0,5.44,5.44,0,0,1-2.17-2.14,7.25,7.25,0,0,1,0-6.59,5.42,5.42,0,0,1,2.17-2.16,6.85,6.85,0,0,1,6.23,0Zm-5.1,1.5a3.64,3.64,0,0,0-1.47,1.48,5,5,0,0,0-.56,2.48,5,5,0,0,0,.56,2.45,3.64,3.64,0,0,0,1.47,1.49,4.34,4.34,0,0,0,4,0,3.64,3.64,0,0,0,1.47-1.49,5,5,0,0,0,.56-2.45,5,5,0,0,0-.56-2.48,3.64,3.64,0,0,0-1.47-1.48,4.34,4.34,0,0,0-4,0Z" transform="translate(0.01 0.01)"/><path class="cls-18" d="M174.31,146.62a5.17,5.17,0,0,1,2.73-.69v2.18h-.62a4.28,4.28,0,0,0-2.77.87,3.48,3.48,0,0,0-1.08,2.87v6.36h-2V146.12h2v2.44A4.44,4.44,0,0,1,174.31,146.62Z" transform="translate(0.01 0.01)"/><path class="cls-18" d="M197.27,147.28a5.45,5.45,0,0,1,1.29,3.9v7h-2v-6.84a3.89,3.89,0,0,0-.87-2.73,3.08,3.08,0,0,0-2.39-.95,3.28,3.28,0,0,0-2.54,1,4.4,4.4,0,0,0-1,3.07v6.4h-2v-6.84a3.86,3.86,0,0,0-.88-2.73,3.09,3.09,0,0,0-2.38-.95,3.31,3.31,0,0,0-2.56,1,4.4,4.4,0,0,0-1,3.07v6.4h-2V146.12h2v2.75a3.92,3.92,0,0,1,1.57-2.19,4.91,4.91,0,0,1,5.28,0,4.25,4.25,0,0,1,1.62,2.3,4.37,4.37,0,0,1,1.69-2.28,4.68,4.68,0,0,1,2.68-.8A4.47,4.47,0,0,1,197.27,147.28Z" transform="translate(0.01 0.01)"/><path class="cls-18" d="M209.59,146.85a4.59,4.59,0,0,1,1.71,2.35v-3.08h2V158.2h-2v-3.08a4.59,4.59,0,0,1-1.71,2.35,5,5,0,0,1-3,.88,5.47,5.47,0,0,1-2.86-.75,5.17,5.17,0,0,1-2-2.14,7.95,7.95,0,0,1,0-6.59,5.16,5.16,0,0,1,2-2.16,5.48,5.48,0,0,1,2.86-.75A5,5,0,0,1,209.59,146.85Zm-5.37,2.08a5.29,5.29,0,0,0,0,6.49,3.88,3.88,0,0,0,3,1.18,4.11,4.11,0,0,0,2.12-.55,3.83,3.83,0,0,0,1.46-1.55,4.9,4.9,0,0,0,.53-2.32,5,5,0,0,0-.53-2.33,3.74,3.74,0,0,0-1.46-1.55,4.18,4.18,0,0,0-2.12-.54A3.88,3.88,0,0,0,204.22,148.93Z" transform="translate(0.01 0.01)"/><path class="cls-18" d="M222.25,156.44v1.76h-1.5a3.84,3.84,0,0,1-2.76-.88,4,4,0,0,1-.91-2.95v-6.51h-1.8v-1.74h1.8v-3h2v3h3.12v1.74h-3.12v6.56a2.26,2.26,0,0,0,.43,1.6,2.07,2.07,0,0,0,1.49.43Z" transform="translate(0.01 0.01)"/><path class="cls-18" d="M224.71,141.69a1.61,1.61,0,0,1,2,0,1.25,1.25,0,0,1,0,1.78,1.61,1.61,0,0,1-2,0,1.25,1.25,0,0,1,0-1.78Zm2,4.43V158.2h-2V146.12Z" transform="translate(0.01 0.01)"/><path class="cls-18" d="M238.5,146.72a5.36,5.36,0,0,1,2.16,2.16,7.34,7.34,0,0,1,0,6.59,5.37,5.37,0,0,1-2.16,2.14,6.85,6.85,0,0,1-6.23,0,5.44,5.44,0,0,1-2.17-2.14,7.25,7.25,0,0,1,0-6.59,5.42,5.42,0,0,1,2.17-2.16,6.85,6.85,0,0,1,6.23,0Zm-5.1,1.5a3.64,3.64,0,0,0-1.47,1.48,5,5,0,0,0-.56,2.48,5,5,0,0,0,.56,2.45,3.64,3.64,0,0,0,1.47,1.49,4.34,4.34,0,0,0,4,0,3.64,3.64,0,0,0,1.47-1.49,5,5,0,0,0,.56-2.45,5,5,0,0,0-.56-2.48,3.64,3.64,0,0,0-1.47-1.48,4.34,4.34,0,0,0-4,0Z" transform="translate(0.01 0.01)"/><path class="cls-18" d="M253.82,147.28a5.42,5.42,0,0,1,1.3,3.9v7h-2v-6.84a3.86,3.86,0,0,0-.92-2.77,3.3,3.3,0,0,0-2.51-1,3.43,3.43,0,0,0-2.64,1.07,4.42,4.42,0,0,0-1,3.11v6.4h-2V146.12h2V149a4.12,4.12,0,0,1,1.64-2.27,4.75,4.75,0,0,1,2.72-.79A4.51,4.51,0,0,1,253.82,147.28Z" transform="translate(0.01 0.01)"/><path class="cls-18" d="M271.56,146.85a4.59,4.59,0,0,1,1.71,2.35v-3.08h2V158.2h-2v-3.08a4.59,4.59,0,0,1-1.71,2.35,5,5,0,0,1-3,.88,5.47,5.47,0,0,1-2.86-.75,5.17,5.17,0,0,1-2-2.14,7.95,7.95,0,0,1,0-6.59,5.16,5.16,0,0,1,2-2.16,5.48,5.48,0,0,1,2.86-.75A5,5,0,0,1,271.56,146.85Zm-5.37,2.08a5.29,5.29,0,0,0,0,6.49,3.88,3.88,0,0,0,3,1.18,4.11,4.11,0,0,0,2.12-.55,3.83,3.83,0,0,0,1.46-1.55,4.9,4.9,0,0,0,.53-2.32,5,5,0,0,0-.53-2.33,3.74,3.74,0,0,0-1.46-1.55,4.18,4.18,0,0,0-2.12-.54A3.88,3.88,0,0,0,266.2,148.93Z" transform="translate(0.01 0.01)"/><path class="cls-18" d="M288,146.72a5.16,5.16,0,0,1,2,2.16,7.95,7.95,0,0,1,0,6.59,5.17,5.17,0,0,1-2,2.14,5.47,5.47,0,0,1-2.86.75,4.92,4.92,0,0,1-3-.89,4.53,4.53,0,0,1-1.68-2.34v3.08h-2V141.92h2v7.28a4.53,4.53,0,0,1,1.68-2.34,4.92,4.92,0,0,1,3-.89A5.48,5.48,0,0,1,288,146.72Zm-5.54,1.57a3.72,3.72,0,0,0-1.47,1.55,5,5,0,0,0-.53,2.33,4.91,4.91,0,0,0,.53,2.32,3.81,3.81,0,0,0,1.47,1.55,4.12,4.12,0,0,0,2.11.55,3.9,3.9,0,0,0,3-1.18,5.29,5.29,0,0,0,0-6.49,3.91,3.91,0,0,0-3-1.18A4.19,4.19,0,0,0,282.44,148.29Z" transform="translate(0.01 0.01)"/><path class="cls-18" d="M301.88,146.72a5.36,5.36,0,0,1,2.16,2.16,7.34,7.34,0,0,1,0,6.59,5.37,5.37,0,0,1-2.16,2.14,6.85,6.85,0,0,1-6.23,0,5.44,5.44,0,0,1-2.17-2.14,7.25,7.25,0,0,1,0-6.59,5.42,5.42,0,0,1,2.17-2.16,6.85,6.85,0,0,1,6.23,0Zm-5.1,1.5a3.64,3.64,0,0,0-1.47,1.48,5,5,0,0,0-.56,2.48,5,5,0,0,0,.56,2.45,3.64,3.64,0,0,0,1.47,1.49,4.34,4.34,0,0,0,4,0,3.64,3.64,0,0,0,1.47-1.49,5,5,0,0,0,.56-2.45,5,5,0,0,0-.56-2.48,3.64,3.64,0,0,0-1.47-1.48,4.34,4.34,0,0,0-4,0Z" transform="translate(0.01 0.01)"/><path class="cls-18" d="M318.17,146.12V158.2h-2v-2.84a4.06,4.06,0,0,1-1.64,2.25,4.84,4.84,0,0,1-2.74.78A4.48,4.48,0,0,1,308.4,157a5.39,5.39,0,0,1-1.3-3.88v-7h2V153a3.9,3.9,0,0,0,.92,2.78,3.28,3.28,0,0,0,2.51,1,3.43,3.43,0,0,0,2.64-1.07,4.42,4.42,0,0,0,1-3.11v-6.42Z" transform="translate(0.01 0.01)"/><path class="cls-18" d="M327.15,156.44v1.76h-1.5a3.84,3.84,0,0,1-2.76-.88,4,4,0,0,1-.91-2.95v-6.51h-1.8v-1.74H322v-3h2v3h3.12v1.74H324v6.56a2.26,2.26,0,0,0,.43,1.6,2.07,2.07,0,0,0,1.49.43Z" transform="translate(0.01 0.01)"/><path class="cls-18" d="M342.1,147a4.5,4.5,0,0,1,1.51,2.87h-1.91a2.77,2.77,0,0,0-.89-1.77,2.9,2.9,0,0,0-2-.69,2.51,2.51,0,0,0-1.68.52,1.74,1.74,0,0,0-.6,1.4,1.44,1.44,0,0,0,.41,1.07,2.61,2.61,0,0,0,1,.62,16.73,16.73,0,0,0,1.66.45,16.44,16.44,0,0,1,2.17.63,3.4,3.4,0,0,1,1.41,1,2.88,2.88,0,0,1,.58,1.89,3,3,0,0,1-1.11,2.4,4.48,4.48,0,0,1-3,.92,5.67,5.67,0,0,1-3.52-1,4.12,4.12,0,0,1-1.61-2.88h1.94a2.52,2.52,0,0,0,1,1.78,3.45,3.45,0,0,0,2.23.68,2.32,2.32,0,0,0,1.62-.53,1.78,1.78,0,0,0,.58-1.39,1.52,1.52,0,0,0-.42-1.12,2.75,2.75,0,0,0-1-.64,15.26,15.26,0,0,0-1.69-.46,16.48,16.48,0,0,1-2.15-.62,3.29,3.29,0,0,1-1.36-1,2.74,2.74,0,0,1-.56-1.82,3,3,0,0,1,1.12-2.45,4.63,4.63,0,0,1,3.06-.94A4.88,4.88,0,0,1,342.1,147Z" transform="translate(0.01 0.01)"/><path class="cls-18" d="M357.42,152.59h-9.66a4.23,4.23,0,0,0,1.18,3.1,3.84,3.84,0,0,0,2.72,1,3.92,3.92,0,0,0,2.43-.74,3,3,0,0,0,1.2-2h2.13a5,5,0,0,1-2.95,3.78,6.52,6.52,0,0,1-2.73.55,6.22,6.22,0,0,1-3.08-.75,5.28,5.28,0,0,1-2.1-2.14,7.53,7.53,0,0,1,0-6.59,5.27,5.27,0,0,1,2.1-2.16,6.22,6.22,0,0,1,3.08-.75,6.08,6.08,0,0,1,3.07.75,5.15,5.15,0,0,1,2,2,5.63,5.63,0,0,1,.69,2.77A6,6,0,0,1,357.42,152.59ZM355,149.38a3.22,3.22,0,0,0-1.39-1.34,4.23,4.23,0,0,0-1.91-.44,4,4,0,0,0-2.77,1,4.12,4.12,0,0,0-1.21,3h7.72A4.11,4.11,0,0,0,355,149.38Z" transform="translate(0.01 0.01)"/><path class="cls-18" d="M369.3,147.2a5.22,5.22,0,0,1,1.87,3.3h-2.11a3.09,3.09,0,0,0-1.2-2,3.93,3.93,0,0,0-2.43-.74,3.89,3.89,0,0,0-1.93.48,3.52,3.52,0,0,0-1.4,1.48,6.07,6.07,0,0,0,0,4.95,3.52,3.52,0,0,0,1.4,1.49,4.21,4.21,0,0,0,4.36-.26,3.13,3.13,0,0,0,1.2-2h2.11a5.19,5.19,0,0,1-1.87,3.31,5.91,5.91,0,0,1-3.83,1.22,6.22,6.22,0,0,1-3.08-.75,5.28,5.28,0,0,1-2.1-2.14,7.53,7.53,0,0,1,0-6.59,5.27,5.27,0,0,1,2.1-2.16,6.22,6.22,0,0,1,3.08-.75A5.88,5.88,0,0,1,369.3,147.2Z" transform="translate(0.01 0.01)"/><path class="cls-18" d="M377.53,146.62a5.17,5.17,0,0,1,2.73-.69v2.18h-.62a4.28,4.28,0,0,0-2.77.87,3.48,3.48,0,0,0-1.08,2.87v6.36h-2V146.12h2v2.44A4.44,4.44,0,0,1,377.53,146.62Z" transform="translate(0.01 0.01)"/><path class="cls-18" d="M393.26,152.59H383.6a4.23,4.23,0,0,0,1.18,3.1,3.84,3.84,0,0,0,2.72,1,3.92,3.92,0,0,0,2.43-.74,3,3,0,0,0,1.2-2h2.13a5,5,0,0,1-2.95,3.78,6.52,6.52,0,0,1-2.73.55,6.21,6.21,0,0,1-3.08-.75,5.28,5.28,0,0,1-2.1-2.14,7.52,7.52,0,0,1,0-6.59,5.27,5.27,0,0,1,2.1-2.16,6.22,6.22,0,0,1,3.08-.75,6.08,6.08,0,0,1,3.07.75,5.16,5.16,0,0,1,2,2,5.63,5.63,0,0,1,.69,2.77A6,6,0,0,1,393.26,152.59Zm-2.38-3.21a3.22,3.22,0,0,0-1.39-1.34,4.22,4.22,0,0,0-1.91-.44,4,4,0,0,0-2.77,1,4.12,4.12,0,0,0-1.21,3h7.72A4.11,4.11,0,0,0,390.88,149.38Z" transform="translate(0.01 0.01)"/><path class="cls-18" d="M401.73,156.44v1.76h-1.5a3.84,3.84,0,0,1-2.76-.88,4,4,0,0,1-.91-2.95v-6.51h-1.8v-1.74h1.8v-3h2v3h3.12v1.74h-3.12v6.56A2.26,2.26,0,0,0,399,156a2.06,2.06,0,0,0,1.48.43Z" transform="translate(0.01 0.01)"/><path class="cls-18" d="M87.29,173.68a5.45,5.45,0,0,1,1.29,3.9v7h-2v-6.84a3.9,3.9,0,0,0-.87-2.73,3.08,3.08,0,0,0-2.39-.95,3.28,3.28,0,0,0-2.54,1,4.4,4.4,0,0,0-1,3.07v6.4h-2v-6.84a3.86,3.86,0,0,0-.88-2.73,3.09,3.09,0,0,0-2.38-.95,3.31,3.31,0,0,0-2.56,1,4.4,4.4,0,0,0-1,3.07v6.4H69V172.52h2v2.75a3.92,3.92,0,0,1,1.57-2.19,4.91,4.91,0,0,1,5.28,0,4.25,4.25,0,0,1,1.62,2.3,4.37,4.37,0,0,1,1.69-2.28,4.68,4.68,0,0,1,2.68-.8A4.47,4.47,0,0,1,87.29,173.68Z" transform="translate(0.01 0.01)"/><path class="cls-18" d="M102.7,179H93a4.23,4.23,0,0,0,1.18,3.1,3.84,3.84,0,0,0,2.72,1,3.93,3.93,0,0,0,2.43-.74,3,3,0,0,0,1.2-2h2.13a5,5,0,0,1-2.95,3.78,6.52,6.52,0,0,1-2.73.55,6.22,6.22,0,0,1-3.08-.75,5.28,5.28,0,0,1-2.1-2.14,7.53,7.53,0,0,1,0-6.59,5.27,5.27,0,0,1,2.1-2.16,6.23,6.23,0,0,1,3.08-.75,6.09,6.09,0,0,1,3.07.75,5.15,5.15,0,0,1,2,2,5.64,5.64,0,0,1,.69,2.77A6,6,0,0,1,102.7,179Zm-2.38-3.21a3.21,3.21,0,0,0-1.39-1.34A4.23,4.23,0,0,0,97,174a4,4,0,0,0-2.77,1A4.12,4.12,0,0,0,93,178h7.72A4.11,4.11,0,0,0,100.33,175.78Z" transform="translate(0.01 0.01)"/><path class="cls-18" d="M111.17,182.84v1.76h-1.5a3.85,3.85,0,0,1-2.76-.88,4,4,0,0,1-.91-2.95v-6.51h-1.8v-1.74H106v-3h2v3h3.12v1.74H108v6.56a2.26,2.26,0,0,0,.43,1.59,2.07,2.07,0,0,0,1.49.43Z" transform="translate(0.01 0.01)"/><path class="cls-18" d="M123.38,173.68a5.42,5.42,0,0,1,1.3,3.9v7h-2v-6.84a3.86,3.86,0,0,0-.92-2.77,3.3,3.3,0,0,0-2.51-1,3.43,3.43,0,0,0-2.64,1.07,4.42,4.42,0,0,0-1,3.11v6.4h-2V168.32h2v7.06a4.12,4.12,0,0,1,1.64-2.27,4.75,4.75,0,0,1,2.72-.79A4.51,4.51,0,0,1,123.38,173.68Z" transform="translate(0.01 0.01)"/><path class="cls-18" d="M136.35,173.12a5.36,5.36,0,0,1,2.16,2.16,7.34,7.34,0,0,1,0,6.59,5.37,5.37,0,0,1-2.16,2.14,6.85,6.85,0,0,1-6.23,0,5.43,5.43,0,0,1-2.17-2.14,7.25,7.25,0,0,1,0-6.59,5.43,5.43,0,0,1,2.17-2.16,6.85,6.85,0,0,1,6.23,0Zm-5.1,1.5a3.64,3.64,0,0,0-1.47,1.49,5.69,5.69,0,0,0,0,4.93,3.64,3.64,0,0,0,1.47,1.49,4.34,4.34,0,0,0,4,0A3.64,3.64,0,0,0,136.7,181a5.69,5.69,0,0,0,0-4.93,3.64,3.64,0,0,0-1.47-1.49,4.34,4.34,0,0,0-4,0Z" transform="translate(0.01 0.01)"/><path class="cls-18" d="M149.84,173.25a4.59,4.59,0,0,1,1.71,2.35v-7.28h2V184.6h-2v-3.08a4.58,4.58,0,0,1-1.71,2.35,5,5,0,0,1-3,.88A5.47,5.47,0,0,1,144,184a5.17,5.17,0,0,1-2-2.14,7.95,7.95,0,0,1,0-6.59,5.16,5.16,0,0,1,2-2.16,5.48,5.48,0,0,1,2.86-.75A5,5,0,0,1,149.84,173.25Zm-5.37,2.08a5.3,5.3,0,0,0,0,6.49,3.88,3.88,0,0,0,3,1.18,4.1,4.1,0,0,0,2.12-.55,3.83,3.83,0,0,0,1.46-1.55,4.9,4.9,0,0,0,.53-2.32,5,5,0,0,0-.53-2.33,3.74,3.74,0,0,0-1.46-1.55,4.17,4.17,0,0,0-2.12-.54A3.88,3.88,0,0,0,144.47,175.33Z" transform="translate(0.01 0.01)"/><path class="cls-18" d="M163.81,173.44a4.5,4.5,0,0,1,1.51,2.87H163.4a2.77,2.77,0,0,0-.89-1.77,2.9,2.9,0,0,0-2-.69,2.51,2.51,0,0,0-1.68.52,1.74,1.74,0,0,0-.6,1.4,1.44,1.44,0,0,0,.41,1.07,2.61,2.61,0,0,0,1,.62,16.73,16.73,0,0,0,1.66.45,16.29,16.29,0,0,1,2.17.63,3.4,3.4,0,0,1,1.41,1,2.88,2.88,0,0,1,.58,1.89,3,3,0,0,1-1.11,2.4,4.48,4.48,0,0,1-3,.92,5.67,5.67,0,0,1-3.52-1,4.12,4.12,0,0,1-1.61-2.88h1.94a2.52,2.52,0,0,0,1,1.78,3.45,3.45,0,0,0,2.23.68,2.32,2.32,0,0,0,1.62-.53,1.78,1.78,0,0,0,.58-1.39,1.51,1.51,0,0,0-.42-1.12,2.76,2.76,0,0,0-1-.64,15.37,15.37,0,0,0-1.69-.46,16.57,16.57,0,0,1-2.15-.62,3.3,3.3,0,0,1-1.36-1,2.74,2.74,0,0,1-.56-1.82,3,3,0,0,1,1.12-2.45,4.63,4.63,0,0,1,3.06-.94A4.88,4.88,0,0,1,163.81,173.44Z" transform="translate(0.01 0.01)"/><path class="cls-18" d="M182.13,173.12a5.36,5.36,0,0,1,2.16,2.16,7.34,7.34,0,0,1,0,6.59,5.37,5.37,0,0,1-2.16,2.14,6.85,6.85,0,0,1-6.23,0,5.43,5.43,0,0,1-2.17-2.14,7.25,7.25,0,0,1,0-6.59,5.43,5.43,0,0,1,2.17-2.16,6.85,6.85,0,0,1,6.23,0Zm-5.1,1.5a3.64,3.64,0,0,0-1.47,1.49,5.69,5.69,0,0,0,0,4.93,3.64,3.64,0,0,0,1.47,1.49,4.34,4.34,0,0,0,4,0,3.64,3.64,0,0,0,1.47-1.49,5.69,5.69,0,0,0,0-4.93,3.64,3.64,0,0,0-1.47-1.49,4.34,4.34,0,0,0-4,0Z" transform="translate(0.01 0.01)"/><path class="cls-18" d="M190.8,170.21a2.59,2.59,0,0,0-.63,2v.33H193v1.76h-2.86V184.6h-2V174.28h-1.74v-1.76h1.74V172q0-4.33,4.86-4.14v1.76A3.27,3.27,0,0,0,190.8,170.21Z" transform="translate(0.01 0.01)"/><path class="cls-18" d="M202.65,169.09V184.6h-2V169.09Z" transform="translate(0.01 0.01)"/><path class="cls-18" d="M215.63,173.68a5.42,5.42,0,0,1,1.3,3.9v7h-2v-6.84A3.86,3.86,0,0,0,214,175a3.3,3.3,0,0,0-2.51-1,3.43,3.43,0,0,0-2.64,1.07,4.42,4.42,0,0,0-1,3.11v6.4h-2V172.52h2v2.86a4.12,4.12,0,0,1,1.64-2.27,4.75,4.75,0,0,1,2.72-.79A4.51,4.51,0,0,1,215.63,173.68Z" transform="translate(0.01 0.01)"/><path class="cls-18" d="M227.08,173.44a4.5,4.5,0,0,1,1.51,2.87h-1.91a2.77,2.77,0,0,0-.89-1.77,2.9,2.9,0,0,0-2-.69,2.51,2.51,0,0,0-1.68.52,1.74,1.74,0,0,0-.6,1.4,1.44,1.44,0,0,0,.41,1.07,2.61,2.61,0,0,0,1,.62,16.73,16.73,0,0,0,1.66.45,16.29,16.29,0,0,1,2.17.63,3.4,3.4,0,0,1,1.41,1,2.88,2.88,0,0,1,.58,1.89,3,3,0,0,1-1.11,2.4,4.48,4.48,0,0,1-3,.92,5.67,5.67,0,0,1-3.52-1,4.12,4.12,0,0,1-1.61-2.88h1.94a2.52,2.52,0,0,0,1,1.78,3.45,3.45,0,0,0,2.23.68,2.32,2.32,0,0,0,1.62-.53,1.78,1.78,0,0,0,.58-1.39,1.51,1.51,0,0,0-.42-1.12,2.76,2.76,0,0,0-1-.64,15.37,15.37,0,0,0-1.69-.46,16.57,16.57,0,0,1-2.15-.62,3.3,3.3,0,0,1-1.36-1,2.74,2.74,0,0,1-.56-1.82,3,3,0,0,1,1.12-2.45,4.63,4.63,0,0,1,3.06-.94A4.88,4.88,0,0,1,227.08,173.44Z" transform="translate(0.01 0.01)"/><path class="cls-18" d="M237.15,182.84v1.76h-1.5a3.85,3.85,0,0,1-2.76-.88,4,4,0,0,1-.91-2.95v-6.51h-1.8v-1.74H232v-3h2v3h3.12v1.74H234v6.56a2.26,2.26,0,0,0,.43,1.59,2.07,2.07,0,0,0,1.49.43Z" transform="translate(0.01 0.01)"/><path class="cls-18" d="M247.52,173.25a4.59,4.59,0,0,1,1.71,2.35v-3.08h2V184.6h-2v-3.08a4.58,4.58,0,0,1-1.71,2.35,5,5,0,0,1-3,.88,5.47,5.47,0,0,1-2.86-.75,5.17,5.17,0,0,1-2-2.14,7.95,7.95,0,0,1,0-6.59,5.16,5.16,0,0,1,2-2.16,5.48,5.48,0,0,1,2.86-.75A5,5,0,0,1,247.52,173.25Zm-5.37,2.08a5.3,5.3,0,0,0,0,6.49,3.88,3.88,0,0,0,3,1.18,4.1,4.1,0,0,0,2.12-.55,3.83,3.83,0,0,0,1.46-1.55,4.9,4.9,0,0,0,.53-2.32,5,5,0,0,0-.53-2.33,3.74,3.74,0,0,0-1.46-1.55,4.17,4.17,0,0,0-2.12-.54A3.88,3.88,0,0,0,242.15,175.33Z" transform="translate(0.01 0.01)"/><path class="cls-18" d="M262.35,173.25a4.59,4.59,0,0,1,1.71,2.35v-3.08h2V184.8a6.13,6.13,0,0,1-.7,3,5.06,5.06,0,0,1-2,2,5.9,5.9,0,0,1-3,.73,6.38,6.38,0,0,1-4-1.18,5.19,5.19,0,0,1-2-3.18h2a3.43,3.43,0,0,0,1.33,1.9,4.26,4.26,0,0,0,2.52.69,3.69,3.69,0,0,0,2.69-1,3.89,3.89,0,0,0,1.07-2.91v-3.28a4.58,4.58,0,0,1-1.71,2.35,5,5,0,0,1-3,.88,5.47,5.47,0,0,1-2.86-.75,5.17,5.17,0,0,1-2-2.14,7.95,7.95,0,0,1,0-6.59,5.16,5.16,0,0,1,2-2.16,5.48,5.48,0,0,1,2.86-.75A5,5,0,0,1,262.35,173.25ZM257,175.33a5.3,5.3,0,0,0,0,6.49,3.88,3.88,0,0,0,3,1.18,4.1,4.1,0,0,0,2.12-.55,3.83,3.83,0,0,0,1.46-1.55,4.9,4.9,0,0,0,.53-2.32,5,5,0,0,0-.53-2.33,3.74,3.74,0,0,0-1.46-1.55,4.17,4.17,0,0,0-2.12-.54A3.88,3.88,0,0,0,257,175.33Z" transform="translate(0.01 0.01)"/><path class="cls-18" d="M273,173a5.17,5.17,0,0,1,2.73-.69v2.18h-.62a4.28,4.28,0,0,0-2.77.87,3.48,3.48,0,0,0-1.08,2.87v6.36h-2V172.52h2V175A4.44,4.44,0,0,1,273,173Z" transform="translate(0.01 0.01)"/><path class="cls-18" d="M285.62,173.25a4.59,4.59,0,0,1,1.71,2.35v-3.08h2V184.6h-2v-3.08a4.58,4.58,0,0,1-1.71,2.35,5,5,0,0,1-3,.88,5.47,5.47,0,0,1-2.86-.75,5.17,5.17,0,0,1-2-2.14,7.95,7.95,0,0,1,0-6.59,5.16,5.16,0,0,1,2-2.16,5.48,5.48,0,0,1,2.86-.75A5,5,0,0,1,285.62,173.25Zm-5.37,2.08a5.3,5.3,0,0,0,0,6.49,3.88,3.88,0,0,0,3,1.18,4.1,4.1,0,0,0,2.12-.55,3.83,3.83,0,0,0,1.46-1.55,4.9,4.9,0,0,0,.53-2.32,5,5,0,0,0-.53-2.33,3.74,3.74,0,0,0-1.46-1.55,4.17,4.17,0,0,0-2.12-.54A3.88,3.88,0,0,0,280.25,175.33Z" transform="translate(0.01 0.01)"/><path class="cls-18" d="M310.77,173.68a5.45,5.45,0,0,1,1.29,3.9v7h-2v-6.84a3.9,3.9,0,0,0-.87-2.73,3.08,3.08,0,0,0-2.39-.95,3.28,3.28,0,0,0-2.54,1,4.4,4.4,0,0,0-1,3.07v6.4h-2v-6.84a3.86,3.86,0,0,0-.88-2.73,3.09,3.09,0,0,0-2.38-.95,3.31,3.31,0,0,0-2.56,1,4.4,4.4,0,0,0-1,3.07v6.4h-2V172.52h2v2.75a3.92,3.92,0,0,1,1.57-2.19,4.91,4.91,0,0,1,5.28,0,4.25,4.25,0,0,1,1.62,2.3,4.37,4.37,0,0,1,1.69-2.28,4.68,4.68,0,0,1,2.68-.8A4.47,4.47,0,0,1,310.77,173.68Z" transform="translate(0.01 0.01)"/><path class="cls-18" d="M330.12,173.12a5.17,5.17,0,0,1,2,2.16,7.95,7.95,0,0,1,0,6.59,5.17,5.17,0,0,1-2,2.14,5.47,5.47,0,0,1-2.86.75,4.92,4.92,0,0,1-3-.89,4.53,4.53,0,0,1-1.68-2.34v8.8h-2v-17.8h2v3.08a4.53,4.53,0,0,1,1.68-2.34,4.91,4.91,0,0,1,3-.89A5.48,5.48,0,0,1,330.12,173.12Zm-5.54,1.57a3.72,3.72,0,0,0-1.47,1.55,5,5,0,0,0-.53,2.33,4.91,4.91,0,0,0,.53,2.32,3.8,3.8,0,0,0,1.47,1.55,4.12,4.12,0,0,0,2.11.55,3.9,3.9,0,0,0,3-1.18,5.3,5.3,0,0,0,0-6.49,3.91,3.91,0,0,0-3-1.18A4.19,4.19,0,0,0,324.57,174.69Z" transform="translate(0.01 0.01)"/><path class="cls-18" d="M339.16,173a5.17,5.17,0,0,1,2.73-.69v2.18h-.62a4.28,4.28,0,0,0-2.77.87,3.48,3.48,0,0,0-1.08,2.87v6.36h-2V172.52h2V175A4.44,4.44,0,0,1,339.16,173Z" transform="translate(0.01 0.01)"/><path class="cls-18" d="M352.46,173.12a5.36,5.36,0,0,1,2.16,2.16,7.34,7.34,0,0,1,0,6.59,5.37,5.37,0,0,1-2.16,2.14,6.85,6.85,0,0,1-6.23,0,5.43,5.43,0,0,1-2.17-2.14,7.25,7.25,0,0,1,0-6.59,5.43,5.43,0,0,1,2.17-2.16,6.85,6.85,0,0,1,6.23,0Zm-5.1,1.5a3.64,3.64,0,0,0-1.47,1.49,5.69,5.69,0,0,0,0,4.93,3.64,3.64,0,0,0,1.47,1.49,4.34,4.34,0,0,0,4,0,3.64,3.64,0,0,0,1.47-1.49,5.69,5.69,0,0,0,0-4.93,3.64,3.64,0,0,0-1.47-1.49,4.34,4.34,0,0,0-4,0Z" transform="translate(0.01 0.01)"/><path class="cls-18" d="M376.26,173.68a5.45,5.45,0,0,1,1.29,3.9v7h-2v-6.84a3.9,3.9,0,0,0-.87-2.73,3.08,3.08,0,0,0-2.39-.95,3.28,3.28,0,0,0-2.54,1,4.4,4.4,0,0,0-1,3.07v6.4h-2v-6.84a3.86,3.86,0,0,0-.88-2.73,3.09,3.09,0,0,0-2.38-.95,3.31,3.31,0,0,0-2.56,1,4.4,4.4,0,0,0-1,3.07v6.4h-2V172.52h2v2.75a3.92,3.92,0,0,1,1.57-2.19,4.91,4.91,0,0,1,5.28,0,4.25,4.25,0,0,1,1.62,2.3,4.37,4.37,0,0,1,1.69-2.28,4.69,4.69,0,0,1,2.68-.8A4.47,4.47,0,0,1,376.26,173.68Z" transform="translate(0.01 0.01)"/><path class="cls-18" d="M389.24,173.12a5.36,5.36,0,0,1,2.16,2.16,7.34,7.34,0,0,1,0,6.59,5.37,5.37,0,0,1-2.16,2.14,6.85,6.85,0,0,1-6.23,0,5.44,5.44,0,0,1-2.17-2.14,7.25,7.25,0,0,1,0-6.59,5.43,5.43,0,0,1,2.17-2.16,6.85,6.85,0,0,1,6.23,0Zm-5.1,1.5a3.64,3.64,0,0,0-1.47,1.49,5.69,5.69,0,0,0,0,4.93,3.64,3.64,0,0,0,1.47,1.49,4.34,4.34,0,0,0,4,0,3.64,3.64,0,0,0,1.47-1.49,5.69,5.69,0,0,0,0-4.93,3.64,3.64,0,0,0-1.47-1.49,4.34,4.34,0,0,0-4,0Z" transform="translate(0.01 0.01)"/><path class="cls-18" d="M401.66,175.69v1.69h-8.8v-1.69Z" transform="translate(0.01 0.01)"/><path class="cls-18" d="M74.81,209.24V211h-1.5a3.84,3.84,0,0,1-2.76-.88,4,4,0,0,1-.91-2.95v-6.51h-1.8v-1.74h1.8v-3h2v3h3.12v1.74H71.66v6.56a2.26,2.26,0,0,0,.43,1.59,2.07,2.07,0,0,0,1.49.43Z" transform="translate(0.01 0.01)"/><path class="cls-18" d="M77.27,194.49a1.61,1.61,0,0,1,2,0,1.25,1.25,0,0,1,0,1.78,1.61,1.61,0,0,1-2,0,1.25,1.25,0,0,1,0-1.78Zm2,4.43V211h-2V198.92Z" transform="translate(0.01 0.01)"/><path class="cls-18" d="M91.05,199.52a5.36,5.36,0,0,1,2.16,2.16,7.34,7.34,0,0,1,0,6.59,5.38,5.38,0,0,1-2.16,2.15,6.85,6.85,0,0,1-6.23,0,5.44,5.44,0,0,1-2.17-2.15,7.25,7.25,0,0,1,0-6.59,5.43,5.43,0,0,1,2.17-2.16,6.85,6.85,0,0,1,6.23,0ZM86,201a3.65,3.65,0,0,0-1.47,1.49,5,5,0,0,0-.56,2.47,5,5,0,0,0,.56,2.45A3.63,3.63,0,0,0,86,208.91a4.34,4.34,0,0,0,4,0,3.63,3.63,0,0,0,1.47-1.49A5,5,0,0,0,92,205a5,5,0,0,0-.56-2.47A3.65,3.65,0,0,0,89.93,201a4.34,4.34,0,0,0-4,0Z" transform="translate(0.01 0.01)"/><path class="cls-18" d="M106.38,200.08a5.42,5.42,0,0,1,1.3,3.91v7h-2v-6.84a3.86,3.86,0,0,0-.92-2.77,3.31,3.31,0,0,0-2.51-1,3.43,3.43,0,0,0-2.64,1.07,4.42,4.42,0,0,0-1,3.11V211h-2V198.92h2v2.86a4.12,4.12,0,0,1,1.64-2.27,4.75,4.75,0,0,1,2.72-.79A4.51,4.51,0,0,1,106.38,200.08Z" transform="translate(0.01 0.01)"/><path class="cls-18" d="M117,198.92l3.92,9.5,3.63-9.5h2.22l-7.17,17.8h-2.27l2.51-5.92-5.08-11.88Z" transform="translate(0.01 0.01)"/><path class="cls-18" d="M137.21,199.52a5.36,5.36,0,0,1,2.16,2.16,7.34,7.34,0,0,1,0,6.59,5.38,5.38,0,0,1-2.16,2.15,6.85,6.85,0,0,1-6.23,0,5.44,5.44,0,0,1-2.17-2.15,7.25,7.25,0,0,1,0-6.59,5.43,5.43,0,0,1,2.17-2.16,6.85,6.85,0,0,1,6.23,0Zm-5.1,1.5a3.65,3.65,0,0,0-1.47,1.49,5,5,0,0,0-.56,2.47,5,5,0,0,0,.56,2.45,3.63,3.63,0,0,0,1.47,1.49,4.34,4.34,0,0,0,4,0,3.63,3.63,0,0,0,1.47-1.49,5,5,0,0,0,.56-2.45,5,5,0,0,0-.56-2.47,3.65,3.65,0,0,0-1.47-1.49,4.34,4.34,0,0,0-4,0Z" transform="translate(0.01 0.01)"/><path class="cls-18" d="M153.5,198.92V211h-2v-2.84a4.06,4.06,0,0,1-1.64,2.25,4.84,4.84,0,0,1-2.74.78,4.48,4.48,0,0,1-3.39-1.35,5.39,5.39,0,0,1-1.3-3.88v-7h2v6.84a3.9,3.9,0,0,0,.92,2.78,3.28,3.28,0,0,0,2.51,1,3.43,3.43,0,0,0,2.64-1.07,4.42,4.42,0,0,0,1-3.11v-6.42Z" transform="translate(0.01 0.01)"/><path class="cls-18" d="M171.32,200a5.22,5.22,0,0,1,1.87,3.3h-2.11a3.09,3.09,0,0,0-1.2-2,4.24,4.24,0,0,0-4.36-.25,3.53,3.53,0,0,0-1.4,1.49,6.07,6.07,0,0,0,0,5,3.52,3.52,0,0,0,1.4,1.48,4.21,4.21,0,0,0,4.36-.26,3.13,3.13,0,0,0,1.2-2h2.11a5.19,5.19,0,0,1-1.87,3.31,5.91,5.91,0,0,1-3.83,1.22,6.23,6.23,0,0,1-3.08-.75,5.28,5.28,0,0,1-2.1-2.15,7.53,7.53,0,0,1,0-6.59,5.27,5.27,0,0,1,2.1-2.16,6.23,6.23,0,0,1,3.08-.75A5.88,5.88,0,0,1,171.32,200Z" transform="translate(0.01 0.01)"/><path class="cls-18" d="M183.74,199.65a4.58,4.58,0,0,1,1.71,2.35v-3.08h2V211h-2v-3.08a4.59,4.59,0,0,1-1.71,2.35,5,5,0,0,1-3,.88,5.48,5.48,0,0,1-2.86-.75,5.17,5.17,0,0,1-2-2.15,7.95,7.95,0,0,1,0-6.59,5.16,5.16,0,0,1,2-2.16,5.48,5.48,0,0,1,2.86-.75A5,5,0,0,1,183.74,199.65Zm-5.37,2.08a5.3,5.3,0,0,0,0,6.49,3.88,3.88,0,0,0,3,1.18,4.1,4.1,0,0,0,2.12-.55,3.82,3.82,0,0,0,1.46-1.55,4.9,4.9,0,0,0,.53-2.32,5,5,0,0,0-.53-2.33,3.75,3.75,0,0,0-1.46-1.55,4.17,4.17,0,0,0-2.12-.54A3.88,3.88,0,0,0,178.37,201.73Z" transform="translate(0.01 0.01)"/><path class="cls-18" d="M200.41,200.08a5.42,5.42,0,0,1,1.3,3.91v7h-2v-6.84a3.86,3.86,0,0,0-.92-2.77,3.31,3.31,0,0,0-2.51-1,3.43,3.43,0,0,0-2.64,1.07,4.42,4.42,0,0,0-1,3.11V211h-2V198.92h2v2.86a4.12,4.12,0,0,1,1.64-2.27,4.75,4.75,0,0,1,2.72-.79A4.51,4.51,0,0,1,200.41,200.08Z" transform="translate(0.01 0.01)"/><path class="cls-18" d="M214,199.42a5.17,5.17,0,0,1,2.73-.69v2.18h-.62a4.27,4.27,0,0,0-2.77.87,3.48,3.48,0,0,0-1.08,2.87V211h-2V198.92h2v2.44A4.44,4.44,0,0,1,214,199.42Z" transform="translate(0.01 0.01)"/><path class="cls-18" d="M229.69,205.39H220a4.23,4.23,0,0,0,1.18,3.1,3.84,3.84,0,0,0,2.72,1,3.93,3.93,0,0,0,2.43-.74,3,3,0,0,0,1.2-2h2.13a5,5,0,0,1-2.95,3.78,6.52,6.52,0,0,1-2.73.55,6.23,6.23,0,0,1-3.08-.75,5.28,5.28,0,0,1-2.1-2.15,7.53,7.53,0,0,1,0-6.59,5.27,5.27,0,0,1,2.1-2.16,6.23,6.23,0,0,1,3.08-.75,6.09,6.09,0,0,1,3.07.75,5.15,5.15,0,0,1,2,2,5.64,5.64,0,0,1,.69,2.77A6,6,0,0,1,229.69,205.39Zm-2.38-3.21a3.22,3.22,0,0,0-1.39-1.34,4.23,4.23,0,0,0-1.91-.44,4,4,0,0,0-2.77,1,4.12,4.12,0,0,0-1.21,3h7.72A4.11,4.11,0,0,0,227.31,202.18Z" transform="translate(0.01 0.01)"/><path class="cls-18" d="M240.32,199.65A4.58,4.58,0,0,1,242,202v-3.08h2V211h-2v-3.08a4.59,4.59,0,0,1-1.71,2.35,5,5,0,0,1-3,.88,5.48,5.48,0,0,1-2.86-.75,5.17,5.17,0,0,1-2-2.15,7.95,7.95,0,0,1,0-6.59,5.16,5.16,0,0,1,2-2.16,5.48,5.48,0,0,1,2.86-.75A5,5,0,0,1,240.32,199.65ZM235,201.73a5.3,5.3,0,0,0,0,6.49,3.88,3.88,0,0,0,3,1.18,4.1,4.1,0,0,0,2.12-.55,3.82,3.82,0,0,0,1.46-1.55A4.9,4.9,0,0,0,242,205a5,5,0,0,0-.53-2.33,3.75,3.75,0,0,0-1.46-1.55,4.17,4.17,0,0,0-2.12-.54A3.88,3.88,0,0,0,235,201.73Z" transform="translate(0.01 0.01)"/><path class="cls-18" d="M255.15,199.65a4.58,4.58,0,0,1,1.71,2.35v-7.28h2V211h-2v-3.08a4.59,4.59,0,0,1-1.71,2.35,5,5,0,0,1-3,.88,5.48,5.48,0,0,1-2.86-.75,5.17,5.17,0,0,1-2-2.15,7.95,7.95,0,0,1,0-6.59,5.16,5.16,0,0,1,2-2.16,5.48,5.48,0,0,1,2.86-.75A5,5,0,0,1,255.15,199.65Zm-5.37,2.08a5.3,5.3,0,0,0,0,6.49,3.88,3.88,0,0,0,3,1.18,4.1,4.1,0,0,0,2.12-.55,3.82,3.82,0,0,0,1.46-1.55,4.9,4.9,0,0,0,.53-2.32,5,5,0,0,0-.53-2.33,3.75,3.75,0,0,0-1.46-1.55,4.17,4.17,0,0,0-2.12-.54A3.88,3.88,0,0,0,249.78,201.73Z" transform="translate(0.01 0.01)"/><path class="cls-18" d="M267.51,194.49a1.61,1.61,0,0,1,2,0,1.25,1.25,0,0,1,0,1.78,1.61,1.61,0,0,1-2,0,1.25,1.25,0,0,1,0-1.78Zm2,4.43V211h-2V198.92Z" transform="translate(0.01 0.01)"/><path class="cls-18" d="M282.47,200.08a5.42,5.42,0,0,1,1.3,3.91v7h-2v-6.84a3.86,3.86,0,0,0-.92-2.77,3.31,3.31,0,0,0-2.51-1,3.43,3.43,0,0,0-2.64,1.07,4.42,4.42,0,0,0-1,3.11V211h-2V198.92h2v2.86a4.12,4.12,0,0,1,1.64-2.27,4.75,4.75,0,0,1,2.72-.79A4.51,4.51,0,0,1,282.47,200.08Z" transform="translate(0.01 0.01)"/><path class="cls-18" d="M300.21,199.65a4.58,4.58,0,0,1,1.71,2.35v-3.08h2V211h-2v-3.08a4.59,4.59,0,0,1-1.71,2.35,5,5,0,0,1-3,.88,5.48,5.48,0,0,1-2.86-.75,5.17,5.17,0,0,1-2-2.15,7.95,7.95,0,0,1,0-6.59,5.16,5.16,0,0,1,2-2.16,5.48,5.48,0,0,1,2.86-.75A5,5,0,0,1,300.21,199.65Zm-5.37,2.08a5.3,5.3,0,0,0,0,6.49,3.88,3.88,0,0,0,3,1.18,4.1,4.1,0,0,0,2.12-.55,3.82,3.82,0,0,0,1.46-1.55,4.9,4.9,0,0,0,.53-2.32,5,5,0,0,0-.53-2.33,3.75,3.75,0,0,0-1.46-1.55,4.17,4.17,0,0,0-2.12-.54A3.88,3.88,0,0,0,294.84,201.73Z" transform="translate(0.01 0.01)"/><path class="cls-18" d="M322.07,199.52a5.17,5.17,0,0,1,2,2.16,7.95,7.95,0,0,1,0,6.59,5.18,5.18,0,0,1-2,2.15,5.48,5.48,0,0,1-2.86.75,4.91,4.91,0,0,1-3-.89,4.53,4.53,0,0,1-1.68-2.34v8.8h-2v-17.8h2V202a4.53,4.53,0,0,1,1.68-2.34,4.92,4.92,0,0,1,3-.89A5.48,5.48,0,0,1,322.07,199.52Zm-5.54,1.57a3.72,3.72,0,0,0-1.47,1.55,5,5,0,0,0-.53,2.33,4.91,4.91,0,0,0,.53,2.32,3.8,3.8,0,0,0,1.47,1.55,4.12,4.12,0,0,0,2.11.55,3.9,3.9,0,0,0,3-1.18,5.3,5.3,0,0,0,0-6.49,3.91,3.91,0,0,0-3-1.18A4.19,4.19,0,0,0,316.52,201.09Z" transform="translate(0.01 0.01)"/><path class="cls-18" d="M331.11,199.42a5.17,5.17,0,0,1,2.73-.69v2.18h-.62a4.27,4.27,0,0,0-2.77.87,3.48,3.48,0,0,0-1.08,2.87V211h-2V198.92h2v2.44A4.44,4.44,0,0,1,331.11,199.42Z" transform="translate(0.01 0.01)"/><path class="cls-18" d="M335.84,194.49a1.61,1.61,0,0,1,2,0,1.25,1.25,0,0,1,0,1.78,1.61,1.61,0,0,1-2,0,1.25,1.25,0,0,1,0-1.78Zm2,4.43V211h-2V198.92Z" transform="translate(0.01 0.01)"/><path class="cls-18" d="M345.72,208.87l3.74-9.94h2.16L346.88,211h-2.38l-4.73-12.08h2.16Z" transform="translate(0.01 0.01)"/><path class="cls-18" d="M361.5,199.65a4.58,4.58,0,0,1,1.71,2.35v-3.08h2V211h-2v-3.08a4.59,4.59,0,0,1-1.71,2.35,5,5,0,0,1-3,.88,5.48,5.48,0,0,1-2.86-.75,5.17,5.17,0,0,1-2-2.15,7.95,7.95,0,0,1,0-6.59,5.16,5.16,0,0,1,2-2.16,5.48,5.48,0,0,1,2.86-.75A5,5,0,0,1,361.5,199.65Zm-5.37,2.08a5.3,5.3,0,0,0,0,6.49,3.88,3.88,0,0,0,3,1.18,4.1,4.1,0,0,0,2.12-.55,3.82,3.82,0,0,0,1.46-1.55,4.9,4.9,0,0,0,.53-2.32,5,5,0,0,0-.53-2.33,3.75,3.75,0,0,0-1.46-1.55,4.17,4.17,0,0,0-2.12-.54A3.88,3.88,0,0,0,356.13,201.73Z" transform="translate(0.01 0.01)"/><path class="cls-18" d="M374.16,209.24V211h-1.5a3.83,3.83,0,0,1-2.76-.88,4,4,0,0,1-.91-2.95v-6.51h-1.8v-1.74H369v-3h2v3h3.13v1.74H371v6.56a2.26,2.26,0,0,0,.43,1.59,2.07,2.07,0,0,0,1.48.43Z" transform="translate(0.01 0.01)"/><path class="cls-18" d="M387.63,205.39H378a4.23,4.23,0,0,0,1.18,3.1,3.84,3.84,0,0,0,2.72,1,3.93,3.93,0,0,0,2.43-.74,3,3,0,0,0,1.2-2h2.13a5,5,0,0,1-2.95,3.78,6.51,6.51,0,0,1-2.73.55,6.22,6.22,0,0,1-3.08-.75,5.29,5.29,0,0,1-2.1-2.15,7.52,7.52,0,0,1,0-6.59,5.27,5.27,0,0,1,2.1-2.16,6.22,6.22,0,0,1,3.08-.75,6.09,6.09,0,0,1,3.07.75,5.16,5.16,0,0,1,2,2,5.64,5.64,0,0,1,.69,2.77A6,6,0,0,1,387.63,205.39Zm-2.38-3.21a3.23,3.23,0,0,0-1.39-1.34,4.22,4.22,0,0,0-1.91-.44,4,4,0,0,0-2.77,1,4.12,4.12,0,0,0-1.21,3h7.72A4.11,4.11,0,0,0,385.25,202.18Z" transform="translate(0.01 0.01)"/><path class="cls-18" d="M78.22,226.4a5.22,5.22,0,0,1,1.87,3.3H78a3.09,3.09,0,0,0-1.2-2,4.24,4.24,0,0,0-4.36-.25A3.53,3.53,0,0,0,71,228.9a6.07,6.07,0,0,0,0,5,3.52,3.52,0,0,0,1.4,1.48,4.21,4.21,0,0,0,4.36-.26,3.13,3.13,0,0,0,1.2-2h2.11a5.19,5.19,0,0,1-1.87,3.31,5.91,5.91,0,0,1-3.83,1.22,6.23,6.23,0,0,1-3.08-.75,5.28,5.28,0,0,1-2.1-2.15,7.53,7.53,0,0,1,0-6.59,5.27,5.27,0,0,1,2.1-2.16,6.23,6.23,0,0,1,3.08-.75A5.88,5.88,0,0,1,78.22,226.4Z" transform="translate(0.01 0.01)"/><path class="cls-18" d="M91.3,225.92a5.36,5.36,0,0,1,2.16,2.16,7.34,7.34,0,0,1,0,6.59,5.38,5.38,0,0,1-2.16,2.15,6.85,6.85,0,0,1-6.23,0,5.44,5.44,0,0,1-2.17-2.15,7.25,7.25,0,0,1,0-6.59,5.43,5.43,0,0,1,2.17-2.16,6.85,6.85,0,0,1,6.23,0Zm-5.1,1.5a3.65,3.65,0,0,0-1.47,1.49,5,5,0,0,0-.56,2.47,5,5,0,0,0,.56,2.45,3.63,3.63,0,0,0,1.47,1.49,4.34,4.34,0,0,0,4,0,3.63,3.63,0,0,0,1.47-1.49,5,5,0,0,0,.56-2.45,5,5,0,0,0-.56-2.47,3.65,3.65,0,0,0-1.47-1.49,4.34,4.34,0,0,0-4,0Z" transform="translate(0.01 0.01)"/><path class="cls-18" d="M107.59,225.32V237.4h-2v-2.84a4.06,4.06,0,0,1-1.64,2.25,4.84,4.84,0,0,1-2.74.78,4.48,4.48,0,0,1-3.39-1.35,5.39,5.39,0,0,1-1.3-3.88v-7h2v6.84a3.9,3.9,0,0,0,.92,2.78,3.28,3.28,0,0,0,2.51,1,3.43,3.43,0,0,0,2.64-1.07,4.42,4.42,0,0,0,1-3.11v-6.42Z" transform="translate(0.01 0.01)"/><path class="cls-18" d="M114.54,225.82a5.17,5.17,0,0,1,2.73-.69v2.18h-.62a4.27,4.27,0,0,0-2.77.87A3.48,3.48,0,0,0,112.8,231v6.36h-2V225.32h2v2.44A4.44,4.44,0,0,1,114.54,225.82Z" transform="translate(0.01 0.01)"/><path class="cls-18" d="M126.32,226.23a4.5,4.5,0,0,1,1.51,2.87h-1.91a2.77,2.77,0,0,0-.89-1.77,2.9,2.9,0,0,0-2-.69,2.52,2.52,0,0,0-1.68.52,1.74,1.74,0,0,0-.6,1.4,1.44,1.44,0,0,0,.41,1.07,2.6,2.6,0,0,0,1,.62,16.73,16.73,0,0,0,1.66.45,16.29,16.29,0,0,1,2.17.63,3.39,3.39,0,0,1,1.41,1,2.87,2.87,0,0,1,.58,1.89,3,3,0,0,1-1.11,2.4,4.48,4.48,0,0,1-3,.92,5.67,5.67,0,0,1-3.52-1,4.12,4.12,0,0,1-1.61-2.88h1.94a2.52,2.52,0,0,0,1,1.78,3.45,3.45,0,0,0,2.23.68,2.32,2.32,0,0,0,1.62-.53,1.78,1.78,0,0,0,.58-1.39,1.51,1.51,0,0,0-.42-1.12,2.75,2.75,0,0,0-1-.64,15.15,15.15,0,0,0-1.69-.46,16.71,16.71,0,0,1-2.15-.62,3.28,3.28,0,0,1-1.36-1,2.74,2.74,0,0,1-.56-1.81A3,3,0,0,1,120,226.1a4.63,4.63,0,0,1,3.06-.94A4.88,4.88,0,0,1,126.32,226.23Z" transform="translate(0.01 0.01)"/><path class="cls-18" d="M141.64,231.79H132a4.23,4.23,0,0,0,1.18,3.1,3.84,3.84,0,0,0,2.72,1,3.93,3.93,0,0,0,2.43-.74,3,3,0,0,0,1.2-2h2.13A5,5,0,0,1,138.7,237a6.52,6.52,0,0,1-2.73.55,6.23,6.23,0,0,1-3.08-.75,5.28,5.28,0,0,1-2.1-2.15,7.53,7.53,0,0,1,0-6.59,5.27,5.27,0,0,1,2.1-2.16,6.23,6.23,0,0,1,3.08-.75,6.09,6.09,0,0,1,3.07.75,5.15,5.15,0,0,1,2,2,5.64,5.64,0,0,1,.69,2.77A6,6,0,0,1,141.64,231.79Zm-2.38-3.21a3.22,3.22,0,0,0-1.39-1.34,4.23,4.23,0,0,0-1.91-.44,4,4,0,0,0-2.77,1,4.12,4.12,0,0,0-1.21,3h7.72A4.11,4.11,0,0,0,139.27,228.58Z" transform="translate(0.01 0.01)"/><path class="cls-18" d="M145.82,235v2.35H143.4V235Z" transform="translate(0.01 0.01)"/><path class="cls-18" d="M165.13,223.08a6.53,6.53,0,0,1,2.48,3.65h-2.11a4.74,4.74,0,0,0-1.84-2.27,5.36,5.36,0,0,0-3-.86,5.5,5.5,0,0,0-2.84.74,5.14,5.14,0,0,0-2,2.1,6.83,6.83,0,0,0-.71,3.21,6.91,6.91,0,0,0,.73,3.27,5.14,5.14,0,0,0,2,2.11,5.84,5.84,0,0,0,3,.74,5.6,5.6,0,0,0,2.62-.62,5.06,5.06,0,0,0,1.95-1.79,6.1,6.1,0,0,0,.91-2.76h-6.09v-1.5H168V231a7.71,7.71,0,0,1-1.14,3.34,6.87,6.87,0,0,1-2.55,2.38,7.48,7.48,0,0,1-3.65.88,7.72,7.72,0,0,1-4-1,7,7,0,0,1-2.67-2.79,9.27,9.27,0,0,1,0-8.21,7,7,0,0,1,2.67-2.81,7.61,7.61,0,0,1,3.94-1A7.49,7.49,0,0,1,165.13,223.08Z" transform="translate(0.01 0.01)"/><path class="cls-18" d="M179.25,225.92a5.36,5.36,0,0,1,2.16,2.16,7.34,7.34,0,0,1,0,6.59,5.38,5.38,0,0,1-2.16,2.15,6.85,6.85,0,0,1-6.23,0,5.44,5.44,0,0,1-2.17-2.15,7.25,7.25,0,0,1,0-6.59,5.43,5.43,0,0,1,2.17-2.16,6.85,6.85,0,0,1,6.23,0Zm-5.1,1.5a3.65,3.65,0,0,0-1.47,1.49,5,5,0,0,0-.56,2.47,5,5,0,0,0,.56,2.45,3.63,3.63,0,0,0,1.47,1.49,4.34,4.34,0,0,0,4,0,3.63,3.63,0,0,0,1.47-1.49,5,5,0,0,0,.56-2.45,5,5,0,0,0-.56-2.47,3.65,3.65,0,0,0-1.47-1.49,4.34,4.34,0,0,0-4,0Z" transform="translate(0.01 0.01)"/><path class="cls-18" d="M193.4,225.92a5.36,5.36,0,0,1,2.16,2.16,7.34,7.34,0,0,1,0,6.59,5.38,5.38,0,0,1-2.16,2.15,6.85,6.85,0,0,1-6.23,0,5.44,5.44,0,0,1-2.17-2.15,7.25,7.25,0,0,1,0-6.59,5.43,5.43,0,0,1,2.17-2.16,6.85,6.85,0,0,1,6.23,0Zm-5.1,1.5a3.65,3.65,0,0,0-1.47,1.49,5,5,0,0,0-.56,2.47,5,5,0,0,0,.56,2.45,3.63,3.63,0,0,0,1.47,1.49,4.34,4.34,0,0,0,4,0,3.63,3.63,0,0,0,1.47-1.49,5,5,0,0,0,.56-2.45,5,5,0,0,0-.56-2.47,3.65,3.65,0,0,0-1.47-1.49,4.34,4.34,0,0,0-4,0Z" transform="translate(0.01 0.01)"/><path class="cls-18" d="M206.88,226a4.58,4.58,0,0,1,1.71,2.35v-7.28h2V237.4h-2v-3.08a4.59,4.59,0,0,1-1.71,2.35,5,5,0,0,1-3,.88,5.48,5.48,0,0,1-2.86-.75,5.17,5.17,0,0,1-2-2.15,7.95,7.95,0,0,1,0-6.59,5.16,5.16,0,0,1,2-2.16,5.48,5.48,0,0,1,2.86-.75A5,5,0,0,1,206.88,226Zm-5.37,2.08a5.3,5.3,0,0,0,0,6.49,3.88,3.88,0,0,0,3,1.18,4.1,4.1,0,0,0,2.12-.55,3.82,3.82,0,0,0,1.46-1.55,4.9,4.9,0,0,0,.53-2.32,5,5,0,0,0-.53-2.33,3.75,3.75,0,0,0-1.46-1.55,4.17,4.17,0,0,0-2.12-.54A3.88,3.88,0,0,0,201.52,228.13Z" transform="translate(0.01 0.01)"/><path class="cls-18" d="M221.22,221.12V237.4h-2V221.12Z" transform="translate(0.01 0.01)"/><path class="cls-18" d="M235.17,225.32V237.4h-2v-2.84a4.06,4.06,0,0,1-1.64,2.25,4.84,4.84,0,0,1-2.74.78,4.48,4.48,0,0,1-3.39-1.35,5.39,5.39,0,0,1-1.3-3.88v-7h2v6.84a3.9,3.9,0,0,0,.92,2.78,3.28,3.28,0,0,0,2.51,1,3.43,3.43,0,0,0,2.64-1.07,4.42,4.42,0,0,0,1-3.11v-6.42Z" transform="translate(0.01 0.01)"/><path class="cls-18" d="M247.55,226.4a5.22,5.22,0,0,1,1.87,3.3h-2.11a3.09,3.09,0,0,0-1.2-2,4.24,4.24,0,0,0-4.36-.25,3.53,3.53,0,0,0-1.4,1.49,6.07,6.07,0,0,0,0,5,3.52,3.52,0,0,0,1.4,1.48,4.21,4.21,0,0,0,4.36-.26,3.13,3.13,0,0,0,1.2-2h2.11a5.19,5.19,0,0,1-1.87,3.31,5.91,5.91,0,0,1-3.83,1.22,6.23,6.23,0,0,1-3.08-.75,5.28,5.28,0,0,1-2.1-2.15,7.53,7.53,0,0,1,0-6.59,5.27,5.27,0,0,1,2.1-2.16,6.23,6.23,0,0,1,3.08-.75A5.88,5.88,0,0,1,247.55,226.4Z" transform="translate(0.01 0.01)"/><path class="cls-18" d="M258.66,237.4,254,232v5.43h-2V221.12h2v9.46l4.55-5.26H261l-5.41,6,5.54,6.07Z" transform="translate(0.01 0.01)"/><path class="cls-18" d="M265.92,235v2.35h-2.44V235Zm-.13-13.53-.29,11.33h-1.65l-.29-11.33Z" transform="translate(0.01 0.01)"/></svg>