<svg xmlns="http://www.w3.org/2000/svg" viewBox="0 0 765.23 342.03"><defs><style>.cls-1,.cls-16{fill:#fff;}.cls-1{stroke:#00c5db;}.cls-1,.cls-14,.cls-17{stroke-miterlimit:10;}.cls-1,.cls-10,.cls-12,.cls-13,.cls-14,.cls-15,.cls-17,.cls-2,.cls-4,.cls-5,.cls-7,.cls-8{stroke-width:5px;}.cls-11,.cls-2{fill:#9c9c9c;}.cls-10,.cls-14,.cls-15,.cls-17,.cls-2,.cls-4,.cls-5,.cls-7,.cls-8{stroke:#000;}.cls-10,.cls-12,.cls-13,.cls-15,.cls-2,.cls-4,.cls-5,.cls-7,.cls-8{stroke-linecap:round;stroke-linejoin:round;}.cls-3,.cls-7{fill:#d9d9d9;}.cls-5,.cls-9{fill:#129f58;}.cls-6,.cls-8{fill:#46c678;}.cls-10,.cls-12,.cls-14{fill:none;}.cls-12,.cls-13{stroke:#fff;}.cls-15{fill:#090a0a;}.cls-18{fill:#00c5db;}</style></defs><title>Asset 7</title><g id="Layer_2" data-name="Layer 2"><g id="Layer_1-2" data-name="Layer 1"><path class="cls-1" d="M503.4,70a23.8,23.8,0,1,1-16.8,7A23.8,23.8,0,0,1,503.4,70Z"/><path class="cls-1" d="M91.45,272.55a93.19,93.19,0,0,1-57.3-163.07A120.8,120.8,0,0,1,245.29,44a68.84,68.84,0,0,1,83.86,20,68.83,68.83,0,0,1,93.18,24,93.22,93.22,0,0,1-10,184.35q-3.92.34-7.93.34H95.6C94.25,272.65,92.84,272.62,91.45,272.55Z"/><path class="cls-1" d="M557.08,112.47a14.29,14.29,0,1,1-14.29,14.29,14.29,14.29,0,0,1,14.29-14.29Z"/><path class="cls-2" d="M675,161.64c-73.88,1-82.2,108.12-84.28,177.89H747.47C744.78,261.16,754,160.58,675,161.64Z"/><path class="cls-3" d="M643.88,337.74c5.6-34.63,6.75-81,17.92-126.61a15,15,0,0,1,14.8-11.23,15.49,15.49,0,0,1,3,.34c6.11,1.3,8.17,12.8,9.84,23.23,9,56.48,18.21,83.12,22.24,114.27Z"/><path class="cls-2" d="M634.24,165.22C595.89,181.5,584,280.89,577.14,339.53h56.62C643.6,256.48,656.68,208.12,634.24,165.22Z"/><path class="cls-3" d="M589.43,337.74s3.34-21.3,10.86-26.61c8.3-5.86,16.68-7.75,25.84-2.25.48,16.81,0,28.6,0,28.6Z"/><path class="cls-4" d="M634.24,165.22c28.64,49.93,2.23,114.48-.48,174.31-4.82-.3-11.61-.25-15-.28,6.69-93.31,25.58-103,4-170C625.21,168.35,629.13,166.84,634.24,165.22Z"/><path class="cls-2" d="M651.6,225.84c-8.12,39.26-10.12,84.22-13.3,92.72-4.38-5.42-14.5-36.11-10.6-60.06C630.8,239.39,645.38,228.23,651.6,225.84Z"/><path class="cls-2" d="M706.6,163.3c-21.7,53.15,17.27,131.44,19.48,176.11l31.85.12C753.95,268.17,735,167.25,706.6,163.3Z"/><path class="cls-3" d="M729.9,303.18c3.1-4,7.83-5.17,13.11-4.4,8.45,1.23,7.81,19.32,7.54,39l-18.68-.15C729.34,322.11,721.52,314,729.9,303.18Z"/><path class="cls-4" d="M706.6,163.3a99.09,99.09,0,0,1,9.57,3.8c-19.85,47.26,18,120.33,20.77,172.42l-10.86-.12C724.07,295.24,685.71,216.24,706.6,163.3Z"/><path class="cls-2" d="M699.33,259.86c3.18,20.3,5.5,78.46,10.42,78.46,4.43-18.53,24.71-32,12.44-56.23C717.2,272.23,704.87,256,699.33,259.86Z"/><path class="cls-5" d="M665.6,254.37a400.89,400.89,0,0,1,1.29,47.87c-.06,1.9-3.45,4.87-2.39,6.93.79,1.54,4.32-1.21,7.16-1.1,3.39.14,6.18,2.84,7.22,1s-1.23-4.75-1.88-5.9c-8.43-14.87-3.11-37.1,5.21-50.89C678.81,249.13,669.6,250,665.6,254.37Z"/><path class="cls-6" d="M670.13,263.81c.36-3.09.22-4.11,1.1-5.29,1.22-1.63,3.71-2.66,4.68-1.94,1.28.93-.33,4.6-1.58,8.36-1.57,4.75-4.94,15-3.17,24.18,1.61,8.28,7.22,14.86,5.38,16.28-.31.24-.9.27-2.07.33-2.49.13-3.11-.65-4.68-.27s-2.24,1.47-2.62,1.21.17-1.57.55-2.75a31.55,31.55,0,0,0,.82-6.57c.35-4.74-.27-7.6-.27-14.07a114.74,114.74,0,0,1,1-14C669.68,266.14,669.82,266.5,670.13,263.81Z"/><path class="cls-4" d="M699.79,260.24c-11.23,7.57-24.65-.85-26.49,4.83-.8,2.47,1,4.4,7,6.29-5-.11-12.61.58-15.21,1.9-3.85,2-6.08,8,3,10.64-4.94.38-6.62,4.72-5.79,8.39.56,2.49,6.17,4.92,9.59,4.54-2.28,1.14-2.92,3.3-1.14,4.7,4.18,3.28,17.49.94,19.66.3,8.93-2.62,11.55-3.12,24.19-12.33C719.83,278.69,710.36,265.33,699.79,260.24Z"/><path class="cls-7" d="M706.6,163.3c16.78,5.21,31.93,16.89,45.71,39.23,9.45,15.3,14.46,29.63,6.36,48.28-17.77,40.91-31.83,47.11-48.89,87.51C720.14,305,717,274.4,699.36,259.86c12.16-9,20-18,26.91-30.72-6.36-5.76-8.68-9.6-8.68-20.57"/><path class="cls-8" d="M675.72,257c-2-1.84-.29-10.45,5.29-15.13,8.39-7,15.33,0,25.56-5.62C708.6,240.84,696.44,261.6,675.72,257Z"/><path class="cls-9" d="M676,256.46c7.29-12.52,22.38-8.87,29.81-19.11a.51.51,0,0,1,.93.28c-.16,6.24-11.69,23.22-30.41,19.54a.48.48,0,0,1-.33-.71Z"/><path class="cls-4" d="M643.69,232.61c7.36-6.55,18.92-8,25.65-7.64,2.94.17,4.94,3,3.34,5.3a21.05,21.05,0,0,1-1.36,1.75c15.91,3.7,10.15,11.22,7.11,14.64.76,2.28-.41,5.55-1.14,7.22s-3,2.66-5.32,3c-2.28,14.07-19.71,11.28-35.07,4.09C631.6,254.81,635,240.38,643.69,232.61Z"/><path class="cls-7" d="M634.24,165.22c-4.75,1.2-37.33,12-58.62,35.06a29.71,29.71,0,0,0-5.11,33.45c11.9,24,45,51.37,67.77,84.84-12.92-22-.58-68.58,13.3-92.72-9,0-16.2-1.92-32.11-4.94,2.31-5.21-4.34-11-9.84-13.17"/><path class="cls-10" d="M675.72,257c7-11.52,14.83-9.66,21.13-13.14"/><path class="cls-5" d="M665.1,314.81c1.16-3.08,12.61-3.32,14-.18.54,1.23-.61,2.68-1.72,4.12a2.7,2.7,0,0,0-.56,1.41c-.61,6.54-.94,12.94-1.34,19.37H665.07c.47-6.61.89-12.39,1.54-18.69a5.57,5.57,0,0,0-.91-3.73A2.56,2.56,0,0,1,665.1,314.81Z"/><path class="cls-6" d="M667.68,314.79A4.47,4.47,0,0,1,670,314c2.8-.28,4.87-.49,5.73.67s.19,2.66,0,3.23c-1.66,5-1.87,12.51-2,19.85l-6.52-.28c1-8.46,2-17.16.42-19.31-.17-.23-1.06-1.36-.73-2.35A2.15,2.15,0,0,1,667.68,314.79Z"/><path class="cls-4" d="M619.94,170.45c3.9-1.62,8.81-3.47,14.3-5.23,2.41,4.56,2.41,4.56,4.46,9.09-1.61,3.17-9.07,6.36-12.54,6.17C623.72,174.93,622.93,174.57,619.94,170.45Z"/><path class="cls-4" d="M706.6,163.3a95,95,0,0,1,9.57,3.8c-2.1,5.76-2.5,7.08-4.82,18.09-3.2.63-8-1.61-9.61-3.47A116.43,116.43,0,0,1,706.6,163.3Z"/><path class="cls-10" d="M675.72,257"/><path class="cls-10" d="M706.6,236.27"/><path class="cls-11" d="M619.48,220.91c-5.79.19-10.62-2.24-14-2.8a78.21,78.21,0,0,1-11.63-2.64c-13.5-3.8.76-5.62,2.28-5.84,2.74-.38,4.61.27,5.26-.38.5-.5-.61-1.65-1.14-4.21-.35-1.64-.73-3.35.09-4.66,1.45-2.32,5.78-2.08,6.94-2,3.13.17,13.38,4,14.66,4.94"/><path class="cls-10" d="M619.48,220.91a12.14,12.14,0,0,0,.08-5.54c-1.77-7.83-11.14-10.9-12-11.16"/><path class="cls-10" d="M619.48,220.91c-5.76-.6-12-2.57-17.9-3.58"/><path class="cls-11" d="M568.31,217.33a107.66,107.66,0,0,0,14.75,19c7,7.32,14.83,15.59,27.2,20.57A120,120,0,0,0,636,264c-3.54,15.82-5.84,31.37-1,48.69-9.37-12.84-28.32-33.45-42.09-49.29-7.71-8.87-13.77-16.51-15.67-19.84C568.4,231.64,567.16,222,568.31,217.33Z"/><path class="cls-10" d="M595.6,253.77a68.46,68.46,0,0,0,8.4,5.76,71.36,71.36,0,0,0,19.24,7.68"/><path class="cls-11" d="M716.39,229.77c.07,0-3.06-29.93-2.8-30.1.76-.49-2-5.15,2.31-1.46,1.87,1.59,4.64,2.8,6.08,5.45,1.63,3,.64,4.66,2.51,6.77,2.61,2.93,6.24,1.6,8.29,4.21s.59,6.79.38,7.32c-1.57,4.09-7.84,8.36-7.08,7"/><path class="cls-10" d="M725.94,229.77c1-2.23,3.39-5.76,3.08-9.6"/><path class="cls-10" d="M724.1,212.76a37.07,37.07,0,0,0-.38,9.94c.23,2.43,1.64,5.21,2.2,6.79"/><path class="cls-10" d="M715.85,203.64a32.2,32.2,0,0,0,1.59,14.83c2.66,7.39,6.18,9.5,8.18,11.78"/><path class="cls-11" d="M714.18,283.63S756,251.78,762,230.25c1.74,14.34-10,33-12.34,37.63-1,2.37-5.17,9.68-11,18.63-8.2,12.6-19.26,28.94-26,43.63C715,321.59,718.72,302,714.18,283.63Z"/><path class="cls-10" d="M722.36,285.23a71.9,71.9,0,0,0,10.9-9,69.47,69.47,0,0,0,10-12.89"/><path class="cls-10" d="M675.74,257.52c-2-1.84-.29-10.45,5.29-15.13,8.39-7,15.33,0,25.56-5.62C708.6,241.33,696.46,262.09,675.74,257.52Z"/><path class="cls-10" d="M634.24,165c-4.75,1.2-37.33,12-58.62,35.06a29.71,29.71,0,0,0-5.11,33.45c11.9,24,45,51.37,67.77,84.84-12.92-22-.58-68.58,13.3-92.72-9,0-25-2.66-32.09-4.65"/><path class="cls-10" d="M717.6,208"/><path class="cls-10" d="M706.6,162.77c16.78,5.21,31.93,16.89,45.71,39.23,9.45,15.3,14.46,29.63,6.36,48.28-17.77,40.93-31.82,47.09-48.88,87.51,10.36-33.33,7.22-63.92-10.42-78.46,12.16-9,20-18,26.91-30.72"/><path class="cls-12" d="M665.88,283.54a36.82,36.82,0,0,0,4.94.38,49.82,49.82,0,0,0,9.12-.76"/><path class="cls-13" d="M670.82,297.22c2.28.76,10.71-1.78,11.41-2.28"/><path class="cls-13" d="M678,247c-1.06.38-5.32,1.9-9.12,1.14"/><path class="cls-13" d="M671.6,258a42.4,42.4,0,0,1-8,1.14"/><path class="cls-10" d="M653.43,171.45"/><path class="cls-10" d="M652.67,175.63"/><path class="cls-10" d="M654.6,171.45"/><path class="cls-14" d="M727.41,139.63"/><path class="cls-15" d="M614,120c-6.51-2.91-8-7.94-7.39-8.74,0,0,4.22,1.84,5.09,1,2-2-17.35-7.74-16.51-24.74.43-8.78,5.26-17.82,8.64-20.91.29-.27.49-3.63,1.47-4.77.5-.58,2.78,1.52,2.74,1a4.4,4.4,0,0,1,2.71-4.71c.85-.3.68,3.89,3,4.66.33-1.43.79-2.37,1.85-2.84,1.47,1.54.46,1.68,2.46,3,4.32,2.1,11.32,8.85,18.83,14.56,10,1.34,24-9.45,30-7.88a.72.72,0,0,1,.5.89h0a.1.1,0,0,1,0,.05c-.79,2.3-4.94,4.65-4.94,4.65,1.6,3,12-9.12,25.7-4.88.33.79-6.64,3.66-6.2,5.3,7.78.91,10.32.89,12.68,0,5.88-3.06,8.51-14.64,17.24-16.38,1.57-1.7,2.83-3.2,3.62-2.91s.14,2.28,1.09,2.28c.46,0,1.79-2.11,2.26-3.61,3.77.17,2.83,5.13,3.32,5.12.71,0,1.45-1.61,1.66-1.76.79,0,1.52,2.7,2,5.85,7.78,9.21,19.24,27.43-2.14,42.09-.11,2.84,4,.43,6.46,0-1.14,6-8.4,10.68-8.48,12.08"/><path class="cls-7" d="M594.49,153.59c6.87-5.41,12.29-12.24,17.17-26.92,5.7-17.13,16.62-49.19,55.27-49.19,46.69,0,50.51,25,60.48,61.37,2.66,9.65,7.89,12.91,14.21,13.19a6.41,6.41,0,0,1-5.4,3.35c1.52,3,2.12,4.63.79,7.49-.79-2.86-4.28-4.45-4.28-4.45-.83,9.54-9.48,14.17-22.81,21.84-2.28,1.32-17.82,16.89-36.11,16.9-26.36,0-40.14-13.78-44-16.37-7.38-4.31-18.47-5.16-27.66-18.83-1.52.52-2.44.33-5,2.42-.86-1.12-.11-4.63,2.88-7.72C596.93,156.68,594.49,155,594.49,153.59Z"/><path class="cls-16" d="M606.2,158.11c-1.31-.4-2.21-3.27-1.47-6.87a9.35,9.35,0,0,1,2-4c5.64-6.91,7.34-10.89,10-18,.54-1.43,1.17-2.82,1.83-4.18a31.05,31.05,0,0,0,1.34-3.16c3.86-10.45,6.39-17.42,10.26-21.82,7.32-6,12.48-4.15,12.07-5.08-1.29-2.46-6.31-3-6.31-3,1.19-3.34,15.56-.4,19.72-1.54-1.94-2.46-4.74-3.12-4.09-4.52a45.7,45.7,0,0,0,18.39,3.42,64,64,0,0,0,15.62-2.76c.59,1.06-1.52,2.66-2.22,4.63,3.54,2.07,17.32-1.11,17.94.88,0,0-4,1.52-4.64,3a56,56,0,0,1,8.21,3.12A14.07,14.07,0,0,1,711,104c4.28,7.68,2.69,18.52,11,35.14,3.7,7.39,9.5,12.64,8.31,15.55,0,0-2.92-2.83-5.65-3.31-.08,2,2.28,7.64,1.33,8.16a11.11,11.11,0,0,0-3.21-1.87,13.44,13.44,0,0,1-1.33,6.73c-1.52,2.86-10.23,9.31-18.39,9.75a10.26,10.26,0,0,0-6.3,2.45c-3,2.61-7.7,4.09-11.2,1.48-.5-.38,3.09-.67,4.94-1.94-1.36-1.38,1-1.19.4-1.61,2.11-2.26-2.17.15-2.22-1.56-15,5.78-19.91-13-19.91-13s-4.85,23.26-22,8.15c.09,1.2,1.52,4.31,1.11,4.88-1.52-.66-2.63.67-3.57,1.77,3.8.22,7.63,1.94,6.91,2.44-8.28,5.73-6.91-.69-16.11-3.88-7.83-2.72-11.31-2.87-15.13-4.39a9.92,9.92,0,0,1-6.36-8.28v-.84c-1.1-.22-2,.83-2.88,2.31-.92-.38-.17-6.37.67-8.27C607.5,154.1,606.5,157.95,606.2,158.11Z"/><path class="cls-14" d="M741.6,152a6.41,6.41,0,0,1-5.4,3.35"/><path class="cls-14" d="M727.41,138.87"/><path class="cls-10" d="M664.27,74.51"/><path class="cls-10" d="M667.6,69.71"/><path class="cls-10" d="M636.91,77.38"/><path class="cls-3" d="M631.72,149.75c-.29-2.14.24-2.58,1-2.8.69,2.06,3.28,5.76,6.08,6,1.25-3.78,11.48-6.88,12.86-7.26.41.6-.9,2.22-.76,2.33,4.52.27,8.8-10,10.52-11.49,1.65.88,4.94,10.21-.87,16.5,3.31,4.87,13.93,4.84,16.87.23-5.15-7.73-3-15.59-1.61-16.38,1.52.58,6.61,9.82,11.46,12.66-.66-1.9-.43-2.45.11-2.8,1.32,1.55,8.07,9.55,12.49,10.72,3.75-2.27,5.52-8,6.68-7.47.71.29.69,2.21.55,3.26,1.64-.74,7.93-7.14,7.88-15.72,0-10.68-10.93-19.94-20.37-20.38a28.29,28.29,0,0,0-18.14,5.2c-1.57-3,2.37-7.77,2.37-7.77-.76-.71-3.76-.38-6.54,2.14,0-1.67-2.36-6.84-3.54-6.68s-2.44,3.77-3.36,6.91c-.62.47-2.66-3.57-6.46-2.33,2.23,2.72,4,6.44,3,7.88-3.14-2.41-6.9-4.18-13.91-4.77-10.62-.89-23.29,7.11-24.78,16.7C621.93,142.92,630.21,150.39,631.72,149.75Z"/><path class="cls-17" d="M676.15,126a9,9,0,0,0,.28,4.56c.84,2.41,2.39,3.25,5.22,6.35,6.08,6.68,9.12,10,13.6,10,4.88,0,9.5-3.63,11.54-8a13.39,13.39,0,0,0,1.14-8.68c-1-4.23-4.08-7.88-7.71-10.31-5.76-3.84-13-5.95-16.73-4.5C679.5,117.34,677,121.31,676.15,126Z"/><path class="cls-17" d="M669.44,168.92c-.43,0,.43-5.79-2.5-9.12-.92-1-1.82-1.74-5.49-3.25-2.68-1.1-5.8-2.33-6.18-4.41-.24-4.27,6.66-5.93,13.46-6.15s14.07,1.34,14.07,5.47c0,2.15-2.13,2.73-5.29,4.38-2.61,1.36-4.2,1.88-5.7,3.52C668.71,162.75,669.88,168.93,669.44,168.92Z"/><path class="cls-16" d="M661.41,148.85c-.06-.53,3.19-1.74,7.6-1.74,4.94,0,7.8,1,7.75,1.57C676.73,149.72,661.54,149.87,661.41,148.85Z"/><path class="cls-17" d="M661.89,126a9,9,0,0,1-.28,4.56c-.84,2.41-2.39,3.25-5.22,6.35-6.08,6.68-9.12,10-13.6,10-4.88,0-9.5-3.63-11.54-8a13.39,13.39,0,0,1-1.14-8.68c1-4.23,4.08-7.88,7.71-10.31,5.76-3.84,13-5.95,16.73-4.5C658.53,117.34,661,121.31,661.89,126Z"/><path class="cls-3" d="M689.6,153.29c.26-.48,4,.88,6.91,2.66a9.41,9.41,0,0,1,3.5,3.23c2.1,3.77,2.25,9.59,2.23,9.32-.22-2.89-2.9-8.88-4.91-9.77.16,1,4,4.44-1.27,20.53-.07.12,2.83-15.35-1.56-21.76C692.6,154.71,689.35,153.74,689.6,153.29Z"/><path class="cls-3" d="M648.21,153.29c-.26-.48-4,.88-6.91,2.66a9.41,9.41,0,0,0-3.5,3.23c-2.1,3.77-2.25,9.59-2.23,9.32.22-2.89,2.9-8.88,4.91-9.77-.16,1-4,4.44,1.27,20.53.07.12-2.83-15.35,1.56-21.76C645.23,154.71,648.44,153.74,648.21,153.29Z"/><path class="cls-10" d="M644.7,158.31A14.76,14.76,0,0,0,648,169.15c3.72,5.85,10.32,6.08,14.4,4.74a16,16,0,0,0,6.76-4.41"/><path class="cls-10" d="M694.43,160.09c0,11.78-9.36,14.16-9.69,14.23a16.17,16.17,0,0,1-8.59-.43,15.74,15.74,0,0,1-6.7-4.92"/><path class="cls-7" d="M677,114.52c-.35-.43-1.72-2.14-1.56-3.88.41-4.23,9.75-4.85,11.58-5,15.13-1,22.52,11.23,39.53,17.21,18.35,6.46,32.34.14,32.58,1.66s-11.68,4.44-27.42,4.28c-16.8-2-19.64-4.94-30.94-10.07A20,20,0,0,0,689,117C684.6,117.85,679.92,118.14,677,114.52Z"/><path class="cls-7" d="M659.6,163.85c-.06-2-2.24-3.42-2.83-3.8-5.34-3.45-14.09,0-23.93,6.12-19.11,11.91-26,15.89-28,16.73a78.53,78.53,0,0,1-41.07,4.47c-11.33-1.26-19.35-4.91-19.44-4.63s11.23,5.9,26.25,7.78c15.65,2,27.9-1,35.56-3,4.56-1.14,25.12-10.91,28.58-12.61C649.6,167.57,659.74,167.71,659.6,163.85Z"/><path class="cls-16" d="M655.18,162.08a4.36,4.36,0,0,0-3.12-1.55,20.78,20.78,0,0,0-8.92,1.55,71.9,71.9,0,0,0-13.38,8.22A152.81,152.81,0,0,1,614.82,180a80.33,80.33,0,0,1-14.49,6.22,58.86,58.86,0,0,1-20.62,2.94c0,.2,7.32.56,16.7-1.08a67.43,67.43,0,0,0,17.52-5.86c4.15-1.77,7.14-4,13.16-7.32a114.08,114.08,0,0,1,11.82-6.66A43.61,43.61,0,0,1,646,165.6a26.69,26.69,0,0,1,6.24-.67c1.72-.18,2.36.06,3.12-.89C655.94,163.42,655.7,162.8,655.18,162.08Z"/><path class="cls-7" d="M680.22,183c-2.58-3.33-2.94-3.61-3.63-4a9.58,9.58,0,0,0-9.66.72c-2,1.45-1.78,2.77-4.15,4.09-1.81,1-3,.84-4.65,1.31-3.42,1-5.44,3.65-7.14,5.9-5,6.65-7.66,17.46-8.31,19.84-3.08,11.53-11.48,18.74-19.08,25.3C603.19,253.74,570,257.95,548,247.5c-5.66-2.69-12.6-7.3-13.14-6.56s7.11,8,14.12,12.63c20.32,13.25,52.7,16,76.76,3.12,12.76-6.84,21.89-17.35,23.59-15.75,1,1-1.41,5.7-4.49,9-6.23,6.76-15,7.78-14.79,8.36s5.7.31,12.29-2.28c7.26-2.88,11.81-7.2,18.11-13.28,5.53-5.34,8.83-8.54,12.46-13.94,4.15-6.18,7.6-11,11.38-22.14,3.45-10.23,2.15-14.86.41-17.71C684.4,188.46,683,186.66,680.22,183Z"/><path class="cls-16" d="M663,187c-.52-.73-3.66.26-4.24.45a7.85,7.85,0,0,0-4.61,3.26c-4.37,5.84-8.12,17.53-11,23.8-3.27,7.22-6.75,12.8-9.62,16a70.07,70.07,0,0,1-23,17.11c-5.46,2.5-25.61,13.3-48.17,7.11A150.81,150.81,0,0,1,547.92,250s2.58,1.48,10.48,5.11a106.61,106.61,0,0,0,14,4.84c20.1,5.41,39.35-.49,41.37-1.14a78.18,78.18,0,0,0,31.07-19.43c11.2-11.5,16-24,17.44-23.32,1.26.57-.51,10.18-1.29,12.39-1.87,5.23-2.43,8.3-7.13,14-4,4.8-7.32,8.66-7.13,8.88s2.92-2.84,9.09-8.39c5.25-4.72,8.61-9.26,15.12-18.14,8.56-11.68,10.2-15.68,11.13-18.78a33,33,0,0,0,.67-13.11c-.24-1.58-.67-4.25-1.66-4.37-.43,0-1.44.32-3.49,6-3.84,10.64-3.72,18.76-4.65,18.78-.71,0-1.62-4.65-2-9.55-.74-9.8,5.38-22.36,4.11-22.81-1.64-.59-10.26,7.6-13.75,21.36-1.77,7-2.69,7.91-5,13.11-5.16,11.67-13.34,19.26-13.78,19s3-4.6,8.47-14.9c4.88-9.15,5-20,6-23.15C658.69,190.59,663.83,188.14,663,187Z"/><path class="cls-7" d="M678,161.87c.7-2.14,4.07-2.73,4.65-2.81a9.79,9.79,0,0,1,6.46,1.49c1.74,1,5.11,3.53,7.81,11.41,1.31,3.83,4.28,12.58,2,22.18-5.26,22.1-33.9,29.73-39,31.1-13.73,3.66-23.59,1.19-25.59.66-6.21-1.65-11.78-4.69-11.63-5.13s5.66,2,13.3,3a56,56,0,0,0,20.44-1c12.65-3.17,20.82-9.3,22.76-11.17,4.28-4.07,9.86-10,11.39-17.94.46-2.43,1.69-10.15-2-16.3A75,75,0,0,0,680,166.85C678.72,165.44,677.52,163.53,678,161.87Z"/><path class="cls-16" d="M681.27,163.42a2.34,2.34,0,0,1,0-1.33c.67-1.77,3.39-1.27,5.8,0,7.58,4,11.9,16.13,10.7,26.2a37.79,37.79,0,0,1-12,23.13,43.32,43.32,0,0,1-8.64,5.54c-12.46,6.69-23.19,8-23.26,7.78s14.16-1.25,26.83-11.41c3.65-2.93,9.61-7.25,11.92-14.83,1.94-6.32,2.28-12.42,1.56-16.43-1.1-6.08-2.55-9.66-5.13-12.21C685.79,166.61,681.87,167,681.27,163.42Z"/><path class="cls-7" d="M661.16,114.52c.35-.43,1.72-2.14,1.56-3.88-.42-4.24-9.76-4.88-11.58-5-15.13-1-22.52,11.23-39.53,17.21-18.35,6.46-32.34.14-32.58,1.66s11.7,4.43,27.44,4.28c16.8-2,19.64-4.94,30.94-10.07a20,20,0,0,1,11.72-1.66C653.55,117.85,658.21,118.14,661.16,114.52Z"/><path class="cls-16" d="M658.75,109.24a17.41,17.41,0,0,0-8.92-1.33c-9.88.76-13.35,3.1-23.86,9.55-12.16,7.47-17.36,8.09-22.74,8.88a41.35,41.35,0,0,1-8.47.22,49.58,49.58,0,0,0,18.52-1.11c3.9-1,8.48-2.78,17.66-6.89,15.34-6.88,18.89-5.09,23.37-5.1,4,0,4.94.48,5.57-.8A2.33,2.33,0,0,0,658.75,109.24Z"/><path class="cls-16" d="M679.6,109.24a17.41,17.41,0,0,1,8.92-1.33c9.88.76,13.35,3.1,23.86,9.55,12.16,7.47,17.66,8.31,23,9.1a33.73,33.73,0,0,0,8.16.11c.09.56-8.16,1.46-18.19-1-3.9-1-8.74-3-18-7.11-15.34-6.88-18.89-5.09-23.37-5.1-4,0-4.94.48-5.57-.8A2.36,2.36,0,0,1,679.6,109.24Z"/><path class="cls-16" d="M654.77,129.46a2.32,2.32,0,0,1-1.29,2.42c-1.66.81-4.72,2.26-8.36,3.76-2,.84-2.58-1.52-2.4-4s4.69-6.12,9.12-5.81C653.6,126,654.48,127.62,654.77,129.46Z"/><path class="cls-16" d="M683,129.16a2.6,2.6,0,0,0,1.43,2.81c1.7.83,4.66,2.22,8.17,3.66,2,.84,2.58-1.52,2.4-4s-4.69-6.12-9.12-5.81C684.23,126,683.3,127.45,683,129.16Z"/><path class="cls-15" d="M614,119.61c-6.51-2.91-8-7.94-7.39-8.74,0,0,4.22,1.84,5.09,1,2-2-17.35-7.74-16.51-24.74.43-8.78,5.26-17.82,8.64-20.91.29-.27.49-3.63,1.47-4.77.5-.58,2.78,1.52,2.74,1a4.4,4.4,0,0,1,2.71-4.71c.85-.3.68,3.89,3,4.66.33-1.43.79-2.37,1.85-2.84,1.47,1.54.46,1.68,2.46,3,4.32,2.1,11.32,8.85,18.83,14.56,10,1.34,24-9.45,30-7.88a.72.72,0,0,1,.5.89h0a.1.1,0,0,1,0,.05c-.79,2.3-4.94,4.65-4.94,4.65,1.6,3,12-9.12,25.7-4.88.33.79-6.64,3.66-6.2,5.3,7.78.91,10.32.89,12.68,0,5.88-3.06,8.51-14.64,17.24-16.38,1.57-1.7,2.83-3.2,3.62-2.91s.14,2.28,1.09,2.28c.46,0,1.79-2.11,2.26-3.61,3.77.17,2.83,5.13,3.32,5.12.71,0,1.45-1.61,1.66-1.76.79,0,1.52,2.7,2,5.85,7.78,9.21,19.24,27.43-2.14,42.09-.11,2.84,4,.43,6.46,0-1.14,6-8.4,10.68-8.48,12.08"/><path class="cls-7" d="M594.49,153.21c6.87-5.41,12.29-12.24,17.17-26.92,5.7-17.13,16.62-49.19,55.27-49.19,46.69,0,50.51,25,60.48,61.37,2.66,9.65,7.89,12.91,14.21,13.19a6.41,6.41,0,0,1-5.4,3.35c1.52,3,2.12,4.63.79,7.49-.79-2.86-4.28-4.45-4.28-4.45-.83,9.54-9.48,14.17-22.81,21.84-2.28,1.32-17.82,16.89-36.11,16.9-26.36,0-40.14-13.78-44-16.37-7.38-4.31-18.47-5.16-27.66-18.83-1.52.52-2.44.33-5,2.42-.86-1.12-.11-4.63,2.88-7.72C596.93,156.31,594.49,154.65,594.49,153.21Z"/><path class="cls-16" d="M606.2,157.73c-1.31-.4-2.21-3.27-1.47-6.87a9.35,9.35,0,0,1,2-4c5.64-6.91,7.34-10.89,10-18,.54-1.43,1.17-2.82,1.83-4.18a31.05,31.05,0,0,0,1.34-3.16c3.86-10.45,6.39-17.42,10.26-21.82,7.32-6,12.48-4.15,12.07-5.08-1.29-2.46-6.31-3-6.31-3,1.19-3.34,15.56-.4,19.72-1.54-1.94-2.46-4.74-3.12-4.09-4.52A45.7,45.7,0,0,0,669.92,89a64,64,0,0,0,15.62-2.76c.59,1.06-1.52,2.66-2.22,4.63,3.54,2.07,17.32-1.11,17.94.88,0,0-4,1.52-4.64,3a56,56,0,0,1,8.21,3.12,14.07,14.07,0,0,1,6.13,5.73c4.28,7.68,2.69,18.52,11,35.14,3.7,7.39,9.5,12.64,8.31,15.55,0,0-2.92-2.83-5.65-3.31-.08,2,2.28,7.64,1.33,8.16a11.11,11.11,0,0,0-3.21-1.87,13.44,13.44,0,0,1-1.33,6.73c-1.52,2.86-10.23,9.31-18.39,9.75a10.26,10.26,0,0,0-6.3,2.45c-3,2.61-7.7,4.09-11.2,1.48-.5-.38,3.09-.67,4.94-1.94-1.36-1.38,1-1.19.4-1.61,2.11-2.26-2.17.15-2.22-1.56-15,5.78-19.91-13-19.91-13s-4.85,23.26-22,8.15c.09,1.2,1.52,4.31,1.11,4.88-1.52-.66-2.63.67-3.57,1.77,3.8.22,7.63,1.94,6.91,2.44-8.28,5.73-6.91-.69-16.11-3.88-7.83-2.72-11.31-2.87-15.13-4.39a9.92,9.92,0,0,1-6.31-8.34v-.84c-1.1-.22-2,.83-2.88,2.31-.92-.38-.17-6.37.67-8.27C607.5,153.72,606.5,157.56,606.2,157.73Z"/><path class="cls-14" d="M741.6,151.69a6.41,6.41,0,0,1-5.4,3.35"/><path class="cls-14" d="M727.41,138.49"/><path class="cls-10" d="M664.27,74.13"/><path class="cls-10" d="M667.6,69.33"/><path class="cls-10" d="M636.91,77"/><path class="cls-3" d="M631.72,149.38c-.29-2.14.24-2.58,1-2.8.69,2.06,3.28,5.76,6.08,6,1.25-3.78,11.48-6.88,12.86-7.26.41.6-.9,2.22-.76,2.33,4.52.27,8.8-10,10.52-11.49,1.65.88,4.94,10.21-.87,16.5,3.31,4.87,13.93,4.84,16.87.23-5.15-7.73-3-15.59-1.61-16.38,1.52.58,6.61,9.82,11.46,12.66-.66-1.9-.43-2.45.11-2.8,1.32,1.55,8.07,9.55,12.49,10.72,3.75-2.27,5.52-8,6.68-7.47.71.29.69,2.21.55,3.26,1.64-.74,7.93-7.14,7.88-15.72,0-10.68-10.93-19.94-20.37-20.38a28.29,28.29,0,0,0-18.14,5.2c-1.57-3,2.37-7.77,2.37-7.77-.76-.71-3.76-.38-6.54,2.14,0-1.67-2.36-6.84-3.54-6.68s-2.44,3.77-3.36,6.91c-.62.47-2.66-3.57-6.46-2.33,2.23,2.72,4,6.44,3,7.88-3.14-2.41-6.9-4.18-13.91-4.77-10.62-.89-23.29,7.11-24.78,16.7C621.93,142.55,630.21,150,631.72,149.38Z"/><path class="cls-17" d="M676.15,125.58a9,9,0,0,0,.28,4.56c.84,2.41,2.39,3.25,5.22,6.35,6.08,6.68,9.12,10,13.6,10,4.88,0,9.5-3.63,11.54-8a13.39,13.39,0,0,0,1.14-8.68c-1-4.23-4.08-7.88-7.71-10.31-5.76-3.84-13-5.95-16.73-4.5C679.5,117,677,120.92,676.15,125.58Z"/><path class="cls-17" d="M669.44,168.54c-.43,0,.43-5.79-2.5-9.12-.92-1-1.82-1.74-5.49-3.25-2.68-1.1-5.8-2.33-6.18-4.41-.24-4.27,6.66-5.93,13.46-6.15s14.07,1.34,14.07,5.47c0,2.15-2.13,2.73-5.29,4.38-2.61,1.36-4.2,1.88-5.7,3.52C668.71,162.37,669.88,168.54,669.44,168.54Z"/><path class="cls-16" d="M661.41,148.47c-.06-.53,3.19-1.74,7.6-1.74,4.94,0,7.8,1,7.75,1.57C676.73,149.34,661.54,149.49,661.41,148.47Z"/><path class="cls-17" d="M661.89,125.58a9,9,0,0,1-.28,4.56c-.84,2.41-2.39,3.25-5.22,6.35-6.08,6.68-9.12,10-13.6,10-4.88,0-9.5-3.63-11.54-8a13.39,13.39,0,0,1-1.14-8.68c1-4.23,4.08-7.88,7.71-10.31,5.76-3.83,13-5.93,16.74-4.49C658.53,117,661,120.92,661.89,125.58Z"/><path class="cls-3" d="M689.6,152.91c.26-.48,4,.88,6.91,2.66a9.41,9.41,0,0,1,3.5,3.23c2.1,3.77,2.25,9.59,2.23,9.32-.22-2.89-2.9-8.88-4.91-9.77.16,1,4,4.44-1.27,20.53-.07.12,2.83-15.35-1.56-21.76C692.6,154.33,689.35,153.36,689.6,152.91Z"/><path class="cls-3" d="M648.21,152.91c-.26-.48-4,.88-6.91,2.66a9.41,9.41,0,0,0-3.5,3.23c-2.1,3.77-2.25,9.59-2.23,9.32.22-2.89,2.9-8.88,4.91-9.77-.16,1-4,4.44,1.27,20.53.07.12-2.83-15.35,1.56-21.76C645.23,154.33,648.44,153.36,648.21,152.91Z"/><path class="cls-10" d="M644.7,157.94A14.76,14.76,0,0,0,648,168.78c3.72,5.85,10.32,6.08,14.4,4.74a16,16,0,0,0,6.76-4.41"/><path class="cls-10" d="M694.43,159.71c0,11.78-9.36,14.16-9.69,14.23a16.17,16.17,0,0,1-8.59-.43,15.74,15.74,0,0,1-6.7-4.92"/><path class="cls-7" d="M677,114.14c-.35-.43-1.72-2.14-1.56-3.88.41-4.23,9.75-4.85,11.58-5,15.13-1,22.52,11.23,39.53,17.21,18.35,6.46,32.34.14,32.58,1.66s-11.68,4.44-27.42,4.28c-16.8-2-19.64-4.94-30.94-10.07A20,20,0,0,0,689,116.67C684.6,117.47,679.92,117.76,677,114.14Z"/><path class="cls-7" d="M659.6,163.47c-.06-2-2.24-3.42-2.83-3.8-5.34-3.45-14.09,0-23.93,6.12-19.1,11.91-26,15.89-28,16.73a78.53,78.53,0,0,1-41.09,4.5c-11.33-1.26-19.35-4.91-19.44-4.63s11.23,5.9,26.25,7.78c15.65,2,27.9-1,35.56-3,4.56-1.14,25.12-10.91,28.58-12.61C649.6,167.19,659.74,167.33,659.6,163.47Z"/><path class="cls-16" d="M655.18,161.71a4.36,4.36,0,0,0-3.12-1.55,20.78,20.78,0,0,0-8.92,1.55,71.9,71.9,0,0,0-13.38,8.22,152.8,152.8,0,0,1-14.94,9.77,80.33,80.33,0,0,1-14.49,6.22,58.86,58.86,0,0,1-20.62,2.94c0,.2,7.32.56,16.7-1.08a67.43,67.43,0,0,0,17.52-5.86c4.15-1.77,7.14-4,13.16-7.32a114.08,114.08,0,0,1,11.82-6.66,43.61,43.61,0,0,1,7.13-2.66,26.69,26.69,0,0,1,6.24-.67c1.72-.18,2.36.06,3.12-.89C655.94,163,655.7,162.42,655.18,161.71Z"/><path class="cls-7" d="M680.22,182.68c-2.58-3.33-2.94-3.61-3.63-4a9.58,9.58,0,0,0-9.66.72c-2,1.45-1.78,2.77-4.15,4.09-1.81,1-3,.84-4.65,1.31-3.42,1-5.44,3.65-7.14,5.9-5,6.65-7.66,17.46-8.31,19.84C639.6,222,631.2,229.24,623.6,235.8,603.19,253.36,570,257.57,548,247.12c-5.66-2.69-12.6-7.3-13.14-6.56s7.11,8,14.12,12.63c20.32,13.25,52.7,16,76.76,3.12,12.76-6.84,21.89-17.35,23.59-15.75,1,1-1.41,5.7-4.49,9-6.23,6.76-15,7.78-14.79,8.36s5.7.31,12.29-2.28c7.26-2.88,11.81-7.2,18.11-13.28,5.53-5.34,8.83-8.54,12.46-13.94,4.15-6.18,7.6-11,11.38-22.14,3.45-10.23,2.15-14.86.41-17.71C684.4,188.08,683,186.28,680.22,182.68Z"/><path class="cls-16" d="M663,186.58c-.52-.73-3.66.26-4.24.45a7.85,7.85,0,0,0-4.61,3.26c-4.37,5.84-8.12,17.53-11,23.8-3.27,7.22-6.75,12.8-9.62,16a70.07,70.07,0,0,1-23,17.11c-5.46,2.5-25.61,13.3-48.17,7.11a150.81,150.81,0,0,1-14.49-4.66s2.58,1.48,10.48,5.11a106.61,106.61,0,0,0,14,4.84c20.1,5.41,39.35-.49,41.37-1.14A78.18,78.18,0,0,0,644.84,239c11.2-11.5,16-24,17.44-23.32,1.26.57-.51,10.18-1.29,12.39-1.87,5.23-2.43,8.3-7.13,14-4,4.8-7.32,8.66-7.13,8.88s2.92-2.84,9.09-8.39c5.25-4.72,8.61-9.26,15.12-18.14,8.56-11.68,10.2-15.68,11.13-18.78a33,33,0,0,0,.67-13.11c-.24-1.58-.67-4.25-1.66-4.37-.43,0-1.44.32-3.49,6-3.84,10.64-3.72,18.76-4.65,18.78-.71,0-1.62-4.65-2-9.55-.74-9.8,5.38-22.36,4.11-22.81-1.64-.59-10.26,7.6-13.75,21.36-1.77,7-2.69,7.91-5,13.11-5.16,11.67-13.34,19.26-13.78,19s3-4.6,8.47-14.9c4.88-9.15,5-20,6-23.15C658.69,190.2,663.83,187.76,663,186.58Z"/><path class="cls-7" d="M678,161.49c.7-2.14,4.07-2.73,4.65-2.81a9.79,9.79,0,0,1,6.46,1.49c1.74,1,5.11,3.53,7.81,11.41,1.31,3.83,4.28,12.58,2,22.18-5.26,22.1-33.9,29.73-39,31.1-13.73,3.66-23.59,1.19-25.59.66-6.21-1.65-11.78-4.69-11.63-5.13s5.66,2,13.3,3a56,56,0,0,0,20.44-1c12.65-3.17,20.82-9.3,22.76-11.17,4.28-4.07,9.86-10,11.39-17.94.46-2.43,1.69-10.15-2-16.3A75,75,0,0,0,680,166.47C678.72,165,677.52,163.16,678,161.49Z"/><path class="cls-16" d="M681.27,163a2.34,2.34,0,0,1,0-1.33c.67-1.77,3.39-1.27,5.8,0,7.58,4,11.9,16.13,10.7,26.2a37.79,37.79,0,0,1-12,23.13,43.32,43.32,0,0,1-8.64,5.54c-12.46,6.69-23.19,8-23.26,7.78s14.16-1.25,26.83-11.41c3.65-2.93,9.61-7.25,11.92-14.83,1.94-6.32,2.28-12.42,1.56-16.43-1.1-6.08-2.55-9.66-5.13-12.21C685.79,166.22,681.87,166.64,681.27,163Z"/><path class="cls-7" d="M661.16,114.14c.35-.43,1.72-2.14,1.56-3.88-.42-4.24-9.76-4.88-11.58-5-15.13-1-22.52,11.23-39.53,17.21-18.35,6.46-32.34.14-32.58,1.66s11.7,4.43,27.44,4.28c16.8-2,19.64-4.94,30.94-10.07a20,20,0,0,1,11.72-1.67C653.55,117.47,658.21,117.76,661.16,114.14Z"/><path class="cls-16" d="M658.75,108.86a17.41,17.41,0,0,0-8.92-1.33c-9.88.76-13.35,3.1-23.86,9.55-12.16,7.47-17.36,8.09-22.74,8.88a41.35,41.35,0,0,1-8.47.22A49.58,49.58,0,0,0,613.27,125c3.9-1,8.48-2.78,17.66-6.89,15.34-6.88,18.89-5.09,23.37-5.1,4,0,4.94.48,5.57-.8a2.29,2.29,0,0,0-1.12-3.37Z"/><path class="cls-16" d="M679.6,108.86a17.41,17.41,0,0,1,8.92-1.33c9.88.76,13.35,3.1,23.86,9.55,12.16,7.47,17.66,8.31,23,9.1a33.73,33.73,0,0,0,8.16.11c.09.56-8.16,1.46-18.19-1-3.9-1-8.74-3-18-7.11-15.34-6.88-18.89-5.09-23.37-5.1-4,0-4.94.48-5.57-.8A2.36,2.36,0,0,1,679.6,108.86Z"/><path class="cls-16" d="M641.8,134.4a13.52,13.52,0,0,1,3-3.23,15.29,15.29,0,0,1,3.75-2.21,11.66,11.66,0,0,1,4.4-.91,7.9,7.9,0,0,1,2.28.34,6,6,0,0,1,1.08.45,7.48,7.48,0,0,1,.93.67,19,19,0,0,0-4,.9c-1.21.4-2.38.88-3.59,1.37s-2.43,1-3.71,1.47A21.13,21.13,0,0,1,641.8,134.4Z"/><path class="cls-16" d="M696,134.4a21.12,21.12,0,0,1-4.13-1.14c-1.29-.48-2.51-1-3.71-1.47s-2.38-1-3.59-1.37a19,19,0,0,0-4-.9,7.48,7.48,0,0,1,.93-.67,10.7,10.7,0,0,1,1.08-.45,6.66,6.66,0,0,1,1.14-.25,8.22,8.22,0,0,1,1.14-.08,11.66,11.66,0,0,1,4.4.91,15.29,15.29,0,0,1,3.75,2.21A13.52,13.52,0,0,1,696,134.4Z"/><path class="cls-18" d="M76.15,95.33v18.33H73.79V95.33Z"/><path class="cls-18" d="M91.49,100.75A6.41,6.41,0,0,1,93,105.36v8.29H90.66v-8.09a4.56,4.56,0,0,0-1.09-3.28,3.9,3.9,0,0,0-3-1.14,4.05,4.05,0,0,0-3.12,1.26,5.23,5.23,0,0,0-1.17,3.68v7.57H79.95V99.38h2.37v3.38a4.86,4.86,0,0,1,1.94-2.68,5.61,5.61,0,0,1,3.21-.94A5.33,5.33,0,0,1,91.49,100.75Z"/><path class="cls-18" d="M109.9,111.58v2.08h-1.77a4.54,4.54,0,0,1-3.26-1,4.69,4.69,0,0,1-1.08-3.48v-7.7h-2.13V99.38h2.13V95.82h2.39v3.56h3.69v2.05h-3.69v7.75a2.67,2.67,0,0,0,.51,1.88,2.44,2.44,0,0,0,1.75.51Z"/><path class="cls-18" d="M124.33,100.75a6.41,6.41,0,0,1,1.53,4.62v8.29H123.5v-8.09a4.56,4.56,0,0,0-1.09-3.28,3.9,3.9,0,0,0-3-1.14,4.05,4.05,0,0,0-3.12,1.26,5.23,5.23,0,0,0-1.17,3.68v7.57h-2.37V94.42h2.37v8.35a4.86,4.86,0,0,1,1.94-2.68,5.61,5.61,0,0,1,3.21-.94A5.33,5.33,0,0,1,124.33,100.75Z"/><path class="cls-18" d="M142.53,107H131.12a5,5,0,0,0,1.39,3.67,4.54,4.54,0,0,0,3.21,1.22,4.64,4.64,0,0,0,2.87-.87,3.6,3.6,0,0,0,1.42-2.33h2.52a6,6,0,0,1-3.48,4.47,7.7,7.7,0,0,1-3.22.65,7.34,7.34,0,0,1-3.64-.88,6.24,6.24,0,0,1-2.48-2.53,8.9,8.9,0,0,1,0-7.79,6.23,6.23,0,0,1,2.48-2.55,7.34,7.34,0,0,1,3.64-.88,7.18,7.18,0,0,1,3.63.88,6.09,6.09,0,0,1,2.37,2.37,6.66,6.66,0,0,1,.82,3.28A7,7,0,0,1,142.53,107Zm-2.81-3.79a3.81,3.81,0,0,0-1.64-1.59,5,5,0,0,0-2.26-.52,4.69,4.69,0,0,0-3.28,1.21,4.88,4.88,0,0,0-1.43,3.55h9.13A4.86,4.86,0,0,0,139.72,103.23Z"/><path class="cls-18" d="M163.69,100.75a6.41,6.41,0,0,1,1.53,4.62v8.29h-2.37v-8.09a4.56,4.56,0,0,0-1.09-3.28,3.9,3.9,0,0,0-3-1.14,4.05,4.05,0,0,0-3.12,1.26,5.23,5.23,0,0,0-1.17,3.68v7.57h-2.37V99.38h2.37v3.38a4.86,4.86,0,0,1,1.94-2.68,5.61,5.61,0,0,1,3.21-.94A5.33,5.33,0,0,1,163.69,100.75Z"/><path class="cls-18" d="M181.89,107H170.48a5,5,0,0,0,1.39,3.67,4.54,4.54,0,0,0,3.21,1.22A4.64,4.64,0,0,0,178,111a3.6,3.6,0,0,0,1.42-2.33h2.52a6,6,0,0,1-3.48,4.47,7.7,7.7,0,0,1-3.22.65,7.34,7.34,0,0,1-3.64-.88,6.24,6.24,0,0,1-2.48-2.53,8.9,8.9,0,0,1,0-7.79,6.23,6.23,0,0,1,2.48-2.55,7.34,7.34,0,0,1,3.64-.88,7.18,7.18,0,0,1,3.63.88,6.09,6.09,0,0,1,2.37,2.37,6.66,6.66,0,0,1,.82,3.28A7,7,0,0,1,181.89,107Zm-2.81-3.79a3.81,3.81,0,0,0-1.64-1.59,5,5,0,0,0-2.26-.52,4.69,4.69,0,0,0-3.28,1.21,4.88,4.88,0,0,0-1.43,3.55h9.13A4.86,4.86,0,0,0,179.09,103.23Z"/><path class="cls-18" d="M193.31,113.66l-3.72-5.46-3.35,5.46h-2.63l4.68-7.36-4.71-6.92h2.7l3.61,5.3,3.3-5.3h2.63l-4.65,7.18,4.84,7.1Z"/><path class="cls-18" d="M205,111.58v2.08h-1.77a4.54,4.54,0,0,1-3.26-1,4.69,4.69,0,0,1-1.08-3.48v-7.7h-2.13V99.38h2.13V95.82h2.39v3.56H205v2.05h-3.69v7.75a2.67,2.67,0,0,0,.51,1.88,2.44,2.44,0,0,0,1.75.51Z"/><path class="cls-18" d="M228.67,109.33a7.67,7.67,0,0,1-3.29,3.2,11.16,11.16,0,0,1-5.21,1.13h-5.82V95.33h5.82a11.38,11.38,0,0,1,5.21,1.1,7.52,7.52,0,0,1,3.29,3.17,11.13,11.13,0,0,1,0,9.72Zm-3.2.35a6.92,6.92,0,0,0,1.9-5.2,7,7,0,0,0-1.88-5.21,7.51,7.51,0,0,0-5.5-1.86h-3.28v14.12H220A7.55,7.55,0,0,0,225.47,109.68Z"/><path class="cls-18" d="M234.18,95.33l5.59,15.7,5.67-15.7H248l-6.73,18.33h-3l-6.71-18.33Z"/><path class="cls-18" d="M264.05,96.79a8.42,8.42,0,0,1,3,4.51h-2.5a6.12,6.12,0,0,0-2.26-2.9,6.56,6.56,0,0,0-3.82-1.08A5.88,5.88,0,0,0,253,100.7a8.36,8.36,0,0,0-.82,3.81,8.22,8.22,0,0,0,.82,3.77,5.9,5.9,0,0,0,5.45,3.35,6.56,6.56,0,0,0,3.82-1.08,6.11,6.11,0,0,0,2.26-2.9h2.5a8.41,8.41,0,0,1-3,4.51,8.92,8.92,0,0,1-5.54,1.65,8.68,8.68,0,0,1-4.55-1.18,8.15,8.15,0,0,1-3.08-3.3,10.27,10.27,0,0,1-1.1-4.82,10.41,10.41,0,0,1,1.1-4.86A8.14,8.14,0,0,1,254,96.33a8.69,8.69,0,0,1,4.55-1.18A8.93,8.93,0,0,1,264.05,96.79Z"/><path class="cls-18" d="M279,94.42v19.24h-2.37V94.42Z"/><path class="cls-18" d="M295.85,107H284.44a5,5,0,0,0,1.39,3.67,4.54,4.54,0,0,0,3.21,1.22,4.64,4.64,0,0,0,2.87-.87,3.6,3.6,0,0,0,1.42-2.33h2.52a6,6,0,0,1-3.48,4.47,7.7,7.7,0,0,1-3.22.65,7.34,7.34,0,0,1-3.64-.88,6.24,6.24,0,0,1-2.48-2.53,8.9,8.9,0,0,1,0-7.79,6.23,6.23,0,0,1,2.48-2.55,7.34,7.34,0,0,1,3.64-.88,7.18,7.18,0,0,1,3.63.88,6.09,6.09,0,0,1,2.37,2.37,6.66,6.66,0,0,1,.82,3.28A7,7,0,0,1,295.85,107ZM293,103.23a3.81,3.81,0,0,0-1.64-1.59,5,5,0,0,0-2.26-.52,4.69,4.69,0,0,0-3.28,1.21,4.88,4.88,0,0,0-1.43,3.55h9.13A4.86,4.86,0,0,0,293,103.23Z"/><path class="cls-18" d="M307.41,100.46a5.31,5.31,0,0,1,1.78,3.39h-2.26a3.28,3.28,0,0,0-1.05-2.09,3.43,3.43,0,0,0-2.41-.82,3,3,0,0,0-2,.61,2.06,2.06,0,0,0-.72,1.65,1.7,1.7,0,0,0,.48,1.26,3.09,3.09,0,0,0,1.2.73,20.08,20.08,0,0,0,2,.53,19.42,19.42,0,0,1,2.56.74,4,4,0,0,1,1.66,1.21,3.4,3.4,0,0,1,.69,2.24,3.52,3.52,0,0,1-1.31,2.83,5.3,5.3,0,0,1-3.5,1.09,6.69,6.69,0,0,1-4.16-1.22,4.87,4.87,0,0,1-1.9-3.41h2.29a3,3,0,0,0,1.13,2.11,4.08,4.08,0,0,0,2.64.8,2.74,2.74,0,0,0,1.91-.62,2.11,2.11,0,0,0,.69-1.64,1.79,1.79,0,0,0-.49-1.33,3.26,3.26,0,0,0-1.22-.75,18.25,18.25,0,0,0-2-.54,19.66,19.66,0,0,1-2.54-.73,3.88,3.88,0,0,1-1.61-1.16,3.24,3.24,0,0,1-.66-2.15,3.59,3.59,0,0,1,1.33-2.9,5.48,5.48,0,0,1,3.61-1.11A5.76,5.76,0,0,1,307.41,100.46Z"/><path class="cls-18" d="M320.85,100.46a5.31,5.31,0,0,1,1.78,3.39h-2.26a3.28,3.28,0,0,0-1.05-2.09,3.43,3.43,0,0,0-2.41-.82,3,3,0,0,0-2,.61,2.06,2.06,0,0,0-.72,1.65,1.7,1.7,0,0,0,.48,1.26,3.09,3.09,0,0,0,1.2.73,20.08,20.08,0,0,0,2,.53,19.42,19.42,0,0,1,2.56.74,4,4,0,0,1,1.66,1.21,3.4,3.4,0,0,1,.69,2.24,3.52,3.52,0,0,1-1.31,2.83,5.3,5.3,0,0,1-3.5,1.09,6.69,6.69,0,0,1-4.16-1.22,4.87,4.87,0,0,1-1.9-3.41h2.29a3,3,0,0,0,1.13,2.11,4.08,4.08,0,0,0,2.64.8,2.74,2.74,0,0,0,1.91-.62,2.11,2.11,0,0,0,.69-1.64,1.79,1.79,0,0,0-.49-1.33,3.26,3.26,0,0,0-1.22-.75,18.25,18.25,0,0,0-2-.54,19.66,19.66,0,0,1-2.54-.73,3.88,3.88,0,0,1-1.61-1.16,3.24,3.24,0,0,1-.66-2.15,3.59,3.59,0,0,1,1.33-2.9A5.48,5.48,0,0,1,317,99.2,5.76,5.76,0,0,1,320.85,100.46Z"/><path class="cls-18" d="M336.08,100.08a6.33,6.33,0,0,1,2.55,2.55,8.67,8.67,0,0,1,0,7.79,6.34,6.34,0,0,1-2.55,2.53,8.09,8.09,0,0,1-7.36,0,6.42,6.42,0,0,1-2.56-2.53,8.57,8.57,0,0,1,0-7.79,6.41,6.41,0,0,1,2.56-2.55,8.09,8.09,0,0,1,7.36,0Zm-6,1.77a4.3,4.3,0,0,0-1.74,1.76,6.72,6.72,0,0,0,0,5.82,4.3,4.3,0,0,0,1.74,1.75,5.12,5.12,0,0,0,4.71,0,4.3,4.3,0,0,0,1.74-1.75,6.72,6.72,0,0,0,0-5.82,4.31,4.31,0,0,0-1.74-1.76,5.12,5.12,0,0,0-4.71,0Z"/><path class="cls-18" d="M354.19,100.75a6.41,6.41,0,0,1,1.53,4.62v8.29h-2.37v-8.09a4.56,4.56,0,0,0-1.09-3.28,3.9,3.9,0,0,0-3-1.14,4.05,4.05,0,0,0-3.12,1.26,5.23,5.23,0,0,0-1.17,3.68v7.57h-2.37V99.38H345v3.38a4.86,4.86,0,0,1,1.94-2.68,5.61,5.61,0,0,1,3.21-.94A5.33,5.33,0,0,1,354.19,100.75Z"/><path class="cls-18" d="M367.73,100.46a5.31,5.31,0,0,1,1.78,3.39h-2.26a3.28,3.28,0,0,0-1.05-2.09,3.43,3.43,0,0,0-2.41-.82,3,3,0,0,0-2,.61,2.06,2.06,0,0,0-.72,1.65,1.7,1.7,0,0,0,.48,1.26,3.09,3.09,0,0,0,1.2.73,20.08,20.08,0,0,0,2,.53,19.42,19.42,0,0,1,2.56.74,4,4,0,0,1,1.66,1.21,3.4,3.4,0,0,1,.69,2.24,3.52,3.52,0,0,1-1.31,2.83,5.3,5.3,0,0,1-3.5,1.09,6.69,6.69,0,0,1-4.16-1.22,4.87,4.87,0,0,1-1.9-3.41h2.29a3,3,0,0,0,1.13,2.11,4.08,4.08,0,0,0,2.64.8,2.74,2.74,0,0,0,1.91-.62,2.11,2.11,0,0,0,.69-1.64,1.79,1.79,0,0,0-.49-1.33,3.26,3.26,0,0,0-1.22-.75,18.25,18.25,0,0,0-2-.54,19.66,19.66,0,0,1-2.54-.73,3.88,3.88,0,0,1-1.61-1.16,3.24,3.24,0,0,1-.66-2.15,3.59,3.59,0,0,1,1.33-2.9,5.48,5.48,0,0,1,3.61-1.11A5.76,5.76,0,0,1,367.73,100.46Z"/><path class="cls-18" d="M389.38,100.08a6.33,6.33,0,0,1,2.55,2.55,8.67,8.67,0,0,1,0,7.79,6.33,6.33,0,0,1-2.55,2.53,8.09,8.09,0,0,1-7.36,0,6.42,6.42,0,0,1-2.56-2.53,8.57,8.57,0,0,1,0-7.79,6.41,6.41,0,0,1,2.56-2.55,8.09,8.09,0,0,1,7.36,0Zm-6,1.77a4.3,4.3,0,0,0-1.74,1.76,6.72,6.72,0,0,0,0,5.82,4.3,4.3,0,0,0,1.74,1.75,5.12,5.12,0,0,0,4.7,0,4.28,4.28,0,0,0,1.74-1.75,6.72,6.72,0,0,0,0-5.82,4.29,4.29,0,0,0-1.74-1.76,5.12,5.12,0,0,0-4.7,0Z"/><path class="cls-18" d="M407.49,100.75a6.41,6.41,0,0,1,1.53,4.62v8.29h-2.37v-8.09a4.56,4.56,0,0,0-1.09-3.28,3.9,3.9,0,0,0-3-1.14,4.06,4.06,0,0,0-3.12,1.26,5.23,5.23,0,0,0-1.17,3.68v7.57h-2.37V99.38h2.37v3.38a4.86,4.86,0,0,1,1.94-2.68,5.61,5.61,0,0,1,3.21-.94A5.33,5.33,0,0,1,407.49,100.75Z"/><path class="cls-18" d="M86.81,126.53l-6,11.39v6.94H78.41v-6.94l-6-11.39h2.76l4.5,8.87,4.47-8.87Z"/><path class="cls-18" d="M99.36,131.28a6.32,6.32,0,0,1,2.55,2.55,8.67,8.67,0,0,1,0,7.79,6.35,6.35,0,0,1-2.55,2.54,8.1,8.1,0,0,1-7.36,0,6.44,6.44,0,0,1-2.56-2.54,8.57,8.57,0,0,1,0-7.79A6.41,6.41,0,0,1,92,131.28a8.1,8.1,0,0,1,7.36,0Zm-6,1.77a4.31,4.31,0,0,0-1.74,1.75,5.91,5.91,0,0,0-.66,2.93,5.85,5.85,0,0,0,.66,2.9,4.3,4.3,0,0,0,1.74,1.75,5.12,5.12,0,0,0,4.71,0,4.3,4.3,0,0,0,1.74-1.75,5.85,5.85,0,0,0,.66-2.9,5.91,5.91,0,0,0-.66-2.93A4.31,4.31,0,0,0,98,133.05a5.13,5.13,0,0,0-4.71,0Z"/><path class="cls-18" d="M118.61,130.58v14.27h-2.37V141.5a4.8,4.8,0,0,1-1.94,2.67,5.72,5.72,0,0,1-3.24.92,5.3,5.3,0,0,1-4-1.6,6.36,6.36,0,0,1-1.53-4.59v-8.32h2.37v8.09A4.61,4.61,0,0,0,109,142a3.88,3.88,0,0,0,3,1.16,4.05,4.05,0,0,0,3.12-1.26,5.23,5.23,0,0,0,1.17-3.68v-7.59Z"/><path class="cls-18" d="M133.64,126.53v1.92h-5.17v16.41H126.1V128.45h-5.17v-1.92Z"/><path class="cls-18" d="M148.67,130.58v14.27H146.3V141.5a4.8,4.8,0,0,1-1.94,2.67,5.72,5.72,0,0,1-3.24.92,5.3,5.3,0,0,1-4-1.6,6.36,6.36,0,0,1-1.53-4.59v-8.32H138v8.09A4.61,4.61,0,0,0,139,142a3.88,3.88,0,0,0,3,1.16,4.05,4.05,0,0,0,3.12-1.26,5.23,5.23,0,0,0,1.17-3.68v-7.59Z"/><path class="cls-18" d="M163.72,131.28a6.09,6.09,0,0,1,2.33,2.55,9.39,9.39,0,0,1,0,7.79,6.12,6.12,0,0,1-2.33,2.54,6.46,6.46,0,0,1-3.38.88,5.81,5.81,0,0,1-3.52-1.05,5.35,5.35,0,0,1-2-2.77v3.64h-2.37V125.62h2.37v8.61a5.34,5.34,0,0,1,2-2.77,5.81,5.81,0,0,1,3.52-1.05A6.47,6.47,0,0,1,163.72,131.28Zm-6.55,1.86a4.4,4.4,0,0,0-1.74,1.83,5.87,5.87,0,0,0-.62,2.76,5.79,5.79,0,0,0,.62,2.74,4.5,4.5,0,0,0,1.74,1.83,4.88,4.88,0,0,0,2.5.65,4.61,4.61,0,0,0,3.52-1.39,6.26,6.26,0,0,0,0-7.67,4.62,4.62,0,0,0-3.52-1.39A5,5,0,0,0,157.17,133.14Z"/><path class="cls-18" d="M183,138.23H171.6a5,5,0,0,0,1.39,3.67,4.54,4.54,0,0,0,3.21,1.22,4.64,4.64,0,0,0,2.87-.87,3.6,3.6,0,0,0,1.42-2.33H183a6,6,0,0,1-3.48,4.47,7.72,7.72,0,0,1-3.22.65,7.34,7.34,0,0,1-3.64-.88,6.25,6.25,0,0,1-2.48-2.54,8.9,8.9,0,0,1,0-7.79,6.22,6.22,0,0,1,2.48-2.55,7.35,7.35,0,0,1,3.64-.88,7.19,7.19,0,0,1,3.63.88,6.08,6.08,0,0,1,2.37,2.37,6.66,6.66,0,0,1,.82,3.28A7.06,7.06,0,0,1,183,138.23Zm-2.81-3.8a3.81,3.81,0,0,0-1.64-1.59,5,5,0,0,0-2.26-.52,4.68,4.68,0,0,0-3.28,1.21,4.87,4.87,0,0,0-1.43,3.55h9.13A4.86,4.86,0,0,0,180.2,134.43Z"/><path class="cls-18" d="M203.89,131.28a6.09,6.09,0,0,1,2.33,2.55,9.39,9.39,0,0,1,0,7.79,6.12,6.12,0,0,1-2.33,2.54,6.46,6.46,0,0,1-3.38.88A5.81,5.81,0,0,1,197,144a5.35,5.35,0,0,1-2-2.77v10.4h-2.37v-21H195v3.64a5.34,5.34,0,0,1,2-2.77,5.81,5.81,0,0,1,3.52-1.05A6.47,6.47,0,0,1,203.89,131.28Zm-6.55,1.86a4.4,4.4,0,0,0-1.74,1.83,5.87,5.87,0,0,0-.62,2.76,5.79,5.79,0,0,0,.62,2.74,4.5,4.5,0,0,0,1.74,1.83,4.88,4.88,0,0,0,2.5.65,4.61,4.61,0,0,0,3.52-1.39,6.26,6.26,0,0,0,0-7.67,4.62,4.62,0,0,0-3.52-1.39A5,5,0,0,0,197.34,133.14Z"/><path class="cls-18" d="M214.57,131.17a6.11,6.11,0,0,1,3.22-.82v2.57h-.73a5.05,5.05,0,0,0-3.28,1,4.11,4.11,0,0,0-1.27,3.39v7.51h-2.37V130.58h2.37v2.89A5.25,5.25,0,0,1,214.57,131.17Z"/><path class="cls-18" d="M230.29,131.28a6.32,6.32,0,0,1,2.55,2.55,8.67,8.67,0,0,1,0,7.79,6.35,6.35,0,0,1-2.55,2.54,8.1,8.1,0,0,1-7.36,0,6.44,6.44,0,0,1-2.56-2.54,8.57,8.57,0,0,1,0-7.79,6.41,6.41,0,0,1,2.56-2.55,8.1,8.1,0,0,1,7.36,0Zm-6,1.77a4.31,4.31,0,0,0-1.74,1.75,5.91,5.91,0,0,0-.66,2.93,5.85,5.85,0,0,0,.66,2.9,4.3,4.3,0,0,0,1.74,1.75,5.12,5.12,0,0,0,4.71,0,4.3,4.3,0,0,0,1.74-1.75,5.85,5.85,0,0,0,.66-2.9,5.91,5.91,0,0,0-.66-2.93,4.31,4.31,0,0,0-1.74-1.75,5.13,5.13,0,0,0-4.71,0Z"/><path class="cls-18" d="M258.42,131.95a6.44,6.44,0,0,1,1.52,4.62v8.29h-2.37v-8.09a4.6,4.6,0,0,0-1-3.22,3.64,3.64,0,0,0-2.82-1.12,3.88,3.88,0,0,0-3,1.24,5.2,5.2,0,0,0-1.13,3.63v7.57h-2.37v-8.09a4.56,4.56,0,0,0-1-3.22,3.65,3.65,0,0,0-2.81-1.12,3.91,3.91,0,0,0-3,1.24,5.2,5.2,0,0,0-1.13,3.63v7.57h-2.37V130.58h2.37v3.25a4.63,4.63,0,0,1,1.86-2.59,5.8,5.8,0,0,1,6.24,0,5,5,0,0,1,1.91,2.72,5.16,5.16,0,0,1,2-2.69,5.53,5.53,0,0,1,3.17-.95A5.29,5.29,0,0,1,258.42,131.95Z"/><path class="cls-18" d="M273.76,131.28a6.32,6.32,0,0,1,2.55,2.55,8.67,8.67,0,0,1,0,7.79,6.35,6.35,0,0,1-2.55,2.54,8.1,8.1,0,0,1-7.36,0,6.44,6.44,0,0,1-2.56-2.54,8.57,8.57,0,0,1,0-7.79,6.41,6.41,0,0,1,2.56-2.55,8.1,8.1,0,0,1,7.36,0Zm-6,1.77a4.31,4.31,0,0,0-1.74,1.75,5.91,5.91,0,0,0-.66,2.93,5.85,5.85,0,0,0,.66,2.9,4.3,4.3,0,0,0,1.74,1.75,5.12,5.12,0,0,0,4.71,0,4.3,4.3,0,0,0,1.74-1.75,5.85,5.85,0,0,0,.66-2.9,5.91,5.91,0,0,0-.66-2.93,4.31,4.31,0,0,0-1.74-1.75,5.13,5.13,0,0,0-4.71,0Z"/><path class="cls-18" d="M287.14,142.78v2.08h-1.77a4.54,4.54,0,0,1-3.26-1,4.7,4.7,0,0,1-1.08-3.48v-7.7H278.9v-2.05H281V127h2.39v3.56h3.69v2.05h-3.69v7.75a2.67,2.67,0,0,0,.51,1.89,2.44,2.44,0,0,0,1.75.51Z"/><path class="cls-18" d="M290.05,125.34a1.9,1.9,0,0,1,2.34,0,1.48,1.48,0,0,1,0,2.11,1.9,1.9,0,0,1-2.34,0,1.48,1.48,0,0,1,0-2.11Zm2.34,5.24v14.27H290V130.58Z"/><path class="cls-18" d="M306.34,131.28a6.32,6.32,0,0,1,2.55,2.55,8.67,8.67,0,0,1,0,7.79,6.35,6.35,0,0,1-2.55,2.54,8.1,8.1,0,0,1-7.36,0,6.44,6.44,0,0,1-2.56-2.54,8.57,8.57,0,0,1,0-7.79,6.41,6.41,0,0,1,2.56-2.55,8.1,8.1,0,0,1,7.36,0Zm-6,1.77a4.31,4.31,0,0,0-1.74,1.75,5.91,5.91,0,0,0-.66,2.93,5.85,5.85,0,0,0,.66,2.9,4.3,4.3,0,0,0,1.74,1.75,5.12,5.12,0,0,0,4.71,0,4.3,4.3,0,0,0,1.74-1.75,5.85,5.85,0,0,0,.66-2.9,5.91,5.91,0,0,0-.66-2.93,4.31,4.31,0,0,0-1.74-1.75,5.13,5.13,0,0,0-4.71,0Z"/><path class="cls-18" d="M324.45,131.95a6.41,6.41,0,0,1,1.53,4.62v8.29h-2.37v-8.09a4.56,4.56,0,0,0-1.09-3.28,3.9,3.9,0,0,0-3-1.14,4.05,4.05,0,0,0-3.12,1.26,5.22,5.22,0,0,0-1.17,3.68v7.57h-2.37V130.58h2.37V134a4.86,4.86,0,0,1,1.94-2.68,5.61,5.61,0,0,1,3.21-.94A5.33,5.33,0,0,1,324.45,131.95Z"/><path class="cls-18" d="M331.37,145.25a3.3,3.3,0,0,1-.68,2.17,2.48,2.48,0,0,1-2,.82v-1a1.18,1.18,0,0,0,.95-.35,1.69,1.69,0,0,0,.3-1.11v-.23h-1.33v-2.42H331A7.07,7.07,0,0,1,331.37,145.25Z"/><path class="cls-18" d="M360.2,130.58l-4.11,14.27h-2.55l-3.93-11.62-4,11.62h-2.57L339,130.58h2.39l3,12,4-12h2.47l4,12,3.07-12Z"/><path class="cls-18" d="M375.43,138.23H364a5,5,0,0,0,1.39,3.67,4.54,4.54,0,0,0,3.21,1.22,4.64,4.64,0,0,0,2.87-.87,3.6,3.6,0,0,0,1.42-2.33h2.52a6,6,0,0,1-3.48,4.47,7.72,7.72,0,0,1-3.22.65,7.34,7.34,0,0,1-3.64-.88,6.25,6.25,0,0,1-2.48-2.54,8.9,8.9,0,0,1,0-7.79,6.22,6.22,0,0,1,2.48-2.55,7.35,7.35,0,0,1,3.64-.88,7.19,7.19,0,0,1,3.63.88,6.08,6.08,0,0,1,2.37,2.37,6.66,6.66,0,0,1,.82,3.28A7.06,7.06,0,0,1,375.43,138.23Zm-2.81-3.8a3.81,3.81,0,0,0-1.64-1.59,5,5,0,0,0-2.26-.52,4.68,4.68,0,0,0-3.28,1.21,4.87,4.87,0,0,0-1.43,3.55h9.13A4.86,4.86,0,0,0,372.63,134.43Z"/><path class="cls-18" d="M380.09,124.13l-.31,5.17h-1.64l-.31-5.17Z"/><path class="cls-18" d="M385.44,125.62v19.24h-2.37V125.62Z"/><path class="cls-18" d="M391.6,125.62v19.24h-2.37V125.62Z"/><path class="cls-18" d="M80.6,174v2.08H78.83a4.54,4.54,0,0,1-3.26-1,4.7,4.7,0,0,1-1.08-3.48v-7.7H72.36v-2.05h2.13v-3.56h2.39v3.56h3.69v2.05H76.88v7.75a2.67,2.67,0,0,0,.51,1.88,2.44,2.44,0,0,0,1.75.51Z"/><path class="cls-18" d="M92.86,162.64a5.43,5.43,0,0,1,2,2.78v-3.64h2.37v14.27H94.87v-3.64a5.42,5.42,0,0,1-2,2.78,5.87,5.87,0,0,1-3.52,1,6.46,6.46,0,0,1-3.38-.88,6.1,6.1,0,0,1-2.33-2.54,8.42,8.42,0,0,1-.85-3.89,8.51,8.51,0,0,1,.85-3.9A6.09,6.09,0,0,1,86,162.48a6.46,6.46,0,0,1,3.38-.88A5.87,5.87,0,0,1,92.86,162.64Zm-6.34,2.46a6.26,6.26,0,0,0,0,7.67,4.58,4.58,0,0,0,3.5,1.39,4.85,4.85,0,0,0,2.51-.65,4.53,4.53,0,0,0,1.73-1.83,5.79,5.79,0,0,0,.62-2.74,5.87,5.87,0,0,0-.62-2.76,4.42,4.42,0,0,0-1.73-1.83,4.93,4.93,0,0,0-2.51-.64A4.59,4.59,0,0,0,86.51,165.1Z"/><path class="cls-18" d="M103.37,156.82v19.24H101V156.82Z"/><path class="cls-18" d="M115,176.06l-5.46-6.42v6.42h-2.37V156.82h2.37V168l5.38-6.21h2.89l-6.4,7.1,6.55,7.18Z"/><path class="cls-18" d="M135.84,162.64a5.43,5.43,0,0,1,2,2.78v-3.64h2.37v14.27h-2.37v-3.64a5.42,5.42,0,0,1-2,2.78,5.87,5.87,0,0,1-3.52,1,6.46,6.46,0,0,1-3.38-.88,6.1,6.1,0,0,1-2.33-2.54,8.42,8.42,0,0,1-.85-3.89,8.51,8.51,0,0,1,.85-3.9,6.09,6.09,0,0,1,2.33-2.55,6.46,6.46,0,0,1,3.38-.88A5.87,5.87,0,0,1,135.84,162.64Zm-6.34,2.46a6.26,6.26,0,0,0,0,7.67,4.58,4.58,0,0,0,3.5,1.39,4.85,4.85,0,0,0,2.51-.65,4.53,4.53,0,0,0,1.73-1.83,5.79,5.79,0,0,0,.62-2.74,5.87,5.87,0,0,0-.62-2.76,4.42,4.42,0,0,0-1.73-1.83,4.93,4.93,0,0,0-2.51-.64A4.59,4.59,0,0,0,129.49,165.1Z"/><path class="cls-18" d="M155.24,162.48a6.09,6.09,0,0,1,2.33,2.55,8.52,8.52,0,0,1,.85,3.9,8.43,8.43,0,0,1-.85,3.89,6.11,6.11,0,0,1-2.33,2.54,6.47,6.47,0,0,1-3.38.88,5.81,5.81,0,0,1-3.52-1.05,5.35,5.35,0,0,1-2-2.77v3.64H144V156.82h2.37v8.61a5.35,5.35,0,0,1,2-2.77,5.82,5.82,0,0,1,3.52-1.05A6.47,6.47,0,0,1,155.24,162.48Zm-6.55,1.86a4.4,4.4,0,0,0-1.74,1.83,5.87,5.87,0,0,0-.62,2.76,5.79,5.79,0,0,0,.62,2.74,4.5,4.5,0,0,0,1.74,1.83,4.87,4.87,0,0,0,2.5.65,4.61,4.61,0,0,0,3.52-1.39,6.26,6.26,0,0,0,0-7.67,4.62,4.62,0,0,0-3.52-1.39A5,5,0,0,0,148.69,164.34Z"/><path class="cls-18" d="M171.66,162.48a6.32,6.32,0,0,1,2.55,2.55,7.92,7.92,0,0,1,.92,3.9,7.84,7.84,0,0,1-.92,3.89,6.34,6.34,0,0,1-2.55,2.54,8.09,8.09,0,0,1-7.36,0,6.42,6.42,0,0,1-2.56-2.54,7.75,7.75,0,0,1-.94-3.89,7.83,7.83,0,0,1,.94-3.9,6.4,6.4,0,0,1,2.56-2.55,8.09,8.09,0,0,1,7.36,0Zm-6,1.77a4.3,4.3,0,0,0-1.74,1.75,5.91,5.91,0,0,0-.66,2.92,5.85,5.85,0,0,0,.66,2.9,4.3,4.3,0,0,0,1.74,1.76,5.12,5.12,0,0,0,4.71,0,4.3,4.3,0,0,0,1.74-1.76,5.84,5.84,0,0,0,.66-2.9,5.91,5.91,0,0,0-.66-2.92,4.3,4.3,0,0,0-1.74-1.75,5.12,5.12,0,0,0-4.71,0Z"/><path class="cls-18" d="M190.92,161.78v14.27h-2.37V172.7a4.8,4.8,0,0,1-1.94,2.67,5.72,5.72,0,0,1-3.24.92,5.29,5.29,0,0,1-4-1.6,6.37,6.37,0,0,1-1.53-4.59v-8.32h2.37v8.09a4.61,4.61,0,0,0,1.09,3.29,3.88,3.88,0,0,0,3,1.16,4.05,4.05,0,0,0,3.12-1.26,5.22,5.22,0,0,0,1.17-3.68v-7.59Z"/><path class="cls-18" d="M201.52,174v2.08h-1.77a4.54,4.54,0,0,1-3.26-1,4.7,4.7,0,0,1-1.08-3.48v-7.7h-2.13v-2.05h2.13v-3.56h2.39v3.56h3.69v2.05h-3.69v7.75a2.67,2.67,0,0,0,.51,1.88,2.44,2.44,0,0,0,1.75.51Z"/><path class="cls-18" d="M222.38,163.15a6.41,6.41,0,0,1,1.53,4.62v8.29h-2.37V168a4.56,4.56,0,0,0-1.09-3.28,3.91,3.91,0,0,0-3-1.14,4.05,4.05,0,0,0-3.12,1.26,5.22,5.22,0,0,0-1.17,3.68v7.57h-2.37V156.82h2.37v8.35a4.85,4.85,0,0,1,1.94-2.68,5.61,5.61,0,0,1,3.21-.94A5.33,5.33,0,0,1,222.38,163.15Z"/><path class="cls-18" d="M237.7,162.48a6.32,6.32,0,0,1,2.55,2.55,7.92,7.92,0,0,1,.92,3.9,7.84,7.84,0,0,1-.92,3.89,6.34,6.34,0,0,1-2.55,2.54,8.09,8.09,0,0,1-7.36,0,6.42,6.42,0,0,1-2.56-2.54,7.75,7.75,0,0,1-.94-3.89,7.83,7.83,0,0,1,.94-3.9,6.4,6.4,0,0,1,2.56-2.55,8.09,8.09,0,0,1,7.36,0Zm-6,1.77a4.3,4.3,0,0,0-1.74,1.75,5.91,5.91,0,0,0-.66,2.92,5.85,5.85,0,0,0,.66,2.9,4.3,4.3,0,0,0,1.74,1.76,5.12,5.12,0,0,0,4.71,0,4.3,4.3,0,0,0,1.74-1.76,5.84,5.84,0,0,0,.66-2.9,5.91,5.91,0,0,0-.66-2.92,4.3,4.3,0,0,0-1.74-1.75,5.12,5.12,0,0,0-4.71,0Z"/><path class="cls-18" d="M263.87,161.78l-4.11,14.27h-2.55l-3.93-11.62-4,11.62h-2.57l-4.06-14.27h2.39l3,12,4-12h2.47l4,12,3.07-12Z"/><path class="cls-18" d="M279.31,174v2.08h-1.77a4.54,4.54,0,0,1-3.26-1,4.7,4.7,0,0,1-1.08-3.48v-7.7h-2.13v-2.05h2.13v-3.56h2.39v3.56h3.69v2.05H275.6v7.75a2.67,2.67,0,0,0,.51,1.88,2.44,2.44,0,0,0,1.75.51Z"/><path class="cls-18" d="M292.35,162.48A6.32,6.32,0,0,1,294.9,165a7.92,7.92,0,0,1,.92,3.9,7.84,7.84,0,0,1-.92,3.89,6.34,6.34,0,0,1-2.55,2.54,8.09,8.09,0,0,1-7.36,0,6.42,6.42,0,0,1-2.56-2.54,7.75,7.75,0,0,1-.94-3.89,7.83,7.83,0,0,1,.94-3.9,6.4,6.4,0,0,1,2.56-2.55,8.09,8.09,0,0,1,7.36,0Zm-6,1.77a4.3,4.3,0,0,0-1.74,1.75,5.91,5.91,0,0,0-.66,2.92,5.85,5.85,0,0,0,.66,2.9,4.3,4.3,0,0,0,1.74,1.76,5.12,5.12,0,0,0,4.71,0,4.3,4.3,0,0,0,1.74-1.76,5.84,5.84,0,0,0,.66-2.9,5.91,5.91,0,0,0-.66-2.92,4.3,4.3,0,0,0-1.74-1.75,5.12,5.12,0,0,0-4.71,0Z"/><path class="cls-18" d="M326.91,163.15a6.44,6.44,0,0,1,1.52,4.62v8.29h-2.37V168a4.6,4.6,0,0,0-1-3.22,3.64,3.64,0,0,0-2.82-1.12,3.87,3.87,0,0,0-3,1.24,5.19,5.19,0,0,0-1.13,3.63v7.57h-2.37V168a4.56,4.56,0,0,0-1-3.22,3.65,3.65,0,0,0-2.81-1.12,3.91,3.91,0,0,0-3,1.24,5.19,5.19,0,0,0-1.13,3.63v7.57h-2.37V161.78h2.37V165a4.63,4.63,0,0,1,1.86-2.59,5.8,5.8,0,0,1,6.24,0,5,5,0,0,1,1.91,2.72,5.16,5.16,0,0,1,2-2.69,5.54,5.54,0,0,1,3.17-.95A5.28,5.28,0,0,1,326.91,163.15Z"/><path class="cls-18" d="M341.47,162.64a5.43,5.43,0,0,1,2,2.78v-3.64h2.37v14.27h-2.37v-3.64a5.42,5.42,0,0,1-2,2.78,5.87,5.87,0,0,1-3.52,1,6.46,6.46,0,0,1-3.38-.88,6.1,6.1,0,0,1-2.33-2.54,8.42,8.42,0,0,1-.85-3.89,8.51,8.51,0,0,1,.85-3.9,6.09,6.09,0,0,1,2.33-2.55,6.46,6.46,0,0,1,3.38-.88A5.87,5.87,0,0,1,341.47,162.64Zm-6.34,2.46a6.26,6.26,0,0,0,0,7.67,4.58,4.58,0,0,0,3.5,1.39,4.85,4.85,0,0,0,2.51-.65,4.53,4.53,0,0,0,1.73-1.83,5.79,5.79,0,0,0,.62-2.74,5.87,5.87,0,0,0-.62-2.76,4.42,4.42,0,0,0-1.73-1.83,4.93,4.93,0,0,0-2.51-.64A4.59,4.59,0,0,0,335.12,165.1Z"/><path class="cls-18" d="M361.16,163.15a6.41,6.41,0,0,1,1.53,4.62v8.29h-2.37V168a4.56,4.56,0,0,0-1.09-3.28,3.91,3.91,0,0,0-3-1.14,4.05,4.05,0,0,0-3.12,1.26,5.22,5.22,0,0,0-1.17,3.68v7.57h-2.37V161.78H352v3.38a4.85,4.85,0,0,1,1.94-2.68,5.61,5.61,0,0,1,3.21-.94A5.33,5.33,0,0,1,361.16,163.15Z"/><path class="cls-18" d="M375.71,162.64a5.43,5.43,0,0,1,2,2.78v-3.64h2.37v14.27h-2.37v-3.64a5.42,5.42,0,0,1-2,2.78,5.87,5.87,0,0,1-3.52,1,6.46,6.46,0,0,1-3.38-.88,6.1,6.1,0,0,1-2.33-2.54,8.42,8.42,0,0,1-.85-3.89,8.51,8.51,0,0,1,.85-3.9,6.09,6.09,0,0,1,2.33-2.55,6.46,6.46,0,0,1,3.38-.88A5.87,5.87,0,0,1,375.71,162.64Zm-6.34,2.46a6.26,6.26,0,0,0,0,7.67,4.58,4.58,0,0,0,3.5,1.39,4.85,4.85,0,0,0,2.51-.65,4.53,4.53,0,0,0,1.73-1.83,5.79,5.79,0,0,0,.62-2.74,5.87,5.87,0,0,0-.62-2.76,4.42,4.42,0,0,0-1.73-1.83,4.93,4.93,0,0,0-2.51-.64A4.59,4.59,0,0,0,369.36,165.1Z"/><path class="cls-18" d="M393.23,162.64a5.43,5.43,0,0,1,2,2.78v-3.64h2.37v14.51a7.24,7.24,0,0,1-.83,3.51,6,6,0,0,1-2.34,2.39,7,7,0,0,1-3.51.86,7.54,7.54,0,0,1-4.71-1.39,6.14,6.14,0,0,1-2.31-3.76h2.34a4.05,4.05,0,0,0,1.57,2.25,5,5,0,0,0,3,.82,4.37,4.37,0,0,0,3.19-1.24,4.61,4.61,0,0,0,1.26-3.45v-3.87a5.42,5.42,0,0,1-2,2.78,5.87,5.87,0,0,1-3.52,1,6.46,6.46,0,0,1-3.38-.88,6.1,6.1,0,0,1-2.33-2.54,8.42,8.42,0,0,1-.85-3.89A8.51,8.51,0,0,1,384,165a6.08,6.08,0,0,1,2.33-2.55,6.46,6.46,0,0,1,3.38-.88A5.87,5.87,0,0,1,393.23,162.64Zm-6.34,2.46a6.26,6.26,0,0,0,0,7.67,4.58,4.58,0,0,0,3.5,1.39,4.85,4.85,0,0,0,2.51-.65,4.53,4.53,0,0,0,1.73-1.83,5.79,5.79,0,0,0,.63-2.74,5.87,5.87,0,0,0-.62-2.76,4.42,4.42,0,0,0-1.73-1.83,4.93,4.93,0,0,0-2.51-.64A4.58,4.58,0,0,0,386.89,165.1Z"/><path class="cls-18" d="M414.41,169.43H403a5,5,0,0,0,1.39,3.67,4.54,4.54,0,0,0,3.21,1.22,4.65,4.65,0,0,0,2.87-.87,3.61,3.61,0,0,0,1.42-2.33h2.52a6,6,0,0,1-3.48,4.47,7.71,7.71,0,0,1-3.22.65,7.34,7.34,0,0,1-3.64-.88,6.24,6.24,0,0,1-2.48-2.54,8,8,0,0,1-.9-3.89,8.1,8.1,0,0,1,.9-3.9,6.22,6.22,0,0,1,2.48-2.55,7.34,7.34,0,0,1,3.64-.88,7.18,7.18,0,0,1,3.63.88,6.08,6.08,0,0,1,2.37,2.37,6.66,6.66,0,0,1,.82,3.28A7,7,0,0,1,414.41,169.43Zm-2.81-3.8A3.81,3.81,0,0,0,410,164a5,5,0,0,0-2.26-.52,4.68,4.68,0,0,0-3.28,1.21,4.87,4.87,0,0,0-1.43,3.55h9.13A4.85,4.85,0,0,0,411.6,165.63Z"/><path class="cls-18" d="M83.16,193.84a5.43,5.43,0,0,1,2,2.78V193h2.37v14.27H85.17v-3.64a5.42,5.42,0,0,1-2,2.78,5.86,5.86,0,0,1-3.52,1,6.46,6.46,0,0,1-3.38-.88A6.11,6.11,0,0,1,73.93,204a9.39,9.39,0,0,1,0-7.79,6.1,6.1,0,0,1,2.33-2.55,6.47,6.47,0,0,1,3.38-.88A5.86,5.86,0,0,1,83.16,193.84Zm-6.34,2.46a6.26,6.26,0,0,0,0,7.67,4.58,4.58,0,0,0,3.5,1.39,4.86,4.86,0,0,0,2.51-.65,4.52,4.52,0,0,0,1.73-1.83,5.8,5.8,0,0,0,.62-2.74,5.87,5.87,0,0,0-.62-2.76,4.42,4.42,0,0,0-1.73-1.83,4.93,4.93,0,0,0-2.51-.64A4.58,4.58,0,0,0,76.82,196.3Z"/><path class="cls-18" d="M108.57,194.26a6.17,6.17,0,0,1,2.21,3.9h-2.5a3.65,3.65,0,0,0-1.42-2.41,5,5,0,0,0-5.15-.3,4.17,4.17,0,0,0-1.65,1.76,7.17,7.17,0,0,0,0,5.85,4.16,4.16,0,0,0,1.65,1.76,5,5,0,0,0,5.15-.31,3.7,3.7,0,0,0,1.42-2.42h2.5a6.13,6.13,0,0,1-2.21,3.91,7,7,0,0,1-4.52,1.44,7.34,7.34,0,0,1-3.64-.88A6.25,6.25,0,0,1,97.93,204a8.9,8.9,0,0,1,0-7.79,6.23,6.23,0,0,1,2.48-2.55,7.35,7.35,0,0,1,3.64-.88A7,7,0,0,1,108.57,194.26Z"/><path class="cls-18" d="M125.42,194.35A6.41,6.41,0,0,1,127,199v8.29h-2.37v-8.09a4.56,4.56,0,0,0-1.09-3.28,3.9,3.9,0,0,0-3-1.14,4.05,4.05,0,0,0-3.12,1.26,5.22,5.22,0,0,0-1.17,3.68v7.57h-2.37V188h2.37v8.35a4.86,4.86,0,0,1,1.94-2.68,5.62,5.62,0,0,1,3.21-.94A5.33,5.33,0,0,1,125.42,194.35Z"/><path class="cls-18" d="M140,193.84a5.43,5.43,0,0,1,2,2.78V193h2.37v14.27H142v-3.64a5.42,5.42,0,0,1-2,2.78,5.86,5.86,0,0,1-3.52,1,6.46,6.46,0,0,1-3.38-.88,6.11,6.11,0,0,1-2.33-2.53,9.39,9.39,0,0,1,0-7.79,6.1,6.1,0,0,1,2.33-2.55,6.47,6.47,0,0,1,3.38-.88A5.86,5.86,0,0,1,140,193.84Zm-6.34,2.46a6.26,6.26,0,0,0,0,7.67,4.58,4.58,0,0,0,3.5,1.39,4.86,4.86,0,0,0,2.51-.65,4.52,4.52,0,0,0,1.73-1.83,5.8,5.8,0,0,0,.62-2.74,5.87,5.87,0,0,0-.62-2.76,4.42,4.42,0,0,0-1.73-1.83,4.93,4.93,0,0,0-2.51-.64A4.58,4.58,0,0,0,133.62,196.3Z"/><path class="cls-18" d="M159.66,194.35A6.41,6.41,0,0,1,161.2,199v8.29h-2.37v-8.09a4.56,4.56,0,0,0-1.09-3.28,3.9,3.9,0,0,0-3-1.14,4.05,4.05,0,0,0-3.12,1.26,5.22,5.22,0,0,0-1.17,3.68v7.57h-2.37V193h2.37v3.38a4.86,4.86,0,0,1,1.94-2.68,5.62,5.62,0,0,1,3.21-.94A5.33,5.33,0,0,1,159.66,194.35Z"/><path class="cls-18" d="M176.38,194.35a6.41,6.41,0,0,1,1.53,4.62v8.29h-2.37v-8.09a4.56,4.56,0,0,0-1.09-3.28,3.9,3.9,0,0,0-3-1.14,4.05,4.05,0,0,0-3.12,1.26,5.22,5.22,0,0,0-1.17,3.68v7.57h-2.37V193h2.37v3.38a4.86,4.86,0,0,1,1.94-2.68,5.62,5.62,0,0,1,3.21-.94A5.33,5.33,0,0,1,176.38,194.35Z"/><path class="cls-18" d="M194.58,200.63H183.17a5,5,0,0,0,1.39,3.67,4.53,4.53,0,0,0,3.21,1.22,4.64,4.64,0,0,0,2.87-.87,3.6,3.6,0,0,0,1.42-2.33h2.52a6,6,0,0,1-3.48,4.47,7.72,7.72,0,0,1-3.22.65,7.34,7.34,0,0,1-3.64-.88,6.25,6.25,0,0,1-2.48-2.53,8.9,8.9,0,0,1,0-7.79,6.23,6.23,0,0,1,2.48-2.55,7.35,7.35,0,0,1,3.64-.88,7.19,7.19,0,0,1,3.63.88,6.1,6.1,0,0,1,2.37,2.37,6.66,6.66,0,0,1,.82,3.28A7.05,7.05,0,0,1,194.58,200.63Zm-2.81-3.8a3.8,3.8,0,0,0-1.64-1.59,5,5,0,0,0-2.26-.52,4.68,4.68,0,0,0-3.28,1.21,4.87,4.87,0,0,0-1.43,3.55h9.13A4.86,4.86,0,0,0,191.77,196.83Z"/><path class="cls-18" d="M200.14,188v19.24h-2.37V188Z"/><path class="cls-18" d="M217.17,205.18v2.08h-1.77a4.54,4.54,0,0,1-3.26-1,4.69,4.69,0,0,1-1.08-3.48V195h-2.13V193h2.13v-3.56h2.39V193h3.69V195h-3.69v7.75a2.67,2.67,0,0,0,.51,1.89,2.44,2.44,0,0,0,1.75.51Z"/><path class="cls-18" d="M230.21,193.68a6.33,6.33,0,0,1,2.55,2.55,8.67,8.67,0,0,1,0,7.79,6.35,6.35,0,0,1-2.55,2.53,8.1,8.1,0,0,1-7.36,0,6.43,6.43,0,0,1-2.56-2.53,8.57,8.57,0,0,1,0-7.79,6.41,6.41,0,0,1,2.56-2.55,8.1,8.1,0,0,1,7.36,0Zm-6,1.77a4.31,4.31,0,0,0-1.74,1.76,6.73,6.73,0,0,0,0,5.82,4.29,4.29,0,0,0,1.74,1.75,5.12,5.12,0,0,0,4.71,0,4.29,4.29,0,0,0,1.74-1.75,6.73,6.73,0,0,0,0-5.82,4.31,4.31,0,0,0-1.74-1.76,5.13,5.13,0,0,0-4.71,0Z"/><path class="cls-18" d="M252.57,193.8a5.37,5.37,0,0,1,2,2.56V193H257v21h-2.37V203.77a5.71,5.71,0,0,1-2,2.68,5.61,5.61,0,0,1-3.34,1,6.67,6.67,0,0,1-3.43-.9,6.26,6.26,0,0,1-2.41-2.55,8.88,8.88,0,0,1,0-7.67,6.36,6.36,0,0,1,2.41-2.56,6.6,6.6,0,0,1,3.43-.91A5.83,5.83,0,0,1,252.57,193.8Zm-6.32,2.5a5.34,5.34,0,0,0-1.34,3.86,5.27,5.27,0,0,0,1.33,3.83,4.64,4.64,0,0,0,3.48,1.37,4.82,4.82,0,0,0,2.46-.64,4.61,4.61,0,0,0,1.76-1.82,6.22,6.22,0,0,0,0-5.54,4.61,4.61,0,0,0-1.76-1.82,4.83,4.83,0,0,0-2.46-.64A4.6,4.6,0,0,0,246.26,196.3Z"/><path class="cls-18" d="M273.41,193v14.27H271V203.9a4.8,4.8,0,0,1-1.94,2.66,5.72,5.72,0,0,1-3.24.92,5.3,5.3,0,0,1-4-1.6,6.37,6.37,0,0,1-1.53-4.59V193h2.37v8.09a4.61,4.61,0,0,0,1.09,3.29,3.88,3.88,0,0,0,3,1.16,4.05,4.05,0,0,0,3.12-1.26,5.22,5.22,0,0,0,1.17-3.68V193Z"/><path class="cls-18" d="M277.23,187.74a1.9,1.9,0,0,1,2.34,0,1.48,1.48,0,0,1,0,2.11,1.9,1.9,0,0,1-2.34,0,1.48,1.48,0,0,1,0-2.11Zm2.34,5.24v14.27h-2.37V193Z"/><path class="cls-18" d="M294.21,194.26a6.17,6.17,0,0,1,2.21,3.9h-2.5a3.65,3.65,0,0,0-1.42-2.41,5,5,0,0,0-5.15-.3,4.17,4.17,0,0,0-1.65,1.76,7.17,7.17,0,0,0,0,5.85,4.16,4.16,0,0,0,1.65,1.76,5,5,0,0,0,5.15-.31,3.7,3.7,0,0,0,1.42-2.42h2.5a6.13,6.13,0,0,1-2.21,3.91,7,7,0,0,1-4.52,1.44,7.34,7.34,0,0,1-3.64-.88,6.25,6.25,0,0,1-2.48-2.53,8.9,8.9,0,0,1,0-7.79,6.23,6.23,0,0,1,2.48-2.55,7.35,7.35,0,0,1,3.64-.88A7,7,0,0,1,294.21,194.26Z"/><path class="cls-18" d="M307.34,207.26l-5.46-6.42v6.42h-2.37V188h2.37V199.2l5.38-6.21h2.89l-6.4,7.1,6.55,7.18Z"/><path class="cls-18" d="M314.75,188v19.24h-2.37V188Z"/><path class="cls-18" d="M319.54,193l4.63,11.23L328.45,193h2.63l-8.48,21h-2.68l3-7-6-14Z"/><path class="cls-18" d="M349,193.84a5.43,5.43,0,0,1,2,2.78V193h2.37v14.51a7.25,7.25,0,0,1-.83,3.51,6,6,0,0,1-2.34,2.39,7,7,0,0,1-3.51.86,7.53,7.53,0,0,1-4.71-1.39,6.14,6.14,0,0,1-2.31-3.76h2.34a4.06,4.06,0,0,0,1.57,2.25,5,5,0,0,0,3,.82,4.37,4.37,0,0,0,3.19-1.23,4.6,4.6,0,0,0,1.26-3.45v-3.87a5.42,5.42,0,0,1-2,2.78,5.86,5.86,0,0,1-3.52,1,6.46,6.46,0,0,1-3.38-.88A6.11,6.11,0,0,1,339.8,204a9.39,9.39,0,0,1,0-7.79,6.1,6.1,0,0,1,2.33-2.55,6.47,6.47,0,0,1,3.38-.88A5.86,5.86,0,0,1,349,193.84Zm-6.34,2.46a6.26,6.26,0,0,0,0,7.67,4.58,4.58,0,0,0,3.5,1.39,4.86,4.86,0,0,0,2.51-.65,4.52,4.52,0,0,0,1.73-1.83,5.8,5.8,0,0,0,.62-2.74,5.87,5.87,0,0,0-.62-2.76,4.42,4.42,0,0,0-1.73-1.83,4.93,4.93,0,0,0-2.51-.64A4.58,4.58,0,0,0,342.69,196.3Z"/><path class="cls-18" d="M370.21,200.63H358.79a5,5,0,0,0,1.39,3.67,4.53,4.53,0,0,0,3.21,1.22,4.64,4.64,0,0,0,2.87-.87,3.6,3.6,0,0,0,1.42-2.33h2.52a6,6,0,0,1-3.48,4.47,7.72,7.72,0,0,1-3.22.65,7.34,7.34,0,0,1-3.64-.88,6.25,6.25,0,0,1-2.48-2.53,8.9,8.9,0,0,1,0-7.79,6.23,6.23,0,0,1,2.48-2.55,7.35,7.35,0,0,1,3.64-.88,7.19,7.19,0,0,1,3.63.88,6.1,6.1,0,0,1,2.37,2.37,6.66,6.66,0,0,1,.82,3.28A7.05,7.05,0,0,1,370.21,200.63Zm-2.81-3.8a3.8,3.8,0,0,0-1.64-1.59,5,5,0,0,0-2.26-.52,4.68,4.68,0,0,0-3.28,1.21,4.87,4.87,0,0,0-1.43,3.55h9.13A4.86,4.86,0,0,0,367.4,196.83Z"/><path class="cls-18" d="M380.22,205.18v2.08h-1.77a4.54,4.54,0,0,1-3.26-1,4.69,4.69,0,0,1-1.08-3.48V195H372V193h2.13v-3.56h2.39V193h3.69V195H376.5v7.75a2.67,2.67,0,0,0,.51,1.89,2.44,2.44,0,0,0,1.75.51Z"/><path class="cls-18" d="M389.55,187.74a1.9,1.9,0,0,1,2.34,0,1.47,1.47,0,0,1,0,2.11,1.9,1.9,0,0,1-2.34,0,1.48,1.48,0,0,1,0-2.11Zm2.34,5.24v14.27h-2.37V193Z"/><path class="cls-18" d="M407.23,194.35a6.41,6.41,0,0,1,1.53,4.62v8.29H406.4v-8.09a4.56,4.56,0,0,0-1.09-3.28,3.9,3.9,0,0,0-3-1.14,4.05,4.05,0,0,0-3.12,1.26,5.23,5.23,0,0,0-1.17,3.68v7.57h-2.37V193h2.37v3.38a4.87,4.87,0,0,1,1.94-2.68,5.62,5.62,0,0,1,3.21-.94A5.33,5.33,0,0,1,407.23,194.35Z"/><path class="cls-18" d="M80.6,236.38v2.08H78.83a4.54,4.54,0,0,1-3.26-1,4.7,4.7,0,0,1-1.08-3.48v-7.7H72.36v-2.05h2.13v-3.56h2.39v3.56h3.69v2.05H76.88V234a2.67,2.67,0,0,0,.51,1.88,2.44,2.44,0,0,0,1.75.51Z"/><path class="cls-18" d="M93.64,224.88a6.33,6.33,0,0,1,2.55,2.55,8.67,8.67,0,0,1,0,7.79,6.35,6.35,0,0,1-2.55,2.54,8.11,8.11,0,0,1-7.36,0,6.43,6.43,0,0,1-2.56-2.54,8.57,8.57,0,0,1,0-7.79,6.41,6.41,0,0,1,2.56-2.55,8.11,8.11,0,0,1,7.36,0Zm-6,1.77a4.29,4.29,0,0,0-1.74,1.75,6.73,6.73,0,0,0,0,5.82A4.3,4.3,0,0,0,87.61,236a5.14,5.14,0,0,0,4.71,0,4.3,4.3,0,0,0,1.74-1.76,6.73,6.73,0,0,0,0-5.82,4.29,4.29,0,0,0-1.74-1.75,5.12,5.12,0,0,0-4.71,0Z"/><path class="cls-18" d="M111.46,224.88a6.1,6.1,0,0,1,2.33,2.55,9.39,9.39,0,0,1,0,7.79,6.11,6.11,0,0,1-2.33,2.54,6.46,6.46,0,0,1-3.38.88,5.81,5.81,0,0,1-3.52-1.05,5.35,5.35,0,0,1-2-2.77v10.4H100.2v-21h2.37v3.64a5.34,5.34,0,0,1,2-2.77,5.81,5.81,0,0,1,3.52-1.05A6.48,6.48,0,0,1,111.46,224.88Zm-6.55,1.86a4.4,4.4,0,0,0-1.74,1.83,5.87,5.87,0,0,0-.62,2.76,5.79,5.79,0,0,0,.62,2.74,4.5,4.5,0,0,0,1.74,1.83,4.87,4.87,0,0,0,2.5.65,4.61,4.61,0,0,0,3.52-1.39,6.26,6.26,0,0,0,0-7.67,4.62,4.62,0,0,0-3.52-1.39A5,5,0,0,0,104.91,226.74Z"/><path class="cls-18" d="M125.84,227.93v2h-10.4v-2Z"/><path class="cls-18" d="M132.86,219.21v19.24h-2.37V219.21Z"/><path class="cls-18" d="M136.68,218.94a1.9,1.9,0,0,1,2.34,0,1.47,1.47,0,0,1,0,2.11,1.9,1.9,0,0,1-2.34,0,1.47,1.47,0,0,1,0-2.11Zm2.34,5.24v14.27h-2.37V224.18Z"/><path class="cls-18" d="M151.17,225.26a5.32,5.32,0,0,1,1.78,3.39h-2.26a3.28,3.28,0,0,0-1.05-2.09,3.43,3.43,0,0,0-2.41-.82,3,3,0,0,0-2,.61,2.06,2.06,0,0,0-.72,1.65,1.7,1.7,0,0,0,.48,1.26,3.06,3.06,0,0,0,1.2.73,19.23,19.23,0,0,0,2,.53,19.43,19.43,0,0,1,2.56.74,4,4,0,0,1,1.66,1.21,3.4,3.4,0,0,1,.69,2.24,3.51,3.51,0,0,1-1.31,2.83,5.29,5.29,0,0,1-3.5,1.09,6.7,6.7,0,0,1-4.16-1.22,4.88,4.88,0,0,1-1.9-3.41h2.29a3,3,0,0,0,1.13,2.11,4.08,4.08,0,0,0,2.64.81,2.74,2.74,0,0,0,1.91-.62,2.1,2.1,0,0,0,.69-1.64,1.79,1.79,0,0,0-.49-1.33,3.24,3.24,0,0,0-1.22-.75,18,18,0,0,0-2-.55,19.2,19.2,0,0,1-2.54-.73,3.88,3.88,0,0,1-1.61-1.16,3.24,3.24,0,0,1-.66-2.14,3.59,3.59,0,0,1,1.33-2.9,5.47,5.47,0,0,1,3.61-1.11A5.76,5.76,0,0,1,151.17,225.26Z"/><path class="cls-18" d="M163.07,236.38v2.08H161.3a4.54,4.54,0,0,1-3.26-1,4.7,4.7,0,0,1-1.08-3.48v-7.7h-2.13v-2.05H157v-3.56h2.39v3.56H163v2.05h-3.69V234a2.67,2.67,0,0,0,.51,1.88,2.44,2.44,0,0,0,1.75.51Z"/><path class="cls-18" d="M167.7,235.67v2.78h-2.86v-2.78Z"/><path class="cls-18" d="M190.51,221.53a7.72,7.72,0,0,1,2.93,4.32h-2.5a5.61,5.61,0,0,0-2.17-2.68,6.34,6.34,0,0,0-3.6-1,6.48,6.48,0,0,0-3.35.87,6.07,6.07,0,0,0-2.33,2.48,8.06,8.06,0,0,0-.85,3.79,8.15,8.15,0,0,0,.86,3.86,6.06,6.06,0,0,0,2.38,2.5,6.9,6.9,0,0,0,3.5.87,6.61,6.61,0,0,0,3.09-.73,6,6,0,0,0,2.3-2.12,7.2,7.2,0,0,0,1.08-3.26h-7.2v-1.77h9.2v2.18a9.11,9.11,0,0,1-1.35,4,8.11,8.11,0,0,1-3,2.81,8.83,8.83,0,0,1-4.32,1,9.11,9.11,0,0,1-4.68-1.18,8.22,8.22,0,0,1-3.16-3.3,11,11,0,0,1,0-9.7,8.33,8.33,0,0,1,3.16-3.32,9,9,0,0,1,4.65-1.2A8.86,8.86,0,0,1,190.51,221.53Z"/><path class="cls-18" d="M207.2,224.88a6.33,6.33,0,0,1,2.55,2.55,8.67,8.67,0,0,1,0,7.79,6.35,6.35,0,0,1-2.55,2.54,8.11,8.11,0,0,1-7.36,0,6.43,6.43,0,0,1-2.56-2.54,8.57,8.57,0,0,1,0-7.79,6.41,6.41,0,0,1,2.56-2.55,8.11,8.11,0,0,1,7.36,0Zm-6,1.77a4.29,4.29,0,0,0-1.74,1.75,6.73,6.73,0,0,0,0,5.82,4.3,4.3,0,0,0,1.74,1.76,5.14,5.14,0,0,0,4.71,0,4.3,4.3,0,0,0,1.74-1.76,6.73,6.73,0,0,0,0-5.82,4.29,4.29,0,0,0-1.74-1.75,5.12,5.12,0,0,0-4.71,0Z"/><path class="cls-18" d="M223.92,224.88a6.33,6.33,0,0,1,2.55,2.55,8.67,8.67,0,0,1,0,7.79,6.35,6.35,0,0,1-2.55,2.54,8.11,8.11,0,0,1-7.36,0,6.43,6.43,0,0,1-2.56-2.54,8.57,8.57,0,0,1,0-7.79,6.41,6.41,0,0,1,2.56-2.55,8.11,8.11,0,0,1,7.36,0Zm-6,1.77a4.29,4.29,0,0,0-1.74,1.75,6.73,6.73,0,0,0,0,5.82,4.3,4.3,0,0,0,1.74,1.76,5.14,5.14,0,0,0,4.71,0,4.3,4.3,0,0,0,1.74-1.76,6.73,6.73,0,0,0,0-5.82,4.29,4.29,0,0,0-1.74-1.75,5.12,5.12,0,0,0-4.71,0Z"/><path class="cls-18" d="M239.86,225a5.42,5.42,0,0,1,2,2.78v-8.61h2.37v19.24h-2.37v-3.64a5.43,5.43,0,0,1-2,2.78,5.86,5.86,0,0,1-3.52,1,6.46,6.46,0,0,1-3.38-.88,6.11,6.11,0,0,1-2.33-2.54,9.39,9.39,0,0,1,0-7.79,6.1,6.1,0,0,1,2.33-2.55,6.48,6.48,0,0,1,3.38-.88A5.86,5.86,0,0,1,239.86,225Zm-6.34,2.46a6.26,6.26,0,0,0,0,7.67,4.58,4.58,0,0,0,3.5,1.39,4.85,4.85,0,0,0,2.51-.65,4.53,4.53,0,0,0,1.73-1.83,5.79,5.79,0,0,0,.62-2.74,5.87,5.87,0,0,0-.62-2.76,4.43,4.43,0,0,0-1.73-1.83,4.94,4.94,0,0,0-2.51-.64A4.59,4.59,0,0,0,233.52,227.5Z"/><path class="cls-18" d="M256.8,219.21v19.24h-2.37V219.21Z"/><path class="cls-18" d="M273.28,224.18v14.27h-2.37V235.1a4.79,4.79,0,0,1-1.94,2.66,5.71,5.71,0,0,1-3.24.92,5.3,5.3,0,0,1-4-1.6,6.36,6.36,0,0,1-1.53-4.59v-8.32h2.37v8.09a4.61,4.61,0,0,0,1.09,3.29,3.88,3.88,0,0,0,3,1.16,4.05,4.05,0,0,0,3.12-1.26,5.23,5.23,0,0,0,1.17-3.68v-7.59Z"/><path class="cls-18" d="M287.92,225.46a6.17,6.17,0,0,1,2.21,3.9h-2.5a3.65,3.65,0,0,0-1.42-2.4,4.63,4.63,0,0,0-2.87-.87,4.58,4.58,0,0,0-2.27.57,4.15,4.15,0,0,0-1.65,1.75,7.17,7.17,0,0,0,0,5.85,4.16,4.16,0,0,0,1.65,1.76,5,5,0,0,0,5.15-.31,3.69,3.69,0,0,0,1.42-2.42h2.5a6.14,6.14,0,0,1-2.21,3.91,7,7,0,0,1-4.52,1.44,7.34,7.34,0,0,1-3.64-.88,6.25,6.25,0,0,1-2.48-2.54,8.9,8.9,0,0,1,0-7.79,6.23,6.23,0,0,1,2.48-2.55,7.36,7.36,0,0,1,3.64-.88A7,7,0,0,1,287.92,225.46Z"/><path class="cls-18" d="M301.05,238.46,295.59,232v6.42h-2.37V219.21h2.37V230.4l5.38-6.21h2.89l-6.4,7.1,6.55,7.18Z"/><path class="cls-18" d="M309.63,235.67v2.78h-2.89v-2.78Zm-.16-16-.34,13.39h-1.95l-.34-13.39Z"/></g></g></svg>