<svg id="Layer_5" data-name="Layer 5" xmlns="http://www.w3.org/2000/svg" viewBox="0 0 1740.6 1339.72"><defs><style>.cls-1,.cls-13,.cls-14,.cls-2,.cls-22,.cls-23,.cls-24,.cls-25,.cls-26,.cls-27,.cls-28,.cls-29,.cls-3,.cls-30,.cls-31,.cls-32,.cls-33,.cls-34,.cls-35,.cls-36,.cls-4,.cls-5,.cls-6,.cls-7,.cls-8{stroke:#000;stroke-linecap:round;stroke-linejoin:round;}.cls-1,.cls-13,.cls-14,.cls-2,.cls-22,.cls-23,.cls-24,.cls-3,.cls-33,.cls-34,.cls-35,.cls-36,.cls-4,.cls-5,.cls-6,.cls-7,.cls-8{stroke-width:10px;}.cls-2,.cls-26{fill:#fff5c5;}.cls-27,.cls-3{fill:#291b63;}.cls-28,.cls-4{fill:none;}.cls-29,.cls-5{fill:#c9bf93;}.cls-30,.cls-6{fill:#a39a74;}.cls-31,.cls-7{fill:#db197a;}.cls-10,.cls-32,.cls-8{fill:#d9d9d9;}.cls-16,.cls-20,.cls-21,.cls-24,.cls-37,.cls-38,.cls-9{fill:#fff;}.cls-11{fill:#c61c4d;}.cls-12{fill:#7c0522;}.cls-13{fill:#76767c;}.cls-14{fill:#616166;}.cls-15{fill:#232323;}.cls-16{opacity:0.4;}.cls-17,.cls-18,.cls-19{fill:#444135;}.cls-17{opacity:0.07;}.cls-18,.cls-20{opacity:0.1;}.cls-19,.cls-39{opacity:0.15;}.cls-21{opacity:0.2;}.cls-22{fill:#9b9ba3;}.cls-23{fill:#d3d3d3;}.cls-25,.cls-26,.cls-27,.cls-28,.cls-29,.cls-30,.cls-31,.cls-32{stroke-width:3px;}.cls-33{fill:#bcbcc1;}.cls-34{fill:#ff1559;}.cls-35{fill:#00e6e9;}.cls-36{fill:#eaeaea;}.cls-37{opacity:0.3;}.cls-38{opacity:0.5;}</style></defs><title>panda-vloger</title><path class="cls-1" d="M715.5,1015.5c15.84,4.74,17.58,18.57,41,56,8.75,14,23.5,33.33,53,72,11.4,15,22.49,29.11,37,46,12.34,14.37,11.14,12.06,14,16,22.94,31.65,19.92,69.43,19,81-1.43,17.95-2.92,36.53-17,49a49.21,49.21,0,0,1-23,11c-9,1.38-16.58-.4-24-3-26.63-9.32-45.31-27.34-47-29-50.26-49.39-79.92-114.82-84-124-14.47-32.55-19.59-53.12-21-59-8.83-36.87-18-75.07,3-99C678,1019.41,698.61,1010.45,715.5,1015.5Z" transform="translate(-152.4 -429.78)"/><path class="cls-1" d="M827.5,1297.5c-4.59-33.13-10.56-28.73-13-55-1.15-12.35-2.69-30.9,4-53,5.94-19.62,15.53-32.68,24-44,3.48-4.65,6.08-7.69,41-42,15.06-14.79,26.47-25.92,40-41,4.74-5.28,9.83-11.86,20-25,6.26-8.09,8.75-11.58,11-17,2.41-5.8,2-7.62,4-9,6.84-4.68,23.84,7.87,33,17,6,6,15.94,15.89,18,31a45.49,45.49,0,0,1-2,20c-11.85,38.78-31,86-31,86-12.32,30.38-18.67,46-25,69-3.08,11.18-6.31,24.66-15,42a172.79,172.79,0,0,1-19,30c-16,20.13-31.07,29.3-44,37-8.74,5.21-35.78,5.75-42,4-4.34-1.22,12.3-2.51,7-12C830.16,1320.56,828.81,1306.94,827.5,1297.5Z" transform="translate(-152.4 -429.78)"/><path class="cls-1" d="M953.5,1031.5c-1.73-6.61-1.82-12.4-2-24-.18-11.3-.28-17.79,2-26,1.39-5,4.53-15.81,14-25,10.24-9.95,22.1-12.38,30-14,11.8-2.42,27.79-2.64,38,1a49.88,49.88,0,0,0,13,3,60.39,60.39,0,0,0,9,0c3.6,0,9.4,1,25,15,8.83,7.93,14.24,14.12,22,23a119.24,119.24,0,0,1,16,24c1.76,3.53,4,8.57,2,13-.78,1.71-2.1,3.14-5,5a41.2,41.2,0,0,1-16,6c-15.09,1.8-34.81,9-54,16-15.27,5.57-23,8.49-29,15a96.53,96.53,0,0,0-15,23c-4,8.59-4.5,12.71-7,13-4.58.54-6.85-12.9-17-30C966.77,1048.05,957.83,1048.1,953.5,1031.5Z" transform="translate(-152.4 -429.78)"/><path class="cls-1" d="M970.5,961.5c-.7-2.82,3-3.86,16-22,2.5-3.5,5.93-8.32,10-15a188.74,188.74,0,0,0,10-18,108.48,108.48,0,0,1,5-10,67,67,0,0,1,7-10c4.81-5.35,7.65-4.66,19-11,10.79-6,12.11-8.83,21-12,5.38-1.92,8.82-3.09,13-2,8.83,2.3,12.45,12.46,13,14,3.25,9.12.08,17.24-1,20-5,12.74-16.48,17.87-19,19-6.22,2.78-7,2-11,3,1,8-2,22-7,34C1037,974.27,973.49,973.46,970.5,961.5Z" transform="translate(-152.4 -429.78)"/><path class="cls-1" d="M1054,917.5a41.69,41.69,0,0,1-20-3" transform="translate(-152.4 -429.78)"/><path class="cls-1" d="M1055.5,948.5c.5-1.74,1.95-3.55,17-9,11.07-4,18.6-6.73,30-9,8.55-1.7,14.58-2.21,24-3,11.91-1,15.78-.61,19,0,5.31,1,12.15,2.4,17,8,2.81,3.24,5.2,8.18,5,12-.94,17.88-60.31,42.49-95,22C1064.59,964.83,1053.57,955.21,1055.5,948.5Z" transform="translate(-152.4 -429.78)"/><path class="cls-1" d="M1076.5,966.5c-.58-6.53,14.7-12.93,34-21,19.11-8,32.22-9.54,39-10,9.65-.66,17.33-1.08,26,3,3.13,1.48,16.27,7.66,18,20,.13.93,1,8-3,14-5.24,7.79-16.86,10.8-46,9C1121.51,980.08,1077.47,977.36,1076.5,966.5Z" transform="translate(-152.4 -429.78)"/><path class="cls-1" d="M1094.5,986.5a106.51,106.51,0,0,1,29-19c6-2.54,24-10,45-7a51.09,51.09,0,0,1,18,6c4.95,2.79,9.58,5.4,12,11,3.09,7.15.38,14.08,0,15-3.26,8-11.21,11.51-17,14-22.51,9.68-33.77,14.52-52,19-10.92,2.69-21.28,4.12-42,7-16.09,2.23-19.32,2.18-21,0C1060.86,1025.18,1078.38,1001.09,1094.5,986.5Z" transform="translate(-152.4 -429.78)"/><path class="cls-1" d="M543.5,874.5c5.69,6.86,15.84,21.29,34,41,13.49,14.63,20.44,20.29,28,25,11,6.84,15.45,6.81,16,10,1.91,11-46.77,38.74-100,40-18.39.44-47.59-9-106-28-11.28-3.66-47.18-15.52-46-25,.34-2.7,3.48-3.51,10-10a102.47,102.47,0,0,0,13-17c10.53-16.91,12.78-35.61,15-54,1.52-12.63.51-12.7,2-15C423.24,820.23,506.77,830.16,543.5,874.5Z" transform="translate(-152.4 -429.78)"/><path class="cls-2" d="M598.5,923.5c1.16-2.95,6.09-1.27,12-7,4.56-4.43,3.67-7.41,9-12,2-1.72,5.21-4.42,10-5a17.58,17.58,0,0,1,10,2c7.55,3.65,10.9,10.63,13,15,2.47,5.15,6.07,12.63,4,22-.44,2-2.45,11.12-9,15C630.67,963.48,595.09,932.14,598.5,923.5Z" transform="translate(-152.4 -429.78)"/><path class="cls-2" d="M610.5,923.5c3-1.69,6.32-.91,17-5a107.37,107.37,0,0,0,28-16c4.71-3.74,7.6-6,11-10s4.37-6.16,8-9c1.45-1.13,5.68-4.45,10-5,8.72-1.11,16.59,9.21,21,15,10.43,13.68,5.56,17.74,17,36,2.11,3.37,4.83,7.31,5,13,.21,7-3.55,12.78-5,15-4.51,6.92-7.78,6.43-11,13-1.17,2.39-3.53,7.22-2,12,1.24,3.86,4.5,6,10,9,10.36,5.58,23.4,11.09,34,16,3.05,1.41,7.31,3.45,10,8,.56,1,3.05,5.16,2,10-.71,3.25-2.79,5.75-7,9-11.74,9.06-17.81,6.85-24,14-1,1.16-6.74,7.79-5,14,1.15,4.11,4.67,4.79,18,13,10.82,6.66,14,9.63,16,14,.87,2,2.85,6.38,1,10s-6.48,4.84-14,7c-6.15,1.76-8.74,1.69-10,4-1.63,3,.5,7,1,8,2.2,4.21,5.06,4.24,11,10,3.24,3.14,4.86,4.76,5,7,.06,1-.08,3.55-6,9-3.31,3-6.92,6.38-13,9a55.75,55.75,0,0,1-28,3C671.43,1150.4,580.72,940.25,610.5,923.5Z" transform="translate(-152.4 -429.78)"/><path class="cls-2" d="M644.5,938.5c10,10.32,14.3,21,19,33,6.09,15.54,5.56,20.53,13,46,3.3,11.3,6,19.33,9,28,10.55,30.91,15.55,39.1,28,74,5.33,14.93,8,22.4,10,30a246.64,246.64,0,0,1,8,59c1.51,56.5-16.08,140-57,223-13.26,26.9-18.34,32.19-23,36-37,30.26-100.78,11.45-160-6-30.61-9-45.92-13.53-63-25-13.14-8.82-41.53-30.84-71-99-15.79-36.51-22.74-68.17-36-130-38.32-178.65-15.93-197.41-21-228-.37-2.25-1.64-9.08,2-15,2.57-4.18,6.43-6,13-9,12.67-5.75,20.17-8.84,25-11a195.54,195.54,0,0,0,24-13c12.41-7.95,22-15.33,26-18,5,18,82.74,49,130,46,31-2,78-17,56-45,1.13.29,9.25,3.31,14,4,9.49,1.38,13.23-.32,21,1a46.07,46.07,0,0,1,12,4" transform="translate(-152.4 -429.78)"/><path class="cls-3" d="M371.5,1391.5c-27.76,45.8-64,123-64,123-27.55,58.68-32.25,69.41-37,89-3,12.52-7.74,32.42-8,59-.41,41.3,16.45,100.51,17,102h435c1.63-2.43,3-5,3-5a66.72,66.72,0,0,0,5-13c14.26-55.33,15-86,15-86,2-81.58-26.6-144.51-43-222a121.55,121.55,0,0,0-8-25c-2.3-5.17-12.84-28.89-30-41-12.92-9.12-27.31-10-81-3-76.16,10-67.16,14.48-86,13-43.51-3.43-90.22-27.25-101-15-.55.62-2.36,2.88-4,5C384.5,1372.5,377.63,1381.38,371.5,1391.5Z" transform="translate(-152.4 -429.78)"/><path class="cls-3" d="M352.5,1398.5c.65,9.17,35.11,14.68,81,22,17.15,2.74,39.64,6.24,70,7,61.53,1.53,107.57-9.42,118-12,34.35-8.49,20.13-9.68,83-30,6.48-2.09,9.91-3.14,10-5,.47-10.13-99.53-31.5-200-25C433.56,1360.74,351.48,1384.12,352.5,1398.5Z" transform="translate(-152.4 -429.78)"/><path class="cls-4" d="M395.5,1442.5c-10.26,48.66-24,83.65-35,107,0,0-21.71,46.19-29,86a231.52,231.52,0,0,0-3,25,216.44,216.44,0,0,0,0,23c.49,11.73,1.37,28.29,3,49" transform="translate(-152.4 -429.78)"/><path class="cls-4" d="M302.5,1642.5c10.27,4.81,21.61,9.57,34,14,8.67,3.1,17,5.74,25,8" transform="translate(-152.4 -429.78)"/><path class="cls-4" d="M316.5,1676.5c6,.79,12.38,1.47,19,2,6.23.5,12.24.82,18,1" transform="translate(-152.4 -429.78)"/><path class="cls-4" d="M504.5,1687.5a283.32,283.32,0,0,0,50-11c17.67-5.62,31.57-10.15,47-21a127.49,127.49,0,0,0,28-27" transform="translate(-152.4 -429.78)"/><path class="cls-4" d="M561.5,1694.5a102,102,0,0,0,22,3,108.89,108.89,0,0,0,23-2,112.39,112.39,0,0,0,12-3" transform="translate(-152.4 -429.78)"/><path class="cls-5" d="M330.5,978.5c-16.63-16.36-48.16-1.54-74-24-11.73-10.19-27-16.06-38-27-1.09-1.08-4.09-4.12-8-4-6.48.21-12,9-14,16-2.68,9.14-1.15,20.77,4,30,3.55,6.36,8,10.14,7,16a13.36,13.36,0,0,1-4,7c-4.59,4.68-9.48,4.32-21,7-10.74,2.5-16.19,3.83-20,8-.53.58-5.91,6.63-5,14s7.33,11.52,19,19c22.61,14.5,32,19,32,19,3.09,1.48,7.72,3.6,8,7,.27,3.22-3.49,5.84-8,9-15.42,10.79-23.25,16.31-29,22-5.41,5.36-9.65,9.68-9,15,.7,5.69,6.63,9.49,9,11,3.89,2.49,8,3.36,16,5,10.34,2.12,12.39,1.46,16,4,.88.62,5.81,4.09,7,10,1.74,8.63-5.59,17.19-8,20-4.09,4.78-7.39,6.21-7,9,.2,1.43,1.4,3.4,8,6a57,57,0,0,0,21,4C257.19,1179.82,371.12,1018.46,330.5,978.5Z" transform="translate(-152.4 -429.78)"/><path class="cls-1" d="M310.5,990.5c-14.57,1.11-26,12.76-36,23-16,16.37-22.45,34-26,44-6.36,18-3.58,21.28-10,59-2.69,15.84-5.72,33.63-12,55-6.48,22-13.5,38-21,55-16.58,37.63-23.12,42.91-29,67a151.11,151.11,0,0,0-5,39c0,5.58.4,9.36,14,63,4.7,18.54,7.91,30.52,19,40a44.76,44.76,0,0,0,11,7c25.56,10.64,83.71-21.06,105-71,9.7-22.76,4-31.12,22-93,.69-2.38,3.14-10.29,8-26,26.37-85.22,26.45-84,28-91,5.19-23.44,13.63-61.54-1-102C366.76,1029.8,339.78,988.28,310.5,990.5Z" transform="translate(-152.4 -429.78)"/><path class="cls-4" d="M271.5,1036.5c1.5,2,12.06-.89,14-2,14-8,16.53-14.79,28-26,3.13-3.06,4.35-4.1,4-5-1.06-2.74-15.6-1.82-27,5C277.83,1016.09,268.57,1032.66,271.5,1036.5Z" transform="translate(-152.4 -429.78)"/><path class="cls-6" d="M348.5,1292.5c-1.41-.9-.62-4.95,1-13,2.09-10.37,3.95-19.16,10-29,3.71-6,7.16-11.63,10-11,4.4,1,6.84,16.82,2,30C366.12,1284.15,352,1294.76,348.5,1292.5Z" transform="translate(-152.4 -429.78)"/><path class="cls-2" d="M383.5,1006.5c26.33,43.36,26.5,86.92,26,101-.78,21.94-5.68,43.23-10,62-4,17.23-7.8,29.37-13,56,0,0-3.12,16-4,44-.3,9.57-.09,15.91,3,23,4.2,9.65,10.45,13.13,9,16-2.15,4.25-17.78.45-27-3-7.06-2.64-19.51-7.31-20-15-.26-4.08,2.92-7.75,4-9,2.91-3.37,5.48-3.56,12-9,3.19-2.66,3.91-3.73,4-5,.22-3-3-5.88-6-7-2.68-1-5.11-.57-8,0-6.16,1.22-7.13,3.54-10,3-3.76-.71-7-5.6-7-10s3.06-7.32,8-12c6.53-6.19,10.53-7.11,16-14,2.19-2.76,3.26-4.77,3-7-.45-3.9-4.66-6.25-6-7-6.64-3.71-14.28-1.89-18-1-5,1.18-5.17,2.28-12,4-5.87,1.47-8.84,2.19-11,1-5.64-3.11-4.21-15.19-4-17,.46-3.89,1.6-8.09,9-21,8.74-15.23,10.61-15.4,14-24,2.11-5.34,3.07-9.9,5-19,1.22-5.76,1.83-9.92,1-15-.59-3.59-1.2-7.34-4-9-1.07-.64-2.87-1.2-13,2-8.2,2.59-9,3.59-13,4-3,.31-8.19.83-12-2-4.74-3.52-4.93-10.41-5-15,0-2.29,0-9.9,9-30,4.44-10,6.47-12.68,8-20a51,51,0,0,0,1-15,42.77,42.77,0,0,0-4-15c-2.26-4.69-4.21-6.37-5-7-1.13-.9-5.11-4.07-9-3-3.19.88-4.74,4.18-7,9-3.17,6.77-2.16,8.95-5,12-2.21,2.37-6.38,4.88-10,4-4.82-1.17-6.39-7.81-10-19-.57-1.76-4-11.17-11-30-6.52-17.65-10.84-26.63-12-29-4-8.12-6.1-12.54-10-18-9.58-13.44-15-17-20-17,6-2,22.72,8.9,53,23,12.21,5.69,18.22,7.9,26,9,16.39,2.31,24.37-2.65,34-3,10.35-.37,20,4.69,28.66,12.08" transform="translate(-152.4 -429.78)"/><path class="cls-4" d="M367.5,1267.5c.44-3.42,1.09-8.24,2-14s3-18.76,6-31a232.39,232.39,0,0,1,14-40" transform="translate(-152.4 -429.78)"/><path class="cls-4" d="M363.5,1221.5c2.17-7.48,4.33-13.6,6-18,4.48-11.84,7.88-20.62,15-30a80.55,80.55,0,0,1,9-10" transform="translate(-152.4 -429.78)"/><path class="cls-1" d="M211.5,1386.5c4.57-17.91,12.73-29.93,19-39,6.81-9.84,21.22-30.19,48-45,19.71-10.9,36.93-13.7,51-16,28.81-4.7,51.87-1.85,66,0,14.43,1.89,31.28,5.59,65,13,12.1,2.66,20.53,4.64,33,5a232.55,232.55,0,0,0,35-2c11.84-1.71,17-3.54,26-2,3.69.63,11.53,2,18,7,14.71,11.46,17.57,38.34,7,55-1.95,3.07-6.33,8.91-28,19a263.54,263.54,0,0,1-49,17c-31.64,8.13-33.14,13.69-69,26-14.5,5-53.2,11.72-130,25a192.64,192.64,0,0,1-64-1c-13.82-2.56-19.62-5.31-24-10C201.93,1424,208.58,1397.92,211.5,1386.5Z" transform="translate(-152.4 -429.78)"/><path class="cls-1" d="M509.5,1313.5c-.63-3.8,14.26-5.57,25-22,4-6,3.1-7.59,8-15,6.46-9.76,13.59-15.62,19-20a115.2,115.2,0,0,1,27-16c9.24-3.93,13.86-5.89,19-5,9.78,1.7,17.77,11.23,20,20,5.5,21.6-22.58,43.65-27,47C563.45,1330.64,510.66,1320.47,509.5,1313.5Z" transform="translate(-152.4 -429.78)"/><path class="cls-7" d="M622.78,1153.87l179.65-13.68a7,7,0,0,1,7.42,8.25l-52.07,282.15a10,10,0,0,1-8.21,8.05L589.6,1465a7,7,0,0,1-8.1-7.67l32.1-294.58A10,10,0,0,1,622.78,1153.87Z" transform="translate(-152.4 -429.78)"/><path class="cls-1" d="M593.5,1247.5a134.28,134.28,0,0,0,20,1,157.39,157.39,0,0,0,20-2c4.46-.65,7.21-1.16,27-5,12.57-2.44,16.59-3.23,23-3,7,.25,11.92.5,16,4,6.35,5.45,6.11,14.82,6,19a35.91,35.91,0,0,1-7,20c-7.7,10.54-19.13,14.42-24,16-92.1,29.92-138.15,44.88-146,33C514.38,1309.14,569.78,1245.37,593.5,1247.5Z" transform="translate(-152.4 -429.78)"/><path class="cls-1" d="M643.5,1300.5c1.76-1.32,17.86-13.43,39-14,8.74-.24,12.64,1.65,15,4,8.78,8.73.45,28,0,29-1.37,3.07-6,12.36-20,21-17.86,11-36.11,11.76-44,12-64.23,1.93-98.85,3-100-5C531.85,1336.12,602.07,1331.46,643.5,1300.5Z" transform="translate(-152.4 -429.78)"/><path class="cls-1" d="M548.5,1376.5c14.26,2.26,13.63,2.57,23,4a290.08,290.08,0,0,0,48,4c30.36-.24,45.09-6.18,53-11,6.75-4.11,10.21-8.44,12-13a21.75,21.75,0,0,0,1-13,25.42,25.42,0,0,0-8-12c-15.62-13.16-69.43,9.23-136,26-6.38,1.61-23.34,5.8-23,9C518.73,1372.7,527,1373.08,548.5,1376.5Z" transform="translate(-152.4 -429.78)"/><path class="cls-1" d="M493.5,491.5c1.38-3.64,3.51-3.16,15-16,12.24-13.68,11.9-16.55,20-24,6.21-5.71,14.76-13.57,28-16s24.12,1.95,29,4c15.75,6.63,24.14,18.43,28,24,10.22,14.77,12.41,29.24,16,53,.58,3.83,1.05,11.55,2,27,.57,9.21.66,12.77-1,17,0,0-3.57,9.1-15,15C585.34,591.06,483.2,518.71,493.5,491.5Z" transform="translate(-152.4 -429.78)"/><path class="cls-8" d="M221.5,771.5c13,1,23.62-.67,38-16,7.88-8.4,9.19-18.62,11-42,2.92-37.66,2.92-54.79,4-68,2.53-30.83,12.42-57.74,21-74,32.35-61.31,103.66-80.31,125-86,22.75-6.06,70.15-18.69,123,2,42.51,16.64,66.67,46.28,76,58,24.74,31.1,33.5,62,40,85,3.48,12.3,7.71,37.89,11,67,3.19,28.19,3.93,50.71,13,53,6.88,1.74,15-6,16-8,3,4-1,51-32,58,7,2,21,0,28-2-16,28-46,30-61,44-5.54,5.17-10.83,19.65-24,39-3.76,5.53-8.08,11.62-16,16-2.21,1.22-9.26,4.83-24,5-16.25.18-22.51-4-40-7-9.09-1.54-17.06-1.69-33-2a552.59,552.59,0,0,0-58,2c-60.26,4.63-127-28-136-43,9-4,24.71-10.25,26-19C265.5,847.5,226.5,788.5,221.5,771.5Z" transform="translate(-152.4 -429.78)"/><path class="cls-9" d="M281.5,781.5c32.58-15.58,10.68-119.53,26-123,5.93-1.34,9.17,14.22,22,16,16.5,2.29,35.95-20,43-41,2.44-7.26,3-17.17,4-37,1.43-27.27-.91-26.65,1-38,1-6.13,5.52-32.79,27-51,11.17-9.47,22.28-12.71,34-16,44.05-12.35,82.14-1.71,88,0,40.66,11.9,64.73,37,75,48,33,35.27,43.19,74.63,49,97,7.29,28,9,113,25,123,6.22,3.89,11-1,16-4,1,4,1.29,14.22-6,23-12.6,15.16-34.65,11.88-35,18-.23,4,9,9.24,17,10,4.76.45,7.68-.81,8,0,.69,1.74-12.85,7.79-31,19-11.33,7-17,10.5-21,15-7.88,8.85-6.61,13.45-16,27-6.5,9.39-10,14.4-16,18-5.13,3.07-12.64,5.42-43,0-27.57-4.92-30.07-8.41-48-10-11.14-1-13.06.1-37,1-28.24,1.06-42.36,1.59-58,0-28.12-2.87-60-15-67-22,4-2,8.73-2.81,15-7,19.46-13,28-37,30-46-8,4-14.91,6.88-39,11-16.06,2.75-52.59,6.6-80-12-2.33-1.58-11-9-12-14C258.5,787.5,270.31,786.85,281.5,781.5Z" transform="translate(-152.4 -429.78)"/><path class="cls-10" d="M426.5,705.5c-.46,4.23-1.33,12.18,2,21,6,15.84,21,22.73,26,25,18.84,8.62,36.86,4.38,47,2,21.72-5.1,35.43-16.73,44-24,12.46-10.57,19.62-16.64,21-25,.16-1,.47-3.35,2-4,3.47-1.47,12,6.44,16,16,3,7.13,1.7,11.23,5,13s6.86-.95,13-3c9.31-3.11,17.21-5.45,22-2,2.58,1.86,1.5,3.44,5,7,1.21,1.23,6,5.76,12,6,7.86.31,13.56-6.9,16-10,6.46-8.19,7.28-17.08,8-25s1.74-19.07-4-30c-1.54-2.94-1.85-2.59-15-17-11.1-12.17-16.65-18.26-18-20a97.19,97.19,0,0,0-15-16c-3.92-3.3-5.38-4-7-4-8.42-.17-14.89,16.94-16,20-6.22,17.15-2.35,30-6,31-2.27.6-4.41-4.22-14-16-6.82-8.37-10.23-12.56-14-15-9.12-5.9-19.58-4.45-30-3-13,1.8-22.31,6.2-41,15a241.82,241.82,0,0,0-26,14c-11.33,7.09-17.1,10.76-22,17A54,54,0,0,0,426.5,705.5Z" transform="translate(-152.4 -429.78)"/><path class="cls-1" d="M447.5,687.5a39.3,39.3,0,0,0-2,18c.21,1.61,2.14,14.63,13,24,13.71,11.82,31.67,9.21,40,8a68.18,68.18,0,0,0,34-16,69,69,0,0,0,19-27c2.07-5.36,6.62-17.57,4-33-1.63-9.6-5.32-16.19-8-21-4.44-8-8.12-14.54-16-18a26.25,26.25,0,0,0-13-2c-8,.8-13,5.16-24,15-16.15,14.52-24.35,21.9-30,28C451.85,677.15,449.13,682.55,447.5,687.5Z" transform="translate(-152.4 -429.78)"/><path class="cls-1" d="M598.5,682.5a104,104,0,0,1-5-25c-1.57-15.68.8-20.81,2-23a25.92,25.92,0,0,1,10-10c1.14-.63,8.22-4.51,15-3,11,2.45,8.81,16.29,26,38,3.85,4.86,8.52,9.92,13,19,2.89,5.85,4.53,9.18,5,14,1.29,13.33-7.8,23.37-12,28-3.57,3.94-8.59,9.33-15,9a12.72,12.72,0,0,1-6-2C609,713.93,598.5,682.5,598.5,682.5Z" transform="translate(-152.4 -429.78)"/><path class="cls-10" d="M588.5,682.5a76,76,0,0,1,19,11c5.89,4.61,9.26,8.74,16,17,2.19,2.68,3.45,4.4,4,7a15.07,15.07,0,0,1-6,15c-7,4.84-15.47.74-17,0s-5.24-2.81-11-12c-9-14.35-6.64-19.75-15-31-4.28-5.75-7.93-8.41-7-10C573.18,676.62,587.09,682,588.5,682.5Z" transform="translate(-152.4 -429.78)"/><path class="cls-9" d="M507.5,690.5c.06-5,4.38-8.82,8-12a29.32,29.32,0,0,1,11-6c4.38-1.38,6.81-2.14,9-1,4.33,2.25,4.13,10.05,4,15-.14,5.23-.34,13.15-6,17a12.35,12.35,0,0,1-6,2C518.55,706.32,507.41,698.66,507.5,690.5Z" transform="translate(-152.4 -429.78)"/><path class="cls-9" d="M606.5,680.5c-.14-3.27,1.91-5.85,6-11,2.63-3.31,4.16-5.18,7-6a10.58,10.58,0,0,1,8,1c4.58,2.83,4.86,8.86,5,12,.15,3.4.42,9.29-4,13-4.77,4-11.18,2.24-12,2C611.61,690.07,606.73,685.68,606.5,680.5Z" transform="translate(-152.4 -429.78)"/><rect class="cls-1" x="584.5" y="715.43" width="46.11" height="33" rx="12" ry="12" transform="translate(-200.36 -387.16) rotate(-3.87)"/><path class="cls-9" d="M591.5,734.5c-2.26-1.65-2-6.7,0-10,2.65-4.47,8.07-5.36,12-6,2.83-.46,7.62-1.25,9,1s-1.12,5.69-2,7c-3.82,5.68-10,7.1-14,8C592.95,735.31,592,734.86,591.5,734.5Z" transform="translate(-152.4 -429.78)"/><path class="cls-11" d="M589.5,817.5a46.24,46.24,0,0,1,1.83,12.66c-4.76,2.41-9.78,1.91-14.83,1.34a52.69,52.69,0,0,1-17-5c-9.87-4.71-15.89-10.77-21-16a73.86,73.86,0,0,1-8.13-10.15c7.09,2.72,15.4,2.44,25.13,2.15a91.59,91.59,0,0,0,24-4.8A54,54,0,0,1,589.5,817.5Z" transform="translate(-152.4 -429.78)"/><path class="cls-12" d="M616.24,792.24c-.88,1-1.8,2.07-2.74,3.26-6.13,7.72-9.28,11.7-11,18-.71,2.6-1.3,6.06-4,10a20.2,20.2,0,0,1-6,6q-.59.36-1.17.66a46.24,46.24,0,0,0-1.83-12.66,54,54,0,0,0-10-19.8,83,83,0,0,0,14-6.2,32.2,32.2,0,0,0,10.07-8.11q.48.6.93,1.11c3.7,4.26,6.28,5.63,7,6A19,19,0,0,0,616.24,792.24Z" transform="translate(-152.4 -429.78)"/><path class="cls-4" d="M616.24,792.24c-.88,1-1.8,2.07-2.74,3.26-6.13,7.72-9.28,11.7-11,18-.71,2.6-1.3,6.06-4,10a20.2,20.2,0,0,1-6,6q-.59.36-1.17.66c-4.76,2.41-9.78,1.91-14.83,1.34a52.69,52.69,0,0,1-17-5c-9.87-4.71-15.89-10.77-21-16a73.86,73.86,0,0,1-8.13-10.15" transform="translate(-152.4 -429.78)"/><path class="cls-4" d="M579.5,797.7a54,54,0,0,1,10,19.8,46.24,46.24,0,0,1,1.83,12.66" transform="translate(-152.4 -429.78)"/><path class="cls-4" d="M603.57,783.39q.48.6.93,1.11c3.7,4.26,6.28,5.63,7,6a19,19,0,0,0,4.74,1.74,15.7,15.7,0,0,0,5.26.26,17.94,17.94,0,0,0,10-5,25.62,25.62,0,0,0,7-11,24.71,24.71,0,0,0,2-12,22.48,22.48,0,0,0-3-9" transform="translate(-152.4 -429.78)"/><path class="cls-4" d="M511.5,764.5a36.05,36.05,0,0,0,0,9,39.29,39.29,0,0,0,4,12.91,32.57,32.57,0,0,0,7,9.09,24.84,24.84,0,0,0,7.87,4.85c7.09,2.72,15.4,2.44,25.13,2.15a91.59,91.59,0,0,0,24-4.8,83,83,0,0,0,14-6.2,32.2,32.2,0,0,0,10.07-8.11,23.06,23.06,0,0,0,1.93-2.89,22.45,22.45,0,0,0,2-4.88,36.67,36.67,0,0,0,1-4.12,104.53,104.53,0,0,0,1-28" transform="translate(-152.4 -429.78)"/><path class="cls-4" d="M594.5,837.5a15.53,15.53,0,0,1-5,6c-5.32,3.73-11.52,2.62-15,2a28.52,28.52,0,0,1-14-7" transform="translate(-152.4 -429.78)"/><path class="cls-1" d="M298.5,615.5c5,11.22,9.22,15.87,14,19,14,9.18,30.57,3.52,32,3,17-6.12,23.12-22.51,24-25,4-11.4-1-14.25,3-29a65.51,65.51,0,0,1,13-25c8.62-10.15,12.9-8.3,21-18,3.38-4.05,11.37-13.62,12-27,.77-16.32-9.87-28.25-15-34a62.82,62.82,0,0,0-20-15c-3-1.38-24.94-11.2-48-2-21.32,8.5-30.14,27.9-37,43-10,22-10,41.23-10,56C287.5,573.29,288.77,593.78,298.5,615.5Z" transform="translate(-152.4 -429.78)"/><polygon class="cls-13" points="1506.6 412.22 1462.6 1334.22 1476.6 1334.22 1534.6 413.22 1506.6 412.22"/><polygon class="cls-13" points="1735.6 1334.22 1575.6 408.22 1548.6 408.22 1722.6 1334.22 1735.6 1334.22"/><polygon class="cls-13" points="1306.6 1334.22 1466.6 408.22 1493.6 408.22 1319.6 1334.22 1306.6 1334.22"/><polygon class="cls-14" points="1462.6 410.22 1359.6 999.22 1390.6 1004.22 1501.6 408.22 1462.6 410.22"/><polygon class="cls-14" points="1579.6 403.22 1677.6 956.22 1646.6 964.22 1539.6 407.22 1579.6 403.22"/><polygon class="cls-14" points="1501.6 408.22 1469.6 1021.22 1501.6 1026.22 1539.6 407.22 1501.6 408.22"/><path class="cls-15" d="M273,1306c.49,1.38,19-5.59,41-10,36.48-7.32,66.78-4.45,81-3,22.24,2.27,20.41,4.7,64,11,41.27,6,47.2,4.4,51,3,2.81-1,9.29-3.76,15-1,5,2.42,7.21,8,10,15,3.28,8.26,5.2,13.11,4,17-3.56,11.51-33.53,11.74-45,12-35.3.8-69.94,9.84-105,14-67.14,8-84,13.38-138,16,0,0-12.08,2.25-31,1-8.62-.57-11.49-1.5-14-3-4.49-2.69-8.64-7.7-13-26-2.75-11.54-5-21.48-5-37a164.15,164.15,0,0,1,7-46c5.16-17.45,9.58-22.64,22-51,8.46-19.33,12.73-29.16,15-37,1.13-3.9,3.43-18,8-46,2.4-14.71,6.16-29.21,8-44,1.17-9.43,1.72-16.7,4-17,1.63-.21,3.59,3.21,10,21,7.66,21.26,11.5,32.06,12,40,.78,12.55-2.42,12.06-2,29,.22,8.93.72,29.27,9,32,5.48,1.81,11-5.24,14-3,2.41,1.79.67,7.59-2,17-8,28-8.68,33.14-7,39,.69,2.4,3.09,10.75,10,14,9.82,4.62,20.21-5.09,26,0,3.18,2.79,3.14,8.44,2,12-2.16,6.75-9.3,9.2-20,14C288.55,1295.93,272.54,1304.68,273,1306Z" transform="translate(-152.4 -429.78)"/><path class="cls-15" d="M536,1296c-.17-6.43,3.89-11.71,12-22a114.88,114.88,0,0,1,18-19c12.28-10.18,26.12-17.23,27-16,.75,1.05-7.6,8.78-10,11-6,5.54-8.36,6.66-8,8,.88,3.27,16.42,1.81,25,1,6.71-.63,10.67-1.3,27-4,25.82-4.27,26.13-4.3,28-5,7.92-3,13.27-6.61,24-8,5.22-.68,8.23-.37,11,1,5,2.49,9.15,8.43,9,14-.23,8.68-10.74,14.52-26,23a136,136,0,0,1-25,11c-12.35,4-21.11,4.9-21,6,.09.88,5.63.63,20,1,22.89.58,25.08,1.61,33,0,7.08-1.44,11.05-3.43,12-2,1.46,2.2-5.7,10.18-12,15-9.85,7.54-18.41,7.94-48,11-37.64,3.89-56.46,5.83-57,6-8.58,2.67-17.85,6.55-24,2-3-2.2-2.66-4.48-8-17C537.5,1300.11,536.11,1300,536,1296Z" transform="translate(-152.4 -429.78)"/><path class="cls-15" d="M953,1002c-1.18-1.82-1.89-4.88,6-22,5.51-12,8.36-18,13-23,3.19-3.41,8.44-8.91,17-12,7.56-2.73,13.68-2.12,25-1,8.88.88,14.91,2.64,23,5,9.16,2.67,13.75,4,14,6s-2.77,5-30,16c-26.83,10.83-27.61,9.5-33,14-11.45,9.56-12.94,19.73-23,21C960.9,1006.52,955.32,1005.55,953,1002Z" transform="translate(-152.4 -429.78)"/><path class="cls-15" d="M977,1017c.29-2.24,1.68-10.51,16-22,10.14-8.15,19.28-11.9,32-17,17.71-7.11,28-8.61,31-9,8.56-1.13,15.21-1.93,23,1,5.43,2,17.28,8.11,17,15-.31,7.6-15.07,8.52-48,24-6.91,3.25-21.36,10.3-42,18-12.2,4.55-21.19,7.31-26,3C975.82,1026.26,976.75,1018.94,977,1017Z" transform="translate(-152.4 -429.78)"/><path class="cls-15" d="M1021,884c3.53-3.27,5.65-2.25,13-6,4.76-2.43,4.13-3,12-8,7.46-4.75,11.28-7.14,16-8a22.53,22.53,0,0,1,13,1c6.13,2.55,12.31,8.82,11,13-.59,1.87-2.61,3.11-10,5-11.38,2.91-15.32,2.21-25,4-7.58,1.4-14.72,2.71-23,7-7.17,3.71-10.45,7.19-12,6C1014.07,896.52,1016,888.67,1021,884Z" transform="translate(-152.4 -429.78)"/><path class="cls-15" d="M1048,912c.24-.8,5.14,1.33,12,0a28.2,28.2,0,0,0,11-5c9.83-6.74,13.23-15.42,14-15s-1.67,9.66-9,17c-2.6,2.6-7.66,7.68-15,8S1047.72,912.92,1048,912Z" transform="translate(-152.4 -429.78)"/><path class="cls-15" d="M1065,944c-.18-2.52,7.88-5,24-10a274.47,274.47,0,0,1,27-7c12.5-2.53,19.49-3,27-2,3.18.42,9.91,1.31,10,3,.14,2.44-13.74,5.19-33,9-21.78,4.31-23.85,3.5-30,7a25.9,25.9,0,0,1-11,4C1072.54,948.63,1065.18,946.46,1065,944Z" transform="translate(-152.4 -429.78)"/><path class="cls-15" d="M1092,953c6.11-5.24,13.21-6.33,17-7,15.26-2.7,11.49-4.8,32-9,13.79-2.82,19-2.6,23-2a47.28,47.28,0,0,1,13,4c4.91,2.19,9.13,4.08,9,6-.16,2.37-6.84,3.67-21,6-30.9,5.09-27.08,3.5-40,6-2.88.56-10.92,1.37-27,3-4.15.42-9.2.89-10-1S1091,953.84,1092,953Z" transform="translate(-152.4 -429.78)"/><path class="cls-15" d="M1111,979c.09-2.14,2.07-4.71,13-9,7.86-3.08,18-7,34-8,14-.91,21.1,1.08,24,2,2,.63,13.26,4.22,13,8-.09,1.34-1.66,3.22-18,7-20,4.62-20.21,2.41-37,6-10.44,2.23-16.54,4.42-23,1C1116.18,985.57,1110.85,982.66,1111,979Z" transform="translate(-152.4 -429.78)"/><path class="cls-15" d="M821,1191a83.73,83.73,0,0,1,9-28c6.5-12,14.36-18.86,20-24,17.78-16.19,33.25-34.75,50-52,23.34-24,35.05-36.15,37-41,1.28-3.18,4.84-12.86,10-13,2.85-.08,4.38,2.8,10,8,7.73,7.15,11.14,7.54,13,10,7.74,10.24-20.39,44.46-37,65-35.21,43.55-52.82,65.33-64,83-22.22,35.12-26.63,54.26-35,53C823.14,1250.37,817.39,1216.18,821,1191Z" transform="translate(-152.4 -429.78)"/><path class="cls-15" d="M774,1101c5.8,6.21,11.08,12.91,17,19,7.15,7.35,11,10.55,10,13-1.34,3.32-10.51,2.64-19,2-9.13-.68-12.89-2.45-14-3-2.65-1.31-9.52-4.72-10-10-.32-3.51,2.48-4.6,5-10a29.42,29.42,0,0,0,2-18c-1.74-8.15-7.31-13.48-11-17-7.43-7.1-12.7-7.52-14-13-.95-4,.53-9.41,3-10C748.69,1052.64,752.88,1078.38,774,1101Z" transform="translate(-152.4 -429.78)"/><path class="cls-16" d="M367,962c.78-1.12,1.93-.18,13-1,12.2-.9,16.17-2.44,19-4,3.68-2,3.42-3,6-4,7.92-3.1,17.31,3.27,20,5,22.32,14.33,70.7,21.53,93,23,12.92.85,28.95.56,46-6,8.78-3.38,19-7.48,23-17,3.44-8.22-.41-14.24,4-18,5.67-4.84,17.69.3,24,3a63.11,63.11,0,0,1,17,11,77.13,77.13,0,0,1,17,22c8.45,15.92,9.78,28.48,13,44,.49,2.37,6.53,30.85,18,58,14.5,34.31,29.8,47.86,24,56-2.3,3.23-5.82,2.65-31,3-29.78.42-40.84,1.46-53,6-12.95,4.83-17.07,9.87-19,13-3.39,5.5-2.73,9.48-4,22-1.79,17.61-2.69,26.42-7,33-5.42,8.28-14.19,10.76-30,15-17.1,4.58-23.17,3-61,5-25.84,1.38-31,2.55-37-2-7.49-5.63-9.1-16.16-12-37-3-21.34-6.08-42.66-9-64-3.52-25.74-5.49-40.09-11-59-5.12-17.55-10.64-36.49-24-57C387.44,983.51,363.52,967,367,962Z" transform="translate(-152.4 -429.78)"/><path class="cls-16" d="M642,926c.53-2.71,5.83-1.61,16-7a62.11,62.11,0,0,0,16-12c7-7.37,7.24-11.67,11-12,4.43-.38,8.31,5.21,13,12,6.34,9.17,5.21,11.69,11,20,6.23,8.93,10.95,10.9,10,14-1.26,4.12-10.79,4.62-18,5a91.81,91.81,0,0,1-29-3C659,939.26,641,931.1,642,926Z" transform="translate(-152.4 -429.78)"/><path class="cls-16" d="M684,997c1.93-2.15,6.47-1,14,1a111.84,111.84,0,0,1,21,8c20.12,9.58,33.23,9.43,33,12-.2,2.27-10.46,2.91-28,4-21.89,1.36-25.9-.06-29-2C685.44,1014,680.65,1000.72,684,997Z" transform="translate(-152.4 -429.78)"/><path class="cls-16" d="M705,1070c1.18-2,10.38,1.27,18,4a95.76,95.76,0,0,1,20,10c6.73,4.22,10.46,6.56,10,8-.76,2.36-12.68,1.74-23-2C715,1084.58,703.47,1072.62,705,1070Z" transform="translate(-152.4 -429.78)"/><path class="cls-16" d="M312,1102c-.69-1.34,8-7.22,20-15,14.32-9.32,21.47-14,27-17,13-7.07,30-14.76,31-13,.83,1.42-10.55,5.82-21,19-11,13.86-12.11,26.28-20,27-3.61.33-4.07-2.2-10-4C325.42,1094.89,312.83,1103.62,312,1102Z" transform="translate(-152.4 -429.78)"/><path class="cls-16" d="M328,1203c-1.6-2.08,8.15-11.57,21-26,3.27-3.67,13-14.58,21-25,17.3-22.49,22.95-37.86,25-37s.36,19.3-10,36c-10.2,16.44-21.59,19.73-23,34-.6,6.11.77,12.72-3,15-2.52,1.52-4.95-.33-10-1C337.18,1197.44,329.42,1204.85,328,1203Z" transform="translate(-152.4 -429.78)"/><path class="cls-16" d="M307,1003c.37-1.2,8.71,1.24,21,2,9.93.61,17.51,1.08,26-2,9.09-3.3,13.12-8.46,15-7,2.28,1.77-1.6,10.94-5,17-7.17,12.8-12.73,12.71-29,31-3.85,4.33-6.52,7.68-8,7-1.69-.78,2.12-7.62,2-18,0-3.71-.13-10.83-4-17C318.82,1006.14,306.56,1004.42,307,1003Z" transform="translate(-152.4 -429.78)"/><path class="cls-16" d="M246,947c1.2-1,6.88,6.34,19,13,5.49,3,16.8,9.23,31,9,11.64-.19,12.76-4.5,23-4,15,.73,28,10.79,27,14-.85,2.69-10.91-1.41-30,1-12.63,1.6-27.18,3.43-36,14-3.7,4.44-5.6,9.46-8,9-2.79-.54-3.22-7.94-4-13C264.1,964.57,244,948.72,246,947Z" transform="translate(-152.4 -429.78)"/><path class="cls-17" d="M315,1065c3.82-5.9,10-5.81,19-10,5.46-2.54,9.31-5.69,17-12,14.72-12.08,21.11-22.62,22-22s-4.49,16.06-18,29-22.12,11.11-35,26c-6.65,7.69-10.8,15.63-12,15-.74-.39.63-3.58,4-16C314.27,1066.65,314.11,1066.37,315,1065Z" transform="translate(-152.4 -429.78)"/><path class="cls-17" d="M352,1126c-2.92,3.72.77,7.09-1,18-1,5.9-2.92,10.31-5,15-4.37,9.84-8.61,14.49-8,15,1,.82,12.43-10.56,23-23,3.6-4.24,3.64-4.52,15-19,11.68-14.88,17.72-22.33,17-23s-6.78,9.07-19,13C362.76,1125.62,355.75,1121.22,352,1126Z" transform="translate(-152.4 -429.78)"/><path class="cls-17" d="M278,1013c-1.12-.84,1.73-8.76,8-14,5.68-4.75,12.15-5.61,15-6,27.27-3.76,45.79-9.16,46-8,.25,1.37-25.61,8.61-39,12-5.21,1.32-11.17,2.72-18,7C282.48,1008.71,279,1013.73,278,1013Z" transform="translate(-152.4 -429.78)"/><path class="cls-18" d="M345,1254c-.7-.72.84-3.77,3-6,3-3.11,5.34-2.68,9-5,5.61-3.56,7.52-9.28,8-9s-5.55,7.66-4,15c.22,1.06.63,2.21,0,3-1.3,1.62-4.84-1-10,0C347.4,1252.7,345.63,1254.65,345,1254Z" transform="translate(-152.4 -429.78)"/><path class="cls-18" d="M369,1277c-.81-1.86,2-4.23,4-7,7.47-10.23,3.19-23.95,4-24s-.06,18.51,0,29a4.06,4.06,0,0,1-1,3C374.2,1279.68,369.83,1278.9,369,1277Z" transform="translate(-152.4 -429.78)"/><path class="cls-17" d="M665,948c1-.87,3.22,1.9,11,5a61.65,61.65,0,0,0,16,4c10.52,1.08,17.51-1.52,18,0,.36,1.09-3.29,2.3-8,7-3.11,3.1-6.45,6.44-7,11-.65,5.43,3.09,9,2,10s-7.07-2.56-13-8C671.32,965.37,662.75,949.92,665,948Z" transform="translate(-152.4 -429.78)"/><path class="cls-17" d="M689,1022c1.15-.89,4.68,4.32,12,8,5.68,2.86,10.87,3.28,21,4,10.91.78,19.94.26,20,1s-11.69-.13-17,7c-1.67,2.24-1.91,4.21-4,5-2.65,1-5.24-1.05-10-4-11.67-7.22-14.06-6-18-11C689.79,1027.94,688,1022.81,689,1022Z" transform="translate(-152.4 -429.78)"/><path class="cls-17" d="M711,1088c.89-.75,3.86,3.37,11,7,9.6,4.88,19.09,5,19,6s-7.15-.29-9,3c-1.64,2.91,2.1,7,1,8s-7-2.82-12-8C714.6,1097.39,709.79,1089,711,1088Z" transform="translate(-152.4 -429.78)"/><path class="cls-19" d="M218,981c-2.93-2.7-4.62-6.13-8-13-3-6.1-4.5-9.15-5-13-.67-5.18.34-8.91,2-15,.79-2.91,1.24-3.66,2-4,3-1.34,8.54,5,12,9a69.31,69.31,0,0,1,11,16c4.83,9.85,2.88,11.79,8,20,2.57,4.12,4.9,6.58,4,8-1.18,1.84-6.77.22-11-1C226.61,986.15,222.21,984.88,218,981Z" transform="translate(-152.4 -429.78)"/><path class="cls-19" d="M167,1013c.12-1,4.15-.65,13-2,7.79-1.19,12-1.83,17-4,7.34-3.2,7.68-5.95,12-6,4.14,0,5.56,2.45,13,7a93.09,93.09,0,0,0,17,8c11.16,4.17,18,4.29,18,6s-7.07,3.29-12,4c-10,1.44-16.44.17-37-3-11.49-1.77-15.64-2.32-23-4C180.92,1018.07,166.77,1014.85,167,1013Z" transform="translate(-152.4 -429.78)"/><path class="cls-19" d="M224,1070c-5.18,3.65-5.56,5.77-10,10-8.83,8.42-13.7,6.13-24,15-4.45,3.83-10.26,10.05-9,12,.66,1,3,.35,13-2,13.41-3.14,12.75-2.74,17-4a126.38,126.38,0,0,0,16-6c5.52-2.37,6.33-3,7-4,2.88-4.11-.62-7.85,1-16,1.24-6.24,4.2-8.66,3-10C236.31,1063.11,229.09,1066.42,224,1070Z" transform="translate(-152.4 -429.78)"/><path class="cls-16" d="M614,1239l3-26,5.55-38.83a12.91,12.91,0,0,1,11.69-11L801,1149l-160.5,21.84a12.91,12.91,0,0,0-10.72,9.44Z" transform="translate(-152.4 -429.78)"/><path class="cls-20" d="M346,1640c-1.9-4.82,1.1-7.31,11-30,1.81-4.16,8.81-20.17,15-37,7.32-19.9,7.14-23.55,12-27,8.63-6.13,18.46-1.18,36,2,27.47,5,24.62-3.29,78-2,25.91.63,32.36,2.71,45-2,10.65-4,19.7-10.54,24-7,1.72,1.42,2,3.93,1,15-2,21.12-4.28,24.28-2,28,4,6.59,16.7,5.54,33,4,13.28-1.25,27.48-2.59,45-10,15.22-6.44,26-14.54,44-28,9.3-7,13-11.82,14-11,2.21,1.75-10.1,26.47-31,47-12.52,12.3-14.29,9.49-45,34-16.74,13.36-18.13,15.72-28,22-15.71,10-29.19,14.84-41,19-12.64,4.45-31.75,11.18-57,13-30.85,2.22-47.74-4.55-50,1s12.55,19,28,25c19,7.34,40,4,46,3,11.45-1.84,19-5,20-3,1.07,2.17-6.57,9-15,13-11.24,5.35-21,4.34-21,5,0,.93,19.18,2.5,57,2,43.23-.57,52.42-3.08,60-6,16.44-6.34,27.41-15.5,34-21,5.1-4.26,16.74-14,15-17s-15.44,3.37-42,10c-2.95.73-38.77,9.59-40,6-.88-2.56,16.85-8.2,42-26,7.15-5.06,13.1-10,25-20,19.56-16.37,29.48-24.75,36-34,9.83-14,11.3-23.51,15-23,5.08.7,6.5,19.32,8,39a403.67,403.67,0,0,1,1,45c-.66,17.77-2.44,29.52-6,53-2.83,18.67-4.33,23.87-9,28-8.93,7.9-22.2,5.42-34,4-18.56-2.23,11.09,3.52-76,2-53-.93-48.58-2.79-83-3-43.75-.27-87.29-6.15-131-8-4.6-.19-14.17-.56-19-7-3.91-5.21-1.31-9.85-5-23-2.75-9.81-5.41-11.51-4-14,3.54-6.27,23.78-1.55,39,2,18.16,4.24,27.3,8.44,28,7,1-2-15.85-13.3-33-22-15.67-7.95-24.42-10.11-24-12,.57-2.61,18.11-2.61,35,2,12,3.28,18.1,7.35,19,6,1.43-2.14-11.13-16.35-29-26C364.51,1645.86,349.83,1649.72,346,1640Z" transform="translate(-152.4 -429.78)"/><path class="cls-20" d="M288,1616c-.83-3.32-.75-8.08,16-32,12.63-18,22-29,22-29,14-16.38,36.75-40.82,39-39,1.69,1.37-11.61,14.78-23,42-7.17,17.13-12.85,30.73-15,50-1.56,14-.08,20.59-5,24C313.22,1638.08,291.27,1629.07,288,1616Z" transform="translate(-152.4 -429.78)"/><path class="cls-20" d="M318,1662c0-1.49-10.94,0-23-6-5.29-2.62-7.32-4.94-9-4-2.95,1.65-.07,10.67,3,25,3.69,17.25,6.28,35.84,7,41,2.41,17.29,2.27,23.64,8,28,4.58,3.49,11.91,4.94,15,2,4.3-4.09-4.2-12.33-4-30,.13-11.84,4.05-16.94,0-23-2.83-4.22-5.81-3.36-11-9-1.14-1.24-9.31-10.13-7-16C299.92,1662.57,318,1663.91,318,1662Z" transform="translate(-152.4 -429.78)"/><polygon class="cls-21" points="1508.6 445.22 1520.6 445.22 1487.6 1011.22 1477.6 1011.22 1508.6 445.22"/><polygon class="cls-21" points="1465.6 440.22 1364.6 991.22 1376.6 991.22 1477.6 445.22 1465.6 440.22"/><polygon class="cls-21" points="1567.6 450.22 1577.6 445.22 1668.6 947.22 1661.6 950.22 1567.6 450.22"/><ellipse class="cls-13" cx="1517.1" cy="418.22" rx="68.5" ry="15"/><path class="cls-22" d="M1531.5,724.5h-57c-26,0-28,83,0,82h57Z" transform="translate(-152.4 -429.78)"/><polygon class="cls-22" points="1486.1 173.72 1438.1 176.72 1438.1 220.72 1486.1 216.72 1486.1 173.72"/><path class="cls-23" d="M1745.57,824,1500.5,848a12,12,0,0,1-12-12V667a12,12,0,0,1,12-12l242.93-23.82c6.47-.63,86.07,6.32,91.07,17.32L1755.5,813A11,11,0,0,1,1745.57,824Z" transform="translate(-152.4 -429.78)"/><path class="cls-23" d="M1570.5,674.5l7,186-81-13c-4-1-8-5.4-8-12v-159c0-6.6.4-20,7-20" transform="translate(-152.4 -429.78)"/><path class="cls-22" d="M1826.57,837,1581.5,861a12,12,0,0,1-12-12V680a12,12,0,0,1,12-12l242.93-23.82a11,11,0,0,1,12.07,10.95V826A11,11,0,0,1,1826.57,837Z" transform="translate(-152.4 -429.78)"/><path class="cls-24" d="M1757.82,831.86l-163.57,16A10.28,10.28,0,0,1,1584,837.64V693.33a10.28,10.28,0,0,1,10.25-10.25l161.33-15.82A11,11,0,0,1,1767.65,678l.1,142.86A11,11,0,0,1,1757.82,831.86Z" transform="translate(-152.4 -429.78)"/><path class="cls-25" d="M1692,750.25c1.9.39,2.24,2,5.35,6.12,1.16,1.54,3.08,3.65,6.91,7.87,1.48,1.63,2.92,3.17,4.78,5,1.59,1.55,1.42,1.29,1.8,1.73,3,3.46,3,7.9,3,9.26,0,2.11,0,4.29-1.49,5.89a5.76,5.76,0,0,1-2.57,1.52,5.61,5.61,0,0,1-2.83-.11,16.17,16.17,0,0,1-5.78-2.91A51.36,51.36,0,0,1,1690.11,771a40,40,0,0,1-3-6.67c-1.4-4.21-2.86-8.58-.65-11.58A6,6,0,0,1,1692,750.25Z" transform="translate(-152.4 -429.78)"/><path class="cls-25" d="M1707.88,782c-.87-3.82-1.52-3.25-2.07-6.29a15.42,15.42,0,0,1-.07-6.22,15.84,15.84,0,0,1,2.36-5.38c.36-.58.63-1,4.36-5.32,1.61-1.88,2.83-3.29,4.25-5.19.5-.66,1-1.48,2.08-3.12a8.17,8.17,0,0,0,1.11-2.1c.22-.7.15-.91.38-1.09.75-.62,2.86.68,4,1.65a6.36,6.36,0,0,1,2.41,3.44,5.33,5.33,0,0,1,0,2.35c-1,4.65-2.75,10.35-2.75,10.35a67.1,67.1,0,0,0-2.22,8.3,23.88,23.88,0,0,1-1.33,5.05,20.24,20.24,0,0,1-1.91,3.69,17,17,0,0,1-4.76,4.76c-1,.7-4.12,1-4.86.89-.52-.1,1.41-.42.7-1.47A11.59,11.59,0,0,1,1707.88,782Z" transform="translate(-152.4 -429.78)"/><path class="cls-25" d="M1719.89,749.71a11.39,11.39,0,0,1-.48-2.78,9.86,9.86,0,0,1,0-3.05,6.28,6.28,0,0,1,1.38-3.06,6.57,6.57,0,0,1,3.36-1.94,9.38,9.38,0,0,1,4.44-.27,5.84,5.84,0,0,0,1.55.22,7.07,7.07,0,0,0,1.05-.09c.42,0,1.11,0,3.07,1.5a27.7,27.7,0,0,1,2.8,2.46,14,14,0,0,1,2.11,2.64,1.84,1.84,0,0,1,.36,1.5,1.39,1.39,0,0,1-.53.63,4.83,4.83,0,0,1-1.81.86,32.26,32.26,0,0,0-6.14,2.41c-1.73.8-2.6,1.22-3.23,2a11.31,11.31,0,0,0-1.52,2.84c-.39,1-.4,1.53-.69,1.59-.53.11-.93-1.44-2.29-3.33C1721.6,751.51,1720.56,751.61,1719.89,749.71Z" transform="translate(-152.4 -429.78)"/><path class="cls-25" d="M1721.16,741.37c-.11-.32.32-.48,1.64-2.73.26-.43.61-1,1-1.85a22.11,22.11,0,0,0,1-2.2,12.71,12.71,0,0,1,.48-1.22,7.85,7.85,0,0,1,.72-1.24c.51-.67.85-.62,2.11-1.48a14.69,14.69,0,0,1,2.33-1.61,2.46,2.46,0,0,1,1.5-.36,2.55,2.55,0,0,1,1.66,1.5,3.31,3.31,0,0,1,.09,2.34,4.18,4.18,0,0,1-2,2.41,4.39,4.39,0,0,1-1.25.46,9.28,9.28,0,0,1-.47,4C1729.05,742.19,1721.63,742.74,1721.16,741.37Z" transform="translate(-152.4 -429.78)"/><path class="cls-25" d="M1730.46,735.39a4.88,4.88,0,0,1-2.36-.15" transform="translate(-152.4 -429.78)"/><path class="cls-25" d="M1731,739c0-.21.19-.43,1.89-1.22a21.77,21.77,0,0,1,3.41-1.35,22.68,22.68,0,0,1,2.77-.59,7.76,7.76,0,0,1,2.22-.19,3.25,3.25,0,0,1,2.06.76,2.26,2.26,0,0,1,.7,1.35c.07,2.1-6.61,5.57-10.86,3.53C1732.18,740.81,1730.79,739.8,1731,739Z" transform="translate(-152.4 -429.78)"/><path class="cls-25" d="M1733.58,740.88c-.13-.76,1.58-1.66,3.75-2.79a14.06,14.06,0,0,1,4.45-1.56,5.65,5.65,0,0,1,3.06.09c.38.14,2,.73,2.3,2.15a2.5,2.5,0,0,1-.21,1.66c-.53,1-1.86,1.43-5.28,1.52C1739,742,1733.81,742.14,1733.58,740.88Z" transform="translate(-152.4 -429.78)"/><path class="cls-25" d="M1735.89,743a12.47,12.47,0,0,1,3.19-2.51,10,10,0,0,1,5.18-1.27,6,6,0,0,1,2.16.52,2.82,2.82,0,0,1,1.51,1.16,2.38,2.38,0,0,1,.15,1.75,3.37,3.37,0,0,1-1.84,1.81,34.93,34.93,0,0,1-5.88,2.74,48.37,48.37,0,0,1-4.83,1.24c-1.86.42-2.23.45-2.45.21C1732.35,747.89,1734.15,744.9,1735.89,743Z" transform="translate(-152.4 -429.78)"/><path class="cls-25" d="M1670.46,735.54c.73.74,2.06,2.32,4.38,4.44a15.24,15.24,0,0,0,3.52,2.63c1.35.69,1.87.64,2,1,.33,1.27-5.07,5-11.26,5.68-2.14.24-5.65-.57-12.65-2.19-1.35-.31-5.66-1.33-5.62-2.45,0-.32.37-.45,1.07-1.27a12,12,0,0,0,1.34-2.12,14.77,14.77,0,0,0,1.2-6.45c0-1.49-.07-1.49.08-1.77C1655.87,730.43,1665.72,730.74,1670.46,735.54Z" transform="translate(-152.4 -429.78)"/><path class="cls-26" d="M1677.37,740.7c.11-.36.7-.21,1.33-.94.49-.56.35-.9.93-1.49a2.17,2.17,0,0,1,1.12-.68,2.06,2.06,0,0,1,1.19.13,3.41,3.41,0,0,1,1.67,1.62,3.81,3.81,0,0,1,.69,2.53,2.79,2.79,0,0,1-.9,1.84C1681.53,745,1677.06,741.75,1677.37,740.7Z" transform="translate(-152.4 -429.78)"/><path class="cls-26" d="M1678.77,740.58c.33-.23.73-.17,1.93-.76a12.58,12.58,0,0,0,3.11-2.15,8.3,8.3,0,0,0,1.18-1.28,6.21,6.21,0,0,1,.84-1.13,2.68,2.68,0,0,1,1.12-.68c1-.22,2,.91,2.6,1.54,1.36,1.49.83,2,2.35,4a2.91,2.91,0,0,1,.71,1.47,3.12,3.12,0,0,1-.43,1.8c-.46.85-.84.83-1.15,1.63a1.93,1.93,0,0,0-.11,1.42c.18.44.59.66,1.26.95,1.27.55,2.84,1.06,4.13,1.52a2.43,2.43,0,0,1,1.25.83,1.67,1.67,0,0,1,.33,1.15,1.86,1.86,0,0,1-.73,1.12c-1.28,1.18-2,1-2.66,1.88a2,2,0,0,0-.44,1.68c.18.47.59.51,2.23,1.33,1.33.67,1.74,1,2,1.47a1.42,1.42,0,0,1,.22,1.16c-.17.43-.71.63-1.56,1-.7.27-1,.29-1.13.57a1.1,1.1,0,0,0,.2.92c.3.47.63.44,1.38,1.06.41.33.62.51.65.77s0,.41-.61,1.11a5.07,5.07,0,0,1-1.43,1.18,6.53,6.53,0,0,1-3.24.63C1688.18,766.44,1675.46,742.84,1678.77,740.58Z" transform="translate(-152.4 -429.78)"/><path class="cls-26" d="M1682.89,742a10.58,10.58,0,0,1,2.55,3.66c.87,1.75.86,2.34,2,5.24.5,1.28.9,2.19,1.33,3.18,1.54,3.5,2.21,4.4,4,8.35.77,1.69,1.16,2.53,1.47,3.4a28.89,28.89,0,0,1,1.53,6.8c.75,6.58-.46,16.5-4.39,26.6-1.28,3.27-1.81,3.94-2.32,4.43-4,3.91-11.64,2.36-18.73.92-3.66-.74-5.5-1.11-7.6-2.28-1.62-.9-5.16-3.18-9.29-10.83-2.21-4.1-3.34-7.72-5.52-14.81-6.28-20.46-3.86-22.87-4.76-26.39a2.53,2.53,0,0,1,.08-1.77c.26-.51.69-.77,1.43-1.18,1.42-.8,2.26-1.24,2.81-1.54a22.9,22.9,0,0,0,2.67-1.76c1.37-1.05,2.42-2,2.85-2.36.77,2,10.15,4.89,15.63,4.05,3.6-.55,8.93-2.77,6.08-5.82a13.11,13.11,0,0,0,1.67.33c1.12.07,1.54-.17,2.46-.1a5.4,5.4,0,0,1,1.44.35" transform="translate(-152.4 -429.78)"/><path class="cls-27" d="M1655.62,797.61c-2.78,5.63-6.22,15-6.22,15-2.62,7.13-3.06,8.43-3.42,10.76a29.1,29.1,0,0,0-.34,7c.37,4.82,2.94,11.56,3,11.73l50.76-4.4c.17-.3.3-.61.3-.61a7.81,7.81,0,0,0,.45-1.57,50,50,0,0,0,.88-10.19c-.6-9.54-4.57-16.59-7.26-25.47a14.24,14.24,0,0,0-1.19-2.84,12.38,12.38,0,0,0-3.92-4.48c-1.6-.93-3.29-.9-9.48.47-8.79,1.94-7.69,2.37-9.9,2.39-5.11,0-10.8-2.27-11.94-.73l-.42.62S1656.23,796.37,1655.62,797.61Z" transform="translate(-152.4 -429.78)"/><path class="cls-27" d="M1653.47,798.62c.17,1.06,4.25,1.36,9.67,1.75a57.75,57.75,0,0,0,8.24.11,53.52,53.52,0,0,0,13.65-2.59c3.92-1.34,2.25-1.33,9.38-4.34.73-.31,1.13-.47,1.12-.68,0-1.19-11.93-2.67-23.59-.89C1662.55,793.39,1653.21,797,1653.47,798.62Z" transform="translate(-152.4 -429.78)"/><path class="cls-28" d="M1658.93,803.32a56.62,56.62,0,0,1-3,12.84,49.43,49.43,0,0,0-2.51,10.33,27.12,27.12,0,0,0-.1,2.95,25.35,25.35,0,0,0,.23,2.68c.18,1.36.45,3.29.85,5.69" transform="translate(-152.4 -429.78)"/><path class="cls-28" d="M1650.11,827.6c1.25.46,2.62.9,4.11,1.29,1,.27,2,.5,3,.68" transform="translate(-152.4 -429.78)"/><path class="cls-28" d="M1652.08,831.42c.71,0,1.46,0,2.24,0s1.44,0,2.11-.07" transform="translate(-152.4 -429.78)"/><path class="cls-28" d="M1674.13,830.8a33.18,33.18,0,0,0,5.72-1.79,18.3,18.3,0,0,0,5.27-2.93,14.93,14.93,0,0,0,3-3.43" transform="translate(-152.4 -429.78)"/><path class="cls-28" d="M1680.85,831a12,12,0,0,0,2.6.13,12.75,12.75,0,0,0,2.66-.47,13.16,13.16,0,0,0,1.37-.47" transform="translate(-152.4 -429.78)"/><path class="cls-29" d="M1646.65,749.83c-2.11-1.74-5.64.31-8.88-2.05-1.47-1.07-3.31-1.6-4.71-2.77a1.35,1.35,0,0,0-1-.39c-.75.09-1.3,1.17-1.47,2a4.78,4.78,0,0,0,.77,3.46c.48.71,1,1.1,1,1.8a1.57,1.57,0,0,1-.4.86c-.49.59-1.06.6-2.38,1s-1.85.61-2.25,1.14a2.25,2.25,0,0,0-.44,1.68c.18.84,1,1.27,2.41,2a41.32,41.32,0,0,0,3.93,1.89c.38.14.94.34,1,.74s-.35.72-.84,1.13a27.57,27.57,0,0,0-3.16,2.86c-.58.68-1,1.23-.9,1.84s.87,1,1.16,1.19a5.28,5.28,0,0,0,1.92.42c1.23.14,1.46,0,1.91.3a2,2,0,0,1,.92,1.1,3.1,3.1,0,0,1-.73,2.41c-.43.6-.8.8-.73,1.12,0,.17.2.38,1,.62a6.68,6.68,0,0,0,2.49.25C1640.14,774.07,1651.8,754.08,1646.65,749.83Z" transform="translate(-152.4 -429.78)"/><path class="cls-25" d="M1644.44,751.44c-1.69.28-2.9,1.75-4,3a13.33,13.33,0,0,0-2.59,5.4c-.56,2.16-.2,2.52-.57,7a52.9,52.9,0,0,1-.84,6.54,49.22,49.22,0,0,1-1.89,6.63c-1.55,4.56-2.26,5.24-2.71,8.11a17.7,17.7,0,0,0-.19,4.6c.06.65.14,1.09,2.27,7.21.74,2.12,1.23,3.48,2.62,4.48a5.24,5.24,0,0,0,1.35.71c3.09,1,9.56-3.3,11.53-9.35.9-2.75.15-3.67,1.63-11.07.06-.28.26-1.23.67-3.11,2.21-10.21,2.24-10.07,2.35-10.9.37-2.79,1-7.32-1.15-11.89C1651.4,755.45,1647.84,750.88,1644.44,751.44Z" transform="translate(-152.4 -429.78)"/><path class="cls-28" d="M1640.36,757.2c.19.21,1.4-.23,1.61-.38,1.55-1.08,1.78-1.89,3-3.32.33-.39.47-.52.42-.62-.15-.31-1.84-.05-3.1.86S1640,756.78,1640.36,757.2Z" transform="translate(-152.4 -429.78)"/><path class="cls-30" d="M1651.93,786.29c-.17-.09-.12-.57,0-1.53a9.45,9.45,0,0,1,.87-3.49c.37-.74.72-1.43,1.06-1.38.52.07,1,1.89.54,3.48C1653.9,785.14,1652.37,786.52,1651.93,786.29Z" transform="translate(-152.4 -429.78)"/><path class="cls-26" d="M1653.12,752.56a21.75,21.75,0,0,1,4.06,11.52,38.49,38.49,0,0,1-.54,7.34c-.29,2.05-.61,3.51-1,6.67a35.57,35.57,0,0,0,0,5.17,5.76,5.76,0,0,0,.58,2.65c.59,1.08,1.35,1.43,1.21,1.78-.21.52-2.07.23-3.18-.08-.85-.24-2.35-.66-2.49-1.55a1.61,1.61,0,0,1,.38-1.09c.31-.42.6-.47,1.31-1.17.35-.34.42-.47.42-.62,0-.35-.41-.66-.77-.76a1.61,1.61,0,0,0-.93.08c-.71.2-.8.49-1.14.45a1.23,1.23,0,0,1-.92-1.1c0-.5.28-.88.81-1.48.7-.79,1.16-.94,1.73-1.8a1.13,1.13,0,0,0,.28-.85c-.09-.45-.61-.68-.77-.76a2.92,2.92,0,0,0-2.11.07c-.57.19-.58.32-1.36.59s-1,.34-1.27.23c-.69-.31-.65-1.73-.64-1.94a6.35,6.35,0,0,1,.84-2.54,22.54,22.54,0,0,0,1.39-2.94,13.06,13.06,0,0,0,.39-2.27,4.45,4.45,0,0,0,0-1.76c-.11-.41-.21-.84-.56-1-.13-.06-.35-.11-1.5.36a7.92,7.92,0,0,1-1.48.6,2,2,0,0,1-1.42-.11,2.15,2.15,0,0,1-.74-1.7,8.65,8.65,0,0,1,.75-3.59,10.43,10.43,0,0,0,.73-2.41,6,6,0,0,0,0-1.76,5,5,0,0,0-.62-1.71,2.2,2.2,0,0,0-.65-.77,1.31,1.31,0,0,0-1.08-.26c-.36.13-.51.54-.73,1.12-.3.82-.16,1.07-.46,1.45a1.36,1.36,0,0,1-1.13.57c-.57-.09-.83-.85-1.36-2.12-.08-.2-.58-1.26-1.59-3.39s-1.53-3-1.69-3.26a13.3,13.3,0,0,0-1.35-2c-1.25-1.47-1.92-1.83-2.51-1.78.68-.29,2.74.81,6.42,2.15a10.05,10.05,0,0,0,3.12.79c1.94.1,2.82-.56,3.94-.69a5,5,0,0,1,3.47,1.12" transform="translate(-152.4 -429.78)"/><path class="cls-28" d="M1653.9,783.18c0-.4,0-1,.09-1.65s.16-2.22.39-3.68a27.22,27.22,0,0,1,1.23-4.81" transform="translate(-152.4 -429.78)"/><path class="cls-28" d="M1653,777.85c.18-.9.37-1.63.52-2.16a12.79,12.79,0,0,1,1.45-3.65,9.43,9.43,0,0,1,.95-1.26" transform="translate(-152.4 -429.78)"/><path class="cls-25" d="M1636.9,798.65a13.52,13.52,0,0,1,1.82-4.74,16.37,16.37,0,0,1,5.15-5.74,17,17,0,0,1,5.79-2.38,25.39,25.39,0,0,1,7.7-.67c1.7.07,3.71.34,7.72.86a18.71,18.71,0,0,0,3.9.25,27.24,27.24,0,0,0,4.06-.59,8.77,8.77,0,0,1,3-.5,4.64,4.64,0,0,1,2.17.63c1.83,1.19,2.44,4.3,1.37,6.35-.2.38-.65,1.1-3.08,2.5a30.87,30.87,0,0,1-5.55,2.48c-3.61,1.27-3.73,1.93-7.79,3.73-1.64.73-6.09,1.91-14.92,4.23a22.56,22.56,0,0,1-7.48.53,4.61,4.61,0,0,1-2.9-.92C1636.16,803.12,1636.67,800,1636.9,798.65Z" transform="translate(-152.4 -429.78)"/><path class="cls-25" d="M1670.93,787.11c-.11-.44,1.61-.79,2.69-2.82.4-.75.28-.92.78-1.83a10,10,0,0,1,2-2.53,13.49,13.49,0,0,1,3-2.14,4.09,4.09,0,0,1,2.17-.78,3.25,3.25,0,0,1,2.54,2.13c.86,2.46-2.19,5.32-2.68,5.76C1677.4,788.57,1671.14,787.91,1670.93,787.11Z" transform="translate(-152.4 -429.78)"/><path class="cls-31" d="M1682.53,767.34l20.82-3.41a.82.82,0,0,1,.95.89l-3.22,33.45a1.17,1.17,0,0,1-.88,1l-18.4,4.69a.82.82,0,0,1-1-.81l.77-34.7A1.17,1.17,0,0,1,1682.53,767.34Z" transform="translate(-152.4 -429.78)"/><path class="cls-25" d="M1680.07,778.56a15.73,15.73,0,0,0,2.34-.09,18.44,18.44,0,0,0,2.31-.44c.51-.12.83-.21,3.1-.86a10.89,10.89,0,0,1,2.65-.58,2.19,2.19,0,0,1,2.8,2.46,4.21,4.21,0,0,1-.61,2.4,5.46,5.46,0,0,1-2.64,2.11c-10.44,4.42-15.67,6.63-16.7,5.33C1671.46,786.55,1677.28,778.55,1680.07,778.56Z" transform="translate(-152.4 -429.78)"/><path class="cls-25" d="M1686.44,784.24a8.46,8.46,0,0,1,4.41-2,2.22,2.22,0,0,1,1.79.31c1.11.93.34,3.26.29,3.38a5.64,5.64,0,0,1-2.12,2.65,10.21,10.21,0,0,1-5,1.85c-7.48.88-11.5,1.35-11.72.43C1673.77,789.53,1681.91,788.27,1686.44,784.24Z" transform="translate(-152.4 -429.78)"/><path class="cls-25" d="M1676.12,794.07c1.69.12,1.62.16,2.72.23a34,34,0,0,0,5.64,0c3.54-.34,5.2-1.18,6.07-1.82a3.13,3.13,0,0,0,1.27-1.64,2.55,2.55,0,0,0,0-1.53,3,3,0,0,0-1.05-1.32c-2-1.38-8,1.78-15.61,4.41-.73.25-2.66.91-2.59,1.28S1673.58,793.89,1676.12,794.07Z" transform="translate(-152.4 -429.78)"/><path class="cls-25" d="M1660.75,691.36c.12-.44.38-.4,1.59-2s1.22-2.05,2.09-3a6.48,6.48,0,0,1,3.11-2.15,5.87,5.87,0,0,1,3.42.17,7.52,7.52,0,0,1,3.51,2.52c1.34,1.62,1.74,3.29,2.4,6,.11.44.24,1.34.51,3.13a4.36,4.36,0,0,1,.06,2,3.78,3.78,0,0,1-1.6,1.9C1672.47,702,1659.82,694.64,1660.75,691.36Z" transform="translate(-152.4 -429.78)"/><path class="cls-32" d="M1631.84,726.78a4.82,4.82,0,0,0,4.27-2.25c.83-1.06.88-2.27.86-5,0-4.42-.21-6.42-.22-8a23.47,23.47,0,0,1,1.7-8.85c3.15-7.48,11.28-10.42,13.72-11.3,2.59-.94,8-2.89,14.37-1a21.23,21.23,0,0,1,9.46,6,26.35,26.35,0,0,1,5.53,9.51,59.77,59.77,0,0,1,2,7.71c.66,3.26,1,5.88,2.05,6.05.82.13,1.69-.85,1.79-1.1.39.44.4,6-3.15,7.09a7.8,7.8,0,0,0,3.25-.52c-1.58,3.43-5.06,4-6.67,5.75-.59.66-1.07,2.4-2.41,4.79a5.38,5.38,0,0,1-1.71,2,5.76,5.76,0,0,1-2.75.83c-1.89.19-2.67-.24-4.74-.41a25.38,25.38,0,0,0-3.87.1,64.72,64.72,0,0,0-6.75.82c-7,1.15-15.1-2-16.3-3.64,1-.56,2.78-1.45,2.84-2.48C1637.74,735.2,1632.6,728.71,1631.84,726.78Z" transform="translate(-152.4 -429.78)"/><path class="cls-9" d="M1638.94,727.34c3.64-2.15,0-14.06,1.79-14.62.68-.22,1.21,1.57,2.73,1.64,1.95.1,4-2.7,4.6-5.22a18.56,18.56,0,0,0,.09-4.36c-.11-3.2-.38-3.1-.27-4.44a10.06,10.06,0,0,1,2.63-6.22,9.57,9.57,0,0,1,3.81-2.21,19.6,19.6,0,0,1,10.27-.89,19.25,19.25,0,0,1,9.24,4.84,24.79,24.79,0,0,1,6.7,10.82c1.13,3.2,2.19,13.09,4.16,14.1.77.39,1.27-.23,1.83-.63a3.25,3.25,0,0,1-.47,2.74c-1.32,1.9-3.92,1.74-3.9,2.45,0,.47,1.14,1,2.08,1,.56,0,.89-.17.93-.08s-1.42,1-3.43,2.53a11.21,11.21,0,0,0-2.3,2c-.83,1.11-.64,1.64-1.59,3.31a6.43,6.43,0,0,1-1.68,2.26c-.57.41-1.42.76-5,.44-3.27-.29-3.59-.68-5.7-.68a32.31,32.31,0,0,0-4.31.49,48.16,48.16,0,0,1-6.77.59c-3.31-.05-7.15-1.14-8-1.89a10.3,10.3,0,0,0,1.68-1,9.46,9.46,0,0,0,3-5.67,13.94,13.94,0,0,1-4.44,1.68c-1.85.48-6.07,1.3-9.46-.59-.29-.16-1.37-.94-1.54-1.51A6.26,6.26,0,0,0,1638.94,727.34Z" transform="translate(-152.4 -429.78)"/><path class="cls-10" d="M1655.09,717a5.12,5.12,0,0,0,.45,2.43,5.57,5.57,0,0,0,3.29,2.65,8.2,8.2,0,0,0,5.5-.24,11.86,11.86,0,0,0,4.89-3.25c1.35-1.36,2.12-2.14,2.2-3.13,0-.12,0-.4.19-.49.39-.21,1.47.63,2,1.71.42.8.31,1.29.71,1.47s.79-.18,1.49-.48c1.05-.46,2-.81,2.55-.46.32.19.21.39.65.77a2.28,2.28,0,0,0,1.46.58c.92,0,1.51-.94,1.77-1.33a5.1,5.1,0,0,0,.68-3,6,6,0,0,0-.77-3.46c-.21-.33-.24-.28-1.92-1.83-1.42-1.31-2.13-2-2.3-2.15a11.38,11.38,0,0,0-1.91-1.72c-.49-.35-.67-.41-.86-.4-1,.06-1.57,2.13-1.66,2.5-.55,2.06,0,3.53-.39,3.68-.26.09-.56-.45-1.8-1.73a8.57,8.57,0,0,0-1.79-1.61,4.93,4.93,0,0,0-3.53,0,16,16,0,0,0-4.63,2.17,28.32,28.32,0,0,0-2.89,1.9,9.12,9.12,0,0,0-2.4,2.21A6.32,6.32,0,0,0,1655.09,717Z" transform="translate(-152.4 -429.78)"/><path class="cls-25" d="M1657.36,714.69a4.6,4.6,0,0,0-.05,2.12,4.74,4.74,0,0,0,1.76,2.67,5.69,5.69,0,0,0,4.75.53,8,8,0,0,0,3.81-2.21,8.08,8.08,0,0,0,1.94-3.34,7.15,7.15,0,0,0,.13-3.89,7.26,7.26,0,0,0-1.15-2.37,4.19,4.19,0,0,0-2-1.94,3.07,3.07,0,0,0-1.54-.1c-.93.18-1.47.73-2.65,2-1.74,1.86-2.62,2.8-3.22,3.57A7.61,7.61,0,0,0,1657.36,714.69Z" transform="translate(-152.4 -429.78)"/><path class="cls-25" d="M1674.93,712.58a12.19,12.19,0,0,1-.84-2.87,4.44,4.44,0,0,1,0-2.7,3,3,0,0,1,1.07-1.27,2.75,2.75,0,0,1,1.72-.5c1.31.17,1.19,1.81,3.42,4.17a11,11,0,0,1,1.71,2.09,4.47,4.47,0,0,1,.73,1.58,4.38,4.38,0,0,1-1.12,3.39c-.38.5-.91,1.18-1.66,1.2a1.49,1.49,0,0,1-.72-.17C1676.48,716.14,1674.93,712.58,1674.93,712.58Z" transform="translate(-152.4 -429.78)"/><path class="cls-10" d="M1673.76,712.68a8.9,8.9,0,0,1,2.33,1.09,11.26,11.26,0,0,1,2,1.82,1.85,1.85,0,0,1,.54.78,1.76,1.76,0,0,1-.55,1.81,2,2,0,0,1-2,.17c-.19-.07-.64-.28-1.4-1.29-1.2-1.58-1-2.24-2.06-3.47-.56-.63-1-.9-.92-1.1C1671.92,712.15,1673.59,712.63,1673.76,712.68Z" transform="translate(-152.4 -429.78)"/><path class="cls-9" d="M1664.39,714.44a2.12,2.12,0,0,1,.81-1.48,3.43,3.43,0,0,1,1.22-.81c.5-.2.77-.32,1-.21.53.22.58,1.13.62,1.71a2.36,2.36,0,0,1-.53,2,1.45,1.45,0,0,1-.68.29C1665.84,716.17,1664.47,715.39,1664.39,714.44Z" transform="translate(-152.4 -429.78)"/><path class="cls-9" d="M1675.85,712.27c0-.38.16-.7.59-1.34.27-.41.43-.65.76-.77a1.24,1.24,0,0,1,.94,0,1.65,1.65,0,0,1,.7,1.35,1.77,1.77,0,0,1-.34,1.56,1.59,1.59,0,0,1-1.38.35A1.57,1.57,0,0,1,1675.85,712.27Z" transform="translate(-152.4 -429.78)"/><rect class="cls-25" x="1673.79" y="716.32" width="5.4" height="3.87" rx="1.32" ry="1.32" transform="translate(-242.72 -164.19) rotate(-8.82)"/><path class="cls-9" d="M1674.64,718.72c-.28-.17-.3-.76-.1-1.17a1.84,1.84,0,0,1,1.34-.82c.33-.08.88-.22,1.06,0s-.07.68-.16.84a2.48,2.48,0,0,1-1.55,1.08C1674.82,718.8,1674.7,718.76,1674.64,718.72Z" transform="translate(-152.4 -429.78)"/><path class="cls-12" d="M1678.11,725.21l-.29.41a5.73,5.73,0,0,0-1.1,2.21,3.32,3.32,0,0,1-.37,1.21,2.37,2.37,0,0,1-.64.76l-.13.09a5.42,5.42,0,0,0-.34-1.46,6.32,6.32,0,0,0-1.37-2.21,9.72,9.72,0,0,0,1.57-.87,3.77,3.77,0,0,0,1.09-1l.12.12a2.8,2.8,0,0,0,.88.63A2.22,2.22,0,0,0,1678.11,725.21Z" transform="translate(-152.4 -429.78)"/><path class="cls-11" d="M1675.25,728.43a5.42,5.42,0,0,1,.34,1.46,3,3,0,0,1-1.72.31,6.17,6.17,0,0,1-2-.41,8.24,8.24,0,0,1-2.61-1.65,8.65,8.65,0,0,1-1.05-1.1,7.74,7.74,0,0,0,3,0,10.73,10.73,0,0,0,2.75-.8A6.32,6.32,0,0,1,1675.25,728.43Z" transform="translate(-152.4 -429.78)"/><path class="cls-28" d="M1678.11,725.21l-.29.41a5.73,5.73,0,0,0-1.1,2.21,3.32,3.32,0,0,1-.37,1.21,2.37,2.37,0,0,1-.64.76l-.13.09a3,3,0,0,1-1.72.31,6.17,6.17,0,0,1-2-.41,8.24,8.24,0,0,1-2.61-1.65,8.65,8.65,0,0,1-1.05-1.1" transform="translate(-152.4 -429.78)"/><path class="cls-28" d="M1673.88,726.22a6.32,6.32,0,0,1,1.37,2.21,5.42,5.42,0,0,1,.34,1.46" transform="translate(-152.4 -429.78)"/><path class="cls-28" d="M1676.54,724.3l.12.12a2.8,2.8,0,0,0,.88.63,2.22,2.22,0,0,0,.57.16,1.84,1.84,0,0,0,.62,0,2.1,2.1,0,0,0,1.12-.68,3,3,0,0,0,.71-1.35,2.89,2.89,0,0,0,.11-1.42,2.63,2.63,0,0,0-.44-1" transform="translate(-152.4 -429.78)"/><path class="cls-28" d="M1665.61,723a4.22,4.22,0,0,0,.09,1.05,4.6,4.6,0,0,0,.6,1.47,3.82,3.82,0,0,0,.9,1,2.91,2.91,0,0,0,1,.49,7.74,7.74,0,0,0,3,0,10.73,10.73,0,0,0,2.75-.8,9.72,9.72,0,0,0,1.57-.87,3.77,3.77,0,0,0,1.09-1,2.7,2.7,0,0,0,.2-.36,2.63,2.63,0,0,0,.19-.59,4.29,4.29,0,0,0,.07-.49,12.24,12.24,0,0,0-.17-3.28" transform="translate(-152.4 -429.78)"/><path class="cls-28" d="M1676,730.71a1.82,1.82,0,0,1-.52.75,2.26,2.26,0,0,1-1.73.39,3.34,3.34,0,0,1-1.7-.68" transform="translate(-152.4 -429.78)"/><path class="cls-25" d="M1639.25,707.8a4.62,4.62,0,0,0,1.83,2.08,4.52,4.52,0,0,0,3.76,0,4.92,4.92,0,0,0,2.55-3.16c.36-1.37-.26-1.65.06-3.41a7.67,7.67,0,0,1,1.26-3c.9-1.27,1.42-1.1,2.27-2.31a5.36,5.36,0,0,0,1.13-3.27,5.68,5.68,0,0,0-2.09-3.82,7.36,7.36,0,0,0-2.49-1.55,7.46,7.46,0,0,0-5.62.25c-2.4,1.21-3.23,3.56-3.88,5.39a14.73,14.73,0,0,0-.6,6.64A15.48,15.48,0,0,0,1639.25,707.8Z" transform="translate(-152.4 -429.78)"/><polygon class="cls-33" points="1438.1 220.72 1474.1 223.72 1474.1 179.72 1438.1 176.72 1438.1 220.72"/><polygon class="cls-22" points="1522.1 176.72 1474.1 179.72 1474.1 223.72 1522.1 219.72 1522.1 176.72"/><polyline class="cls-22" points="1438.1 176.72 1486.1 173.72 1522.1 176.72 1474.1 179.72 1438.1 176.72"/><rect class="cls-22" x="1561.1" y="196.72" width="64" height="16"/><path class="cls-4" d="M1494,657" transform="translate(-152.4 -429.78)"/><path class="cls-4" d="M1490,663a11.29,11.29,0,0,1,4-6c2.49-1.79,5-1.64,11-2,2.6-.16,6.38-.44,11-1" transform="translate(-152.4 -429.78)"/><ellipse class="cls-4" cx="1651.6" cy="262.72" rx="21" ry="29.5"/><ellipse class="cls-34" cx="1640.1" cy="320.72" rx="8.5" ry="9.5"/><ellipse class="cls-35" cx="1667.6" cy="317.22" rx="8" ry="9"/><line class="cls-4" x1="1630.6" y1="354.22" x2="1672.6" y2="350.22"/><line class="cls-4" x1="1632.6" y1="371.22" x2="1675.6" y2="368.22"/><line class="cls-4" x1="1632.6" y1="391.22" x2="1673.6" y2="387.22"/><path class="cls-36" d="M1522,852h0a17.07,17.07,0,0,1-5-12.07V804l52.5,7,.42,36a15.51,15.51,0,0,0,5.1,11.31l3,2.7-56.58-9.5" transform="translate(-152.4 -429.78)"/><line class="cls-4" x1="1376.6" y1="385.22" x2="1376.6" y2="413.22"/><line class="cls-4" x1="1390.6" y1="386.22" x2="1390.6" y2="417.22"/><line class="cls-4" x1="1403.6" y1="387.22" x2="1404.6" y2="420.22"/><line class="cls-4" x1="1301.6" y1="330.22" x2="1335.6" y2="331.22"/><line class="cls-4" x1="1304.6" y1="315.22" x2="1335.6" y2="316.22"/><line class="cls-4" x1="1305.6" y1="361.22" x2="1336.6" y2="362.22"/><path class="cls-24" d="M1759.82,831.86l-163.57,16" transform="translate(-152.4 -429.78)"/><path class="cls-37" d="M1793,701a31.24,31.24,0,0,1-1-12c.47-3.92,1.2-10,6-14,1.1-.91,4.76-4,9-3,5,1.14,8.21,7.32,7,9-1,1.33-3.94-1.17-8,0-6.42,1.84-8.73,10.9-9,12-.32,1.34-2.16,8.92,2,14,3.21,3.92,8.19,4.15,8,5s-5.29,1.56-9-1C1795,708.93,1794.15,705.55,1793,701Z" transform="translate(-152.4 -429.78)"/><path class="cls-38" d="M1560,676c-.25.79-8.83-.47-26-3-7.28-1.07-15,.4-22-2-.69-.24-3.13-1.14-5,0a4.91,4.91,0,0,0-2,3,71.36,71.36,0,0,0-2.9,24.28,160.58,160.58,0,0,1,.2,17.67c-1.91,40.32-.28,120.89-3.3,121.05-4,.21,0-151.34-2-164-.11-.7-.67-3.71,1-6,.69-.94,2.54-2.84,8-3C1519.25,663.62,1560.84,673.3,1560,676Z" transform="translate(-152.4 -429.78)"/><polygon class="cls-39" points="1367.6 230.22 1424.6 224.22 1455.6 228.22 1420.6 233.22 1367.6 230.22"/><polygon class="cls-39" points="1529.6 214.22 1552.6 212.22 1551.6 215.22 1561.6 218.22 1529.6 220.22 1529.6 214.22"/></svg>