<svg id="Layer_1" data-name="Layer 1" xmlns="http://www.w3.org/2000/svg" viewBox="0 0 1000 1000"><defs><style>.cls-1{fill:#f6f6f8;}.cls-2{fill:none;stroke:#324a5e;stroke-linecap:round;stroke-linejoin:round;stroke-width:5px;}.cls-3{fill:#a1c3c4;}.cls-4{fill:#83a7aa;}.cls-5{fill:#1f1e20;}.cls-5,.cls-6,.cls-7{fill-rule:evenodd;}.cls-6{fill:#111012;}.cls-7{fill:#f0f2f0;}.cls-8{fill:#fff;}.cls-9{fill:#ff7058;}.cls-10{fill:#f1543f;}.cls-11{fill:#324a5e;}.cls-12{fill:#d3cb66;}.cls-13{fill:#b2af50;}.cls-14{fill:#bf7436;}.cls-15{fill:#ad6018;}</style></defs><title>scheme-2</title><rect class="cls-1" width="1000" height="1000"/><polyline class="cls-2" points="317.7 300.69 317.7 313.09 72.53 313.09 72.53 326.53"/><polyline class="cls-2" points="317.7 300.69 317.7 313.09 334.91 313.09 334.91 326.53"/><line class="cls-2" x1="201.4" y1="313.09" x2="201.4" y2="326.53"/><circle class="cls-3" cx="317.96" cy="127.76" r="48.76"/><path class="cls-4" d="M375.06,289.4c-28.68,1.52-85,.51-113.69,0,0-56.15,17.21-101.67,56.84-101.67S375.06,233.25,375.06,289.4Z"/><polygon class="cls-5" points="312.01 198.87 307.75 238.73 318.06 245.35 318.06 198.87 312.01 198.87"/><polygon class="cls-5" points="318.06 245.35 327.36 238.73 324.11 198.87 318.06 198.87 318.06 245.35"/><polygon class="cls-5" points="306.61 187.67 312.07 198.87 324.04 198.87 329.5 187.67 306.61 187.67"/><polygon class="cls-5" points="306.61 187.67 312.07 198.87 318.06 198.87 318.06 187.67 306.61 187.67"/><polygon class="cls-6" points="312.07 198.87 324.04 198.87 324.04 199.41 312.07 198.87"/><polygon class="cls-7" points="296.15 180.59 317.92 187.76 295.72 207.38 296.15 180.59"/><polygon class="cls-7" points="339.84 180.59 318.07 187.76 340.28 207.38 339.84 180.59"/><path class="cls-8" d="M314.34,269.79a9.38,9.38,0,0,1-1.49,5.2,9.9,9.9,0,0,1-4.36,3.61,16.35,16.35,0,0,1-6.81,1.31,15.32,15.32,0,0,1-7.79-1.78,10.37,10.37,0,0,1-3.54-3.43,7.78,7.78,0,0,1-1.36-4.17,2.82,2.82,0,0,1,2.89-2.85,2.45,2.45,0,0,1,1.73.65,5.15,5.15,0,0,1,1.21,1.94,12.92,12.92,0,0,0,1.32,2.55,5.32,5.32,0,0,0,2,1.69,7.35,7.35,0,0,0,3.37.66,7.61,7.61,0,0,0,4.67-1.34,4,4,0,0,0,1.79-3.34,3.53,3.53,0,0,0-1-2.58,6.24,6.24,0,0,0-2.5-1.51q-1.53-.52-4.1-1.11a30,30,0,0,1-5.75-1.88,9.3,9.3,0,0,1-3.68-2.94,7.63,7.63,0,0,1-1.36-4.62,7.94,7.94,0,0,1,1.44-4.68,9.06,9.06,0,0,1,4.16-3.14,17,17,0,0,1,6.4-1.1,15.83,15.83,0,0,1,5.08.73,10.76,10.76,0,0,1,3.56,1.94,8.09,8.09,0,0,1,2.07,2.53,5.85,5.85,0,0,1,.65,2.59,3.06,3.06,0,0,1-.82,2.08,2.6,2.6,0,0,1-2,.92,2.34,2.34,0,0,1-1.69-.55,7.47,7.47,0,0,1-1.25-1.82,8.23,8.23,0,0,0-2.09-2.82,6.11,6.11,0,0,0-3.92-1,6.79,6.79,0,0,0-4,1.1,3.2,3.2,0,0,0-1.53,2.64,2.68,2.68,0,0,0,.52,1.65,4.39,4.39,0,0,0,1.44,1.2,9.63,9.63,0,0,0,1.85.78q.93.28,3.09.83a48.72,48.72,0,0,1,4.88,1.39,14.87,14.87,0,0,1,3.72,1.85,7.62,7.62,0,0,1,2.39,2.75A8.81,8.81,0,0,1,314.34,269.79Z"/><path class="cls-8" d="M347,269.29a8.5,8.5,0,0,1-.75,3.3,11.87,11.87,0,0,1-2.36,3.48,12,12,0,0,1-4.11,2.77,14.79,14.79,0,0,1-5.83,1.07,20.41,20.41,0,0,1-4.59-.48,12.87,12.87,0,0,1-3.75-1.49,12.68,12.68,0,0,1-3.1-2.67,15.88,15.88,0,0,1-2.15-3.36,17.47,17.47,0,0,1-1.34-4,21.67,21.67,0,0,1-.45-4.48,19.87,19.87,0,0,1,1.12-6.9,14.73,14.73,0,0,1,3.21-5.21,14,14,0,0,1,4.9-3.3,15.86,15.86,0,0,1,6-1.13,15,15,0,0,1,6.9,1.54,12.5,12.5,0,0,1,4.63,3.82,7.54,7.54,0,0,1,1.61,4.3,2.8,2.8,0,0,1-.78,2,2.48,2.48,0,0,1-1.89.85,2.61,2.61,0,0,1-1.86-.59,8.15,8.15,0,0,1-1.38-2,9.73,9.73,0,0,0-3-3.55,7.25,7.25,0,0,0-4.21-1.17,7.63,7.63,0,0,0-6.34,3q-2.36,3-2.36,8.59a16,16,0,0,0,1,6.19,7.82,7.82,0,0,0,3,3.69,8.16,8.16,0,0,0,4.48,1.22,7.86,7.86,0,0,0,4.71-1.38,8.34,8.34,0,0,0,2.9-4.06,6.9,6.9,0,0,1,1-2.06,2.31,2.31,0,0,1,2-.79,2.74,2.74,0,0,1,2,.81A2.68,2.68,0,0,1,347,269.29Z"/><circle class="cls-9" cx="72.21" cy="370.11" r="33.64"/><path class="cls-10" d="M111.6,481.63c-19.79,1-58.64.35-78.43,0,0-38.74,11.87-70.14,39.21-70.14S111.6,442.89,111.6,481.63Z"/><path class="cls-8" d="M64.54,474.32H57.82a2.78,2.78,0,0,1-2.08-.65,2.94,2.94,0,0,1-.62-2.08V455a2.88,2.88,0,0,1,.64-2.09,2.83,2.83,0,0,1,2.06-.64h7.13a16.64,16.64,0,0,1,2.73.2,5.82,5.82,0,0,1,2.07.75,5.44,5.44,0,0,1,1.38,1.18A5.2,5.2,0,0,1,72,456a5.28,5.28,0,0,1,.32,1.82,5.06,5.06,0,0,1-3.3,4.83q4.34,1.38,4.34,5.37a6,6,0,0,1-.95,3.32,5.68,5.68,0,0,1-2.55,2.18,9.06,9.06,0,0,1-2.31.59A23.55,23.55,0,0,1,64.54,474.32Zm-5-18.66v5.69h4.08a8.19,8.19,0,0,0,2.57-.32,2.46,2.46,0,0,0,1.39-1.2,2.71,2.71,0,0,0,.38-1.41,2.19,2.19,0,0,0-1.19-2.21,9.06,9.06,0,0,0-3.62-.55Zm4.64,8.89H59.58V471h4.79q4.52,0,4.52-3.26a2.66,2.66,0,0,0-1.17-2.42A6.56,6.56,0,0,0,64.21,464.55Z"/><path class="cls-8" d="M81.62,454.64v16h9a2.38,2.38,0,0,1,1.66.53,1.71,1.71,0,0,1,.58,1.32,1.67,1.67,0,0,1-.57,1.31,2.45,2.45,0,0,1-1.67.5H79.9a2.33,2.33,0,0,1-2.73-2.73V454.64a3,3,0,0,1,.61-2,2.05,2.05,0,0,1,1.6-.68,2.12,2.12,0,0,1,1.63.67A2.89,2.89,0,0,1,81.62,454.64Z"/><polygon class="cls-5" points="68.1 419.17 65.16 446.67 72.27 451.24 72.27 419.17 68.1 419.17"/><polygon class="cls-5" points="72.27 451.24 78.69 446.67 76.45 419.17 72.27 419.17 72.27 451.24"/><polygon class="cls-5" points="64.38 411.44 68.14 419.17 76.4 419.17 80.17 411.44 64.38 411.44"/><polygon class="cls-5" points="64.38 411.44 68.14 419.17 72.27 419.17 72.27 411.44 64.38 411.44"/><polygon class="cls-6" points="68.14 419.17 76.4 419.17 76.4 419.54 68.14 419.17"/><polygon class="cls-7" points="57.16 406.56 72.18 411.51 56.87 425.04 57.16 406.56"/><polygon class="cls-7" points="87.31 406.56 72.29 411.51 87.6 425.04 87.31 406.56"/><circle class="cls-9" cx="201.22" cy="370.11" r="33.64"/><path class="cls-10" d="M240.61,481.63c-19.79,1-58.64.35-78.43,0,0-38.74,11.87-70.14,39.21-70.14S240.61,442.89,240.61,481.63Z"/><path class="cls-8" d="M193.56,474.32h-6.72a2.78,2.78,0,0,1-2.08-.65,2.94,2.94,0,0,1-.62-2.08V455a2.88,2.88,0,0,1,.64-2.09,2.83,2.83,0,0,1,2.06-.64H194a16.64,16.64,0,0,1,2.73.2,5.82,5.82,0,0,1,2.07.75,5.44,5.44,0,0,1,1.38,1.18,5.2,5.2,0,0,1,.92,1.58,5.28,5.28,0,0,1,.32,1.82,5.06,5.06,0,0,1-3.3,4.83q4.34,1.38,4.34,5.37a6,6,0,0,1-.95,3.32,5.68,5.68,0,0,1-2.55,2.18,9.06,9.06,0,0,1-2.31.59A23.55,23.55,0,0,1,193.56,474.32Zm-5-18.66v5.69h4.08a8.19,8.19,0,0,0,2.57-.32,2.46,2.46,0,0,0,1.39-1.2,2.71,2.71,0,0,0,.38-1.41,2.19,2.19,0,0,0-1.19-2.21,9.06,9.06,0,0,0-3.62-.55Zm4.64,8.89h-4.64V471h4.79q4.52,0,4.52-3.26a2.66,2.66,0,0,0-1.17-2.42A6.56,6.56,0,0,0,193.22,464.55Z"/><path class="cls-8" d="M210.64,454.64v16h9a2.38,2.38,0,0,1,1.66.53,1.71,1.71,0,0,1,.58,1.32,1.67,1.67,0,0,1-.57,1.31,2.45,2.45,0,0,1-1.67.5H208.91a2.33,2.33,0,0,1-2.73-2.73V454.64a3,3,0,0,1,.61-2,2.05,2.05,0,0,1,1.6-.68,2.12,2.12,0,0,1,1.63.67A2.89,2.89,0,0,1,210.64,454.64Z"/><polygon class="cls-5" points="197.11 419.17 194.18 446.67 201.29 451.24 201.29 419.17 197.11 419.17"/><polygon class="cls-5" points="201.29 451.24 207.7 446.67 205.46 419.17 201.29 419.17 201.29 451.24"/><polygon class="cls-5" points="193.39 411.44 197.16 419.17 205.42 419.17 209.18 411.44 193.39 411.44"/><polygon class="cls-5" points="193.39 411.44 197.16 419.17 201.29 419.17 201.29 411.44 193.39 411.44"/><polygon class="cls-6" points="197.16 419.17 205.42 419.17 205.42 419.54 197.16 419.17"/><polygon class="cls-7" points="186.18 406.56 201.19 411.51 185.88 425.04 186.18 406.56"/><polygon class="cls-7" points="216.32 406.56 201.3 411.51 216.62 425.04 216.32 406.56"/><polyline class="cls-2" points="333.1 313.09 677.19 313.09 677.19 326.53"/><path class="cls-11" d="M413.9,223.05a5.35,5.35,0,0,1-.85,3,5.65,5.65,0,0,1-2.49,2.06,9.33,9.33,0,0,1-3.89.74,8.74,8.74,0,0,1-4.44-1,5.92,5.92,0,0,1-2-2,4.44,4.44,0,0,1-.78-2.38,1.61,1.61,0,0,1,1.65-1.63,1.4,1.4,0,0,1,1,.37,2.94,2.94,0,0,1,.69,1.1,7.37,7.37,0,0,0,.75,1.45,3,3,0,0,0,1.14,1,4.19,4.19,0,0,0,1.92.38,4.34,4.34,0,0,0,2.66-.76,2.3,2.3,0,0,0,1-1.91,2,2,0,0,0-.55-1.47,3.56,3.56,0,0,0-1.43-.86q-.88-.3-2.34-.63a17.14,17.14,0,0,1-3.28-1.07,5.3,5.3,0,0,1-2.1-1.68,4.35,4.35,0,0,1-.78-2.64,4.53,4.53,0,0,1,.82-2.67,5.17,5.17,0,0,1,2.37-1.79,9.72,9.72,0,0,1,3.65-.63,9,9,0,0,1,2.9.42,6.14,6.14,0,0,1,2,1.1,4.61,4.61,0,0,1,1.18,1.45,3.34,3.34,0,0,1,.37,1.48,1.74,1.74,0,0,1-.47,1.19,1.48,1.48,0,0,1-1.16.53,1.33,1.33,0,0,1-1-.32,4.26,4.26,0,0,1-.71-1,4.69,4.69,0,0,0-1.19-1.61,3.49,3.49,0,0,0-2.23-.58,3.87,3.87,0,0,0-2.3.63,1.82,1.82,0,0,0-.88,1.51,1.53,1.53,0,0,0,.3.94,2.5,2.5,0,0,0,.82.68,5.49,5.49,0,0,0,1.06.45q.53.16,1.76.47a27.8,27.8,0,0,1,2.79.79,8.48,8.48,0,0,1,2.12,1.06,4.35,4.35,0,0,1,1.37,1.57A5,5,0,0,1,413.9,223.05Z"/><path class="cls-11" d="M418.51,213.47a1.79,1.79,0,0,1-1.21-.43,1.69,1.69,0,0,1,0-2.41,1.73,1.73,0,0,1,1.2-.47,1.78,1.78,0,0,1,1.17.42,1.5,1.5,0,0,1,.51,1.23,1.55,1.55,0,0,1-.5,1.22A1.72,1.72,0,0,1,418.51,213.47Zm1.68,3.5v9.79a2.19,2.19,0,0,1-.48,1.54,1.6,1.6,0,0,1-1.23.52,1.53,1.53,0,0,1-1.21-.53,2.25,2.25,0,0,1-.47-1.53v-9.69a2.18,2.18,0,0,1,.47-1.51,1.56,1.56,0,0,1,1.21-.51,1.62,1.62,0,0,1,1.23.51A2,2,0,0,1,420.18,217Z"/><path class="cls-11" d="M423.68,226.76v-14.7a2.29,2.29,0,0,1,.45-1.54,1.54,1.54,0,0,1,1.22-.52,1.6,1.6,0,0,1,1.24.52,2.22,2.22,0,0,1,.47,1.55v14.7a2.2,2.2,0,0,1-.48,1.55,1.61,1.61,0,0,1-1.24.52,1.53,1.53,0,0,1-1.21-.53A2.25,2.25,0,0,1,423.68,226.76Z"/><path class="cls-11" d="M433,217.16l2.74,7.7,3-8a4.77,4.77,0,0,1,.68-1.37,1.25,1.25,0,0,1,1-.4,1.53,1.53,0,0,1,1.1.43,1.35,1.35,0,0,1,.45,1,2,2,0,0,1-.08.52,5,5,0,0,1-.19.56l-.24.6-3.25,8.07-.35.88a4.54,4.54,0,0,1-.48.91,1.9,1.9,0,0,1-.66.59,2,2,0,0,1-.95.21,1.84,1.84,0,0,1-1.15-.33,2.22,2.22,0,0,1-.63-.72q-.2-.39-.69-1.55l-3.23-8-.23-.6a5.21,5.21,0,0,1-.2-.61,2.16,2.16,0,0,1-.08-.53,1.3,1.3,0,0,1,.21-.69,1.65,1.65,0,0,1,.58-.56,1.58,1.58,0,0,1,.81-.22,1.28,1.28,0,0,1,1.16.48A7.69,7.69,0,0,1,433,217.16Z"/><path class="cls-11" d="M453.48,222.77h-6.63a4.49,4.49,0,0,0,.47,2,3.11,3.11,0,0,0,2.86,1.77,4.06,4.06,0,0,0,1.11-.14,3.6,3.6,0,0,0,1-.45,7.4,7.4,0,0,0,.87-.65q.4-.35,1-.94a1.11,1.11,0,0,1,.74-.22,1.23,1.23,0,0,1,.84.29,1,1,0,0,1,.32.81,2.2,2.2,0,0,1-.36,1.07,4.26,4.26,0,0,1-1.09,1.18,6.18,6.18,0,0,1-1.82.94,7.86,7.86,0,0,1-2.53.37A6.76,6.76,0,0,1,445.2,227a6.93,6.93,0,0,1-1.81-5.05,8.43,8.43,0,0,1,.45-2.79,6.15,6.15,0,0,1,1.3-2.2,5.65,5.65,0,0,1,2.11-1.41A7.58,7.58,0,0,1,450,215a6.59,6.59,0,0,1,3.41.84,5.51,5.51,0,0,1,2.13,2.17,5.7,5.7,0,0,1,.71,2.71q0,1.28-.73,1.66A4.56,4.56,0,0,1,453.48,222.77Zm-6.63-1.92H453a4.12,4.12,0,0,0-.94-2.6,2.81,2.81,0,0,0-2.14-.86,2.71,2.71,0,0,0-2.08.88A4.36,4.36,0,0,0,446.85,220.84Z"/><path class="cls-11" d="M462.49,223.93v2.83a2.18,2.18,0,0,1-.48,1.55,1.61,1.61,0,0,1-1.23.52,1.55,1.55,0,0,1-1.2-.52,2.22,2.22,0,0,1-.47-1.54v-9.43q0-2.28,1.65-2.28a1.38,1.38,0,0,1,1.22.53,2.94,2.94,0,0,1,.41,1.58,5.92,5.92,0,0,1,1.25-1.58,2.58,2.58,0,0,1,1.71-.53,4.37,4.37,0,0,1,2.07.53,1.59,1.59,0,0,1,1,1.42,1.35,1.35,0,0,1-.43,1,1.33,1.33,0,0,1-.92.4,4.24,4.24,0,0,1-.9-.23,4.19,4.19,0,0,0-1.26-.23,1.84,1.84,0,0,0-1.22.39,2.51,2.51,0,0,0-.73,1.16,8.12,8.12,0,0,0-.36,1.83Q462.49,222.41,462.49,223.93Z"/><path class="cls-11" d="M492.35,222.77a4.85,4.85,0,0,1-.43,1.88,6.77,6.77,0,0,1-1.35,2,6.87,6.87,0,0,1-2.35,1.58,8.44,8.44,0,0,1-3.33.61,11.64,11.64,0,0,1-2.62-.27,7.34,7.34,0,0,1-2.14-.85,7.23,7.23,0,0,1-1.77-1.52,9.06,9.06,0,0,1-1.23-1.92,10,10,0,0,1-.76-2.27,12.36,12.36,0,0,1-.25-2.56,11.34,11.34,0,0,1,.64-3.93,8.4,8.4,0,0,1,1.83-3,8,8,0,0,1,2.79-1.88,9,9,0,0,1,3.41-.65,8.53,8.53,0,0,1,3.93.88,7.13,7.13,0,0,1,2.64,2.18,4.3,4.3,0,0,1,.92,2.45,1.6,1.6,0,0,1-.45,1.12,1.42,1.42,0,0,1-1.08.48,1.49,1.49,0,0,1-1.06-.34,4.65,4.65,0,0,1-.79-1.15,5.55,5.55,0,0,0-1.69-2,4.14,4.14,0,0,0-2.4-.67,4.35,4.35,0,0,0-3.62,1.73,7.81,7.81,0,0,0-1.35,4.9,9.1,9.1,0,0,0,.6,3.53,4.46,4.46,0,0,0,1.69,2.1,4.66,4.66,0,0,0,2.56.7,4.49,4.49,0,0,0,2.69-.79,4.76,4.76,0,0,0,1.66-2.31,3.94,3.94,0,0,1,.58-1.17,1.32,1.32,0,0,1,1.12-.45,1.56,1.56,0,0,1,1.13.46A1.53,1.53,0,0,1,492.35,222.77Z"/><path class="cls-11" d="M498.74,212.07v5a7.24,7.24,0,0,1,1.26-1.18,4.54,4.54,0,0,1,1.36-.65A5.71,5.71,0,0,1,503,215a4.7,4.7,0,0,1,2.29.55,4.24,4.24,0,0,1,2.05,2.95,10.76,10.76,0,0,1,.12,1.73v6.49a2.24,2.24,0,0,1-.47,1.54,1.57,1.57,0,0,1-1.24.52q-1.68,0-1.68-2.06V221a5.25,5.25,0,0,0-.48-2.5,1.91,1.91,0,0,0-1.84-.88,2.76,2.76,0,0,0-1.63.52,3.1,3.1,0,0,0-1.09,1.41,9,9,0,0,0-.27,2.69v4.48a2.29,2.29,0,0,1-.45,1.53,1.57,1.57,0,0,1-1.26.53q-1.68,0-1.68-2.06v-14.7a2.33,2.33,0,0,1,.44-1.55A1.54,1.54,0,0,1,497,210a1.58,1.58,0,0,1,1.26.52A2.29,2.29,0,0,1,498.74,212.07Z"/><path class="cls-11" d="M519.35,226.91a10.48,10.48,0,0,1-2.38,1.43,6.65,6.65,0,0,1-2.58.48,4.88,4.88,0,0,1-2.29-.52,3.76,3.76,0,0,1-1.52-1.4,3.62,3.62,0,0,1-.53-1.91,3.42,3.42,0,0,1,.88-2.37,4.41,4.41,0,0,1,2.42-1.32L515,221q1.28-.26,2.19-.48t2-.53a3.54,3.54,0,0,0-.54-2,2.42,2.42,0,0,0-2-.63,4.13,4.13,0,0,0-1.94.36,3.16,3.16,0,0,0-1.12,1.08,11.35,11.35,0,0,1-.66.95,1.08,1.08,0,0,1-.83.23,1.44,1.44,0,0,1-1-.37,1.19,1.19,0,0,1-.42-.94,2.87,2.87,0,0,1,.63-1.74,4.53,4.53,0,0,1,2-1.39,8.89,8.89,0,0,1,3.34-.55,9.45,9.45,0,0,1,3.51.53,3.27,3.27,0,0,1,1.81,1.67,7.3,7.3,0,0,1,.53,3q0,1.19,0,2t0,1.85a6.81,6.81,0,0,0,.32,2,6.29,6.29,0,0,1,.32,1.33,1.25,1.25,0,0,1-.49.95,1.64,1.64,0,0,1-1.11.43,1.5,1.5,0,0,1-1-.49A7.25,7.25,0,0,1,519.35,226.91Zm-.22-4.9a17,17,0,0,1-2.17.58q-1.42.3-2,.45a2.68,2.68,0,0,0-1,.56,1.43,1.43,0,0,0-.5,1.16,1.72,1.72,0,0,0,.58,1.31,2.16,2.16,0,0,0,1.53.54,4,4,0,0,0,1.86-.44,2.94,2.94,0,0,0,1.25-1.14,5.19,5.19,0,0,0,.46-2.53Z"/><path class="cls-11" d="M527.6,213.47a1.79,1.79,0,0,1-1.21-.43,1.69,1.69,0,0,1,0-2.41,1.73,1.73,0,0,1,1.2-.47,1.78,1.78,0,0,1,1.17.42,1.5,1.5,0,0,1,.51,1.23,1.55,1.55,0,0,1-.5,1.22A1.72,1.72,0,0,1,527.6,213.47Zm1.68,3.5v9.79a2.19,2.19,0,0,1-.48,1.54,1.6,1.6,0,0,1-1.23.52,1.53,1.53,0,0,1-1.21-.53,2.25,2.25,0,0,1-.47-1.53v-9.69a2.18,2.18,0,0,1,.47-1.51,1.56,1.56,0,0,1,1.21-.51,1.62,1.62,0,0,1,1.23.51A2,2,0,0,1,529.28,217Z"/><path class="cls-11" d="M536.14,223.93v2.83a2.18,2.18,0,0,1-.48,1.55,1.61,1.61,0,0,1-1.23.52,1.55,1.55,0,0,1-1.2-.52,2.22,2.22,0,0,1-.47-1.54v-9.43q0-2.28,1.65-2.28a1.38,1.38,0,0,1,1.22.53,2.94,2.94,0,0,1,.41,1.58,5.92,5.92,0,0,1,1.25-1.58A2.58,2.58,0,0,1,539,215a4.37,4.37,0,0,1,2.07.53,1.59,1.59,0,0,1,1,1.42,1.35,1.35,0,0,1-.43,1,1.33,1.33,0,0,1-.92.4,4.24,4.24,0,0,1-.9-.23,4.19,4.19,0,0,0-1.26-.23,1.84,1.84,0,0,0-1.22.39,2.51,2.51,0,0,0-.73,1.16,8.12,8.12,0,0,0-.36,1.83Q536.14,222.41,536.14,223.93Z"/><path class="cls-11" d="M555.18,222.18v4.51a2.31,2.31,0,0,1-.48,1.6,1.64,1.64,0,0,1-1.28.53,1.6,1.6,0,0,1-1.25-.53,2.34,2.34,0,0,1-.48-1.6v-5.4a17.41,17.41,0,0,0-.09-2,2.15,2.15,0,0,0-.47-1.16,1.51,1.51,0,0,0-1.22-.45,2.16,2.16,0,0,0-2.19,1.14,8.05,8.05,0,0,0-.53,3.28v4.58a2.34,2.34,0,0,1-.48,1.6,1.6,1.6,0,0,1-1.26.54,1.62,1.62,0,0,1-1.26-.54,2.3,2.3,0,0,1-.49-1.6V217a2.13,2.13,0,0,1,.44-1.45,1.48,1.48,0,0,1,1.16-.5,1.57,1.57,0,0,1,1.16.47,1.74,1.74,0,0,1,.47,1.28v.32a5.9,5.9,0,0,1,1.89-1.55,5,5,0,0,1,2.23-.5,4.47,4.47,0,0,1,2.2.51,4,4,0,0,1,1.51,1.54,5.89,5.89,0,0,1,1.84-1.55,4.69,4.69,0,0,1,2.17-.5,5,5,0,0,1,2.4.55,3.48,3.48,0,0,1,1.5,1.56,7.16,7.16,0,0,1,.43,2.89v6.62a2.31,2.31,0,0,1-.48,1.6,1.64,1.64,0,0,1-1.28.53,1.62,1.62,0,0,1-1.26-.54,2.3,2.3,0,0,1-.49-1.6V221a13.06,13.06,0,0,0-.09-1.75,2,2,0,0,0-.5-1.1,1.6,1.6,0,0,0-1.24-.45,2.27,2.27,0,0,0-1.27.4,2.7,2.7,0,0,0-.94,1.07A8.48,8.48,0,0,0,555.18,222.18Z"/><path class="cls-11" d="M575,226.91a10.48,10.48,0,0,1-2.38,1.43,6.65,6.65,0,0,1-2.58.48,4.88,4.88,0,0,1-2.29-.52,3.76,3.76,0,0,1-1.52-1.4,3.62,3.62,0,0,1-.53-1.91,3.42,3.42,0,0,1,.88-2.37,4.41,4.41,0,0,1,2.42-1.32l1.6-.34q1.28-.26,2.19-.48t2-.53a3.54,3.54,0,0,0-.54-2,2.42,2.42,0,0,0-2-.63,4.13,4.13,0,0,0-1.94.36,3.16,3.16,0,0,0-1.12,1.08,11.35,11.35,0,0,1-.66.95,1.08,1.08,0,0,1-.83.23,1.44,1.44,0,0,1-1-.37,1.19,1.19,0,0,1-.42-.94,2.87,2.87,0,0,1,.63-1.74,4.53,4.53,0,0,1,2-1.39,8.89,8.89,0,0,1,3.34-.55,9.45,9.45,0,0,1,3.51.53,3.27,3.27,0,0,1,1.81,1.67,7.3,7.3,0,0,1,.53,3q0,1.19,0,2t0,1.85a6.81,6.81,0,0,0,.32,2,6.29,6.29,0,0,1,.32,1.33,1.25,1.25,0,0,1-.49.95,1.64,1.64,0,0,1-1.11.43,1.5,1.5,0,0,1-1-.49A7.25,7.25,0,0,1,575,226.91Zm-.22-4.9a17,17,0,0,1-2.17.58q-1.42.3-2,.45a2.68,2.68,0,0,0-1,.56,1.43,1.43,0,0,0-.5,1.16,1.72,1.72,0,0,0,.58,1.31,2.16,2.16,0,0,0,1.53.54,4,4,0,0,0,1.86-.44,2.94,2.94,0,0,0,1.25-1.14,5.19,5.19,0,0,0,.46-2.53Z"/><path class="cls-11" d="M584.59,216.92v.41a5.93,5.93,0,0,1,2-1.73A5.21,5.21,0,0,1,589,215a4.87,4.87,0,0,1,2.4.58,3.71,3.71,0,0,1,1.58,1.65,3.94,3.94,0,0,1,.43,1.34,13.84,13.84,0,0,1,.1,1.84v6.31a2.24,2.24,0,0,1-.47,1.54,1.55,1.55,0,0,1-1.21.52,1.56,1.56,0,0,1-1.23-.53,2.23,2.23,0,0,1-.47-1.53v-5.65a5.64,5.64,0,0,0-.47-2.56,1.9,1.9,0,0,0-1.86-.89,2.75,2.75,0,0,0-1.65.54,3.1,3.1,0,0,0-1.09,1.48,10.6,10.6,0,0,0-.25,2.83v4.25a2.2,2.2,0,0,1-.48,1.55,1.61,1.61,0,0,1-1.24.52,1.54,1.54,0,0,1-1.2-.53,2.23,2.23,0,0,1-.47-1.53V217a2.13,2.13,0,0,1,.42-1.45A1.46,1.46,0,0,1,583,215a1.57,1.57,0,0,1,.81.21,1.51,1.51,0,0,1,.58.63A2.24,2.24,0,0,1,584.59,216.92Z"/><path class="cls-11" d="M602.79,225l4.07-5.95-3.43-5.29a10.46,10.46,0,0,1-.73-1.32,2.64,2.64,0,0,1-.24-1.06,1.24,1.24,0,0,1,.47-.94,1.64,1.64,0,0,1,1.14-.42,1.57,1.57,0,0,1,1.2.45,11.43,11.43,0,0,1,1.19,1.68l2.73,4.42,2.92-4.42.61-1a5,5,0,0,1,.49-.66,1.58,1.58,0,0,1,.53-.39,1.64,1.64,0,0,1,.68-.13,1.59,1.59,0,0,1,1.14.42,1.31,1.31,0,0,1,.44,1,4.56,4.56,0,0,1-1,2.26L611.44,219,615.3,225a9.91,9.91,0,0,1,.76,1.3,2.35,2.35,0,0,1,.24,1,1.52,1.52,0,0,1-.81,1.37,1.78,1.78,0,0,1-.87.21,1.68,1.68,0,0,1-.88-.22,1.87,1.87,0,0,1-.58-.54l-.83-1.25-3.2-5-3.4,5.19-.56.87a3.28,3.28,0,0,1-.4.48,1.73,1.73,0,0,1-.56.37,1.94,1.94,0,0,1-.76.14,1.57,1.57,0,0,1-1.11-.41,1.55,1.55,0,0,1-.44-1.19A4.27,4.27,0,0,1,602.79,225Z"/><path class="cls-11" d="M407.14,251.93h-3.38v5.15a2.4,2.4,0,0,1-.52,1.68,1.84,1.84,0,0,1-2.66,0,2.4,2.4,0,0,1-.51-1.66v-14a2.29,2.29,0,0,1,.56-1.74,2.54,2.54,0,0,1,1.77-.52h4.73a12.4,12.4,0,0,1,3.23.32,4.81,4.81,0,0,1,1.93,1,4.65,4.65,0,0,1,1.24,1.76,6.21,6.21,0,0,1,.42,2.35,5.18,5.18,0,0,1-1.71,4.21A7.79,7.79,0,0,1,407.14,251.93Zm-.89-8.34h-2.48v5.56h2.48a7.41,7.41,0,0,0,2.18-.27,2.53,2.53,0,0,0,1.33-.89,2.67,2.67,0,0,0,.46-1.63,2.76,2.76,0,0,0-.71-2Q408.72,243.59,406.25,243.59Z"/><path class="cls-11" d="M419.73,242.93l4.12,12.2L428,242.84q.32-1,.48-1.35a1.79,1.79,0,0,1,.53-.68,1.56,1.56,0,0,1,1-.3,1.71,1.71,0,0,1,.88.24,1.74,1.74,0,0,1,.63.63,1.54,1.54,0,0,1,.23.79,2.58,2.58,0,0,1-.07.59,5.35,5.35,0,0,1-.19.62l-.22.63-4.41,11.89q-.24.68-.47,1.3a5.48,5.48,0,0,1-.55,1.08,2.44,2.44,0,0,1-.83.76,2.48,2.48,0,0,1-1.26.3,2.52,2.52,0,0,1-1.26-.29,2.4,2.4,0,0,1-.83-.77,5.65,5.65,0,0,1-.55-1.09q-.24-.61-.47-1.29l-4.33-11.79q-.11-.32-.23-.63a4.88,4.88,0,0,1-.2-.67,2.84,2.84,0,0,1-.08-.61,1.62,1.62,0,0,1,.51-1.15,1.71,1.71,0,0,1,1.28-.52,1.49,1.49,0,0,1,1.33.58A7.68,7.68,0,0,1,419.73,242.93Z"/><path class="cls-11" d="M450.81,251.62v3.49a3.65,3.65,0,0,1-.14,1.11,1.76,1.76,0,0,1-.5.75,4.72,4.72,0,0,1-.94.65,14.73,14.73,0,0,1-3.18,1.3,12.81,12.81,0,0,1-3.33.41,10.84,10.84,0,0,1-3.82-.65,8,8,0,0,1-2.94-1.87,8.27,8.27,0,0,1-1.87-3,11.14,11.14,0,0,1-.65-3.91,11.42,11.42,0,0,1,.63-3.89,8,8,0,0,1,1.86-3,8.17,8.17,0,0,1,3-1.88,11.47,11.47,0,0,1,4-.65,9.92,9.92,0,0,1,3.25.49,7.16,7.16,0,0,1,2.3,1.24,5.51,5.51,0,0,1,1.33,1.58,3.2,3.2,0,0,1,.45,1.48,1.58,1.58,0,0,1-.52,1.19,1.73,1.73,0,0,1-1.24.49,1.66,1.66,0,0,1-.76-.19,1.74,1.74,0,0,1-.61-.52,14.64,14.64,0,0,0-1.15-1.61,3.73,3.73,0,0,0-1.27-.92,4.86,4.86,0,0,0-2-.37,5.64,5.64,0,0,0-2.28.44,4.72,4.72,0,0,0-1.72,1.28,5.77,5.77,0,0,0-1.09,2.05,9,9,0,0,0-.38,2.69,7.38,7.38,0,0,0,1.47,4.93,5.1,5.1,0,0,0,4.1,1.73,8.36,8.36,0,0,0,2.4-.34,12.14,12.14,0,0,0,2.28-1v-3h-2.85a3.13,3.13,0,0,1-1.56-.31,1.12,1.12,0,0,1-.53-1.06,1.3,1.3,0,0,1,.44-1,1.72,1.72,0,0,1,1.2-.4h4.18a5.34,5.34,0,0,1,1.3.14,1.47,1.47,0,0,1,.86.61A2.49,2.49,0,0,1,450.81,251.62Z"/><path class="cls-11" d="M472.34,251.52,459.86,257v-3.51l8.73-3.43-8.73-3.38v-3.49l12.49,5.39Z"/><path class="cls-11" d="M487.29,248.9H474.55v-3.25h12.74Zm0,5.51H474.55v-3.25h12.74Z"/><path class="cls-11" d="M501.65,248a3,3,0,0,0,2-.67,2.33,2.33,0,0,0,.83-1.92,2.3,2.3,0,0,0-.66-1.64,2.34,2.34,0,0,0-1.77-.69,3.18,3.18,0,0,0-1.25.21,2,2,0,0,0-.78.56,4.19,4.19,0,0,0-.54.89q-.25.55-.47,1a.87.87,0,0,1-.45.41,1.76,1.76,0,0,1-.74.15,1.29,1.29,0,0,1-.91-.4,1.43,1.43,0,0,1-.42-1.07,2.84,2.84,0,0,1,.39-1.36,5,5,0,0,1,1.14-1.36,5.75,5.75,0,0,1,1.87-1,7.52,7.52,0,0,1,2.49-.39,7,7,0,0,1,2.2.33,5.14,5.14,0,0,1,1.73.95,4.1,4.1,0,0,1,1.1,1.44,4.21,4.21,0,0,1,.37,1.76,4,4,0,0,1-.54,2.13,7.18,7.18,0,0,1-1.55,1.73,6.84,6.84,0,0,1,1.63,1.19,4.45,4.45,0,0,1,1.33,3.24,5.48,5.48,0,0,1-.45,2.18,5.57,5.57,0,0,1-1.33,1.88,6.36,6.36,0,0,1-2.09,1.29,7.4,7.4,0,0,1-2.67.47,6.41,6.41,0,0,1-2.67-.53,6.14,6.14,0,0,1-1.94-1.33,6.07,6.07,0,0,1-1.15-1.66,3.6,3.6,0,0,1-.39-1.42,1.52,1.52,0,0,1,.47-1.16,1.62,1.62,0,0,1,1.16-.44,1.24,1.24,0,0,1,.67.2,1,1,0,0,1,.42.49A8.35,8.35,0,0,0,500,256a2.63,2.63,0,0,0,2.08.84,3.12,3.12,0,0,0,1.48-.38,3.09,3.09,0,0,0,1.18-1.12,3.19,3.19,0,0,0,.47-1.73,3.15,3.15,0,0,0-.79-2.28,2.92,2.92,0,0,0-2.21-.83q-.25,0-.77,0l-.67,0a1.5,1.5,0,0,1-1.06-.34,1.22,1.22,0,0,1-.37-.95,1.18,1.18,0,0,1,.45-1,2.06,2.06,0,0,1,1.33-.37Z"/><path class="cls-11" d="M530,250.09a21.24,21.24,0,0,1-.25,3.5,8.16,8.16,0,0,1-.92,2.66,6.1,6.1,0,0,1-2.18,2.26,5.74,5.74,0,0,1-3,.79,5.68,5.68,0,0,1-3.38-1.07,6.49,6.49,0,0,1-2.25-3,11,11,0,0,1-.56-2.28,19,19,0,0,1-.18-2.7,26,26,0,0,1,.2-3.38,11.15,11.15,0,0,1,.62-2.58,5.55,5.55,0,0,1,5.46-3.66,6.22,6.22,0,0,1,2.32.42,5.3,5.3,0,0,1,1.83,1.22,7,7,0,0,1,1.33,2A14.24,14.24,0,0,1,530,250.09Zm-3.4-.25a20.7,20.7,0,0,0-.27-3.72,4.58,4.58,0,0,0-.92-2.18,2.25,2.25,0,0,0-1.79-.74,2.3,2.3,0,0,0-2.28,1.65,15,15,0,0,0-.64,5.09,21.9,21.9,0,0,0,.27,3.82,4.8,4.8,0,0,0,.92,2.25,2.4,2.4,0,0,0,3.54,0,4.93,4.93,0,0,0,.91-2.27A23.14,23.14,0,0,0,526.65,249.85Z"/><path class="cls-11" d="M545.15,250.09a21.24,21.24,0,0,1-.25,3.5,8.16,8.16,0,0,1-.92,2.66,6.1,6.1,0,0,1-2.18,2.26,5.74,5.74,0,0,1-3,.79,5.68,5.68,0,0,1-3.38-1.07,6.49,6.49,0,0,1-2.25-3,11,11,0,0,1-.56-2.28,19,19,0,0,1-.18-2.7,26,26,0,0,1,.2-3.38,11.15,11.15,0,0,1,.62-2.58,5.55,5.55,0,0,1,5.46-3.66,6.22,6.22,0,0,1,2.32.42,5.3,5.3,0,0,1,1.83,1.22,7,7,0,0,1,1.33,2A14.24,14.24,0,0,1,545.15,250.09Zm-3.4-.25a20.7,20.7,0,0,0-.27-3.72,4.58,4.58,0,0,0-.92-2.18,2.25,2.25,0,0,0-1.79-.74,2.3,2.3,0,0,0-2.28,1.65,15,15,0,0,0-.64,5.09,21.9,21.9,0,0,0,.27,3.82A4.8,4.8,0,0,0,537,256a2.4,2.4,0,0,0,3.54,0,4.93,4.93,0,0,0,.91-2.27A23.14,23.14,0,0,0,541.75,249.85Z"/><path class="cls-11" d="M560.26,250.09a21.24,21.24,0,0,1-.25,3.5,8.16,8.16,0,0,1-.92,2.66,6.1,6.1,0,0,1-2.18,2.26,5.74,5.74,0,0,1-3,.79,5.68,5.68,0,0,1-3.38-1.07,6.49,6.49,0,0,1-2.25-3,11,11,0,0,1-.56-2.28,19,19,0,0,1-.18-2.7,26,26,0,0,1,.2-3.38,11.15,11.15,0,0,1,.62-2.58,5.55,5.55,0,0,1,5.46-3.66,6.22,6.22,0,0,1,2.32.42,5.3,5.3,0,0,1,1.83,1.22,7,7,0,0,1,1.33,2A14.24,14.24,0,0,1,560.26,250.09Zm-3.4-.25a20.7,20.7,0,0,0-.27-3.72,4.58,4.58,0,0,0-.92-2.18,2.25,2.25,0,0,0-1.79-.74,2.3,2.3,0,0,0-2.28,1.65,15,15,0,0,0-.64,5.09,21.9,21.9,0,0,0,.27,3.82,4.8,4.8,0,0,0,.92,2.25,2.4,2.4,0,0,0,3.54,0,4.93,4.93,0,0,0,.91-2.27A23.14,23.14,0,0,0,556.86,249.85Z"/><path class="cls-11" d="M413.9,284.06a5.35,5.35,0,0,1-.85,3,5.65,5.65,0,0,1-2.49,2.06,9.33,9.33,0,0,1-3.89.74,8.74,8.74,0,0,1-4.44-1,5.92,5.92,0,0,1-2-2,4.44,4.44,0,0,1-.78-2.38,1.61,1.61,0,0,1,1.65-1.63,1.4,1.4,0,0,1,1,.37,2.94,2.94,0,0,1,.69,1.1,7.37,7.37,0,0,0,.75,1.45,3,3,0,0,0,1.14,1,4.19,4.19,0,0,0,1.92.38,4.34,4.34,0,0,0,2.66-.76,2.3,2.3,0,0,0,1-1.91,2,2,0,0,0-.55-1.47,3.56,3.56,0,0,0-1.43-.86q-.88-.3-2.34-.63a17.14,17.14,0,0,1-3.28-1.07,5.3,5.3,0,0,1-2.1-1.68,4.35,4.35,0,0,1-.78-2.64,4.53,4.53,0,0,1,.82-2.67,5.17,5.17,0,0,1,2.37-1.79,9.72,9.72,0,0,1,3.65-.63,9,9,0,0,1,2.9.42,6.14,6.14,0,0,1,2,1.1,4.61,4.61,0,0,1,1.18,1.45,3.34,3.34,0,0,1,.37,1.48,1.74,1.74,0,0,1-.47,1.19,1.48,1.48,0,0,1-1.16.53,1.33,1.33,0,0,1-1-.32,4.26,4.26,0,0,1-.71-1,4.69,4.69,0,0,0-1.19-1.61,3.49,3.49,0,0,0-2.23-.58,3.87,3.87,0,0,0-2.3.63,1.82,1.82,0,0,0-.88,1.51,1.53,1.53,0,0,0,.3.94,2.5,2.5,0,0,0,.82.68,5.49,5.49,0,0,0,1.06.45q.53.16,1.76.47a27.8,27.8,0,0,1,2.79.79,8.48,8.48,0,0,1,2.12,1.06,4.35,4.35,0,0,1,1.37,1.57A5,5,0,0,1,413.9,284.06Z"/><path class="cls-11" d="M420.11,273.08v5a7.24,7.24,0,0,1,1.26-1.18,4.54,4.54,0,0,1,1.36-.65,5.71,5.71,0,0,1,1.6-.22,4.7,4.7,0,0,1,2.29.55,4.24,4.24,0,0,1,2.05,2.95,10.76,10.76,0,0,1,.12,1.73v6.49a2.24,2.24,0,0,1-.47,1.54,1.57,1.57,0,0,1-1.24.52q-1.68,0-1.68-2.06v-5.72a5.25,5.25,0,0,0-.48-2.5,1.91,1.91,0,0,0-1.84-.88,2.76,2.76,0,0,0-1.63.52,3.1,3.1,0,0,0-1.09,1.41,9,9,0,0,0-.27,2.69v4.48a2.29,2.29,0,0,1-.45,1.53,1.57,1.57,0,0,1-1.26.53q-1.68,0-1.68-2.06v-14.7a2.33,2.33,0,0,1,.44-1.55,1.54,1.54,0,0,1,1.24-.52,1.58,1.58,0,0,1,1.26.52A2.29,2.29,0,0,1,420.11,273.08Z"/><path class="cls-11" d="M440.71,287.92a10.48,10.48,0,0,1-2.38,1.43,6.65,6.65,0,0,1-2.58.48,4.88,4.88,0,0,1-2.29-.52,3.76,3.76,0,0,1-1.52-1.4,3.62,3.62,0,0,1-.53-1.91,3.42,3.42,0,0,1,.88-2.37,4.41,4.41,0,0,1,2.42-1.32l1.6-.34q1.28-.26,2.19-.48t2-.53a3.54,3.54,0,0,0-.54-2,2.42,2.42,0,0,0-2-.63,4.13,4.13,0,0,0-1.94.36,3.16,3.16,0,0,0-1.12,1.08,11.35,11.35,0,0,1-.66.95,1.08,1.08,0,0,1-.83.23,1.44,1.44,0,0,1-1-.37,1.19,1.19,0,0,1-.42-.94,2.87,2.87,0,0,1,.63-1.74,4.53,4.53,0,0,1,2-1.39A8.89,8.89,0,0,1,438,276a9.45,9.45,0,0,1,3.51.53,3.27,3.27,0,0,1,1.81,1.67,7.3,7.3,0,0,1,.53,3q0,1.19,0,2t0,1.85a6.81,6.81,0,0,0,.32,2,6.29,6.29,0,0,1,.32,1.33,1.25,1.25,0,0,1-.49.95,1.64,1.64,0,0,1-1.11.43,1.5,1.5,0,0,1-1-.49A7.25,7.25,0,0,1,440.71,287.92Zm-.22-4.9a17,17,0,0,1-2.17.58q-1.42.3-2,.45a2.68,2.68,0,0,0-1,.56,1.43,1.43,0,0,0-.5,1.16,1.72,1.72,0,0,0,.58,1.31,2.16,2.16,0,0,0,1.53.54,4,4,0,0,0,1.86-.44A2.94,2.94,0,0,0,440,286a5.19,5.19,0,0,0,.46-2.53Z"/><path class="cls-11" d="M450.62,284.94v2.83a2.18,2.18,0,0,1-.48,1.55,1.61,1.61,0,0,1-1.23.52,1.55,1.55,0,0,1-1.2-.52,2.22,2.22,0,0,1-.47-1.54v-9.43q0-2.28,1.65-2.28a1.38,1.38,0,0,1,1.22.53,2.94,2.94,0,0,1,.41,1.58,5.92,5.92,0,0,1,1.25-1.58,2.58,2.58,0,0,1,1.71-.53,4.37,4.37,0,0,1,2.07.53,1.59,1.59,0,0,1,1,1.42,1.35,1.35,0,0,1-.43,1,1.33,1.33,0,0,1-.92.4,4.24,4.24,0,0,1-.9-.23A4.19,4.19,0,0,0,453,279a1.84,1.84,0,0,0-1.22.39,2.51,2.51,0,0,0-.73,1.16,8.12,8.12,0,0,0-.36,1.83Q450.62,283.42,450.62,284.94Z"/><path class="cls-11" d="M467.22,283.78h-6.63a4.49,4.49,0,0,0,.47,2,3.11,3.11,0,0,0,2.86,1.77,4.06,4.06,0,0,0,1.11-.14,3.6,3.6,0,0,0,1-.45,7.4,7.4,0,0,0,.87-.65q.4-.35,1-.94a1.11,1.11,0,0,1,.74-.22,1.23,1.23,0,0,1,.84.29,1,1,0,0,1,.32.81,2.2,2.2,0,0,1-.36,1.07,4.26,4.26,0,0,1-1.09,1.18,6.18,6.18,0,0,1-1.82.94,7.86,7.86,0,0,1-2.53.37,6.76,6.76,0,0,1-5.08-1.86,6.93,6.93,0,0,1-1.81-5.05,8.43,8.43,0,0,1,.45-2.79,6.15,6.15,0,0,1,1.3-2.2,5.65,5.65,0,0,1,2.11-1.41,7.58,7.58,0,0,1,2.78-.49,6.59,6.59,0,0,1,3.41.84A5.51,5.51,0,0,1,469.3,279a5.7,5.7,0,0,1,.71,2.71q0,1.28-.73,1.66A4.56,4.56,0,0,1,467.22,283.78Zm-6.63-1.92h6.14a4.12,4.12,0,0,0-.94-2.6,2.81,2.81,0,0,0-2.14-.86,2.71,2.71,0,0,0-2.08.88A4.36,4.36,0,0,0,460.59,281.85Z"/><path class="cls-11" d="M491.25,279.41H478.51v-3.25h12.74Zm0,5.51H478.51v-3.25h12.74Z"/><path class="cls-11" d="M502.6,271.5h8.27a3.08,3.08,0,0,1,1.73.37,1.39,1.39,0,0,1,.53,1.23,2.62,2.62,0,0,1-.63,1.38q-.63.86-1.43,1.89a20.31,20.31,0,0,0-1.65,2.58,21.05,21.05,0,0,0-1.56,3.76,16.55,16.55,0,0,0-.42,1.63q-.12.65-.27,1.68t-.26,1.58a3.59,3.59,0,0,1-.74,1.76,1.7,1.7,0,0,1-1.27.49,1.53,1.53,0,0,1-1.22-.53,2.31,2.31,0,0,1-.46-1.56,9.65,9.65,0,0,1,.34-2.16,25.81,25.81,0,0,1,1.09-3.27,31.86,31.86,0,0,1,4.59-7.9H502.6A2.62,2.62,0,0,1,501,274a1.37,1.37,0,0,1-.52-1.19,1.08,1.08,0,0,1,.55-1.1A3.79,3.79,0,0,1,502.6,271.5Z"/><path class="cls-11" d="M522.14,276a5.13,5.13,0,0,1-1,3.53,3.65,3.65,0,0,1-2.85,1.15,4.07,4.07,0,0,1-2-.49,3.31,3.31,0,0,1-1.38-1.53,5.89,5.89,0,0,1-.5-2.54,8.12,8.12,0,0,1,.38-2.69,3.13,3.13,0,0,1,1.25-1.64,4,4,0,0,1,2.2-.56,4.49,4.49,0,0,1,1.7.3,3.11,3.11,0,0,1,1.24.91,4,4,0,0,1,.76,1.5A7.68,7.68,0,0,1,522.14,276Zm-2.32-.12a5.93,5.93,0,0,0-.35-2.36,1.24,1.24,0,0,0-1.23-.74,1.28,1.28,0,0,0-.95.35,2,2,0,0,0-.48,1,9.73,9.73,0,0,0-.13,1.76,10.1,10.1,0,0,0,.13,1.8,2,2,0,0,0,.48,1,1.28,1.28,0,0,0,1,.35,1.23,1.23,0,0,0,1.25-.78A6.83,6.83,0,0,0,519.82,275.87Zm10.6-3-10.34,16.67q-.4.68-.89.68a.94.94,0,0,1-.57-.22.68.68,0,0,1-.29-.56,1.21,1.21,0,0,1,.25-.63L529,272a4.63,4.63,0,0,1,.48-.69.75.75,0,0,1,.59-.23.84.84,0,0,1,.6.22.76.76,0,0,1,.23.58A2.55,2.55,0,0,1,530.42,272.85ZM534.85,285a5.13,5.13,0,0,1-1,3.53,3.65,3.65,0,0,1-2.85,1.15,4.06,4.06,0,0,1-2-.5,3.39,3.39,0,0,1-1.39-1.53,5.77,5.77,0,0,1-.5-2.54,6,6,0,0,1,.92-3.64,3.44,3.44,0,0,1,2.94-1.22,4.44,4.44,0,0,1,1.69.3,3.25,3.25,0,0,1,1.24.89,3.8,3.8,0,0,1,.76,1.48A7.75,7.75,0,0,1,534.85,285Zm-2.32-.12a5.84,5.84,0,0,0-.35-2.34,1.24,1.24,0,0,0-1.23-.74,1.31,1.31,0,0,0-1,.35,2,2,0,0,0-.49,1,8.81,8.81,0,0,0-.14,1.76,6.19,6.19,0,0,0,.35,2.43,1.26,1.26,0,0,0,1.25.77,1.23,1.23,0,0,0,1.24-.79A6.71,6.71,0,0,0,532.53,284.84Z"/><line class="cls-2" x1="334.97" y1="534.74" x2="334.97" y2="548.17"/><circle class="cls-12" cx="334.75" cy="378.59" r="42.11"/><path class="cls-13" d="M384.06,518.19c-24.77,1.31-73.41.44-98.18,0,0-48.5,14.86-87.81,49.09-87.81S384.06,469.69,384.06,518.19Z"/><polygon class="cls-5" points="329.61 439.71 325.93 474.14 334.83 479.86 334.83 439.71 329.61 439.71"/><polygon class="cls-5" points="334.83 479.86 342.86 474.14 340.06 439.71 334.83 439.71 334.83 479.86"/><polygon class="cls-5" points="324.94 430.04 329.66 439.71 340 439.71 344.72 430.04 324.94 430.04"/><polygon class="cls-5" points="324.94 430.04 329.66 439.71 334.83 439.71 334.83 430.04 324.94 430.04"/><polygon class="cls-6" points="329.66 439.71 340 439.71 340 440.17 329.66 439.71"/><polygon class="cls-7" points="315.91 423.93 334.71 430.12 315.54 447.06 315.91 423.93"/><polygon class="cls-7" points="353.65 423.93 334.85 430.12 354.02 447.06 353.65 423.93"/><path class="cls-8" d="M335.22,499.24v5.88A6.16,6.16,0,0,1,335,507a3,3,0,0,1-.85,1.27,8,8,0,0,1-1.58,1.09,24.83,24.83,0,0,1-5.36,2.2,21.59,21.59,0,0,1-5.61.69,18.27,18.27,0,0,1-6.44-1.09,13.55,13.55,0,0,1-5-3.16,13.94,13.94,0,0,1-3.15-5,18.77,18.77,0,0,1-1.1-6.59,19.25,19.25,0,0,1,1.07-6.55,13.44,13.44,0,0,1,3.14-5,13.78,13.78,0,0,1,5-3.17,19.33,19.33,0,0,1,6.74-1.1,16.7,16.7,0,0,1,5.48.83,12.07,12.07,0,0,1,3.87,2.08,9.28,9.28,0,0,1,2.24,2.66,5.4,5.4,0,0,1,.75,2.49,2.66,2.66,0,0,1-.87,2,2.91,2.91,0,0,1-2.08.83,2.8,2.8,0,0,1-1.29-.31,2.93,2.93,0,0,1-1-.88,24.6,24.6,0,0,0-1.95-2.72,6.27,6.27,0,0,0-2.14-1.55,8.18,8.18,0,0,0-3.44-.63,9.51,9.51,0,0,0-3.85.74,8,8,0,0,0-2.9,2.15,9.71,9.71,0,0,0-1.84,3.46,15.21,15.21,0,0,0-.64,4.54q0,5.4,2.48,8.3a8.6,8.6,0,0,0,6.91,2.91,14.1,14.1,0,0,0,4-.56,20.45,20.45,0,0,0,3.84-1.61v-5h-4.81a5.28,5.28,0,0,1-2.63-.52,1.89,1.89,0,0,1-.89-1.78,2.19,2.19,0,0,1,.74-1.69,2.9,2.9,0,0,1,2-.67h7a9,9,0,0,1,2.2.23,2.48,2.48,0,0,1,1.45,1A4.19,4.19,0,0,1,335.22,499.24Z"/><path class="cls-8" d="M353,499.76h-5.69v8.68a4.05,4.05,0,0,1-.88,2.82,3.1,3.1,0,0,1-4.48,0,4,4,0,0,1-.86-2.79V484.85a3.86,3.86,0,0,1,.94-2.93,4.28,4.28,0,0,1,3-.88h8a20.86,20.86,0,0,1,5.44.54,8.09,8.09,0,0,1,3.25,1.74,7.82,7.82,0,0,1,2.08,3,10.47,10.47,0,0,1,.71,4q0,4.69-2.89,7.1T353,499.76Zm-1.51-14.06h-4.18v9.37h4.18a12.51,12.51,0,0,0,3.67-.46,4.27,4.27,0,0,0,2.25-1.51,4.5,4.5,0,0,0,.77-2.74,4.65,4.65,0,0,0-1.19-3.31Q355.7,485.71,351.54,485.71Z"/><circle class="cls-14" cx="334.77" cy="602.76" r="37.59"/><path class="cls-15" d="M378.8,727.39c-22.11,1.17-65.54.39-87.65,0,0-43.29,13.27-78.39,43.83-78.39S378.8,684.09,378.8,727.39Z"/><polygon class="cls-5" points="330.18 657.33 326.9 688.06 334.85 693.17 334.85 657.33 330.18 657.33"/><polygon class="cls-5" points="334.85 693.17 342.01 688.06 339.51 657.33 334.85 657.33 334.85 693.17"/><polygon class="cls-5" points="326.02 648.69 330.23 657.33 339.46 657.33 343.67 648.69 326.02 648.69"/><polygon class="cls-5" points="326.02 648.69 330.23 657.33 334.85 657.33 334.85 648.69 326.02 648.69"/><polygon class="cls-6" points="330.23 657.33 339.46 657.33 339.46 657.74 330.23 657.33"/><polygon class="cls-7" points="317.96 643.24 334.74 648.76 317.62 663.89 317.96 643.24"/><polygon class="cls-7" points="351.64 643.24 334.86 648.76 351.98 663.89 351.64 643.24"/><path class="cls-1" d="M328,711.69h-5.16v7.88a3.68,3.68,0,0,1-.8,2.56,2.81,2.81,0,0,1-4.06,0,3.67,3.67,0,0,1-.78-2.53V698.15a3.51,3.51,0,0,1,.85-2.66,3.89,3.89,0,0,1,2.72-.8H328a18.94,18.94,0,0,1,4.94.49,7.35,7.35,0,0,1,3,1.58,7.11,7.11,0,0,1,1.89,2.7,9.5,9.5,0,0,1,.65,3.59,7.93,7.93,0,0,1-2.62,6.45Q333.22,711.69,328,711.69Zm-1.37-12.76h-3.8v8.51h3.8A11.36,11.36,0,0,0,330,707a3.88,3.88,0,0,0,2-1.37,4.08,4.08,0,0,0,.7-2.49,4.22,4.22,0,0,0-1.08-3Q330.45,698.93,326.67,698.93Z"/><path class="cls-1" d="M348,715.53v4.33a3.34,3.34,0,0,1-.74,2.36,2.47,2.47,0,0,1-1.88.79,2.37,2.37,0,0,1-1.84-.8,3.4,3.4,0,0,1-.72-2.35V705.42q0-3.49,2.53-3.49a2.11,2.11,0,0,1,1.86.82,4.5,4.5,0,0,1,.63,2.41,9,9,0,0,1,1.91-2.41,3.94,3.94,0,0,1,2.61-.82,6.69,6.69,0,0,1,3.17.82,2.44,2.44,0,0,1,1.54,2.16,2.06,2.06,0,0,1-.66,1.57,2,2,0,0,1-1.41.62,6.48,6.48,0,0,1-1.38-.35,6.39,6.39,0,0,0-1.93-.35,2.82,2.82,0,0,0-1.86.6,3.83,3.83,0,0,0-1.12,1.78,12.38,12.38,0,0,0-.55,2.8Q348,713.19,348,715.53Z"/><line class="cls-2" x1="334.97" y1="744.72" x2="334.97" y2="758.16"/><circle class="cls-9" cx="334.9" cy="808.94" r="33.64"/><path class="cls-10" d="M374.3,920.45c-19.79,1-58.64.35-78.43,0,0-38.74,11.87-70.14,39.21-70.14S374.3,881.71,374.3,920.45Z"/><path class="cls-8" d="M327.24,913.14h-6.72a2.78,2.78,0,0,1-2.08-.65,2.94,2.94,0,0,1-.62-2.08V893.87a2.88,2.88,0,0,1,.64-2.09,2.83,2.83,0,0,1,2.06-.64h7.13a16.64,16.64,0,0,1,2.73.2,5.82,5.82,0,0,1,2.07.75,5.44,5.44,0,0,1,1.38,1.18,5.2,5.2,0,0,1,.92,1.58,5.28,5.28,0,0,1,.32,1.82,5.06,5.06,0,0,1-3.3,4.83q4.34,1.38,4.34,5.37a6,6,0,0,1-.95,3.32,5.68,5.68,0,0,1-2.55,2.18,9.06,9.06,0,0,1-2.31.59A23.55,23.55,0,0,1,327.24,913.14Zm-5-18.66v5.69h4.08a8.19,8.19,0,0,0,2.57-.32,2.46,2.46,0,0,0,1.39-1.2,2.71,2.71,0,0,0,.38-1.41A2.19,2.19,0,0,0,329.5,895a9.06,9.06,0,0,0-3.62-.55Zm4.64,8.89h-4.64v6.42h4.79q4.52,0,4.52-3.26a2.66,2.66,0,0,0-1.17-2.42A6.56,6.56,0,0,0,326.91,903.37Z"/><path class="cls-8" d="M344.32,893.47v16h9A2.38,2.38,0,0,1,355,910a1.71,1.71,0,0,1,.58,1.32,1.67,1.67,0,0,1-.57,1.31,2.45,2.45,0,0,1-1.67.5H342.59a2.33,2.33,0,0,1-2.73-2.73V893.47a3,3,0,0,1,.61-2,2.05,2.05,0,0,1,1.6-.68,2.12,2.12,0,0,1,1.63.67A2.89,2.89,0,0,1,344.32,893.47Z"/><polygon class="cls-5" points="330.8 857.99 327.86 885.49 334.97 890.06 334.97 857.99 330.8 857.99"/><polygon class="cls-5" points="334.97 890.06 341.38 885.49 339.14 857.99 334.97 857.99 334.97 890.06"/><polygon class="cls-5" points="327.07 850.26 330.84 857.99 339.1 857.99 342.87 850.26 327.07 850.26"/><polygon class="cls-5" points="327.07 850.26 330.84 857.99 334.97 857.99 334.97 850.26 327.07 850.26"/><polygon class="cls-6" points="330.84 857.99 339.1 857.99 339.1 858.36 330.84 857.99"/><polygon class="cls-7" points="319.86 845.38 334.88 850.33 319.56 863.86 319.86 845.38"/><polygon class="cls-7" points="350 845.38 334.98 850.33 350.3 863.86 350 845.38"/><path class="cls-11" d="M424,450.65v3.49a3.65,3.65,0,0,1-.14,1.11,1.76,1.76,0,0,1-.5.75,4.73,4.73,0,0,1-.94.65,14.73,14.73,0,0,1-3.18,1.3,12.81,12.81,0,0,1-3.33.41,10.85,10.85,0,0,1-3.82-.65,8,8,0,0,1-2.94-1.87,8.28,8.28,0,0,1-1.87-3,11.14,11.14,0,0,1-.65-3.91,11.42,11.42,0,0,1,.63-3.89,8,8,0,0,1,1.86-3,8.17,8.17,0,0,1,3-1.88,11.47,11.47,0,0,1,4-.65,9.92,9.92,0,0,1,3.25.49,7.15,7.15,0,0,1,2.3,1.24,5.51,5.51,0,0,1,1.33,1.58,3.2,3.2,0,0,1,.45,1.48,1.58,1.58,0,0,1-.51,1.19,1.73,1.73,0,0,1-1.24.49,1.66,1.66,0,0,1-.76-.19,1.73,1.73,0,0,1-.62-.52,14.64,14.64,0,0,0-1.15-1.61,3.72,3.72,0,0,0-1.27-.92,4.86,4.86,0,0,0-2-.37,5.64,5.64,0,0,0-2.28.44,4.71,4.71,0,0,0-1.72,1.28,5.74,5.74,0,0,0-1.09,2.05,9,9,0,0,0-.38,2.69,7.38,7.38,0,0,0,1.47,4.93,5.1,5.1,0,0,0,4.1,1.73,8.37,8.37,0,0,0,2.4-.34,12.15,12.15,0,0,0,2.28-1v-3h-2.85a3.12,3.12,0,0,1-1.56-.31,1.12,1.12,0,0,1-.53-1.06,1.29,1.29,0,0,1,.44-1,1.72,1.72,0,0,1,1.2-.4h4.18a5.34,5.34,0,0,1,1.3.14,1.47,1.47,0,0,1,.86.61A2.49,2.49,0,0,1,424,450.65Z"/><path class="cls-11" d="M440,451.47a8,8,0,0,1-.47,2.79,6.16,6.16,0,0,1-1.37,2.2,6,6,0,0,1-2.13,1.41,7.55,7.55,0,0,1-2.79.49,7.34,7.34,0,0,1-2.77-.5,6.11,6.11,0,0,1-3.49-3.61,8,8,0,0,1-.47-2.79,8.1,8.1,0,0,1,.47-2.82,6.15,6.15,0,0,1,1.35-2.18,6,6,0,0,1,2.13-1.4,8.08,8.08,0,0,1,5.56,0,6,6,0,0,1,3.51,3.6A8,8,0,0,1,440,451.47Zm-3.4,0a5.09,5.09,0,0,0-.91-3.23,3,3,0,0,0-2.45-1.15,3,3,0,0,0-1.75.52,3.27,3.27,0,0,0-1.17,1.52,6.19,6.19,0,0,0-.41,2.35,6.13,6.13,0,0,0,.4,2.32,3.31,3.31,0,0,0,1.15,1.52,3,3,0,0,0,1.77.53,3,3,0,0,0,2.45-1.16A5.07,5.07,0,0,0,436.56,451.47Z"/><path class="cls-11" d="M442.63,456.29V441.6a2.28,2.28,0,0,1,.45-1.54,1.54,1.54,0,0,1,1.22-.52,1.6,1.6,0,0,1,1.24.52,2.22,2.22,0,0,1,.47,1.55v14.7a2.21,2.21,0,0,1-.48,1.55,1.61,1.61,0,0,1-1.24.52,1.53,1.53,0,0,1-1.21-.53A2.25,2.25,0,0,1,442.63,456.29Z"/><path class="cls-11" d="M458.81,456.42v-.34a8.64,8.64,0,0,1-1.35,1.27,5.08,5.08,0,0,1-1.44.74,5.42,5.42,0,0,1-1.7.25,5,5,0,0,1-2.25-.52,5.26,5.26,0,0,1-1.79-1.47,6.71,6.71,0,0,1-1.15-2.25,9.59,9.59,0,0,1-.39-2.79,7.28,7.28,0,0,1,1.55-5,5.16,5.16,0,0,1,4.08-1.77,5.48,5.48,0,0,1,2.47.5,6.88,6.88,0,0,1,2,1.55v-5a2.52,2.52,0,0,1,.42-1.58,1.41,1.41,0,0,1,1.18-.53,1.47,1.47,0,0,1,1.19.49,2.19,2.19,0,0,1,.41,1.45v14.94a2.08,2.08,0,0,1-.45,1.45,1.5,1.5,0,0,1-1.15.48,1.48,1.48,0,0,1-1.15-.5A2.06,2.06,0,0,1,458.81,456.42Zm-6.67-5a5.78,5.78,0,0,0,.43,2.35,3.27,3.27,0,0,0,1.17,1.46,2.9,2.9,0,0,0,1.63.49,3,3,0,0,0,1.63-.47,3.21,3.21,0,0,0,1.18-1.43,5.78,5.78,0,0,0,.44-2.4,5.64,5.64,0,0,0-.44-2.33,3.51,3.51,0,0,0-1.19-1.49,2.85,2.85,0,0,0-1.65-.52,2.78,2.78,0,0,0-1.66.53,3.38,3.38,0,0,0-1.13,1.51A6,6,0,0,0,452.14,451.44Z"/><path class="cls-11" d="M479.06,451h-3.38v5.15a2.4,2.4,0,0,1-.52,1.68,1.84,1.84,0,0,1-2.66,0,2.4,2.4,0,0,1-.51-1.66v-14a2.29,2.29,0,0,1,.56-1.74,2.54,2.54,0,0,1,1.77-.52h4.73a12.4,12.4,0,0,1,3.23.32,4.82,4.82,0,0,1,1.93,1,4.65,4.65,0,0,1,1.23,1.76,6.19,6.19,0,0,1,.42,2.35,5.18,5.18,0,0,1-1.71,4.21A7.79,7.79,0,0,1,479.06,451Zm-.89-8.34h-2.48v5.56h2.48a7.42,7.42,0,0,0,2.18-.27,2.53,2.53,0,0,0,1.33-.89,2.66,2.66,0,0,0,.46-1.63,2.76,2.76,0,0,0-.71-2Q480.64,442.62,478.17,442.62Z"/><path class="cls-11" d="M492.08,453.46v2.83a2.18,2.18,0,0,1-.48,1.55,1.61,1.61,0,0,1-1.23.52,1.55,1.55,0,0,1-1.2-.52,2.23,2.23,0,0,1-.47-1.54v-9.43q0-2.28,1.65-2.28a1.38,1.38,0,0,1,1.22.53,2.94,2.94,0,0,1,.41,1.58,5.92,5.92,0,0,1,1.25-1.58,2.58,2.58,0,0,1,1.71-.53,4.37,4.37,0,0,1,2.07.53,1.59,1.59,0,0,1,1,1.42,1.34,1.34,0,0,1-.43,1,1.33,1.33,0,0,1-.93.4,4.23,4.23,0,0,1-.9-.23,4.2,4.2,0,0,0-1.26-.23,1.84,1.84,0,0,0-1.22.39,2.51,2.51,0,0,0-.73,1.16,8.12,8.12,0,0,0-.36,1.83Q492.08,451.94,492.08,453.46Z"/><path class="cls-11" d="M508.68,452.3h-6.63a4.49,4.49,0,0,0,.47,2,3.11,3.11,0,0,0,2.86,1.77,4.06,4.06,0,0,0,1.11-.14,3.59,3.59,0,0,0,1-.45,7.33,7.33,0,0,0,.87-.65q.4-.35,1-.94a1.11,1.11,0,0,1,.74-.22,1.23,1.23,0,0,1,.84.29,1,1,0,0,1,.32.81,2.2,2.2,0,0,1-.36,1.07,4.25,4.25,0,0,1-1.09,1.18A6.18,6.18,0,0,1,508,458a7.86,7.86,0,0,1-2.53.37,6.76,6.76,0,0,1-5.08-1.86,6.94,6.94,0,0,1-1.81-5.05,8.43,8.43,0,0,1,.45-2.79,6.15,6.15,0,0,1,1.3-2.2,5.66,5.66,0,0,1,2.11-1.41,7.58,7.58,0,0,1,2.78-.49,6.6,6.6,0,0,1,3.41.84,5.51,5.51,0,0,1,2.13,2.17,5.7,5.7,0,0,1,.71,2.71q0,1.28-.73,1.66A4.56,4.56,0,0,1,508.68,452.3Zm-6.63-1.92h6.14a4.12,4.12,0,0,0-.94-2.6,2.81,2.81,0,0,0-2.14-.86,2.71,2.71,0,0,0-2.08.88A4.35,4.35,0,0,0,502.05,450.37Z"/><path class="cls-11" d="M525.24,453.92a3.93,3.93,0,0,1-2.7,3.92,9.05,9.05,0,0,1-3.25.52,7.92,7.92,0,0,1-3.13-.56,4.56,4.56,0,0,1-1.92-1.4,2.82,2.82,0,0,1-.62-1.68,1.31,1.31,0,0,1,.4-1,1.36,1.36,0,0,1,1-.4,1.17,1.17,0,0,1,.82.26,2.85,2.85,0,0,1,.55.73,3.71,3.71,0,0,0,1.25,1.35,3.76,3.76,0,0,0,2,.45,2.86,2.86,0,0,0,1.67-.45,1.27,1.27,0,0,0,.65-1,1.41,1.41,0,0,0-.68-1.3,8.39,8.39,0,0,0-2.23-.78,18.42,18.42,0,0,1-2.85-.91,4.69,4.69,0,0,1-1.76-1.26,2.89,2.89,0,0,1-.66-1.92,3.4,3.4,0,0,1,.61-1.92,4.18,4.18,0,0,1,1.79-1.45,6.86,6.86,0,0,1,2.86-.54,9.42,9.42,0,0,1,2.37.27,5.92,5.92,0,0,1,1.75.73,3.64,3.64,0,0,1,1.07,1,2,2,0,0,1,.37,1.09,1.26,1.26,0,0,1-.39,1,1.55,1.55,0,0,1-1.11.37,1.36,1.36,0,0,1-.89-.3,5.84,5.84,0,0,1-.84-.89,3.06,3.06,0,0,0-.91-.79,2.86,2.86,0,0,0-1.42-.3,2.77,2.77,0,0,0-1.53.39,1.14,1.14,0,0,0-.61,1,1.05,1.05,0,0,0,.45.88,3.71,3.71,0,0,0,1.2.56q.76.22,2.09.55a11.17,11.17,0,0,1,2.58.92,4.3,4.3,0,0,1,1.51,1.26A2.8,2.8,0,0,1,525.24,453.92Z"/><path class="cls-11" d="M529.82,443a1.78,1.78,0,0,1-1.21-.43,1.68,1.68,0,0,1,0-2.41,1.73,1.73,0,0,1,1.2-.47,1.78,1.78,0,0,1,1.17.42,1.5,1.5,0,0,1,.51,1.23,1.55,1.55,0,0,1-.5,1.22A1.72,1.72,0,0,1,529.82,443Zm1.68,3.5v9.79a2.19,2.19,0,0,1-.48,1.54,1.6,1.6,0,0,1-1.23.52,1.53,1.53,0,0,1-1.21-.53,2.25,2.25,0,0,1-.47-1.53V446.6a2.18,2.18,0,0,1,.47-1.51,1.56,1.56,0,0,1,1.21-.51,1.62,1.62,0,0,1,1.23.51A2,2,0,0,1,531.49,446.5Z"/><path class="cls-11" d="M544.28,456.42v-.34a8.64,8.64,0,0,1-1.35,1.27,5.08,5.08,0,0,1-1.44.74,5.42,5.42,0,0,1-1.7.25,5,5,0,0,1-2.25-.52,5.26,5.26,0,0,1-1.79-1.47,6.71,6.71,0,0,1-1.15-2.25,9.59,9.59,0,0,1-.39-2.79,7.28,7.28,0,0,1,1.55-5,5.16,5.16,0,0,1,4.08-1.77,5.48,5.48,0,0,1,2.47.5,6.88,6.88,0,0,1,2,1.55v-5a2.52,2.52,0,0,1,.42-1.58,1.41,1.41,0,0,1,1.18-.53,1.47,1.47,0,0,1,1.19.49,2.19,2.19,0,0,1,.41,1.45v14.94a2.08,2.08,0,0,1-.45,1.45,1.5,1.5,0,0,1-1.15.48,1.48,1.48,0,0,1-1.15-.5A2.06,2.06,0,0,1,544.28,456.42Zm-6.67-5a5.78,5.78,0,0,0,.43,2.35,3.27,3.27,0,0,0,1.17,1.46,2.9,2.9,0,0,0,1.63.49,3,3,0,0,0,1.63-.47,3.21,3.21,0,0,0,1.18-1.43,5.78,5.78,0,0,0,.44-2.4,5.64,5.64,0,0,0-.44-2.33,3.51,3.51,0,0,0-1.19-1.49,2.85,2.85,0,0,0-1.65-.52,2.78,2.78,0,0,0-1.66.53,3.38,3.38,0,0,0-1.13,1.51A6,6,0,0,0,537.61,451.44Z"/><path class="cls-11" d="M560.34,452.3h-6.63a4.49,4.49,0,0,0,.47,2,3.11,3.11,0,0,0,2.86,1.77,4.06,4.06,0,0,0,1.11-.14,3.59,3.59,0,0,0,1-.45,7.33,7.33,0,0,0,.87-.65q.4-.35,1-.94a1.11,1.11,0,0,1,.74-.22,1.23,1.23,0,0,1,.84.29,1,1,0,0,1,.32.81,2.2,2.2,0,0,1-.36,1.07,4.25,4.25,0,0,1-1.09,1.18,6.18,6.18,0,0,1-1.82.94,7.86,7.86,0,0,1-2.53.37,6.76,6.76,0,0,1-5.08-1.86,6.94,6.94,0,0,1-1.81-5.05,8.43,8.43,0,0,1,.45-2.79,6.15,6.15,0,0,1,1.3-2.2,5.66,5.66,0,0,1,2.11-1.41,7.58,7.58,0,0,1,2.78-.49,6.6,6.6,0,0,1,3.41.84,5.51,5.51,0,0,1,2.13,2.17,5.7,5.7,0,0,1,.71,2.71q0,1.28-.73,1.66A4.56,4.56,0,0,1,560.34,452.3Zm-6.63-1.92h6.14a4.12,4.12,0,0,0-.94-2.6,2.81,2.81,0,0,0-2.14-.86,2.71,2.71,0,0,0-2.08.88A4.35,4.35,0,0,0,553.71,450.37Z"/><path class="cls-11" d="M569.07,446.45v.41a5.94,5.94,0,0,1,2-1.73,5.21,5.21,0,0,1,2.44-.55,4.87,4.87,0,0,1,2.4.58,3.71,3.71,0,0,1,1.58,1.65,3.92,3.92,0,0,1,.43,1.34A13.84,13.84,0,0,1,578,450v6.31a2.24,2.24,0,0,1-.46,1.54,1.55,1.55,0,0,1-1.21.52,1.56,1.56,0,0,1-1.23-.53,2.24,2.24,0,0,1-.47-1.53v-5.65a5.65,5.65,0,0,0-.46-2.56,1.9,1.9,0,0,0-1.86-.89,2.75,2.75,0,0,0-1.65.54,3.11,3.11,0,0,0-1.09,1.48,10.64,10.64,0,0,0-.25,2.83v4.25a2.21,2.21,0,0,1-.48,1.55,1.61,1.61,0,0,1-1.24.52,1.54,1.54,0,0,1-1.2-.53,2.24,2.24,0,0,1-.47-1.53V446.5a2.13,2.13,0,0,1,.42-1.45,1.46,1.46,0,0,1,1.15-.48,1.57,1.57,0,0,1,.81.21,1.52,1.52,0,0,1,.58.63A2.25,2.25,0,0,1,569.07,446.45Z"/><path class="cls-11" d="M581.53,444.88h.37v-2q0-.82,0-1.28a1.89,1.89,0,0,1,.24-.8,1.53,1.53,0,0,1,.57-.56,1.62,1.62,0,0,1,.83-.22,1.67,1.67,0,0,1,1.17.48,1.43,1.43,0,0,1,.44.79,7.17,7.17,0,0,1,.09,1.32v2.31h1.24a1.59,1.59,0,0,1,1.1.34,1.13,1.13,0,0,1,.38.88,1,1,0,0,1-.54,1,3.51,3.51,0,0,1-1.55.27h-.63v6.23a10.07,10.07,0,0,0,.06,1.22,1.24,1.24,0,0,0,.3.7,1,1,0,0,0,.79.27,4.2,4.2,0,0,0,.81-.11,4.22,4.22,0,0,1,.79-.11,1,1,0,0,1,.74.33,1.11,1.11,0,0,1,.33.81,1.36,1.36,0,0,1-.89,1.25,6,6,0,0,1-2.57.43,4.44,4.44,0,0,1-2.41-.53,2.47,2.47,0,0,1-1.07-1.48,10,10,0,0,1-.26-2.52v-6.5h-.45a1.61,1.61,0,0,1-1.12-.35,1.14,1.14,0,0,1-.38-.88,1.09,1.09,0,0,1,.4-.88A1.77,1.77,0,0,1,581.53,444.88Z"/><path class="cls-11" d="M604.7,458h-5.56a2.3,2.3,0,0,1-1.72-.54,2.42,2.42,0,0,1-.52-1.72V442.11a2.38,2.38,0,0,1,.53-1.73,2.34,2.34,0,0,1,1.71-.53H605a13.79,13.79,0,0,1,2.26.16,4.82,4.82,0,0,1,1.71.62,4.49,4.49,0,0,1,1.14,1,4.29,4.29,0,0,1,.76,1.3,4.36,4.36,0,0,1,.26,1.51,4.18,4.18,0,0,1-2.73,4q3.59,1.14,3.59,4.44a5,5,0,0,1-.78,2.75,4.69,4.69,0,0,1-2.11,1.81,7.48,7.48,0,0,1-1.91.49A19.45,19.45,0,0,1,604.7,458Zm-4.11-15.43v4.7H604a6.79,6.79,0,0,0,2.13-.26,2,2,0,0,0,1.15-1,2.23,2.23,0,0,0,.31-1.17,1.81,1.81,0,0,0-1-1.83,7.49,7.49,0,0,0-3-.45Zm3.84,7.35h-3.84v5.31h4q3.74,0,3.74-2.69a2.2,2.2,0,0,0-1-2A5.42,5.42,0,0,0,604.43,450Z"/><path class="cls-11" d="M414.44,481.46h-3.38v5.15a2.4,2.4,0,0,1-.52,1.68,1.84,1.84,0,0,1-2.66,0,2.4,2.4,0,0,1-.51-1.66v-14a2.29,2.29,0,0,1,.56-1.74,2.54,2.54,0,0,1,1.77-.52h4.73a12.38,12.38,0,0,1,3.23.32,4.81,4.81,0,0,1,1.93,1,4.65,4.65,0,0,1,1.23,1.76,6.19,6.19,0,0,1,.42,2.35,5.18,5.18,0,0,1-1.71,4.21A7.79,7.79,0,0,1,414.44,481.46Zm-.89-8.34h-2.48v5.56h2.48a7.43,7.43,0,0,0,2.18-.27,2.53,2.53,0,0,0,1.33-.89,2.66,2.66,0,0,0,.46-1.63,2.76,2.76,0,0,0-.71-2Q416,473.12,413.55,473.12Z"/><path class="cls-11" d="M427,472.46l4.12,12.2,4.13-12.29q.32-1,.48-1.35a1.8,1.8,0,0,1,.53-.68,1.56,1.56,0,0,1,1-.3,1.71,1.71,0,0,1,.88.24,1.75,1.75,0,0,1,.63.63,1.55,1.55,0,0,1,.23.79,2.59,2.59,0,0,1-.07.59,5.37,5.37,0,0,1-.19.62l-.22.63-4.41,11.89q-.24.68-.47,1.3a5.44,5.44,0,0,1-.55,1.08,2.45,2.45,0,0,1-.82.76,2.48,2.48,0,0,1-1.26.3,2.52,2.52,0,0,1-1.26-.29,2.39,2.39,0,0,1-.83-.77,5.71,5.71,0,0,1-.55-1.09q-.24-.61-.47-1.29l-4.33-11.79-.23-.63a4.65,4.65,0,0,1-.2-.67,2.8,2.8,0,0,1-.08-.61,1.62,1.62,0,0,1,.51-1.15,1.71,1.71,0,0,1,1.28-.52,1.49,1.49,0,0,1,1.34.58A7.69,7.69,0,0,1,427,472.46Z"/><path class="cls-11" d="M458.11,481.15v3.49a3.66,3.66,0,0,1-.14,1.11,1.76,1.76,0,0,1-.5.75,4.73,4.73,0,0,1-.94.65,14.73,14.73,0,0,1-3.18,1.3,12.81,12.81,0,0,1-3.33.41,10.85,10.85,0,0,1-3.82-.65,8,8,0,0,1-2.94-1.87,8.28,8.28,0,0,1-1.87-3,11.14,11.14,0,0,1-.65-3.91,11.42,11.42,0,0,1,.63-3.89,8,8,0,0,1,1.86-3,8.17,8.17,0,0,1,3-1.88,11.47,11.47,0,0,1,4-.65,9.91,9.91,0,0,1,3.25.49,7.15,7.15,0,0,1,2.3,1.24,5.51,5.51,0,0,1,1.33,1.58,3.2,3.2,0,0,1,.45,1.48A1.58,1.58,0,0,1,457,476a1.73,1.73,0,0,1-1.24.49,1.66,1.66,0,0,1-.76-.19,1.73,1.73,0,0,1-.62-.52,14.6,14.6,0,0,0-1.15-1.61,3.71,3.71,0,0,0-1.27-.92,4.86,4.86,0,0,0-2-.37,5.64,5.64,0,0,0-2.28.44A4.71,4.71,0,0,0,446,474.6a5.74,5.74,0,0,0-1.09,2.05,9,9,0,0,0-.38,2.69,7.38,7.38,0,0,0,1.47,4.93,5.1,5.1,0,0,0,4.1,1.73,8.37,8.37,0,0,0,2.4-.34,12.15,12.15,0,0,0,2.28-1v-3h-2.85a3.13,3.13,0,0,1-1.56-.31,1.12,1.12,0,0,1-.53-1.06,1.29,1.29,0,0,1,.44-1,1.72,1.72,0,0,1,1.2-.4h4.18a5.32,5.32,0,0,1,1.3.14,1.47,1.47,0,0,1,.86.61A2.49,2.49,0,0,1,458.11,481.15Z"/><path class="cls-11" d="M479.65,481.05l-12.49,5.44V483l8.73-3.43-8.73-3.38v-3.49l12.49,5.39Z"/><path class="cls-11" d="M494.59,478.43H481.86v-3.25h12.74Zm0,5.51H481.86v-3.25h12.74Z"/><path class="cls-11" d="M509,477.56a3,3,0,0,0,2-.67,2.34,2.34,0,0,0,.82-1.92,2.3,2.3,0,0,0-.66-1.64,2.34,2.34,0,0,0-1.77-.69,3.16,3.16,0,0,0-1.25.21,2,2,0,0,0-.78.56,4.17,4.17,0,0,0-.54.89q-.26.55-.47,1a.87.87,0,0,1-.45.41,1.76,1.76,0,0,1-.74.15,1.29,1.29,0,0,1-.91-.4,1.42,1.42,0,0,1-.42-1.07,2.84,2.84,0,0,1,.39-1.36,4.93,4.93,0,0,1,1.14-1.36,5.74,5.74,0,0,1,1.87-1,7.52,7.52,0,0,1,2.49-.39,7,7,0,0,1,2.2.33,5.11,5.11,0,0,1,1.73.95,4.1,4.1,0,0,1,1.1,1.44,4.21,4.21,0,0,1,.37,1.76,4,4,0,0,1-.54,2.13,7.2,7.2,0,0,1-1.55,1.73,6.86,6.86,0,0,1,1.63,1.19,4.46,4.46,0,0,1,1.33,3.24,5.49,5.49,0,0,1-.45,2.18,5.59,5.59,0,0,1-1.34,1.88,6.35,6.35,0,0,1-2.09,1.29,7.4,7.4,0,0,1-2.68.47,6.41,6.41,0,0,1-2.67-.53,6.14,6.14,0,0,1-1.94-1.33,6.07,6.07,0,0,1-1.15-1.66,3.6,3.6,0,0,1-.39-1.42,1.52,1.52,0,0,1,.47-1.16,1.62,1.62,0,0,1,1.16-.44,1.23,1.23,0,0,1,.67.2,1,1,0,0,1,.42.49,8.36,8.36,0,0,0,1.38,2.56,2.62,2.62,0,0,0,2.08.84,3.12,3.12,0,0,0,2.66-1.5,3.19,3.19,0,0,0,.46-1.73,3.15,3.15,0,0,0-.79-2.28,2.92,2.92,0,0,0-2.21-.83c-.16,0-.42,0-.77,0l-.67,0a1.5,1.5,0,0,1-1.06-.34,1.22,1.22,0,0,1-.37-.95,1.18,1.18,0,0,1,.45-1,2.06,2.06,0,0,1,1.33-.37Z"/><path class="cls-11" d="M537.35,479.63a21.24,21.24,0,0,1-.25,3.5,8.14,8.14,0,0,1-.92,2.66A6.1,6.1,0,0,1,534,488a5.74,5.74,0,0,1-3,.79,5.68,5.68,0,0,1-3.38-1.07,6.49,6.49,0,0,1-2.25-3,10.93,10.93,0,0,1-.56-2.28,18.85,18.85,0,0,1-.18-2.7,26,26,0,0,1,.2-3.38,11.2,11.2,0,0,1,.62-2.58,5.56,5.56,0,0,1,5.46-3.66,6.21,6.21,0,0,1,2.32.42,5.31,5.31,0,0,1,1.83,1.22,7,7,0,0,1,1.33,2A14.22,14.22,0,0,1,537.35,479.63Zm-3.4-.25a20.62,20.62,0,0,0-.27-3.72,4.57,4.57,0,0,0-.92-2.18,2.25,2.25,0,0,0-1.79-.74,2.3,2.3,0,0,0-2.28,1.65,15,15,0,0,0-.64,5.09,21.9,21.9,0,0,0,.27,3.82,4.81,4.81,0,0,0,.92,2.25,2.4,2.4,0,0,0,3.54,0,4.92,4.92,0,0,0,.91-2.27A23.14,23.14,0,0,0,534,479.38Z"/><path class="cls-11" d="M552.46,479.63a21.24,21.24,0,0,1-.25,3.5,8.14,8.14,0,0,1-.92,2.66,6.1,6.1,0,0,1-2.18,2.26,5.74,5.74,0,0,1-3,.79,5.68,5.68,0,0,1-3.38-1.07,6.49,6.49,0,0,1-2.25-3,10.93,10.93,0,0,1-.56-2.28,18.85,18.85,0,0,1-.18-2.7,26,26,0,0,1,.2-3.38,11.2,11.2,0,0,1,.62-2.58,5.56,5.56,0,0,1,5.46-3.66,6.21,6.21,0,0,1,2.32.42,5.31,5.31,0,0,1,1.83,1.22,7,7,0,0,1,1.33,2A14.22,14.22,0,0,1,552.46,479.63Zm-3.4-.25a20.62,20.62,0,0,0-.27-3.72,4.57,4.57,0,0,0-.92-2.18,2.25,2.25,0,0,0-1.79-.74,2.3,2.3,0,0,0-2.28,1.65,15,15,0,0,0-.64,5.09,21.9,21.9,0,0,0,.27,3.82,4.81,4.81,0,0,0,.92,2.25,2.4,2.4,0,0,0,3.54,0,4.92,4.92,0,0,0,.91-2.27A23.14,23.14,0,0,0,549.06,479.38Z"/><path class="cls-11" d="M567.56,479.63a21.24,21.24,0,0,1-.25,3.5,8.14,8.14,0,0,1-.92,2.66,6.1,6.1,0,0,1-2.18,2.26,5.74,5.74,0,0,1-3,.79,5.68,5.68,0,0,1-3.38-1.07,6.49,6.49,0,0,1-2.25-3,10.93,10.93,0,0,1-.56-2.28,18.85,18.85,0,0,1-.18-2.7,26,26,0,0,1,.2-3.38,11.2,11.2,0,0,1,.62-2.58,5.56,5.56,0,0,1,5.46-3.66,6.21,6.21,0,0,1,2.32.42,5.31,5.31,0,0,1,1.83,1.22,7,7,0,0,1,1.33,2A14.22,14.22,0,0,1,567.56,479.63Zm-3.4-.25a20.62,20.62,0,0,0-.27-3.72,4.57,4.57,0,0,0-.92-2.18,2.25,2.25,0,0,0-1.79-.74,2.3,2.3,0,0,0-2.28,1.65,15,15,0,0,0-.64,5.09,21.9,21.9,0,0,0,.27,3.82,4.81,4.81,0,0,0,.92,2.25,2.4,2.4,0,0,0,3.54,0,4.92,4.92,0,0,0,.91-2.27A23.14,23.14,0,0,0,564.16,479.38Z"/><path class="cls-11" d="M421.21,513.59a5.36,5.36,0,0,1-.85,3,5.66,5.66,0,0,1-2.49,2.06,9.32,9.32,0,0,1-3.89.74,8.75,8.75,0,0,1-4.44-1,5.92,5.92,0,0,1-2-2,4.43,4.43,0,0,1-.78-2.38,1.61,1.61,0,0,1,1.65-1.63,1.4,1.4,0,0,1,1,.37,2.93,2.93,0,0,1,.69,1.1,7.4,7.4,0,0,0,.75,1.45,3,3,0,0,0,1.13,1,4.19,4.19,0,0,0,1.92.38,4.34,4.34,0,0,0,2.66-.76,2.3,2.3,0,0,0,1-1.91,2,2,0,0,0-.55-1.47,3.56,3.56,0,0,0-1.43-.86q-.88-.3-2.34-.63A17.15,17.15,0,0,1,410,510a5.3,5.3,0,0,1-2.1-1.68,4.35,4.35,0,0,1-.78-2.64,4.53,4.53,0,0,1,.82-2.67,5.17,5.17,0,0,1,2.37-1.79,9.72,9.72,0,0,1,3.65-.63,9,9,0,0,1,2.9.42,6.13,6.13,0,0,1,2,1.1,4.61,4.61,0,0,1,1.18,1.45,3.33,3.33,0,0,1,.37,1.48,1.74,1.74,0,0,1-.46,1.19,1.48,1.48,0,0,1-1.16.53,1.33,1.33,0,0,1-1-.32,4.27,4.27,0,0,1-.71-1,4.69,4.69,0,0,0-1.19-1.61,3.48,3.48,0,0,0-2.23-.58,3.87,3.87,0,0,0-2.3.63,1.82,1.82,0,0,0-.88,1.51,1.53,1.53,0,0,0,.3.94,2.51,2.51,0,0,0,.82.68,5.49,5.49,0,0,0,1.06.45q.53.16,1.76.47a27.63,27.63,0,0,1,2.79.79,8.47,8.47,0,0,1,2.12,1.06,4.35,4.35,0,0,1,1.37,1.57A5,5,0,0,1,421.21,513.59Z"/><path class="cls-11" d="M427.41,502.61v5a7.28,7.28,0,0,1,1.26-1.18,4.52,4.52,0,0,1,1.36-.65,5.71,5.71,0,0,1,1.6-.22,4.7,4.7,0,0,1,2.29.55,4.24,4.24,0,0,1,2.05,2.95,10.66,10.66,0,0,1,.12,1.73v6.49a2.25,2.25,0,0,1-.46,1.54,1.58,1.58,0,0,1-1.24.52q-1.68,0-1.68-2.06v-5.72a5.25,5.25,0,0,0-.48-2.5,1.91,1.91,0,0,0-1.84-.88,2.75,2.75,0,0,0-1.63.52,3.1,3.1,0,0,0-1.09,1.41,9,9,0,0,0-.27,2.69v4.48a2.29,2.29,0,0,1-.45,1.53,1.57,1.57,0,0,1-1.26.53q-1.68,0-1.68-2.06v-14.7a2.32,2.32,0,0,1,.44-1.55,1.54,1.54,0,0,1,1.23-.52,1.58,1.58,0,0,1,1.26.52A2.29,2.29,0,0,1,427.41,502.61Z"/><path class="cls-11" d="M448,517.45a10.49,10.49,0,0,1-2.38,1.43,6.65,6.65,0,0,1-2.58.48,4.88,4.88,0,0,1-2.29-.52,3.77,3.77,0,0,1-1.52-1.4,3.63,3.63,0,0,1-.53-1.91,3.42,3.42,0,0,1,.88-2.37,4.41,4.41,0,0,1,2.42-1.32l1.6-.34q1.28-.26,2.19-.48t2-.53a3.54,3.54,0,0,0-.54-2,2.42,2.42,0,0,0-2-.63,4.12,4.12,0,0,0-1.94.36,3.16,3.16,0,0,0-1.12,1.08q-.47.72-.66.95a1.08,1.08,0,0,1-.83.23,1.44,1.44,0,0,1-1-.37,1.19,1.19,0,0,1-.42-.94,2.87,2.87,0,0,1,.63-1.74,4.53,4.53,0,0,1,2-1.39,8.89,8.89,0,0,1,3.34-.55,9.44,9.44,0,0,1,3.51.53,3.27,3.27,0,0,1,1.81,1.67,7.31,7.31,0,0,1,.53,3q0,1.19,0,2c0,.55,0,1.17,0,1.85a6.81,6.81,0,0,0,.32,2,6.26,6.26,0,0,1,.32,1.33,1.25,1.25,0,0,1-.49.95,1.65,1.65,0,0,1-1.11.43,1.5,1.5,0,0,1-1-.49A7.33,7.33,0,0,1,448,517.45Zm-.22-4.9a17.17,17.17,0,0,1-2.17.58q-1.42.3-2,.45a2.68,2.68,0,0,0-1,.56,1.43,1.43,0,0,0-.5,1.16,1.72,1.72,0,0,0,.58,1.31,2.16,2.16,0,0,0,1.53.54,4,4,0,0,0,1.86-.44,2.94,2.94,0,0,0,1.25-1.14,5.18,5.18,0,0,0,.46-2.53Z"/><path class="cls-11" d="M457.92,514.48v2.83a2.18,2.18,0,0,1-.48,1.55,1.61,1.61,0,0,1-1.23.52,1.55,1.55,0,0,1-1.2-.52,2.23,2.23,0,0,1-.47-1.54v-9.43q0-2.28,1.65-2.28a1.38,1.38,0,0,1,1.22.53,2.94,2.94,0,0,1,.41,1.58,5.92,5.92,0,0,1,1.25-1.58,2.58,2.58,0,0,1,1.71-.53,4.37,4.37,0,0,1,2.07.53,1.59,1.59,0,0,1,1,1.42,1.34,1.34,0,0,1-.43,1,1.33,1.33,0,0,1-.93.4,4.23,4.23,0,0,1-.9-.23,4.18,4.18,0,0,0-1.26-.23,1.84,1.84,0,0,0-1.22.39,2.51,2.51,0,0,0-.73,1.16,8.12,8.12,0,0,0-.36,1.83Q457.93,512.95,457.92,514.48Z"/><path class="cls-11" d="M474.52,513.31h-6.63a4.49,4.49,0,0,0,.47,2,3.11,3.11,0,0,0,2.86,1.77,4.07,4.07,0,0,0,1.11-.14,3.59,3.59,0,0,0,1-.45,7.42,7.42,0,0,0,.87-.65q.4-.35,1-.94a1.11,1.11,0,0,1,.74-.22,1.22,1.22,0,0,1,.84.29,1,1,0,0,1,.32.81,2.2,2.2,0,0,1-.36,1.07,4.25,4.25,0,0,1-1.09,1.18,6.18,6.18,0,0,1-1.82.94,7.86,7.86,0,0,1-2.53.37,6.76,6.76,0,0,1-5.08-1.86,6.94,6.94,0,0,1-1.81-5.05,8.43,8.43,0,0,1,.45-2.79,6.15,6.15,0,0,1,1.3-2.2,5.66,5.66,0,0,1,2.11-1.41,7.57,7.57,0,0,1,2.78-.49,6.6,6.6,0,0,1,3.41.84,5.51,5.51,0,0,1,2.13,2.17,5.7,5.7,0,0,1,.71,2.71q0,1.28-.73,1.66A4.56,4.56,0,0,1,474.52,513.31Zm-6.63-1.92H474a4.12,4.12,0,0,0-.94-2.6,2.81,2.81,0,0,0-2.14-.86,2.71,2.71,0,0,0-2.08.88A4.35,4.35,0,0,0,467.89,511.38Z"/><path class="cls-11" d="M498.55,508.94H485.82v-3.25h12.74Zm0,5.51H485.82V511.2h12.74Z"/><path class="cls-11" d="M517.72,503.92h-5.9l-.71,4a7,7,0,0,1,3.25-.94,5.57,5.57,0,0,1,2.23.45,5.69,5.69,0,0,1,3,3.1,6,6,0,0,1,.45,2.32,6.72,6.72,0,0,1-.81,3.28A6,6,0,0,1,517,518.5a7.91,7.91,0,0,1-7.11,0,5.09,5.09,0,0,1-2-1.88,4,4,0,0,1-.58-1.86,1.34,1.34,0,0,1,.4-.92,1.32,1.32,0,0,1,1-.43,1.66,1.66,0,0,1,1.55,1.2,4.2,4.2,0,0,0,1.34,1.72,3.13,3.13,0,0,0,1.89.61,2.88,2.88,0,0,0,1.68-.5,3.22,3.22,0,0,0,1.11-1.37,4.76,4.76,0,0,0,.39-2,4.5,4.5,0,0,0-.42-2,2.93,2.93,0,0,0-1.13-1.26,3,3,0,0,0-1.58-.42,3.28,3.28,0,0,0-1.53.26,13.5,13.5,0,0,0-1.32.91,2.61,2.61,0,0,1-1.42.65,1.54,1.54,0,0,1-1.08-.44,1.34,1.34,0,0,1-.47-1s0-.32.14-.84l1-5.95a2.85,2.85,0,0,1,.65-1.55,2.08,2.08,0,0,1,1.54-.48h6.55q1.94,0,1.94,1.48a1.3,1.3,0,0,1-.47,1A2.11,2.11,0,0,1,517.72,503.92Z"/><path class="cls-11" d="M529.45,505.53a5.13,5.13,0,0,1-1,3.53,3.65,3.65,0,0,1-2.85,1.15,4.07,4.07,0,0,1-2-.49,3.31,3.31,0,0,1-1.38-1.53,5.89,5.89,0,0,1-.5-2.54,8.12,8.12,0,0,1,.38-2.69,3.13,3.13,0,0,1,1.25-1.64,4,4,0,0,1,2.2-.56,4.49,4.49,0,0,1,1.7.3,3.11,3.11,0,0,1,1.24.91,4,4,0,0,1,.76,1.5A7.68,7.68,0,0,1,529.45,505.53Zm-2.32-.12a5.91,5.91,0,0,0-.35-2.36,1.24,1.24,0,0,0-1.23-.74,1.28,1.28,0,0,0-.95.35,2,2,0,0,0-.48,1,9.72,9.72,0,0,0-.13,1.76,10.09,10.09,0,0,0,.13,1.8,2,2,0,0,0,.48,1,1.28,1.28,0,0,0,1,.35,1.23,1.23,0,0,0,1.25-.78A6.85,6.85,0,0,0,527.12,505.4Zm10.6-3-10.34,16.67q-.4.68-.89.68a.94.94,0,0,1-.57-.22.68.68,0,0,1-.29-.56,1.22,1.22,0,0,1,.25-.63l10.4-16.81a4.69,4.69,0,0,1,.48-.69.75.75,0,0,1,.59-.23.85.85,0,0,1,.6.22.76.76,0,0,1,.23.58A2.54,2.54,0,0,1,537.72,502.39Zm4.43,12.11a5.13,5.13,0,0,1-1,3.53,3.65,3.65,0,0,1-2.85,1.15,4.06,4.06,0,0,1-2-.5,3.38,3.38,0,0,1-1.39-1.53,5.77,5.77,0,0,1-.5-2.54,6,6,0,0,1,.93-3.64,3.44,3.44,0,0,1,2.93-1.22,4.45,4.45,0,0,1,1.7.3,3.25,3.25,0,0,1,1.24.89,3.8,3.8,0,0,1,.76,1.48A7.75,7.75,0,0,1,542.16,514.5Zm-2.32-.12a5.83,5.83,0,0,0-.35-2.34,1.24,1.24,0,0,0-1.23-.74,1.31,1.31,0,0,0-1,.35,2,2,0,0,0-.49,1,8.74,8.74,0,0,0-.14,1.76,6.19,6.19,0,0,0,.35,2.43,1.26,1.26,0,0,0,1.25.77,1.23,1.23,0,0,0,1.24-.79A6.71,6.71,0,0,0,539.83,514.38Z"/><path class="cls-11" d="M414.33,659.23H411v5.15a2.4,2.4,0,0,1-.52,1.68,1.84,1.84,0,0,1-2.66,0,2.4,2.4,0,0,1-.51-1.66v-14a2.29,2.29,0,0,1,.56-1.74,2.54,2.54,0,0,1,1.77-.52h4.73a12.38,12.38,0,0,1,3.23.32,4.8,4.8,0,0,1,1.93,1,4.64,4.64,0,0,1,1.24,1.76,6.21,6.21,0,0,1,.42,2.35,5.18,5.18,0,0,1-1.71,4.21A7.79,7.79,0,0,1,414.33,659.23Zm-.89-8.34H411v5.56h2.48a7.43,7.43,0,0,0,2.18-.27,2.53,2.53,0,0,0,1.33-.89,2.67,2.67,0,0,0,.46-1.63,2.76,2.76,0,0,0-.71-2Q415.91,650.89,413.44,650.89Z"/><path class="cls-11" d="M427.35,661.73v2.83a2.18,2.18,0,0,1-.48,1.55,1.61,1.61,0,0,1-1.23.52,1.55,1.55,0,0,1-1.2-.52,2.22,2.22,0,0,1-.47-1.54v-9.43q0-2.28,1.65-2.28a1.38,1.38,0,0,1,1.22.53,2.94,2.94,0,0,1,.41,1.58,5.91,5.91,0,0,1,1.25-1.58,2.58,2.58,0,0,1,1.71-.53,4.37,4.37,0,0,1,2.07.53,1.59,1.59,0,0,1,1,1.42,1.35,1.35,0,0,1-.43,1,1.33,1.33,0,0,1-.92.4,4.24,4.24,0,0,1-.9-.23,4.18,4.18,0,0,0-1.26-.23,1.84,1.84,0,0,0-1.22.39,2.5,2.5,0,0,0-.73,1.16,8.12,8.12,0,0,0-.36,1.83Q427.35,660.21,427.35,661.73Z"/><path class="cls-11" d="M443.95,660.57h-6.63a4.49,4.49,0,0,0,.47,2,3.11,3.11,0,0,0,2.86,1.77,4.07,4.07,0,0,0,1.11-.14,3.6,3.6,0,0,0,1-.45,7.5,7.5,0,0,0,.87-.65q.4-.35,1-.94a1.11,1.11,0,0,1,.74-.22,1.23,1.23,0,0,1,.84.29,1,1,0,0,1,.32.81,2.2,2.2,0,0,1-.36,1.07,4.27,4.27,0,0,1-1.09,1.18,6.18,6.18,0,0,1-1.82.94,7.86,7.86,0,0,1-2.53.37,6.76,6.76,0,0,1-5.08-1.86,6.93,6.93,0,0,1-1.81-5.05,8.43,8.43,0,0,1,.45-2.79,6.15,6.15,0,0,1,1.3-2.2,5.65,5.65,0,0,1,2.11-1.41,7.57,7.57,0,0,1,2.78-.49,6.59,6.59,0,0,1,3.41.84,5.51,5.51,0,0,1,2.13,2.17,5.7,5.7,0,0,1,.71,2.71q0,1.28-.73,1.66A4.56,4.56,0,0,1,443.95,660.57Zm-6.63-1.92h6.14a4.12,4.12,0,0,0-.94-2.6,2.8,2.8,0,0,0-2.14-.86,2.71,2.71,0,0,0-2.08.88A4.36,4.36,0,0,0,437.32,658.64Z"/><path class="cls-11" d="M460.51,662.19a3.93,3.93,0,0,1-2.7,3.92,9,9,0,0,1-3.25.52,7.92,7.92,0,0,1-3.13-.56,4.56,4.56,0,0,1-1.92-1.4,2.81,2.81,0,0,1-.62-1.68,1.3,1.3,0,0,1,.4-1,1.36,1.36,0,0,1,1-.4,1.17,1.17,0,0,1,.82.26,2.84,2.84,0,0,1,.55.73A3.72,3.72,0,0,0,452.9,664a3.76,3.76,0,0,0,2,.45,2.86,2.86,0,0,0,1.67-.45,1.27,1.27,0,0,0,.65-1,1.41,1.41,0,0,0-.68-1.3,8.37,8.37,0,0,0-2.23-.78,18.53,18.53,0,0,1-2.85-.91,4.69,4.69,0,0,1-1.76-1.26,2.89,2.89,0,0,1-.66-1.92,3.4,3.4,0,0,1,.61-1.92,4.17,4.17,0,0,1,1.79-1.45,6.87,6.87,0,0,1,2.86-.54,9.42,9.42,0,0,1,2.36.27,5.89,5.89,0,0,1,1.75.73,3.61,3.61,0,0,1,1.07,1,2,2,0,0,1,.37,1.09,1.26,1.26,0,0,1-.39,1,1.55,1.55,0,0,1-1.11.37,1.36,1.36,0,0,1-.89-.3,5.88,5.88,0,0,1-.84-.89,3.06,3.06,0,0,0-.91-.79,2.86,2.86,0,0,0-1.42-.3,2.77,2.77,0,0,0-1.53.39,1.14,1.14,0,0,0-.61,1,1.06,1.06,0,0,0,.45.88,3.71,3.71,0,0,0,1.2.56q.76.22,2.09.55a11.14,11.14,0,0,1,2.58.92,4.28,4.28,0,0,1,1.51,1.26A2.79,2.79,0,0,1,460.51,662.19Z"/><path class="cls-11" d="M465.09,651.27a1.79,1.79,0,0,1-1.21-.43,1.69,1.69,0,0,1,0-2.41,1.73,1.73,0,0,1,1.2-.47,1.78,1.78,0,0,1,1.17.42,1.5,1.5,0,0,1,.51,1.23,1.55,1.55,0,0,1-.5,1.22A1.72,1.72,0,0,1,465.09,651.27Zm1.68,3.5v9.79a2.19,2.19,0,0,1-.48,1.54,1.6,1.6,0,0,1-1.23.52,1.53,1.53,0,0,1-1.21-.53,2.25,2.25,0,0,1-.47-1.53v-9.69a2.18,2.18,0,0,1,.47-1.51,1.56,1.56,0,0,1,1.21-.51,1.62,1.62,0,0,1,1.23.51A2,2,0,0,1,466.76,654.77Z"/><path class="cls-11" d="M479.55,664.69v-.34a8.62,8.62,0,0,1-1.35,1.27,5.06,5.06,0,0,1-1.44.74,5.41,5.41,0,0,1-1.69.25,5,5,0,0,1-2.25-.52,5.25,5.25,0,0,1-1.79-1.47,6.71,6.71,0,0,1-1.15-2.25,9.6,9.6,0,0,1-.39-2.79,7.28,7.28,0,0,1,1.55-5,5.16,5.16,0,0,1,4.08-1.77,5.49,5.49,0,0,1,2.47.5,6.89,6.89,0,0,1,2,1.55v-5a2.53,2.53,0,0,1,.42-1.58,1.42,1.42,0,0,1,1.19-.53,1.47,1.47,0,0,1,1.19.49,2.18,2.18,0,0,1,.42,1.45v14.94a2.08,2.08,0,0,1-.45,1.45,1.5,1.5,0,0,1-1.15.48,1.48,1.48,0,0,1-1.15-.5A2.07,2.07,0,0,1,479.55,664.69Zm-6.67-5a5.78,5.78,0,0,0,.43,2.35,3.27,3.27,0,0,0,1.17,1.46,2.89,2.89,0,0,0,1.63.49,3,3,0,0,0,1.63-.47,3.2,3.2,0,0,0,1.18-1.43,5.77,5.77,0,0,0,.44-2.4,5.62,5.62,0,0,0-.44-2.33,3.49,3.49,0,0,0-1.19-1.49,2.85,2.85,0,0,0-1.64-.52,2.77,2.77,0,0,0-1.66.53,3.38,3.38,0,0,0-1.14,1.51A6,6,0,0,0,472.88,659.71Z"/><path class="cls-11" d="M495.61,660.57H489a4.49,4.49,0,0,0,.47,2,3.11,3.11,0,0,0,2.86,1.77,4.07,4.07,0,0,0,1.11-.14,3.6,3.6,0,0,0,1-.45,7.5,7.5,0,0,0,.87-.65q.4-.35,1-.94A1.11,1.11,0,0,1,497,662a1.23,1.23,0,0,1,.84.29,1,1,0,0,1,.32.81,2.2,2.2,0,0,1-.36,1.07,4.27,4.27,0,0,1-1.09,1.18,6.18,6.18,0,0,1-1.82.94,7.86,7.86,0,0,1-2.53.37,6.76,6.76,0,0,1-5.08-1.86,6.93,6.93,0,0,1-1.81-5.05,8.43,8.43,0,0,1,.45-2.79,6.15,6.15,0,0,1,1.3-2.2,5.65,5.65,0,0,1,2.11-1.41,7.57,7.57,0,0,1,2.78-.49,6.59,6.59,0,0,1,3.41.84,5.51,5.51,0,0,1,2.13,2.17,5.7,5.7,0,0,1,.71,2.71q0,1.28-.73,1.66A4.56,4.56,0,0,1,495.61,660.57ZM489,658.64h6.14a4.12,4.12,0,0,0-.94-2.6,2.8,2.8,0,0,0-2.14-.86,2.71,2.71,0,0,0-2.08.88A4.36,4.36,0,0,0,489,658.64Z"/><path class="cls-11" d="M504.33,654.72v.41a5.92,5.92,0,0,1,2-1.73,5.21,5.21,0,0,1,2.44-.55,4.86,4.86,0,0,1,2.4.58,3.71,3.71,0,0,1,1.58,1.65,3.94,3.94,0,0,1,.43,1.34,13.84,13.84,0,0,1,.1,1.84v6.31a2.25,2.25,0,0,1-.47,1.54,1.55,1.55,0,0,1-1.21.52,1.56,1.56,0,0,1-1.23-.53,2.23,2.23,0,0,1-.47-1.53v-5.65a5.64,5.64,0,0,0-.47-2.56,1.9,1.9,0,0,0-1.86-.89,2.75,2.75,0,0,0-1.65.54,3.1,3.1,0,0,0-1.09,1.48,10.6,10.6,0,0,0-.25,2.83v4.25a2.2,2.2,0,0,1-.48,1.55,1.61,1.61,0,0,1-1.24.52,1.54,1.54,0,0,1-1.2-.53,2.23,2.23,0,0,1-.47-1.53v-9.79a2.13,2.13,0,0,1,.42-1.45,1.46,1.46,0,0,1,1.15-.48,1.56,1.56,0,0,1,.81.21,1.51,1.51,0,0,1,.58.63A2.23,2.23,0,0,1,504.33,654.72Z"/><path class="cls-11" d="M516.8,653.14h.37v-2q0-.82,0-1.28a1.91,1.91,0,0,1,.24-.8,1.53,1.53,0,0,1,.57-.56,1.62,1.62,0,0,1,.83-.22,1.67,1.67,0,0,1,1.17.48,1.44,1.44,0,0,1,.44.79,7.16,7.16,0,0,1,.09,1.32v2.31h1.24a1.59,1.59,0,0,1,1.1.34,1.13,1.13,0,0,1,.38.88,1,1,0,0,1-.54,1,3.51,3.51,0,0,1-1.55.27h-.63v6.23a10.11,10.11,0,0,0,.06,1.22,1.25,1.25,0,0,0,.3.7,1,1,0,0,0,.79.27,4.24,4.24,0,0,0,.81-.11,4.21,4.21,0,0,1,.79-.11,1,1,0,0,1,.74.33,1.11,1.11,0,0,1,.33.81,1.36,1.36,0,0,1-.89,1.25,6,6,0,0,1-2.57.43,4.44,4.44,0,0,1-2.41-.53,2.48,2.48,0,0,1-1.07-1.48,10,10,0,0,1-.25-2.52v-6.5h-.45a1.61,1.61,0,0,1-1.12-.35,1.14,1.14,0,0,1-.38-.88,1.1,1.1,0,0,1,.4-.88A1.77,1.77,0,0,1,516.8,653.14Z"/><path class="cls-11" d="M547.7,660.57a4.85,4.85,0,0,1-.43,1.88,6.78,6.78,0,0,1-1.35,2,6.87,6.87,0,0,1-2.35,1.58,8.44,8.44,0,0,1-3.33.61,11.64,11.64,0,0,1-2.62-.27,7.34,7.34,0,0,1-2.14-.85,7.24,7.24,0,0,1-1.77-1.52,9.06,9.06,0,0,1-1.23-1.92,10,10,0,0,1-.76-2.27,12.37,12.37,0,0,1-.25-2.56,11.34,11.34,0,0,1,.64-3.93,8.4,8.4,0,0,1,1.83-3,8,8,0,0,1,2.79-1.88,9,9,0,0,1,3.41-.65,8.52,8.52,0,0,1,3.93.88,7.13,7.13,0,0,1,2.64,2.18,4.3,4.3,0,0,1,.92,2.45,1.6,1.6,0,0,1-.45,1.12,1.42,1.42,0,0,1-1.08.48,1.49,1.49,0,0,1-1.06-.34,4.65,4.65,0,0,1-.79-1.15,5.55,5.55,0,0,0-1.69-2,4.14,4.14,0,0,0-2.4-.67,4.35,4.35,0,0,0-3.62,1.73,7.81,7.81,0,0,0-1.35,4.9,9.1,9.1,0,0,0,.6,3.53,4.46,4.46,0,0,0,1.69,2.1,4.66,4.66,0,0,0,2.56.7,4.49,4.49,0,0,0,2.69-.79,4.76,4.76,0,0,0,1.66-2.31,3.94,3.94,0,0,1,.58-1.17,1.32,1.32,0,0,1,1.12-.45,1.56,1.56,0,0,1,1.13.46A1.53,1.53,0,0,1,547.7,660.57Z"/><path class="cls-11" d="M414.33,689.73H411v5.15a2.4,2.4,0,0,1-.52,1.68,1.84,1.84,0,0,1-2.66,0,2.4,2.4,0,0,1-.51-1.66v-14a2.29,2.29,0,0,1,.56-1.74,2.54,2.54,0,0,1,1.77-.52h4.73a12.38,12.38,0,0,1,3.23.32,4.8,4.8,0,0,1,1.93,1,4.64,4.64,0,0,1,1.24,1.76,6.21,6.21,0,0,1,.42,2.35,5.18,5.18,0,0,1-1.71,4.21A7.79,7.79,0,0,1,414.33,689.73Zm-.89-8.34H411V687h2.48a7.43,7.43,0,0,0,2.18-.27,2.53,2.53,0,0,0,1.33-.89,2.67,2.67,0,0,0,.46-1.63,2.76,2.76,0,0,0-.71-2Q415.91,681.39,413.44,681.39Z"/><path class="cls-11" d="M426.92,680.73l4.12,12.2,4.13-12.29q.32-1,.48-1.35a1.79,1.79,0,0,1,.53-.68,1.56,1.56,0,0,1,1-.3,1.71,1.71,0,0,1,.88.24,1.74,1.74,0,0,1,.63.63,1.54,1.54,0,0,1,.23.79,2.59,2.59,0,0,1-.07.59,5.37,5.37,0,0,1-.19.62l-.22.63-4.41,11.89q-.24.68-.47,1.3a5.48,5.48,0,0,1-.55,1.08,2.44,2.44,0,0,1-.83.76,2.48,2.48,0,0,1-1.26.3,2.52,2.52,0,0,1-1.26-.29,2.4,2.4,0,0,1-.83-.77,5.66,5.66,0,0,1-.55-1.09q-.24-.61-.47-1.29L423.5,681.9q-.11-.32-.23-.63a4.88,4.88,0,0,1-.2-.67A2.84,2.84,0,0,1,423,680a1.62,1.62,0,0,1,.51-1.15,1.71,1.71,0,0,1,1.28-.52,1.49,1.49,0,0,1,1.33.58A7.68,7.68,0,0,1,426.92,680.73Z"/><path class="cls-11" d="M458,689.42v3.49a3.66,3.66,0,0,1-.14,1.11,1.76,1.76,0,0,1-.5.75,4.72,4.72,0,0,1-.94.65,14.73,14.73,0,0,1-3.18,1.3,12.81,12.81,0,0,1-3.33.41,10.84,10.84,0,0,1-3.82-.65,8,8,0,0,1-2.94-1.87,8.27,8.27,0,0,1-1.87-3,11.14,11.14,0,0,1-.65-3.91,11.42,11.42,0,0,1,.63-3.89,8,8,0,0,1,1.86-3,8.17,8.17,0,0,1,3-1.88,11.47,11.47,0,0,1,4-.65,9.91,9.91,0,0,1,3.25.49,7.16,7.16,0,0,1,2.3,1.24,5.51,5.51,0,0,1,1.33,1.58,3.2,3.2,0,0,1,.45,1.48,1.58,1.58,0,0,1-.52,1.19,1.73,1.73,0,0,1-1.24.49,1.66,1.66,0,0,1-.76-.19,1.74,1.74,0,0,1-.61-.52,14.6,14.6,0,0,0-1.15-1.61,3.72,3.72,0,0,0-1.27-.92,4.86,4.86,0,0,0-2-.37,5.64,5.64,0,0,0-2.28.44,4.72,4.72,0,0,0-1.72,1.28,5.76,5.76,0,0,0-1.09,2.05,9,9,0,0,0-.38,2.69,7.38,7.38,0,0,0,1.47,4.93,5.1,5.1,0,0,0,4.1,1.73,8.36,8.36,0,0,0,2.4-.34,12.14,12.14,0,0,0,2.28-1v-3h-2.85a3.13,3.13,0,0,1-1.56-.31,1.12,1.12,0,0,1-.53-1.06,1.3,1.3,0,0,1,.44-1,1.72,1.72,0,0,1,1.2-.4h4.18a5.32,5.32,0,0,1,1.3.14,1.47,1.47,0,0,1,.86.61A2.49,2.49,0,0,1,458,689.42Z"/><path class="cls-11" d="M479.53,689.32,467,694.76v-3.51l8.73-3.43L467,684.44V681l12.49,5.39Z"/><path class="cls-11" d="M494.48,686.7H481.74v-3.25h12.74Zm0,5.51H481.74V689h12.74Z"/><path class="cls-11" d="M508.84,685.83a3,3,0,0,0,2-.67,2.33,2.33,0,0,0,.83-1.92,2.3,2.3,0,0,0-.66-1.64,2.34,2.34,0,0,0-1.77-.69,3.17,3.17,0,0,0-1.25.21,2,2,0,0,0-.78.56,4.17,4.17,0,0,0-.54.89q-.25.55-.47,1a.87.87,0,0,1-.45.41,1.76,1.76,0,0,1-.74.15,1.29,1.29,0,0,1-.91-.4,1.43,1.43,0,0,1-.42-1.07,2.84,2.84,0,0,1,.39-1.36,5,5,0,0,1,1.14-1.36,5.75,5.75,0,0,1,1.87-1,7.52,7.52,0,0,1,2.49-.39,7,7,0,0,1,2.2.33,5.12,5.12,0,0,1,1.73.95,4.1,4.1,0,0,1,1.1,1.44,4.21,4.21,0,0,1,.37,1.76,4,4,0,0,1-.54,2.13,7.19,7.19,0,0,1-1.55,1.73,6.84,6.84,0,0,1,1.63,1.19,4.45,4.45,0,0,1,1.33,3.24,5.48,5.48,0,0,1-.45,2.18,5.58,5.58,0,0,1-1.33,1.88,6.36,6.36,0,0,1-2.09,1.29,7.4,7.4,0,0,1-2.67.47,6.41,6.41,0,0,1-2.67-.53,6.14,6.14,0,0,1-1.94-1.33,6.07,6.07,0,0,1-1.15-1.66,3.6,3.6,0,0,1-.39-1.42,1.52,1.52,0,0,1,.47-1.16,1.62,1.62,0,0,1,1.16-.44,1.24,1.24,0,0,1,.67.2,1,1,0,0,1,.42.49,8.36,8.36,0,0,0,1.38,2.56,2.63,2.63,0,0,0,2.08.84,3.12,3.12,0,0,0,2.66-1.5,3.19,3.19,0,0,0,.47-1.73,3.15,3.15,0,0,0-.79-2.28,2.92,2.92,0,0,0-2.21-.83q-.25,0-.77,0l-.67,0a1.5,1.5,0,0,1-1.06-.34,1.22,1.22,0,0,1-.37-.95,1.18,1.18,0,0,1,.45-1,2.06,2.06,0,0,1,1.33-.37Z"/><path class="cls-11" d="M537.24,687.89a21.24,21.24,0,0,1-.25,3.5,8.16,8.16,0,0,1-.92,2.66,6.1,6.1,0,0,1-2.18,2.26,5.74,5.74,0,0,1-3,.79,5.68,5.68,0,0,1-3.38-1.07,6.49,6.49,0,0,1-2.25-3,11,11,0,0,1-.56-2.28,19,19,0,0,1-.18-2.7,26,26,0,0,1,.2-3.38,11.15,11.15,0,0,1,.62-2.58,5.55,5.55,0,0,1,5.46-3.66,6.21,6.21,0,0,1,2.32.42,5.3,5.3,0,0,1,1.83,1.22,7,7,0,0,1,1.33,2A14.24,14.24,0,0,1,537.24,687.89Zm-3.4-.25a20.7,20.7,0,0,0-.27-3.72,4.57,4.57,0,0,0-.92-2.18,2.25,2.25,0,0,0-1.79-.74,2.3,2.3,0,0,0-2.28,1.65,15,15,0,0,0-.64,5.09,21.9,21.9,0,0,0,.27,3.82,4.8,4.8,0,0,0,.92,2.25,2.4,2.4,0,0,0,3.54,0,4.93,4.93,0,0,0,.91-2.27A23.14,23.14,0,0,0,533.84,687.65Z"/><path class="cls-11" d="M552.35,687.89a21.24,21.24,0,0,1-.25,3.5,8.16,8.16,0,0,1-.92,2.66,6.1,6.1,0,0,1-2.18,2.26,5.74,5.74,0,0,1-3,.79,5.68,5.68,0,0,1-3.38-1.07,6.49,6.49,0,0,1-2.25-3,11,11,0,0,1-.56-2.28,19,19,0,0,1-.18-2.7,26,26,0,0,1,.2-3.38,11.15,11.15,0,0,1,.62-2.58,5.55,5.55,0,0,1,5.46-3.66,6.21,6.21,0,0,1,2.32.42,5.3,5.3,0,0,1,1.83,1.22,7,7,0,0,1,1.33,2A14.24,14.24,0,0,1,552.35,687.89Zm-3.4-.25a20.7,20.7,0,0,0-.27-3.72,4.57,4.57,0,0,0-.92-2.18A2.25,2.25,0,0,0,546,681a2.3,2.3,0,0,0-2.28,1.65,15,15,0,0,0-.64,5.09,21.9,21.9,0,0,0,.27,3.82,4.8,4.8,0,0,0,.92,2.25,2.4,2.4,0,0,0,3.54,0,4.93,4.93,0,0,0,.91-2.27A23.14,23.14,0,0,0,548.95,687.65Z"/><path class="cls-11" d="M567.45,687.89a21.24,21.24,0,0,1-.25,3.5,8.16,8.16,0,0,1-.92,2.66,6.1,6.1,0,0,1-2.18,2.26,5.74,5.74,0,0,1-3,.79,5.68,5.68,0,0,1-3.38-1.07,6.49,6.49,0,0,1-2.25-3,11,11,0,0,1-.56-2.28,19,19,0,0,1-.18-2.7,26,26,0,0,1,.2-3.38,11.15,11.15,0,0,1,.62-2.58,5.55,5.55,0,0,1,5.46-3.66,6.21,6.21,0,0,1,2.32.42,5.3,5.3,0,0,1,1.83,1.22,7,7,0,0,1,1.33,2A14.24,14.24,0,0,1,567.45,687.89Zm-3.4-.25a20.7,20.7,0,0,0-.27-3.72,4.57,4.57,0,0,0-.92-2.18,2.25,2.25,0,0,0-1.79-.74,2.3,2.3,0,0,0-2.28,1.65,15,15,0,0,0-.64,5.09,21.9,21.9,0,0,0,.27,3.82,4.8,4.8,0,0,0,.92,2.25,2.4,2.4,0,0,0,3.54,0,4.93,4.93,0,0,0,.91-2.27A23.14,23.14,0,0,0,564.05,687.65Z"/><path class="cls-11" d="M421.1,721.86a5.35,5.35,0,0,1-.85,3,5.65,5.65,0,0,1-2.49,2.06,9.33,9.33,0,0,1-3.89.74,8.75,8.75,0,0,1-4.44-1,5.93,5.93,0,0,1-2-2,4.44,4.44,0,0,1-.78-2.38,1.61,1.61,0,0,1,1.65-1.63,1.4,1.4,0,0,1,1,.37,2.93,2.93,0,0,1,.69,1.1,7.4,7.4,0,0,0,.75,1.45,3,3,0,0,0,1.14,1,4.19,4.19,0,0,0,1.92.38,4.34,4.34,0,0,0,2.66-.76,2.3,2.3,0,0,0,1-1.91,2,2,0,0,0-.55-1.47,3.56,3.56,0,0,0-1.43-.86q-.88-.3-2.34-.63a17.14,17.14,0,0,1-3.28-1.07,5.3,5.3,0,0,1-2.1-1.68,4.35,4.35,0,0,1-.78-2.64,4.53,4.53,0,0,1,.82-2.67,5.16,5.16,0,0,1,2.37-1.79,9.72,9.72,0,0,1,3.65-.63,9,9,0,0,1,2.9.42,6.14,6.14,0,0,1,2,1.1,4.61,4.61,0,0,1,1.18,1.45,3.33,3.33,0,0,1,.37,1.48,1.75,1.75,0,0,1-.47,1.19,1.48,1.48,0,0,1-1.16.53,1.33,1.33,0,0,1-1-.32,4.27,4.27,0,0,1-.71-1,4.69,4.69,0,0,0-1.19-1.61,3.49,3.49,0,0,0-2.23-.58,3.87,3.87,0,0,0-2.3.63,1.82,1.82,0,0,0-.88,1.51,1.53,1.53,0,0,0,.3.94,2.51,2.51,0,0,0,.82.68,5.49,5.49,0,0,0,1.06.45q.53.16,1.76.47a27.68,27.68,0,0,1,2.79.79,8.47,8.47,0,0,1,2.12,1.06,4.35,4.35,0,0,1,1.37,1.57A5,5,0,0,1,421.1,721.86Z"/><path class="cls-11" d="M427.3,710.88v5a7.24,7.24,0,0,1,1.26-1.18,4.52,4.52,0,0,1,1.36-.65,5.71,5.71,0,0,1,1.6-.22,4.69,4.69,0,0,1,2.29.55,4.24,4.24,0,0,1,2.05,2.95,10.76,10.76,0,0,1,.12,1.73v6.49a2.25,2.25,0,0,1-.47,1.54,1.57,1.57,0,0,1-1.24.52q-1.68,0-1.68-2.06v-5.72a5.25,5.25,0,0,0-.48-2.5,1.91,1.91,0,0,0-1.84-.88,2.76,2.76,0,0,0-1.63.52,3.1,3.1,0,0,0-1.09,1.41,9,9,0,0,0-.27,2.69v4.48a2.29,2.29,0,0,1-.45,1.53,1.57,1.57,0,0,1-1.26.53q-1.68,0-1.68-2.06v-14.7a2.33,2.33,0,0,1,.44-1.55,1.54,1.54,0,0,1,1.24-.52,1.58,1.58,0,0,1,1.26.52A2.29,2.29,0,0,1,427.3,710.88Z"/><path class="cls-11" d="M447.91,725.72a10.48,10.48,0,0,1-2.38,1.43,6.65,6.65,0,0,1-2.58.48,4.88,4.88,0,0,1-2.29-.52,3.76,3.76,0,0,1-1.52-1.4,3.63,3.63,0,0,1-.53-1.91,3.42,3.42,0,0,1,.88-2.37,4.41,4.41,0,0,1,2.42-1.32l1.6-.34q1.28-.26,2.19-.48t2-.53a3.54,3.54,0,0,0-.54-2,2.42,2.42,0,0,0-2-.63,4.12,4.12,0,0,0-1.94.36,3.16,3.16,0,0,0-1.12,1.08,11.51,11.51,0,0,1-.66.95,1.08,1.08,0,0,1-.83.23,1.45,1.45,0,0,1-1-.37,1.19,1.19,0,0,1-.42-.94,2.87,2.87,0,0,1,.63-1.74,4.53,4.53,0,0,1,2-1.39,8.88,8.88,0,0,1,3.34-.55,9.44,9.44,0,0,1,3.51.53,3.27,3.27,0,0,1,1.81,1.67,7.3,7.3,0,0,1,.53,3q0,1.19,0,2t0,1.85a6.81,6.81,0,0,0,.32,2,6.28,6.28,0,0,1,.32,1.33,1.25,1.25,0,0,1-.49.95,1.64,1.64,0,0,1-1.11.43,1.5,1.5,0,0,1-1-.49A7.26,7.26,0,0,1,447.91,725.72Zm-.22-4.9a17.15,17.15,0,0,1-2.17.58q-1.42.3-2,.45a2.67,2.67,0,0,0-1,.56,1.43,1.43,0,0,0-.5,1.16,1.72,1.72,0,0,0,.58,1.31,2.16,2.16,0,0,0,1.53.54A4,4,0,0,0,446,725a2.94,2.94,0,0,0,1.25-1.14,5.19,5.19,0,0,0,.46-2.53Z"/><path class="cls-11" d="M457.81,722.74v2.83a2.18,2.18,0,0,1-.48,1.55,1.61,1.61,0,0,1-1.23.52,1.55,1.55,0,0,1-1.2-.52,2.22,2.22,0,0,1-.47-1.54v-9.43q0-2.28,1.65-2.28a1.38,1.38,0,0,1,1.22.53,2.94,2.94,0,0,1,.41,1.58,5.91,5.91,0,0,1,1.25-1.58,2.58,2.58,0,0,1,1.71-.53,4.37,4.37,0,0,1,2.07.53,1.59,1.59,0,0,1,1,1.42,1.35,1.35,0,0,1-.43,1,1.33,1.33,0,0,1-.92.4,4.24,4.24,0,0,1-.9-.23,4.18,4.18,0,0,0-1.26-.23,1.84,1.84,0,0,0-1.22.39,2.5,2.5,0,0,0-.73,1.16,8.12,8.12,0,0,0-.36,1.83Q457.81,721.22,457.81,722.74Z"/><path class="cls-11" d="M474.41,721.58h-6.63a4.49,4.49,0,0,0,.47,2,3.11,3.11,0,0,0,2.86,1.77,4.07,4.07,0,0,0,1.11-.14,3.6,3.6,0,0,0,1-.45,7.5,7.5,0,0,0,.87-.65q.4-.35,1-.94a1.11,1.11,0,0,1,.74-.22,1.23,1.23,0,0,1,.84.29,1,1,0,0,1,.32.81,2.2,2.2,0,0,1-.36,1.07,4.27,4.27,0,0,1-1.09,1.18,6.18,6.18,0,0,1-1.82.94,7.86,7.86,0,0,1-2.53.37,6.76,6.76,0,0,1-5.08-1.86,6.93,6.93,0,0,1-1.81-5.05,8.43,8.43,0,0,1,.45-2.79,6.15,6.15,0,0,1,1.3-2.2,5.65,5.65,0,0,1,2.11-1.41,7.57,7.57,0,0,1,2.78-.49,6.59,6.59,0,0,1,3.41.84,5.51,5.51,0,0,1,2.13,2.17,5.7,5.7,0,0,1,.71,2.71q0,1.28-.73,1.66A4.56,4.56,0,0,1,474.41,721.58Zm-6.63-1.92h6.14a4.12,4.12,0,0,0-.94-2.6,2.8,2.8,0,0,0-2.14-.86,2.71,2.71,0,0,0-2.08.88A4.36,4.36,0,0,0,467.78,719.65Z"/><path class="cls-11" d="M498.44,717.21H485.7V714h12.74Zm0,5.51H485.7v-3.25h12.74Z"/><path class="cls-11" d="M512.8,716.34a3,3,0,0,0,2-.67,2.33,2.33,0,0,0,.83-1.92,2.3,2.3,0,0,0-.66-1.64,2.34,2.34,0,0,0-1.77-.69,3.17,3.17,0,0,0-1.25.21,2,2,0,0,0-.78.56,4.17,4.17,0,0,0-.54.89q-.25.55-.47,1a.87.87,0,0,1-.45.41,1.76,1.76,0,0,1-.74.15,1.29,1.29,0,0,1-.91-.4,1.43,1.43,0,0,1-.42-1.07,2.84,2.84,0,0,1,.39-1.36,5,5,0,0,1,1.14-1.36,5.75,5.75,0,0,1,1.87-1,7.52,7.52,0,0,1,2.49-.39,7,7,0,0,1,2.2.33,5.12,5.12,0,0,1,1.73.95,4.1,4.1,0,0,1,1.1,1.44,4.21,4.21,0,0,1,.37,1.76,4,4,0,0,1-.54,2.13,7.19,7.19,0,0,1-1.55,1.73,6.84,6.84,0,0,1,1.63,1.19,4.45,4.45,0,0,1,1.33,3.24,5.48,5.48,0,0,1-.45,2.18,5.58,5.58,0,0,1-1.33,1.88,6.36,6.36,0,0,1-2.09,1.29,7.4,7.4,0,0,1-2.67.47,6.41,6.41,0,0,1-2.67-.53,6.14,6.14,0,0,1-1.94-1.33,6.07,6.07,0,0,1-1.15-1.66,3.6,3.6,0,0,1-.39-1.42,1.52,1.52,0,0,1,.47-1.16,1.62,1.62,0,0,1,1.16-.44,1.24,1.24,0,0,1,.67.2,1,1,0,0,1,.42.49,8.36,8.36,0,0,0,1.38,2.56,2.63,2.63,0,0,0,2.08.84,3.12,3.12,0,0,0,2.66-1.5,3.19,3.19,0,0,0,.47-1.73,3.15,3.15,0,0,0-.79-2.28,2.92,2.92,0,0,0-2.21-.83q-.25,0-.77,0l-.67,0a1.5,1.5,0,0,1-1.06-.34,1.22,1.22,0,0,1-.37-.95,1.18,1.18,0,0,1,.45-1,2.06,2.06,0,0,1,1.33-.37Z"/><path class="cls-11" d="M529.33,713.8a5.13,5.13,0,0,1-1,3.53,3.65,3.65,0,0,1-2.85,1.15,4.07,4.07,0,0,1-2-.49,3.31,3.31,0,0,1-1.38-1.53,5.89,5.89,0,0,1-.5-2.54,8.12,8.12,0,0,1,.38-2.69,3.13,3.13,0,0,1,1.25-1.64,4,4,0,0,1,2.2-.56,4.49,4.49,0,0,1,1.7.3,3.11,3.11,0,0,1,1.24.91,4,4,0,0,1,.76,1.5A7.68,7.68,0,0,1,529.33,713.8Zm-2.32-.12a5.92,5.92,0,0,0-.35-2.36,1.24,1.24,0,0,0-1.23-.74,1.28,1.28,0,0,0-.95.35,2,2,0,0,0-.48,1,9.73,9.73,0,0,0-.13,1.76,10.1,10.1,0,0,0,.13,1.8,2,2,0,0,0,.48,1,1.28,1.28,0,0,0,1,.35,1.23,1.23,0,0,0,1.25-.78A6.83,6.83,0,0,0,527,713.67Zm10.6-3-10.34,16.67q-.4.68-.89.68a.94.94,0,0,1-.57-.22.68.68,0,0,1-.29-.56,1.21,1.21,0,0,1,.25-.63l10.4-16.81a4.63,4.63,0,0,1,.48-.69.75.75,0,0,1,.59-.23.84.84,0,0,1,.6.22.76.76,0,0,1,.23.58A2.55,2.55,0,0,1,537.61,710.65ZM542,722.77a5.13,5.13,0,0,1-1,3.53,3.65,3.65,0,0,1-2.85,1.15,4.06,4.06,0,0,1-2-.5,3.39,3.39,0,0,1-1.39-1.53,5.77,5.77,0,0,1-.5-2.54,6,6,0,0,1,.92-3.64A3.44,3.44,0,0,1,538.1,718a4.44,4.44,0,0,1,1.69.3,3.25,3.25,0,0,1,1.24.89,3.8,3.8,0,0,1,.76,1.48A7.75,7.75,0,0,1,542,722.77Zm-2.32-.12a5.84,5.84,0,0,0-.35-2.34,1.24,1.24,0,0,0-1.23-.74,1.31,1.31,0,0,0-1,.35,2,2,0,0,0-.49,1,8.81,8.81,0,0,0-.14,1.76,6.2,6.2,0,0,0,.35,2.43,1.26,1.26,0,0,0,1.25.77,1.23,1.23,0,0,0,1.24-.79A6.71,6.71,0,0,0,539.72,722.65Z"/><circle class="cls-3" cx="677.15" cy="378.59" r="42.11"/><path class="cls-4" d="M726.47,518.19c-24.77,1.31-73.41.44-98.18,0,0-48.5,14.86-87.81,49.09-87.81S726.47,469.69,726.47,518.19Z"/><polygon class="cls-5" points="672.01 440 668.33 474.43 677.23 480.14 677.23 440 672.01 440"/><polygon class="cls-5" points="677.23 480.14 685.26 474.43 682.46 440 677.23 440 677.23 480.14"/><polygon class="cls-5" points="667.35 430.33 672.06 440 682.4 440 687.12 430.33 667.35 430.33"/><polygon class="cls-5" points="667.35 430.33 672.06 440 677.23 440 677.23 430.33 667.35 430.33"/><polygon class="cls-6" points="672.06 440 682.4 440 682.4 440.46 672.06 440"/><polygon class="cls-7" points="658.32 424.21 677.12 430.41 657.94 447.35 658.32 424.21"/><polygon class="cls-7" points="696.05 424.21 677.25 430.41 696.42 447.35 696.05 424.21"/><path class="cls-8" d="M673.88,504a9,9,0,0,1-1.43,5,9.51,9.51,0,0,1-4.19,3.47,15.72,15.72,0,0,1-6.55,1.26,14.73,14.73,0,0,1-7.49-1.72,10,10,0,0,1-3.4-3.29,7.48,7.48,0,0,1-1.31-4A2.72,2.72,0,0,1,652.3,502a2.36,2.36,0,0,1,1.66.63,5,5,0,0,1,1.16,1.86,12.43,12.43,0,0,0,1.27,2.45,5.12,5.12,0,0,0,1.91,1.62,7.07,7.07,0,0,0,3.24.64A7.32,7.32,0,0,0,666,507.9a3.87,3.87,0,0,0,1.73-3.21,3.4,3.4,0,0,0-.93-2.48,6,6,0,0,0-2.41-1.45q-1.47-.5-3.94-1.07a28.88,28.88,0,0,1-5.53-1.81,8.94,8.94,0,0,1-3.54-2.82,7.33,7.33,0,0,1-1.31-4.45,7.64,7.64,0,0,1,1.38-4.5,8.71,8.71,0,0,1,4-3,16.37,16.37,0,0,1,6.15-1.06,15.22,15.22,0,0,1,4.88.7,10.34,10.34,0,0,1,3.42,1.86,7.78,7.78,0,0,1,2,2.44,5.62,5.62,0,0,1,.63,2.49,2.94,2.94,0,0,1-.78,2,2.5,2.5,0,0,1-2,.89,2.25,2.25,0,0,1-1.62-.53,7.18,7.18,0,0,1-1.2-1.75,7.91,7.91,0,0,0-2-2.71,5.87,5.87,0,0,0-3.77-1,6.52,6.52,0,0,0-3.88,1.06,3.07,3.07,0,0,0-1.47,2.54,2.57,2.57,0,0,0,.5,1.59,4.22,4.22,0,0,0,1.38,1.15,9.26,9.26,0,0,0,1.78.75q.9.27,3,.79a46.84,46.84,0,0,1,4.7,1.34,14.29,14.29,0,0,1,3.58,1.78,7.32,7.32,0,0,1,2.3,2.65A8.47,8.47,0,0,1,673.88,504Z"/><path class="cls-8" d="M705.28,503.54a8.17,8.17,0,0,1-.72,3.17,11.41,11.41,0,0,1-2.27,3.35,11.58,11.58,0,0,1-4,2.67,14.22,14.22,0,0,1-5.61,1,19.62,19.62,0,0,1-4.41-.46,12.37,12.37,0,0,1-3.61-1.43,12.19,12.19,0,0,1-3-2.56,15.27,15.27,0,0,1-2.07-3.23,16.8,16.8,0,0,1-1.29-3.82,20.84,20.84,0,0,1-.43-4.31,19.11,19.11,0,0,1,1.08-6.63,14.16,14.16,0,0,1,3.09-5,13.46,13.46,0,0,1,4.71-3.17,15.25,15.25,0,0,1,5.75-1.09,14.38,14.38,0,0,1,6.63,1.49,12,12,0,0,1,4.46,3.67,7.25,7.25,0,0,1,1.55,4.13,2.69,2.69,0,0,1-.75,1.88,2.39,2.39,0,0,1-1.82.82,2.51,2.51,0,0,1-1.79-.56,7.84,7.84,0,0,1-1.33-1.95,9.35,9.35,0,0,0-2.86-3.41,7,7,0,0,0-4-1.13,7.34,7.34,0,0,0-6.1,2.91q-2.27,2.91-2.27,8.26a15.34,15.34,0,0,0,1,6,7.51,7.51,0,0,0,2.84,3.55,7.85,7.85,0,0,0,4.31,1.17,7.56,7.56,0,0,0,4.53-1.33,8,8,0,0,0,2.79-3.9,6.63,6.63,0,0,1,1-2,2.22,2.22,0,0,1,1.88-.76,2.63,2.63,0,0,1,1.9.77A2.58,2.58,0,0,1,705.28,503.54Z"/><path class="cls-11" d="M763.37,451.73a5.35,5.35,0,0,1-.85,3,5.65,5.65,0,0,1-2.49,2.06,9.33,9.33,0,0,1-3.89.74,8.74,8.74,0,0,1-4.44-1,5.92,5.92,0,0,1-2-2,4.44,4.44,0,0,1-.78-2.38,1.61,1.61,0,0,1,1.65-1.63,1.4,1.4,0,0,1,1,.37,2.94,2.94,0,0,1,.69,1.1,7.37,7.37,0,0,0,.75,1.45,3,3,0,0,0,1.14,1,4.19,4.19,0,0,0,1.92.38,4.34,4.34,0,0,0,2.66-.76,2.3,2.3,0,0,0,1-1.91,2,2,0,0,0-.55-1.47,3.56,3.56,0,0,0-1.43-.86q-.88-.3-2.34-.63a17.14,17.14,0,0,1-3.28-1.07,5.3,5.3,0,0,1-2.1-1.68,4.35,4.35,0,0,1-.78-2.64,4.53,4.53,0,0,1,.82-2.67,5.17,5.17,0,0,1,2.37-1.79,9.72,9.72,0,0,1,3.65-.63,9,9,0,0,1,2.9.42,6.14,6.14,0,0,1,2,1.1,4.61,4.61,0,0,1,1.18,1.45,3.34,3.34,0,0,1,.37,1.48,1.74,1.74,0,0,1-.47,1.19,1.48,1.48,0,0,1-1.16.53,1.33,1.33,0,0,1-1-.32,4.26,4.26,0,0,1-.71-1,4.69,4.69,0,0,0-1.19-1.61,3.49,3.49,0,0,0-2.23-.58,3.87,3.87,0,0,0-2.3.63,1.82,1.82,0,0,0-.88,1.51,1.53,1.53,0,0,0,.3.94,2.5,2.5,0,0,0,.82.68,5.49,5.49,0,0,0,1.06.45q.53.16,1.76.47a27.8,27.8,0,0,1,2.79.79,8.48,8.48,0,0,1,2.12,1.06,4.35,4.35,0,0,1,1.37,1.57A5,5,0,0,1,763.37,451.73Z"/><path class="cls-11" d="M768,442.14a1.79,1.79,0,0,1-1.21-.43,1.69,1.69,0,0,1,0-2.41,1.73,1.73,0,0,1,1.2-.47,1.78,1.78,0,0,1,1.17.42,1.5,1.5,0,0,1,.51,1.23,1.55,1.55,0,0,1-.5,1.22A1.72,1.72,0,0,1,768,442.14Zm1.68,3.5v9.79a2.19,2.19,0,0,1-.48,1.54,1.6,1.6,0,0,1-1.23.52,1.53,1.53,0,0,1-1.21-.53,2.25,2.25,0,0,1-.47-1.53v-9.69a2.18,2.18,0,0,1,.47-1.51,1.56,1.56,0,0,1,1.21-.51,1.62,1.62,0,0,1,1.23.51A2,2,0,0,1,769.65,445.64Z"/><path class="cls-11" d="M773.15,455.44v-14.7a2.29,2.29,0,0,1,.45-1.54,1.54,1.54,0,0,1,1.22-.52,1.6,1.6,0,0,1,1.24.52,2.22,2.22,0,0,1,.47,1.55v14.7a2.2,2.2,0,0,1-.48,1.55,1.61,1.61,0,0,1-1.24.52,1.53,1.53,0,0,1-1.21-.53A2.25,2.25,0,0,1,773.15,455.44Z"/><path class="cls-11" d="M782.44,445.83l2.74,7.7,3-8a4.77,4.77,0,0,1,.68-1.37,1.25,1.25,0,0,1,1-.4,1.53,1.53,0,0,1,1.1.43,1.35,1.35,0,0,1,.45,1,2,2,0,0,1-.08.52,5,5,0,0,1-.19.56l-.24.6-3.25,8.07-.35.88a4.54,4.54,0,0,1-.48.91,1.9,1.9,0,0,1-.66.59,2,2,0,0,1-.95.21,1.84,1.84,0,0,1-1.15-.33,2.22,2.22,0,0,1-.63-.72q-.2-.39-.69-1.55l-3.23-8-.23-.6a5.21,5.21,0,0,1-.2-.61,2.16,2.16,0,0,1-.08-.53,1.3,1.3,0,0,1,.21-.69,1.65,1.65,0,0,1,.58-.56,1.58,1.58,0,0,1,.81-.22,1.28,1.28,0,0,1,1.16.48A7.69,7.69,0,0,1,782.44,445.83Z"/><path class="cls-11" d="M802.94,451.44h-6.63a4.49,4.49,0,0,0,.47,2,3.11,3.11,0,0,0,2.86,1.77,4.06,4.06,0,0,0,1.11-.14,3.6,3.6,0,0,0,1-.45,7.4,7.4,0,0,0,.87-.65q.4-.35,1-.94a1.11,1.11,0,0,1,.74-.22,1.23,1.23,0,0,1,.84.29,1,1,0,0,1,.32.81,2.2,2.2,0,0,1-.36,1.07,4.26,4.26,0,0,1-1.09,1.18,6.18,6.18,0,0,1-1.82.94,7.86,7.86,0,0,1-2.53.37,6.76,6.76,0,0,1-5.08-1.86,6.93,6.93,0,0,1-1.81-5.05,8.43,8.43,0,0,1,.45-2.79,6.15,6.15,0,0,1,1.3-2.2,5.65,5.65,0,0,1,2.11-1.41,7.58,7.58,0,0,1,2.78-.49,6.59,6.59,0,0,1,3.41.84A5.51,5.51,0,0,1,805,446.7a5.7,5.7,0,0,1,.71,2.71q0,1.28-.73,1.66A4.56,4.56,0,0,1,802.94,451.44Zm-6.63-1.92h6.14a4.12,4.12,0,0,0-.94-2.6,2.81,2.81,0,0,0-2.14-.86,2.71,2.71,0,0,0-2.08.88A4.36,4.36,0,0,0,796.31,449.52Z"/><path class="cls-11" d="M812,452.61v2.83a2.18,2.18,0,0,1-.48,1.55,1.61,1.61,0,0,1-1.23.52A1.55,1.55,0,0,1,809,457a2.22,2.22,0,0,1-.47-1.54V446q0-2.28,1.65-2.28a1.38,1.38,0,0,1,1.22.53,2.94,2.94,0,0,1,.41,1.58,5.92,5.92,0,0,1,1.25-1.58,2.58,2.58,0,0,1,1.71-.53,4.37,4.37,0,0,1,2.07.53,1.59,1.59,0,0,1,1,1.42,1.35,1.35,0,0,1-.43,1,1.33,1.33,0,0,1-.92.4,4.24,4.24,0,0,1-.9-.23,4.19,4.19,0,0,0-1.26-.23,1.84,1.84,0,0,0-1.22.39,2.51,2.51,0,0,0-.73,1.16,8.12,8.12,0,0,0-.36,1.83Q812,451.08,812,452.61Z"/><path class="cls-11" d="M833.38,450.1H830v5.15a2.4,2.4,0,0,1-.52,1.68,1.84,1.84,0,0,1-2.66,0,2.4,2.4,0,0,1-.51-1.66v-14a2.29,2.29,0,0,1,.56-1.74,2.54,2.54,0,0,1,1.77-.52h4.73a12.4,12.4,0,0,1,3.23.32,4.81,4.81,0,0,1,1.93,1,4.65,4.65,0,0,1,1.24,1.76,6.21,6.21,0,0,1,.42,2.35,5.18,5.18,0,0,1-1.71,4.21A7.79,7.79,0,0,1,833.38,450.1Zm-.89-8.34H830v5.56h2.48a7.41,7.41,0,0,0,2.18-.27,2.53,2.53,0,0,0,1.33-.89,2.67,2.67,0,0,0,.46-1.63,2.76,2.76,0,0,0-.71-2Q835,441.76,832.48,441.76Z"/><path class="cls-11" d="M846.4,452.61v2.83a2.18,2.18,0,0,1-.48,1.55,1.61,1.61,0,0,1-1.23.52,1.55,1.55,0,0,1-1.2-.52,2.22,2.22,0,0,1-.47-1.54V446q0-2.28,1.65-2.28a1.38,1.38,0,0,1,1.22.53,2.94,2.94,0,0,1,.41,1.58,5.92,5.92,0,0,1,1.25-1.58,2.58,2.58,0,0,1,1.71-.53,4.37,4.37,0,0,1,2.07.53,1.59,1.59,0,0,1,1,1.42,1.35,1.35,0,0,1-.43,1,1.33,1.33,0,0,1-.92.4,4.24,4.24,0,0,1-.9-.23,4.19,4.19,0,0,0-1.26-.23,1.84,1.84,0,0,0-1.22.39,2.51,2.51,0,0,0-.73,1.16,8.12,8.12,0,0,0-.36,1.83Q846.4,451.08,846.4,452.61Z"/><path class="cls-11" d="M863,451.44h-6.63a4.49,4.49,0,0,0,.47,2,3.11,3.11,0,0,0,2.86,1.77,4.06,4.06,0,0,0,1.11-.14,3.6,3.6,0,0,0,1-.45,7.4,7.4,0,0,0,.87-.65q.4-.35,1-.94a1.11,1.11,0,0,1,.74-.22,1.23,1.23,0,0,1,.84.29,1,1,0,0,1,.32.81,2.2,2.2,0,0,1-.36,1.07,4.26,4.26,0,0,1-1.09,1.18,6.18,6.18,0,0,1-1.82.94,7.86,7.86,0,0,1-2.53.37,6.76,6.76,0,0,1-5.08-1.86,6.93,6.93,0,0,1-1.81-5.05,8.43,8.43,0,0,1,.45-2.79,6.15,6.15,0,0,1,1.3-2.2,5.65,5.65,0,0,1,2.11-1.41,7.58,7.58,0,0,1,2.78-.49,6.59,6.59,0,0,1,3.41.84,5.51,5.51,0,0,1,2.13,2.17,5.7,5.7,0,0,1,.71,2.71q0,1.28-.73,1.66A4.56,4.56,0,0,1,863,451.44Zm-6.63-1.92h6.14a4.12,4.12,0,0,0-.94-2.6,2.81,2.81,0,0,0-2.14-.86,2.71,2.71,0,0,0-2.08.88A4.36,4.36,0,0,0,856.37,449.52Z"/><path class="cls-11" d="M879.55,453.07a3.93,3.93,0,0,1-2.7,3.92,9,9,0,0,1-3.25.52,7.92,7.92,0,0,1-3.13-.56,4.56,4.56,0,0,1-1.92-1.4,2.81,2.81,0,0,1-.62-1.68,1.3,1.3,0,0,1,.4-1,1.36,1.36,0,0,1,1-.4,1.17,1.17,0,0,1,.82.26,2.85,2.85,0,0,1,.55.73,3.71,3.71,0,0,0,1.25,1.35,3.76,3.76,0,0,0,2,.45,2.86,2.86,0,0,0,1.67-.45,1.27,1.27,0,0,0,.65-1,1.41,1.41,0,0,0-.68-1.3,8.37,8.37,0,0,0-2.23-.78,18.44,18.44,0,0,1-2.85-.91,4.69,4.69,0,0,1-1.76-1.26,2.89,2.89,0,0,1-.66-1.92,3.4,3.4,0,0,1,.61-1.92,4.17,4.17,0,0,1,1.79-1.45,6.87,6.87,0,0,1,2.86-.54,9.42,9.42,0,0,1,2.36.27,5.9,5.9,0,0,1,1.75.73,3.62,3.62,0,0,1,1.07,1,2,2,0,0,1,.37,1.09,1.26,1.26,0,0,1-.39,1,1.55,1.55,0,0,1-1.11.37,1.36,1.36,0,0,1-.89-.3,5.88,5.88,0,0,1-.84-.89,3.06,3.06,0,0,0-.91-.79,2.86,2.86,0,0,0-1.42-.3,2.77,2.77,0,0,0-1.53.39,1.14,1.14,0,0,0-.61,1,1.05,1.05,0,0,0,.45.88,3.71,3.71,0,0,0,1.2.56q.76.22,2.09.55a11.16,11.16,0,0,1,2.58.92,4.28,4.28,0,0,1,1.51,1.26A2.79,2.79,0,0,1,879.55,453.07Z"/><path class="cls-11" d="M884.13,442.14a1.79,1.79,0,0,1-1.21-.43,1.69,1.69,0,0,1,0-2.41,1.73,1.73,0,0,1,1.2-.47,1.78,1.78,0,0,1,1.17.42,1.5,1.5,0,0,1,.51,1.23,1.55,1.55,0,0,1-.5,1.22A1.72,1.72,0,0,1,884.13,442.14Zm1.68,3.5v9.79a2.19,2.19,0,0,1-.48,1.54,1.6,1.6,0,0,1-1.23.52,1.53,1.53,0,0,1-1.21-.53,2.25,2.25,0,0,1-.47-1.53v-9.69a2.18,2.18,0,0,1,.47-1.51,1.56,1.56,0,0,1,1.21-.51,1.62,1.62,0,0,1,1.23.51A2,2,0,0,1,885.81,445.64Z"/><path class="cls-11" d="M898.59,455.56v-.34a8.6,8.6,0,0,1-1.35,1.27,5.06,5.06,0,0,1-1.44.74,5.41,5.41,0,0,1-1.69.25,5,5,0,0,1-2.25-.52,5.25,5.25,0,0,1-1.79-1.47,6.71,6.71,0,0,1-1.15-2.25,9.59,9.59,0,0,1-.39-2.79,7.28,7.28,0,0,1,1.55-5,5.16,5.16,0,0,1,4.08-1.77,5.49,5.49,0,0,1,2.47.5,6.89,6.89,0,0,1,2,1.55v-5a2.53,2.53,0,0,1,.42-1.58,1.42,1.42,0,0,1,1.19-.53,1.47,1.47,0,0,1,1.19.49,2.18,2.18,0,0,1,.42,1.45v14.94a2.08,2.08,0,0,1-.45,1.45,1.5,1.5,0,0,1-1.15.48A1.48,1.48,0,0,1,899,457,2.07,2.07,0,0,1,898.59,455.56Zm-6.67-5a5.78,5.78,0,0,0,.43,2.35,3.27,3.27,0,0,0,1.17,1.46,2.89,2.89,0,0,0,1.63.49,3,3,0,0,0,1.63-.47A3.2,3.2,0,0,0,898,453a5.77,5.77,0,0,0,.44-2.4,5.62,5.62,0,0,0-.44-2.33,3.5,3.5,0,0,0-1.19-1.49,2.85,2.85,0,0,0-1.64-.52,2.78,2.78,0,0,0-1.66.53,3.38,3.38,0,0,0-1.14,1.51A6,6,0,0,0,891.93,450.58Z"/><path class="cls-11" d="M914.66,451.44H908a4.49,4.49,0,0,0,.47,2,3.11,3.11,0,0,0,2.86,1.77,4.06,4.06,0,0,0,1.11-.14,3.6,3.6,0,0,0,1-.45,7.4,7.4,0,0,0,.87-.65q.4-.35,1-.94a1.11,1.11,0,0,1,.74-.22,1.23,1.23,0,0,1,.84.29,1,1,0,0,1,.32.81,2.2,2.2,0,0,1-.36,1.07,4.26,4.26,0,0,1-1.09,1.18,6.18,6.18,0,0,1-1.82.94,7.86,7.86,0,0,1-2.53.37,6.76,6.76,0,0,1-5.08-1.86,6.93,6.93,0,0,1-1.81-5.05,8.43,8.43,0,0,1,.45-2.79,6.15,6.15,0,0,1,1.3-2.2,5.65,5.65,0,0,1,2.11-1.41,7.58,7.58,0,0,1,2.78-.49,6.59,6.59,0,0,1,3.41.84,5.51,5.51,0,0,1,2.13,2.17,5.7,5.7,0,0,1,.71,2.71q0,1.28-.73,1.66A4.56,4.56,0,0,1,914.66,451.44ZM908,449.52h6.14a4.12,4.12,0,0,0-.94-2.6,2.81,2.81,0,0,0-2.14-.86,2.71,2.71,0,0,0-2.08.88A4.36,4.36,0,0,0,908,449.52Z"/><path class="cls-11" d="M923.38,445.59V446a5.93,5.93,0,0,1,2-1.73,5.21,5.21,0,0,1,2.44-.55,4.87,4.87,0,0,1,2.4.58,3.71,3.71,0,0,1,1.58,1.65,3.94,3.94,0,0,1,.43,1.34,13.84,13.84,0,0,1,.1,1.84v6.31a2.24,2.24,0,0,1-.47,1.54,1.55,1.55,0,0,1-1.21.52,1.56,1.56,0,0,1-1.23-.53,2.23,2.23,0,0,1-.47-1.53v-5.65a5.64,5.64,0,0,0-.47-2.56,1.9,1.9,0,0,0-1.86-.89,2.75,2.75,0,0,0-1.65.54,3.1,3.1,0,0,0-1.09,1.48,10.6,10.6,0,0,0-.25,2.83v4.25a2.2,2.2,0,0,1-.48,1.55,1.61,1.61,0,0,1-1.24.52,1.54,1.54,0,0,1-1.2-.53,2.23,2.23,0,0,1-.47-1.53v-9.79a2.13,2.13,0,0,1,.42-1.45,1.46,1.46,0,0,1,1.15-.48,1.57,1.57,0,0,1,.81.21,1.51,1.51,0,0,1,.58.63A2.24,2.24,0,0,1,923.38,445.59Z"/><path class="cls-11" d="M935.84,444h.37v-2q0-.82,0-1.28a1.91,1.91,0,0,1,.24-.8,1.53,1.53,0,0,1,.57-.56,1.62,1.62,0,0,1,.83-.22,1.67,1.67,0,0,1,1.17.48,1.44,1.44,0,0,1,.44.79,7.16,7.16,0,0,1,.09,1.32V444h1.24a1.59,1.59,0,0,1,1.1.34,1.13,1.13,0,0,1,.38.88,1,1,0,0,1-.54,1,3.5,3.5,0,0,1-1.55.27h-.63v6.23a10.11,10.11,0,0,0,.06,1.22,1.24,1.24,0,0,0,.3.7,1,1,0,0,0,.79.27,4.21,4.21,0,0,0,.81-.11,4.21,4.21,0,0,1,.79-.11,1,1,0,0,1,.74.33,1.11,1.11,0,0,1,.33.81,1.36,1.36,0,0,1-.89,1.25,6,6,0,0,1-2.57.43,4.44,4.44,0,0,1-2.41-.53,2.47,2.47,0,0,1-1.07-1.48,10,10,0,0,1-.25-2.52v-6.5h-.45a1.61,1.61,0,0,1-1.12-.35,1.14,1.14,0,0,1-.38-.88,1.1,1.1,0,0,1,.4-.88A1.77,1.77,0,0,1,935.84,444Z"/><path class="cls-11" d="M962.89,455.13l-.87-2.28h-7.4l-.87,2.33a8.16,8.16,0,0,1-.87,1.84,1.38,1.38,0,0,1-1.18.48,1.73,1.73,0,0,1-1.23-.51,1.56,1.56,0,0,1-.53-1.15,2.59,2.59,0,0,1,.12-.77q.12-.4.41-1.1l4.65-11.82.48-1.22a6.2,6.2,0,0,1,.6-1.19A2.43,2.43,0,0,1,957,439a2.55,2.55,0,0,1,1.27-.29,2.58,2.58,0,0,1,1.28.29,2.48,2.48,0,0,1,.83.75,5.26,5.26,0,0,1,.53,1q.22.53.55,1.41l4.75,11.74a5.9,5.9,0,0,1,.56,1.95,1.61,1.61,0,0,1-.53,1.16,1.73,1.73,0,0,1-1.27.53,1.65,1.65,0,0,1-.74-.16,1.53,1.53,0,0,1-.52-.42,3.86,3.86,0,0,1-.45-.82Q963.06,455.55,962.89,455.13Zm-7.3-5.05H961l-2.74-7.51Z"/><path class="cls-11" d="M756.61,480.61h-3.38v5.15a2.4,2.4,0,0,1-.52,1.68,1.84,1.84,0,0,1-2.66,0,2.4,2.4,0,0,1-.51-1.66v-14a2.29,2.29,0,0,1,.56-1.74,2.54,2.54,0,0,1,1.77-.52h4.73a12.4,12.4,0,0,1,3.23.32,4.81,4.81,0,0,1,1.93,1,4.65,4.65,0,0,1,1.24,1.76,6.21,6.21,0,0,1,.42,2.35,5.18,5.18,0,0,1-1.71,4.21A7.79,7.79,0,0,1,756.61,480.61Zm-.89-8.34h-2.48v5.56h2.48a7.41,7.41,0,0,0,2.18-.27,2.53,2.53,0,0,0,1.33-.89,2.67,2.67,0,0,0,.46-1.63,2.76,2.76,0,0,0-.71-2Q758.18,472.26,755.71,472.26Z"/><path class="cls-11" d="M769.19,471.61l4.12,12.2,4.13-12.29q.32-1,.48-1.35a1.79,1.79,0,0,1,.53-.68,1.56,1.56,0,0,1,1-.3,1.71,1.71,0,0,1,.88.24,1.74,1.74,0,0,1,.63.63,1.54,1.54,0,0,1,.23.79,2.58,2.58,0,0,1-.07.59,5.35,5.35,0,0,1-.19.62l-.22.63-4.41,11.89q-.24.68-.47,1.3a5.48,5.48,0,0,1-.55,1.08,2.44,2.44,0,0,1-.83.76,2.48,2.48,0,0,1-1.26.3,2.52,2.52,0,0,1-1.26-.29,2.4,2.4,0,0,1-.83-.77,5.65,5.65,0,0,1-.55-1.09q-.24-.61-.47-1.29l-4.33-11.79q-.11-.32-.23-.63a4.88,4.88,0,0,1-.2-.67,2.84,2.84,0,0,1-.08-.61,1.62,1.62,0,0,1,.51-1.15,1.71,1.71,0,0,1,1.28-.52,1.49,1.49,0,0,1,1.33.58A7.68,7.68,0,0,1,769.19,471.61Z"/><path class="cls-11" d="M800.27,480.3v3.49a3.65,3.65,0,0,1-.14,1.11,1.76,1.76,0,0,1-.5.75,4.72,4.72,0,0,1-.94.65,14.73,14.73,0,0,1-3.18,1.3,12.81,12.81,0,0,1-3.33.41,10.84,10.84,0,0,1-3.82-.65,8,8,0,0,1-2.94-1.87,8.27,8.27,0,0,1-1.87-3,11.14,11.14,0,0,1-.65-3.91,11.42,11.42,0,0,1,.63-3.89,8,8,0,0,1,1.86-3,8.17,8.17,0,0,1,3-1.88,11.47,11.47,0,0,1,4-.65,9.92,9.92,0,0,1,3.25.49,7.16,7.16,0,0,1,2.3,1.24,5.51,5.51,0,0,1,1.33,1.58,3.2,3.2,0,0,1,.45,1.48,1.58,1.58,0,0,1-.52,1.19,1.73,1.73,0,0,1-1.24.49,1.66,1.66,0,0,1-.76-.19,1.74,1.74,0,0,1-.61-.52,14.64,14.64,0,0,0-1.15-1.61,3.73,3.73,0,0,0-1.27-.92,4.86,4.86,0,0,0-2-.37,5.64,5.64,0,0,0-2.28.44,4.72,4.72,0,0,0-1.72,1.28A5.77,5.77,0,0,0,787,475.8a9,9,0,0,0-.38,2.69,7.38,7.38,0,0,0,1.47,4.93,5.1,5.1,0,0,0,4.1,1.73,8.36,8.36,0,0,0,2.4-.34,12.14,12.14,0,0,0,2.28-1v-3H794a3.13,3.13,0,0,1-1.56-.31,1.12,1.12,0,0,1-.53-1.06,1.3,1.3,0,0,1,.44-1,1.72,1.72,0,0,1,1.2-.4h4.18a5.34,5.34,0,0,1,1.3.14,1.47,1.47,0,0,1,.86.61A2.49,2.49,0,0,1,800.27,480.3Z"/><path class="cls-11" d="M821.81,480.2l-12.49,5.44v-3.51l8.73-3.43-8.73-3.38v-3.49l12.49,5.39Z"/><path class="cls-11" d="M836.75,477.58H824v-3.25h12.74Zm0,5.51H824v-3.25h12.74Z"/><path class="cls-11" d="M851.12,476.71a3,3,0,0,0,2-.67,2.33,2.33,0,0,0,.83-1.92,2.3,2.3,0,0,0-.66-1.64,2.34,2.34,0,0,0-1.77-.69,3.18,3.18,0,0,0-1.25.21,2,2,0,0,0-.78.56,4.19,4.19,0,0,0-.54.89q-.25.55-.47,1a.87.87,0,0,1-.45.41,1.76,1.76,0,0,1-.74.15,1.29,1.29,0,0,1-.91-.4,1.43,1.43,0,0,1-.42-1.07,2.84,2.84,0,0,1,.39-1.36,5,5,0,0,1,1.14-1.36,5.75,5.75,0,0,1,1.87-1,7.52,7.52,0,0,1,2.49-.39,7,7,0,0,1,2.2.33,5.14,5.14,0,0,1,1.73.95,4.1,4.1,0,0,1,1.1,1.44,4.21,4.21,0,0,1,.37,1.76,4,4,0,0,1-.54,2.13,7.18,7.18,0,0,1-1.55,1.73,6.84,6.84,0,0,1,1.63,1.19,4.45,4.45,0,0,1,1.33,3.24,5.48,5.48,0,0,1-.45,2.18,5.57,5.57,0,0,1-1.33,1.88,6.36,6.36,0,0,1-2.09,1.29,7.4,7.4,0,0,1-2.67.47,6.41,6.41,0,0,1-2.67-.53,6.14,6.14,0,0,1-1.94-1.33,6.07,6.07,0,0,1-1.15-1.66,3.6,3.6,0,0,1-.39-1.42,1.52,1.52,0,0,1,.47-1.16,1.62,1.62,0,0,1,1.16-.44,1.24,1.24,0,0,1,.67.2,1,1,0,0,1,.42.49,8.35,8.35,0,0,0,1.38,2.56,2.63,2.63,0,0,0,2.08.84,3.12,3.12,0,0,0,1.48-.38,3.09,3.09,0,0,0,1.18-1.12,3.19,3.19,0,0,0,.47-1.73,3.15,3.15,0,0,0-.79-2.28,2.92,2.92,0,0,0-2.21-.83q-.25,0-.77,0l-.67,0a1.5,1.5,0,0,1-1.06-.34,1.22,1.22,0,0,1-.37-.95,1.18,1.18,0,0,1,.45-1,2.06,2.06,0,0,1,1.33-.37Z"/><path class="cls-11" d="M879.52,478.77a21.24,21.24,0,0,1-.25,3.5,8.16,8.16,0,0,1-.92,2.66,6.1,6.1,0,0,1-2.18,2.26,5.74,5.74,0,0,1-3,.79,5.68,5.68,0,0,1-3.38-1.07,6.49,6.49,0,0,1-2.25-3,11,11,0,0,1-.56-2.28,19,19,0,0,1-.18-2.7,26,26,0,0,1,.2-3.38,11.15,11.15,0,0,1,.62-2.58,5.55,5.55,0,0,1,5.46-3.66,6.22,6.22,0,0,1,2.32.42,5.3,5.3,0,0,1,1.83,1.22,7,7,0,0,1,1.33,2A14.24,14.24,0,0,1,879.52,478.77Zm-3.4-.25a20.7,20.7,0,0,0-.27-3.72,4.58,4.58,0,0,0-.92-2.18,2.25,2.25,0,0,0-1.79-.74,2.3,2.3,0,0,0-2.28,1.65,15,15,0,0,0-.64,5.09,21.9,21.9,0,0,0,.27,3.82,4.8,4.8,0,0,0,.92,2.25,2.4,2.4,0,0,0,3.54,0,4.93,4.93,0,0,0,.91-2.27A23.14,23.14,0,0,0,876.11,478.52Z"/><path class="cls-11" d="M894.62,478.77a21.24,21.24,0,0,1-.25,3.5,8.16,8.16,0,0,1-.92,2.66,6.1,6.1,0,0,1-2.18,2.26,5.74,5.74,0,0,1-3,.79,5.68,5.68,0,0,1-3.38-1.07,6.49,6.49,0,0,1-2.25-3,11,11,0,0,1-.56-2.28,19,19,0,0,1-.18-2.7,26,26,0,0,1,.2-3.38,11.15,11.15,0,0,1,.62-2.58,5.55,5.55,0,0,1,5.46-3.66,6.22,6.22,0,0,1,2.32.42,5.3,5.3,0,0,1,1.83,1.22,7,7,0,0,1,1.33,2A14.24,14.24,0,0,1,894.62,478.77Zm-3.4-.25a20.7,20.7,0,0,0-.27-3.72,4.58,4.58,0,0,0-.92-2.18,2.25,2.25,0,0,0-1.79-.74,2.3,2.3,0,0,0-2.28,1.65,15,15,0,0,0-.64,5.09,21.9,21.9,0,0,0,.27,3.82,4.8,4.8,0,0,0,.92,2.25,2.4,2.4,0,0,0,3.54,0,4.93,4.93,0,0,0,.91-2.27A23.14,23.14,0,0,0,891.22,478.52Z"/><path class="cls-11" d="M909.73,478.77a21.24,21.24,0,0,1-.25,3.5,8.16,8.16,0,0,1-.92,2.66,6.1,6.1,0,0,1-2.18,2.26,5.74,5.74,0,0,1-3,.79,5.68,5.68,0,0,1-3.38-1.07,6.49,6.49,0,0,1-2.25-3,11,11,0,0,1-.56-2.28A19,19,0,0,1,897,479a26,26,0,0,1,.2-3.38,11.15,11.15,0,0,1,.62-2.58,5.55,5.55,0,0,1,5.46-3.66,6.22,6.22,0,0,1,2.32.42,5.3,5.3,0,0,1,1.83,1.22,7,7,0,0,1,1.33,2A14.24,14.24,0,0,1,909.73,478.77Zm-3.4-.25a20.7,20.7,0,0,0-.27-3.72,4.58,4.58,0,0,0-.92-2.18,2.25,2.25,0,0,0-1.79-.74,2.3,2.3,0,0,0-2.28,1.65,15,15,0,0,0-.64,5.09,21.9,21.9,0,0,0,.27,3.82,4.8,4.8,0,0,0,.92,2.25,2.4,2.4,0,0,0,3.54,0,4.93,4.93,0,0,0,.91-2.27A23.14,23.14,0,0,0,906.33,478.52Z"/><path class="cls-11" d="M763.37,512.74a5.35,5.35,0,0,1-.85,3,5.64,5.64,0,0,1-2.49,2.06,9.33,9.33,0,0,1-3.89.74,8.74,8.74,0,0,1-4.44-1,5.92,5.92,0,0,1-2-2,4.44,4.44,0,0,1-.78-2.38,1.61,1.61,0,0,1,1.65-1.63,1.4,1.4,0,0,1,1,.37,2.94,2.94,0,0,1,.69,1.1,7.37,7.37,0,0,0,.75,1.45,3,3,0,0,0,1.14,1,4.21,4.21,0,0,0,1.92.38,4.34,4.34,0,0,0,2.66-.76,2.3,2.3,0,0,0,1-1.91,2,2,0,0,0-.55-1.47,3.56,3.56,0,0,0-1.43-.86q-.88-.3-2.34-.63a17.14,17.14,0,0,1-3.28-1.07,5.3,5.3,0,0,1-2.1-1.68,4.35,4.35,0,0,1-.78-2.64,4.53,4.53,0,0,1,.82-2.67,5.17,5.17,0,0,1,2.37-1.79,9.72,9.72,0,0,1,3.65-.63,9,9,0,0,1,2.9.42,6.14,6.14,0,0,1,2,1.1,4.61,4.61,0,0,1,1.18,1.45,3.34,3.34,0,0,1,.37,1.48,1.74,1.74,0,0,1-.47,1.19,1.48,1.48,0,0,1-1.16.53,1.33,1.33,0,0,1-1-.32,4.26,4.26,0,0,1-.71-1,4.69,4.69,0,0,0-1.19-1.61,3.49,3.49,0,0,0-2.23-.58,3.87,3.87,0,0,0-2.3.63,1.82,1.82,0,0,0-.88,1.51,1.53,1.53,0,0,0,.3.94,2.5,2.5,0,0,0,.82.68,5.49,5.49,0,0,0,1.06.45q.53.16,1.76.47a27.8,27.8,0,0,1,2.79.79,8.48,8.48,0,0,1,2.12,1.06,4.35,4.35,0,0,1,1.37,1.57A5,5,0,0,1,763.37,512.74Z"/><path class="cls-11" d="M769.58,501.75v5a7.24,7.24,0,0,1,1.26-1.18,4.54,4.54,0,0,1,1.36-.65,5.71,5.71,0,0,1,1.6-.22,4.7,4.7,0,0,1,2.29.55,4.24,4.24,0,0,1,2.05,2.95,10.76,10.76,0,0,1,.12,1.73v6.49a2.24,2.24,0,0,1-.47,1.54,1.57,1.57,0,0,1-1.24.52q-1.68,0-1.68-2.06v-5.72a5.25,5.25,0,0,0-.48-2.5,1.91,1.91,0,0,0-1.84-.88,2.76,2.76,0,0,0-1.63.52,3.1,3.1,0,0,0-1.09,1.41,9,9,0,0,0-.27,2.69v4.48a2.29,2.29,0,0,1-.45,1.53,1.57,1.57,0,0,1-1.26.53q-1.68,0-1.68-2.06v-14.7a2.33,2.33,0,0,1,.44-1.55,1.54,1.54,0,0,1,1.24-.52,1.58,1.58,0,0,1,1.26.52A2.29,2.29,0,0,1,769.58,501.75Z"/><path class="cls-11" d="M790.18,516.6a10.49,10.49,0,0,1-2.38,1.43,6.67,6.67,0,0,1-2.58.48,4.89,4.89,0,0,1-2.29-.51,3.77,3.77,0,0,1-1.52-1.4,3.62,3.62,0,0,1-.53-1.91,3.42,3.42,0,0,1,.88-2.37,4.41,4.41,0,0,1,2.42-1.32l1.6-.34q1.28-.26,2.19-.48t2-.53a3.54,3.54,0,0,0-.54-2,2.42,2.42,0,0,0-2-.63,4.13,4.13,0,0,0-1.94.36,3.16,3.16,0,0,0-1.12,1.08,11.35,11.35,0,0,1-.66.95,1.08,1.08,0,0,1-.83.23,1.44,1.44,0,0,1-1-.37,1.19,1.19,0,0,1-.42-.94,2.87,2.87,0,0,1,.63-1.74,4.53,4.53,0,0,1,2-1.39,8.89,8.89,0,0,1,3.34-.55,9.45,9.45,0,0,1,3.51.53,3.27,3.27,0,0,1,1.81,1.67,7.3,7.3,0,0,1,.53,3q0,1.19,0,2t0,1.85a6.82,6.82,0,0,0,.32,2,6.28,6.28,0,0,1,.32,1.33,1.25,1.25,0,0,1-.49,1,1.64,1.64,0,0,1-1.11.43,1.5,1.5,0,0,1-1-.49A7.27,7.27,0,0,1,790.18,516.6Zm-.22-4.9a17,17,0,0,1-2.17.58q-1.42.3-2,.45a2.68,2.68,0,0,0-1,.56,1.43,1.43,0,0,0-.5,1.16,1.72,1.72,0,0,0,.58,1.31,2.16,2.16,0,0,0,1.53.54,4,4,0,0,0,1.86-.44,3,3,0,0,0,1.25-1.14,5.19,5.19,0,0,0,.46-2.53Z"/><path class="cls-11" d="M800.09,513.62v2.83a2.18,2.18,0,0,1-.48,1.55,1.62,1.62,0,0,1-1.23.51,1.55,1.55,0,0,1-1.2-.52,2.22,2.22,0,0,1-.47-1.54V507q0-2.28,1.65-2.28a1.38,1.38,0,0,1,1.22.53,2.94,2.94,0,0,1,.41,1.58,5.92,5.92,0,0,1,1.25-1.58,2.58,2.58,0,0,1,1.71-.53,4.37,4.37,0,0,1,2.07.53,1.59,1.59,0,0,1,1,1.42,1.35,1.35,0,0,1-.43,1,1.33,1.33,0,0,1-.92.4,4.24,4.24,0,0,1-.9-.23,4.19,4.19,0,0,0-1.26-.23,1.84,1.84,0,0,0-1.22.39,2.51,2.51,0,0,0-.73,1.16,8.12,8.12,0,0,0-.36,1.83Q800.09,512.09,800.09,513.62Z"/><path class="cls-11" d="M816.68,512.45h-6.63a4.49,4.49,0,0,0,.47,2,3.12,3.12,0,0,0,2.86,1.77,4.07,4.07,0,0,0,1.11-.14,3.66,3.66,0,0,0,1-.45,7.45,7.45,0,0,0,.87-.65q.4-.35,1-.94a1.11,1.11,0,0,1,.74-.22,1.23,1.23,0,0,1,.84.29,1,1,0,0,1,.32.81,2.2,2.2,0,0,1-.36,1.07,4.27,4.27,0,0,1-1.09,1.18,6.2,6.2,0,0,1-1.82.94,7.86,7.86,0,0,1-2.53.37,6.76,6.76,0,0,1-5.08-1.86,6.93,6.93,0,0,1-1.81-5.05,8.43,8.43,0,0,1,.45-2.79,6.15,6.15,0,0,1,1.3-2.2,5.65,5.65,0,0,1,2.11-1.41,7.58,7.58,0,0,1,2.78-.49,6.59,6.59,0,0,1,3.41.84,5.51,5.51,0,0,1,2.13,2.17,5.7,5.7,0,0,1,.71,2.71q0,1.28-.73,1.66A4.56,4.56,0,0,1,816.68,512.45Zm-6.63-1.92h6.14a4.12,4.12,0,0,0-.94-2.6,2.81,2.81,0,0,0-2.14-.86,2.71,2.71,0,0,0-2.08.88A4.36,4.36,0,0,0,810.05,510.53Z"/><path class="cls-11" d="M840.71,508.08H828v-3.25h12.74Zm0,5.51H828v-3.25h12.74Z"/><path class="cls-11" d="M857,516.62v-2.31h-6.23a2.56,2.56,0,0,1-1.77-.53,1.86,1.86,0,0,1-.59-1.45,1.42,1.42,0,0,1,.09-.48,2.46,2.46,0,0,1,.26-.51q.17-.27.36-.52l.46-.61,6.58-8.8a10,10,0,0,1,1.06-1.26,1.41,1.41,0,0,1,1-.39q1.89,0,1.89,2.16v9.61h.53a3.77,3.77,0,0,1,1.53.26,1.12,1.12,0,0,1,.58,1.14,1.19,1.19,0,0,1-.47,1,2.48,2.48,0,0,1-1.42.33h-.76v2.31a2.06,2.06,0,0,1-.42,1.42,1.58,1.58,0,0,1-2.25,0A2.05,2.05,0,0,1,857,516.62Zm-5.34-5.09H857v-7.21Z"/><path class="cls-11" d="M871.61,504.67a5.13,5.13,0,0,1-1,3.53,3.65,3.65,0,0,1-2.85,1.15,4.07,4.07,0,0,1-2-.49,3.31,3.31,0,0,1-1.38-1.53,5.89,5.89,0,0,1-.5-2.54,8.12,8.12,0,0,1,.38-2.69,3.13,3.13,0,0,1,1.25-1.64,4,4,0,0,1,2.2-.56,4.49,4.49,0,0,1,1.7.3,3.11,3.11,0,0,1,1.24.91,4,4,0,0,1,.76,1.5A7.68,7.68,0,0,1,871.61,504.67Zm-2.32-.12a5.93,5.93,0,0,0-.35-2.36,1.24,1.24,0,0,0-1.23-.74,1.28,1.28,0,0,0-.95.35,2,2,0,0,0-.48,1,9.73,9.73,0,0,0-.13,1.76,10.1,10.1,0,0,0,.13,1.8,2,2,0,0,0,.48,1,1.28,1.28,0,0,0,1,.35A1.23,1.23,0,0,0,869,507,6.83,6.83,0,0,0,869.29,504.54Zm10.6-3L869.55,518.2q-.4.68-.89.68a1,1,0,0,1-.57-.22.68.68,0,0,1-.29-.57,1.21,1.21,0,0,1,.25-.63l10.4-16.81a4.63,4.63,0,0,1,.48-.69.75.75,0,0,1,.59-.23.84.84,0,0,1,.6.22.76.76,0,0,1,.23.58A2.55,2.55,0,0,1,879.89,501.53Zm4.43,12.11a5.12,5.12,0,0,1-1,3.52,3.65,3.65,0,0,1-2.85,1.15,4.05,4.05,0,0,1-2-.5A3.38,3.38,0,0,1,877,516.3a5.77,5.77,0,0,1-.5-2.54,6,6,0,0,1,.92-3.64,3.44,3.44,0,0,1,2.94-1.22,4.44,4.44,0,0,1,1.69.3,3.25,3.25,0,0,1,1.24.89,3.8,3.8,0,0,1,.76,1.48A7.75,7.75,0,0,1,884.32,513.64Zm-2.32-.12a5.84,5.84,0,0,0-.35-2.34,1.24,1.24,0,0,0-1.23-.74,1.31,1.31,0,0,0-1,.35,2,2,0,0,0-.49,1,8.81,8.81,0,0,0-.14,1.76,6.19,6.19,0,0,0,.35,2.43,1.26,1.26,0,0,0,1.25.77,1.23,1.23,0,0,0,1.24-.79A6.72,6.72,0,0,0,882,513.52Z"/></svg>