<svg xmlns="http://www.w3.org/2000/svg" viewBox="0 0 1876.99 1637.12"><defs><style>.cls-1,.cls-10,.cls-11,.cls-12,.cls-13,.cls-2,.cls-3,.cls-4,.cls-6,.cls-7,.cls-8,.cls-9{stroke:#000;stroke-linecap:round;stroke-linejoin:round;stroke-width:10px;}.cls-2{fill:#b1e8e3;}.cls-3{fill:none;}.cls-4{fill:#ccede9;}.cls-5{fill:#232323;}.cls-6{fill:#231033;}.cls-7{fill:#95c1bc;}.cls-8{fill:#383632;}.cls-9{fill:#c0c6c9;}.cls-10{fill:#f97541;}.cls-11{fill:#ff4200;}.cls-12{fill:#d34113;}.cls-13,.cls-15{fill:#d9d9d9;}.cls-14,.cls-17,.cls-18,.cls-19{fill:#fff;}.cls-16{fill:#f91c61;}.cls-17{opacity:0.4;}.cls-18{opacity:0.3;}.cls-19{opacity:0.05;}</style></defs><title>panda-darts</title><g id="Layer_2" data-name="Layer 2"><g id="Layer_6" data-name="Layer 6"><path class="cls-1" d="M267.93,829.12c164,43,232,35,307,65,90.48,36.19,76.49,213.22,32,215-100,4-265-105-365-175-9.63-6.74-24-9-50-17C168.79,910,228.48,850.38,267.93,829.12Z"/><path class="cls-1" d="M289.93,840.12c-.38-4-1.29-4.48-28-38-19-23.86-40-46.15-59-70-6.12-7.67-7.49-9.58-11-11-24.82-10-114.83,39.27-90,90,23,47,31.32,97.66,81,105C239.59,924.49,293,873,289.93,840.12Z"/><path class="cls-1" d="M118.93,821.12c-5.16,2.59-22-2-36-22-76,5-65.22-46.1-62-53,7-15,53.31-25,83,0C130.49,768.47,130.66,815.24,118.93,821.12Z"/><path class="cls-1" d="M88.93,750.12c-108,9-89.29-86.29-66-85,36,2,91-5.07,100,33C127.64,718,110.46,748.33,88.93,750.12Z"/><path class="cls-1" d="M202.93,735.12c-4.06-6.39-8.13-15.13-13.17-24.28a82,82,0,0,0-25.33-27.92c-47.56-32.75-71.36-66.79-86.5-66.79-43,0-38,56-19,74,12.63,12,22,18,43,27,7,16,14.1,37,30,46C154.82,776,215.26,754.49,202.93,735.12Z"/><path class="cls-1" d="M192.93,766.12c-21.92-4.37-37.07-10.8-47-16-9.38-4.91-19.35-8.62-29-13-8.42-3.82-12.47-5.71-18-5-11.07,1.41-17.74,11.9-19,14-9.37,15.55-1.67,34,0,38,7.07,16.95,22,24.78,32,30,23.69,12.37,40,11,56,14,15,21,17,49,72,71"/><path class="cls-2" d="M849.93,657.12c-1.25-5.57-4.09-17.53-11-19-3.65-.78-7.1,1.66-9,3-9.47,6.68-7,16.91-15,22-4.45,2.84-7.41,1.05-14,2-11.75,1.69-19.84,9.88-28,19-23.48,26.23-67.35,82.12-72,88a29.47,29.47,0,0,1-6,6c-11.37,8.31-25.42,5-26,8-.49,2.58,9.56,5.58,9,8s-11.26,2-12,2c-8-.33-12-2.46-13-1-1.71,2.51,8.35,11.28,7,13s-13.24-6.12-15-4c-1.51,1.82,6.8,8.18,5,15-1.08,4.09-5.34,6.61-6,7a15.43,15.43,0,0,1-7,2c-11.79.6-19.58-11.36-24-9-4,2.14-2.67,14.65,0,23,2.37,7.42,5.49,10.56,4,13-2.44,4-15.09-3.45-18,0-3.54,4.2,9.75,20.7,10,21,35.9,44.56,82.2,102,96,120,5.53,7.2,16.35,15.8,38,33,2.58,2.05,8.83,6.93,12,5,4.84-3-1.47-19.45,2-21s11.91,14.63,17,13c5.35-1.71,1.81-21.51,7-23,4.08-1.17,9.87,10,12,9,3-1.46-7.83-24.58-3-28,4.39-3.11,15.65,14.4,28,15,27.18,1.31,51.42-79.61,53-85C870.93,914.12,891.76,843,849.93,657.12Z"/><path class="cls-3" d="M666.93,809.12a134.27,134.27,0,0,1,23,10c15.12,8.34,29.3,20,46,41,28.42,35.73,38.36,66.07,41,65,2.24-.91-4-23.17-12-44a336,336,0,0,0-31-61"/><path class="cls-3" d="M638.93,832.12a236,236,0,0,1,55,39"/><path class="cls-3" d="M704.93,871.12a278,278,0,0,1,79,101"/><path class="cls-3" d="M622.93,854.12a171.5,171.5,0,0,1,45,16c5.93,3.1,26,14.07,54,44a363.8,363.8,0,0,1,56,79"/><path class="cls-3" d="M698.93,928.12a217,217,0,0,1,40,48,214.72,214.72,0,0,1,14,27"/><path class="cls-3" d="M802.93,678.12a173.93,173.93,0,0,0-17,46c-5.16,24-3.88,43.15-3,55a219.38,219.38,0,0,0,7,41"/><path class="cls-4" d="M541.93,882.12c-.55-8.05,11.86-19,14-21,3.27-3.11,5.17-4.87,8-5,7.6-.35,13,11.42,16,10,1.48-.71.26-3.69,2-8a19.06,19.06,0,0,1,7-8c9.9-6.31,43.41,25.51,46,28a546.33,546.33,0,0,1,64,73c14.47,19.8,21.27,31.34,27,44,0,0,11,24.36,10,53-.17,4.68-.82,9.29-4,13-2.82,3.3-8.21,6.58-14,8-3,.74-4.4.56-6,2-2.63,2.38-2,5.76-3,10-1.06,4.6-3.37,7.47-7,12-5.7,7.1-10.87,6.6-25,14-11.76,6.16-11.08,8-26,16-8,4.3-12.07,6.45-17,8-5.12,1.61-19,5.75-35,1-7.45-2.21-13-6.14-24-14-7.43-5.3-8.26-10.89-8-12,4,2,20,2.77,30-1,38.7-14.61,16.87-139.56-17-196C573.93,899.12,561.93,888.12,541.93,882.12Z"/><path class="cls-3" d="M582.93,867.12a116.42,116.42,0,0,1,41,55"/><path class="cls-3" d="M626.93,911.12a246.09,246.09,0,0,1,41,119"/><path class="cls-3" d="M698.93,1013.12a125.1,125.1,0,0,1,11,54"/><path class="cls-5" d="M121.43,832.62c-1.63.82,6.27,19.08,11,30,8.78,20.29,12.14,24.52,16,28,6.65,6,13.9,8.93,19,11s11.72,4.76,13,3c.77-1.06-.17-4-16-21-14.52-15.62-16.73-16.4-24-25C127.59,843.44,122.72,832,121.43,832.62Z"/><path class="cls-5" d="M181.43,831.62a51.38,51.38,0,0,0,1,28c6.89,20.91,25.18,29.26,29,31,8.52,3.89,22.86,7.72,26,3,3.28-4.94-7.14-17-8-18-9.49-10.84-18.12-10.79-29-19C194.91,852.46,187.42,845.11,181.43,831.62Z"/><path class="cls-5" d="M295.43,841.62c9.61-7.54,24.14,3,55,13,3.84,1.24,2.45.7,76,15,69.5,13.51,64.54,12.79,66,13,25.27,3.71,33.75,3.46,48,10,20,9.18,31.83,22.77,38,30,13.21,15.48,31.23,44.07,24,52-5.17,5.67-20.13-2.66-48-13-34.22-12.7-29.21-6.66-87-24-77.47-23.25-70.38-29.28-109-38-21.13-4.77-39.68-17.48-60-25a15.78,15.78,0,0,1-8-6C285.51,860.93,288.46,847.09,295.43,841.62Z"/><path class="cls-5" d="M65.43,630.62c3.73,10.84,16.77,17.42,25,22,7.15,4,18.1,12,40,28,16.76,12.25,25.14,18.38,33,27,10.88,11.94,7.33,12.36,25,35,9.86,12.63,14.81,17.42,21,29s4,11.94,9,21c12.35,22.36,32.72,32.86,39,36,7.85,3.92,20.53,11,23,8,2.91-3.53-10.63-18.08-43-58-18.22-22.47-20-24.31-24-30-9-12.67-12.72-19.92-27-40-7.83-11-11.31-15.31-16-20-5-5-8.52-7.59-20-17-11.22-9.2-8.67-7.35-18-15-7.7-6.32-19-15.6-34-27a123.76,123.76,0,0,0-12-9c-7.17-4.65-10.15-5.38-13-5-.56.08-5.67.84-8,5C63.3,624.43,64.79,628.76,65.43,630.62Z"/><path class="cls-5" d="M9.43,682.62c-1.36-4.88,3.92-10,5-11,6.51-6.26,15.27-5.11,16-5,2,.29,6,.89,9,4,3.5,3.6,2,6.79,5,14,3.17,7.68,6.93,9.1,6,11-2.29,4.67-25.16-3.83-31-6S10.32,685.81,9.43,682.62Z"/><path class="cls-5" d="M20.43,749.62a31.24,31.24,0,0,0,1,15c.43,1.33,3.6,11,8,11,1.77,0,2.38-1.59,7-7,6.43-7.54,8.28-8,8-10-.55-3.88-7.85-2.7-14-10-2.24-2.66-3.14-5-5-5C23.29,743.66,21.58,746.82,20.43,749.62Z"/><path class="cls-5" d="M88.43,758.62a19.37,19.37,0,0,1,3-16,19,19,0,0,1,10-7c7.25-1.93,13.15,1.95,27,10,15,8.7,22.45,13.06,29,16,9.73,4.37,9.43,2.9,29,10,14.49,5.25,21.92,8,31,13,7.4,4.09,14.31,7.91,22,15,8.94,8.25,9.61,12.32,20,21,8.27,6.9,12.48,8.2,12,10-1,3.89-22.42,4.66-42-3-7.29-2.85-15.52-8.57-32-20-15-10.42-18.91-14.35-29-18-4.51-1.63-4.41-1.09-23-5-16.55-3.48-25-5.27-32-8C101.55,772,91,767.93,88.43,758.62Z"/><path class="cls-6" d="M807.61,1498.12a202.07,202.07,0,0,1-6.16,38c-2.85,10.66-6.16,20-6.16,20-4.66,13.17-5.88,13.11-7.19,19-.68,3.06-1.72,9.27,2.05,30,2.71,14.86,5.86,26,6.16,27h638.62c-10.27-65-29.92-117.63-41.07-132C1238.31,1299.61,812.08,1458.77,807.61,1498.12Z"/><path class="cls-1" d="M977.93,589.12c-24.67,49-5.89,107.88,5,142,11.88,37.22,22.12,69.29,48,79,48.33,18.13,117-54.54,149-104,11.47-17.74,76.9-123.17,38-172C1176,481.45,1020.47,504.56,977.93,589.12Z"/><path class="cls-2" d="M830.93,683.12a119.76,119.76,0,0,1,7-18c7.71-16.15,13.29-19.17,15-20,6.75-3.26,13.73-1.47,16-1,32.77,6.8,96.28-51.8,118-37,3,2,4.71,16.72,8,46,4.43,39.36,3.37,45.33,9,59,7.71,18.71,14,31,14,31,3.65,7.14,5.23,9.57,7,15,4.6,14.09,2.82,24.63,5,25,2.46.42,6.58-12.68,7-14,0,0,8.15-25.89,22-66,6.1-17.67,28-69.32,21-52a248.93,248.93,0,0,0,43-20c47-27.57,50.82-50.86,90-67,10.57-4.35,35.4-14.59,66-11,22.38,2.62,41.14,11.85,70,12,12.65.07,19,.1,28-2,10.84-2.54,15-5.75,23-5,0,0,10.42,1,21,11,48.5,45.94,36,315,36,315-.39,8.33-2,41-8,83-3.58,25-5.36,37.46-10,54-6.57,23.44-11.39,29.6-14,47,1,19,1.77,23.65,3,52,2,45.32-7.75,96.54-18,111-1,1.4-3,8-5,13,3,7,5.77,10.68,7,13,5.6,10.55-.59,22.84-3,39-5.18,34.77-8.85,59.38-2,84,1.74,6.27,5.18,16.18,2,28-1.55,5.75-4.35,10.81-11,19-11.76,14.5-24.54,25.24-30,29-53.91,37.09-237,42-237,42-114.78,3.08-134.61,2.34-162-1,0,0-89.74-10.94-145-48-16.27-10.91-31.75-26.72-33-28-12.75-13.11-20.45-21.2-24-33-5.17-17.19,1.47-32.21,6-45,2.25-6.35,6.13-34.58,14-91,3.22-23.13,5.19-52.4,9-110,2.94-44.53,2.54-44.9,6-102,7.7-127,10.65-141.11,7-174a405,405,0,0,1-3-49,377.12,377.12,0,0,1,5-62C815,731.06,817.35,732.81,830.93,683.12Z"/><path class="cls-3" d="M960.93,657.12c-1.66,0-7.7.54-19,22-9.64,18.32-15.9,38.2-14,39,1.2.51,3.52-7.52,12-17,13.45-15,34.83-25.26,45-19,2.13,1.31,3.67,3.28,4,3,.69-.6-5.75-9.87-14-18C968.16,660.45,964.77,657.11,960.93,657.12Z"/><path class="cls-2" d="M1017.93,743.12c-3-3-18.59-23.3-27-40-3.89-7.74-8.6-14.82-18-29-4.05-6.11-7.71-11.36-12-11-3.39.28-5.55,3.95-9,10-8.63,15.13-12.94,22.69-14,25-6.07,13.25-9.54,20.82-12,32-2.37,10.77-2.29,18-3,18-1,0-1.77-14.49-1-29,.67-12.57,1.14-21.33,5-32,2.26-6.25,4.27-9.23,12-22,18.35-30.28,16-28.24,19-32,18.34-22.93,53.21-33.08,60-25,2.65,3.15-.16,7.67-4,20-9.54,30.65-9.45,58.35-8,73C1008.31,725.2,1015.93,735.12,1017.93,743.12Z"/><path class="cls-2" d="M1076.93,655.12c2.07,2.12,4.89,5.16,8,9,15.6,19.25,21.49,37.66,25,49,6.83,22.08,4.69,30.59,3,35-1.06,2.78-2.29,4.82-2,5,1.16.73,23.2-30.47,43-64,11.41-19.33,21.87-37.19,32-62,8.7-21.31,26.17-64.09,16-71-9.91-6.74-43.5,22.42-58,37-15.72,15.81-15.87,21.39-29,29-10.49,6.09-21.62,9-31,21A51.71,51.71,0,0,0,1076.93,655.12Z"/><path class="cls-3" d="M1422.93,1068.12c-3.56,11.6-8.93,28.6-16,49-10.51,30.32-20.57,59.08-37,94-5.81,12.34-14.4,29.66-26,50"/><path class="cls-3" d="M1442.93,950.12c-16.82,61.68-32.94,108.6-45,141-6.39,17.16-17.61,46.29-32,89-8.31,24.65-14.74,45.13-19,59"/><path class="cls-3" d="M1025.93,791.12c-4.23,20-7.06,37.93-9,53-3.2,24.83-5.08,39.45-5,60,.08,19.68,1.89,25.41,0,43a315,315,0,0,1-6,34c-3.43,15.83-5.93,23.73-8,32-5.32,21.25-4.57,31.9-7,59-3.79,42.27-7.76,40.37-13,90-2.84,26.9-4.26,40.34-4,57,.43,27.58,4.07,37.15,2,64-1.35,17.6-3.18,16.87-5,38-2.55,29.58,1.1,30.07-1,54-2.92,33.21-10.65,40.22-6,62a106.93,106.93,0,0,0,9,25,103.85,103.85,0,0,0,17,24"/><path class="cls-7" d="M1033.93,849.12c-.48-2-.5-5.6,2-7s5.51.14,7,2c2.84,3.53,1,10.14-2,11C1038.45,855.83,1034.8,852.7,1033.93,849.12Z"/><path class="cls-7" d="M1020.93,999.12c-1-2.71.81-5.69,3-7,3-1.76,7.6-1,9,2s-.82,6.81-4,8C1026,1003.21,1022,1002.12,1020.93,999.12Z"/><path class="cls-7" d="M993.93,1277.12c-4-3.07-3.28-10.68,1-13a7.62,7.62,0,1,1-1,13Z"/><path class="cls-7" d="M989.93,1375.12c-2.83-3.43-3.38-9.57,0-12,2.88-2.07,7.59-.71,10,2,3.45,3.88,2.73,11.09-1,13C996.09,1379.58,992,1377.67,989.93,1375.12Z"/><path class="cls-8" d="M799.93,1437.12c11,22.82,10.12,36,7,44-1,2.67-3.62,8-2,14,1.85,6.87,8.18,10.87,12,13,39.3,21.86,105,30,105,30,57.14,7.08,52.88,6.74,56,7,43.36,3.59,88.26,4.89,173,3,0,0,106.86-2.38,195-19,18.39-3.47,9.38-4.73,38-13,4.79-1.38,12.4-3.47,16-10,1.07-1.95,1.84-4.38,2-13,.23-12.48-1.29-13.11-1-21,.43-11.9,4.06-15.64,2-26-1-4.82-2.19-6.26-3-7-5.34-4.86-16.32-.73-21,1-16.81,6.22-35.08,8.78-51,17-39.47,20.38-93.65,16.86-153,13-24.89-1.62-31.72-3.89-53-3-18.63.78-22.69,2.9-71,9-30.88,3.9-39.33,4.31-49,4-16-.51-27.41-2.71-44-6-17.72-3.51-35.48-8.67-71-19-34.14-9.92-51.21-14.89-53-16-2.31-1.43-9.44-6.08-19-6A32.68,32.68,0,0,0,799.93,1437.12Z"/><path class="cls-9" d="M929.93,1464.12c-2.18,1.74-1.87,4.41-2,15-.12,10.34-.74,20.66-1,31,0,0-.09,3.61,0,17,.07,10.18.21,12.66,2,15,3,3.94,8.18,4.2,16,5,9.38,1,18.6,3.3,28,4,31.93,2.39,47.9,3.58,52,4,18.31,1.89,27.14,3.64,32-2,2.52-2.93,3-6.76,4-14,.92-6.89.2-9.08,0-20-.29-15.79-.43-23.68,0-28,.36-3.59.88-7.15-1-11-2.41-4.95-7.21-7.19-9-8-9.93-4.48-20.67-.84-28,1-20.23,5.07-49.53,5.11-72-4C942.42,1465.67,934.27,1460.65,929.93,1464.12Z"/><path class="cls-8" d="M954.93,1485.12c-2.48,3,.49,4.52-1,18-1.28,11.52-4.13,16.5-1,22,.67,1.18,2.21,3.42,7,6,10.22,5.5,17.9,3.19,32,4,20.55,1.18,27.25,7.41,34,2,2.92-2.34,3.94-5.56,6-12,2.21-6.93,6.51-20.39,1-28-4.2-5.81-11-3.95-29-6C973.58,1487.65,960.4,1478.6,954.93,1485.12Z"/><path class="cls-7" d="M998.93,1137.12c-3.77-2.7-2.74-12.17,2-14,2.57-1,6.23.25,8,3,2.13,3.31.81,7.74-2,10C1004.69,1137.93,1001.08,1138.66,998.93,1137.12Z"/><polygon class="cls-10" points="1689.93 329.13 1689.93 314.13 1715.93 314.13 1689.93 329.13"/><path class="cls-1" d="M1488.93,493.12c-9.76-27.65-16.87-45.38-22.42-65.56a52.28,52.28,0,0,1,.27-28.78c25.81-86.57,69.91-66.72,79.14-58.66,8,7,23,50-8,71,10,11,11.87,19.87,14,33C1556.23,470.63,1498.31,519.69,1488.93,493.12Z"/><path class="cls-3" d="M1537.93,411.12a39.56,39.56,0,0,1-8,2,40.31,40.31,0,0,1-16-1"/><path class="cls-11" d="M1715.93,327.12c-13,13-192.33,57-210,57a32,32,0,0,1,0-64C1523.61,320.12,1691.93,319.12,1715.93,327.12Z"/><polygon class="cls-12" points="1694.93 327.13 1715.93 286.13 1771.93 283.13 1748.93 327.13 1694.93 327.13"/><polygon class="cls-10" points="1713.93 364.13 1694.93 327.13 1748.93 327.13 1771.93 360.13 1713.93 364.13"/><path class="cls-1" d="M1550.93,326.12c-.69,7.55,1.5,13.22,3,17,1.19,3,4.45,10.92,12,17,11.23,9,17,9,24,11-5,9-15.33,22.68-12,29,5.12,9.71,65.6,2.18,80-32,5.67-13.46,4.11-30.85,4-32-1.17-11.93-4.94-19.08-6-21-2.07-3.76-4.71-8.54-10-12-3-2-6.57-3.3-20-4-13.67-.71-16.2.34-31,0-12.05-.28-13-1-18,0-4.27.88-13.54,2.79-20,11A29.66,29.66,0,0,0,1550.93,326.12Z"/><path class="cls-3" d="M1589.93,371.12a50.62,50.62,0,0,0,18-2"/><path class="cls-1" d="M1572.93,409.12c-7.55,1.43-15.36,7.28-31,19-20.35,15.25-41.31,31-49,58-2.43,8.55-2.64,15.09-3,26-.6,18.23-1.17,35.77,9,52,5.69,9.07,12.48,14.15,23,22,8.48,6.33,19,14.17,32,18,26.08,7.68,55.36-2.74,74-19,17.21-15,23.38-33.3,28-47,3.51-10.4,9.3-27.58,7-47C1657.56,445.8,1609.73,402.17,1572.93,409.12Z"/><path class="cls-1" d="M1564.93,404.12a33.5,33.5,0,0,0-4,15c0,1,0,14.39,10,24,13.74,13.24,35.28,8.69,45,4a33.76,33.76,0,0,0,12-9c4.7-5.72,3.23-8.26,6-10,7.63-4.79,20.58,13.37,44,15,8.1.57,11.81-1.24,14-3,6.57-5.27,6.12-15.4,6-18-.27-6-2.06-7.81-8-21s-6.35-16.25-12-27c-5.39-10.26-7.91-13-11-15-4.29-2.8-9.32-4-16-4-11.38,0-22.64,3.6-42,14C1573.91,387.95,1567.17,399.67,1564.93,404.12Z"/><path class="cls-1" d="M1561.93,574.12c-7.31-7.77-8.35-17.76-9-24-.25-2.38-2.32-25.59,13-41,12.76-12.83,19-16,30-20-5-4-7.55-6.28-9-14-1.9-10.1,9.27-20.65,16-27,5.89-5.56,7.38-5.16,16-13,9.83-8.94,8.33-9.86,13-13,14.76-9.93,34.59-4,38-3,4.57,1.36,10.92,3.33,17,9,2.33,2.17,9.27,9.22,11,20,.83,5.18-.38,6-3,21-3.26,18.61-2.14,21.57-6,28-2.69,4.48-3.91,4.19-11,12a164,164,0,0,0-16,21,136.92,136.92,0,0,0-9,17"/><path class="cls-3" d="M1595.93,489.12c2.32,1.54,21.32,13.69,43,6a47.4,47.4,0,0,0,23-18"/><path class="cls-2" d="M1278.93,795.12c5.6-73.6,22-117,22-117,13.55-35.86,23.17-60.53,47-84,5.92-5.84,24.33-23,52-30,17.53-4.42,26.23-1.57,30,0,13.7,5.72,20.54,19,22,22,5.41,11.16,6,15,7,21,10,2,16.53,3,30,10,8.22,4.29,9.87,8.9,22,24,0,0,9.88,12.31,27,30,36.95,38.19,104.25,47.53,122,50,17.3,2.4,22.29,1.47,25,6,13.06,21.84-84.91,73.47-88,144-1,22.94-8.93,45.13-11,68-.46,5.11-1.3,15.54-9,22-6.39,5.37-17.43,7.94-26,4-17.06-7.84-23-21-26-38-3,3-4.1,4.93-10,6-6.88,1.25-13.41-4.07-17-7-7.78-6.34-6.17-9.64-12-13-7-4-10.72-.13-20-3-5.86-1.81-8.28-4.57-18-13-10.16-8.81-19-15.71-22-18-5.14-3.88-10.4-7.12-41-20-23-9.7-34.57-14.55-37-15"/><path class="cls-3" d="M1458.93,607.12a67.77,67.77,0,0,0-17,3c-17.38,5.44-28,16.61-33,22a88.66,88.66,0,0,0-10,13"/><path class="cls-3" d="M1524.93,927.12a179.9,179.9,0,0,1-3-25,147.49,147.49,0,0,1,1-29,138.46,138.46,0,0,1,4-19"/><path class="cls-3" d="M1478.93,904.12a83,83,0,0,1-17-26c-2.83-6.9-9.2-23.07-5-43a66.81,66.81,0,0,1,9-22"/><path class="cls-3" d="M1577.93,704.12a99.58,99.58,0,0,0-21,1,105.4,105.4,0,0,0-41,16,121,121,0,0,0-26,22"/><path class="cls-3" d="M1575.93,731.12a92.83,92.83,0,0,0-39,12c-6.31,3.63-21.34,12.53-32,31a81.22,81.22,0,0,0-10,29"/><path class="cls-4" d="M1794.93,787.12c-44.81-38.45-110.08-43.54-157-18-35.17,19.14-50.9,50.53-54,57-14.82,30.93-12.26,58.55-10,83,2,21.67,4.5,48.64,24,70,7.68,8.41,18.18,19.92,33,21,7.12.52,12.57-1.56,23,1,7.36,1.81,12.52,4.78,18,8,13.88,8.14,16,13.27,24,18,10.8,6.43,21.67,5.81,36,5,13.46-.76,41.58-2.36,66-21,28.43-21.7,35.33-53.9,39-71C1839.78,926.84,1858.12,841.34,1794.93,787.12Z"/><path class="cls-3" d="M1626.93,934.12a187,187,0,0,0,13,33c11.74,23.06,22.38,31.89,25,34a76,76,0,0,0,7,5"/><path class="cls-3" d="M1618.93,828.12a83.54,83.54,0,0,0-15,20c-1,1.86-20.65,40-2,78a80.38,80.38,0,0,0,16,22"/><path class="cls-1" d="M1517.93,573.12c6,13,13,25,25,53,11.31,26.38,28.58,65.49,55,148,13.37,41.76,30.06,82.54,41,125,4.4,17.09,9.28,38.06,27,57,19.11,20.44,44,28.67,54,32,10.37,3.44,6.27.79,55,10,22.62,4.27,28.77,5.84,40,5,11-.82,27.31-2,40-14,11.77-11.1,14.24-25.62,16-36,2.87-16.93-.76-24.33-3-51-2.29-27.3.71-29.25-1-47a168,168,0,0,0-23-69c-19.89-32.81-47.49-50.3-77-69-3.79-2.4-16.72-7.41-32-18a205,205,0,0,1-19-15c-37.45-33.19-59-71-59-71-7.08-12.41-14.78-28.44-31-51-3.59-5-5.41-7.51-7-9C1593.74,529.53,1505.58,546.37,1517.93,573.12Z"/><path class="cls-9" d="M1492.93,354.12a5,5,0,0,1-5,5c-2.76,0-82,7.76-82,5s79.24-15,82-15A5,5,0,0,1,1492.93,354.12Z"/><path class="cls-3" d="M1328.93,749.12a266.71,266.71,0,0,0-29,61c-3.85,11.77-10.39,32.22-12,60a218.17,218.17,0,0,0,1,37"/><path class="cls-1" d="M840.93,169.12c-10.13-9.36-12.18-22.26-15-40-1.68-10.56-10.35-65.18,28-100,22.71-20.62,50.08-23.56,61-24,8-.32,27-.84,47,10,25.05,13.61,35.76,36.6,42,50,6.1,13.09,10.33,22.19,10,32C1012.16,149.3,881.69,206.77,840.93,169.12Z"/><path class="cls-13" d="M730.93,436.12a50.79,50.79,0,0,0,26-4c11.35-5.18,16.82-15.81,20-22,7.43-14.45,7.29-26.67,8-47,.6-17.35,2.46-34.65,3-52,0,0,1.47-47.33,16-94,3.51-11.26,22.28-68.22,74-111,66.84-55.29,147.18-52.54,192-51,37.57,1.29,90.25,3.09,144,38,15.42,10,65.22,45,89,106,7.94,20.36,25.56,75.88,27,123a109.85,109.85,0,0,0,5,31c3,9.5,11.28,31.06,32,48,8.63,7.05,18,14.72,31,15,11.56.25,14-2,20-3,4.8,4.92-11.76,33.49-35,55-9.5,8.79-32.74,30.3-68,37-21.56,4.1-36,4-41,5-.4,2.86,10.88,4.26,27,15a103.83,103.83,0,0,1,25,24c4,5.33,11.66,15.73,9,19-9-4-10.46-6.86-25-9-9.44-1.39-21.42,4.39-43,10-24.73,6.43-28.78,9.74-43,10-9.22.17-17.83-1-18,0-.21,1.32,14,2.11,28,11,12.55,8,21.26,28.85,19,32-8-7-13.48-12.12-28-17-27.06-9.08-51.67-5.81-72-4-11.38,1-19.65,2.5-28,4-31.53,5.66-34.56,10.12-59,14a384.43,384.43,0,0,1-47,4c-9.64.22-19.81.07-34,3-12.94,2.67-20.79,4.41-26,11-8.28,10.48-11,18-8,26-6-3-11.29-6.23-15-13-5.75-10.5-2.38-17.23-7-20-6-3.58-19.51,3-24,13-4.19,9.36,1.13,18.1-1,19-3,1.27-31-25-3-44-1.43-3.1-14.19-2.87-23,4-9.74,7.59-9.57,19.33-12,19-3-.41-6.87-19.17,2-30,4.21-5.14,9.49-6.31,9-8-.69-2.4-12.24-3.41-21,2s-10.07,14.55-12,14c-2.93-.83-13-38,33-44,.9-2.24-41.07,1.88-53-6-56-37-71-19-77-16-2.22-2.78,4.95-19.23,18-27,14.25-8.49,19-10,30-11-9-3-14.71-3.5-28-12C737.36,484.21,722.43,445.44,730.93,436.12Z"/><path class="cls-14" d="M856.93,147.12c-10.69,12.15-26.29,30.18-38,58-10,23.76-12,42.41-15,70-3.4,31.43-7.88,105.39-10,129a47.8,47.8,0,0,1-3,13c-1.42,3.7-5.91,15.37-16,21-12.25,6.83-21,6-27,5-2.49,4,1.45,17.16,7,25,11,15.46,22.26,24,41,30,14.28,4.56,20,4,27,6,.74,3.26-4.7,10.51-10,14-12.13,8-14,7-22,8,56,33,78,19,112,47,2.16,1.78,8.09,6.86,7,9-1,1.95-6.82-.51-15,0-11.47.71-21.49,6.87-21,9,19-7,46.65,6.69,47,8-5,4-9.25,3.48-13,11-2.66,5.33-3,7-2,15,1-4-.52-6.6,13-12,9.23-3.68,28-4.12,29-2,.8,1.75-5.25,4.05-8,11s-1.1,16.16,2,17c2-6,1.23-9.79,11-20,13.31-13.91,36-17.53,48-20,11.79-2.42,11.77-.46,40-2,5-.27,23.71-1.35,44-4,34.24-4.47,32.41-8.11,50-9,36.59-1.84,50,0,68,7,1.71-3.6-13.87-12.72-25-18-10.57-5-19-4.39-19-6-.05-2.4,18.59-3.55,42-8,32.54-6.19,32.09-10.73,51-12,29-2,36-2,50,3,1.63-3.92-11.57-13.49-21-19-26.42-15.42-38-17-48-19,5-7,23.63-15.31,41-19,12.75-2.71,15.23-1.31,28-4a146,146,0,0,0,38-14c26.34-13.52,48-33,52-45-5,0-8.91.82-19,0-25.24-2.06-47.4-22-60-42-8.8-14-9.32-31.44-11-66-1-20,.23-26.7,0-41,0,0-.7-43.76-16-84-33.66-88.55-134.93-121.85-145-125-28-8.76-50.87-10.11-68-11-28-1.46-76.2-3.42-130,21C895.92,103.47,868.29,134.21,856.93,147.12Z"/><path class="cls-1" d="M1096.93,124.12c4.21,14.33,12.55,23.71,21,33,9.9,10.89,11.18,9.12,22,20,7.34,7.38,21.35,21.71,31,43,7.67,16.93,4.41,20.24,12,30,12.17,15.65,30.08,19.43,33,20,3.4.67,22.56,4.42,38-6,6.75-4.55,15.15-13.41,22-53,4.16-24.05,8.56-50.81,4-89-4.44-37.22-7.06-59.16-25-79-5.15-5.69-23.58-24.5-53-28-34.56-4.11-59.72,15.84-70,24-8,6.31-33.18,26.32-37,58A66.11,66.11,0,0,0,1096.93,124.12Z"/><path class="cls-15" d="M803.93,348.12c2.55-9.67,5.18-19.66,12-31,7.69-12.77,16.23-19.69,33-33,23-18.27,34.53-27.41,44-24,8.44,3,11.63,13.58,16,28,9.32,30.75,4.8,54.26,9,55,2.44.43,5-7.29,13-24,9-18.85,18.69-39.22,24-38,3.13.72,1.31,8.16,6,18,7.85,16.47,25.84,22.62,27,23,11.13,3.63,15.58-.35,47-5,19.66-2.91,29.49-4.36,36-3,25.25,5.28,39.62,30.35,44,38,6,10.42,23.59,41.18,10,66-16.24,29.67-63.79,26.6-73,26-29.74-1.92-49.76-22.36-53-18-2.05,2.76,4.58,12.11,12,18,11.68,9.28,25,9.77,25,10s-18.18-.89-41-10c-17.77-7.1-30.09-12-36-24-6.06-12.29-.6-22.33-6-25-6.43-3.18-22.12,7.06-28,21-4.13,9.79-1.76,17.46-8,22-2.77,2-6.55,2-14,2-30.94-.14-34.59-.3-38-4-4.76-5.16-5-12.8-5-14-.12-7.75,4.12-13.25,3-14s-5.13,6-12,10c-8.82,5.15-20.52,4.61-29,1-16.28-6.93-20.6-25.1-22-31C796.83,375.08,799.6,364.56,803.93,348.12Z"/><path class="cls-1" d="M961.93,331.12c-4.86.82-7.27,15.2-7,26,.7,28.33,20.11,48.12,21,49,21.21,21,48.45,21,58,21,13.68,0,33.49,0,47-15,14-15.51,11.51-36.28,11-40-2.37-17.12-12.66-27.67-17-32-5.28-5.27-15.81-15.76-30-16-6.93-.12-6.36,2.35-29,10-15.81,5.34-22.05,6.15-28,6-5.72-.15-11.8-.3-18-4C965.34,333.38,964.12,330.75,961.93,331.12Z"/><path class="cls-14" d="M979.93,375.12c.64-3.78,7.61-4.61,19-8,20.89-6.21,26.6-12.09,30-9,3.73,3.39.55,13.81-4,20a26.8,26.8,0,0,1-16,10c-.56.12-12.9,2.64-23-5C983.4,381.21,979.42,378.19,979.93,375.12Z"/><path class="cls-1" d="M804.93,380.12c-3.06-14.29,2.29-25.84,7-36,8-17.16,18.76-26.93,31-38,13.89-12.56,25.82-23,42-23,3.93,0,8.58.09,13,3,12.59,8.29,10.18,30.89,9,42-1.13,10.66-3.08,28.92-16,42-6.09,6.16-11.74,8.27-18,18-3,4.62-4.34,8.27-9,13-2.13,2.17-6.55,6.65-13,9-14.41,5.24-28.54-4-30-5C808.74,396.88,805.74,383.91,804.93,380.12Z"/><path class="cls-14" d="M852.93,378.12c-6.82-3.34-7-14.7-7-16-.18-12.77,10.16-20.65,12-22,3.53-2.58,11.1-8.11,19-5,6.11,2.4,9.87,9,10,15,.15,6.7-4.21,11.13-9,16C874.6,369.51,861.84,382.49,852.93,378.12Z"/><path class="cls-3" d="M948.93,296.12c-.53,4.16-2.07,16.19,4,26,1.91,3.09,8,8,10,9.5"/><path class="cls-3" d="M871.93,476.12a32.9,32.9,0,0,0,2,19,33.28,33.28,0,0,0,13,15,27.08,27.08,0,0,0,14,5,24.58,24.58,0,0,0,8-1"/><path class="cls-3" d="M916.93,536.12a23.31,23.31,0,0,0-4,7,24.76,24.76,0,0,0,0,16"/><path class="cls-16" d="M997,511.11l3.94-3a65.7,65.7,0,0,1,11.93-7.65,48.29,48.29,0,0,1,5.07,1.65c6.43,2.38,10.26,5.83,16,11,5.55,5,9.1,8.28,11,14a18.59,18.59,0,0,1,1,10c-2,9.36-13.13,15-22,16-2.36.26-11.84,1-19-5-4.66-3.9-3.4-6.51-9-15-5-7.65-9.19-10.25-11.36-12.82C987.82,518,991.8,515,997,511.11Z"/><path class="cls-14" d="M1037.93,499.12l-8.6-2.34a22,22,0,0,1,2.6.34A24.23,24.23,0,0,1,1037.93,499.12Z"/><path class="cls-14" d="M890.93,459.12l138.4,37.66a28,28,0,0,0-10.4,1.34,41.46,41.46,0,0,0-6.07,2.35,25.4,25.4,0,0,0-11.93-.35c-8.41,1.85-18.08,8.79-18,16a6.16,6.16,0,0,0,1.64,4.18,67,67,0,0,1-7.64,4.82c-5.32,2.76-18,9.11-34,7a54,54,0,0,1-23-9,54.88,54.88,0,0,1-14-14c-4.89-7.1-6.66-13.5-10-26A221.06,221.06,0,0,1,890.93,459.12Z"/><path class="cls-14" d="M997,511.11c-5.19,3.93-9.17,6.91-12.42,9.19a6.16,6.16,0,0,1-1.64-4.18c-.08-7.21,9.59-14.15,18-16a25.4,25.4,0,0,1,11.93.35,65.7,65.7,0,0,0-11.93,7.65Z"/><path class="cls-3" d="M890.93,459.12a221.06,221.06,0,0,0,5,24c3.34,12.5,5.11,18.9,10,26a54.88,54.88,0,0,0,14,14,54,54,0,0,0,23,9c16,2.11,28.68-4.24,34-7a67,67,0,0,0,7.64-4.82c3.25-2.28,7.23-5.26,12.42-9.19l3.94-3a65.7,65.7,0,0,1,11.93-7.65,41.46,41.46,0,0,1,6.07-2.35,28,28,0,0,1,10.4-1.34,22,22,0,0,1,2.6.34,24.23,24.23,0,0,1,6,2"/><path class="cls-3" d="M1012.86,500.47a48.29,48.29,0,0,1,5.07,1.65c6.43,2.38,10.26,5.83,16,11,5.55,5,9.1,8.28,11,14a18.59,18.59,0,0,1,1,10c-2,9.36-13.13,15-22,16-2.36.26-11.84,1-19-5-4.66-3.9-3.4-6.51-9-15-5-7.65-9.19-10.25-11.36-12.82"/><path class="cls-3" d="M997,511.11a29.82,29.82,0,0,1,13.94,12"/><path class="cls-1" d="M866.93,459.12c-1.35-1.27-2.9-4.51-6-11-5.52-11.56-5.34-13.63-5-15,1.3-5.23,6.88-8,9-9,3-1.49,5.44-1.79,16-2,17.76-.35,20.68.3,23,1a35,35,0,0,1,12,6,30.63,30.63,0,0,1,10,13c1.44,3.67,3.89,9.92,1,15-.73,1.28-2.55,3.81-9,6-8.29,2.81-13.13,1.3-30,0C874.07,462.06,870.6,462.57,866.93,459.12Z"/><path class="cls-14" d="M884.93,443.12c.7.76,2.19,2.09,13,3,11.72,1,13.31-.29,14-1,2.37-2.46,2.41-6.93,1-10-3.19-6.91-13.87-7-18-7-4.55,0-8.68-.05-11,3C881.38,434.48,882.14,440.08,884.93,443.12Z"/><path class="cls-5" d="M1561.43,312.62c-.16.95-.6,4.4,4,11a47.14,47.14,0,0,0,20,16c8.64,3.56,16.09,3.71,31,4,12.64.25,12.82-1.16,21,0,8.93,1.27,13.1,3.58,17,1s4.53-8.22,5-13c.38-3.88,1.35-13.68-5-21-4.77-5.49-11.15-6.7-18-8-10.65-2-11.84,1-27,0-7-.47-9.44-1.3-21-2-8.16-.49-11.34-.34-15,1C1571.8,302.22,1562.65,305.57,1561.43,312.62Z"/><path class="cls-5" d="M1566.43,416.62c-3.08-6.56,1.89-14.27,3-16,3.47-5.38,6.7-5.65,15-12s7.11-7.63,16-15c7.56-6.26,12.4-10.27,20-13,10.16-3.65,18.91-2.74,26-2,9,.94,16.2,1.68,22,7,4,3.69,3.93,6.41,8,15,8.23,17.37,17.62,25.32,16,27-1,1-4.59-1.6-18-9-15.11-8.34-17.55-8.91-20-9-3.36-.12-6.57.68-22,11-16.45,11-17.87,13.48-27,18-13.93,6.9-21.18,6.37-24,6C1578.24,424.21,1569.45,423.06,1566.43,416.62Z"/><path class="cls-5" d="M1593.43,476.62c0-3.48,1.34-6,4-11,2.4-4.53,4.42-6.88,12-16,9.52-11.45,9.89-12,12-14,5.53-5.19,8.79-8.25,14-10,6.75-2.27,12.57-.93,21,1,9.6,2.2,8.32,3.81,22,8,8.87,2.71,11.85,2.79,14,6,1.08,1.61,1.19,2.89,1,15-.17,10.61-.3,12.37-1,15-1.58,6-4.72,11.35-6,11-1.45-.39,1.69-7.47-2-13-.6-.89-1.49-1.93-13-7-7.52-3.31-9.28-3.81-11-3-2.78,1.32-3.14,5-4,8-3.28,11.42-15.2,17.82-23,22-9.18,4.92-18,9.66-27,6C1599.43,491.77,1593.4,484.25,1593.43,476.62Z"/><path class="cls-5" d="M1501.43,547.62c-2.09-2-1.18-3.15-4-24-1.42-10.48-2-13.12-2-19a62.47,62.47,0,0,1,2-17c3.75-13.44,12.57-22.56,12-23s-5.14,8.24-11,8c-1.15,0-4.44-.51-11-11a94,94,0,0,1-10-22c-3.13-9.87-7.33-23.12-4-25,2.24-1.27,4.86,4.33,14,8,9.59,3.85,20.37,3.17,23,3,7.23-.46,9.57-1.92,12,0,4.68,3.69,2.4,14.17,2,16-1.85,8.47-6.36,12.5-5,14s6-2.05,16-5c6.65-2,14.06-4.16,17-1,2,2.17,0,4.83,2,10,1.63,4.32,4.47,6.33,6,8,7.81,8.52.56,28.95-3,39-5.2,14.67-8.25,23.27-17,31C1528.34,548.31,1508.68,554.42,1501.43,547.62Z"/><path class="cls-5" d="M1560.43,553.62c-5.51-5.83-4.38-14.9-4-18,.52-4.22,1.51-4.33,9-20,4-8.34,4.87-10.74,7-11,3.75-.45,4.91,6.49,12,12,9.15,7.11,21,6.28,25,6,13.56-.95,20.3-8,22-6,2.28,2.69-8.51,16.77-21,27-6.89,5.64-14.91,12.05-27,14C1577.79,558.53,1566.75,560.31,1560.43,553.62Z"/><path class="cls-5" d="M1472.43,399.62c-1.78-7.05,2.55-15.89,6-16,1.76-.06,2.44,2.17,5,5,5.62,6.2,13.43,7.72,20,9,12.64,2.46,19.21-1,20,1,1.22,3.1-12.82,16.21-29,15C1486.27,413,1474.68,408.53,1472.43,399.62Z"/><path class="cls-5" d="M1637.43,613.62c-3.73,2.76,28.24,52.84,54,89,21.19,29.75,32.82,46.07,53,66,28.53,28.17,35.14,25,59,50,35.89,37.57,45.67,70.61,53,68,6.83-2.43,3.05-32.82-3-54-8.34-29.17-23.21-48.69-32-60a204.9,204.9,0,0,0-44-42c-21.15-14.8-23.67-10.43-44-24-13.05-8.72-17.77-14.36-58-56C1641.81,615.82,1638.44,612.88,1637.43,613.62Z"/><path class="cls-5" d="M1821.43,983.62c-6.91-3.06-1.63-16.54-6-45s-15-49.85-26-72c-16.15-32.52-27.42-42.7-25-45,4.71-4.48,50.31,31.09,80,81,12.27,20.62,15.13,32.45,13,44C1853.28,969.11,1830.72,987.73,1821.43,983.62Z"/><path class="cls-17" d="M1006.43,531.62c-1.19,2.38,3.57,7.49,8,10,1.93,1.09,6.54,3.7,12,2,.67-.21,6.32-2.06,8-7,1.85-5.43-2.34-10.91-7-17-4.41-5.77-10-10.77-11-10-1.52,1.21,10.65,15,7,20C1020.3,533.93,1008.13,528.21,1006.43,531.62Z"/><path class="cls-18" d="M1093.43,653.62c-1.16,3.86,6.28,6.38,14,18a72.38,72.38,0,0,1,10,24c2.53,11.59.54,17,3,18,4.65,1.8,15.7-16.15,23-28,3.9-6.33,6.55-11.11,21-40,10.38-20.75,13-26.19,11-28-1.52-1.39-5,.07-24,11-26.41,15.17-27.62,16.86-35,19C1103.12,651.48,1094.65,649.56,1093.43,653.62Z"/><path class="cls-18" d="M1305.43,728.62c1.48-26.93,9.86-48.57,18-66,12.55-26.9,18.83-40.35,33-54,6.7-6.45,22.55-20.18,45-25,7.85-1.68,20.14-3.05,31,3,2,1.13,6.28,3.5,6,6-.49,4.27-13.61,3.3-26,9-13.37,6.15-20.08,17.41-27,29-9.76,16.36-19.15,41.8-13,46,4.21,2.87,14.47-5,34-20,13.46-10.33,20.41-17.43,35-24,7.87-3.55,12.11-5.39,18-5,6.36.43,12.06,3.3,30,21,19.58,19.32,18.92,21.95,29,29,14.21,9.94,24.28,10.86,24,15-.38,5.54-18.4,3.61-39,16a84.81,84.81,0,0,0-28,28c-10.23,16-16.55,37.19-12,40,3.66,2.26,11.41-9.14,32-24,23-16.6,43.4-24,44-23s-23.61,9.63-40,34c-4.75,7.07-14.77,22-14,41,.25,6.29,1.76,14.85,1,15-1.12.22-2.49-18.63-11-21-6.16-1.71-14.39,5.66-17,8-5.67,5.08-5.47,7.94-9,9-5.41,1.63-10.6-3.68-20-11a307.6,307.6,0,0,0-27-18c-13.84-8.39-20.76-12.58-30-14a55.88,55.88,0,0,0-32,5c-19.24,9.31-27.23,27.53-28,27s7.26-19.92,26-40c20.65-22.12,37.88-27.53,36-34-1.78-6.13-19.6-9.39-34-4-18.71,7-24.94,26.09-31,24C1307.59,750,1304.43,746.93,1305.43,728.62Z"/><path class="cls-18" d="M1497.43,856.62c-2.24-.58-1.37-21.72,8-43a103,103,0,0,1,21-31c15.44-15.54,40-30.14,47-24,1,.89,2.51,3,0,18-3,18.13-7,26-10,38-6.07,24.25-1.43,38.31-5,39-4,.77-13.87-16-14-34-.08-11.19,3.65-17.18,1-19-4.29-3-19.4,9.14-30,23C1501.88,841.35,1499.4,857.13,1497.43,856.62Z"/><path class="cls-18" d="M1043.43,808.62c4-12.84,15.24-11.67,23-31,5.23-13,3.73-22.56,7-23,4-.53,11.11,12.93,12,27,.76,12-3.38,18.35-1,20,4,2.81,19.65-13.13,36-30,32.3-33.34,48.58-50.19,55-59,20.71-28.42,31.06-42.64,30-61-.35-6.11-2-14.62,2-17,5.4-3.22,13.52,9.31,31,13,9.85,2.08,26.11,2.08,31-6,6.33-10.46-11.37-26.18-5-35,4-5.55,12.22-1,32-6,13.87-3.53,19-8.09,21-6,3.83,3.91-11.84,21.93-24,44-9.66,17.53-14.44,37-24,76-8.33,34-14.13,58.13-16,91-1.89,33.21.88,63.69,5,64,2.68.2,4.19-12.43,15-35,5.19-10.82,11.83-22.51,13-22,1.58.7-11.34,21.86-15,51-2.94,23.43,1.45,41.3,9,72,1.21,4.94,13.69,55.05,21,54,4.31-.62,2.35-18.4,12-49,1.79-5.68,9.38-29.74,14-29s4.17,27.17,4,35a358.91,358.91,0,0,1-15,94c-10.93,37.13-18.35,62.37-39,90-13.31,17.81-26.68,29.34-24,33,3.24,4.42,27.18-6.51,45-18,11.56-7.45,33-23.16,58-59,35.91-51.44,44.57-97.71,47-97,2.63.77-10.9,53.45-26,111-31.58,120.35-38.75,142.67-60,170-14.67,18.86-31.83,34.7-28,40,4.32,6,33.25-4.4,56-20,26.88-18.43,34.1-36.6,40-34,9.2,4.05,8,55.52-16,84-4,4.76-12.66,13.64-16,28-2.42,10.43-1.35,20.81-1,24,1.73,15.63,6.58,18.56,5,25-2.32,9.48-15.75,15.06-39,20-41.09,8.72-73.83,7.12-76,7-46.06-2.57-50.36-12-86-9-17,1.44-37.88,5.44-46,7-23.35,4.47-30.13,7.2-48,9s-29.14,2.93-43-1c-22-6.25-40.36-22.43-38-29,2-5.49,16.67.61,27-9,9-8.35,9.27-23.55,7-33-2-8.51-6.74-14.73-16-27-7.17-9.5-9.69-10.73-12-17-.72-1.94-5.93-16.65,1-25,5.4-6.5,12.4-2.2,23-8,9.09-5,18.67-16.17,18-28-1-17.53-24-28.11-26-29-7.25-3.23-9.32-1.89-12-5-6.89-8,4.2-19.77,6-44,1.5-20.17-4.87-29.77,2-36,5.37-4.87,11-.56,20-6a30.49,30.49,0,0,0,14-22c1.75-14.85-8.74-29-20-33-7.63-2.69-12.45.43-15-3-3.48-4.67,4.77-11.42,10-30,3.25-11.54,5.71-20.28,5-32-.37-6-1.41-10.09,1-12,4.51-3.58,13.16,6.63,23,4,10-2.68,13.66-16.62,14-18,2.78-11.23-1.29-24.66-10-30-7.21-4.42-13.15-.56-17-5-4.16-4.81,0-12.56,3-25,4.73-19.65,3.16-37,2-50-1.56-17.31-5.58-30.48-2-32,2.81-1.2,6.36,6.51,14,7,5.72.37,12.12-3.41,15-8C1065.7,850.86,1036.45,831.06,1043.43,808.62Z"/><path class="cls-18" d="M848.43,694.62c-3.45,2.68-12.43,10.62-19,47-4.8,26.59-4.43,46.86-4,74,1.16,73.23.55,60,1,71,3.68,89.82,8.12,92.38,9,142,1.22,69.09-7.38,63-6,138,.83,45.27,4.9,98.15-1,99-3.66.53-7.54-19.5-13-19-4.79.44-5.44,16.24-12,52-5.53,30.14-7.51,32.23-6,41,3.77,21.87,20.74,35.77,32,45,10.07,8.25,29,15.5,67,30,21.21,8.1,26.72,9.55,33,7,13.52-5.49,17.81-24.31,23-47,2.52-11,3.8-20.74,6-52,2-27.92,2.95-41.89,3-50,.27-41.24-7.47-50.9-9-84-.77-16.73,1.08-16.94,10-80,10.64-75.23,7.54-71.67,15-115,10-58.12,14.41-57.69,15-86,.56-26.95-3.17-40.17,1-73,2.37-18.68,4.8-24,5-40,.33-25.83-5.4-58.3-14-59-9.29-.75-20.22,35.72-23,45-8.58,28.63-6,41.33-12,43-6.26,1.75-11.7-11.47-46-68-13-21.36-23.36-37.89-17-51,4.15-8.56,12.93-10.47,12-14C896.79,684.41,866.91,680.25,848.43,694.62Z"/><path class="cls-18" d="M693.43,799.62c-3.43,10.34,26.39,32.59,32,28,4.94-4-10.94-27.23-7-30s24,17.26,39,37c9.07,12,26.51,35.4,36,70,4.25,15.5,5,26.11,6,26,1.7-.19,3.47-28.82-5-60-5.8-21.34-10.13-20.84-22-54-9.28-25.92-13.9-39.22-13-56,1.36-25.47,13.41-39.87,10-42-4-2.49-25.42,13.88-29,36-2.21,13.7,3,26.22-1,28s-11.06-11-18-9c-4.2,1.19-3.58,6.44-9,13C704.4,796.36,695.2,794.3,693.43,799.62Z"/><path class="cls-18" d="M657.43,828.62c-.64,2.14,15.08,5.37,36,20,21.55,15.08,30.16,29.36,32,28,2.15-1.58-6-23.62-25-37S658.19,826.09,657.43,828.62Z"/><path class="cls-18" d="M813.43,679.62c-3.46-.73-11.77,21-16,41-4.64,21.86-5.8,48.26-2,49,4.1.8,14.25-28.24,18-56C815.08,701.45,816.73,680.32,813.43,679.62Z"/><path class="cls-18" d="M563.43,872.62c-1.21,1.17,13.76,14.6,31,42a279.5,279.5,0,0,1,29,61c13.9,43.11,10,73.88,14,74,3.67.11,9.7-25.43,8-52-2.07-32.4-15.13-58.54-17-58-2.1.61,6.82,35.53,5,36-1.58.4-5.55-26.5-22-54C592.38,889.78,565,871.14,563.43,872.62Z"/><path class="cls-18" d="M606.43,873.62c-1.77,1.92,18.81,17.2,37,45,36.55,55.87,33.48,116.54,39,116,3.18-.31,4.68-20.46,4-36-.81-18.48-4.68-29.39-3-30,3.92-1.43,26.08,57.32,30,56,2.7-.91-1.25-31-17-61-10.68-20.32-23.09-33.51-35-46C636.7,891.69,608.49,871.39,606.43,873.62Z"/><path class="cls-17" d="M1543.43,332.62c0,9-34.36,12-38.5,12a7.5,7.5,0,0,1,0-15C1509.07,329.62,1543.43,328.48,1543.43,332.62Z"/><path class="cls-17" d="M1716.43,340.62c0,1,7,11,7,11h30l-9-12Z"/><path class="cls-19" d="M831.43,1613.62c-3.41-4.05-6.88-11.27-8-19-1.06-7.31.71-10,2-24,1.58-17.31-.55-19.49,2-22,6-5.94,19.3,4.89,53,15,28.86,8.66,43.29,13,57,11,5.5-.8,11.17-2.3,16,1,6.67,4.55,3.86,12.89,11,30,4.23,10.14,7.33,12.3,6,15-3.12,6.32-22.69-.45-47-3C872.65,1612.29,845.17,1630,831.43,1613.62Z"/><path class="cls-19" d="M983.43,1570.62c-5.79,10.63,8.91,30.44,16,40,5,6.67,7.71,10.3,13,13,10.4,5.31,17.12.17,35,1,18.72.86,28,7.26,30,4,2.22-3.65-9.81-11-20-31-5.91-11.6-4.09-13.51-8-19C1035.14,1558.54,991.14,1556.49,983.43,1570.62Z"/><path class="cls-19" d="M1083.43,1569.62c5.93,19.64,13.22,32.05,18,39a24.59,24.59,0,0,0,8,8c10.36,6,23.19,1.5,28,0,12.27-3.83,9,.73,63,0,67.51-.91,59.94-7.85,87-4,24.18,3.44,38.91,10.22,53,1,11.62-7.6,16.69-22.09,17-23,4.73-14,.75-25.8,2-26,1.54-.24,9.94,17.17,8,38-.72,7.8-2.45,11.29,0,15,5.09,7.69,23.32,9,31,1,5.29-5.49,2.17-11.82,0-40s.06-33.39-5-38c-8.47-7.72-23.77-1.55-50,6,0,0-17.21,5-75,17-34.8,7.25-61.23,8-93,9a705.2,705.2,0,0,1-99-4"/><path class="cls-19" d="M1083.43,1534.62c-2.17-4-1.72-11.8-1-24,.48-8.27,1.37-10,2-11,3.5-5.57,9.82-5.56,24-9,17.71-4.3,16.92-6.53,25-7,10.78-.63,17.74,3,28,7,17.13,6.68,30.41,9.31,49,13,13.6,2.7,31.35,6.08,54,4,18.87-1.74,33.56-6.57,47-11,16.75-5.52,25.12-8.28,33-13,8.93-5.36,23.38-15.87,39-18,1.95-.27,4.39-.47,6,1,4.06,3.7-3.06,12.7-1,27,1,6.64,2.86,7.31,2,10-3,9.27-27.94,8.43-45,9-31.27,1-26.6,6.48-75,13-65.93,8.88-63.13-2.69-117,6C1122,1536.69,1089.53,1545.71,1083.43,1534.62Z"/><path class="cls-19" d="M960.43,1520.62c-.78-2.17.9-3,2-13,.5-4.59.23-5.21,1-6,3.1-3.21,10.61,3.66,25,6,2.1.34,9.07.89,23,2,6.52.52,9.64.73,11,3,2.14,3.58-1.06,10.64-6,14s-9.52,1.66-22,0C972.3,1523.68,962.26,1525.68,960.43,1520.62Z"/><path class="cls-19" d="M820.43,1492.62c-2.35-5-2.84-11.83,0-14,3.05-2.33,8.39,1.95,18,6,5.15,2.17,16.1,4.12,38,8,14.83,2.63,22.33,3.93,26,3,2-.49,4.75-1.42,7,0,3.75,2.36,3.84,9.84,2,15-.33.93-2.33,6.29-7,9-7.55,4.39-17-1.08-29-6C842.27,1500,826.52,1505.54,820.43,1492.62Z"/></g></g></svg>