<svg xmlns="http://www.w3.org/2000/svg" viewBox="0 0 100 100"><defs><style>.cls-1{fill:#fff;}.cls-2{fill:#ff0049;}.cls-3{fill:#fff800;}.cls-4{fill:#11113f;}</style></defs><title>hand-button</title><g id="Layer_2" data-name="Layer 2"><g id="Layer_1-2" data-name="Layer 1"><circle class="cls-1" cx="50" cy="50" r="50"/><circle class="cls-2" cx="44.7" cy="25.32" r="11.83"/><polygon class="cls-3" points="38.37 51.19 38.37 27.44 45.34 23.28 50.24 28.48 50.24 40.8 71.61 48.22 75.47 54.16 74.29 66.92 69.24 75.38 67.61 86.36 43.12 86.36 25.01 52.37 29.01 45.55 33.76 46.88 38.37 51.19"/><path class="cls-4" d="M76.74,55c-1.27-7.54-6.8-9-9.21-9.28a8.54,8.54,0,0,0-7-3.55,10.41,10.41,0,0,0-1.9.18,8.69,8.69,0,0,0-6.69-3H51.7V37A13.54,13.54,0,1,0,30.94,25.56,13.9,13.9,0,0,0,37.11,37V48.18L37,47.92a7,7,0,0,0-6.06-3.53,7.67,7.67,0,0,0-6.59,3.87,7,7,0,0,0,.18,7.19L40.48,86a3.7,3.7,0,0,0,3.26,2H66.2a3.7,3.7,0,0,0,3.67-3.48L70.39,76C76,67.44,77.81,61.29,76.74,55ZM34,25.56a10.48,10.48,0,1,1,21,0,10.27,10.27,0,0,1-3.28,7.56V29.85a20.49,20.49,0,0,0-.22-2.22,7.23,7.23,0,1,0-13.9-.17s-.05,0-.06,0a7.75,7.75,0,0,0-.41,2.35V33A11,11,0,0,1,34,25.56ZM67.47,74.86a.61.61,0,0,0-.1.3l-.56,9.18a.63.63,0,0,1-.61.59H43.75a.63.63,0,0,1-.54-.35L27.22,54c-2-3.35.83-6.49,3.75-6.49a4,4,0,0,1,3.49,2.09l2,3.14a1.91,1.91,0,0,0,1.65.94,2,2,0,0,0,2-2.07V29.85a4.22,4.22,0,1,1,8.44,0V42.2a.67.67,0,0,0,.67.61.85.85,0,0,0,.22,0,8.24,8.24,0,0,1,2.46-.4,5.62,5.62,0,0,1,5.08,3,.65.65,0,0,0,.56.32.63.63,0,0,0,.22,0,8,8,0,0,1,2.67-.49,5.49,5.49,0,0,1,4.8,2.66,1.9,1.9,0,0,0,1.48.84c1.9.11,6,1,6.92,6.77C74.64,61,73,66.41,67.47,74.86Z"/></g></g></svg>