<svg xmlns="http://www.w3.org/2000/svg" viewBox="0 0 100 100"><defs><style>.cls-1{fill:#fff;}.cls-2{fill:#9393a3;}.cls-3{fill:#11113f;}</style></defs><title>lock</title><g id="Layer_2" data-name="Layer 2"><g id="Layer_1-2" data-name="Layer 1"><circle class="cls-1" cx="50" cy="50" r="50"/><rect class="cls-2" x="24.8" y="36.99" width="51.21" height="41.1"/><g id="lock"><path class="cls-3" d="M68.93,33.86a1.35,1.35,0,0,1-1.34-1.25C66.74,20.17,60.28,13,50,13S33.26,20.17,32.41,32.61a1.35,1.35,0,0,1-1.34,1.25H23.81a2.7,2.7,0,0,0-2.7,2.7V79.3a2.7,2.7,0,0,0,2.7,2.7H76.19a2.7,2.7,0,0,0,2.7-2.7V36.56a2.7,2.7,0,0,0-2.7-2.7ZM50,19.42c8,0,10.57,6.35,11.11,13a1.35,1.35,0,0,1-1.34,1.45H40.23a1.35,1.35,0,0,1-1.34-1.45C39.43,25.77,42,19.42,50,19.42ZM71.12,75.58H28.88a1.35,1.35,0,0,1-1.35-1.35V41.63a1.35,1.35,0,0,1,1.35-1.35H71.12a1.35,1.35,0,0,1,1.35,1.35V74.23A1.35,1.35,0,0,1,71.12,75.58ZM46.79,60.24v7.58a1.35,1.35,0,0,0,1.35,1.35h3.72a1.35,1.35,0,0,0,1.35-1.35V60.24a1.33,1.33,0,0,1,.5-1,8.34,8.34,0,0,0,2.71-6.08,6.42,6.42,0,0,0-12.84,0,8.34,8.34,0,0,0,2.71,6.08A1.33,1.33,0,0,1,46.79,60.24Z"/></g></g></g></svg>