<svg xmlns="http://www.w3.org/2000/svg" viewBox="0 0 100 100"><defs><style>.cls-1{fill:#fff;}.cls-2{fill:#556080;}.cls-3{fill:#465066;}.cls-4{fill:none;stroke:#424a60;stroke-linecap:round;stroke-linejoin:round;stroke-width:2px;}.cls-5{fill:#d75a4a;}.cls-6{fill:#7383bf;}.cls-7{fill:#11113f;}</style></defs><title>map-path</title><g id="Layer_2" data-name="Layer 2"><g id="Layer_1-2" data-name="Layer 1"><circle class="cls-1" cx="50" cy="50" r="50"/><polygon class="cls-2" points="40.66 71.18 19.37 78.27 19.37 27.41 40.66 20.31 40.66 71.18"/><polygon class="cls-3" points="80.88 68.81 60.77 79.46 60.77 30.96 80.88 20.31 80.88 68.81"/><line class="cls-4" x1="31.2" y1="39.24" x2="31.2" y2="42.79"/><circle class="cls-5" cx="31.2" cy="34.51" r="4.73"/><path class="cls-6" d="M60.77,31,40.66,20.31V71.18l20.11,8.28Z"/><line class="cls-4" x1="28.83" y1="46.34" x2="33.56" y2="51.07"/><line class="cls-4" x1="28.83" y1="51.07" x2="33.56" y2="46.34"/><path class="cls-7" d="M81.37,19.17a1.18,1.18,0,0,0-1.16,0L60.65,29.49,41.09,19.14l0,0-.17-.07-.1,0-.2,0h-.09l-.19,0-.11,0h0l-21.29,7.1a1.18,1.18,0,0,0-.81,1.12V78.15a1.18,1.18,0,0,0,1.18,1.18,1.16,1.16,0,0,0,.37-.06l20.88-7L60.2,80.43h.05a1.07,1.07,0,0,0,.71,0l.1,0,.14-.05L81.31,69.73a1.18,1.18,0,0,0,.63-1V20.18A1.18,1.18,0,0,0,81.37,19.17Zm-60.95,9,18.93-6.31V53.76c-.51.09-1,.2-1.5.32a1.18,1.18,0,0,0,.3,2.33,1.23,1.23,0,0,0,.3,0c.28-.08.59-.11.89-.18v14L20.42,76.51ZM41.72,55.86c.38,0,.75-.08,1.14-.09a1.18,1.18,0,0,0,0-2.37h0l-1.09.05V22.15l17.75,9.39V56.62a17.69,17.69,0,0,1-2.6-.31,1.18,1.18,0,1,0-.45,2.32,20.1,20.1,0,0,0,3.05.34v18.6L41.72,70.26ZM79.58,68,61.83,77.37V58.84a1.16,1.16,0,0,0,0-2.13V31.54l17.75-9.39Z"/><path class="cls-7" d="M31.07,28.46a5.92,5.92,0,0,0-1.18,11.71v2.49a1.18,1.18,0,1,0,2.37,0V40.18a5.92,5.92,0,0,0-1.18-11.71Zm0,9.46a3.55,3.55,0,1,1,3.55-3.55A3.55,3.55,0,0,1,31.07,37.93Z"/><path class="cls-7" d="M71.38,50.56a1.19,1.19,0,0,0,1.53-.67,26.5,26.5,0,0,0,1.33-4.76,1.18,1.18,0,1,0-2.33-.43A24.09,24.09,0,0,1,70.71,49,1.18,1.18,0,0,0,71.38,50.56Z"/><path class="cls-7" d="M33.21,56.08a16.41,16.41,0,0,0-3.83,3.34,1.18,1.18,0,0,0,1.81,1.52,14,14,0,0,1,3.27-2.86,1.18,1.18,0,0,0-1.26-2Z"/><path class="cls-7" d="M28.26,63.1a1.18,1.18,0,0,0-1.57.58,18.88,18.88,0,0,0-1.53,4.85,1.18,1.18,0,0,0,1,1.33h.16a1.19,1.19,0,0,0,1.17-1,16.72,16.72,0,0,1,1.33-4.18A1.18,1.18,0,0,0,28.26,63.1Z"/><path class="cls-7" d="M65.88,57.72a1.18,1.18,0,0,0,.54-.13,12.33,12.33,0,0,0,4-3.3,1.18,1.18,0,1,0-1.85-1.48,10,10,0,0,1-3.24,2.67,1.18,1.18,0,0,0,.54,2.24Z"/><path class="cls-7" d="M52.57,55c-.52-.22-.83-.37-.85-.38a1.18,1.18,0,0,0-.24-.09c-1.28-.33-2.54-.59-3.75-.77a1.18,1.18,0,1,0-.36,2.34c1.1.17,2.24.4,3.4.7.16.08.46.22.88.4A1.18,1.18,0,0,0,52.57,55Z"/><path class="cls-7" d="M73.57,41.4h.08a1.18,1.18,0,0,0,1.18-1.11c.07-1.14.11-2.34.11-3.57,0-.41,0-.83,0-1.25a1.22,1.22,0,0,0-1.2-1.16,1.18,1.18,0,0,0-1.16,1.2c0,.41,0,.81,0,1.21,0,1.18,0,2.33-.11,3.42A1.18,1.18,0,0,0,73.57,41.4Z"/><path class="cls-7" d="M27.87,51.78a1.18,1.18,0,0,0,1.67,0l1.53-1.53,1.53,1.53a1.18,1.18,0,1,0,1.67-1.67l-1.53-1.53L34.27,47a1.18,1.18,0,1,0-1.67-1.67L31.07,46.9l-1.53-1.53A1.18,1.18,0,1,0,27.87,47l1.53,1.53-1.53,1.53A1.18,1.18,0,0,0,27.87,51.78Z"/></g></g></svg>