<svg xmlns="http://www.w3.org/2000/svg" viewBox="0 0 100 100"><defs><style>.cls-1{fill:#fff;}.cls-2{fill:#ffeec0;}.cls-3{fill:#11113f;}.cls-4{fill:#ffc61b;}</style></defs><title>pin</title><g id="Layer_2" data-name="Layer 2"><g id="Layer_1-2" data-name="Layer 1"><circle class="cls-1" cx="50" cy="50" r="50"/><rect class="cls-2" x="23.37" y="31.67" width="53.17" height="46.21" rx="7.56" ry="7.56" transform="translate(-13.05 15.71) rotate(-15.83)"/><path class="cls-3" d="M35.29,85h0A7.6,7.6,0,0,1,28,79.58L17.74,45.87a7.65,7.65,0,0,1,5.09-9.54L62.12,24.4a7.64,7.64,0,0,1,9.54,5.09L81.89,63.2a7.65,7.65,0,0,1-5.09,9.54L37.52,84.67A7.64,7.64,0,0,1,35.29,85Zm29-57.05a3.77,3.77,0,0,0-1.1.16L24,40a3.77,3.77,0,0,0-2.51,4.7l10.24,33.7a3.79,3.79,0,0,0,3.6,2.67h0a3.77,3.77,0,0,0,1.1-.16L75.67,69a3.77,3.77,0,0,0,2.51-4.7L67.95,30.62A3.79,3.79,0,0,0,64.34,27.95Z"/><path class="cls-3" d="M31.36,55.41a1.94,1.94,0,0,1-.56-3.79l32.94-10a1.94,1.94,0,0,1,1.13,3.71l-32.94,10A1.94,1.94,0,0,1,31.36,55.41Z"/><path class="cls-3" d="M35.07,67.63a1.94,1.94,0,0,1-.56-3.79l32.94-10a1.94,1.94,0,0,1,1.13,3.71l-32.94,10A1.94,1.94,0,0,1,35.07,67.63Z"/><path class="cls-4" d="M37.1,32l.73-6.61a1.76,1.76,0,0,0-1.75-2h0a1.76,1.76,0,0,1-1.76-1.76v-3a1.76,1.76,0,0,1,1.76-1.76H51.35a1.76,1.76,0,0,1,1.76,1.76v3a1.76,1.76,0,0,1-1.76,1.76h0a1.76,1.76,0,0,0-1.75,2L50.32,32a1.76,1.76,0,0,1-1.75,2H38.85A1.76,1.76,0,0,1,37.1,32Z"/><path class="cls-3" d="M48.57,35.92H38.85a3.7,3.7,0,0,1-3.68-4.1l.7-6.42a3.71,3.71,0,0,1-3.5-3.7v-3a3.71,3.71,0,0,1,3.7-3.7H51.35A3.71,3.71,0,0,1,55,18.7v3a3.71,3.71,0,0,1-3.5,3.7l.7,6.42a3.7,3.7,0,0,1-3.68,4.1ZM39,32h9.33l-.7-6.41a3.7,3.7,0,0,1,3.5-4.1V18.88H36.25v2.66a3.7,3.7,0,0,1,3.5,4.1Z"/><path class="cls-3" d="M43.71,42.85a1.94,1.94,0,0,1-1.94-1.94V34a1.94,1.94,0,0,1,3.88,0v6.93A1.94,1.94,0,0,1,43.71,42.85Z"/></g></g></svg>