<svg xmlns="http://www.w3.org/2000/svg" viewBox="0 0 100 100"><defs><style>.cls-1{fill:#00aff0;}.cls-2{fill:#fff;}</style></defs><title>skype-logo</title><g id="Layer_2" data-name="Layer 2"><g id="Layer_1-2" data-name="Layer 1"><circle class="cls-1" cx="50" cy="50" r="50"/><path class="cls-2" d="M72.28,69.72a18.05,18.05,0,0,1-8.08,6.15,32.4,32.4,0,0,1-12.6,2.23q-8.74,0-14.42-3a18.66,18.66,0,0,1-6.55-5.84,12.55,12.55,0,0,1-2.52-7.1,4.54,4.54,0,0,1,1.51-3.42,5.34,5.34,0,0,1,3.84-1.43,4.74,4.74,0,0,1,3.2,1.11,8.58,8.58,0,0,1,2.23,3.3A21.12,21.12,0,0,0,41.34,66,9.71,9.71,0,0,0,45,68.89,14.78,14.78,0,0,0,51.27,70a15,15,0,0,0,8.64-2.28A6.73,6.73,0,0,0,63.24,62a5.74,5.74,0,0,0-1.79-4.39,11.75,11.75,0,0,0-4.63-2.57q-2.84-.9-7.6-1.89A59,59,0,0,1,38.56,50a17.1,17.1,0,0,1-6.81-5,12.27,12.27,0,0,1-2.52-7.88,12.76,12.76,0,0,1,2.66-8,16.65,16.65,0,0,1,7.69-5.36,33.91,33.91,0,0,1,11.84-1.87,31.89,31.89,0,0,1,9.41,1.24,20.44,20.44,0,0,1,6.58,3.3,14,14,0,0,1,3.83,4.32,9.31,9.31,0,0,1,1.21,4.41,5.27,5.27,0,0,1-5.27,5.12,4.59,4.59,0,0,1-3.12-.95,12.67,12.67,0,0,1-2.31-3.1,14.19,14.19,0,0,0-3.87-4.8q-2.26-1.72-7.25-1.72a13.34,13.34,0,0,0-7.47,1.87c-1.89,1.24-2.84,2.75-2.84,4.5a4.35,4.35,0,0,0,1,2.82,7.81,7.81,0,0,0,2.66,2,19.1,19.1,0,0,0,3.42,1.34q1.73.48,5.72,1.41,5,1.07,9,2.37A28.87,28.87,0,0,1,69,49.22a13.38,13.38,0,0,1,4.43,4.7A14,14,0,0,1,75,60.87,15.06,15.06,0,0,1,72.28,69.72Z"/></g></g></svg>