<svg xmlns="http://www.w3.org/2000/svg" viewBox="0 0 100 100"><defs><style>.cls-1{fill:#1bd741;}.cls-2{fill:#fff;}</style></defs><title>wa-logo</title><g id="Layer_2" data-name="Layer 2"><g id="Layer_1-2" data-name="Layer 1"><rect class="cls-1" width="100" height="100" rx="50" ry="50"/><path class="cls-2" d="M34,23.36l-3.69-.2a4.46,4.46,0,0,0-3.17,1.08c-1.79,1.55-4.65,4.55-5.52,8.46-1.31,5.83.71,13,6,20.11s15,18.57,32.25,23.45c5.56,1.57,9.94.51,13.31-1.65a11.9,11.9,0,0,0,5.18-7.56l.59-2.75a1.91,1.91,0,0,0-1.07-2.14L65.4,56.43a1.91,1.91,0,0,0-2.31.57L58.2,63.34a1.4,1.4,0,0,1-1.57.47c-3.35-1.18-14.57-5.88-20.73-17.74a1.41,1.41,0,0,1,.18-1.58l4.68-5.41a1.91,1.91,0,0,0,.31-2L35.69,24.52A1.91,1.91,0,0,0,34,23.36Z"/></g></g></svg>