<svg xmlns="http://www.w3.org/2000/svg" viewBox="0 0 100 100"><defs><style>.cls-1{fill:#fff;}.cls-2{fill:#ed7951;}.cls-3{fill:#f4c42a;}.cls-4{fill:#11113f;}</style></defs><title>writing</title><g id="Layer_2" data-name="Layer 2"><g id="Layer_1-2" data-name="Layer 1"><circle class="cls-1" cx="50" cy="50" r="50"/><polygon class="cls-2" points="50 29.27 56.69 22.44 66.14 32.15 59.45 38.71 50 29.27"/><polygon class="cls-3" points="22.05 66.14 22.05 56.56 49.08 29.92 58.79 39.37 32.42 66.14 22.05 66.14"/><path class="cls-4" d="M78.49,75.93h-57a2.14,2.14,0,0,0-2.14,2.14,2.18,2.18,0,0,0,2.14,2.14h57a2.14,2.14,0,0,0,2.14-2.14A2.19,2.19,0,0,0,78.49,75.93Z"/><path class="cls-4" d="M19.38,57l-.05,10.16A2.21,2.21,0,0,0,20,68.74a2.09,2.09,0,0,0,1.51.62l10.1-.05a2.09,2.09,0,0,0,1.51-.62L68,33.8a2.2,2.2,0,0,0,0-3.07L58,20.62a2.2,2.2,0,0,0-3.07,0l-7,7L20,55.52A2.32,2.32,0,0,0,19.38,57ZM56.46,25.21l7,7-4,4-7-7ZM23.7,58,49.43,32.24l7,7L30.73,64.94,23.65,65l.05-7Z"/></g></g></svg>