<svg xmlns="http://www.w3.org/2000/svg" viewBox="0 0 100 100"><defs><style>.cls-1{fill:#fff;}.cls-2{fill:#11113f;}</style></defs><title>falling</title><g id="Layer_2" data-name="Layer 2"><g id="Layer_1-2" data-name="Layer 1"><circle class="cls-1" cx="50" cy="50" r="50"/><circle class="cls-2" cx="29.95" cy="24.48" r="6.48"/><path class="cls-2" d="M75.59,51.58A31.51,31.51,0,0,0,67,47.08a4.2,4.2,0,0,0-3,.05,4,4,0,0,0-.8-.08,21.09,21.09,0,0,0-9,2.12,8.42,8.42,0,0,0-.81-1.41L49.73,42.6a21.63,21.63,0,0,0,7.05-9.17c1.82-4.43-5.16-6.89-7-2.5a13.23,13.23,0,0,1-4.39,5.63l-2-2.82a84.91,84.91,0,0,0,11-9.62c3.2-3.35-2.38-7.88-5.56-4.54A82.74,82.74,0,0,1,34.68,31.1a5.74,5.74,0,0,0-1.08.73C30.83,34.25,31,37.92,33,40.72L43.91,56a5,5,0,0,0,2.51,1.82c4.95,5.47,6.79,11.73,6.42,19.55-.23,4.77,7.17,5.2,7.4.43C60.61,70,59.09,63,55.12,56.95a15.15,15.15,0,0,1,8.75-2.74A3.61,3.61,0,0,0,65.08,54a24.71,24.71,0,0,1,6,3.16,3.59,3.59,0,1,0,4.54-5.56Z"/><path class="cls-2" d="M35,79.41a48.38,48.38,0,0,1-6.74-1.79,15.81,15.81,0,0,1-3.1-1.46,4.07,4.07,0,0,1-2.06-2.61,2.91,2.91,0,0,0,.35,1.81,6,6,0,0,0,1.17,1.48,13,13,0,0,0,3.09,2.05,29.19,29.19,0,0,0,6.94,2.26,44.1,44.1,0,0,0,7.19.82,38.48,38.48,0,0,0,7.2-.39c-2.38-.37-4.74-.66-7.08-1S37.33,79.89,35,79.41Z"/><path class="cls-2" d="M41.76,75a40.76,40.76,0,0,1-4-1,10.76,10.76,0,0,1-1.88-.77,2.5,2.5,0,0,1-1.36-1.44,2.41,2.41,0,0,0,.82,2.13,7.51,7.51,0,0,0,1.87,1.36,15.77,15.77,0,0,0,4.23,1.47,21.75,21.75,0,0,0,4.39.43,17.56,17.56,0,0,0,4.38-.51c-1.44-.37-2.85-.62-4.26-.88Z"/></g></g></svg>