<svg xmlns="http://www.w3.org/2000/svg" viewBox="0 0 100 100"><defs><style>.cls-1{fill:#fff;}.cls-2{fill:#edeada;stroke-width:3px;}.cls-2,.cls-3,.cls-4{stroke:#11113f;stroke-linecap:round;stroke-linejoin:round;}.cls-3{fill:#ebba16;}.cls-4{fill:#7383bf;}</style></defs><title>insta-description</title><g id="Layer_2" data-name="Layer 2"><g id="Layer_1-2" data-name="Layer 1"><circle class="cls-1" cx="50" cy="50" r="50"/><rect class="cls-2" x="21" y="21" width="58" height="58"/><polygon class="cls-3" points="34.93 31 36.14 33.46 38.86 33.85 36.89 35.77 37.36 38.47 34.93 37.2 32.5 38.47 32.97 35.77 31 33.85 33.72 33.46 34.93 31"/><polygon class="cls-3" points="34.93 46.08 36.14 48.54 38.86 48.94 36.89 50.85 37.36 53.56 34.93 52.28 32.5 53.56 32.97 50.85 31 48.94 33.72 48.54 34.93 46.08"/><polygon class="cls-3" points="34.93 61.53 36.14 63.99 38.86 64.38 36.89 66.3 37.36 69 34.93 67.72 32.5 69 32.97 66.3 31 64.38 33.72 63.99 34.93 61.53"/><path class="cls-4" d="M67,37H43.43a1,1,0,1,1,0-2H67a1,1,0,0,1,0,2Z"/><path class="cls-4" d="M67,52H43.43a1,1,0,1,1,0-2H67a1,1,0,0,1,0,2Z"/><path class="cls-4" d="M67,67H43.43a1,1,0,1,1,0-2H67a1,1,0,0,1,0,2Z"/></g></g></svg>